<svg width="182" height="182" viewBox="0 0 182 182" fill="none" xmlns="http://www.w3.org/2000/svg">
<path fill-rule="evenodd" clip-rule="evenodd" d="M119.113 33.5154C93.6131 23.3154 62.6663 29.1317 44.6845 48.9375L44.6831 48.9391C35.8301 58.6851 30.2777 70.9757 28.8163 84.0609C27.3549 97.1461 30.0592 110.359 36.5439 121.818C43.0286 133.277 52.9633 142.398 64.9333 147.882C76.9034 153.366 90.2985 154.934 103.212 152.362L103.214 152.362C129.195 147.195 148.56 123.704 153.728 97.8587C154.653 93.2385 159.147 90.2422 163.767 91.1663C168.387 92.0903 171.384 96.5848 170.46 101.205C164.254 132.235 140.734 162.297 106.542 169.097C90.1078 172.369 73.0602 170.373 57.8264 163.394C42.5918 156.414 29.9476 144.805 21.6943 130.221C13.441 115.637 9.99931 98.821 11.8592 82.1671C13.7191 65.5139 20.7853 49.8719 32.0518 37.4682M32.0533 37.4666C55.3401 11.8192 94.0757 5.12356 125.45 17.6733C129.825 19.4231 131.952 24.3881 130.203 28.7628C128.453 33.1375 123.488 35.2653 119.113 33.5154" fill="#009640"/>
<path fill-rule="evenodd" clip-rule="evenodd" d="M167.88 36.3875C171.342 39.5833 171.558 44.9807 168.363 48.4429L100.113 122.38C98.5377 124.086 96.3356 125.077 94.0143 125.123C91.693 125.17 89.453 124.268 87.8112 122.626L59.3737 94.1888C56.0421 90.8571 56.0421 85.4555 59.3737 82.1238C62.7054 78.7921 68.1071 78.7921 71.4388 82.1238L93.5976 104.283L155.825 36.8697C159.021 33.4076 164.418 33.1917 167.88 36.3875Z" fill="#009640"/>
</svg>
