<svg width="277" height="290" viewBox="0 0 277 290" fill="none" xmlns="http://www.w3.org/2000/svg">
<g clip-path="url(#clip0_3414_45531)">
<path d="M242.066 31.3811C236.005 23.0682 228.338 16.0675 219.522 10.7972C198.829 -1.47898 174.69 -2.80666 152.068 4.48581C148.889 5.51085 126.928 13.5355 131.652 19.5247C132.999 21.2429 135.565 22.4534 137.15 24.1423C139.381 26.5487 141.291 29.2333 143.513 31.6495C143.746 31.9033 143.975 32.162 144.203 32.4207L144.655 32.9088C151.256 40.3087 154.09 53.2682 153.405 62.9378C152.627 73.6178 147.761 82.5113 140.903 90.453C134.938 97.3647 127.462 102.212 120.973 108.469C118.825 110.544 115.378 112.374 114.975 115.606C114.615 118.471 117.279 119.75 117.279 122.244L117.974 123.367C118.013 123.435 118.057 123.503 118.1 123.572C141.053 154.094 184.995 162.016 217.602 142.994C221.301 140.825 224.817 138.357 228.116 135.614C242.82 123.411 251.312 106.087 254.282 87.3485C254.557 85.6011 254.789 83.8487 254.977 82.0915C256.843 64.5632 253.392 46.8836 242.066 31.3811ZM222.006 118.554C220.086 120.345 217.966 122.151 215.687 123.884C206.619 130.811 195.793 135.037 184.447 136.079C173.101 137.12 161.692 134.936 151.524 129.776C153.137 130.601 156.54 123.264 157.172 122.205C160.574 116.582 165.202 116.748 170.913 116.323C179.362 115.689 181.578 109.338 187.586 104.926C195.85 98.8632 207.161 100.142 215.487 105.326C218.525 106.976 224.995 109.553 224.903 113.736C224.859 115.664 223.411 117.241 222.006 118.554ZM239.106 76.8101C238.819 81.3105 234.61 84.7469 230.298 85.1374C229.608 82.4283 230.002 79.6753 228.767 76.8394C227.669 74.3158 226.079 72.0363 224.713 69.6494C224.48 69.2394 224.227 68.8294 224.038 68.4145C222.006 64.5095 221.058 59.8724 218.015 56.5581C214.471 52.6922 208.634 51.0668 203.7 49.9734C201.634 49.5195 199.262 49.5146 197.303 48.7678C191.543 46.5664 187.771 41.2166 186.074 35.4422C184.038 28.5109 183.299 16.0883 193.939 17.3233C202.203 18.2995 210.568 24.4449 216.873 29.5994C223.517 35.0322 228.85 40.8261 232.461 48.6604C235.568 55.411 236.297 62.3277 238.047 69.3809C238.654 71.8118 239.267 74.306 239.106 76.8101V76.8101Z" fill="#00BDFF"/>
<path opacity="0.7" d="M48.6899 29.4047C53.2888 28.8776 57.946 29.2708 62.3927 30.5615C64.3182 31.1103 66.1894 31.8358 67.9826 32.7288C70.7786 34.1422 73.2966 36.0522 75.4148 38.3665C77.3592 40.4068 79.7896 41.3391 82.6235 40.4654C85.5983 39.5429 87.9121 37.2536 90.4008 35.3939C97.5754 30.0588 106.952 28.6579 115.638 29.8928C120.037 30.5052 124.315 31.8029 128.315 33.7392C132.034 35.5598 135.203 40.0066 137.148 43.6284C139.725 48.3823 141.155 53.6771 141.323 59.0871C141.62 71.329 131.232 82.2775 123.041 90.4486C118.365 95.115 113.32 99.6056 108.264 103.818C105.892 105.795 103.204 107.279 100.905 109.412C98.5087 111.633 96.3068 114.049 93.9249 116.289C90.1092 119.887 85.3018 123.313 79.9111 123.689C74.8413 124.041 69.9853 118.984 66.6653 115.645C61.367 110.315 55.5243 105.673 50.0412 100.514C45.0443 95.8179 40.1494 91.0148 35.3566 86.1043C31.1812 81.8284 25.2121 77.1572 22.8351 71.6658C18.1541 60.8492 20.1325 49.0416 27.9827 40.1872C33.3227 34.149 40.6986 30.3083 48.6899 29.4047V29.4047Z" fill="#009448"/>
<path opacity="0.7" d="M273.015 229.439C266.006 240.387 254.32 244.785 243.85 251.262C234.712 256.905 225.145 263.719 215.414 268.122C204.137 273.223 189.715 274.746 177.563 276.566C172.831 277.273 168.084 277.868 163.32 278.353C152.435 279.452 141.498 279.949 130.558 279.842C92.1577 279.461 55.1132 274.292 17.6069 286.734C12.9502 288.276 8.23037 290.034 3.32577 289.999C2.20951 289.999 1.09537 289.901 -0.00390625 289.707V204.091C0.243997 203.857 0.482177 203.603 0.754384 203.393C10.7337 194.451 24.6795 189.296 36.885 184.215C59.9497 174.613 84.8324 169.186 109.827 168.942C122.776 168.789 135.7 170.109 148.354 172.876C160.608 175.585 166.903 180.237 166.339 193.977C166.239 196.442 165.555 198.847 164.341 200.991C160.744 206.58 155.592 209.909 149.234 211.53C145.16 212.018 141.072 211.852 136.98 211.813C132.741 211.989 128.507 211.969 124.273 211.813C120.074 211.94 115.874 211.989 111.679 211.813C108.869 211.867 98.5545 210.109 96.6102 212.403C93.0424 216.606 99.5656 218.153 102.234 218.949C126.218 226.11 151.29 224.094 175.536 219.603C199.198 215.21 219.312 203.857 241.774 195.9C248.094 193.665 254.84 191.844 261.412 193.113C277.477 196.227 280.719 217.402 273.015 229.439Z" fill="#009448"/>
</g>
<defs>
<clipPath id="clip0_3414_45531">
<rect width="277" height="290" fill="white"/>
</clipPath>
</defs>
</svg>
