<svg width="24" height="27" viewBox="0 0 24 27" fill="none" xmlns="http://www.w3.org/2000/svg">
<g clip-path="url(#clip0_3530_45067)">
<path d="M18.6497 13.0876L15.2622 10.2445C15.149 10.1488 15.0024 10.0959 14.8504 10.0959C14.6985 10.0959 14.5519 10.1488 14.4386 10.2445L12.7915 11.6275C12.5005 11.8722 12.1245 12.0074 11.7348 12.0074C11.3452 12.0074 10.9691 11.8722 10.6782 11.6275L8.76297 10.0097C8.64817 9.90965 8.49768 9.85411 8.34147 9.85411C8.18527 9.85411 8.03478 9.90965 7.91998 10.0097L4.7228 12.9445L4.04297 12.2878L7.24403 9.35302C7.53245 9.08991 7.91516 8.93893 8.31607 8.9301C8.71698 8.92126 9.10674 9.05522 9.40785 9.30533L11.3308 10.9415C11.4434 11.0369 11.5894 11.0896 11.7407 11.0896C11.8919 11.0896 12.0379 11.0369 12.1505 10.9415L13.7976 9.55846C14.089 9.31451 14.4649 9.1798 14.8543 9.1798C15.2437 9.1798 15.6196 9.31451 15.911 9.55846L19.2985 12.4016L18.6497 13.0876Z" fill="black"/>
<path d="M18.6564 13.2869L15.1601 10.3521C15.0734 10.2793 14.9614 10.2392 14.8454 10.2392C14.7294 10.2392 14.6175 10.2793 14.5308 10.3521L12.8797 11.7351C12.5621 12.001 12.1523 12.1478 11.7279 12.1478C11.3034 12.1478 10.8937 12.001 10.576 11.7351L8.65697 10.1246C8.56889 10.0486 8.45387 10.0064 8.33453 10.0064C8.21519 10.0064 8.10017 10.0486 8.0121 10.1246L4.72169 13.1732L3.83984 12.3221L7.14191 9.28453C7.45807 8.99823 7.87633 8.83416 8.31425 8.82466C8.75217 8.81515 9.17797 8.9609 9.50773 9.23317L11.4229 10.8436C11.5097 10.9164 11.6216 10.9565 11.7376 10.9565C11.8536 10.9565 11.9655 10.9164 12.0523 10.8436L13.6994 9.46061C14.0177 9.19448 14.4281 9.04755 14.8532 9.04755C15.2783 9.04755 15.6887 9.19448 16.007 9.46061L19.5033 12.3954L18.6564 13.2869ZM14.8454 9.9632C15.0329 9.96435 15.2137 10.0295 15.3543 10.1466L18.6331 12.898L19.0954 12.4174L15.8166 9.66605C15.5521 9.44429 15.2107 9.32181 14.8571 9.32181C14.5034 9.32181 14.162 9.44429 13.8975 9.66605L12.2504 11.0491C12.1094 11.1637 11.9295 11.2268 11.7434 11.2268C11.5574 11.2268 11.3775 11.1637 11.2365 11.0491L9.31738 9.4386C9.0435 9.21199 8.68949 9.09075 8.32545 9.09891C7.96141 9.10706 7.61388 9.244 7.35168 9.48263L4.24386 12.3257L4.72169 12.7843L7.82951 9.94119C7.96937 9.81646 8.15326 9.74516 8.34559 9.74109C8.53791 9.73702 8.725 9.80048 8.87063 9.91918L10.7858 11.5297C11.0503 11.7514 11.3917 11.8739 11.7454 11.8739C12.099 11.8739 12.4404 11.7514 12.7049 11.5297L14.3521 10.1466C14.4886 10.0327 14.6633 9.96782 14.8454 9.9632Z" fill="black"/>
<path d="M11.6735 8.7834C9.50195 8.7834 7.73438 6.91245 7.73438 4.61228C7.73438 2.31212 9.50195 0.4375 11.6735 0.4375C13.8451 0.4375 15.6011 2.30845 15.6011 4.61228C15.6011 6.91612 13.849 8.7834 11.6735 8.7834ZM11.6735 1.35463C10.038 1.35463 8.70557 2.82204 8.70557 4.61228C8.70557 6.40252 10.038 7.86627 11.6735 7.86627C13.309 7.86627 14.6454 6.39886 14.6454 4.61228C14.6454 2.82571 13.3129 1.35463 11.6735 1.35463Z" fill="black"/>
<path d="M11.6688 8.9101C9.41567 8.9101 7.58594 6.97679 7.58594 4.59958C7.58594 2.22238 9.41567 0.289062 11.6688 0.289062C13.922 0.289062 15.7556 2.23338 15.7556 4.61059C15.7556 6.98779 13.922 8.9101 11.6688 8.9101ZM11.6688 0.564202C9.57883 0.564202 7.87341 2.37279 7.87341 4.59958C7.87341 6.82638 9.57883 8.63496 11.6688 8.63496C13.7588 8.63496 15.4643 6.82271 15.4643 4.59958C15.4643 2.37645 13.7627 0.575207 11.6688 0.575207V0.564202ZM11.6688 7.99297C9.95177 7.99297 8.56102 6.47053 8.56102 4.59958C8.56102 2.72863 9.95565 1.20619 11.6688 1.20619C13.382 1.20619 14.7767 2.72863 14.7767 4.59958C14.7767 6.47053 13.3859 8.00397 11.6688 8.00397V7.99297ZM11.6688 1.48133C10.1149 1.48133 8.84461 2.87904 8.84461 4.59958C8.84461 6.32012 10.1149 7.71783 11.6688 7.71783C13.2228 7.71783 14.4931 6.32012 14.4931 4.59958C14.4931 2.87904 13.2266 1.49234 11.6688 1.49234V1.48133Z" fill="black"/>
<path d="M21.744 19.777H1.61304C1.22699 19.776 0.857046 19.6308 0.584067 19.373C0.311087 19.1152 0.157275 18.7658 0.15625 18.4013V15.3601C0.157275 14.9955 0.311087 14.6462 0.584067 14.3884C0.857046 14.1306 1.22699 13.9853 1.61304 13.9844H21.7595C22.1459 13.9844 22.5164 14.1293 22.7896 14.3873C23.0628 14.6453 23.2163 14.9952 23.2163 15.3601V18.4013C23.2163 18.5832 23.1781 18.7633 23.1039 18.9311C23.0297 19.099 22.921 19.2513 22.7841 19.3793C22.6472 19.5072 22.4848 19.6082 22.3062 19.6765C22.1277 19.7448 21.9366 19.7789 21.744 19.777ZM1.61304 14.9015C1.48425 14.9015 1.36074 14.9498 1.26967 15.0358C1.1786 15.1218 1.12744 15.2385 1.12744 15.3601V18.4013C1.12744 18.5229 1.1786 18.6395 1.26967 18.7255C1.36074 18.8115 1.48425 18.8598 1.61304 18.8598H21.7595C21.8883 18.8598 22.0118 18.8115 22.1029 18.7255C22.1939 18.6395 22.2451 18.5229 22.2451 18.4013V15.3601C22.2451 15.2385 22.1939 15.1218 22.1029 15.0358C22.0118 14.9498 21.8883 14.9015 21.7595 14.9015H1.61304Z" fill="black"/>
<path d="M21.7471 19.9115H1.61615C1.19198 19.9105 0.785477 19.751 0.485542 19.4677C0.185607 19.1845 0.0166508 18.8006 0.015625 18.4001V15.3589C0.0156238 14.9577 0.184127 14.5728 0.484173 14.2888C0.784219 14.0048 1.19131 13.8447 1.61615 13.8438H21.7626C22.1875 13.8437 22.595 14.0029 22.8957 14.2862C23.1965 14.5696 23.366 14.954 23.367 15.3552V18.3964C23.367 18.5966 23.325 18.7948 23.2434 18.9796C23.1618 19.1644 23.0423 19.3321 22.8916 19.473C22.741 19.6138 22.5623 19.7251 22.3658 19.8004C22.1694 19.8757 21.9591 19.9134 21.7471 19.9115ZM1.61615 14.1189C1.26894 14.1189 0.935947 14.2491 0.69043 14.481C0.444913 14.7128 0.306983 15.0273 0.306983 15.3552V18.3964C0.306983 18.5587 0.340845 18.7195 0.406637 18.8695C0.472429 19.0195 0.568862 19.1558 0.69043 19.2706C0.811998 19.3854 0.95632 19.4764 1.11516 19.5386C1.27399 19.6007 1.44423 19.6327 1.61615 19.6327H21.7626C22.1102 19.6327 22.4436 19.5026 22.6897 19.2708C22.9358 19.0391 23.0746 18.7246 23.0757 18.3964V15.3552C23.0746 15.027 22.9358 14.7125 22.6897 14.4808C22.4436 14.249 22.1102 14.1189 21.7626 14.1189H1.61615ZM21.7626 18.9907H1.61615C1.44956 18.9897 1.29007 18.9268 1.17227 18.8156C1.05447 18.7043 0.987838 18.5537 0.986819 18.3964V15.3552C0.991846 15.2004 1.06024 15.0535 1.17762 14.9454C1.29499 14.8373 1.4522 14.7764 1.61615 14.7756H21.7626C21.9299 14.7756 22.0904 14.8381 22.209 14.9494C22.3276 15.0607 22.3948 15.2119 22.3958 15.3699V18.4111C22.3907 18.569 22.3197 18.7187 22.1981 18.8273C22.0765 18.9359 21.9144 18.9946 21.7471 18.9907H21.7626ZM1.61615 15.036C1.52652 15.036 1.44055 15.0696 1.37717 15.1295C1.31378 15.1894 1.27818 15.2705 1.27818 15.3552V18.3964C1.27818 18.481 1.31378 18.5622 1.37717 18.6221C1.44055 18.6819 1.52652 18.7156 1.61615 18.7156H21.7626C21.8526 18.7156 21.939 18.682 22.003 18.6223C22.067 18.5625 22.1034 18.4814 22.1045 18.3964V15.3552C22.1034 15.2702 22.067 15.189 22.003 15.1293C21.939 15.0695 21.8526 15.036 21.7626 15.036H1.61615Z" fill="black"/>
<path d="M18.4989 26.4364H4.84775C4.65235 26.4326 4.45965 26.3925 4.28068 26.3183C4.1017 26.2442 3.93996 26.1374 3.80467 26.0042C3.66939 25.871 3.56322 25.7139 3.49223 25.542C3.42125 25.37 3.38683 25.1865 3.39096 25.002V21.9351C3.39096 21.8135 3.44212 21.6969 3.53318 21.6109C3.62425 21.5249 3.74777 21.4766 3.87655 21.4766C4.00534 21.4766 4.12886 21.5249 4.21992 21.6109C4.31099 21.6969 4.36215 21.8135 4.36215 21.9351V25.002C4.3547 25.1312 4.4015 25.258 4.49241 25.3549C4.58332 25.4517 4.711 25.5108 4.84775 25.5193H18.4989C18.6356 25.5108 18.7633 25.4517 18.8542 25.3549C18.9451 25.258 18.9919 25.1312 18.9845 25.002V21.9351C18.9845 21.8135 19.0356 21.6969 19.1267 21.6109C19.2177 21.5249 19.3413 21.4766 19.4701 21.4766C19.5988 21.4766 19.7224 21.5249 19.8134 21.6109C19.9045 21.6969 19.9556 21.8135 19.9556 21.9351V25.002C19.9598 25.1865 19.9254 25.37 19.8544 25.542C19.7834 25.7139 19.6772 25.871 19.5419 26.0042C19.4066 26.1374 19.2449 26.2442 19.0659 26.3183C18.887 26.3925 18.6943 26.4326 18.4989 26.4364Z" fill="black"/>
<path d="M18.498 26.5708H4.84686C4.41409 26.5611 4.00292 26.3902 3.70307 26.0954C3.40322 25.8006 3.23903 25.4057 3.24633 24.997V21.9301C3.2588 21.78 3.33072 21.64 3.44773 21.5378C3.56474 21.4356 3.71824 21.3789 3.8776 21.3789C4.03696 21.3789 4.19047 21.4356 4.30748 21.5378C4.42449 21.64 4.49641 21.78 4.50888 21.9301V24.997C4.50808 25.0865 4.542 25.1733 4.60426 25.2409C4.66652 25.3084 4.75281 25.3522 4.84686 25.3638H18.498C18.5927 25.353 18.6799 25.3096 18.743 25.242C18.806 25.1743 18.8405 25.0871 18.8398 24.997V21.9301C18.8523 21.78 18.9242 21.64 19.0412 21.5378C19.1582 21.4356 19.3117 21.3789 19.4711 21.3789C19.6305 21.3789 19.784 21.4356 19.901 21.5378C20.018 21.64 20.0899 21.78 20.1024 21.9301V24.997C20.1097 25.4063 19.9449 25.8017 19.6443 26.0967C19.3436 26.3916 18.9314 26.5621 18.498 26.5708ZM3.87566 21.6109C3.78602 21.6109 3.70006 21.6445 3.63668 21.7044C3.57329 21.7642 3.53769 21.8454 3.53769 21.9301V24.997C3.52934 25.333 3.66248 25.6585 3.90791 25.9019C4.15335 26.1454 4.49102 26.287 4.84686 26.2956H18.498C18.6745 26.2918 18.8485 26.2552 19.01 26.1879C19.1716 26.1205 19.3175 26.0238 19.4394 25.9032C19.5614 25.7826 19.6569 25.6405 19.7207 25.485C19.7845 25.3295 19.8151 25.1637 19.811 24.997V21.9301C19.802 21.8509 19.7624 21.7776 19.6996 21.7243C19.6369 21.6711 19.5555 21.6416 19.4711 21.6416C19.3867 21.6416 19.3054 21.6711 19.2426 21.7243C19.1798 21.7776 19.1402 21.8509 19.1312 21.9301V24.997C19.1386 25.1631 19.0762 25.3253 18.9576 25.4483C18.8391 25.5713 18.6739 25.6451 18.498 25.6536H4.84686C4.67166 25.6441 4.50744 25.57 4.38969 25.4471C4.27193 25.3242 4.21009 25.1625 4.21752 24.997V21.9301C4.2165 21.8451 4.18003 21.7639 4.11603 21.7042C4.05203 21.6444 3.96566 21.6109 3.87566 21.6109Z" fill="black"/>
</g>
<defs>
<clipPath id="clip0_3530_45067">
<rect width="23.3514" height="26.2703" fill="white" transform="translate(0 0.300781)"/>
</clipPath>
</defs>
</svg>
