<svg width="24" height="24" viewBox="0 0 24 24" fill="none" xmlns="http://www.w3.org/2000/svg">
<path d="M19.0809 12.6472C19.1233 12.3246 19.1461 11.9996 19.149 11.6742C19.1461 11.3488 19.1233 11.0239 19.0809 10.7013L21.1874 9.05206C21.2825 8.9794 21.3475 8.87422 21.37 8.75664C21.3924 8.63907 21.3707 8.51734 21.309 8.41476L19.3144 4.95583C19.2567 4.85208 19.163 4.77305 19.0509 4.73362C18.9389 4.69419 18.8164 4.69709 18.7063 4.74178L16.2204 5.74394C15.7031 5.34915 15.1374 5.02217 14.5371 4.77097L14.1625 2.12934C14.146 2.01245 14.0876 1.90555 13.9981 1.82858C13.9085 1.7516 13.7941 1.7098 13.6761 1.71096H9.67713C9.55908 1.7098 9.44464 1.7516 9.35513 1.82858C9.26562 1.90555 9.20716 2.01245 9.19064 2.12934L8.81604 4.77097C8.21498 5.0206 7.64911 5.3477 7.1328 5.74394L4.63712 4.74178C4.5271 4.69709 4.40453 4.69419 4.29252 4.73362C4.1805 4.77305 4.08678 4.85208 4.02901 4.95583L2.03441 8.41476C1.97273 8.51734 1.95103 8.63907 1.97347 8.75664C1.99591 8.87422 2.06091 8.9794 2.15603 9.05206L4.25766 10.7013C4.21544 11.0239 4.1927 11.3488 4.18955 11.6742C4.19253 11.9996 4.21528 12.3246 4.25766 12.6472L2.15603 14.2964C2.06091 14.3691 1.99591 14.4742 1.97347 14.5918C1.95103 14.7094 1.97273 14.8311 2.03441 14.9337L4.02901 18.3926C4.08678 18.4964 4.1805 18.5754 4.29252 18.6148C4.40453 18.6543 4.5271 18.6514 4.63712 18.6067L7.12307 17.6045C7.64035 17.9993 8.20603 18.3263 8.80632 18.5775L9.18091 21.2191C9.19743 21.336 9.25589 21.4429 9.3454 21.5199C9.43491 21.5968 9.54935 21.6387 9.6674 21.6375H13.6566C13.7746 21.6387 13.8891 21.5968 13.9786 21.5199C14.0681 21.4429 14.1266 21.336 14.1431 21.2191L14.5177 18.5775C15.1187 18.3278 15.6846 18.0008 16.2009 17.6045L18.6869 18.6067C18.7969 18.6514 18.9195 18.6543 19.0315 18.6148C19.1435 18.5754 19.2372 18.4964 19.295 18.3926L21.2896 14.9337C21.3513 14.8311 21.373 14.7094 21.3505 14.5918C21.3281 14.4742 21.2631 14.3691 21.168 14.2964L19.0809 12.6472ZM11.6717 15.1672C10.9807 15.1682 10.3049 14.9641 9.72981 14.5809C9.15475 14.1977 8.70629 13.6525 8.44117 13.0143C8.17605 12.3761 8.10618 11.6737 8.24041 10.9958C8.37463 10.3179 8.70692 9.69503 9.19523 9.20604C9.68354 8.71705 10.3059 8.38389 10.9836 8.24872C11.6613 8.11355 12.3639 8.18244 13.0024 8.44667C13.641 8.7109 14.1868 9.1586 14.5708 9.73312C14.9549 10.3076 15.1598 10.9832 15.1598 11.6742C15.1605 12.1327 15.0707 12.5868 14.8957 13.0106C14.7207 13.4343 14.4639 13.8194 14.1399 14.1438C13.816 14.4683 13.4312 14.7256 13.0077 14.9012C12.5842 15.0768 12.1302 15.1672 11.6717 15.1672V15.1672Z" stroke="black" stroke-width="1.45946" stroke-linecap="round" stroke-linejoin="round"/>
</svg>
