<svg xmlns="http://www.w3.org/2000/svg" width="20.09" height="21.5" viewBox="0 0 20.09 21.5">
  <g id="Group_2" data-name="Group 2" transform="translate(-238.66 -189.25)">
    <path id="Vector" d="M5-.75A5.75,5.75,0,1,1-.75,5,5.757,5.757,0,0,1,5-.75Zm0,10A4.25,4.25,0,1,0,.75,5,4.255,4.255,0,0,0,5,9.25Z" transform="translate(243 190)"/>
    <path id="Vector-2" data-name="Vector" d="M0,7.75A.75.75,0,0,1-.75,7,7.111,7.111,0,0,1,2.044,1.467,10.357,10.357,0,0,1,8.59-.75a11.129,11.129,0,0,1,2.959.4.75.75,0,0,1-.4,1.446A9.629,9.629,0,0,0,8.59.75C4.267.75.75,3.554.75,7A.75.75,0,0,1,0,7.75Z" transform="translate(239.41 203)"/>
    <path id="Vector-3" data-name="Vector" d="M4-.75A4.7,4.7,0,0,1,7.53.831,4.732,4.732,0,0,1,8.75,4a4.363,4.363,0,0,1-.142,1.109,4.5,4.5,0,0,1-.547,1.339A4.748,4.748,0,0,1,4,8.75,4.68,4.68,0,0,1,.841,7.53a4.406,4.406,0,0,1-.9-1.083A4.67,4.67,0,0,1-.75,4,4.744,4.744,0,0,1,4-.75Zm0,8A3.2,3.2,0,0,0,6.775,5.677l.006-.011a2.977,2.977,0,0,0,.366-.9l.007-.029A2.86,2.86,0,0,0,7.25,4a3.235,3.235,0,0,0-.837-2.168l-.007-.007A3.2,3.2,0,0,0,4,.75,3.244,3.244,0,0,0,.75,4a3.171,3.171,0,0,0,.468,1.666l.008.013a2.95,2.95,0,0,0,.6.723l.015.013A3.183,3.183,0,0,0,4,7.25Z" transform="translate(250 202)" fill="#e34532"/>
    <g id="Group">
      <path id="Vector-4" data-name="Vector" d="M0,2.86a.748.748,0,0,1-.53-.22.75.75,0,0,1,0-1.061L1.58-.53a.75.75,0,0,1,1.061,0A.75.75,0,0,1,2.64.53L.53,2.64A.748.748,0,0,1,0,2.86Z" transform="translate(252.92 204.94)" fill="#e34532"/>
      <path id="Vector-5" data-name="Vector" d="M2.12,2.86a.748.748,0,0,1-.529-.218L-.529.532a.75.75,0,0,1,0-1.061.75.75,0,0,1,1.061,0l2.12,2.11A.75.75,0,0,1,2.12,2.86Z" transform="translate(252.94 204.96)" fill="#e34532"/>
    </g>
  </g>
</svg>
