<svg width="100" height="100" viewBox="0 0 76 83" fill="none" xmlns="http://www.w3.org/2000/svg">
<g clip-path="url(#clip0_2498_19630)">
<path d="M45.8795 55.6064L45.7676 55.5674L45.8795 55.6064Z" fill="#142841"/>
<path d="M49.3065 56.1177C49.3818 56.1171 49.4568 56.1089 49.5304 56.0933C48.3491 56.0336 47.1744 55.8819 46.0166 55.6396C47.0848 55.956 48.1927 56.117 49.3065 56.1177Z" fill="#142841"/>
<path d="M29.65 33.5391C29.6487 33.8724 29.516 34.1918 29.2808 34.4275C29.0456 34.6632 28.7271 34.7962 28.3945 34.7975C30.8336 34.8014 33.1716 35.7746 34.8959 37.5036C36.6202 39.2327 37.59 41.5766 37.5925 44.0212C37.5878 44.0764 37.5878 44.1319 37.5925 44.1871C37.6345 43.8877 37.7829 43.6137 38.0105 43.4154C38.2381 43.2171 38.5295 43.1079 38.8311 43.1079C39.1327 43.1079 39.4242 43.2171 39.6518 43.4154C39.8794 43.6137 40.0278 43.8877 40.0698 44.1871C40.0698 44.1334 40.0698 44.0749 40.0698 44.0212C40.0672 40.909 38.8328 37.925 36.6376 35.7239C34.4424 33.5228 31.4655 32.2845 28.3604 32.2806C28.5279 32.2767 28.6946 32.3064 28.8506 32.3678C29.0066 32.4292 29.1487 32.5212 29.2688 32.6384C29.3889 32.7556 29.4845 32.8956 29.5499 33.0503C29.6154 33.2049 29.6494 33.3711 29.65 33.5391Z" fill="#009640"/>
<path d="M17.9354 45.2988C18.2675 45.2975 18.5857 45.1644 18.8201 44.9285C19.0545 44.6927 19.186 44.3733 19.186 44.0404C19.186 43.8599 19.186 43.6843 19.186 43.5136C19.3226 41.1631 20.3498 38.9537 22.0577 37.3371C23.7657 35.7205 26.0253 34.8189 28.3745 34.8167C28.7075 34.8167 29.0268 34.6841 29.2623 34.4481C29.4978 34.2121 29.6301 33.892 29.6301 33.5582C29.6301 33.2245 29.4978 32.9044 29.2623 32.6684C29.0268 32.4324 28.7075 32.2998 28.3745 32.2998C25.3625 32.308 22.469 33.4777 20.2944 35.5665C18.1197 37.6552 16.8306 40.5027 16.6943 43.5185C16.6943 43.6941 16.6943 43.8697 16.6943 44.0502C16.6969 44.3797 16.8282 44.6951 17.0603 44.9286C17.2923 45.1621 17.6066 45.295 17.9354 45.2988Z" fill="#009640"/>
<path d="M38.853 43.1182C38.55 43.119 38.2575 43.2295 38.0294 43.4294C37.8013 43.6293 37.6531 43.9051 37.612 44.206C37.6072 44.2628 37.6072 44.3199 37.612 44.3767C37.6139 46.8626 38.4021 49.2839 39.8633 51.2926C41.3245 53.3013 43.3834 54.7941 45.7443 55.5564C45.4625 55.4307 45.2368 55.2055 45.11 54.9238C44.9833 54.642 44.9644 54.3234 45.057 54.0286C45.1497 53.7338 45.3473 53.4835 45.6123 53.3253C45.8772 53.1672 46.191 53.1123 46.4938 53.1712H46.596C44.7205 52.5835 43.0806 51.4123 41.9141 49.8274C40.7476 48.2426 40.1152 46.3266 40.1086 44.3572C40.1086 44.2986 40.1086 44.245 40.1086 44.1865C40.0628 43.8866 39.9107 43.6135 39.68 43.4172C39.4493 43.2209 39.1556 43.1148 38.853 43.1182Z" fill="#009640"/>
<path d="M57.95 44.304C57.9155 44.0381 57.9666 43.7681 58.096 43.5334V43.4309C50.9613 42.7578 45.3305 35.9778 45.3305 27.7297C45.3305 20.2327 55.9985 7.04339 59.264 3.18027C62.5248 7.04339 73.1926 20.2522 73.1926 27.7297C73.1926 35.9047 67.6592 42.6456 60.6073 43.4163V44.1382C60.6078 44.3151 60.5696 44.4899 60.4953 44.6504C60.4953 44.9869 60.5245 45.4308 60.4953 45.9478C68.9732 45.2357 75.6796 37.3387 75.6796 27.7297C75.6796 17.9743 60.8116 1.13164 60.1789 0.41462C60.0615 0.282591 59.9176 0.176956 59.7565 0.104659C59.5955 0.0323614 59.421 -0.00496182 59.2446 -0.00486145C59.0679 -0.0059009 58.8932 0.0310046 58.732 0.103364C58.5708 0.175723 58.427 0.281856 58.3102 0.41462C57.6726 1.12676 42.8047 17.9743 42.8047 27.7297C42.8047 37.3338 49.5013 45.2259 57.9743 45.9478C58.0087 45.4001 58.0006 44.8505 57.95 44.304Z" fill="#009640"/>
<path d="M45.0092 54.1519C44.951 54.4345 44.9919 54.7286 45.1249 54.9845C45.2578 55.2404 45.4748 55.4425 45.7393 55.5567H45.7685L45.8804 55.5957L45.9826 55.625H46.0167C47.1744 55.8672 48.3492 56.0189 49.5305 56.0786C49.7884 56.0786 50.0172 56.103 50.2946 56.103C53.2925 56.103 55.6918 55.2738 57.4487 53.63C59.882 51.3277 60.4466 48.0255 60.5147 45.933C60.5147 45.416 60.5147 44.9575 60.5147 44.6355C60.3966 44.897 60.1928 45.11 59.9372 45.2394C59.6816 45.3689 59.3894 45.4068 59.1094 45.347C58.8293 45.2872 58.5781 45.1333 58.3973 44.9107C58.2165 44.6882 58.117 44.4104 58.1154 44.1234V43.5186C57.986 43.7533 57.9349 44.0233 57.9694 44.2892C58.0265 44.8352 58.0411 45.3848 58.0132 45.933C57.9499 47.5865 57.5265 50.1327 55.7453 51.7862C53.857 53.5471 50.7812 54.0105 46.6104 53.1617H46.5082C46.3448 53.1255 46.1756 53.1225 46.011 53.153C45.8463 53.1834 45.6895 53.2467 45.5497 53.339C45.41 53.4314 45.2901 53.5509 45.1972 53.6905C45.1044 53.8302 45.0405 53.9871 45.0092 54.1519Z" fill="#009640"/>
<path d="M59.3707 29.1492L60.5922 28.003V12.5651C60.5922 12.2313 60.46 11.9112 60.2245 11.6752C59.989 11.4392 59.6696 11.3066 59.3366 11.3066C59.0036 11.3066 58.6843 11.4392 58.4488 11.6752C58.2133 11.9112 58.0811 12.2313 58.0811 12.5651V27.9005L59.3707 29.1492Z" fill="#009640"/>
<path d="M60.607 43.4161V31.456L60.2079 31.8316C59.9696 32.0525 59.6555 32.1728 59.3309 32.1673C59.0064 32.1619 58.6964 32.0311 58.4656 31.8023L58.0957 31.4316V44.1136C58.0973 44.4006 58.1969 44.6784 58.3777 44.901C58.5585 45.1235 58.8098 45.2775 59.0898 45.3373C59.3699 45.397 59.6619 45.3591 59.9175 45.2297C60.1731 45.1003 60.3769 44.8872 60.4951 44.6258C60.5693 44.4653 60.6075 44.2905 60.607 44.1136V43.4161Z" fill="#009640"/>
<path d="M65.6198 25.0572C65.5079 24.9361 65.3731 24.8384 65.2233 24.7697C65.0736 24.7009 64.9118 24.6625 64.7472 24.6566C64.5826 24.6507 64.4185 24.6775 64.2643 24.7353C64.11 24.7932 63.9686 24.881 63.8483 24.9937L60.6071 28.0179L59.3709 29.1495L58.0812 27.8618L55.239 25.0084C55.0035 24.7723 54.684 24.6396 54.3509 24.6396C54.0177 24.6396 53.6983 24.7723 53.4627 25.0084C53.2271 25.2445 53.0947 25.5647 53.0947 25.8986C53.0947 26.2324 53.2271 26.5526 53.4627 26.7887L58.0812 31.4177L58.4511 31.7884C58.6819 32.0171 58.9918 32.1479 59.3163 32.1533C59.6409 32.1588 59.955 32.0385 60.1933 31.8176L60.5924 31.442L65.5419 26.818C65.7835 26.5938 65.9271 26.2832 65.9417 25.9536C65.9563 25.624 65.8407 25.3019 65.6198 25.0572Z" fill="#009640"/>
<path d="M12.6057 63.7803V77.6475C12.6057 78.3215 12.3386 78.9679 11.8631 79.4445C11.3876 79.9211 10.7427 80.1888 10.0702 80.1888C9.39771 80.1888 8.75275 79.9211 8.27724 79.4445C7.80173 78.9679 7.53463 78.3215 7.53463 77.6475V63.7803H5.02344V77.6475C5.02344 78.3118 5.15395 78.9695 5.40757 79.5832C5.6612 80.1969 6.03288 80.7545 6.50152 81.2242C6.97016 81.6939 7.52663 82.0665 8.13894 82.3207C8.75124 82.5749 9.40743 82.7057 10.0702 82.7057C10.7329 82.7057 11.3892 82.5749 12.0016 82.3207C12.6139 82.0665 13.1702 81.6939 13.6389 81.2242C14.1075 80.7545 14.4792 80.1969 14.7328 79.5832C14.9864 78.9695 15.1171 78.3118 15.1171 77.6475V63.7803H12.6057Z" fill="black"/>
<path d="M27.6693 63.7803V77.6475C27.6843 77.9909 27.6297 78.3339 27.5089 78.6556C27.3881 78.9773 27.2037 79.2712 26.9665 79.5195C26.7294 79.7678 26.4445 79.9655 26.1291 80.1005C25.8137 80.2355 25.4743 80.3051 25.1313 80.3051C24.7883 80.3051 24.4489 80.2355 24.1335 80.1005C23.818 79.9655 23.5332 79.7678 23.296 79.5195C23.0589 79.2712 22.8743 78.9773 22.7535 78.6556C22.6327 78.3339 22.5782 77.9909 22.5932 77.6475V63.7803H20.082V77.6475C20.082 78.3118 20.2125 78.9695 20.4662 79.5832C20.7198 80.1969 21.0916 80.7545 21.5602 81.2242C22.0289 81.6939 22.5852 82.0665 23.1975 82.3207C23.8098 82.5749 24.466 82.7057 25.1288 82.7057C25.7915 82.7057 26.4478 82.5749 27.0602 82.3207C27.6725 82.0665 28.2288 81.6939 28.6975 81.2242C29.1661 80.7545 29.5379 80.1969 29.7915 79.5832C30.0451 78.9695 30.1757 78.3118 30.1757 77.6475V63.7803H27.6693Z" fill="black"/>
<path d="M1.70949 63.7804H34.1609C34.4742 63.7794 34.776 63.6614 35.0072 63.4495C35.2385 63.2375 35.3827 62.9469 35.4117 62.6342C35.4604 62.0781 35.4846 61.5513 35.4846 61.0392C35.4793 56.597 33.7986 52.321 30.7794 49.0689C27.7602 45.8167 23.6258 43.8288 19.2054 43.5039C19.2054 43.6746 19.2054 43.8502 19.2054 44.0307C19.2161 44.2022 19.1916 44.3741 19.1334 44.5358C19.0753 44.6975 18.9847 44.8455 18.8673 44.9707C18.7498 45.096 18.6081 45.1958 18.4507 45.264C18.2933 45.3322 18.1237 45.3674 17.9522 45.3674C17.7808 45.3674 17.6111 45.3322 17.4537 45.264C17.2963 45.1958 17.1545 45.096 17.0371 44.9707C16.9197 44.8455 16.8292 44.6975 16.7711 44.5358C16.7129 44.3741 16.6884 44.2022 16.6991 44.0307C16.6991 43.8502 16.6991 43.6746 16.6991 43.499C12.2693 43.8172 8.1243 45.8055 5.09839 49.0635C2.07248 52.3216 0.390337 56.6076 0.390625 61.0587C0.390625 61.5709 0.390582 62.0976 0.46845 62.6537C0.500775 62.9616 0.645251 63.2468 0.87421 63.4547C1.10317 63.6626 1.40056 63.7785 1.70949 63.7804ZM17.9353 45.9671C21.9225 45.971 25.7452 47.5602 28.5646 50.3859C31.384 53.2116 32.9696 57.043 32.9734 61.0392V61.2636H2.91644C2.91644 61.1904 2.91644 61.1124 2.91644 61.0392C2.92286 57.0481 4.50692 53.2221 7.32181 50.3991C10.1367 47.576 13.9531 45.9859 17.9353 45.9769V45.9671Z" fill="black"/>
</g>
<defs>
<clipPath id="clip0_2498_19630">
<rect width="75.3129" height="82.7207" fill="white" transform="translate(0.385742)"/>
</clipPath>
</defs>
</svg>
