<svg width="57" height="56" viewBox="0 0 57 56" fill="none" xmlns="http://www.w3.org/2000/svg">
<g clip-path="url(#clip0_2499_19646)">
<path d="M55.2943 28.6994H54.436C54.2833 32.8573 53.1217 36.9157 51.0516 40.5241C48.9815 44.1326 46.0649 47.1828 42.5537 49.4114C42.7175 49.5491 42.8813 49.6835 43.0386 49.8245C43.1371 49.913 43.2134 50.0236 43.2612 50.1472C43.309 50.2708 43.327 50.404 43.3137 50.5359C43.3039 50.6698 43.2618 50.7994 43.1911 50.9136C43.1203 51.0278 43.0231 51.1231 42.9075 51.1915C46.9456 48.7806 50.2883 45.361 52.608 41.268C54.9276 37.1751 56.1445 32.5491 56.1395 27.8438C56.1404 27.9555 56.1192 28.0664 56.0771 28.1699C56.0351 28.2735 55.973 28.3677 55.8945 28.4472C55.816 28.5267 55.7225 28.5899 55.6195 28.6332C55.5165 28.6765 55.406 28.6989 55.2943 28.6994Z" fill="black"/>
<path d="M42.4889 4.28027C42.606 4.34818 42.7051 4.44313 42.7781 4.55718C42.851 4.67124 42.8956 4.8011 42.9082 4.93593C42.921 5.07104 42.9008 5.20724 42.8495 5.33286C42.7981 5.45847 42.7171 5.56975 42.6133 5.65715C42.4594 5.78828 42.2857 5.91285 42.1416 6.0407C45.7707 8.24132 48.7951 11.3117 50.9416 14.9746C53.0881 18.6376 54.2893 22.7778 54.4367 27.0216H55.295C55.5191 27.0216 55.7341 27.1107 55.8926 27.2693C56.0512 27.4279 56.1402 27.643 56.1402 27.8673C56.1343 23.0826 54.8695 18.3837 52.4732 14.2432C50.0768 10.1028 46.6333 6.6666 42.4889 4.28027Z" fill="black"/>
<path d="M41.5178 51.9551C40.6271 52.4212 39.7105 52.836 38.7725 53.1975C39.7105 52.836 40.6271 52.4212 41.5178 51.9551Z" fill="#142841"/>
<path d="M23.6221 1.22788L23.8809 1.17871L23.6221 1.22788Z" fill="#142841"/>
<path d="M38.426 53.332C37.4107 53.709 36.3736 54.0242 35.3203 54.2762C36.3736 54.0242 37.4107 53.709 38.426 53.332Z" fill="#142841"/>
<path d="M39.0778 51.251L38.7305 51.3985L39.0778 51.251Z" fill="#142841"/>
<path d="M41.0042 50.3203L40.9551 50.3465L41.0042 50.3203Z" fill="#142841"/>
<path d="M40.1948 50.7324L39.8672 50.8931L40.1948 50.7324Z" fill="#142841"/>
<path d="M38.5141 51.4873L38.1406 51.6348L38.5141 51.4873Z" fill="#142841"/>
<path d="M39.6381 50.999L39.3105 51.1498L39.6381 50.999Z" fill="#142841"/>
<path d="M36.6502 52.1553L36.2178 52.2864L36.6502 52.1553Z" fill="#142841"/>
<path d="M7.37253 14.4363C9.49441 11.0077 12.3976 8.1306 15.8444 6.0407C15.6872 5.91285 15.5168 5.78827 15.3759 5.65386C15.2736 5.56582 15.1938 5.45453 15.1432 5.3293C15.0926 5.20407 15.0728 5.06854 15.0853 4.93405C15.0978 4.79956 15.1423 4.67002 15.2151 4.55628C15.2879 4.44254 15.3869 4.3479 15.5037 4.28027C11.5271 6.56637 8.19421 9.82363 5.81641 13.7479C6.21281 13.9184 6.74025 14.1478 7.37253 14.4363Z" fill="black"/>
<path d="M37.948 51.7109L37.4697 51.8847L37.948 51.7109Z" fill="#142841"/>
<path d="M40.7617 50.4443L40.4111 50.6279L40.7617 50.4443Z" fill="#142841"/>
<path d="M37.3783 51.9131C37.1851 51.9819 36.995 52.0475 36.8018 52.1065C36.995 52.0475 37.1851 51.9819 37.3783 51.9131Z" fill="#142841"/>
<path d="M39.5205 4.66016C39.5631 4.67983 39.6024 4.69622 39.6417 4.71917C39.6155 4.69622 39.5762 4.67983 39.5205 4.66016Z" fill="#142841"/>
<path d="M19.3955 4.2601C19.5528 4.19454 19.7231 4.13225 19.8705 4.07324C19.7133 4.13225 19.5528 4.19454 19.3955 4.2601Z" fill="#142841"/>
<path d="M20.1328 3.9725L20.7225 3.7627L20.1328 3.9725Z" fill="#142841"/>
<path d="M18.668 4.56807L19.107 4.37793L18.668 4.56807Z" fill="#142841"/>
<path d="M17.9482 4.89689L18.3708 4.7002L17.9482 4.89689Z" fill="#142841"/>
<path d="M20.873 3.71002C21.1253 3.62478 21.3776 3.5461 21.6298 3.4707C21.3776 3.5461 21.1253 3.62478 20.873 3.71002Z" fill="#142841"/>
<path d="M21.8037 3.4188L22.3901 3.25488L21.8037 3.4188Z" fill="#142841"/>
<path d="M22.6621 3.18185L23.1568 3.06055L22.6621 3.18185Z" fill="#142841"/>
<path d="M21.3514 52.1524L20.7617 51.959L21.3514 52.1524Z" fill="#142841"/>
<path d="M23.2676 52.6738L23.3921 52.7001L23.2676 52.6738Z" fill="#142841"/>
<path d="M22.1376 52.3848C21.9705 52.3389 21.81 52.2898 21.6396 52.2373C21.8035 52.2898 21.9705 52.3389 22.1376 52.3848Z" fill="#142841"/>
<path d="M34.5801 52.7126L34.8028 52.6602L34.5866 52.7093L34.5801 52.7126Z" fill="#142841"/>
<path d="M17.4502 5.14557C17.5157 5.11279 17.5812 5.08001 17.6435 5.04395L17.4502 5.14557Z" fill="#142841"/>
<path d="M37.5059 3.84082L37.65 3.88999L37.5059 3.84082Z" fill="#142841"/>
<path d="M20.3096 51.7988L20.5749 51.8939L20.3128 51.7988H20.3096Z" fill="#142841"/>
<path d="M38.5146 4.22168L38.6785 4.29052L38.5146 4.22168Z" fill="#142841"/>
<path d="M35.4024 52.5137L35.042 52.6055L35.4024 52.5137Z" fill="#142841"/>
<path d="M22.9301 52.591C22.7729 52.555 22.6025 52.5123 22.4551 52.4697C22.6156 52.5123 22.7729 52.555 22.9301 52.591Z" fill="#142841"/>
<path d="M36.0073 52.3496L35.6338 52.4512L36.0073 52.3496Z" fill="#142841"/>
<path d="M35.5068 3.22461L35.6412 3.25739L35.5068 3.22461Z" fill="#142841"/>
<path d="M39.9003 7.60742C39.4056 7.90574 38.9174 8.18112 38.3867 8.4401C42.2656 12.9772 44.7488 19.6452 44.9388 27.0082H46.626C46.4818 20.7336 44.7357 14.718 41.6628 9.99071C41.123 9.16203 40.5344 8.3662 39.9003 7.60742Z" fill="black"/>
<path d="M34.586 2.99815C33.8609 2.83642 33.1281 2.70529 32.3877 2.60476C31.2636 2.45633 30.1309 2.38187 28.997 2.38184C27.1101 2.38229 25.229 2.59229 23.3884 3.00798C21.8621 3.92485 20.4651 5.04169 19.2344 6.32886C19.4342 6.44687 19.6373 6.56161 19.8404 6.65668C20.168 6.82715 20.476 6.98451 20.8003 7.13859C23.1656 4.79791 25.9536 3.20468 28.9905 2.61459C32.0274 3.19812 34.8153 4.79464 37.1806 7.13203C37.7146 6.88616 38.2355 6.61079 38.7466 6.31247C37.5127 5.02793 36.1136 3.91338 34.586 2.99815Z" fill="black"/>
<path d="M19.0418 8.17407C18.7142 8.00033 18.3866 7.82002 18.0885 7.62988C17.4588 8.38598 16.8757 9.17969 16.3423 10.0066C14.9039 12.2486 13.7744 14.6745 12.9844 17.2188C13.478 17.481 13.9847 17.7531 14.5045 18.0351C15.536 14.5364 17.2693 11.2848 19.5987 8.47895C19.412 8.3511 19.2253 8.25603 19.0418 8.17407Z" fill="black"/>
<path d="M28.9967 53.0876C26.9145 52.6714 24.9439 51.819 23.2145 50.5863C22.9688 50.724 22.7198 50.8584 22.4643 50.9797C22.1367 51.1403 21.8091 51.278 21.4814 51.4058C22.091 51.8813 22.7288 52.3192 23.3914 52.7171C25.2309 53.133 27.1109 53.343 28.9967 53.3433C30.1306 53.3432 31.2633 53.2687 32.3874 53.1204C33.1278 53.0198 33.8584 52.8898 34.5791 52.7303C36.2596 51.7188 37.7846 50.4688 39.1066 49.0193C38.6087 48.7155 38.0998 48.4346 37.58 48.1768C35.1393 50.7141 32.2073 52.4647 28.9967 53.0876Z" fill="black"/>
<path d="M40.2214 47.7043C40.7193 47.0748 41.2042 46.4159 41.6497 45.7176C44.7227 40.9904 46.4688 34.9748 46.613 28.7002H44.9258C44.7554 35.837 42.413 42.3246 38.7373 46.8486C39.2418 47.1131 39.7365 47.3983 40.2214 47.7043Z" fill="black"/>
<path d="M43.3137 50.5362C43.327 50.4044 43.309 50.2712 43.2612 50.1476C43.2134 50.024 43.1371 49.9134 43.0385 49.8249C42.8813 49.6839 42.7109 49.5495 42.5537 49.4118C41.8162 48.7897 41.0368 48.219 40.2211 47.7038C39.7363 47.3979 39.2416 47.1127 38.737 46.8482C35.7311 45.2754 32.3894 44.4543 28.9973 44.4551H28.8794C28.5907 45.0512 28.2624 45.6273 27.8966 46.1794C28.257 46.1565 28.6206 46.1434 28.9842 46.1434C31.9697 46.1448 34.9144 46.8382 37.5871 48.1693C38.1091 48.425 38.618 48.7059 39.1138 49.0119C39.7691 49.4114 40.4003 49.8493 41.0041 50.3232L40.9549 50.3461L40.7617 50.4477L40.4111 50.6313L40.1949 50.7362L39.8673 50.8969L39.6445 51.0018L39.3169 51.1526L39.0941 51.2542L38.7469 51.4017C38.6748 51.4279 38.6027 51.4607 38.5307 51.4902L38.1572 51.6377L37.9639 51.7131L37.4856 51.8869L37.3939 51.9164C37.2006 51.9852 37.0106 52.0508 36.8173 52.1098L36.6666 52.159L36.2341 52.2901L36.0245 52.3524L35.651 52.454L35.4184 52.5163L35.058 52.6081L34.8189 52.6638L34.5961 52.7163C33.8754 52.8736 33.1448 53.0037 32.4044 53.1064C31.2803 53.2547 30.1476 53.3292 29.0137 53.3293C27.1279 53.329 25.2479 53.119 23.4084 52.7032L23.2839 52.6769L22.9563 52.595C22.799 52.5589 22.6287 52.5163 22.4813 52.4737L22.1536 52.3885C21.9866 52.3426 21.826 52.2934 21.6557 52.2409L21.3674 52.1557L20.7777 51.9623L20.591 51.8967L20.3256 51.8016C19.304 52.093 18.2517 52.2636 17.1904 52.3098C21.9825 54.6305 27.351 55.489 32.6272 54.7783C33.5383 54.6591 34.4426 54.4927 35.3365 54.28C36.3898 54.0281 37.4269 53.7128 38.4422 53.3359C38.5569 53.2933 38.6715 53.2506 38.7895 53.2015C39.7275 52.8399 40.6441 52.4251 41.5348 51.959C42.0033 51.7164 42.4685 51.4574 42.9239 51.1821C43.0351 51.1127 43.1283 51.0181 43.1961 50.9059C43.2638 50.7936 43.3041 50.667 43.3137 50.5362Z" fill="black"/>
<path d="M15.0832 4.93243C15.0698 5.06729 15.0893 5.2034 15.1401 5.32904C15.1909 5.45469 15.2714 5.56609 15.3748 5.65364C15.5288 5.78805 15.7024 5.91263 15.8433 6.04048C16.5559 6.61391 17.3055 7.13958 18.0874 7.61404C18.3986 7.80418 18.7164 7.98448 19.0407 8.15823C19.2242 8.25658 19.4109 8.35165 19.5977 8.44672C22.515 9.90409 25.7311 10.6627 28.9917 10.6627C32.2524 10.6627 35.4685 9.90409 38.3859 8.44672C38.9035 8.18774 39.4047 7.91236 39.8994 7.61404C40.6796 7.14104 41.4281 6.61759 42.1402 6.04703C42.2975 5.91918 42.4678 5.79461 42.6119 5.66348C42.7157 5.57608 42.7967 5.4648 42.8481 5.33919C42.8994 5.21358 42.9196 5.07737 42.9068 4.94226C42.8942 4.80743 42.8496 4.67757 42.7767 4.56351C42.7037 4.44946 42.6046 4.35452 42.4875 4.28661C39.4449 2.53594 36.0894 1.39777 32.6102 0.93623C31.4154 0.778979 30.2116 0.700132 29.0065 0.700195C28.1154 0.700195 27.2309 0.742813 26.3529 0.828047C25.5252 0.911096 24.7039 1.03021 23.8893 1.18538L23.6305 1.23455C20.7778 1.80741 18.0363 2.83806 15.5124 4.28661C15.3937 4.35111 15.2925 4.44367 15.2177 4.55623C15.143 4.66879 15.0968 4.79793 15.0832 4.93243ZM37.1868 7.14525C34.6222 8.34256 31.8266 8.96303 28.9967 8.96303C26.1667 8.96303 23.3711 8.34256 20.8065 7.14525C20.4789 6.99117 20.1513 6.83382 19.8466 6.66335C19.6435 6.55516 19.4404 6.44043 19.2406 6.33552C18.6251 5.97542 18.0302 5.58142 17.4584 5.15535L17.655 5.057L17.9563 4.91276L18.379 4.71606C18.4772 4.67017 18.5755 4.62099 18.6771 4.57837L19.1161 4.38824L19.4044 4.27022C19.5616 4.20465 19.732 4.14237 19.8794 4.08336L20.1415 3.98173L20.7312 3.77193L20.8819 3.71947C21.1341 3.63424 21.3864 3.55556 21.6386 3.48016L21.8123 3.42771L22.3987 3.2638L22.6706 3.19167L23.1653 3.07037L23.3979 3.01793C25.2385 2.60224 27.1196 2.39223 29.0065 2.39178C30.1404 2.39181 31.2731 2.46627 32.3972 2.6147C33.1376 2.71742 33.8703 2.84855 34.5954 3.00809C34.9001 3.07694 35.2048 3.14905 35.5062 3.23101L35.6405 3.2638C35.9517 3.34903 36.2597 3.43754 36.5676 3.53261C36.8952 3.63096 37.1836 3.73586 37.4882 3.84404L37.6324 3.89322C37.9206 3.99812 38.2089 4.10959 38.4972 4.22105L38.661 4.28989C38.9461 4.4079 39.2343 4.5292 39.5161 4.66033C39.5587 4.68 39.598 4.69639 39.6373 4.71934C39.9321 4.85375 40.2204 4.99144 40.5055 5.13896H40.5251C39.9511 5.56508 39.3539 5.95907 38.7364 6.31913C38.2417 6.62401 37.7208 6.89938 37.1868 7.14525Z" fill="black"/>
<path d="M55.294 27.0078H26.8447C27.3082 27.539 27.7309 28.1045 28.1093 28.6994H55.3006C55.5247 28.6994 55.7397 28.6103 55.8982 28.4517C56.0567 28.2931 56.1458 28.0779 56.1458 27.8536C56.1458 27.6293 56.0567 27.4142 55.8982 27.2555C55.7397 27.0969 55.5247 27.0078 55.3006 27.0078H55.294Z" fill="black"/>
<path d="M20.3088 51.7983C20.702 51.6836 21.0918 51.5492 21.4751 51.3984C21.8584 51.2476 22.1303 51.1328 22.4579 50.9722C22.7135 50.8509 22.9625 50.7165 23.2082 50.5788C25.1017 49.5086 26.7115 48 27.9028 46.1794C28.2685 45.6272 28.5969 45.0512 28.8856 44.455C30.9724 40.1212 31.0576 34.6399 28.6529 29.6602C28.4927 29.3299 28.3133 29.0091 28.1157 28.6997C27.7373 28.1048 27.3146 27.5393 26.8511 27.0081C23.9518 23.6512 18.9886 20.4516 14.5102 18.0028C13.9926 17.7208 13.4859 17.4487 12.9901 17.1865C10.7985 16.0358 8.81972 15.0917 7.37825 14.436C6.74597 14.1475 6.21852 13.918 5.82212 13.7443C5.42572 13.5706 5.11448 13.4394 5.03258 13.4165C4.9224 13.3707 4.80371 13.349 4.68448 13.353C4.56525 13.357 4.44824 13.3864 4.34134 13.4394C4.23437 13.4914 4.13946 13.5652 4.06272 13.6561C3.98599 13.747 3.92913 13.853 3.8958 13.9672C3.65665 14.8065 -1.91265 34.6202 1.93016 42.5864C4.78689 48.5069 10.5233 52.3327 16.5414 52.3327C16.751 52.3327 16.9607 52.3327 17.1671 52.3163C18.231 52.2674 19.2855 52.0935 20.3088 51.7983ZM22.1434 50.5034C22.0295 50.5602 21.9038 50.5894 21.7765 50.5886C21.6177 50.5884 21.4622 50.5433 21.3277 50.4587C21.1933 50.374 21.0854 50.2532 21.0165 50.11L20.8756 49.8215C19.4964 50.3604 18.0286 50.6362 16.5479 50.6345C11.1719 50.6345 6.03506 47.1793 3.4437 41.8423C0.315066 35.3611 4.19392 19.3763 5.25209 15.3506C9.05887 17.0226 23.9846 23.9167 27.1132 30.3978C30.54 37.4887 28.404 45.6942 22.3924 49.0839L22.5235 49.3626C22.5744 49.4615 22.6054 49.5696 22.6146 49.6806C22.6237 49.7916 22.6109 49.9032 22.5768 50.0092C22.5427 50.1152 22.488 50.2135 22.4159 50.2983C22.3438 50.3831 22.2556 50.4528 22.1565 50.5034H22.1434Z" fill="#009640"/>
<path d="M16.3615 36.5834L9.90436 23.2081C9.85879 23.1042 9.79281 23.0105 9.71032 22.9327C9.62783 22.8548 9.53054 22.7944 9.42422 22.7549C9.31791 22.7155 9.20473 22.6978 9.09146 22.703C8.97819 22.7083 8.86712 22.7362 8.76487 22.7853C8.66263 22.8344 8.57132 22.9035 8.49633 22.9886C8.42135 23.0738 8.36425 23.1731 8.32843 23.2808C8.29261 23.3884 8.27881 23.5022 8.28784 23.6153C8.29687 23.7284 8.32855 23.8385 8.381 23.9392L14.884 37.4062L15.9585 37.7341L16.3615 36.5834Z" fill="#009640"/>
<path d="M22.5368 49.3762L22.4057 49.0976L17.4032 38.7383L17.2853 39.0661C17.2298 39.2339 17.1232 39.3802 16.9804 39.4842C16.8376 39.5883 16.6658 39.645 16.4892 39.6464C16.4036 39.6459 16.3186 39.6326 16.2369 39.607L15.8896 39.4988L20.8758 49.809L21.0167 50.0974C21.0856 50.2406 21.1935 50.3615 21.3279 50.4461C21.4624 50.5308 21.6179 50.5758 21.7767 50.5761C21.904 50.5768 22.0297 50.5476 22.1437 50.4908C22.3416 50.3932 22.4936 50.2219 22.5671 50.0137C22.6405 49.8054 22.6297 49.5766 22.5368 49.3762Z" fill="#009640"/>
<path d="M18.9043 31.8496C18.6931 31.7762 18.4615 31.7895 18.2601 31.8865C18.0587 31.9836 17.904 32.1566 17.8297 32.3675L16.362 36.5834L15.9591 37.7406L14.8845 37.4128L10.298 35.9933C10.0853 35.9322 9.85719 35.957 9.66259 36.0625C9.46799 36.1679 9.32244 36.3455 9.25724 36.5571C9.19204 36.7687 9.21239 36.9974 9.31389 37.1942C9.41539 37.391 9.58996 37.5401 9.8001 37.6095L15.887 39.4945L16.2343 39.6026C16.3159 39.6282 16.401 39.6415 16.4865 39.642C16.662 39.6413 16.8329 39.5861 16.9755 39.4839C17.1182 39.3817 17.2255 39.2376 17.2826 39.0716L17.4005 38.7437L19.4219 32.9314C19.4596 32.8264 19.4762 32.7149 19.4706 32.6035C19.4649 32.492 19.4372 32.3828 19.3891 32.2822C19.3409 32.1815 19.2733 32.0915 19.19 32.0172C19.1068 31.9429 19.0097 31.886 18.9043 31.8496Z" fill="#009640"/>
</g>
<defs>
<clipPath id="clip0_2499_19646">
<rect width="55.5587" height="54.324" fill="white" transform="translate(0.581055 0.693359)"/>
</clipPath>
</defs>
</svg>
