<svg width="80" height="39" viewBox="0 0 80 39" fill="none" xmlns="http://www.w3.org/2000/svg">
<g clip-path="url(#clip0_2499_19696)">
<path d="M75.9928 7.25195H70.7324V9.62022H75.9928C76.3635 9.62022 76.719 9.76556 76.9811 10.0243C77.2433 10.283 77.3905 10.6339 77.3905 10.9998V27.9087C77.3905 28.2745 77.2433 28.6254 76.9811 28.8841C76.719 29.1428 76.3635 29.2882 75.9928 29.2882H70.7324V31.661H75.9928C77.0048 31.661 77.9754 31.2642 78.691 30.5579C79.4066 29.8516 79.8087 28.8937 79.8087 27.8949V10.986C79.8001 9.9927 79.3943 9.04301 78.6796 8.34366C77.9649 7.6443 76.9992 7.25192 75.9928 7.25195Z" fill="black"/>
<path d="M70.7323 29.3206V5.48172C70.731 4.11735 70.1813 2.8092 69.2038 1.84444C68.2263 0.879687 66.9009 0.337155 65.5185 0.335938H6.00551C4.62269 0.337153 3.29679 0.879538 2.31855 1.84416C1.34031 2.80879 0.789576 4.11692 0.787109 5.48172V33.4639C0.789576 34.8287 1.34031 36.1368 2.31855 37.1015C3.29679 38.0661 4.62269 38.6085 6.00551 38.6097H65.5185C66.9006 38.6072 68.2252 38.0643 69.2025 37.0998C70.1797 36.1353 70.7298 34.8279 70.7323 33.4639V29.3252V29.3206ZM65.5185 36.2185H6.00551C5.26408 36.2185 4.553 35.9278 4.02873 35.4103C3.50446 34.8929 3.20994 34.1911 3.20994 33.4593V5.47714C3.21603 4.74723 3.51251 4.04892 4.03547 3.53278C4.55843 3.01664 5.26596 2.72402 6.00551 2.71801H65.5185C66.26 2.71801 66.971 3.00869 67.4953 3.52613C68.0195 4.04356 68.3141 4.74538 68.3141 5.47714V33.4593C68.3166 33.8232 68.2461 34.1839 68.1067 34.5208C67.9673 34.8577 67.7618 35.1641 67.5019 35.4222C67.2421 35.6804 66.933 35.8853 66.5926 36.0251C66.2523 36.1649 65.8872 36.2369 65.5185 36.2369V36.2185Z" fill="black"/>
<path d="M62.1636 6.06543C61.846 6.06543 61.5415 6.18992 61.3169 6.41156C61.0923 6.63319 60.9662 6.93379 60.9662 7.24723V31.8955C60.956 32.0572 60.9794 32.2192 61.0351 32.3716C61.0907 32.5241 61.1775 32.6636 61.2899 32.7817C61.4023 32.8998 61.538 32.9939 61.6887 33.0582C61.8394 33.1226 62.0018 33.1557 62.1659 33.1557C62.3301 33.1557 62.4925 33.1226 62.6432 33.0582C62.7939 32.9939 62.9296 32.8998 63.042 32.7817C63.1544 32.6636 63.2411 32.5241 63.2968 32.3716C63.3525 32.2192 63.3759 32.0572 63.3657 31.8955V7.24723C63.3644 6.93337 63.2373 6.63278 63.012 6.41128C62.7867 6.18977 62.4816 6.06543 62.1636 6.06543Z" fill="black"/>
<path d="M8.4052 6.06544C8.24756 6.06483 8.09135 6.09495 7.94553 6.15408C7.79971 6.2132 7.66716 6.30013 7.55547 6.40994C7.44379 6.51974 7.35516 6.65021 7.2947 6.7939C7.23423 6.93758 7.20312 7.09165 7.20313 7.24724V31.8955C7.20312 32.0513 7.2342 32.2055 7.29461 32.3495C7.35502 32.4934 7.44356 32.6242 7.55519 32.7344C7.66681 32.8446 7.79934 32.932 7.94519 32.9916C8.09103 33.0512 8.24734 33.0819 8.4052 33.0819C8.56306 33.0819 8.7194 33.0512 8.86524 32.9916C9.01109 32.932 9.14359 32.8446 9.25521 32.7344C9.36684 32.6242 9.45538 32.4934 9.51579 32.3495C9.5762 32.2055 9.6073 32.0513 9.6073 31.8955V7.24724C9.60607 6.93338 9.47887 6.63279 9.25356 6.41128C9.02826 6.18978 8.72321 6.06544 8.4052 6.06544Z" fill="black"/>
<path d="M14.9857 6.50977C14.7429 6.50919 14.5022 6.5381 14.2775 6.59484C14.0529 6.65158 13.8487 6.73501 13.6766 6.84038C13.5046 6.94576 13.368 7.07097 13.2749 7.20887C13.1817 7.34676 13.1338 7.49462 13.1338 7.64393V31.2985C13.1338 31.448 13.1817 31.5961 13.2747 31.7342C13.3678 31.8724 13.5042 31.9979 13.6762 32.1036C13.8482 32.2093 14.0523 32.2932 14.277 32.3505C14.5017 32.4077 14.7425 32.4371 14.9857 32.4371C15.2289 32.4371 15.4698 32.4077 15.6945 32.3505C15.9192 32.2932 16.1233 32.2093 16.2953 32.1036C16.4672 31.9979 16.6036 31.8724 16.6967 31.7342C16.7898 31.5961 16.8377 31.448 16.8377 31.2985V7.64393C16.8358 7.34273 16.6398 7.05425 16.2927 6.84168C15.9456 6.6291 15.4757 6.50977 14.9857 6.50977Z" fill="#009640"/>
<path d="M24.8627 6.50977C24.6198 6.50919 24.3791 6.5381 24.1545 6.59484C23.9298 6.65158 23.7256 6.73501 23.5536 6.84038C23.3815 6.94576 23.245 7.07097 23.1518 7.20887C23.0587 7.34676 23.0107 7.49462 23.0107 7.64393V31.2985C23.0107 31.448 23.0586 31.5961 23.1517 31.7342C23.2448 31.8724 23.3812 31.9979 23.5531 32.1036C23.7251 32.2093 23.9293 32.2932 24.154 32.3505C24.3787 32.4077 24.6195 32.4371 24.8627 32.4371C25.1059 32.4371 25.3467 32.4077 25.5714 32.3505C25.7961 32.2932 26.0002 32.2093 26.1722 32.1036C26.3442 31.9979 26.4806 31.8724 26.5737 31.7342C26.6667 31.5961 26.7147 31.448 26.7147 31.2985V7.64393C26.7128 7.34273 26.5168 7.05425 26.1697 6.84168C25.8226 6.6291 25.3526 6.50977 24.8627 6.50977Z" fill="#009640"/>
<path d="M34.7396 6.50977C34.4968 6.50919 34.2561 6.5381 34.0315 6.59484C33.8068 6.65158 33.6026 6.73501 33.4305 6.84038C33.2585 6.94576 33.1219 7.07097 33.0288 7.20887C32.9356 7.34676 32.8877 7.49462 32.8877 7.64393V31.2985C32.8877 31.448 32.9356 31.5961 33.0286 31.7342C33.1217 31.8724 33.2581 31.9979 33.4301 32.1036C33.6021 32.2093 33.8062 32.2932 34.0309 32.3505C34.2556 32.4077 34.4964 32.4371 34.7396 32.4371C34.9828 32.4371 35.2237 32.4077 35.4484 32.3505C35.6731 32.2932 35.8772 32.2093 36.0492 32.1036C36.2211 31.9979 36.3575 31.8724 36.4506 31.7342C36.5437 31.5961 36.5916 31.448 36.5916 31.2985V7.64393C36.5897 7.34273 36.3937 7.05425 36.0466 6.84168C35.6995 6.6291 35.2296 6.50977 34.7396 6.50977Z" fill="#009640"/>
<path d="M36.8974 5.36719H32.541C32.2217 5.3684 31.916 5.49444 31.6907 5.71766C31.4654 5.94089 31.3389 6.24314 31.3389 6.55822V32.3883C31.3401 32.7026 31.4671 33.0037 31.6923 33.2259C31.9175 33.4481 32.2225 33.5735 32.541 33.5747H36.8974C37.2158 33.5735 37.5209 33.4481 37.746 33.2259C37.9712 33.0037 38.0982 32.7026 38.0995 32.3883V6.55822C38.0995 6.24314 37.973 5.94089 37.7477 5.71766C37.5224 5.49444 37.2166 5.3684 36.8974 5.36719ZM35.6953 31.2018H33.743V7.74923H35.6953V31.2018Z" fill="#009640"/>
<path d="M17.3271 5.36719H12.9707C12.6514 5.3684 12.3457 5.49444 12.1204 5.71766C11.8951 5.94089 11.7686 6.24314 11.7686 6.55822V32.3883C11.7698 32.7026 11.8968 33.0037 12.122 33.2259C12.3472 33.4481 12.6522 33.5735 12.9707 33.5747H17.3271C17.6455 33.5735 17.9506 33.4481 18.1757 33.2259C18.4009 33.0037 18.528 32.7026 18.5292 32.3883V6.55822C18.5292 6.24314 18.4027 5.94089 18.1774 5.71766C17.9521 5.49444 17.6463 5.3684 17.3271 5.36719ZM16.125 31.2018H14.1727V7.74923H16.125V31.2018Z" fill="#009640"/>
<path d="M27.1359 5.36719H22.7841C22.4649 5.3684 22.1591 5.49444 21.9338 5.71766C21.7085 5.94089 21.582 6.24314 21.582 6.55822V32.3883C21.582 32.703 21.7087 33.0047 21.9341 33.2272C22.1596 33.4497 22.4653 33.5747 22.7841 33.5747H27.1359C27.4543 33.5735 27.7594 33.4481 27.9845 33.2259C28.2097 33.0037 28.3368 32.7026 28.338 32.3883V6.55822C28.338 6.24314 28.2115 5.94089 27.9862 5.71766C27.7609 5.49444 27.4551 5.3684 27.1359 5.36719ZM25.9338 31.2018H23.9815V7.74923H25.9338V31.2018Z" fill="#009640"/>
</g>
<defs>
<clipPath id="clip0_2499_19696">
<rect width="79.0168" height="38.2737" fill="white" transform="translate(0.787109 0.335938)"/>
</clipPath>
</defs>
</svg>
