<svg width="13" height="19" viewBox="0 0 13 19" fill="none" xmlns="http://www.w3.org/2000/svg">
<g clip-path="url(#clip0_3086_24420)">
<path d="M8.99933 9.97L8.61459 9.08294C8.42949 8.687 8.1409 8.35064 7.78048 8.11076C7.42006 7.87087 7.00174 7.73673 6.5714 7.72305C6.14107 7.70938 5.71535 7.81669 5.34095 8.03322C4.96654 8.24974 4.65793 8.56712 4.44895 8.95053L4.07704 9.67075L3.70513 8.95053C3.50592 8.57455 3.20941 8.26132 2.84778 8.04486C2.48614 7.82839 2.0732 7.71696 1.65378 7.72266C1.36464 7.72212 1.07782 7.77524 0.807363 7.87941C0.716584 7.9137 0.618999 7.92508 0.522961 7.91256C0.426922 7.90005 0.335291 7.86403 0.255908 7.80757C0.177623 7.75286 0.113473 7.67969 0.0689173 7.5943C0.0243614 7.50891 0.000718256 7.41383 0 7.31713C0.0219 6.22487 0.468203 5.18605 1.24103 4.4285C2.01385 3.67094 3.0501 3.2565 4.12251 3.27607C4.96986 3.27524 5.79803 3.53292 6.50029 4.01588C7.20257 3.53295 8.03073 3.27528 8.87808 3.27607C9.94993 3.25633 10.9858 3.67024 11.7585 4.42706C12.5313 5.18388 12.9779 6.22188 13.0006 7.31356C13.0005 7.40258 12.9796 7.49029 12.9396 7.56947C12.8997 7.64865 12.8419 7.71703 12.7709 7.76897C12.6979 7.82212 12.6135 7.85688 12.5248 7.87041C12.436 7.88393 12.3454 7.87582 12.2603 7.84675C12.0147 7.76303 11.7573 7.72051 11.4984 7.72088C11.0545 7.71517 10.6185 7.84084 10.2434 8.08262C9.86831 8.32441 9.57018 8.67191 9.38523 9.08294L8.99933 9.97ZM6.50029 6.86588C6.98026 6.86314 7.45457 6.97143 7.88746 7.18259C8.32036 7.39374 8.70053 7.70225 8.99933 8.08485C9.29809 7.70222 9.67827 7.39369 10.1112 7.18253C10.5441 6.97137 11.0184 6.8631 11.4984 6.86588C11.7125 6.86582 11.9261 6.8873 12.1361 6.93C12.018 6.14076 11.6226 5.42205 11.0233 4.90745C10.4241 4.39285 9.66175 4.11738 8.87808 4.13225C8.10966 4.13006 7.36339 4.39432 6.76203 4.88156L6.49913 5.0971L6.23564 4.88156C5.6349 4.39483 4.88954 4.1306 4.12192 4.13225C3.33169 4.11632 2.56313 4.3959 1.96159 4.91812C1.36005 5.44033 0.967259 6.16897 0.857495 6.96622C1.11726 6.89958 1.38415 6.86608 1.65203 6.86647C2.11178 6.86326 2.56669 6.96215 2.98509 7.15626C3.40349 7.35037 3.77533 7.63504 4.07471 7.99044C4.37408 7.63504 4.74592 7.35037 5.16432 7.15626C5.58272 6.96215 6.03763 6.86326 6.49738 6.86647L6.50029 6.86588Z" fill="white"/>
<path d="M7.61239 19.0002C7.46698 19.0003 7.32313 18.9698 7.18983 18.9106C7.05652 18.8515 6.93664 18.7649 6.83767 18.6564C6.75408 18.5723 6.64129 18.5251 6.52376 18.5251C6.40623 18.5251 6.29344 18.5723 6.20985 18.6564C6.11088 18.7649 5.99099 18.8515 5.85769 18.9106C5.72439 18.9698 5.58054 19.0003 5.43513 19.0002C4.43983 18.8507 3.49317 18.4642 2.67203 17.8721C1.00367 16.7523 0.653328 15.6716 0.653328 14.9627C0.652845 14.8713 0.674125 14.7812 0.715345 14.7C0.756565 14.6188 0.816495 14.549 0.889999 14.4966C0.961557 14.4461 1.04406 14.414 1.13044 14.403C1.21683 14.3921 1.30454 14.4026 1.38608 14.4337C1.59646 14.5132 1.81921 14.5535 2.04362 14.5524C2.44906 14.5441 2.84256 14.4112 3.17253 14.1711C3.5025 13.931 3.75353 13.5949 3.89269 13.207L4.28325 12.2012L4.67382 13.207C4.80138 13.5877 5.03942 13.92 5.35645 14.16C5.67348 14.3999 6.05456 14.5362 6.44927 14.5507C6.84398 14.5653 7.23372 14.4574 7.56695 14.2414C7.90017 14.0255 8.16116 13.7115 8.3154 13.3412L8.69548 12.52L9.07555 13.3412C9.22919 13.6965 9.47968 13.9995 9.7973 14.2142C10.1149 14.4289 10.4863 14.5463 10.8675 14.5524C11.117 14.5525 11.364 14.5017 11.5938 14.4028C11.6806 14.3656 11.775 14.351 11.8687 14.3601C11.9624 14.3692 12.0524 14.4018 12.1307 14.4551C12.2119 14.5101 12.2785 14.5848 12.3245 14.6724C12.3705 14.7601 12.3944 14.858 12.3942 14.9574C12.3942 15.6699 12.0444 16.7505 10.3755 17.8703C9.55457 18.4631 8.60788 18.8503 7.61239 19.0002ZM6.52347 17.6702C6.85795 17.6701 7.1794 17.8023 7.42002 18.0389C7.52728 18.144 7.55584 18.144 7.61239 18.144C8.44026 17.988 9.22517 17.6514 9.91323 17.1572C10.6242 16.7423 11.1825 16.102 11.5029 15.3338C11.295 15.3851 11.0819 15.411 10.8681 15.411C10.4495 15.4096 10.0366 15.3117 9.66046 15.1247C9.2843 14.9376 8.95459 14.6663 8.69606 14.331C8.43256 14.6751 8.09394 14.9519 7.70706 15.1395C7.32018 15.327 6.89571 15.4202 6.46733 15.4115C6.03895 15.4028 5.61846 15.2925 5.23924 15.0893C4.86001 14.8862 4.53249 14.5959 4.28267 14.2413C4.02523 14.6012 3.68837 14.8944 3.29925 15.0974C2.91013 15.3004 2.47963 15.4074 2.04246 15.4098C1.87843 15.4099 1.71472 15.3948 1.55338 15.3647C1.88018 16.1176 2.43364 16.7452 3.13371 17.1566C3.82184 17.6507 4.60672 17.9873 5.43455 18.1434C5.49284 18.1434 5.51966 18.1434 5.62692 18.0383C5.86777 17.8018 6.18945 17.6698 6.52405 17.6702H6.52347Z" fill="white"/>
<path d="M2.05469 7.32255C2.05469 7.32255 3.97837 9.25699 3.97837 11.0549C3.97837 12.8812 3.41351 14.6281 2.70291 14.8851C1.99231 15.1422 3.98187 14.2 3.98187 14.2L4.23428 12.7447C4.29804 13.2322 4.46598 13.6996 4.72627 14.1139C5.2206 14.5912 5.85167 14.8954 6.52754 14.9819C7.16139 14.8998 7.7581 14.6317 8.24486 14.21C8.52117 13.8538 8.53632 13.2292 8.69955 13.5266C9.0681 14.0481 9.53255 14.4917 10.0671 14.8329C10.3679 14.9243 9.41772 13.4008 9.41772 10.9177C9.43044 10.2308 9.58724 9.55451 9.8776 8.93434C10.168 8.31417 10.5852 7.76442 11.1012 7.32196L9.16531 8.20664L8.99743 8.60624L7.9668 7.71146L6.52462 7.12305L5.35234 7.29405L4.48144 8.12174L4.22903 8.69233L2.05469 7.32255Z" fill="white"/>
<path d="M6.50751 2.73674C6.39947 2.44775 6.37028 2.13436 6.42304 1.82984C6.47579 1.52531 6.60852 1.24102 6.80714 1.00715C7.3685 0.484055 8.99022 0.122461 9.59297 0.00252335C9.61584 -0.00209047 9.63951 -0.000355072 9.6615 0.00754773C9.68348 0.0154505 9.70297 0.0292299 9.71793 0.0474422C9.73289 0.0656546 9.74277 0.0876297 9.74653 0.111065C9.75028 0.134501 9.74778 0.158535 9.73929 0.180648C9.45538 1.02781 9.06341 1.8333 8.57342 2.57643C8.0708 2.90113 7.50308 3.10687 6.91206 3.17849L7.60634 2.32409C7.63574 2.29058 7.65162 2.247 7.6508 2.20207C7.64999 2.15715 7.63253 2.11419 7.60193 2.08182C7.57133 2.04946 7.52985 2.03006 7.4858 2.02753C7.44176 2.025 7.3984 2.03952 7.36442 2.06818L6.50751 2.73674Z" fill="white"/>
</g>
<defs>
<clipPath id="clip0_3086_24420">
<rect width="13" height="19" fill="white"/>
</clipPath>
</defs>
</svg>
