<svg width="502" height="22" viewBox="0 0 502 22" fill="none" xmlns="http://www.w3.org/2000/svg">
<g clip-path="url(#clip0_3086_23782)">
<path d="M8.17314 22.0004H0.828131C0.711843 21.9938 0.598032 21.9642 0.493296 21.9134C0.388559 21.8626 0.294978 21.7916 0.217977 21.7045C0.140976 21.6175 0.082085 21.516 0.0447179 21.406C0.00735074 21.2961 -0.00774989 21.1799 0.000291104 21.0641V19.5516C-0.00940915 19.3555 0.0444478 19.1616 0.153899 18.9984C0.26335 18.8352 0.422586 18.7115 0.608064 18.6454C0.423056 18.5795 0.264156 18.4562 0.154746 18.2936C0.0453365 18.131 -0.00880417 17.9376 0.000291104 17.7421V16.2296C-0.00929817 16.0335 0.0446033 15.8396 0.15404 15.6765C0.263476 15.5133 0.422649 15.3896 0.608064 15.3234C0.423056 15.2575 0.264156 15.1342 0.154746 14.9716C0.0453365 14.809 -0.00880417 14.6156 0.000291104 14.4201V12.9076C-0.00925769 12.7116 0.0446703 12.5178 0.154111 12.3548C0.263552 12.1918 0.422704 12.0681 0.608064 12.0021C0.423235 11.9362 0.264481 11.8129 0.155097 11.6505C0.0457124 11.488 -0.00854318 11.2949 0.000291104 11.0994V9.58694C-0.00925769 9.39101 0.0446703 9.19722 0.154111 9.03418C0.263552 8.87114 0.422704 8.74749 0.608064 8.6815C0.423118 8.61552 0.26428 8.49217 0.154886 8.32956C0.045491 8.16696 -0.00869388 7.97369 0.000291104 7.77813V6.26562C-0.00803488 6.14969 0.00685781 6.03327 0.0441026 5.92312C0.0813474 5.81298 0.140201 5.71132 0.217237 5.62405C0.294274 5.53679 0.387957 5.46566 0.492833 5.41482C0.59771 5.36397 0.711687 5.33441 0.828131 5.32787H1.1165L3.01777 2.57031H6.07112L7.97308 5.33062H8.17314C8.28955 5.33726 8.40348 5.36687 8.50832 5.41775C8.61315 5.46862 8.70679 5.53975 8.78381 5.627C8.86083 5.71424 8.91969 5.81587 8.95697 5.92597C8.99425 6.03607 9.00921 6.15246 9.00098 6.26837V7.78087C9.01068 7.97691 8.95682 8.17086 8.84737 8.33404C8.73792 8.49722 8.57869 8.62097 8.39321 8.687C8.57851 8.75308 8.73759 8.87675 8.84702 9.03977C8.95645 9.20279 9.01042 9.39653 9.00098 9.59244V11.1049C9.01057 11.301 8.95667 11.4949 8.84723 11.658C8.7378 11.8212 8.57862 11.9449 8.39321 12.0111C8.57851 12.0771 8.73759 12.2008 8.84702 12.3638C8.95645 12.5269 9.01042 12.7206 9.00098 12.9165V14.429C9.01053 14.6249 8.9566 14.8187 8.84716 14.9818C8.73772 15.1448 8.57857 15.2684 8.39321 15.3344C8.57862 15.4006 8.7378 15.5243 8.84723 15.6875C8.95667 15.8506 9.01057 16.0445 9.00098 16.2406V17.7531C9.01053 17.949 8.9566 18.1428 8.84716 18.3058C8.73772 18.4689 8.57857 18.5925 8.39321 18.6585C8.57862 18.7246 8.7378 18.8484 8.84723 19.0115C8.95667 19.1747 9.01057 19.3686 9.00098 19.5646V21.0771C9.01379 21.3089 8.93382 21.5363 8.77863 21.7094C8.62343 21.8825 8.40568 21.9871 8.17314 22.0004ZM0.973003 21.0311H8.02758V19.5784C7.8212 19.5243 7.63859 19.4036 7.50829 19.2352C7.37798 19.0668 7.30731 18.8602 7.30731 18.6475C7.30731 18.4348 7.37798 18.2282 7.50829 18.0598C7.63859 17.8913 7.8212 17.7707 8.02758 17.7166V16.2571C7.8212 16.203 7.63859 16.0823 7.50829 15.9139C7.37798 15.7455 7.30731 15.5388 7.30731 15.3262C7.30731 15.1135 7.37798 14.9069 7.50829 14.7384C7.63859 14.57 7.8212 14.4494 8.02758 14.3953V12.9357C7.8212 12.8817 7.63859 12.761 7.50829 12.5926C7.37798 12.4242 7.30731 12.2175 7.30731 12.0049C7.30731 11.7922 7.37798 11.5855 7.50829 11.4171C7.63859 11.2487 7.8212 11.1281 8.02758 11.074V9.61513C7.8212 9.56106 7.63859 9.4404 7.50829 9.27199C7.37798 9.10358 7.30731 8.89691 7.30731 8.68425C7.30731 8.47159 7.37798 8.26491 7.50829 8.09651C7.63859 7.9281 7.8212 7.80744 8.02758 7.75338V6.3H7.4612L5.55855 3.53969H3.52965L1.62769 6.3H0.973003V7.75269C1.17938 7.80675 1.36199 7.92741 1.4923 8.09582C1.6226 8.26423 1.69327 8.4709 1.69327 8.68356C1.69327 8.89622 1.6226 9.1029 1.4923 9.2713C1.36199 9.43971 1.17938 9.56037 0.973003 9.61444V11.074C1.17938 11.1281 1.36199 11.2487 1.4923 11.4171C1.6226 11.5855 1.69327 11.7922 1.69327 12.0049C1.69327 12.2175 1.6226 12.4242 1.4923 12.5926C1.36199 12.761 1.17938 12.8817 0.973003 12.9357V14.3953C1.17938 14.4494 1.36199 14.57 1.4923 14.7384C1.6226 14.9069 1.69327 15.1135 1.69327 15.3262C1.69327 15.5388 1.6226 15.7455 1.4923 15.9139C1.36199 16.0823 1.17938 16.203 0.973003 16.2571V17.7159C1.17938 17.77 1.36199 17.8907 1.4923 18.0591C1.6226 18.2275 1.69327 18.4341 1.69327 18.6468C1.69327 18.8595 1.6226 19.0661 1.4923 19.2346C1.36199 19.403 1.17938 19.5236 0.973003 19.5777V21.0311Z" fill="#404040"/>
<path d="M3.714 0.193359H5.43867C5.58504 0.193359 5.72542 0.251306 5.82892 0.354451C5.93242 0.457596 5.99056 0.59749 5.99056 0.743359V1.64811H3.16211V0.743359C3.16211 0.59749 3.22025 0.457596 3.32375 0.354451C3.42725 0.251306 3.56763 0.193359 3.714 0.193359Z" fill="#404040"/>
<path d="M6.17841 1.8425H2.96777V0.7425C2.96777 0.545696 3.04618 0.356942 3.18575 0.217716C3.32533 0.0784901 3.51466 0.000182226 3.71214 0L5.43681 0C5.63417 0.000182032 5.82339 0.0783955 5.96295 0.217473C6.10251 0.35655 6.18099 0.545127 6.18117 0.741812L6.17841 1.8425ZM3.35686 1.45475H5.78933V0.741812C5.78933 0.647909 5.7519 0.557852 5.68527 0.491452C5.61864 0.425053 5.52827 0.38775 5.43405 0.38775H3.70938C3.61515 0.38775 3.52479 0.425053 3.45816 0.491452C3.39153 0.557852 3.3541 0.647909 3.3541 0.741812L3.35686 1.45475Z" fill="#404040"/>
</g>
<g clip-path="url(#clip1_3086_23782)">
<path d="M37.1731 22.0004H29.8281C29.7118 21.9938 29.598 21.9642 29.4933 21.9134C29.3886 21.8626 29.295 21.7916 29.218 21.7045C29.141 21.6175 29.0821 21.516 29.0447 21.406C29.0074 21.2961 28.9923 21.1799 29.0003 21.0641V19.5516C28.9906 19.3555 29.0444 19.1616 29.1539 18.9984C29.2634 18.8352 29.4226 18.7115 29.6081 18.6454C29.4231 18.5795 29.2642 18.4562 29.1547 18.2936C29.0453 18.131 28.9912 17.9376 29.0003 17.7421V16.2296C28.9907 16.0335 29.0446 15.8396 29.154 15.6765C29.2635 15.5133 29.4226 15.3896 29.6081 15.3234C29.4231 15.2575 29.2642 15.1342 29.1547 14.9716C29.0453 14.809 28.9912 14.6156 29.0003 14.4201V12.9076C28.9907 12.7116 29.0447 12.5178 29.1541 12.3548C29.2636 12.1918 29.4227 12.0681 29.6081 12.0021C29.4232 11.9362 29.2645 11.8129 29.1551 11.6505C29.0457 11.488 28.9915 11.2949 29.0003 11.0994V9.58694C28.9907 9.39101 29.0447 9.19722 29.1541 9.03418C29.2636 8.87114 29.4227 8.74749 29.6081 8.6815C29.4231 8.61552 29.2643 8.49217 29.1549 8.32956C29.0455 8.16696 28.9913 7.97369 29.0003 7.77813V6.26562C28.992 6.14969 29.0069 6.03327 29.0441 5.92312C29.0813 5.81298 29.1402 5.71132 29.2172 5.62405C29.2943 5.53679 29.388 5.46566 29.4928 5.41482C29.5977 5.36397 29.7117 5.33441 29.8281 5.32787H30.1165L32.0178 2.57031H35.0711L36.9731 5.33062H37.1731C37.2896 5.33726 37.4035 5.36687 37.5083 5.41775C37.6131 5.46862 37.7068 5.53975 37.7838 5.627C37.8608 5.71424 37.9197 5.81587 37.957 5.92597C37.9943 6.03607 38.0092 6.15246 38.001 6.26837V7.78087C38.0107 7.97691 37.9568 8.17086 37.8474 8.33404C37.7379 8.49722 37.5787 8.62097 37.3932 8.687C37.5785 8.75308 37.7376 8.87675 37.847 9.03977C37.9564 9.20279 38.0104 9.39653 38.001 9.59244V11.1049C38.0106 11.301 37.9567 11.4949 37.8472 11.658C37.7378 11.8212 37.5786 11.9449 37.3932 12.0111C37.5785 12.0771 37.7376 12.2008 37.847 12.3638C37.9564 12.5269 38.0104 12.7206 38.001 12.9165V14.429C38.0105 14.6249 37.9566 14.8187 37.8472 14.9818C37.7377 15.1448 37.5786 15.2684 37.3932 15.3344C37.5786 15.4006 37.7378 15.5243 37.8472 15.6875C37.9567 15.8506 38.0106 16.0445 38.001 16.2406V17.7531C38.0105 17.949 37.9566 18.1428 37.8472 18.3058C37.7377 18.4689 37.5786 18.5925 37.3932 18.6585C37.5786 18.7246 37.7378 18.8484 37.8472 19.0115C37.9567 19.1747 38.0106 19.3686 38.001 19.5646V21.0771C38.0138 21.3089 37.9338 21.5363 37.7786 21.7094C37.6234 21.8825 37.4057 21.9871 37.1731 22.0004ZM29.973 21.0311H37.0276V19.5784C36.8212 19.5243 36.6386 19.4036 36.5083 19.2352C36.378 19.0668 36.3073 18.8602 36.3073 18.6475C36.3073 18.4348 36.378 18.2282 36.5083 18.0598C36.6386 17.8913 36.8212 17.7707 37.0276 17.7166V16.2571C36.8212 16.203 36.6386 16.0823 36.5083 15.9139C36.378 15.7455 36.3073 15.5388 36.3073 15.3262C36.3073 15.1135 36.378 14.9069 36.5083 14.7384C36.6386 14.57 36.8212 14.4494 37.0276 14.3953V12.9357C36.8212 12.8817 36.6386 12.761 36.5083 12.5926C36.378 12.4242 36.3073 12.2175 36.3073 12.0049C36.3073 11.7922 36.378 11.5855 36.5083 11.4171C36.6386 11.2487 36.8212 11.1281 37.0276 11.074V9.61513C36.8212 9.56106 36.6386 9.4404 36.5083 9.27199C36.378 9.10358 36.3073 8.89691 36.3073 8.68425C36.3073 8.47159 36.378 8.26491 36.5083 8.09651C36.6386 7.9281 36.8212 7.80744 37.0276 7.75338V6.3H36.4612L34.5585 3.53969H32.5296L30.6277 6.3H29.973V7.75269C30.1794 7.80675 30.362 7.92741 30.4923 8.09582C30.6226 8.26423 30.6933 8.4709 30.6933 8.68356C30.6933 8.89622 30.6226 9.1029 30.4923 9.2713C30.362 9.43971 30.1794 9.56037 29.973 9.61444V11.074C30.1794 11.1281 30.362 11.2487 30.4923 11.4171C30.6226 11.5855 30.6933 11.7922 30.6933 12.0049C30.6933 12.2175 30.6226 12.4242 30.4923 12.5926C30.362 12.761 30.1794 12.8817 29.973 12.9357V14.3953C30.1794 14.4494 30.362 14.57 30.4923 14.7384C30.6226 14.9069 30.6933 15.1135 30.6933 15.3262C30.6933 15.5388 30.6226 15.7455 30.4923 15.9139C30.362 16.0823 30.1794 16.203 29.973 16.2571V17.7159C30.1794 17.77 30.362 17.8907 30.4923 18.0591C30.6226 18.2275 30.6933 18.4341 30.6933 18.6468C30.6933 18.8595 30.6226 19.0661 30.4923 19.2346C30.362 19.403 30.1794 19.5236 29.973 19.5777V21.0311Z" fill="#404040"/>
<path d="M32.714 0.193359H34.4387C34.585 0.193359 34.7254 0.251306 34.8289 0.354451C34.9324 0.457596 34.9906 0.59749 34.9906 0.743359V1.64811H32.1621V0.743359C32.1621 0.59749 32.2203 0.457596 32.3238 0.354451C32.4273 0.251306 32.5676 0.193359 32.714 0.193359Z" fill="#404040"/>
<path d="M35.1784 1.8425H31.9678V0.7425C31.9678 0.545696 32.0462 0.356942 32.1858 0.217716C32.3253 0.0784901 32.5147 0.000182226 32.7121 0L34.4368 0C34.6342 0.000182032 34.8234 0.0783955 34.9629 0.217473C35.1025 0.35655 35.181 0.545127 35.1812 0.741812L35.1784 1.8425ZM32.3569 1.45475H34.7893V0.741812C34.7893 0.647909 34.7519 0.557852 34.6853 0.491452C34.6186 0.425053 34.5283 0.38775 34.434 0.38775H32.7094C32.6152 0.38775 32.5248 0.425053 32.4582 0.491452C32.3915 0.557852 32.3541 0.647909 32.3541 0.741812L32.3569 1.45475Z" fill="#404040"/>
</g>
<g clip-path="url(#clip2_3086_23782)">
<path d="M66.1731 22.0004H58.8281C58.7118 21.9938 58.598 21.9642 58.4933 21.9134C58.3886 21.8626 58.295 21.7916 58.218 21.7045C58.141 21.6175 58.0821 21.516 58.0447 21.406C58.0074 21.2961 57.9923 21.1799 58.0003 21.0641V19.5516C57.9906 19.3555 58.0444 19.1616 58.1539 18.9984C58.2634 18.8352 58.4226 18.7115 58.6081 18.6454C58.4231 18.5795 58.2642 18.4562 58.1547 18.2936C58.0453 18.131 57.9912 17.9376 58.0003 17.7421V16.2296C57.9907 16.0335 58.0446 15.8396 58.154 15.6765C58.2635 15.5133 58.4226 15.3896 58.6081 15.3234C58.4231 15.2575 58.2642 15.1342 58.1547 14.9716C58.0453 14.809 57.9912 14.6156 58.0003 14.4201V12.9076C57.9907 12.7116 58.0447 12.5178 58.1541 12.3548C58.2636 12.1918 58.4227 12.0681 58.6081 12.0021C58.4232 11.9362 58.2645 11.8129 58.1551 11.6505C58.0457 11.488 57.9915 11.2949 58.0003 11.0994V9.58694C57.9907 9.39101 58.0447 9.19722 58.1541 9.03418C58.2636 8.87114 58.4227 8.74749 58.6081 8.6815C58.4231 8.61552 58.2643 8.49217 58.1549 8.32956C58.0455 8.16696 57.9913 7.97369 58.0003 7.77813V6.26562C57.992 6.14969 58.0069 6.03327 58.0441 5.92312C58.0813 5.81298 58.1402 5.71132 58.2172 5.62405C58.2943 5.53679 58.388 5.46566 58.4928 5.41482C58.5977 5.36397 58.7117 5.33441 58.8281 5.32787H59.1165L61.0178 2.57031H64.0711L65.9731 5.33062H66.1731C66.2896 5.33726 66.4035 5.36687 66.5083 5.41775C66.6131 5.46862 66.7068 5.53975 66.7838 5.627C66.8608 5.71424 66.9197 5.81587 66.957 5.92597C66.9943 6.03607 67.0092 6.15246 67.001 6.26837V7.78087C67.0107 7.97691 66.9568 8.17086 66.8474 8.33404C66.7379 8.49722 66.5787 8.62097 66.3932 8.687C66.5785 8.75308 66.7376 8.87675 66.847 9.03977C66.9564 9.20279 67.0104 9.39653 67.001 9.59244V11.1049C67.0106 11.301 66.9567 11.4949 66.8472 11.658C66.7378 11.8212 66.5786 11.9449 66.3932 12.0111C66.5785 12.0771 66.7376 12.2008 66.847 12.3638C66.9564 12.5269 67.0104 12.7206 67.001 12.9165V14.429C67.0105 14.6249 66.9566 14.8187 66.8472 14.9818C66.7377 15.1448 66.5786 15.2684 66.3932 15.3344C66.5786 15.4006 66.7378 15.5243 66.8472 15.6875C66.9567 15.8506 67.0106 16.0445 67.001 16.2406V17.7531C67.0105 17.949 66.9566 18.1428 66.8472 18.3058C66.7377 18.4689 66.5786 18.5925 66.3932 18.6585C66.5786 18.7246 66.7378 18.8484 66.8472 19.0115C66.9567 19.1747 67.0106 19.3686 67.001 19.5646V21.0771C67.0138 21.3089 66.9338 21.5363 66.7786 21.7094C66.6234 21.8825 66.4057 21.9871 66.1731 22.0004ZM58.973 21.0311H66.0276V19.5784C65.8212 19.5243 65.6386 19.4036 65.5083 19.2352C65.378 19.0668 65.3073 18.8602 65.3073 18.6475C65.3073 18.4348 65.378 18.2282 65.5083 18.0598C65.6386 17.8913 65.8212 17.7707 66.0276 17.7166V16.2571C65.8212 16.203 65.6386 16.0823 65.5083 15.9139C65.378 15.7455 65.3073 15.5388 65.3073 15.3262C65.3073 15.1135 65.378 14.9069 65.5083 14.7384C65.6386 14.57 65.8212 14.4494 66.0276 14.3953V12.9357C65.8212 12.8817 65.6386 12.761 65.5083 12.5926C65.378 12.4242 65.3073 12.2175 65.3073 12.0049C65.3073 11.7922 65.378 11.5855 65.5083 11.4171C65.6386 11.2487 65.8212 11.1281 66.0276 11.074V9.61513C65.8212 9.56106 65.6386 9.4404 65.5083 9.27199C65.378 9.10358 65.3073 8.89691 65.3073 8.68425C65.3073 8.47159 65.378 8.26491 65.5083 8.09651C65.6386 7.9281 65.8212 7.80744 66.0276 7.75338V6.3H65.4612L63.5585 3.53969H61.5296L59.6277 6.3H58.973V7.75269C59.1794 7.80675 59.362 7.92741 59.4923 8.09582C59.6226 8.26423 59.6933 8.4709 59.6933 8.68356C59.6933 8.89622 59.6226 9.1029 59.4923 9.2713C59.362 9.43971 59.1794 9.56037 58.973 9.61444V11.074C59.1794 11.1281 59.362 11.2487 59.4923 11.4171C59.6226 11.5855 59.6933 11.7922 59.6933 12.0049C59.6933 12.2175 59.6226 12.4242 59.4923 12.5926C59.362 12.761 59.1794 12.8817 58.973 12.9357V14.3953C59.1794 14.4494 59.362 14.57 59.4923 14.7384C59.6226 14.9069 59.6933 15.1135 59.6933 15.3262C59.6933 15.5388 59.6226 15.7455 59.4923 15.9139C59.362 16.0823 59.1794 16.203 58.973 16.2571V17.7159C59.1794 17.77 59.362 17.8907 59.4923 18.0591C59.6226 18.2275 59.6933 18.4341 59.6933 18.6468C59.6933 18.8595 59.6226 19.0661 59.4923 19.2346C59.362 19.403 59.1794 19.5236 58.973 19.5777V21.0311Z" fill="#404040"/>
<path d="M61.714 0.193359H63.4387C63.585 0.193359 63.7254 0.251306 63.8289 0.354451C63.9324 0.457596 63.9906 0.59749 63.9906 0.743359V1.64811H61.1621V0.743359C61.1621 0.59749 61.2203 0.457596 61.3238 0.354451C61.4273 0.251306 61.5676 0.193359 61.714 0.193359Z" fill="#404040"/>
<path d="M64.1784 1.8425H60.9678V0.7425C60.9678 0.545696 61.0462 0.356942 61.1858 0.217716C61.3253 0.0784901 61.5147 0.000182226 61.7121 0L63.4368 0C63.6342 0.000182032 63.8234 0.0783955 63.9629 0.217473C64.1025 0.35655 64.181 0.545127 64.1812 0.741812L64.1784 1.8425ZM61.3569 1.45475H63.7893V0.741812C63.7893 0.647909 63.7519 0.557852 63.6853 0.491452C63.6186 0.425053 63.5283 0.38775 63.434 0.38775H61.7094C61.6152 0.38775 61.5248 0.425053 61.4582 0.491452C61.3915 0.557852 61.3541 0.647909 61.3541 0.741812L61.3569 1.45475Z" fill="#404040"/>
</g>
<g clip-path="url(#clip3_3086_23782)">
<path d="M95.1731 22.0004H87.8281C87.7118 21.9938 87.598 21.9642 87.4933 21.9134C87.3886 21.8626 87.295 21.7916 87.218 21.7045C87.141 21.6175 87.0821 21.516 87.0447 21.406C87.0074 21.2961 86.9923 21.1799 87.0003 21.0641V19.5516C86.9906 19.3555 87.0444 19.1616 87.1539 18.9984C87.2634 18.8352 87.4226 18.7115 87.6081 18.6454C87.4231 18.5795 87.2642 18.4562 87.1547 18.2936C87.0453 18.131 86.9912 17.9376 87.0003 17.7421V16.2296C86.9907 16.0335 87.0446 15.8396 87.154 15.6765C87.2635 15.5133 87.4226 15.3896 87.6081 15.3234C87.4231 15.2575 87.2642 15.1342 87.1547 14.9716C87.0453 14.809 86.9912 14.6156 87.0003 14.4201V12.9076C86.9907 12.7116 87.0447 12.5178 87.1541 12.3548C87.2636 12.1918 87.4227 12.0681 87.6081 12.0021C87.4232 11.9362 87.2645 11.8129 87.1551 11.6505C87.0457 11.488 86.9915 11.2949 87.0003 11.0994V9.58694C86.9907 9.39101 87.0447 9.19722 87.1541 9.03418C87.2636 8.87114 87.4227 8.74749 87.6081 8.6815C87.4231 8.61552 87.2643 8.49217 87.1549 8.32956C87.0455 8.16696 86.9913 7.97369 87.0003 7.77813V6.26562C86.992 6.14969 87.0069 6.03327 87.0441 5.92312C87.0813 5.81298 87.1402 5.71132 87.2172 5.62405C87.2943 5.53679 87.388 5.46566 87.4928 5.41482C87.5977 5.36397 87.7117 5.33441 87.8281 5.32787H88.1165L90.0178 2.57031H93.0711L94.9731 5.33062H95.1731C95.2896 5.33726 95.4035 5.36687 95.5083 5.41775C95.6131 5.46862 95.7068 5.53975 95.7838 5.627C95.8608 5.71424 95.9197 5.81587 95.957 5.92597C95.9943 6.03607 96.0092 6.15246 96.001 6.26837V7.78087C96.0107 7.97691 95.9568 8.17086 95.8474 8.33404C95.7379 8.49722 95.5787 8.62097 95.3932 8.687C95.5785 8.75308 95.7376 8.87675 95.847 9.03977C95.9564 9.20279 96.0104 9.39653 96.001 9.59244V11.1049C96.0106 11.301 95.9567 11.4949 95.8472 11.658C95.7378 11.8212 95.5786 11.9449 95.3932 12.0111C95.5785 12.0771 95.7376 12.2008 95.847 12.3638C95.9564 12.5269 96.0104 12.7206 96.001 12.9165V14.429C96.0105 14.6249 95.9566 14.8187 95.8472 14.9818C95.7377 15.1448 95.5786 15.2684 95.3932 15.3344C95.5786 15.4006 95.7378 15.5243 95.8472 15.6875C95.9567 15.8506 96.0106 16.0445 96.001 16.2406V17.7531C96.0105 17.949 95.9566 18.1428 95.8472 18.3058C95.7377 18.4689 95.5786 18.5925 95.3932 18.6585C95.5786 18.7246 95.7378 18.8484 95.8472 19.0115C95.9567 19.1747 96.0106 19.3686 96.001 19.5646V21.0771C96.0138 21.3089 95.9338 21.5363 95.7786 21.7094C95.6234 21.8825 95.4057 21.9871 95.1731 22.0004ZM87.973 21.0311H95.0276V19.5784C94.8212 19.5243 94.6386 19.4036 94.5083 19.2352C94.378 19.0668 94.3073 18.8602 94.3073 18.6475C94.3073 18.4348 94.378 18.2282 94.5083 18.0598C94.6386 17.8913 94.8212 17.7707 95.0276 17.7166V16.2571C94.8212 16.203 94.6386 16.0823 94.5083 15.9139C94.378 15.7455 94.3073 15.5388 94.3073 15.3262C94.3073 15.1135 94.378 14.9069 94.5083 14.7384C94.6386 14.57 94.8212 14.4494 95.0276 14.3953V12.9357C94.8212 12.8817 94.6386 12.761 94.5083 12.5926C94.378 12.4242 94.3073 12.2175 94.3073 12.0049C94.3073 11.7922 94.378 11.5855 94.5083 11.4171C94.6386 11.2487 94.8212 11.1281 95.0276 11.074V9.61513C94.8212 9.56106 94.6386 9.4404 94.5083 9.27199C94.378 9.10358 94.3073 8.89691 94.3073 8.68425C94.3073 8.47159 94.378 8.26491 94.5083 8.09651C94.6386 7.9281 94.8212 7.80744 95.0276 7.75338V6.3H94.4612L92.5585 3.53969H90.5296L88.6277 6.3H87.973V7.75269C88.1794 7.80675 88.362 7.92741 88.4923 8.09582C88.6226 8.26423 88.6933 8.4709 88.6933 8.68356C88.6933 8.89622 88.6226 9.1029 88.4923 9.2713C88.362 9.43971 88.1794 9.56037 87.973 9.61444V11.074C88.1794 11.1281 88.362 11.2487 88.4923 11.4171C88.6226 11.5855 88.6933 11.7922 88.6933 12.0049C88.6933 12.2175 88.6226 12.4242 88.4923 12.5926C88.362 12.761 88.1794 12.8817 87.973 12.9357V14.3953C88.1794 14.4494 88.362 14.57 88.4923 14.7384C88.6226 14.9069 88.6933 15.1135 88.6933 15.3262C88.6933 15.5388 88.6226 15.7455 88.4923 15.9139C88.362 16.0823 88.1794 16.203 87.973 16.2571V17.7159C88.1794 17.77 88.362 17.8907 88.4923 18.0591C88.6226 18.2275 88.6933 18.4341 88.6933 18.6468C88.6933 18.8595 88.6226 19.0661 88.4923 19.2346C88.362 19.403 88.1794 19.5236 87.973 19.5777V21.0311Z" fill="#404040"/>
<path d="M90.714 0.193359H92.4387C92.585 0.193359 92.7254 0.251306 92.8289 0.354451C92.9324 0.457596 92.9906 0.59749 92.9906 0.743359V1.64811H90.1621V0.743359C90.1621 0.59749 90.2203 0.457596 90.3238 0.354451C90.4273 0.251306 90.5676 0.193359 90.714 0.193359Z" fill="#404040"/>
<path d="M93.1784 1.8425H89.9678V0.7425C89.9678 0.545696 90.0462 0.356942 90.1858 0.217716C90.3253 0.0784901 90.5147 0.000182226 90.7121 0L92.4368 0C92.6342 0.000182032 92.8234 0.0783955 92.9629 0.217473C93.1025 0.35655 93.181 0.545127 93.1812 0.741812L93.1784 1.8425ZM90.3569 1.45475H92.7893V0.741812C92.7893 0.647909 92.7519 0.557852 92.6853 0.491452C92.6186 0.425053 92.5283 0.38775 92.434 0.38775H90.7094C90.6152 0.38775 90.5248 0.425053 90.4582 0.491452C90.3915 0.557852 90.3541 0.647909 90.3541 0.741812L90.3569 1.45475Z" fill="#404040"/>
</g>
<g clip-path="url(#clip4_3086_23782)">
<path d="M124.173 22.0004H116.828C116.712 21.9938 116.598 21.9642 116.493 21.9134C116.389 21.8626 116.295 21.7916 116.218 21.7045C116.141 21.6175 116.082 21.516 116.045 21.406C116.007 21.2961 115.992 21.1799 116 21.0641V19.5516C115.991 19.3555 116.044 19.1616 116.154 18.9984C116.263 18.8352 116.423 18.7115 116.608 18.6454C116.423 18.5795 116.264 18.4562 116.155 18.2936C116.045 18.131 115.991 17.9376 116 17.7421V16.2296C115.991 16.0335 116.045 15.8396 116.154 15.6765C116.263 15.5133 116.423 15.3896 116.608 15.3234C116.423 15.2575 116.264 15.1342 116.155 14.9716C116.045 14.809 115.991 14.6156 116 14.4201V12.9076C115.991 12.7116 116.045 12.5178 116.154 12.3548C116.264 12.1918 116.423 12.0681 116.608 12.0021C116.423 11.9362 116.264 11.8129 116.155 11.6505C116.046 11.488 115.991 11.2949 116 11.0994V9.58694C115.991 9.39101 116.045 9.19722 116.154 9.03418C116.264 8.87114 116.423 8.74749 116.608 8.6815C116.423 8.61552 116.264 8.49217 116.155 8.32956C116.045 8.16696 115.991 7.97369 116 7.77813V6.26562C115.992 6.14969 116.007 6.03327 116.044 5.92312C116.081 5.81298 116.14 5.71132 116.217 5.62405C116.294 5.53679 116.388 5.46566 116.493 5.41482C116.598 5.36397 116.712 5.33441 116.828 5.32787H117.116L119.018 2.57031H122.071L123.973 5.33062H124.173C124.29 5.33726 124.403 5.36687 124.508 5.41775C124.613 5.46862 124.707 5.53975 124.784 5.627C124.861 5.71424 124.92 5.81587 124.957 5.92597C124.994 6.03607 125.009 6.15246 125.001 6.26837V7.78087C125.011 7.97691 124.957 8.17086 124.847 8.33404C124.738 8.49722 124.579 8.62097 124.393 8.687C124.579 8.75308 124.738 8.87675 124.847 9.03977C124.956 9.20279 125.01 9.39653 125.001 9.59244V11.1049C125.011 11.301 124.957 11.4949 124.847 11.658C124.738 11.8212 124.579 11.9449 124.393 12.0111C124.579 12.0771 124.738 12.2008 124.847 12.3638C124.956 12.5269 125.01 12.7206 125.001 12.9165V14.429C125.011 14.6249 124.957 14.8187 124.847 14.9818C124.738 15.1448 124.579 15.2684 124.393 15.3344C124.579 15.4006 124.738 15.5243 124.847 15.6875C124.957 15.8506 125.011 16.0445 125.001 16.2406V17.7531C125.011 17.949 124.957 18.1428 124.847 18.3058C124.738 18.4689 124.579 18.5925 124.393 18.6585C124.579 18.7246 124.738 18.8484 124.847 19.0115C124.957 19.1747 125.011 19.3686 125.001 19.5646V21.0771C125.014 21.3089 124.934 21.5363 124.779 21.7094C124.623 21.8825 124.406 21.9871 124.173 22.0004ZM116.973 21.0311H124.028V19.5784C123.821 19.5243 123.639 19.4036 123.508 19.2352C123.378 19.0668 123.307 18.8602 123.307 18.6475C123.307 18.4348 123.378 18.2282 123.508 18.0598C123.639 17.8913 123.821 17.7707 124.028 17.7166V16.2571C123.821 16.203 123.639 16.0823 123.508 15.9139C123.378 15.7455 123.307 15.5388 123.307 15.3262C123.307 15.1135 123.378 14.9069 123.508 14.7384C123.639 14.57 123.821 14.4494 124.028 14.3953V12.9357C123.821 12.8817 123.639 12.761 123.508 12.5926C123.378 12.4242 123.307 12.2175 123.307 12.0049C123.307 11.7922 123.378 11.5855 123.508 11.4171C123.639 11.2487 123.821 11.1281 124.028 11.074V9.61513C123.821 9.56106 123.639 9.4404 123.508 9.27199C123.378 9.10358 123.307 8.89691 123.307 8.68425C123.307 8.47159 123.378 8.26491 123.508 8.09651C123.639 7.9281 123.821 7.80744 124.028 7.75338V6.3H123.461L121.559 3.53969H119.53L117.628 6.3H116.973V7.75269C117.179 7.80675 117.362 7.92741 117.492 8.09582C117.623 8.26423 117.693 8.4709 117.693 8.68356C117.693 8.89622 117.623 9.1029 117.492 9.2713C117.362 9.43971 117.179 9.56037 116.973 9.61444V11.074C117.179 11.1281 117.362 11.2487 117.492 11.4171C117.623 11.5855 117.693 11.7922 117.693 12.0049C117.693 12.2175 117.623 12.4242 117.492 12.5926C117.362 12.761 117.179 12.8817 116.973 12.9357V14.3953C117.179 14.4494 117.362 14.57 117.492 14.7384C117.623 14.9069 117.693 15.1135 117.693 15.3262C117.693 15.5388 117.623 15.7455 117.492 15.9139C117.362 16.0823 117.179 16.203 116.973 16.2571V17.7159C117.179 17.77 117.362 17.8907 117.492 18.0591C117.623 18.2275 117.693 18.4341 117.693 18.6468C117.693 18.8595 117.623 19.0661 117.492 19.2346C117.362 19.403 117.179 19.5236 116.973 19.5777V21.0311Z" fill="#404040"/>
<path d="M119.714 0.193359H121.439C121.585 0.193359 121.725 0.251306 121.829 0.354451C121.932 0.457596 121.991 0.59749 121.991 0.743359V1.64811H119.162V0.743359C119.162 0.59749 119.22 0.457596 119.324 0.354451C119.427 0.251306 119.568 0.193359 119.714 0.193359Z" fill="#404040"/>
<path d="M122.178 1.8425H118.968V0.7425C118.968 0.545696 119.046 0.356942 119.186 0.217716C119.325 0.0784901 119.515 0.000182226 119.712 0L121.437 0C121.634 0.000182032 121.823 0.0783955 121.963 0.217473C122.103 0.35655 122.181 0.545127 122.181 0.741812L122.178 1.8425ZM119.357 1.45475H121.789V0.741812C121.789 0.647909 121.752 0.557852 121.685 0.491452C121.619 0.425053 121.528 0.38775 121.434 0.38775H119.709C119.615 0.38775 119.525 0.425053 119.458 0.491452C119.392 0.557852 119.354 0.647909 119.354 0.741812L119.357 1.45475Z" fill="#404040"/>
</g>
<g clip-path="url(#clip5_3086_23782)">
<path d="M153.173 22.0004H145.828C145.712 21.9938 145.598 21.9642 145.493 21.9134C145.389 21.8626 145.295 21.7916 145.218 21.7045C145.141 21.6175 145.082 21.516 145.045 21.406C145.007 21.2961 144.992 21.1799 145 21.0641V19.5516C144.991 19.3555 145.044 19.1616 145.154 18.9984C145.263 18.8352 145.423 18.7115 145.608 18.6454C145.423 18.5795 145.264 18.4562 145.155 18.2936C145.045 18.131 144.991 17.9376 145 17.7421V16.2296C144.991 16.0335 145.045 15.8396 145.154 15.6765C145.263 15.5133 145.423 15.3896 145.608 15.3234C145.423 15.2575 145.264 15.1342 145.155 14.9716C145.045 14.809 144.991 14.6156 145 14.4201V12.9076C144.991 12.7116 145.045 12.5178 145.154 12.3548C145.264 12.1918 145.423 12.0681 145.608 12.0021C145.423 11.9362 145.264 11.8129 145.155 11.6505C145.046 11.488 144.991 11.2949 145 11.0994V9.58694C144.991 9.39101 145.045 9.19722 145.154 9.03418C145.264 8.87114 145.423 8.74749 145.608 8.6815C145.423 8.61552 145.264 8.49217 145.155 8.32956C145.045 8.16696 144.991 7.97369 145 7.77813V6.26562C144.992 6.14969 145.007 6.03327 145.044 5.92312C145.081 5.81298 145.14 5.71132 145.217 5.62405C145.294 5.53679 145.388 5.46566 145.493 5.41482C145.598 5.36397 145.712 5.33441 145.828 5.32787H146.116L148.018 2.57031H151.071L152.973 5.33062H153.173C153.29 5.33726 153.403 5.36687 153.508 5.41775C153.613 5.46862 153.707 5.53975 153.784 5.627C153.861 5.71424 153.92 5.81587 153.957 5.92597C153.994 6.03607 154.009 6.15246 154.001 6.26837V7.78087C154.011 7.97691 153.957 8.17086 153.847 8.33404C153.738 8.49722 153.579 8.62097 153.393 8.687C153.579 8.75308 153.738 8.87675 153.847 9.03977C153.956 9.20279 154.01 9.39653 154.001 9.59244V11.1049C154.011 11.301 153.957 11.4949 153.847 11.658C153.738 11.8212 153.579 11.9449 153.393 12.0111C153.579 12.0771 153.738 12.2008 153.847 12.3638C153.956 12.5269 154.01 12.7206 154.001 12.9165V14.429C154.011 14.6249 153.957 14.8187 153.847 14.9818C153.738 15.1448 153.579 15.2684 153.393 15.3344C153.579 15.4006 153.738 15.5243 153.847 15.6875C153.957 15.8506 154.011 16.0445 154.001 16.2406V17.7531C154.011 17.949 153.957 18.1428 153.847 18.3058C153.738 18.4689 153.579 18.5925 153.393 18.6585C153.579 18.7246 153.738 18.8484 153.847 19.0115C153.957 19.1747 154.011 19.3686 154.001 19.5646V21.0771C154.014 21.3089 153.934 21.5363 153.779 21.7094C153.623 21.8825 153.406 21.9871 153.173 22.0004ZM145.973 21.0311H153.028V19.5784C152.821 19.5243 152.639 19.4036 152.508 19.2352C152.378 19.0668 152.307 18.8602 152.307 18.6475C152.307 18.4348 152.378 18.2282 152.508 18.0598C152.639 17.8913 152.821 17.7707 153.028 17.7166V16.2571C152.821 16.203 152.639 16.0823 152.508 15.9139C152.378 15.7455 152.307 15.5388 152.307 15.3262C152.307 15.1135 152.378 14.9069 152.508 14.7384C152.639 14.57 152.821 14.4494 153.028 14.3953V12.9357C152.821 12.8817 152.639 12.761 152.508 12.5926C152.378 12.4242 152.307 12.2175 152.307 12.0049C152.307 11.7922 152.378 11.5855 152.508 11.4171C152.639 11.2487 152.821 11.1281 153.028 11.074V9.61513C152.821 9.56106 152.639 9.4404 152.508 9.27199C152.378 9.10358 152.307 8.89691 152.307 8.68425C152.307 8.47159 152.378 8.26491 152.508 8.09651C152.639 7.9281 152.821 7.80744 153.028 7.75338V6.3H152.461L150.559 3.53969H148.53L146.628 6.3H145.973V7.75269C146.179 7.80675 146.362 7.92741 146.492 8.09582C146.623 8.26423 146.693 8.4709 146.693 8.68356C146.693 8.89622 146.623 9.1029 146.492 9.2713C146.362 9.43971 146.179 9.56037 145.973 9.61444V11.074C146.179 11.1281 146.362 11.2487 146.492 11.4171C146.623 11.5855 146.693 11.7922 146.693 12.0049C146.693 12.2175 146.623 12.4242 146.492 12.5926C146.362 12.761 146.179 12.8817 145.973 12.9357V14.3953C146.179 14.4494 146.362 14.57 146.492 14.7384C146.623 14.9069 146.693 15.1135 146.693 15.3262C146.693 15.5388 146.623 15.7455 146.492 15.9139C146.362 16.0823 146.179 16.203 145.973 16.2571V17.7159C146.179 17.77 146.362 17.8907 146.492 18.0591C146.623 18.2275 146.693 18.4341 146.693 18.6468C146.693 18.8595 146.623 19.0661 146.492 19.2346C146.362 19.403 146.179 19.5236 145.973 19.5777V21.0311Z" fill="#404040"/>
<path d="M148.714 0.193359H150.439C150.585 0.193359 150.725 0.251306 150.829 0.354451C150.932 0.457596 150.991 0.59749 150.991 0.743359V1.64811H148.162V0.743359C148.162 0.59749 148.22 0.457596 148.324 0.354451C148.427 0.251306 148.568 0.193359 148.714 0.193359Z" fill="#404040"/>
<path d="M151.178 1.8425H147.968V0.7425C147.968 0.545696 148.046 0.356942 148.186 0.217716C148.325 0.0784901 148.515 0.000182226 148.712 0L150.437 0C150.634 0.000182032 150.823 0.0783955 150.963 0.217473C151.103 0.35655 151.181 0.545127 151.181 0.741812L151.178 1.8425ZM148.357 1.45475H150.789V0.741812C150.789 0.647909 150.752 0.557852 150.685 0.491452C150.619 0.425053 150.528 0.38775 150.434 0.38775H148.709C148.615 0.38775 148.525 0.425053 148.458 0.491452C148.392 0.557852 148.354 0.647909 148.354 0.741812L148.357 1.45475Z" fill="#404040"/>
</g>
<g clip-path="url(#clip6_3086_23782)">
<path d="M182.173 22.0004H174.828C174.712 21.9938 174.598 21.9642 174.493 21.9134C174.389 21.8626 174.295 21.7916 174.218 21.7045C174.141 21.6175 174.082 21.516 174.045 21.406C174.007 21.2961 173.992 21.1799 174 21.0641V19.5516C173.991 19.3555 174.044 19.1616 174.154 18.9984C174.263 18.8352 174.423 18.7115 174.608 18.6454C174.423 18.5795 174.264 18.4562 174.155 18.2936C174.045 18.131 173.991 17.9376 174 17.7421V16.2296C173.991 16.0335 174.045 15.8396 174.154 15.6765C174.263 15.5133 174.423 15.3896 174.608 15.3234C174.423 15.2575 174.264 15.1342 174.155 14.9716C174.045 14.809 173.991 14.6156 174 14.4201V12.9076C173.991 12.7116 174.045 12.5178 174.154 12.3548C174.264 12.1918 174.423 12.0681 174.608 12.0021C174.423 11.9362 174.264 11.8129 174.155 11.6505C174.046 11.488 173.991 11.2949 174 11.0994V9.58694C173.991 9.39101 174.045 9.19722 174.154 9.03418C174.264 8.87114 174.423 8.74749 174.608 8.6815C174.423 8.61552 174.264 8.49217 174.155 8.32956C174.045 8.16696 173.991 7.97369 174 7.77813V6.26562C173.992 6.14969 174.007 6.03327 174.044 5.92312C174.081 5.81298 174.14 5.71132 174.217 5.62405C174.294 5.53679 174.388 5.46566 174.493 5.41482C174.598 5.36397 174.712 5.33441 174.828 5.32787H175.116L177.018 2.57031H180.071L181.973 5.33062H182.173C182.29 5.33726 182.403 5.36687 182.508 5.41775C182.613 5.46862 182.707 5.53975 182.784 5.627C182.861 5.71424 182.92 5.81587 182.957 5.92597C182.994 6.03607 183.009 6.15246 183.001 6.26837V7.78087C183.011 7.97691 182.957 8.17086 182.847 8.33404C182.738 8.49722 182.579 8.62097 182.393 8.687C182.579 8.75308 182.738 8.87675 182.847 9.03977C182.956 9.20279 183.01 9.39653 183.001 9.59244V11.1049C183.011 11.301 182.957 11.4949 182.847 11.658C182.738 11.8212 182.579 11.9449 182.393 12.0111C182.579 12.0771 182.738 12.2008 182.847 12.3638C182.956 12.5269 183.01 12.7206 183.001 12.9165V14.429C183.011 14.6249 182.957 14.8187 182.847 14.9818C182.738 15.1448 182.579 15.2684 182.393 15.3344C182.579 15.4006 182.738 15.5243 182.847 15.6875C182.957 15.8506 183.011 16.0445 183.001 16.2406V17.7531C183.011 17.949 182.957 18.1428 182.847 18.3058C182.738 18.4689 182.579 18.5925 182.393 18.6585C182.579 18.7246 182.738 18.8484 182.847 19.0115C182.957 19.1747 183.011 19.3686 183.001 19.5646V21.0771C183.014 21.3089 182.934 21.5363 182.779 21.7094C182.623 21.8825 182.406 21.9871 182.173 22.0004ZM174.973 21.0311H182.028V19.5784C181.821 19.5243 181.639 19.4036 181.508 19.2352C181.378 19.0668 181.307 18.8602 181.307 18.6475C181.307 18.4348 181.378 18.2282 181.508 18.0598C181.639 17.8913 181.821 17.7707 182.028 17.7166V16.2571C181.821 16.203 181.639 16.0823 181.508 15.9139C181.378 15.7455 181.307 15.5388 181.307 15.3262C181.307 15.1135 181.378 14.9069 181.508 14.7384C181.639 14.57 181.821 14.4494 182.028 14.3953V12.9357C181.821 12.8817 181.639 12.761 181.508 12.5926C181.378 12.4242 181.307 12.2175 181.307 12.0049C181.307 11.7922 181.378 11.5855 181.508 11.4171C181.639 11.2487 181.821 11.1281 182.028 11.074V9.61513C181.821 9.56106 181.639 9.4404 181.508 9.27199C181.378 9.10358 181.307 8.89691 181.307 8.68425C181.307 8.47159 181.378 8.26491 181.508 8.09651C181.639 7.9281 181.821 7.80744 182.028 7.75338V6.3H181.461L179.559 3.53969H177.53L175.628 6.3H174.973V7.75269C175.179 7.80675 175.362 7.92741 175.492 8.09582C175.623 8.26423 175.693 8.4709 175.693 8.68356C175.693 8.89622 175.623 9.1029 175.492 9.2713C175.362 9.43971 175.179 9.56037 174.973 9.61444V11.074C175.179 11.1281 175.362 11.2487 175.492 11.4171C175.623 11.5855 175.693 11.7922 175.693 12.0049C175.693 12.2175 175.623 12.4242 175.492 12.5926C175.362 12.761 175.179 12.8817 174.973 12.9357V14.3953C175.179 14.4494 175.362 14.57 175.492 14.7384C175.623 14.9069 175.693 15.1135 175.693 15.3262C175.693 15.5388 175.623 15.7455 175.492 15.9139C175.362 16.0823 175.179 16.203 174.973 16.2571V17.7159C175.179 17.77 175.362 17.8907 175.492 18.0591C175.623 18.2275 175.693 18.4341 175.693 18.6468C175.693 18.8595 175.623 19.0661 175.492 19.2346C175.362 19.403 175.179 19.5236 174.973 19.5777V21.0311Z" fill="#404040"/>
<path d="M177.714 0.193359H179.439C179.585 0.193359 179.725 0.251306 179.829 0.354451C179.932 0.457596 179.991 0.59749 179.991 0.743359V1.64811H177.162V0.743359C177.162 0.59749 177.22 0.457596 177.324 0.354451C177.427 0.251306 177.568 0.193359 177.714 0.193359Z" fill="#404040"/>
<path d="M180.178 1.8425H176.968V0.7425C176.968 0.545696 177.046 0.356942 177.186 0.217716C177.325 0.0784901 177.515 0.000182226 177.712 0L179.437 0C179.634 0.000182032 179.823 0.0783955 179.963 0.217473C180.103 0.35655 180.181 0.545127 180.181 0.741812L180.178 1.8425ZM177.357 1.45475H179.789V0.741812C179.789 0.647909 179.752 0.557852 179.685 0.491452C179.619 0.425053 179.528 0.38775 179.434 0.38775H177.709C177.615 0.38775 177.525 0.425053 177.458 0.491452C177.392 0.557852 177.354 0.647909 177.354 0.741812L177.357 1.45475Z" fill="#404040"/>
</g>
<g clip-path="url(#clip7_3086_23782)">
<path d="M211.173 22.0004H203.828C203.712 21.9938 203.598 21.9642 203.493 21.9134C203.389 21.8626 203.295 21.7916 203.218 21.7045C203.141 21.6175 203.082 21.516 203.045 21.406C203.007 21.2961 202.992 21.1799 203 21.0641V19.5516C202.991 19.3555 203.044 19.1616 203.154 18.9984C203.263 18.8352 203.423 18.7115 203.608 18.6454C203.423 18.5795 203.264 18.4562 203.155 18.2936C203.045 18.131 202.991 17.9376 203 17.7421V16.2296C202.991 16.0335 203.045 15.8396 203.154 15.6765C203.263 15.5133 203.423 15.3896 203.608 15.3234C203.423 15.2575 203.264 15.1342 203.155 14.9716C203.045 14.809 202.991 14.6156 203 14.4201V12.9076C202.991 12.7116 203.045 12.5178 203.154 12.3548C203.264 12.1918 203.423 12.0681 203.608 12.0021C203.423 11.9362 203.264 11.8129 203.155 11.6505C203.046 11.488 202.991 11.2949 203 11.0994V9.58694C202.991 9.39101 203.045 9.19722 203.154 9.03418C203.264 8.87114 203.423 8.74749 203.608 8.6815C203.423 8.61552 203.264 8.49217 203.155 8.32956C203.045 8.16696 202.991 7.97369 203 7.77813V6.26562C202.992 6.14969 203.007 6.03327 203.044 5.92312C203.081 5.81298 203.14 5.71132 203.217 5.62405C203.294 5.53679 203.388 5.46566 203.493 5.41482C203.598 5.36397 203.712 5.33441 203.828 5.32787H204.116L206.018 2.57031H209.071L210.973 5.33062H211.173C211.29 5.33726 211.403 5.36687 211.508 5.41775C211.613 5.46862 211.707 5.53975 211.784 5.627C211.861 5.71424 211.92 5.81587 211.957 5.92597C211.994 6.03607 212.009 6.15246 212.001 6.26837V7.78087C212.011 7.97691 211.957 8.17086 211.847 8.33404C211.738 8.49722 211.579 8.62097 211.393 8.687C211.579 8.75308 211.738 8.87675 211.847 9.03977C211.956 9.20279 212.01 9.39653 212.001 9.59244V11.1049C212.011 11.301 211.957 11.4949 211.847 11.658C211.738 11.8212 211.579 11.9449 211.393 12.0111C211.579 12.0771 211.738 12.2008 211.847 12.3638C211.956 12.5269 212.01 12.7206 212.001 12.9165V14.429C212.011 14.6249 211.957 14.8187 211.847 14.9818C211.738 15.1448 211.579 15.2684 211.393 15.3344C211.579 15.4006 211.738 15.5243 211.847 15.6875C211.957 15.8506 212.011 16.0445 212.001 16.2406V17.7531C212.011 17.949 211.957 18.1428 211.847 18.3058C211.738 18.4689 211.579 18.5925 211.393 18.6585C211.579 18.7246 211.738 18.8484 211.847 19.0115C211.957 19.1747 212.011 19.3686 212.001 19.5646V21.0771C212.014 21.3089 211.934 21.5363 211.779 21.7094C211.623 21.8825 211.406 21.9871 211.173 22.0004ZM203.973 21.0311H211.028V19.5784C210.821 19.5243 210.639 19.4036 210.508 19.2352C210.378 19.0668 210.307 18.8602 210.307 18.6475C210.307 18.4348 210.378 18.2282 210.508 18.0598C210.639 17.8913 210.821 17.7707 211.028 17.7166V16.2571C210.821 16.203 210.639 16.0823 210.508 15.9139C210.378 15.7455 210.307 15.5388 210.307 15.3262C210.307 15.1135 210.378 14.9069 210.508 14.7384C210.639 14.57 210.821 14.4494 211.028 14.3953V12.9357C210.821 12.8817 210.639 12.761 210.508 12.5926C210.378 12.4242 210.307 12.2175 210.307 12.0049C210.307 11.7922 210.378 11.5855 210.508 11.4171C210.639 11.2487 210.821 11.1281 211.028 11.074V9.61513C210.821 9.56106 210.639 9.4404 210.508 9.27199C210.378 9.10358 210.307 8.89691 210.307 8.68425C210.307 8.47159 210.378 8.26491 210.508 8.09651C210.639 7.9281 210.821 7.80744 211.028 7.75338V6.3H210.461L208.559 3.53969H206.53L204.628 6.3H203.973V7.75269C204.179 7.80675 204.362 7.92741 204.492 8.09582C204.623 8.26423 204.693 8.4709 204.693 8.68356C204.693 8.89622 204.623 9.1029 204.492 9.2713C204.362 9.43971 204.179 9.56037 203.973 9.61444V11.074C204.179 11.1281 204.362 11.2487 204.492 11.4171C204.623 11.5855 204.693 11.7922 204.693 12.0049C204.693 12.2175 204.623 12.4242 204.492 12.5926C204.362 12.761 204.179 12.8817 203.973 12.9357V14.3953C204.179 14.4494 204.362 14.57 204.492 14.7384C204.623 14.9069 204.693 15.1135 204.693 15.3262C204.693 15.5388 204.623 15.7455 204.492 15.9139C204.362 16.0823 204.179 16.203 203.973 16.2571V17.7159C204.179 17.77 204.362 17.8907 204.492 18.0591C204.623 18.2275 204.693 18.4341 204.693 18.6468C204.693 18.8595 204.623 19.0661 204.492 19.2346C204.362 19.403 204.179 19.5236 203.973 19.5777V21.0311Z" fill="#404040"/>
<path d="M206.714 0.193359H208.439C208.585 0.193359 208.725 0.251306 208.829 0.354451C208.932 0.457596 208.991 0.59749 208.991 0.743359V1.64811H206.162V0.743359C206.162 0.59749 206.22 0.457596 206.324 0.354451C206.427 0.251306 206.568 0.193359 206.714 0.193359Z" fill="#404040"/>
<path d="M209.178 1.8425H205.968V0.7425C205.968 0.545696 206.046 0.356942 206.186 0.217716C206.325 0.0784901 206.515 0.000182226 206.712 0L208.437 0C208.634 0.000182032 208.823 0.0783955 208.963 0.217473C209.103 0.35655 209.181 0.545127 209.181 0.741812L209.178 1.8425ZM206.357 1.45475H208.789V0.741812C208.789 0.647909 208.752 0.557852 208.685 0.491452C208.619 0.425053 208.528 0.38775 208.434 0.38775H206.709C206.615 0.38775 206.525 0.425053 206.458 0.491452C206.392 0.557852 206.354 0.647909 206.354 0.741812L206.357 1.45475Z" fill="#404040"/>
</g>
<g clip-path="url(#clip8_3086_23782)">
<path d="M240.173 22.0004H232.828C232.712 21.9938 232.598 21.9642 232.493 21.9134C232.389 21.8626 232.295 21.7916 232.218 21.7045C232.141 21.6175 232.082 21.516 232.045 21.406C232.007 21.2961 231.992 21.1799 232 21.0641V19.5516C231.991 19.3555 232.044 19.1616 232.154 18.9984C232.263 18.8352 232.423 18.7115 232.608 18.6454C232.423 18.5795 232.264 18.4562 232.155 18.2936C232.045 18.131 231.991 17.9376 232 17.7421V16.2296C231.991 16.0335 232.045 15.8396 232.154 15.6765C232.263 15.5133 232.423 15.3896 232.608 15.3234C232.423 15.2575 232.264 15.1342 232.155 14.9716C232.045 14.809 231.991 14.6156 232 14.4201V12.9076C231.991 12.7116 232.045 12.5178 232.154 12.3548C232.264 12.1918 232.423 12.0681 232.608 12.0021C232.423 11.9362 232.264 11.8129 232.155 11.6505C232.046 11.488 231.991 11.2949 232 11.0994V9.58694C231.991 9.39101 232.045 9.19722 232.154 9.03418C232.264 8.87114 232.423 8.74749 232.608 8.6815C232.423 8.61552 232.264 8.49217 232.155 8.32956C232.045 8.16696 231.991 7.97369 232 7.77813V6.26562C231.992 6.14969 232.007 6.03327 232.044 5.92312C232.081 5.81298 232.14 5.71132 232.217 5.62405C232.294 5.53679 232.388 5.46566 232.493 5.41482C232.598 5.36397 232.712 5.33441 232.828 5.32787H233.116L235.018 2.57031H238.071L239.973 5.33062H240.173C240.29 5.33726 240.403 5.36687 240.508 5.41775C240.613 5.46862 240.707 5.53975 240.784 5.627C240.861 5.71424 240.92 5.81587 240.957 5.92597C240.994 6.03607 241.009 6.15246 241.001 6.26837V7.78087C241.011 7.97691 240.957 8.17086 240.847 8.33404C240.738 8.49722 240.579 8.62097 240.393 8.687C240.579 8.75308 240.738 8.87675 240.847 9.03977C240.956 9.20279 241.01 9.39653 241.001 9.59244V11.1049C241.011 11.301 240.957 11.4949 240.847 11.658C240.738 11.8212 240.579 11.9449 240.393 12.0111C240.579 12.0771 240.738 12.2008 240.847 12.3638C240.956 12.5269 241.01 12.7206 241.001 12.9165V14.429C241.011 14.6249 240.957 14.8187 240.847 14.9818C240.738 15.1448 240.579 15.2684 240.393 15.3344C240.579 15.4006 240.738 15.5243 240.847 15.6875C240.957 15.8506 241.011 16.0445 241.001 16.2406V17.7531C241.011 17.949 240.957 18.1428 240.847 18.3058C240.738 18.4689 240.579 18.5925 240.393 18.6585C240.579 18.7246 240.738 18.8484 240.847 19.0115C240.957 19.1747 241.011 19.3686 241.001 19.5646V21.0771C241.014 21.3089 240.934 21.5363 240.779 21.7094C240.623 21.8825 240.406 21.9871 240.173 22.0004ZM232.973 21.0311H240.028V19.5784C239.821 19.5243 239.639 19.4036 239.508 19.2352C239.378 19.0668 239.307 18.8602 239.307 18.6475C239.307 18.4348 239.378 18.2282 239.508 18.0598C239.639 17.8913 239.821 17.7707 240.028 17.7166V16.2571C239.821 16.203 239.639 16.0823 239.508 15.9139C239.378 15.7455 239.307 15.5388 239.307 15.3262C239.307 15.1135 239.378 14.9069 239.508 14.7384C239.639 14.57 239.821 14.4494 240.028 14.3953V12.9357C239.821 12.8817 239.639 12.761 239.508 12.5926C239.378 12.4242 239.307 12.2175 239.307 12.0049C239.307 11.7922 239.378 11.5855 239.508 11.4171C239.639 11.2487 239.821 11.1281 240.028 11.074V9.61513C239.821 9.56106 239.639 9.4404 239.508 9.27199C239.378 9.10358 239.307 8.89691 239.307 8.68425C239.307 8.47159 239.378 8.26491 239.508 8.09651C239.639 7.9281 239.821 7.80744 240.028 7.75338V6.3H239.461L237.559 3.53969H235.53L233.628 6.3H232.973V7.75269C233.179 7.80675 233.362 7.92741 233.492 8.09582C233.623 8.26423 233.693 8.4709 233.693 8.68356C233.693 8.89622 233.623 9.1029 233.492 9.2713C233.362 9.43971 233.179 9.56037 232.973 9.61444V11.074C233.179 11.1281 233.362 11.2487 233.492 11.4171C233.623 11.5855 233.693 11.7922 233.693 12.0049C233.693 12.2175 233.623 12.4242 233.492 12.5926C233.362 12.761 233.179 12.8817 232.973 12.9357V14.3953C233.179 14.4494 233.362 14.57 233.492 14.7384C233.623 14.9069 233.693 15.1135 233.693 15.3262C233.693 15.5388 233.623 15.7455 233.492 15.9139C233.362 16.0823 233.179 16.203 232.973 16.2571V17.7159C233.179 17.77 233.362 17.8907 233.492 18.0591C233.623 18.2275 233.693 18.4341 233.693 18.6468C233.693 18.8595 233.623 19.0661 233.492 19.2346C233.362 19.403 233.179 19.5236 232.973 19.5777V21.0311Z" fill="#404040"/>
<path d="M235.714 0.193359H237.439C237.585 0.193359 237.725 0.251306 237.829 0.354451C237.932 0.457596 237.991 0.59749 237.991 0.743359V1.64811H235.162V0.743359C235.162 0.59749 235.22 0.457596 235.324 0.354451C235.427 0.251306 235.568 0.193359 235.714 0.193359Z" fill="#404040"/>
<path d="M238.178 1.8425H234.968V0.7425C234.968 0.545696 235.046 0.356942 235.186 0.217716C235.325 0.0784901 235.515 0.000182226 235.712 0L237.437 0C237.634 0.000182032 237.823 0.0783955 237.963 0.217473C238.103 0.35655 238.181 0.545127 238.181 0.741812L238.178 1.8425ZM235.357 1.45475H237.789V0.741812C237.789 0.647909 237.752 0.557852 237.685 0.491452C237.619 0.425053 237.528 0.38775 237.434 0.38775H235.709C235.615 0.38775 235.525 0.425053 235.458 0.491452C235.392 0.557852 235.354 0.647909 235.354 0.741812L235.357 1.45475Z" fill="#404040"/>
</g>
<g clip-path="url(#clip9_3086_23782)">
<path d="M269.173 22.0004H261.828C261.712 21.9938 261.598 21.9642 261.493 21.9134C261.389 21.8626 261.295 21.7916 261.218 21.7045C261.141 21.6175 261.082 21.516 261.045 21.406C261.007 21.2961 260.992 21.1799 261 21.0641V19.5516C260.991 19.3555 261.044 19.1616 261.154 18.9984C261.263 18.8352 261.423 18.7115 261.608 18.6454C261.423 18.5795 261.264 18.4562 261.155 18.2936C261.045 18.131 260.991 17.9376 261 17.7421V16.2296C260.991 16.0335 261.045 15.8396 261.154 15.6765C261.263 15.5133 261.423 15.3896 261.608 15.3234C261.423 15.2575 261.264 15.1342 261.155 14.9716C261.045 14.809 260.991 14.6156 261 14.4201V12.9076C260.991 12.7116 261.045 12.5178 261.154 12.3548C261.264 12.1918 261.423 12.0681 261.608 12.0021C261.423 11.9362 261.264 11.8129 261.155 11.6505C261.046 11.488 260.991 11.2949 261 11.0994V9.58694C260.991 9.39101 261.045 9.19722 261.154 9.03418C261.264 8.87114 261.423 8.74749 261.608 8.6815C261.423 8.61552 261.264 8.49217 261.155 8.32956C261.045 8.16696 260.991 7.97369 261 7.77813V6.26562C260.992 6.14969 261.007 6.03327 261.044 5.92312C261.081 5.81298 261.14 5.71132 261.217 5.62405C261.294 5.53679 261.388 5.46566 261.493 5.41482C261.598 5.36397 261.712 5.33441 261.828 5.32787H262.116L264.018 2.57031H267.071L268.973 5.33062H269.173C269.29 5.33726 269.403 5.36687 269.508 5.41775C269.613 5.46862 269.707 5.53975 269.784 5.627C269.861 5.71424 269.92 5.81587 269.957 5.92597C269.994 6.03607 270.009 6.15246 270.001 6.26837V7.78087C270.011 7.97691 269.957 8.17086 269.847 8.33404C269.738 8.49722 269.579 8.62097 269.393 8.687C269.579 8.75308 269.738 8.87675 269.847 9.03977C269.956 9.20279 270.01 9.39653 270.001 9.59244V11.1049C270.011 11.301 269.957 11.4949 269.847 11.658C269.738 11.8212 269.579 11.9449 269.393 12.0111C269.579 12.0771 269.738 12.2008 269.847 12.3638C269.956 12.5269 270.01 12.7206 270.001 12.9165V14.429C270.011 14.6249 269.957 14.8187 269.847 14.9818C269.738 15.1448 269.579 15.2684 269.393 15.3344C269.579 15.4006 269.738 15.5243 269.847 15.6875C269.957 15.8506 270.011 16.0445 270.001 16.2406V17.7531C270.011 17.949 269.957 18.1428 269.847 18.3058C269.738 18.4689 269.579 18.5925 269.393 18.6585C269.579 18.7246 269.738 18.8484 269.847 19.0115C269.957 19.1747 270.011 19.3686 270.001 19.5646V21.0771C270.014 21.3089 269.934 21.5363 269.779 21.7094C269.623 21.8825 269.406 21.9871 269.173 22.0004ZM261.973 21.0311H269.028V19.5784C268.821 19.5243 268.639 19.4036 268.508 19.2352C268.378 19.0668 268.307 18.8602 268.307 18.6475C268.307 18.4348 268.378 18.2282 268.508 18.0598C268.639 17.8913 268.821 17.7707 269.028 17.7166V16.2571C268.821 16.203 268.639 16.0823 268.508 15.9139C268.378 15.7455 268.307 15.5388 268.307 15.3262C268.307 15.1135 268.378 14.9069 268.508 14.7384C268.639 14.57 268.821 14.4494 269.028 14.3953V12.9357C268.821 12.8817 268.639 12.761 268.508 12.5926C268.378 12.4242 268.307 12.2175 268.307 12.0049C268.307 11.7922 268.378 11.5855 268.508 11.4171C268.639 11.2487 268.821 11.1281 269.028 11.074V9.61513C268.821 9.56106 268.639 9.4404 268.508 9.27199C268.378 9.10358 268.307 8.89691 268.307 8.68425C268.307 8.47159 268.378 8.26491 268.508 8.09651C268.639 7.9281 268.821 7.80744 269.028 7.75338V6.3H268.461L266.559 3.53969H264.53L262.628 6.3H261.973V7.75269C262.179 7.80675 262.362 7.92741 262.492 8.09582C262.623 8.26423 262.693 8.4709 262.693 8.68356C262.693 8.89622 262.623 9.1029 262.492 9.2713C262.362 9.43971 262.179 9.56037 261.973 9.61444V11.074C262.179 11.1281 262.362 11.2487 262.492 11.4171C262.623 11.5855 262.693 11.7922 262.693 12.0049C262.693 12.2175 262.623 12.4242 262.492 12.5926C262.362 12.761 262.179 12.8817 261.973 12.9357V14.3953C262.179 14.4494 262.362 14.57 262.492 14.7384C262.623 14.9069 262.693 15.1135 262.693 15.3262C262.693 15.5388 262.623 15.7455 262.492 15.9139C262.362 16.0823 262.179 16.203 261.973 16.2571V17.7159C262.179 17.77 262.362 17.8907 262.492 18.0591C262.623 18.2275 262.693 18.4341 262.693 18.6468C262.693 18.8595 262.623 19.0661 262.492 19.2346C262.362 19.403 262.179 19.5236 261.973 19.5777V21.0311Z" fill="#404040"/>
<path d="M264.714 0.193359H266.439C266.585 0.193359 266.725 0.251306 266.829 0.354451C266.932 0.457596 266.991 0.59749 266.991 0.743359V1.64811H264.162V0.743359C264.162 0.59749 264.22 0.457596 264.324 0.354451C264.427 0.251306 264.568 0.193359 264.714 0.193359Z" fill="#404040"/>
<path d="M267.178 1.8425H263.968V0.7425C263.968 0.545696 264.046 0.356942 264.186 0.217716C264.325 0.0784901 264.515 0.000182226 264.712 0L266.437 0C266.634 0.000182032 266.823 0.0783955 266.963 0.217473C267.103 0.35655 267.181 0.545127 267.181 0.741812L267.178 1.8425ZM264.357 1.45475H266.789V0.741812C266.789 0.647909 266.752 0.557852 266.685 0.491452C266.619 0.425053 266.528 0.38775 266.434 0.38775H264.709C264.615 0.38775 264.525 0.425053 264.458 0.491452C264.392 0.557852 264.354 0.647909 264.354 0.741812L264.357 1.45475Z" fill="#404040"/>
</g>
<g clip-path="url(#clip10_3086_23782)">
<path d="M298.173 22.0004H290.828C290.712 21.9938 290.598 21.9642 290.493 21.9134C290.389 21.8626 290.295 21.7916 290.218 21.7045C290.141 21.6175 290.082 21.516 290.045 21.406C290.007 21.2961 289.992 21.1799 290 21.0641V19.5516C289.991 19.3555 290.044 19.1616 290.154 18.9984C290.263 18.8352 290.423 18.7115 290.608 18.6454C290.423 18.5795 290.264 18.4562 290.155 18.2936C290.045 18.131 289.991 17.9376 290 17.7421V16.2296C289.991 16.0335 290.045 15.8396 290.154 15.6765C290.263 15.5133 290.423 15.3896 290.608 15.3234C290.423 15.2575 290.264 15.1342 290.155 14.9716C290.045 14.809 289.991 14.6156 290 14.4201V12.9076C289.991 12.7116 290.045 12.5178 290.154 12.3548C290.264 12.1918 290.423 12.0681 290.608 12.0021C290.423 11.9362 290.264 11.8129 290.155 11.6505C290.046 11.488 289.991 11.2949 290 11.0994V9.58694C289.991 9.39101 290.045 9.19722 290.154 9.03418C290.264 8.87114 290.423 8.74749 290.608 8.6815C290.423 8.61552 290.264 8.49217 290.155 8.32956C290.045 8.16696 289.991 7.97369 290 7.77813V6.26562C289.992 6.14969 290.007 6.03327 290.044 5.92312C290.081 5.81298 290.14 5.71132 290.217 5.62405C290.294 5.53679 290.388 5.46566 290.493 5.41482C290.598 5.36397 290.712 5.33441 290.828 5.32787H291.116L293.018 2.57031H296.071L297.973 5.33062H298.173C298.29 5.33726 298.403 5.36687 298.508 5.41775C298.613 5.46862 298.707 5.53975 298.784 5.627C298.861 5.71424 298.92 5.81587 298.957 5.92597C298.994 6.03607 299.009 6.15246 299.001 6.26837V7.78087C299.011 7.97691 298.957 8.17086 298.847 8.33404C298.738 8.49722 298.579 8.62097 298.393 8.687C298.579 8.75308 298.738 8.87675 298.847 9.03977C298.956 9.20279 299.01 9.39653 299.001 9.59244V11.1049C299.011 11.301 298.957 11.4949 298.847 11.658C298.738 11.8212 298.579 11.9449 298.393 12.0111C298.579 12.0771 298.738 12.2008 298.847 12.3638C298.956 12.5269 299.01 12.7206 299.001 12.9165V14.429C299.011 14.6249 298.957 14.8187 298.847 14.9818C298.738 15.1448 298.579 15.2684 298.393 15.3344C298.579 15.4006 298.738 15.5243 298.847 15.6875C298.957 15.8506 299.011 16.0445 299.001 16.2406V17.7531C299.011 17.949 298.957 18.1428 298.847 18.3058C298.738 18.4689 298.579 18.5925 298.393 18.6585C298.579 18.7246 298.738 18.8484 298.847 19.0115C298.957 19.1747 299.011 19.3686 299.001 19.5646V21.0771C299.014 21.3089 298.934 21.5363 298.779 21.7094C298.623 21.8825 298.406 21.9871 298.173 22.0004ZM290.973 21.0311H298.028V19.5784C297.821 19.5243 297.639 19.4036 297.508 19.2352C297.378 19.0668 297.307 18.8602 297.307 18.6475C297.307 18.4348 297.378 18.2282 297.508 18.0598C297.639 17.8913 297.821 17.7707 298.028 17.7166V16.2571C297.821 16.203 297.639 16.0823 297.508 15.9139C297.378 15.7455 297.307 15.5388 297.307 15.3262C297.307 15.1135 297.378 14.9069 297.508 14.7384C297.639 14.57 297.821 14.4494 298.028 14.3953V12.9357C297.821 12.8817 297.639 12.761 297.508 12.5926C297.378 12.4242 297.307 12.2175 297.307 12.0049C297.307 11.7922 297.378 11.5855 297.508 11.4171C297.639 11.2487 297.821 11.1281 298.028 11.074V9.61513C297.821 9.56106 297.639 9.4404 297.508 9.27199C297.378 9.10358 297.307 8.89691 297.307 8.68425C297.307 8.47159 297.378 8.26491 297.508 8.09651C297.639 7.9281 297.821 7.80744 298.028 7.75338V6.3H297.461L295.559 3.53969H293.53L291.628 6.3H290.973V7.75269C291.179 7.80675 291.362 7.92741 291.492 8.09582C291.623 8.26423 291.693 8.4709 291.693 8.68356C291.693 8.89622 291.623 9.1029 291.492 9.2713C291.362 9.43971 291.179 9.56037 290.973 9.61444V11.074C291.179 11.1281 291.362 11.2487 291.492 11.4171C291.623 11.5855 291.693 11.7922 291.693 12.0049C291.693 12.2175 291.623 12.4242 291.492 12.5926C291.362 12.761 291.179 12.8817 290.973 12.9357V14.3953C291.179 14.4494 291.362 14.57 291.492 14.7384C291.623 14.9069 291.693 15.1135 291.693 15.3262C291.693 15.5388 291.623 15.7455 291.492 15.9139C291.362 16.0823 291.179 16.203 290.973 16.2571V17.7159C291.179 17.77 291.362 17.8907 291.492 18.0591C291.623 18.2275 291.693 18.4341 291.693 18.6468C291.693 18.8595 291.623 19.0661 291.492 19.2346C291.362 19.403 291.179 19.5236 290.973 19.5777V21.0311Z" fill="#404040"/>
<path d="M293.714 0.193359H295.439C295.585 0.193359 295.725 0.251306 295.829 0.354451C295.932 0.457596 295.991 0.59749 295.991 0.743359V1.64811H293.162V0.743359C293.162 0.59749 293.22 0.457596 293.324 0.354451C293.427 0.251306 293.568 0.193359 293.714 0.193359Z" fill="#404040"/>
<path d="M296.178 1.8425H292.968V0.7425C292.968 0.545696 293.046 0.356942 293.186 0.217716C293.325 0.0784901 293.515 0.000182226 293.712 0L295.437 0C295.634 0.000182032 295.823 0.0783955 295.963 0.217473C296.103 0.35655 296.181 0.545127 296.181 0.741812L296.178 1.8425ZM293.357 1.45475H295.789V0.741812C295.789 0.647909 295.752 0.557852 295.685 0.491452C295.619 0.425053 295.528 0.38775 295.434 0.38775H293.709C293.615 0.38775 293.525 0.425053 293.458 0.491452C293.392 0.557852 293.354 0.647909 293.354 0.741812L293.357 1.45475Z" fill="#404040"/>
</g>
<g clip-path="url(#clip11_3086_23782)">
<path d="M327.173 22.0004H319.828C319.712 21.9938 319.598 21.9642 319.493 21.9134C319.389 21.8626 319.295 21.7916 319.218 21.7045C319.141 21.6175 319.082 21.516 319.045 21.406C319.007 21.2961 318.992 21.1799 319 21.0641V19.5516C318.991 19.3555 319.044 19.1616 319.154 18.9984C319.263 18.8352 319.423 18.7115 319.608 18.6454C319.423 18.5795 319.264 18.4562 319.155 18.2936C319.045 18.131 318.991 17.9376 319 17.7421V16.2296C318.991 16.0335 319.045 15.8396 319.154 15.6765C319.263 15.5133 319.423 15.3896 319.608 15.3234C319.423 15.2575 319.264 15.1342 319.155 14.9716C319.045 14.809 318.991 14.6156 319 14.4201V12.9076C318.991 12.7116 319.045 12.5178 319.154 12.3548C319.264 12.1918 319.423 12.0681 319.608 12.0021C319.423 11.9362 319.264 11.8129 319.155 11.6505C319.046 11.488 318.991 11.2949 319 11.0994V9.58694C318.991 9.39101 319.045 9.19722 319.154 9.03418C319.264 8.87114 319.423 8.74749 319.608 8.6815C319.423 8.61552 319.264 8.49217 319.155 8.32956C319.045 8.16696 318.991 7.97369 319 7.77813V6.26562C318.992 6.14969 319.007 6.03327 319.044 5.92312C319.081 5.81298 319.14 5.71132 319.217 5.62405C319.294 5.53679 319.388 5.46566 319.493 5.41482C319.598 5.36397 319.712 5.33441 319.828 5.32787H320.116L322.018 2.57031H325.071L326.973 5.33062H327.173C327.29 5.33726 327.403 5.36687 327.508 5.41775C327.613 5.46862 327.707 5.53975 327.784 5.627C327.861 5.71424 327.92 5.81587 327.957 5.92597C327.994 6.03607 328.009 6.15246 328.001 6.26837V7.78087C328.011 7.97691 327.957 8.17086 327.847 8.33404C327.738 8.49722 327.579 8.62097 327.393 8.687C327.579 8.75308 327.738 8.87675 327.847 9.03977C327.956 9.20279 328.01 9.39653 328.001 9.59244V11.1049C328.011 11.301 327.957 11.4949 327.847 11.658C327.738 11.8212 327.579 11.9449 327.393 12.0111C327.579 12.0771 327.738 12.2008 327.847 12.3638C327.956 12.5269 328.01 12.7206 328.001 12.9165V14.429C328.011 14.6249 327.957 14.8187 327.847 14.9818C327.738 15.1448 327.579 15.2684 327.393 15.3344C327.579 15.4006 327.738 15.5243 327.847 15.6875C327.957 15.8506 328.011 16.0445 328.001 16.2406V17.7531C328.011 17.949 327.957 18.1428 327.847 18.3058C327.738 18.4689 327.579 18.5925 327.393 18.6585C327.579 18.7246 327.738 18.8484 327.847 19.0115C327.957 19.1747 328.011 19.3686 328.001 19.5646V21.0771C328.014 21.3089 327.934 21.5363 327.779 21.7094C327.623 21.8825 327.406 21.9871 327.173 22.0004ZM319.973 21.0311H327.028V19.5784C326.821 19.5243 326.639 19.4036 326.508 19.2352C326.378 19.0668 326.307 18.8602 326.307 18.6475C326.307 18.4348 326.378 18.2282 326.508 18.0598C326.639 17.8913 326.821 17.7707 327.028 17.7166V16.2571C326.821 16.203 326.639 16.0823 326.508 15.9139C326.378 15.7455 326.307 15.5388 326.307 15.3262C326.307 15.1135 326.378 14.9069 326.508 14.7384C326.639 14.57 326.821 14.4494 327.028 14.3953V12.9357C326.821 12.8817 326.639 12.761 326.508 12.5926C326.378 12.4242 326.307 12.2175 326.307 12.0049C326.307 11.7922 326.378 11.5855 326.508 11.4171C326.639 11.2487 326.821 11.1281 327.028 11.074V9.61513C326.821 9.56106 326.639 9.4404 326.508 9.27199C326.378 9.10358 326.307 8.89691 326.307 8.68425C326.307 8.47159 326.378 8.26491 326.508 8.09651C326.639 7.9281 326.821 7.80744 327.028 7.75338V6.3H326.461L324.559 3.53969H322.53L320.628 6.3H319.973V7.75269C320.179 7.80675 320.362 7.92741 320.492 8.09582C320.623 8.26423 320.693 8.4709 320.693 8.68356C320.693 8.89622 320.623 9.1029 320.492 9.2713C320.362 9.43971 320.179 9.56037 319.973 9.61444V11.074C320.179 11.1281 320.362 11.2487 320.492 11.4171C320.623 11.5855 320.693 11.7922 320.693 12.0049C320.693 12.2175 320.623 12.4242 320.492 12.5926C320.362 12.761 320.179 12.8817 319.973 12.9357V14.3953C320.179 14.4494 320.362 14.57 320.492 14.7384C320.623 14.9069 320.693 15.1135 320.693 15.3262C320.693 15.5388 320.623 15.7455 320.492 15.9139C320.362 16.0823 320.179 16.203 319.973 16.2571V17.7159C320.179 17.77 320.362 17.8907 320.492 18.0591C320.623 18.2275 320.693 18.4341 320.693 18.6468C320.693 18.8595 320.623 19.0661 320.492 19.2346C320.362 19.403 320.179 19.5236 319.973 19.5777V21.0311Z" fill="#404040"/>
<path d="M322.714 0.193359H324.439C324.585 0.193359 324.725 0.251306 324.829 0.354451C324.932 0.457596 324.991 0.59749 324.991 0.743359V1.64811H322.162V0.743359C322.162 0.59749 322.22 0.457596 322.324 0.354451C322.427 0.251306 322.568 0.193359 322.714 0.193359Z" fill="#404040"/>
<path d="M325.178 1.8425H321.968V0.7425C321.968 0.545696 322.046 0.356942 322.186 0.217716C322.325 0.0784901 322.515 0.000182226 322.712 0L324.437 0C324.634 0.000182032 324.823 0.0783955 324.963 0.217473C325.103 0.35655 325.181 0.545127 325.181 0.741812L325.178 1.8425ZM322.357 1.45475H324.789V0.741812C324.789 0.647909 324.752 0.557852 324.685 0.491452C324.619 0.425053 324.528 0.38775 324.434 0.38775H322.709C322.615 0.38775 322.525 0.425053 322.458 0.491452C322.392 0.557852 322.354 0.647909 322.354 0.741812L322.357 1.45475Z" fill="#404040"/>
</g>
<g clip-path="url(#clip12_3086_23782)">
<path d="M356.173 22.0004H348.828C348.712 21.9938 348.598 21.9642 348.493 21.9134C348.389 21.8626 348.295 21.7916 348.218 21.7045C348.141 21.6175 348.082 21.516 348.045 21.406C348.007 21.2961 347.992 21.1799 348 21.0641V19.5516C347.991 19.3555 348.044 19.1616 348.154 18.9984C348.263 18.8352 348.423 18.7115 348.608 18.6454C348.423 18.5795 348.264 18.4562 348.155 18.2936C348.045 18.131 347.991 17.9376 348 17.7421V16.2296C347.991 16.0335 348.045 15.8396 348.154 15.6765C348.263 15.5133 348.423 15.3896 348.608 15.3234C348.423 15.2575 348.264 15.1342 348.155 14.9716C348.045 14.809 347.991 14.6156 348 14.4201V12.9076C347.991 12.7116 348.045 12.5178 348.154 12.3548C348.264 12.1918 348.423 12.0681 348.608 12.0021C348.423 11.9362 348.264 11.8129 348.155 11.6505C348.046 11.488 347.991 11.2949 348 11.0994V9.58694C347.991 9.39101 348.045 9.19722 348.154 9.03418C348.264 8.87114 348.423 8.74749 348.608 8.6815C348.423 8.61552 348.264 8.49217 348.155 8.32956C348.045 8.16696 347.991 7.97369 348 7.77813V6.26562C347.992 6.14969 348.007 6.03327 348.044 5.92312C348.081 5.81298 348.14 5.71132 348.217 5.62405C348.294 5.53679 348.388 5.46566 348.493 5.41482C348.598 5.36397 348.712 5.33441 348.828 5.32787H349.116L351.018 2.57031H354.071L355.973 5.33062H356.173C356.29 5.33726 356.403 5.36687 356.508 5.41775C356.613 5.46862 356.707 5.53975 356.784 5.627C356.861 5.71424 356.92 5.81587 356.957 5.92597C356.994 6.03607 357.009 6.15246 357.001 6.26837V7.78087C357.011 7.97691 356.957 8.17086 356.847 8.33404C356.738 8.49722 356.579 8.62097 356.393 8.687C356.579 8.75308 356.738 8.87675 356.847 9.03977C356.956 9.20279 357.01 9.39653 357.001 9.59244V11.1049C357.011 11.301 356.957 11.4949 356.847 11.658C356.738 11.8212 356.579 11.9449 356.393 12.0111C356.579 12.0771 356.738 12.2008 356.847 12.3638C356.956 12.5269 357.01 12.7206 357.001 12.9165V14.429C357.011 14.6249 356.957 14.8187 356.847 14.9818C356.738 15.1448 356.579 15.2684 356.393 15.3344C356.579 15.4006 356.738 15.5243 356.847 15.6875C356.957 15.8506 357.011 16.0445 357.001 16.2406V17.7531C357.011 17.949 356.957 18.1428 356.847 18.3058C356.738 18.4689 356.579 18.5925 356.393 18.6585C356.579 18.7246 356.738 18.8484 356.847 19.0115C356.957 19.1747 357.011 19.3686 357.001 19.5646V21.0771C357.014 21.3089 356.934 21.5363 356.779 21.7094C356.623 21.8825 356.406 21.9871 356.173 22.0004ZM348.973 21.0311H356.028V19.5784C355.821 19.5243 355.639 19.4036 355.508 19.2352C355.378 19.0668 355.307 18.8602 355.307 18.6475C355.307 18.4348 355.378 18.2282 355.508 18.0598C355.639 17.8913 355.821 17.7707 356.028 17.7166V16.2571C355.821 16.203 355.639 16.0823 355.508 15.9139C355.378 15.7455 355.307 15.5388 355.307 15.3262C355.307 15.1135 355.378 14.9069 355.508 14.7384C355.639 14.57 355.821 14.4494 356.028 14.3953V12.9357C355.821 12.8817 355.639 12.761 355.508 12.5926C355.378 12.4242 355.307 12.2175 355.307 12.0049C355.307 11.7922 355.378 11.5855 355.508 11.4171C355.639 11.2487 355.821 11.1281 356.028 11.074V9.61513C355.821 9.56106 355.639 9.4404 355.508 9.27199C355.378 9.10358 355.307 8.89691 355.307 8.68425C355.307 8.47159 355.378 8.26491 355.508 8.09651C355.639 7.9281 355.821 7.80744 356.028 7.75338V6.3H355.461L353.559 3.53969H351.53L349.628 6.3H348.973V7.75269C349.179 7.80675 349.362 7.92741 349.492 8.09582C349.623 8.26423 349.693 8.4709 349.693 8.68356C349.693 8.89622 349.623 9.1029 349.492 9.2713C349.362 9.43971 349.179 9.56037 348.973 9.61444V11.074C349.179 11.1281 349.362 11.2487 349.492 11.4171C349.623 11.5855 349.693 11.7922 349.693 12.0049C349.693 12.2175 349.623 12.4242 349.492 12.5926C349.362 12.761 349.179 12.8817 348.973 12.9357V14.3953C349.179 14.4494 349.362 14.57 349.492 14.7384C349.623 14.9069 349.693 15.1135 349.693 15.3262C349.693 15.5388 349.623 15.7455 349.492 15.9139C349.362 16.0823 349.179 16.203 348.973 16.2571V17.7159C349.179 17.77 349.362 17.8907 349.492 18.0591C349.623 18.2275 349.693 18.4341 349.693 18.6468C349.693 18.8595 349.623 19.0661 349.492 19.2346C349.362 19.403 349.179 19.5236 348.973 19.5777V21.0311Z" fill="#404040"/>
<path d="M351.714 0.193359H353.439C353.585 0.193359 353.725 0.251306 353.829 0.354451C353.932 0.457596 353.991 0.59749 353.991 0.743359V1.64811H351.162V0.743359C351.162 0.59749 351.22 0.457596 351.324 0.354451C351.427 0.251306 351.568 0.193359 351.714 0.193359Z" fill="#404040"/>
<path d="M354.178 1.8425H350.968V0.7425C350.968 0.545696 351.046 0.356942 351.186 0.217716C351.325 0.0784901 351.515 0.000182226 351.712 0L353.437 0C353.634 0.000182032 353.823 0.0783955 353.963 0.217473C354.103 0.35655 354.181 0.545127 354.181 0.741812L354.178 1.8425ZM351.357 1.45475H353.789V0.741812C353.789 0.647909 353.752 0.557852 353.685 0.491452C353.619 0.425053 353.528 0.38775 353.434 0.38775H351.709C351.615 0.38775 351.525 0.425053 351.458 0.491452C351.392 0.557852 351.354 0.647909 351.354 0.741812L351.357 1.45475Z" fill="#404040"/>
</g>
<g clip-path="url(#clip13_3086_23782)">
<path d="M385.173 22.0004H377.828C377.712 21.9938 377.598 21.9642 377.493 21.9134C377.389 21.8626 377.295 21.7916 377.218 21.7045C377.141 21.6175 377.082 21.516 377.045 21.406C377.007 21.2961 376.992 21.1799 377 21.0641V19.5516C376.991 19.3555 377.044 19.1616 377.154 18.9984C377.263 18.8352 377.423 18.7115 377.608 18.6454C377.423 18.5795 377.264 18.4562 377.155 18.2936C377.045 18.131 376.991 17.9376 377 17.7421V16.2296C376.991 16.0335 377.045 15.8396 377.154 15.6765C377.263 15.5133 377.423 15.3896 377.608 15.3234C377.423 15.2575 377.264 15.1342 377.155 14.9716C377.045 14.809 376.991 14.6156 377 14.4201V12.9076C376.991 12.7116 377.045 12.5178 377.154 12.3548C377.264 12.1918 377.423 12.0681 377.608 12.0021C377.423 11.9362 377.264 11.8129 377.155 11.6505C377.046 11.488 376.991 11.2949 377 11.0994V9.58694C376.991 9.39101 377.045 9.19722 377.154 9.03418C377.264 8.87114 377.423 8.74749 377.608 8.6815C377.423 8.61552 377.264 8.49217 377.155 8.32956C377.045 8.16696 376.991 7.97369 377 7.77813V6.26562C376.992 6.14969 377.007 6.03327 377.044 5.92312C377.081 5.81298 377.14 5.71132 377.217 5.62405C377.294 5.53679 377.388 5.46566 377.493 5.41482C377.598 5.36397 377.712 5.33441 377.828 5.32787H378.116L380.018 2.57031H383.071L384.973 5.33062H385.173C385.29 5.33726 385.403 5.36687 385.508 5.41775C385.613 5.46862 385.707 5.53975 385.784 5.627C385.861 5.71424 385.92 5.81587 385.957 5.92597C385.994 6.03607 386.009 6.15246 386.001 6.26837V7.78087C386.011 7.97691 385.957 8.17086 385.847 8.33404C385.738 8.49722 385.579 8.62097 385.393 8.687C385.579 8.75308 385.738 8.87675 385.847 9.03977C385.956 9.20279 386.01 9.39653 386.001 9.59244V11.1049C386.011 11.301 385.957 11.4949 385.847 11.658C385.738 11.8212 385.579 11.9449 385.393 12.0111C385.579 12.0771 385.738 12.2008 385.847 12.3638C385.956 12.5269 386.01 12.7206 386.001 12.9165V14.429C386.011 14.6249 385.957 14.8187 385.847 14.9818C385.738 15.1448 385.579 15.2684 385.393 15.3344C385.579 15.4006 385.738 15.5243 385.847 15.6875C385.957 15.8506 386.011 16.0445 386.001 16.2406V17.7531C386.011 17.949 385.957 18.1428 385.847 18.3058C385.738 18.4689 385.579 18.5925 385.393 18.6585C385.579 18.7246 385.738 18.8484 385.847 19.0115C385.957 19.1747 386.011 19.3686 386.001 19.5646V21.0771C386.014 21.3089 385.934 21.5363 385.779 21.7094C385.623 21.8825 385.406 21.9871 385.173 22.0004ZM377.973 21.0311H385.028V19.5784C384.821 19.5243 384.639 19.4036 384.508 19.2352C384.378 19.0668 384.307 18.8602 384.307 18.6475C384.307 18.4348 384.378 18.2282 384.508 18.0598C384.639 17.8913 384.821 17.7707 385.028 17.7166V16.2571C384.821 16.203 384.639 16.0823 384.508 15.9139C384.378 15.7455 384.307 15.5388 384.307 15.3262C384.307 15.1135 384.378 14.9069 384.508 14.7384C384.639 14.57 384.821 14.4494 385.028 14.3953V12.9357C384.821 12.8817 384.639 12.761 384.508 12.5926C384.378 12.4242 384.307 12.2175 384.307 12.0049C384.307 11.7922 384.378 11.5855 384.508 11.4171C384.639 11.2487 384.821 11.1281 385.028 11.074V9.61513C384.821 9.56106 384.639 9.4404 384.508 9.27199C384.378 9.10358 384.307 8.89691 384.307 8.68425C384.307 8.47159 384.378 8.26491 384.508 8.09651C384.639 7.9281 384.821 7.80744 385.028 7.75338V6.3H384.461L382.559 3.53969H380.53L378.628 6.3H377.973V7.75269C378.179 7.80675 378.362 7.92741 378.492 8.09582C378.623 8.26423 378.693 8.4709 378.693 8.68356C378.693 8.89622 378.623 9.1029 378.492 9.2713C378.362 9.43971 378.179 9.56037 377.973 9.61444V11.074C378.179 11.1281 378.362 11.2487 378.492 11.4171C378.623 11.5855 378.693 11.7922 378.693 12.0049C378.693 12.2175 378.623 12.4242 378.492 12.5926C378.362 12.761 378.179 12.8817 377.973 12.9357V14.3953C378.179 14.4494 378.362 14.57 378.492 14.7384C378.623 14.9069 378.693 15.1135 378.693 15.3262C378.693 15.5388 378.623 15.7455 378.492 15.9139C378.362 16.0823 378.179 16.203 377.973 16.2571V17.7159C378.179 17.77 378.362 17.8907 378.492 18.0591C378.623 18.2275 378.693 18.4341 378.693 18.6468C378.693 18.8595 378.623 19.0661 378.492 19.2346C378.362 19.403 378.179 19.5236 377.973 19.5777V21.0311Z" fill="#404040"/>
<path d="M380.714 0.193359H382.439C382.585 0.193359 382.725 0.251306 382.829 0.354451C382.932 0.457596 382.991 0.59749 382.991 0.743359V1.64811H380.162V0.743359C380.162 0.59749 380.22 0.457596 380.324 0.354451C380.427 0.251306 380.568 0.193359 380.714 0.193359Z" fill="#404040"/>
<path d="M383.178 1.8425H379.968V0.7425C379.968 0.545696 380.046 0.356942 380.186 0.217716C380.325 0.0784901 380.515 0.000182226 380.712 0L382.437 0C382.634 0.000182032 382.823 0.0783955 382.963 0.217473C383.103 0.35655 383.181 0.545127 383.181 0.741812L383.178 1.8425ZM380.357 1.45475H382.789V0.741812C382.789 0.647909 382.752 0.557852 382.685 0.491452C382.619 0.425053 382.528 0.38775 382.434 0.38775H380.709C380.615 0.38775 380.525 0.425053 380.458 0.491452C380.392 0.557852 380.354 0.647909 380.354 0.741812L380.357 1.45475Z" fill="#404040"/>
</g>
<g clip-path="url(#clip14_3086_23782)">
<path d="M443.173 22.0004H435.828C435.712 21.9938 435.598 21.9642 435.493 21.9134C435.389 21.8626 435.295 21.7916 435.218 21.7045C435.141 21.6175 435.082 21.516 435.045 21.406C435.007 21.2961 434.992 21.1799 435 21.0641V19.5516C434.991 19.3555 435.044 19.1616 435.154 18.9984C435.263 18.8352 435.423 18.7115 435.608 18.6454C435.423 18.5795 435.264 18.4562 435.155 18.2936C435.045 18.131 434.991 17.9376 435 17.7421V16.2296C434.991 16.0335 435.045 15.8396 435.154 15.6765C435.263 15.5133 435.423 15.3896 435.608 15.3234C435.423 15.2575 435.264 15.1342 435.155 14.9716C435.045 14.809 434.991 14.6156 435 14.4201V12.9076C434.991 12.7116 435.045 12.5178 435.154 12.3548C435.264 12.1918 435.423 12.0681 435.608 12.0021C435.423 11.9362 435.264 11.8129 435.155 11.6505C435.046 11.488 434.991 11.2949 435 11.0994V9.58694C434.991 9.39101 435.045 9.19722 435.154 9.03418C435.264 8.87114 435.423 8.74749 435.608 8.6815C435.423 8.61552 435.264 8.49217 435.155 8.32956C435.045 8.16696 434.991 7.97369 435 7.77813V6.26562C434.992 6.14969 435.007 6.03327 435.044 5.92312C435.081 5.81298 435.14 5.71132 435.217 5.62405C435.294 5.53679 435.388 5.46566 435.493 5.41482C435.598 5.36397 435.712 5.33441 435.828 5.32787H436.116L438.018 2.57031H441.071L442.973 5.33062H443.173C443.29 5.33726 443.403 5.36687 443.508 5.41775C443.613 5.46862 443.707 5.53975 443.784 5.627C443.861 5.71424 443.92 5.81587 443.957 5.92597C443.994 6.03607 444.009 6.15246 444.001 6.26837V7.78087C444.011 7.97691 443.957 8.17086 443.847 8.33404C443.738 8.49722 443.579 8.62097 443.393 8.687C443.579 8.75308 443.738 8.87675 443.847 9.03977C443.956 9.20279 444.01 9.39653 444.001 9.59244V11.1049C444.011 11.301 443.957 11.4949 443.847 11.658C443.738 11.8212 443.579 11.9449 443.393 12.0111C443.579 12.0771 443.738 12.2008 443.847 12.3638C443.956 12.5269 444.01 12.7206 444.001 12.9165V14.429C444.011 14.6249 443.957 14.8187 443.847 14.9818C443.738 15.1448 443.579 15.2684 443.393 15.3344C443.579 15.4006 443.738 15.5243 443.847 15.6875C443.957 15.8506 444.011 16.0445 444.001 16.2406V17.7531C444.011 17.949 443.957 18.1428 443.847 18.3058C443.738 18.4689 443.579 18.5925 443.393 18.6585C443.579 18.7246 443.738 18.8484 443.847 19.0115C443.957 19.1747 444.011 19.3686 444.001 19.5646V21.0771C444.014 21.3089 443.934 21.5363 443.779 21.7094C443.623 21.8825 443.406 21.9871 443.173 22.0004ZM435.973 21.0311H443.028V19.5784C442.821 19.5243 442.639 19.4036 442.508 19.2352C442.378 19.0668 442.307 18.8602 442.307 18.6475C442.307 18.4348 442.378 18.2282 442.508 18.0598C442.639 17.8913 442.821 17.7707 443.028 17.7166V16.2571C442.821 16.203 442.639 16.0823 442.508 15.9139C442.378 15.7455 442.307 15.5388 442.307 15.3262C442.307 15.1135 442.378 14.9069 442.508 14.7384C442.639 14.57 442.821 14.4494 443.028 14.3953V12.9357C442.821 12.8817 442.639 12.761 442.508 12.5926C442.378 12.4242 442.307 12.2175 442.307 12.0049C442.307 11.7922 442.378 11.5855 442.508 11.4171C442.639 11.2487 442.821 11.1281 443.028 11.074V9.61513C442.821 9.56106 442.639 9.4404 442.508 9.27199C442.378 9.10358 442.307 8.89691 442.307 8.68425C442.307 8.47159 442.378 8.26491 442.508 8.09651C442.639 7.9281 442.821 7.80744 443.028 7.75338V6.3H442.461L440.559 3.53969H438.53L436.628 6.3H435.973V7.75269C436.179 7.80675 436.362 7.92741 436.492 8.09582C436.623 8.26423 436.693 8.4709 436.693 8.68356C436.693 8.89622 436.623 9.1029 436.492 9.2713C436.362 9.43971 436.179 9.56037 435.973 9.61444V11.074C436.179 11.1281 436.362 11.2487 436.492 11.4171C436.623 11.5855 436.693 11.7922 436.693 12.0049C436.693 12.2175 436.623 12.4242 436.492 12.5926C436.362 12.761 436.179 12.8817 435.973 12.9357V14.3953C436.179 14.4494 436.362 14.57 436.492 14.7384C436.623 14.9069 436.693 15.1135 436.693 15.3262C436.693 15.5388 436.623 15.7455 436.492 15.9139C436.362 16.0823 436.179 16.203 435.973 16.2571V17.7159C436.179 17.77 436.362 17.8907 436.492 18.0591C436.623 18.2275 436.693 18.4341 436.693 18.6468C436.693 18.8595 436.623 19.0661 436.492 19.2346C436.362 19.403 436.179 19.5236 435.973 19.5777V21.0311Z" fill="#404040"/>
<path d="M438.714 0.193359H440.439C440.585 0.193359 440.725 0.251306 440.829 0.354451C440.932 0.457596 440.991 0.59749 440.991 0.743359V1.64811H438.162V0.743359C438.162 0.59749 438.22 0.457596 438.324 0.354451C438.427 0.251306 438.568 0.193359 438.714 0.193359Z" fill="#404040"/>
<path d="M441.178 1.8425H437.968V0.7425C437.968 0.545696 438.046 0.356942 438.186 0.217716C438.325 0.0784901 438.515 0.000182226 438.712 0L440.437 0C440.634 0.000182032 440.823 0.0783955 440.963 0.217473C441.103 0.35655 441.181 0.545127 441.181 0.741812L441.178 1.8425ZM438.357 1.45475H440.789V0.741812C440.789 0.647909 440.752 0.557852 440.685 0.491452C440.619 0.425053 440.528 0.38775 440.434 0.38775H438.709C438.615 0.38775 438.525 0.425053 438.458 0.491452C438.392 0.557852 438.354 0.647909 438.354 0.741812L438.357 1.45475Z" fill="#404040"/>
</g>
<g clip-path="url(#clip15_3086_23782)">
<path d="M414.173 22.0004H406.828C406.712 21.9938 406.598 21.9642 406.493 21.9134C406.389 21.8626 406.295 21.7916 406.218 21.7045C406.141 21.6175 406.082 21.516 406.045 21.406C406.007 21.2961 405.992 21.1799 406 21.0641V19.5516C405.991 19.3555 406.044 19.1616 406.154 18.9984C406.263 18.8352 406.423 18.7115 406.608 18.6454C406.423 18.5795 406.264 18.4562 406.155 18.2936C406.045 18.131 405.991 17.9376 406 17.7421V16.2296C405.991 16.0335 406.045 15.8396 406.154 15.6765C406.263 15.5133 406.423 15.3896 406.608 15.3234C406.423 15.2575 406.264 15.1342 406.155 14.9716C406.045 14.809 405.991 14.6156 406 14.4201V12.9076C405.991 12.7116 406.045 12.5178 406.154 12.3548C406.264 12.1918 406.423 12.0681 406.608 12.0021C406.423 11.9362 406.264 11.8129 406.155 11.6505C406.046 11.488 405.991 11.2949 406 11.0994V9.58694C405.991 9.39101 406.045 9.19722 406.154 9.03418C406.264 8.87114 406.423 8.74749 406.608 8.6815C406.423 8.61552 406.264 8.49217 406.155 8.32956C406.045 8.16696 405.991 7.97369 406 7.77813V6.26562C405.992 6.14969 406.007 6.03327 406.044 5.92312C406.081 5.81298 406.14 5.71132 406.217 5.62405C406.294 5.53679 406.388 5.46566 406.493 5.41482C406.598 5.36397 406.712 5.33441 406.828 5.32787H407.116L409.018 2.57031H412.071L413.973 5.33062H414.173C414.29 5.33726 414.403 5.36687 414.508 5.41775C414.613 5.46862 414.707 5.53975 414.784 5.627C414.861 5.71424 414.92 5.81587 414.957 5.92597C414.994 6.03607 415.009 6.15246 415.001 6.26837V7.78087C415.011 7.97691 414.957 8.17086 414.847 8.33404C414.738 8.49722 414.579 8.62097 414.393 8.687C414.579 8.75308 414.738 8.87675 414.847 9.03977C414.956 9.20279 415.01 9.39653 415.001 9.59244V11.1049C415.011 11.301 414.957 11.4949 414.847 11.658C414.738 11.8212 414.579 11.9449 414.393 12.0111C414.579 12.0771 414.738 12.2008 414.847 12.3638C414.956 12.5269 415.01 12.7206 415.001 12.9165V14.429C415.011 14.6249 414.957 14.8187 414.847 14.9818C414.738 15.1448 414.579 15.2684 414.393 15.3344C414.579 15.4006 414.738 15.5243 414.847 15.6875C414.957 15.8506 415.011 16.0445 415.001 16.2406V17.7531C415.011 17.949 414.957 18.1428 414.847 18.3058C414.738 18.4689 414.579 18.5925 414.393 18.6585C414.579 18.7246 414.738 18.8484 414.847 19.0115C414.957 19.1747 415.011 19.3686 415.001 19.5646V21.0771C415.014 21.3089 414.934 21.5363 414.779 21.7094C414.623 21.8825 414.406 21.9871 414.173 22.0004ZM406.973 21.0311H414.028V19.5784C413.821 19.5243 413.639 19.4036 413.508 19.2352C413.378 19.0668 413.307 18.8602 413.307 18.6475C413.307 18.4348 413.378 18.2282 413.508 18.0598C413.639 17.8913 413.821 17.7707 414.028 17.7166V16.2571C413.821 16.203 413.639 16.0823 413.508 15.9139C413.378 15.7455 413.307 15.5388 413.307 15.3262C413.307 15.1135 413.378 14.9069 413.508 14.7384C413.639 14.57 413.821 14.4494 414.028 14.3953V12.9357C413.821 12.8817 413.639 12.761 413.508 12.5926C413.378 12.4242 413.307 12.2175 413.307 12.0049C413.307 11.7922 413.378 11.5855 413.508 11.4171C413.639 11.2487 413.821 11.1281 414.028 11.074V9.61513C413.821 9.56106 413.639 9.4404 413.508 9.27199C413.378 9.10358 413.307 8.89691 413.307 8.68425C413.307 8.47159 413.378 8.26491 413.508 8.09651C413.639 7.9281 413.821 7.80744 414.028 7.75338V6.3H413.461L411.559 3.53969H409.53L407.628 6.3H406.973V7.75269C407.179 7.80675 407.362 7.92741 407.492 8.09582C407.623 8.26423 407.693 8.4709 407.693 8.68356C407.693 8.89622 407.623 9.1029 407.492 9.2713C407.362 9.43971 407.179 9.56037 406.973 9.61444V11.074C407.179 11.1281 407.362 11.2487 407.492 11.4171C407.623 11.5855 407.693 11.7922 407.693 12.0049C407.693 12.2175 407.623 12.4242 407.492 12.5926C407.362 12.761 407.179 12.8817 406.973 12.9357V14.3953C407.179 14.4494 407.362 14.57 407.492 14.7384C407.623 14.9069 407.693 15.1135 407.693 15.3262C407.693 15.5388 407.623 15.7455 407.492 15.9139C407.362 16.0823 407.179 16.203 406.973 16.2571V17.7159C407.179 17.77 407.362 17.8907 407.492 18.0591C407.623 18.2275 407.693 18.4341 407.693 18.6468C407.693 18.8595 407.623 19.0661 407.492 19.2346C407.362 19.403 407.179 19.5236 406.973 19.5777V21.0311Z" fill="#404040"/>
<path d="M409.714 0.193359H411.439C411.585 0.193359 411.725 0.251306 411.829 0.354451C411.932 0.457596 411.991 0.59749 411.991 0.743359V1.64811H409.162V0.743359C409.162 0.59749 409.22 0.457596 409.324 0.354451C409.427 0.251306 409.568 0.193359 409.714 0.193359Z" fill="#404040"/>
<path d="M412.178 1.8425H408.968V0.7425C408.968 0.545696 409.046 0.356942 409.186 0.217716C409.325 0.0784901 409.515 0.000182226 409.712 0L411.437 0C411.634 0.000182032 411.823 0.0783955 411.963 0.217473C412.103 0.35655 412.181 0.545127 412.181 0.741812L412.178 1.8425ZM409.357 1.45475H411.789V0.741812C411.789 0.647909 411.752 0.557852 411.685 0.491452C411.619 0.425053 411.528 0.38775 411.434 0.38775H409.709C409.615 0.38775 409.525 0.425053 409.458 0.491452C409.392 0.557852 409.354 0.647909 409.354 0.741812L409.357 1.45475Z" fill="#404040"/>
</g>
<g clip-path="url(#clip16_3086_23782)">
<path d="M472.173 22.0004H464.828C464.712 21.9938 464.598 21.9642 464.493 21.9134C464.389 21.8626 464.295 21.7916 464.218 21.7045C464.141 21.6175 464.082 21.516 464.045 21.406C464.007 21.2961 463.992 21.1799 464 21.0641V19.5516C463.991 19.3555 464.044 19.1616 464.154 18.9984C464.263 18.8352 464.423 18.7115 464.608 18.6454C464.423 18.5795 464.264 18.4562 464.155 18.2936C464.045 18.131 463.991 17.9376 464 17.7421V16.2296C463.991 16.0335 464.045 15.8396 464.154 15.6765C464.263 15.5133 464.423 15.3896 464.608 15.3234C464.423 15.2575 464.264 15.1342 464.155 14.9716C464.045 14.809 463.991 14.6156 464 14.4201V12.9076C463.991 12.7116 464.045 12.5178 464.154 12.3548C464.264 12.1918 464.423 12.0681 464.608 12.0021C464.423 11.9362 464.264 11.8129 464.155 11.6505C464.046 11.488 463.991 11.2949 464 11.0994V9.58694C463.991 9.39101 464.045 9.19722 464.154 9.03418C464.264 8.87114 464.423 8.74749 464.608 8.6815C464.423 8.61552 464.264 8.49217 464.155 8.32956C464.045 8.16696 463.991 7.97369 464 7.77813V6.26562C463.992 6.14969 464.007 6.03327 464.044 5.92312C464.081 5.81298 464.14 5.71132 464.217 5.62405C464.294 5.53679 464.388 5.46566 464.493 5.41482C464.598 5.36397 464.712 5.33441 464.828 5.32787H465.116L467.018 2.57031H470.071L471.973 5.33062H472.173C472.29 5.33726 472.403 5.36687 472.508 5.41775C472.613 5.46862 472.707 5.53975 472.784 5.627C472.861 5.71424 472.92 5.81587 472.957 5.92597C472.994 6.03607 473.009 6.15246 473.001 6.26837V7.78087C473.011 7.97691 472.957 8.17086 472.847 8.33404C472.738 8.49722 472.579 8.62097 472.393 8.687C472.579 8.75308 472.738 8.87675 472.847 9.03977C472.956 9.20279 473.01 9.39653 473.001 9.59244V11.1049C473.011 11.301 472.957 11.4949 472.847 11.658C472.738 11.8212 472.579 11.9449 472.393 12.0111C472.579 12.0771 472.738 12.2008 472.847 12.3638C472.956 12.5269 473.01 12.7206 473.001 12.9165V14.429C473.011 14.6249 472.957 14.8187 472.847 14.9818C472.738 15.1448 472.579 15.2684 472.393 15.3344C472.579 15.4006 472.738 15.5243 472.847 15.6875C472.957 15.8506 473.011 16.0445 473.001 16.2406V17.7531C473.011 17.949 472.957 18.1428 472.847 18.3058C472.738 18.4689 472.579 18.5925 472.393 18.6585C472.579 18.7246 472.738 18.8484 472.847 19.0115C472.957 19.1747 473.011 19.3686 473.001 19.5646V21.0771C473.014 21.3089 472.934 21.5363 472.779 21.7094C472.623 21.8825 472.406 21.9871 472.173 22.0004ZM464.973 21.0311H472.028V19.5784C471.821 19.5243 471.639 19.4036 471.508 19.2352C471.378 19.0668 471.307 18.8602 471.307 18.6475C471.307 18.4348 471.378 18.2282 471.508 18.0598C471.639 17.8913 471.821 17.7707 472.028 17.7166V16.2571C471.821 16.203 471.639 16.0823 471.508 15.9139C471.378 15.7455 471.307 15.5388 471.307 15.3262C471.307 15.1135 471.378 14.9069 471.508 14.7384C471.639 14.57 471.821 14.4494 472.028 14.3953V12.9357C471.821 12.8817 471.639 12.761 471.508 12.5926C471.378 12.4242 471.307 12.2175 471.307 12.0049C471.307 11.7922 471.378 11.5855 471.508 11.4171C471.639 11.2487 471.821 11.1281 472.028 11.074V9.61513C471.821 9.56106 471.639 9.4404 471.508 9.27199C471.378 9.10358 471.307 8.89691 471.307 8.68425C471.307 8.47159 471.378 8.26491 471.508 8.09651C471.639 7.9281 471.821 7.80744 472.028 7.75338V6.3H471.461L469.559 3.53969H467.53L465.628 6.3H464.973V7.75269C465.179 7.80675 465.362 7.92741 465.492 8.09582C465.623 8.26423 465.693 8.4709 465.693 8.68356C465.693 8.89622 465.623 9.1029 465.492 9.2713C465.362 9.43971 465.179 9.56037 464.973 9.61444V11.074C465.179 11.1281 465.362 11.2487 465.492 11.4171C465.623 11.5855 465.693 11.7922 465.693 12.0049C465.693 12.2175 465.623 12.4242 465.492 12.5926C465.362 12.761 465.179 12.8817 464.973 12.9357V14.3953C465.179 14.4494 465.362 14.57 465.492 14.7384C465.623 14.9069 465.693 15.1135 465.693 15.3262C465.693 15.5388 465.623 15.7455 465.492 15.9139C465.362 16.0823 465.179 16.203 464.973 16.2571V17.7159C465.179 17.77 465.362 17.8907 465.492 18.0591C465.623 18.2275 465.693 18.4341 465.693 18.6468C465.693 18.8595 465.623 19.0661 465.492 19.2346C465.362 19.403 465.179 19.5236 464.973 19.5777V21.0311Z" fill="#404040"/>
<path d="M467.714 0.193359H469.439C469.585 0.193359 469.725 0.251306 469.829 0.354451C469.932 0.457596 469.991 0.59749 469.991 0.743359V1.64811H467.162V0.743359C467.162 0.59749 467.22 0.457596 467.324 0.354451C467.427 0.251306 467.568 0.193359 467.714 0.193359Z" fill="#404040"/>
<path d="M470.178 1.8425H466.968V0.7425C466.968 0.545696 467.046 0.356942 467.186 0.217716C467.325 0.0784901 467.515 0.000182226 467.712 0L469.437 0C469.634 0.000182032 469.823 0.0783955 469.963 0.217473C470.103 0.35655 470.181 0.545127 470.181 0.741812L470.178 1.8425ZM467.357 1.45475H469.789V0.741812C469.789 0.647909 469.752 0.557852 469.685 0.491452C469.619 0.425053 469.528 0.38775 469.434 0.38775H467.709C467.615 0.38775 467.525 0.425053 467.458 0.491452C467.392 0.557852 467.354 0.647909 467.354 0.741812L467.357 1.45475Z" fill="#404040"/>
</g>
<g clip-path="url(#clip17_3086_23782)">
<path d="M501.173 22.0004H493.828C493.712 21.9938 493.598 21.9642 493.493 21.9134C493.389 21.8626 493.295 21.7916 493.218 21.7045C493.141 21.6175 493.082 21.516 493.045 21.406C493.007 21.2961 492.992 21.1799 493 21.0641V19.5516C492.991 19.3555 493.044 19.1616 493.154 18.9984C493.263 18.8352 493.423 18.7115 493.608 18.6454C493.423 18.5795 493.264 18.4562 493.155 18.2936C493.045 18.131 492.991 17.9376 493 17.7421V16.2296C492.991 16.0335 493.045 15.8396 493.154 15.6765C493.263 15.5133 493.423 15.3896 493.608 15.3234C493.423 15.2575 493.264 15.1342 493.155 14.9716C493.045 14.809 492.991 14.6156 493 14.4201V12.9076C492.991 12.7116 493.045 12.5178 493.154 12.3548C493.264 12.1918 493.423 12.0681 493.608 12.0021C493.423 11.9362 493.264 11.8129 493.155 11.6505C493.046 11.488 492.991 11.2949 493 11.0994V9.58694C492.991 9.39101 493.045 9.19722 493.154 9.03418C493.264 8.87114 493.423 8.74749 493.608 8.6815C493.423 8.61552 493.264 8.49217 493.155 8.32956C493.045 8.16696 492.991 7.97369 493 7.77813V6.26562C492.992 6.14969 493.007 6.03327 493.044 5.92312C493.081 5.81298 493.14 5.71132 493.217 5.62405C493.294 5.53679 493.388 5.46566 493.493 5.41482C493.598 5.36397 493.712 5.33441 493.828 5.32787H494.116L496.018 2.57031H499.071L500.973 5.33062H501.173C501.29 5.33726 501.403 5.36687 501.508 5.41775C501.613 5.46862 501.707 5.53975 501.784 5.627C501.861 5.71424 501.92 5.81587 501.957 5.92597C501.994 6.03607 502.009 6.15246 502.001 6.26837V7.78087C502.011 7.97691 501.957 8.17086 501.847 8.33404C501.738 8.49722 501.579 8.62097 501.393 8.687C501.579 8.75308 501.738 8.87675 501.847 9.03977C501.956 9.20279 502.01 9.39653 502.001 9.59244V11.1049C502.011 11.301 501.957 11.4949 501.847 11.658C501.738 11.8212 501.579 11.9449 501.393 12.0111C501.579 12.0771 501.738 12.2008 501.847 12.3638C501.956 12.5269 502.01 12.7206 502.001 12.9165V14.429C502.011 14.6249 501.957 14.8187 501.847 14.9818C501.738 15.1448 501.579 15.2684 501.393 15.3344C501.579 15.4006 501.738 15.5243 501.847 15.6875C501.957 15.8506 502.011 16.0445 502.001 16.2406V17.7531C502.011 17.949 501.957 18.1428 501.847 18.3058C501.738 18.4689 501.579 18.5925 501.393 18.6585C501.579 18.7246 501.738 18.8484 501.847 19.0115C501.957 19.1747 502.011 19.3686 502.001 19.5646V21.0771C502.014 21.3089 501.934 21.5363 501.779 21.7094C501.623 21.8825 501.406 21.9871 501.173 22.0004ZM493.973 21.0311H501.028V19.5784C500.821 19.5243 500.639 19.4036 500.508 19.2352C500.378 19.0668 500.307 18.8602 500.307 18.6475C500.307 18.4348 500.378 18.2282 500.508 18.0598C500.639 17.8913 500.821 17.7707 501.028 17.7166V16.2571C500.821 16.203 500.639 16.0823 500.508 15.9139C500.378 15.7455 500.307 15.5388 500.307 15.3262C500.307 15.1135 500.378 14.9069 500.508 14.7384C500.639 14.57 500.821 14.4494 501.028 14.3953V12.9357C500.821 12.8817 500.639 12.761 500.508 12.5926C500.378 12.4242 500.307 12.2175 500.307 12.0049C500.307 11.7922 500.378 11.5855 500.508 11.4171C500.639 11.2487 500.821 11.1281 501.028 11.074V9.61513C500.821 9.56106 500.639 9.4404 500.508 9.27199C500.378 9.10358 500.307 8.89691 500.307 8.68425C500.307 8.47159 500.378 8.26491 500.508 8.09651C500.639 7.9281 500.821 7.80744 501.028 7.75338V6.3H500.461L498.559 3.53969H496.53L494.628 6.3H493.973V7.75269C494.179 7.80675 494.362 7.92741 494.492 8.09582C494.623 8.26423 494.693 8.4709 494.693 8.68356C494.693 8.89622 494.623 9.1029 494.492 9.2713C494.362 9.43971 494.179 9.56037 493.973 9.61444V11.074C494.179 11.1281 494.362 11.2487 494.492 11.4171C494.623 11.5855 494.693 11.7922 494.693 12.0049C494.693 12.2175 494.623 12.4242 494.492 12.5926C494.362 12.761 494.179 12.8817 493.973 12.9357V14.3953C494.179 14.4494 494.362 14.57 494.492 14.7384C494.623 14.9069 494.693 15.1135 494.693 15.3262C494.693 15.5388 494.623 15.7455 494.492 15.9139C494.362 16.0823 494.179 16.203 493.973 16.2571V17.7159C494.179 17.77 494.362 17.8907 494.492 18.0591C494.623 18.2275 494.693 18.4341 494.693 18.6468C494.693 18.8595 494.623 19.0661 494.492 19.2346C494.362 19.403 494.179 19.5236 493.973 19.5777V21.0311Z" fill="#404040"/>
<path d="M496.714 0.193359H498.439C498.585 0.193359 498.725 0.251306 498.829 0.354451C498.932 0.457596 498.991 0.59749 498.991 0.743359V1.64811H496.162V0.743359C496.162 0.59749 496.22 0.457596 496.324 0.354451C496.427 0.251306 496.568 0.193359 496.714 0.193359Z" fill="#404040"/>
<path d="M499.178 1.8425H495.968V0.7425C495.968 0.545696 496.046 0.356942 496.186 0.217716C496.325 0.0784901 496.515 0.000182226 496.712 0L498.437 0C498.634 0.000182032 498.823 0.0783955 498.963 0.217473C499.103 0.35655 499.181 0.545127 499.181 0.741812L499.178 1.8425ZM496.357 1.45475H498.789V0.741812C498.789 0.647909 498.752 0.557852 498.685 0.491452C498.619 0.425053 498.528 0.38775 498.434 0.38775H496.709C496.615 0.38775 496.525 0.425053 496.458 0.491452C496.392 0.557852 496.354 0.647909 496.354 0.741812L496.357 1.45475Z" fill="#404040"/>
</g>
<defs>
<clipPath id="clip0_3086_23782">
<rect width="9" height="22" fill="white"/>
</clipPath>
<clipPath id="clip1_3086_23782">
<rect width="9" height="22" fill="white" transform="translate(29)"/>
</clipPath>
<clipPath id="clip2_3086_23782">
<rect width="9" height="22" fill="white" transform="translate(58)"/>
</clipPath>
<clipPath id="clip3_3086_23782">
<rect width="9" height="22" fill="white" transform="translate(87)"/>
</clipPath>
<clipPath id="clip4_3086_23782">
<rect width="9" height="22" fill="white" transform="translate(116)"/>
</clipPath>
<clipPath id="clip5_3086_23782">
<rect width="9" height="22" fill="white" transform="translate(145)"/>
</clipPath>
<clipPath id="clip6_3086_23782">
<rect width="9" height="22" fill="white" transform="translate(174)"/>
</clipPath>
<clipPath id="clip7_3086_23782">
<rect width="9" height="22" fill="white" transform="translate(203)"/>
</clipPath>
<clipPath id="clip8_3086_23782">
<rect width="9" height="22" fill="white" transform="translate(232)"/>
</clipPath>
<clipPath id="clip9_3086_23782">
<rect width="9" height="22" fill="white" transform="translate(261)"/>
</clipPath>
<clipPath id="clip10_3086_23782">
<rect width="9" height="22" fill="white" transform="translate(290)"/>
</clipPath>
<clipPath id="clip11_3086_23782">
<rect width="9" height="22" fill="white" transform="translate(319)"/>
</clipPath>
<clipPath id="clip12_3086_23782">
<rect width="9" height="22" fill="white" transform="translate(348)"/>
</clipPath>
<clipPath id="clip13_3086_23782">
<rect width="9" height="22" fill="white" transform="translate(377)"/>
</clipPath>
<clipPath id="clip14_3086_23782">
<rect width="9" height="22" fill="white" transform="translate(435)"/>
</clipPath>
<clipPath id="clip15_3086_23782">
<rect width="9" height="22" fill="white" transform="translate(406)"/>
</clipPath>
<clipPath id="clip16_3086_23782">
<rect width="9" height="22" fill="white" transform="translate(464)"/>
</clipPath>
<clipPath id="clip17_3086_23782">
<rect width="9" height="22" fill="white" transform="translate(493)"/>
</clipPath>
</defs>
</svg>
