<svg width="9" height="22" viewBox="0 0 9 22" fill="none" xmlns="http://www.w3.org/2000/svg">
<g clip-path="url(#clip0_3086_23136)">
<path d="M8.17314 22.0004H0.828131C0.711843 21.9938 0.598032 21.9642 0.493296 21.9134C0.388559 21.8626 0.294978 21.7916 0.217977 21.7045C0.140976 21.6175 0.082085 21.516 0.0447179 21.406C0.00735074 21.2961 -0.00774989 21.1799 0.000291104 21.0641V19.5516C-0.00940915 19.3555 0.0444478 19.1616 0.153899 18.9984C0.26335 18.8352 0.422586 18.7115 0.608064 18.6454C0.423056 18.5795 0.264156 18.4562 0.154746 18.2936C0.0453365 18.131 -0.00880417 17.9376 0.000291104 17.7421V16.2296C-0.00929817 16.0335 0.0446033 15.8396 0.15404 15.6765C0.263476 15.5133 0.422649 15.3896 0.608064 15.3234C0.423056 15.2575 0.264156 15.1342 0.154746 14.9716C0.0453365 14.809 -0.00880417 14.6156 0.000291104 14.4201V12.9076C-0.00925769 12.7116 0.0446703 12.5178 0.154111 12.3548C0.263552 12.1918 0.422704 12.0681 0.608064 12.0021C0.423235 11.9362 0.264481 11.8129 0.155097 11.6505C0.0457124 11.488 -0.00854318 11.2949 0.000291104 11.0994V9.58694C-0.00925769 9.39101 0.0446703 9.19722 0.154111 9.03418C0.263552 8.87114 0.422704 8.74749 0.608064 8.6815C0.423118 8.61552 0.26428 8.49217 0.154886 8.32956C0.045491 8.16696 -0.00869388 7.97369 0.000291104 7.77813V6.26562C-0.00803488 6.14969 0.00685781 6.03327 0.0441026 5.92312C0.0813474 5.81298 0.140201 5.71132 0.217237 5.62405C0.294274 5.53679 0.387957 5.46566 0.492833 5.41482C0.59771 5.36397 0.711687 5.33441 0.828131 5.32787H1.1165L3.01777 2.57031H6.07112L7.97308 5.33062H8.17314C8.28955 5.33726 8.40348 5.36687 8.50832 5.41775C8.61315 5.46862 8.70679 5.53975 8.78381 5.627C8.86083 5.71424 8.91969 5.81587 8.95697 5.92597C8.99425 6.03607 9.00921 6.15246 9.00098 6.26837V7.78087C9.01068 7.97691 8.95682 8.17086 8.84737 8.33404C8.73792 8.49722 8.57869 8.62097 8.39321 8.687C8.57851 8.75308 8.73759 8.87675 8.84702 9.03977C8.95645 9.20279 9.01042 9.39653 9.00098 9.59244V11.1049C9.01057 11.301 8.95667 11.4949 8.84723 11.658C8.7378 11.8212 8.57862 11.9449 8.39321 12.0111C8.57851 12.0771 8.73759 12.2008 8.84702 12.3638C8.95645 12.5269 9.01042 12.7206 9.00098 12.9165V14.429C9.01053 14.6249 8.9566 14.8187 8.84716 14.9818C8.73772 15.1448 8.57857 15.2684 8.39321 15.3344C8.57862 15.4006 8.7378 15.5243 8.84723 15.6875C8.95667 15.8506 9.01057 16.0445 9.00098 16.2406V17.7531C9.01053 17.949 8.9566 18.1428 8.84716 18.3058C8.73772 18.4689 8.57857 18.5925 8.39321 18.6585C8.57862 18.7246 8.7378 18.8484 8.84723 19.0115C8.95667 19.1747 9.01057 19.3686 9.00098 19.5646V21.0771C9.01379 21.3089 8.93382 21.5363 8.77863 21.7094C8.62343 21.8825 8.40568 21.9871 8.17314 22.0004ZM0.973003 21.0311H8.02758V19.5784C7.8212 19.5243 7.63859 19.4036 7.50829 19.2352C7.37798 19.0668 7.30731 18.8602 7.30731 18.6475C7.30731 18.4348 7.37798 18.2282 7.50829 18.0598C7.63859 17.8913 7.8212 17.7707 8.02758 17.7166V16.2571C7.8212 16.203 7.63859 16.0823 7.50829 15.9139C7.37798 15.7455 7.30731 15.5388 7.30731 15.3262C7.30731 15.1135 7.37798 14.9069 7.50829 14.7384C7.63859 14.57 7.8212 14.4494 8.02758 14.3953V12.9357C7.8212 12.8817 7.63859 12.761 7.50829 12.5926C7.37798 12.4242 7.30731 12.2175 7.30731 12.0049C7.30731 11.7922 7.37798 11.5855 7.50829 11.4171C7.63859 11.2487 7.8212 11.1281 8.02758 11.074V9.61513C7.8212 9.56106 7.63859 9.4404 7.50829 9.27199C7.37798 9.10358 7.30731 8.89691 7.30731 8.68425C7.30731 8.47159 7.37798 8.26491 7.50829 8.09651C7.63859 7.9281 7.8212 7.80744 8.02758 7.75338V6.3H7.4612L5.55855 3.53969H3.52965L1.62769 6.3H0.973003V7.75269C1.17938 7.80675 1.36199 7.92741 1.4923 8.09582C1.6226 8.26423 1.69327 8.4709 1.69327 8.68356C1.69327 8.89622 1.6226 9.1029 1.4923 9.2713C1.36199 9.43971 1.17938 9.56037 0.973003 9.61444V11.074C1.17938 11.1281 1.36199 11.2487 1.4923 11.4171C1.6226 11.5855 1.69327 11.7922 1.69327 12.0049C1.69327 12.2175 1.6226 12.4242 1.4923 12.5926C1.36199 12.761 1.17938 12.8817 0.973003 12.9357V14.3953C1.17938 14.4494 1.36199 14.57 1.4923 14.7384C1.6226 14.9069 1.69327 15.1135 1.69327 15.3262C1.69327 15.5388 1.6226 15.7455 1.4923 15.9139C1.36199 16.0823 1.17938 16.203 0.973003 16.2571V17.7159C1.17938 17.77 1.36199 17.8907 1.4923 18.0591C1.6226 18.2275 1.69327 18.4341 1.69327 18.6468C1.69327 18.8595 1.6226 19.0661 1.4923 19.2346C1.36199 19.403 1.17938 19.5236 0.973003 19.5777V21.0311Z" fill="white"/>
<path d="M3.714 0.193359H5.43867C5.58504 0.193359 5.72542 0.251306 5.82892 0.354451C5.93242 0.457596 5.99056 0.59749 5.99056 0.743359V1.64811H3.16211V0.743359C3.16211 0.59749 3.22025 0.457596 3.32375 0.354451C3.42725 0.251306 3.56763 0.193359 3.714 0.193359Z" fill="white"/>
<path d="M6.17841 1.8425H2.96777V0.7425C2.96777 0.545696 3.04618 0.356942 3.18575 0.217716C3.32533 0.0784901 3.51466 0.000182226 3.71214 0L5.43681 0C5.63417 0.000182032 5.82339 0.0783955 5.96295 0.217473C6.10251 0.35655 6.18099 0.545127 6.18117 0.741812L6.17841 1.8425ZM3.35686 1.45475H5.78933V0.741812C5.78933 0.647909 5.7519 0.557852 5.68527 0.491452C5.61864 0.425053 5.52827 0.38775 5.43405 0.38775H3.70938C3.61515 0.38775 3.52479 0.425053 3.45816 0.491452C3.39153 0.557852 3.3541 0.647909 3.3541 0.741812L3.35686 1.45475Z" fill="white"/>
</g>
<defs>
<clipPath id="clip0_3086_23136">
<rect width="9" height="22" fill="white"/>
</clipPath>
</defs>
</svg>
