<svg width="16" height="16" viewBox="0 0 16 16" fill="none" xmlns="http://www.w3.org/2000/svg">
<path d="M11.1667 0.5C11.7703 0.500097 12.3567 0.701871 12.8326 1.07328C13.3084 1.44469 13.6466 1.96444 13.7933 2.55L14.1142 3.83333H14.875C15.026 3.83334 15.172 3.88804 15.2858 3.98731C15.3996 4.08658 15.4736 4.2237 15.4942 4.37333L15.5 4.45833C15.5 4.60936 15.4453 4.75528 15.346 4.86911C15.2468 4.98293 15.1096 5.05696 14.96 5.0775L14.875 5.08333H14.4283L14.6017 5.77167C14.8771 5.93886 15.1048 6.17425 15.2627 6.4551C15.4207 6.73595 15.5035 7.05278 15.5033 7.375V14.4558C15.5033 14.8426 15.3497 15.2135 15.0762 15.487C14.8027 15.7605 14.4318 15.9142 14.045 15.9142H12.7917C12.4049 15.9142 12.034 15.7605 11.7605 15.487C11.487 15.2135 11.3333 14.8426 11.3333 14.4558L11.3325 13.4167H4.67V14.4558C4.67 14.8426 4.51636 15.2135 4.24286 15.487C3.96937 15.7605 3.59844 15.9142 3.21167 15.9142H1.95833C1.57156 15.9142 1.20063 15.7605 0.927136 15.487C0.653645 15.2135 0.5 14.8426 0.5 14.4558V7.375C0.5 6.69583 0.860833 6.10083 1.40167 5.7725L1.57417 5.08333H1.125C0.973969 5.08333 0.828048 5.02863 0.714224 4.92936C0.600401 4.83009 0.526374 4.69296 0.505833 4.54333L0.5 4.45833C0.500006 4.3073 0.554702 4.16138 0.653973 4.04756C0.753243 3.93373 0.890372 3.85971 1.04 3.83917L1.125 3.83333H1.88583L2.2075 2.55167C2.35395 1.96566 2.6921 1.44543 3.16819 1.07368C3.64427 0.701932 4.23097 0.500004 4.835 0.5H11.1658H11.1667ZM3.41917 13.4167H1.74917L1.75 14.4558C1.75 14.5708 1.84333 14.6642 1.95833 14.6642H3.21167C3.26692 14.6642 3.31991 14.6422 3.35898 14.6031C3.39805 14.5641 3.42 14.5111 3.42 14.4558V13.4167H3.41917ZM14.2525 13.4167H12.5817L12.5825 14.4558C12.5825 14.5708 12.6758 14.6642 12.7908 14.6642H14.0442C14.0994 14.6642 14.1524 14.6422 14.1915 14.6031C14.2306 14.5641 14.2525 14.5111 14.2525 14.4558V13.4167ZM13.6275 6.75H2.375C2.20924 6.75 2.05027 6.81585 1.93306 6.93306C1.81585 7.05027 1.75 7.20924 1.75 7.375V12.1667H14.2533V7.375C14.2533 7.20924 14.1875 7.05027 14.0703 6.93306C13.9531 6.81585 13.7941 6.75 13.6283 6.75H13.6275ZM6.54167 9.66667H9.46C9.61828 9.66692 9.77057 9.72723 9.88612 9.8354C10.0017 9.94357 10.0719 10.0916 10.0826 10.2495C10.0932 10.4074 10.0436 10.5635 9.94368 10.6862C9.84375 10.809 9.70097 10.8893 9.54417 10.9108L9.46 10.9167H6.54167C6.38331 10.9166 6.23088 10.8565 6.11517 10.7484C5.99947 10.6402 5.92911 10.4923 5.91831 10.3343C5.90752 10.1763 5.9571 10.0201 6.05703 9.89725C6.15696 9.77441 6.29979 9.69408 6.45667 9.6725L6.54167 9.66667H9.46H6.54167ZM12.1667 8C12.3877 8 12.5996 8.0878 12.7559 8.24408C12.9122 8.40036 13 8.61232 13 8.83333C13 9.05435 12.9122 9.26631 12.7559 9.42259C12.5996 9.57887 12.3877 9.66667 12.1667 9.66667C11.9457 9.66667 11.7337 9.57887 11.5774 9.42259C11.4211 9.26631 11.3333 9.05435 11.3333 8.83333C11.3333 8.61232 11.4211 8.40036 11.5774 8.24408C11.7337 8.0878 11.9457 8 12.1667 8ZM3.83333 8C4.05435 8 4.26631 8.0878 4.42259 8.24408C4.57887 8.40036 4.66667 8.61232 4.66667 8.83333C4.66667 9.05435 4.57887 9.26631 4.42259 9.42259C4.26631 9.57887 4.05435 9.66667 3.83333 9.66667C3.61232 9.66667 3.40036 9.57887 3.24408 9.42259C3.0878 9.26631 3 9.05435 3 8.83333C3 8.61232 3.0878 8.40036 3.24408 8.24408C3.40036 8.0878 3.61232 8 3.83333 8ZM11.1667 1.75H4.83417C4.50885 1.74997 4.19287 1.85872 3.93647 2.05895C3.68007 2.25917 3.49799 2.53938 3.41917 2.855L2.75917 5.5H13.2442L12.5808 2.85333C12.5017 2.53802 12.3195 2.25819 12.0631 2.05829C11.8067 1.85839 11.4909 1.74988 11.1658 1.75H11.1667Z" fill="white"/>
</svg>
