<svg width="20" height="20" viewBox="0 0 20 20" fill="none" xmlns="http://www.w3.org/2000/svg">
<path d="M13.1667 2.5C13.7703 2.5001 14.3567 2.70187 14.8325 3.07328C15.3084 3.44469 15.6466 3.96444 15.7933 4.55L16.1142 5.83333H16.875C17.026 5.83334 17.172 5.88804 17.2858 5.98731C17.3996 6.08658 17.4736 6.2237 17.4942 6.37333L17.5 6.45833C17.5 6.60936 17.4453 6.75528 17.346 6.86911C17.2468 6.98293 17.1096 7.05696 16.96 7.0775L16.875 7.08333H16.4283L16.6017 7.77167C16.8771 7.93886 17.1048 8.17425 17.2627 8.4551C17.4207 8.73595 17.5035 9.05278 17.5033 9.375V16.4558C17.5033 16.8426 17.3497 17.2135 17.0762 17.487C16.8027 17.7605 16.4318 17.9142 16.045 17.9142H14.7917C14.4049 17.9142 14.034 17.7605 13.7605 17.487C13.487 17.2135 13.3333 16.8426 13.3333 16.4558L13.3325 15.4167H6.67V16.4558C6.67 16.8426 6.51635 17.2135 6.24286 17.487C5.96937 17.7605 5.59844 17.9142 5.21167 17.9142H3.95833C3.57156 17.9142 3.20063 17.7605 2.92714 17.487C2.65365 17.2135 2.5 16.8426 2.5 16.4558V9.375C2.5 8.69583 2.86083 8.10083 3.40167 7.7725L3.57417 7.08333H3.125C2.97397 7.08333 2.82805 7.02863 2.71422 6.92936C2.6004 6.83009 2.52637 6.69296 2.50583 6.54333L2.5 6.45833C2.50001 6.3073 2.5547 6.16138 2.65397 6.04756C2.75324 5.93373 2.89037 5.85971 3.04 5.83917L3.125 5.83333H3.88583L4.2075 4.55167C4.35395 3.96566 4.6921 3.44543 5.16819 3.07368C5.64427 2.70193 6.23097 2.5 6.835 2.5H13.1658H13.1667ZM5.41917 15.4167H3.74917L3.75 16.4558C3.75 16.5708 3.84333 16.6642 3.95833 16.6642H5.21167C5.26692 16.6642 5.31991 16.6422 5.35898 16.6031C5.39805 16.5641 5.42 16.5111 5.42 16.4558V15.4167H5.41917ZM16.2525 15.4167H14.5817L14.5825 16.4558C14.5825 16.5708 14.6758 16.6642 14.7908 16.6642H16.0442C16.0994 16.6642 16.1524 16.6422 16.1915 16.6031C16.2306 16.5641 16.2525 16.5111 16.2525 16.4558V15.4167V15.4167ZM15.6275 8.75H4.375C4.20924 8.75 4.05027 8.81585 3.93306 8.93306C3.81585 9.05027 3.75 9.20924 3.75 9.375V14.1667H16.2533V9.375C16.2533 9.20924 16.1875 9.05027 16.0703 8.93306C15.9531 8.81585 15.7941 8.75 15.6283 8.75H15.6275ZM8.54167 11.6667H11.46C11.6183 11.6669 11.7706 11.7272 11.8861 11.8354C12.0017 11.9436 12.0719 12.0916 12.0826 12.2495C12.0932 12.4074 12.0436 12.5635 11.9437 12.6862C11.8438 12.809 11.701 12.8893 11.5442 12.9108L11.46 12.9167H8.54167C8.38331 12.9166 8.23088 12.8565 8.11517 12.7484C7.99947 12.6402 7.92911 12.4923 7.91831 12.3343C7.90752 12.1763 7.9571 12.0201 8.05703 11.8972C8.15696 11.7744 8.29979 11.6941 8.45667 11.6725L8.54167 11.6667H11.46H8.54167ZM14.1667 10C14.3877 10 14.5996 10.0878 14.7559 10.2441C14.9122 10.4004 15 10.6123 15 10.8333C15 11.0543 14.9122 11.2663 14.7559 11.4226C14.5996 11.5789 14.3877 11.6667 14.1667 11.6667C13.9457 11.6667 13.7337 11.5789 13.5774 11.4226C13.4211 11.2663 13.3333 11.0543 13.3333 10.8333C13.3333 10.6123 13.4211 10.4004 13.5774 10.2441C13.7337 10.0878 13.9457 10 14.1667 10ZM5.83333 10C6.05435 10 6.26631 10.0878 6.42259 10.2441C6.57887 10.4004 6.66667 10.6123 6.66667 10.8333C6.66667 11.0543 6.57887 11.2663 6.42259 11.4226C6.26631 11.5789 6.05435 11.6667 5.83333 11.6667C5.61232 11.6667 5.40036 11.5789 5.24408 11.4226C5.0878 11.2663 5 11.0543 5 10.8333C5 10.6123 5.0878 10.4004 5.24408 10.2441C5.40036 10.0878 5.61232 10 5.83333 10ZM13.1667 3.75H6.83417C6.50885 3.74997 6.19287 3.85872 5.93647 4.05895C5.68007 4.25917 5.49799 4.53938 5.41917 4.855L4.75917 7.5H15.2442L14.5808 4.85333C14.5017 4.53802 14.3195 4.25819 14.0631 4.05829C13.8067 3.85839 13.4909 3.74988 13.1658 3.75H13.1667Z" fill="#404040"/>
</svg>
