<svg width="455" height="20" viewBox="0 0 455 20" fill="none" xmlns="http://www.w3.org/2000/svg">
<path d="M13.1667 2.5C13.7703 2.5001 14.3567 2.70187 14.8326 3.07328C15.3084 3.44469 15.6466 3.96444 15.7933 4.55L16.1142 5.83333H16.875C17.026 5.83334 17.172 5.88804 17.2858 5.98731C17.3996 6.08658 17.4736 6.2237 17.4942 6.37333L17.5 6.45833C17.5 6.60936 17.4453 6.75528 17.346 6.86911C17.2468 6.98293 17.1096 7.05696 16.96 7.0775L16.875 7.08333H16.4283L16.6017 7.77167C16.8771 7.93886 17.1048 8.17425 17.2627 8.4551C17.4207 8.73595 17.5035 9.05278 17.5033 9.375V16.4558C17.5033 16.8426 17.3497 17.2135 17.0762 17.487C16.8027 17.7605 16.4318 17.9142 16.045 17.9142H14.7917C14.4049 17.9142 14.034 17.7605 13.7605 17.487C13.487 17.2135 13.3333 16.8426 13.3333 16.4558L13.3325 15.4167H6.67V16.4558C6.67 16.8426 6.51636 17.2135 6.24286 17.487C5.96937 17.7605 5.59844 17.9142 5.21167 17.9142H3.95833C3.57156 17.9142 3.20063 17.7605 2.92714 17.487C2.65365 17.2135 2.5 16.8426 2.5 16.4558V9.375C2.5 8.69583 2.86083 8.10083 3.40167 7.7725L3.57417 7.08333H3.125C2.97397 7.08333 2.82805 7.02863 2.71422 6.92936C2.6004 6.83009 2.52637 6.69296 2.50583 6.54333L2.5 6.45833C2.50001 6.3073 2.5547 6.16138 2.65397 6.04756C2.75324 5.93373 2.89037 5.85971 3.04 5.83917L3.125 5.83333H3.88583L4.2075 4.55167C4.35395 3.96566 4.6921 3.44543 5.16819 3.07368C5.64427 2.70193 6.23097 2.5 6.835 2.5H13.1658H13.1667ZM5.41917 15.4167H3.74917L3.75 16.4558C3.75 16.5708 3.84333 16.6642 3.95833 16.6642H5.21167C5.26692 16.6642 5.31991 16.6422 5.35898 16.6031C5.39805 16.5641 5.42 16.5111 5.42 16.4558V15.4167H5.41917ZM16.2525 15.4167H14.5817L14.5825 16.4558C14.5825 16.5708 14.6758 16.6642 14.7908 16.6642H16.0442C16.0994 16.6642 16.1524 16.6422 16.1915 16.6031C16.2306 16.5641 16.2525 16.5111 16.2525 16.4558V15.4167ZM15.6275 8.75H4.375C4.20924 8.75 4.05027 8.81585 3.93306 8.93306C3.81585 9.05027 3.75 9.20924 3.75 9.375V14.1667H16.2533V9.375C16.2533 9.20924 16.1875 9.05027 16.0703 8.93306C15.9531 8.81585 15.7941 8.75 15.6283 8.75H15.6275ZM8.54167 11.6667H11.46C11.6183 11.6669 11.7706 11.7272 11.8861 11.8354C12.0017 11.9436 12.0719 12.0916 12.0826 12.2495C12.0932 12.4074 12.0436 12.5635 11.9437 12.6862C11.8438 12.809 11.701 12.8893 11.5442 12.9108L11.46 12.9167H8.54167C8.38331 12.9166 8.23088 12.8565 8.11517 12.7484C7.99947 12.6402 7.92911 12.4923 7.91831 12.3343C7.90752 12.1763 7.9571 12.0201 8.05703 11.8973C8.15696 11.7744 8.29979 11.6941 8.45667 11.6725L8.54167 11.6667H11.46H8.54167ZM14.1667 10C14.3877 10 14.5996 10.0878 14.7559 10.2441C14.9122 10.4004 15 10.6123 15 10.8333C15 11.0543 14.9122 11.2663 14.7559 11.4226C14.5996 11.5789 14.3877 11.6667 14.1667 11.6667C13.9457 11.6667 13.7337 11.5789 13.5774 11.4226C13.4211 11.2663 13.3333 11.0543 13.3333 10.8333C13.3333 10.6123 13.4211 10.4004 13.5774 10.2441C13.7337 10.0878 13.9457 10 14.1667 10ZM5.83333 10C6.05435 10 6.26631 10.0878 6.42259 10.2441C6.57887 10.4004 6.66667 10.6123 6.66667 10.8333C6.66667 11.0543 6.57887 11.2663 6.42259 11.4226C6.26631 11.5789 6.05435 11.6667 5.83333 11.6667C5.61232 11.6667 5.40036 11.5789 5.24408 11.4226C5.0878 11.2663 5 11.0543 5 10.8333C5 10.6123 5.0878 10.4004 5.24408 10.2441C5.40036 10.0878 5.61232 10 5.83333 10ZM13.1667 3.75H6.83417C6.50885 3.74997 6.19287 3.85872 5.93647 4.05895C5.68007 4.25917 5.49799 4.53938 5.41917 4.855L4.75917 7.5H15.2442L14.5808 4.85333C14.5017 4.53802 14.3195 4.25819 14.0631 4.05829C13.8067 3.85839 13.4909 3.74988 13.1658 3.75H13.1667Z" fill="#404040"/>
<path d="M42.1667 2.5C42.7703 2.5001 43.3567 2.70187 43.8326 3.07328C44.3084 3.44469 44.6466 3.96444 44.7933 4.55L45.1142 5.83333H45.875C46.026 5.83334 46.172 5.88804 46.2858 5.98731C46.3996 6.08658 46.4736 6.2237 46.4942 6.37333L46.5 6.45833C46.5 6.60936 46.4453 6.75528 46.346 6.86911C46.2468 6.98293 46.1096 7.05696 45.96 7.0775L45.875 7.08333H45.4283L45.6017 7.77167C45.8771 7.93886 46.1048 8.17425 46.2627 8.4551C46.4207 8.73595 46.5035 9.05278 46.5033 9.375V16.4558C46.5033 16.8426 46.3497 17.2135 46.0762 17.487C45.8027 17.7605 45.4318 17.9142 45.045 17.9142H43.7917C43.4049 17.9142 43.034 17.7605 42.7605 17.487C42.487 17.2135 42.3333 16.8426 42.3333 16.4558L42.3325 15.4167H35.67V16.4558C35.67 16.8426 35.5164 17.2135 35.2429 17.487C34.9694 17.7605 34.5984 17.9142 34.2117 17.9142H32.9583C32.5716 17.9142 32.2006 17.7605 31.9271 17.487C31.6536 17.2135 31.5 16.8426 31.5 16.4558V9.375C31.5 8.69583 31.8608 8.10083 32.4017 7.7725L32.5742 7.08333H32.125C31.974 7.08333 31.828 7.02863 31.7142 6.92936C31.6004 6.83009 31.5264 6.69296 31.5058 6.54333L31.5 6.45833C31.5 6.3073 31.5547 6.16138 31.654 6.04756C31.7532 5.93373 31.8904 5.85971 32.04 5.83917L32.125 5.83333H32.8858L33.2075 4.55167C33.354 3.96566 33.6921 3.44543 34.1682 3.07368C34.6443 2.70193 35.231 2.5 35.835 2.5H42.1658H42.1667ZM34.4192 15.4167H32.7492L32.75 16.4558C32.75 16.5708 32.8433 16.6642 32.9583 16.6642H34.2117C34.2669 16.6642 34.3199 16.6422 34.359 16.6031C34.3981 16.5641 34.42 16.5111 34.42 16.4558V15.4167H34.4192ZM45.2525 15.4167H43.5817L43.5825 16.4558C43.5825 16.5708 43.6758 16.6642 43.7908 16.6642H45.0442C45.0994 16.6642 45.1524 16.6422 45.1915 16.6031C45.2306 16.5641 45.2525 16.5111 45.2525 16.4558V15.4167ZM44.6275 8.75H33.375C33.2092 8.75 33.0503 8.81585 32.9331 8.93306C32.8158 9.05027 32.75 9.20924 32.75 9.375V14.1667H45.2533V9.375C45.2533 9.20924 45.1875 9.05027 45.0703 8.93306C44.9531 8.81585 44.7941 8.75 44.6283 8.75H44.6275ZM37.5417 11.6667H40.46C40.6183 11.6669 40.7706 11.7272 40.8861 11.8354C41.0017 11.9436 41.0719 12.0916 41.0826 12.2495C41.0932 12.4074 41.0436 12.5635 40.9437 12.6862C40.8438 12.809 40.701 12.8893 40.5442 12.9108L40.46 12.9167H37.5417C37.3833 12.9166 37.2309 12.8565 37.1152 12.7484C36.9995 12.6402 36.9291 12.4923 36.9183 12.3343C36.9075 12.1763 36.9571 12.0201 37.057 11.8973C37.157 11.7744 37.2998 11.6941 37.4567 11.6725L37.5417 11.6667H40.46H37.5417ZM43.1667 10C43.3877 10 43.5996 10.0878 43.7559 10.2441C43.9122 10.4004 44 10.6123 44 10.8333C44 11.0543 43.9122 11.2663 43.7559 11.4226C43.5996 11.5789 43.3877 11.6667 43.1667 11.6667C42.9457 11.6667 42.7337 11.5789 42.5774 11.4226C42.4211 11.2663 42.3333 11.0543 42.3333 10.8333C42.3333 10.6123 42.4211 10.4004 42.5774 10.2441C42.7337 10.0878 42.9457 10 43.1667 10ZM34.8333 10C35.0543 10 35.2663 10.0878 35.4226 10.2441C35.5789 10.4004 35.6667 10.6123 35.6667 10.8333C35.6667 11.0543 35.5789 11.2663 35.4226 11.4226C35.2663 11.5789 35.0543 11.6667 34.8333 11.6667C34.6123 11.6667 34.4004 11.5789 34.2441 11.4226C34.0878 11.2663 34 11.0543 34 10.8333C34 10.6123 34.0878 10.4004 34.2441 10.2441C34.4004 10.0878 34.6123 10 34.8333 10ZM42.1667 3.75H35.8342C35.5089 3.74997 35.1929 3.85872 34.9365 4.05895C34.6801 4.25917 34.498 4.53938 34.4192 4.855L33.7592 7.5H44.2442L43.5808 4.85333C43.5017 4.53802 43.3195 4.25819 43.0631 4.05829C42.8067 3.85839 42.4909 3.74988 42.1658 3.75H42.1667Z" fill="#404040"/>
<path d="M71.1667 2.5C71.7703 2.5001 72.3567 2.70187 72.8326 3.07328C73.3084 3.44469 73.6466 3.96444 73.7933 4.55L74.1142 5.83333H74.875C75.026 5.83334 75.172 5.88804 75.2858 5.98731C75.3996 6.08658 75.4736 6.2237 75.4942 6.37333L75.5 6.45833C75.5 6.60936 75.4453 6.75528 75.346 6.86911C75.2468 6.98293 75.1096 7.05696 74.96 7.0775L74.875 7.08333H74.4283L74.6017 7.77167C74.8771 7.93886 75.1048 8.17425 75.2627 8.4551C75.4207 8.73595 75.5035 9.05278 75.5033 9.375V16.4558C75.5033 16.8426 75.3497 17.2135 75.0762 17.487C74.8027 17.7605 74.4318 17.9142 74.045 17.9142H72.7917C72.4049 17.9142 72.034 17.7605 71.7605 17.487C71.487 17.2135 71.3333 16.8426 71.3333 16.4558L71.3325 15.4167H64.67V16.4558C64.67 16.8426 64.5164 17.2135 64.2429 17.487C63.9694 17.7605 63.5984 17.9142 63.2117 17.9142H61.9583C61.5716 17.9142 61.2006 17.7605 60.9271 17.487C60.6536 17.2135 60.5 16.8426 60.5 16.4558V9.375C60.5 8.69583 60.8608 8.10083 61.4017 7.7725L61.5742 7.08333H61.125C60.974 7.08333 60.828 7.02863 60.7142 6.92936C60.6004 6.83009 60.5264 6.69296 60.5058 6.54333L60.5 6.45833C60.5 6.3073 60.5547 6.16138 60.654 6.04756C60.7532 5.93373 60.8904 5.85971 61.04 5.83917L61.125 5.83333H61.8858L62.2075 4.55167C62.354 3.96566 62.6921 3.44543 63.1682 3.07368C63.6443 2.70193 64.231 2.5 64.835 2.5H71.1658H71.1667ZM63.4192 15.4167H61.7492L61.75 16.4558C61.75 16.5708 61.8433 16.6642 61.9583 16.6642H63.2117C63.2669 16.6642 63.3199 16.6422 63.359 16.6031C63.3981 16.5641 63.42 16.5111 63.42 16.4558V15.4167H63.4192ZM74.2525 15.4167H72.5817L72.5825 16.4558C72.5825 16.5708 72.6758 16.6642 72.7908 16.6642H74.0442C74.0994 16.6642 74.1524 16.6422 74.1915 16.6031C74.2306 16.5641 74.2525 16.5111 74.2525 16.4558V15.4167ZM73.6275 8.75H62.375C62.2092 8.75 62.0503 8.81585 61.9331 8.93306C61.8158 9.05027 61.75 9.20924 61.75 9.375V14.1667H74.2533V9.375C74.2533 9.20924 74.1875 9.05027 74.0703 8.93306C73.9531 8.81585 73.7941 8.75 73.6283 8.75H73.6275ZM66.5417 11.6667H69.46C69.6183 11.6669 69.7706 11.7272 69.8861 11.8354C70.0017 11.9436 70.0719 12.0916 70.0826 12.2495C70.0932 12.4074 70.0436 12.5635 69.9437 12.6862C69.8438 12.809 69.701 12.8893 69.5442 12.9108L69.46 12.9167H66.5417C66.3833 12.9166 66.2309 12.8565 66.1152 12.7484C65.9995 12.6402 65.9291 12.4923 65.9183 12.3343C65.9075 12.1763 65.9571 12.0201 66.057 11.8973C66.157 11.7744 66.2998 11.6941 66.4567 11.6725L66.5417 11.6667H69.46H66.5417ZM72.1667 10C72.3877 10 72.5996 10.0878 72.7559 10.2441C72.9122 10.4004 73 10.6123 73 10.8333C73 11.0543 72.9122 11.2663 72.7559 11.4226C72.5996 11.5789 72.3877 11.6667 72.1667 11.6667C71.9457 11.6667 71.7337 11.5789 71.5774 11.4226C71.4211 11.2663 71.3333 11.0543 71.3333 10.8333C71.3333 10.6123 71.4211 10.4004 71.5774 10.2441C71.7337 10.0878 71.9457 10 72.1667 10ZM63.8333 10C64.0543 10 64.2663 10.0878 64.4226 10.2441C64.5789 10.4004 64.6667 10.6123 64.6667 10.8333C64.6667 11.0543 64.5789 11.2663 64.4226 11.4226C64.2663 11.5789 64.0543 11.6667 63.8333 11.6667C63.6123 11.6667 63.4004 11.5789 63.2441 11.4226C63.0878 11.2663 63 11.0543 63 10.8333C63 10.6123 63.0878 10.4004 63.2441 10.2441C63.4004 10.0878 63.6123 10 63.8333 10ZM71.1667 3.75H64.8342C64.5089 3.74997 64.1929 3.85872 63.9365 4.05895C63.6801 4.25917 63.498 4.53938 63.4192 4.855L62.7592 7.5H73.2442L72.5808 4.85333C72.5017 4.53802 72.3195 4.25819 72.0631 4.05829C71.8067 3.85839 71.4909 3.74988 71.1658 3.75H71.1667Z" fill="#404040"/>
<path d="M100.167 2.5C100.77 2.5001 101.357 2.70187 101.833 3.07328C102.308 3.44469 102.647 3.96444 102.793 4.55L103.114 5.83333H103.875C104.026 5.83334 104.172 5.88804 104.286 5.98731C104.4 6.08658 104.474 6.2237 104.494 6.37333L104.5 6.45833C104.5 6.60936 104.445 6.75528 104.346 6.86911C104.247 6.98293 104.11 7.05696 103.96 7.0775L103.875 7.08333H103.428L103.602 7.77167C103.877 7.93886 104.105 8.17425 104.263 8.4551C104.421 8.73595 104.504 9.05278 104.503 9.375V16.4558C104.503 16.8426 104.35 17.2135 104.076 17.487C103.803 17.7605 103.432 17.9142 103.045 17.9142H101.792C101.405 17.9142 101.034 17.7605 100.76 17.487C100.487 17.2135 100.333 16.8426 100.333 16.4558L100.333 15.4167H93.67V16.4558C93.67 16.8426 93.5164 17.2135 93.2429 17.487C92.9694 17.7605 92.5984 17.9142 92.2117 17.9142H90.9583C90.5716 17.9142 90.2006 17.7605 89.9271 17.487C89.6536 17.2135 89.5 16.8426 89.5 16.4558V9.375C89.5 8.69583 89.8608 8.10083 90.4017 7.7725L90.5742 7.08333H90.125C89.974 7.08333 89.828 7.02863 89.7142 6.92936C89.6004 6.83009 89.5264 6.69296 89.5058 6.54333L89.5 6.45833C89.5 6.3073 89.5547 6.16138 89.654 6.04756C89.7532 5.93373 89.8904 5.85971 90.04 5.83917L90.125 5.83333H90.8858L91.2075 4.55167C91.354 3.96566 91.6921 3.44543 92.1682 3.07368C92.6443 2.70193 93.231 2.5 93.835 2.5H100.166H100.167ZM92.4192 15.4167H90.7492L90.75 16.4558C90.75 16.5708 90.8433 16.6642 90.9583 16.6642H92.2117C92.2669 16.6642 92.3199 16.6422 92.359 16.6031C92.3981 16.5641 92.42 16.5111 92.42 16.4558V15.4167H92.4192ZM103.253 15.4167H101.582L101.583 16.4558C101.583 16.5708 101.676 16.6642 101.791 16.6642H103.044C103.099 16.6642 103.152 16.6422 103.191 16.6031C103.231 16.5641 103.253 16.5111 103.253 16.4558V15.4167ZM102.628 8.75H91.375C91.2092 8.75 91.0503 8.81585 90.9331 8.93306C90.8158 9.05027 90.75 9.20924 90.75 9.375V14.1667H103.253V9.375C103.253 9.20924 103.187 9.05027 103.07 8.93306C102.953 8.81585 102.794 8.75 102.628 8.75H102.628ZM95.5417 11.6667H98.46C98.6183 11.6669 98.7706 11.7272 98.8861 11.8354C99.0017 11.9436 99.0719 12.0916 99.0826 12.2495C99.0932 12.4074 99.0436 12.5635 98.9437 12.6862C98.8438 12.809 98.701 12.8893 98.5442 12.9108L98.46 12.9167H95.5417C95.3833 12.9166 95.2309 12.8565 95.1152 12.7484C94.9995 12.6402 94.9291 12.4923 94.9183 12.3343C94.9075 12.1763 94.9571 12.0201 95.057 11.8973C95.157 11.7744 95.2998 11.6941 95.4567 11.6725L95.5417 11.6667H98.46H95.5417ZM101.167 10C101.388 10 101.6 10.0878 101.756 10.2441C101.912 10.4004 102 10.6123 102 10.8333C102 11.0543 101.912 11.2663 101.756 11.4226C101.6 11.5789 101.388 11.6667 101.167 11.6667C100.946 11.6667 100.734 11.5789 100.577 11.4226C100.421 11.2663 100.333 11.0543 100.333 10.8333C100.333 10.6123 100.421 10.4004 100.577 10.2441C100.734 10.0878 100.946 10 101.167 10ZM92.8333 10C93.0543 10 93.2663 10.0878 93.4226 10.2441C93.5789 10.4004 93.6667 10.6123 93.6667 10.8333C93.6667 11.0543 93.5789 11.2663 93.4226 11.4226C93.2663 11.5789 93.0543 11.6667 92.8333 11.6667C92.6123 11.6667 92.4004 11.5789 92.2441 11.4226C92.0878 11.2663 92 11.0543 92 10.8333C92 10.6123 92.0878 10.4004 92.2441 10.2441C92.4004 10.0878 92.6123 10 92.8333 10ZM100.167 3.75H93.8342C93.5089 3.74997 93.1929 3.85872 92.9365 4.05895C92.6801 4.25917 92.498 4.53938 92.4192 4.855L91.7592 7.5H102.244L101.581 4.85333C101.502 4.53802 101.319 4.25819 101.063 4.05829C100.807 3.85839 100.491 3.74988 100.166 3.75H100.167Z" fill="#404040"/>
<path d="M129.167 2.5C129.77 2.5001 130.357 2.70187 130.833 3.07328C131.308 3.44469 131.647 3.96444 131.793 4.55L132.114 5.83333H132.875C133.026 5.83334 133.172 5.88804 133.286 5.98731C133.4 6.08658 133.474 6.2237 133.494 6.37333L133.5 6.45833C133.5 6.60936 133.445 6.75528 133.346 6.86911C133.247 6.98293 133.11 7.05696 132.96 7.0775L132.875 7.08333H132.428L132.602 7.77167C132.877 7.93886 133.105 8.17425 133.263 8.4551C133.421 8.73595 133.504 9.05278 133.503 9.375V16.4558C133.503 16.8426 133.35 17.2135 133.076 17.487C132.803 17.7605 132.432 17.9142 132.045 17.9142H130.792C130.405 17.9142 130.034 17.7605 129.76 17.487C129.487 17.2135 129.333 16.8426 129.333 16.4558L129.333 15.4167H122.67V16.4558C122.67 16.8426 122.516 17.2135 122.243 17.487C121.969 17.7605 121.598 17.9142 121.212 17.9142H119.958C119.572 17.9142 119.201 17.7605 118.927 17.487C118.654 17.2135 118.5 16.8426 118.5 16.4558V9.375C118.5 8.69583 118.861 8.10083 119.402 7.7725L119.574 7.08333H119.125C118.974 7.08333 118.828 7.02863 118.714 6.92936C118.6 6.83009 118.526 6.69296 118.506 6.54333L118.5 6.45833C118.5 6.3073 118.555 6.16138 118.654 6.04756C118.753 5.93373 118.89 5.85971 119.04 5.83917L119.125 5.83333H119.886L120.207 4.55167C120.354 3.96566 120.692 3.44543 121.168 3.07368C121.644 2.70193 122.231 2.5 122.835 2.5H129.166H129.167ZM121.419 15.4167H119.749L119.75 16.4558C119.75 16.5708 119.843 16.6642 119.958 16.6642H121.212C121.267 16.6642 121.32 16.6422 121.359 16.6031C121.398 16.5641 121.42 16.5111 121.42 16.4558V15.4167H121.419ZM132.253 15.4167H130.582L130.583 16.4558C130.583 16.5708 130.676 16.6642 130.791 16.6642H132.044C132.099 16.6642 132.152 16.6422 132.191 16.6031C132.231 16.5641 132.253 16.5111 132.253 16.4558V15.4167ZM131.628 8.75H120.375C120.209 8.75 120.05 8.81585 119.933 8.93306C119.816 9.05027 119.75 9.20924 119.75 9.375V14.1667H132.253V9.375C132.253 9.20924 132.187 9.05027 132.07 8.93306C131.953 8.81585 131.794 8.75 131.628 8.75H131.628ZM124.542 11.6667H127.46C127.618 11.6669 127.771 11.7272 127.886 11.8354C128.002 11.9436 128.072 12.0916 128.083 12.2495C128.093 12.4074 128.044 12.5635 127.944 12.6862C127.844 12.809 127.701 12.8893 127.544 12.9108L127.46 12.9167H124.542C124.383 12.9166 124.231 12.8565 124.115 12.7484C123.999 12.6402 123.929 12.4923 123.918 12.3343C123.908 12.1763 123.957 12.0201 124.057 11.8973C124.157 11.7744 124.3 11.6941 124.457 11.6725L124.542 11.6667H127.46H124.542ZM130.167 10C130.388 10 130.6 10.0878 130.756 10.2441C130.912 10.4004 131 10.6123 131 10.8333C131 11.0543 130.912 11.2663 130.756 11.4226C130.6 11.5789 130.388 11.6667 130.167 11.6667C129.946 11.6667 129.734 11.5789 129.577 11.4226C129.421 11.2663 129.333 11.0543 129.333 10.8333C129.333 10.6123 129.421 10.4004 129.577 10.2441C129.734 10.0878 129.946 10 130.167 10ZM121.833 10C122.054 10 122.266 10.0878 122.423 10.2441C122.579 10.4004 122.667 10.6123 122.667 10.8333C122.667 11.0543 122.579 11.2663 122.423 11.4226C122.266 11.5789 122.054 11.6667 121.833 11.6667C121.612 11.6667 121.4 11.5789 121.244 11.4226C121.088 11.2663 121 11.0543 121 10.8333C121 10.6123 121.088 10.4004 121.244 10.2441C121.4 10.0878 121.612 10 121.833 10ZM129.167 3.75H122.834C122.509 3.74997 122.193 3.85872 121.936 4.05895C121.68 4.25917 121.498 4.53938 121.419 4.855L120.759 7.5H131.244L130.581 4.85333C130.502 4.53802 130.319 4.25819 130.063 4.05829C129.807 3.85839 129.491 3.74988 129.166 3.75H129.167Z" fill="#404040"/>
<path d="M158.167 2.5C158.77 2.5001 159.357 2.70187 159.833 3.07328C160.308 3.44469 160.647 3.96444 160.793 4.55L161.114 5.83333H161.875C162.026 5.83334 162.172 5.88804 162.286 5.98731C162.4 6.08658 162.474 6.2237 162.494 6.37333L162.5 6.45833C162.5 6.60936 162.445 6.75528 162.346 6.86911C162.247 6.98293 162.11 7.05696 161.96 7.0775L161.875 7.08333H161.428L161.602 7.77167C161.877 7.93886 162.105 8.17425 162.263 8.4551C162.421 8.73595 162.504 9.05278 162.503 9.375V16.4558C162.503 16.8426 162.35 17.2135 162.076 17.487C161.803 17.7605 161.432 17.9142 161.045 17.9142H159.792C159.405 17.9142 159.034 17.7605 158.76 17.487C158.487 17.2135 158.333 16.8426 158.333 16.4558L158.333 15.4167H151.67V16.4558C151.67 16.8426 151.516 17.2135 151.243 17.487C150.969 17.7605 150.598 17.9142 150.212 17.9142H148.958C148.572 17.9142 148.201 17.7605 147.927 17.487C147.654 17.2135 147.5 16.8426 147.5 16.4558V9.375C147.5 8.69583 147.861 8.10083 148.402 7.7725L148.574 7.08333H148.125C147.974 7.08333 147.828 7.02863 147.714 6.92936C147.6 6.83009 147.526 6.69296 147.506 6.54333L147.5 6.45833C147.5 6.3073 147.555 6.16138 147.654 6.04756C147.753 5.93373 147.89 5.85971 148.04 5.83917L148.125 5.83333H148.886L149.207 4.55167C149.354 3.96566 149.692 3.44543 150.168 3.07368C150.644 2.70193 151.231 2.5 151.835 2.5H158.166H158.167ZM150.419 15.4167H148.749L148.75 16.4558C148.75 16.5708 148.843 16.6642 148.958 16.6642H150.212C150.267 16.6642 150.32 16.6422 150.359 16.6031C150.398 16.5641 150.42 16.5111 150.42 16.4558V15.4167H150.419ZM161.253 15.4167H159.582L159.583 16.4558C159.583 16.5708 159.676 16.6642 159.791 16.6642H161.044C161.099 16.6642 161.152 16.6422 161.191 16.6031C161.231 16.5641 161.253 16.5111 161.253 16.4558V15.4167ZM160.628 8.75H149.375C149.209 8.75 149.05 8.81585 148.933 8.93306C148.816 9.05027 148.75 9.20924 148.75 9.375V14.1667H161.253V9.375C161.253 9.20924 161.187 9.05027 161.07 8.93306C160.953 8.81585 160.794 8.75 160.628 8.75H160.628ZM153.542 11.6667H156.46C156.618 11.6669 156.771 11.7272 156.886 11.8354C157.002 11.9436 157.072 12.0916 157.083 12.2495C157.093 12.4074 157.044 12.5635 156.944 12.6862C156.844 12.809 156.701 12.8893 156.544 12.9108L156.46 12.9167H153.542C153.383 12.9166 153.231 12.8565 153.115 12.7484C152.999 12.6402 152.929 12.4923 152.918 12.3343C152.908 12.1763 152.957 12.0201 153.057 11.8973C153.157 11.7744 153.3 11.6941 153.457 11.6725L153.542 11.6667H156.46H153.542ZM159.167 10C159.388 10 159.6 10.0878 159.756 10.2441C159.912 10.4004 160 10.6123 160 10.8333C160 11.0543 159.912 11.2663 159.756 11.4226C159.6 11.5789 159.388 11.6667 159.167 11.6667C158.946 11.6667 158.734 11.5789 158.577 11.4226C158.421 11.2663 158.333 11.0543 158.333 10.8333C158.333 10.6123 158.421 10.4004 158.577 10.2441C158.734 10.0878 158.946 10 159.167 10ZM150.833 10C151.054 10 151.266 10.0878 151.423 10.2441C151.579 10.4004 151.667 10.6123 151.667 10.8333C151.667 11.0543 151.579 11.2663 151.423 11.4226C151.266 11.5789 151.054 11.6667 150.833 11.6667C150.612 11.6667 150.4 11.5789 150.244 11.4226C150.088 11.2663 150 11.0543 150 10.8333C150 10.6123 150.088 10.4004 150.244 10.2441C150.4 10.0878 150.612 10 150.833 10ZM158.167 3.75H151.834C151.509 3.74997 151.193 3.85872 150.936 4.05895C150.68 4.25917 150.498 4.53938 150.419 4.855L149.759 7.5H160.244L159.581 4.85333C159.502 4.53802 159.319 4.25819 159.063 4.05829C158.807 3.85839 158.491 3.74988 158.166 3.75H158.167Z" fill="#404040"/>
<path d="M187.167 2.5C187.77 2.5001 188.357 2.70187 188.833 3.07328C189.308 3.44469 189.647 3.96444 189.793 4.55L190.114 5.83333H190.875C191.026 5.83334 191.172 5.88804 191.286 5.98731C191.4 6.08658 191.474 6.2237 191.494 6.37333L191.5 6.45833C191.5 6.60936 191.445 6.75528 191.346 6.86911C191.247 6.98293 191.11 7.05696 190.96 7.0775L190.875 7.08333H190.428L190.602 7.77167C190.877 7.93886 191.105 8.17425 191.263 8.4551C191.421 8.73595 191.504 9.05278 191.503 9.375V16.4558C191.503 16.8426 191.35 17.2135 191.076 17.487C190.803 17.7605 190.432 17.9142 190.045 17.9142H188.792C188.405 17.9142 188.034 17.7605 187.76 17.487C187.487 17.2135 187.333 16.8426 187.333 16.4558L187.333 15.4167H180.67V16.4558C180.67 16.8426 180.516 17.2135 180.243 17.487C179.969 17.7605 179.598 17.9142 179.212 17.9142H177.958C177.572 17.9142 177.201 17.7605 176.927 17.487C176.654 17.2135 176.5 16.8426 176.5 16.4558V9.375C176.5 8.69583 176.861 8.10083 177.402 7.7725L177.574 7.08333H177.125C176.974 7.08333 176.828 7.02863 176.714 6.92936C176.6 6.83009 176.526 6.69296 176.506 6.54333L176.5 6.45833C176.5 6.3073 176.555 6.16138 176.654 6.04756C176.753 5.93373 176.89 5.85971 177.04 5.83917L177.125 5.83333H177.886L178.207 4.55167C178.354 3.96566 178.692 3.44543 179.168 3.07368C179.644 2.70193 180.231 2.5 180.835 2.5H187.166H187.167ZM179.419 15.4167H177.749L177.75 16.4558C177.75 16.5708 177.843 16.6642 177.958 16.6642H179.212C179.267 16.6642 179.32 16.6422 179.359 16.6031C179.398 16.5641 179.42 16.5111 179.42 16.4558V15.4167H179.419ZM190.253 15.4167H188.582L188.583 16.4558C188.583 16.5708 188.676 16.6642 188.791 16.6642H190.044C190.099 16.6642 190.152 16.6422 190.191 16.6031C190.231 16.5641 190.253 16.5111 190.253 16.4558V15.4167ZM189.628 8.75H178.375C178.209 8.75 178.05 8.81585 177.933 8.93306C177.816 9.05027 177.75 9.20924 177.75 9.375V14.1667H190.253V9.375C190.253 9.20924 190.187 9.05027 190.07 8.93306C189.953 8.81585 189.794 8.75 189.628 8.75H189.628ZM182.542 11.6667H185.46C185.618 11.6669 185.771 11.7272 185.886 11.8354C186.002 11.9436 186.072 12.0916 186.083 12.2495C186.093 12.4074 186.044 12.5635 185.944 12.6862C185.844 12.809 185.701 12.8893 185.544 12.9108L185.46 12.9167H182.542C182.383 12.9166 182.231 12.8565 182.115 12.7484C181.999 12.6402 181.929 12.4923 181.918 12.3343C181.908 12.1763 181.957 12.0201 182.057 11.8973C182.157 11.7744 182.3 11.6941 182.457 11.6725L182.542 11.6667H185.46H182.542ZM188.167 10C188.388 10 188.6 10.0878 188.756 10.2441C188.912 10.4004 189 10.6123 189 10.8333C189 11.0543 188.912 11.2663 188.756 11.4226C188.6 11.5789 188.388 11.6667 188.167 11.6667C187.946 11.6667 187.734 11.5789 187.577 11.4226C187.421 11.2663 187.333 11.0543 187.333 10.8333C187.333 10.6123 187.421 10.4004 187.577 10.2441C187.734 10.0878 187.946 10 188.167 10ZM179.833 10C180.054 10 180.266 10.0878 180.423 10.2441C180.579 10.4004 180.667 10.6123 180.667 10.8333C180.667 11.0543 180.579 11.2663 180.423 11.4226C180.266 11.5789 180.054 11.6667 179.833 11.6667C179.612 11.6667 179.4 11.5789 179.244 11.4226C179.088 11.2663 179 11.0543 179 10.8333C179 10.6123 179.088 10.4004 179.244 10.2441C179.4 10.0878 179.612 10 179.833 10ZM187.167 3.75H180.834C180.509 3.74997 180.193 3.85872 179.936 4.05895C179.68 4.25917 179.498 4.53938 179.419 4.855L178.759 7.5H189.244L188.581 4.85333C188.502 4.53802 188.319 4.25819 188.063 4.05829C187.807 3.85839 187.491 3.74988 187.166 3.75H187.167Z" fill="#404040"/>
<path d="M216.167 2.5C216.77 2.5001 217.357 2.70187 217.833 3.07328C218.308 3.44469 218.647 3.96444 218.793 4.55L219.114 5.83333H219.875C220.026 5.83334 220.172 5.88804 220.286 5.98731C220.4 6.08658 220.474 6.2237 220.494 6.37333L220.5 6.45833C220.5 6.60936 220.445 6.75528 220.346 6.86911C220.247 6.98293 220.11 7.05696 219.96 7.0775L219.875 7.08333H219.428L219.602 7.77167C219.877 7.93886 220.105 8.17425 220.263 8.4551C220.421 8.73595 220.504 9.05278 220.503 9.375V16.4558C220.503 16.8426 220.35 17.2135 220.076 17.487C219.803 17.7605 219.432 17.9142 219.045 17.9142H217.792C217.405 17.9142 217.034 17.7605 216.76 17.487C216.487 17.2135 216.333 16.8426 216.333 16.4558L216.333 15.4167H209.67V16.4558C209.67 16.8426 209.516 17.2135 209.243 17.487C208.969 17.7605 208.598 17.9142 208.212 17.9142H206.958C206.572 17.9142 206.201 17.7605 205.927 17.487C205.654 17.2135 205.5 16.8426 205.5 16.4558V9.375C205.5 8.69583 205.861 8.10083 206.402 7.7725L206.574 7.08333H206.125C205.974 7.08333 205.828 7.02863 205.714 6.92936C205.6 6.83009 205.526 6.69296 205.506 6.54333L205.5 6.45833C205.5 6.3073 205.555 6.16138 205.654 6.04756C205.753 5.93373 205.89 5.85971 206.04 5.83917L206.125 5.83333H206.886L207.207 4.55167C207.354 3.96566 207.692 3.44543 208.168 3.07368C208.644 2.70193 209.231 2.5 209.835 2.5H216.166H216.167ZM208.419 15.4167H206.749L206.75 16.4558C206.75 16.5708 206.843 16.6642 206.958 16.6642H208.212C208.267 16.6642 208.32 16.6422 208.359 16.6031C208.398 16.5641 208.42 16.5111 208.42 16.4558V15.4167H208.419ZM219.253 15.4167H217.582L217.583 16.4558C217.583 16.5708 217.676 16.6642 217.791 16.6642H219.044C219.099 16.6642 219.152 16.6422 219.191 16.6031C219.231 16.5641 219.253 16.5111 219.253 16.4558V15.4167ZM218.628 8.75H207.375C207.209 8.75 207.05 8.81585 206.933 8.93306C206.816 9.05027 206.75 9.20924 206.75 9.375V14.1667H219.253V9.375C219.253 9.20924 219.187 9.05027 219.07 8.93306C218.953 8.81585 218.794 8.75 218.628 8.75H218.628ZM211.542 11.6667H214.46C214.618 11.6669 214.771 11.7272 214.886 11.8354C215.002 11.9436 215.072 12.0916 215.083 12.2495C215.093 12.4074 215.044 12.5635 214.944 12.6862C214.844 12.809 214.701 12.8893 214.544 12.9108L214.46 12.9167H211.542C211.383 12.9166 211.231 12.8565 211.115 12.7484C210.999 12.6402 210.929 12.4923 210.918 12.3343C210.908 12.1763 210.957 12.0201 211.057 11.8973C211.157 11.7744 211.3 11.6941 211.457 11.6725L211.542 11.6667H214.46H211.542ZM217.167 10C217.388 10 217.6 10.0878 217.756 10.2441C217.912 10.4004 218 10.6123 218 10.8333C218 11.0543 217.912 11.2663 217.756 11.4226C217.6 11.5789 217.388 11.6667 217.167 11.6667C216.946 11.6667 216.734 11.5789 216.577 11.4226C216.421 11.2663 216.333 11.0543 216.333 10.8333C216.333 10.6123 216.421 10.4004 216.577 10.2441C216.734 10.0878 216.946 10 217.167 10ZM208.833 10C209.054 10 209.266 10.0878 209.423 10.2441C209.579 10.4004 209.667 10.6123 209.667 10.8333C209.667 11.0543 209.579 11.2663 209.423 11.4226C209.266 11.5789 209.054 11.6667 208.833 11.6667C208.612 11.6667 208.4 11.5789 208.244 11.4226C208.088 11.2663 208 11.0543 208 10.8333C208 10.6123 208.088 10.4004 208.244 10.2441C208.4 10.0878 208.612 10 208.833 10ZM216.167 3.75H209.834C209.509 3.74997 209.193 3.85872 208.936 4.05895C208.68 4.25917 208.498 4.53938 208.419 4.855L207.759 7.5H218.244L217.581 4.85333C217.502 4.53802 217.319 4.25819 217.063 4.05829C216.807 3.85839 216.491 3.74988 216.166 3.75H216.167Z" fill="#404040"/>
<path d="M245.167 2.5C245.77 2.5001 246.357 2.70187 246.833 3.07328C247.308 3.44469 247.647 3.96444 247.793 4.55L248.114 5.83333H248.875C249.026 5.83334 249.172 5.88804 249.286 5.98731C249.4 6.08658 249.474 6.2237 249.494 6.37333L249.5 6.45833C249.5 6.60936 249.445 6.75528 249.346 6.86911C249.247 6.98293 249.11 7.05696 248.96 7.0775L248.875 7.08333H248.428L248.602 7.77167C248.877 7.93886 249.105 8.17425 249.263 8.4551C249.421 8.73595 249.504 9.05278 249.503 9.375V16.4558C249.503 16.8426 249.35 17.2135 249.076 17.487C248.803 17.7605 248.432 17.9142 248.045 17.9142H246.792C246.405 17.9142 246.034 17.7605 245.76 17.487C245.487 17.2135 245.333 16.8426 245.333 16.4558L245.333 15.4167H238.67V16.4558C238.67 16.8426 238.516 17.2135 238.243 17.487C237.969 17.7605 237.598 17.9142 237.212 17.9142H235.958C235.572 17.9142 235.201 17.7605 234.927 17.487C234.654 17.2135 234.5 16.8426 234.5 16.4558V9.375C234.5 8.69583 234.861 8.10083 235.402 7.7725L235.574 7.08333H235.125C234.974 7.08333 234.828 7.02863 234.714 6.92936C234.6 6.83009 234.526 6.69296 234.506 6.54333L234.5 6.45833C234.5 6.3073 234.555 6.16138 234.654 6.04756C234.753 5.93373 234.89 5.85971 235.04 5.83917L235.125 5.83333H235.886L236.207 4.55167C236.354 3.96566 236.692 3.44543 237.168 3.07368C237.644 2.70193 238.231 2.5 238.835 2.5H245.166H245.167ZM237.419 15.4167H235.749L235.75 16.4558C235.75 16.5708 235.843 16.6642 235.958 16.6642H237.212C237.267 16.6642 237.32 16.6422 237.359 16.6031C237.398 16.5641 237.42 16.5111 237.42 16.4558V15.4167H237.419ZM248.253 15.4167H246.582L246.583 16.4558C246.583 16.5708 246.676 16.6642 246.791 16.6642H248.044C248.099 16.6642 248.152 16.6422 248.191 16.6031C248.231 16.5641 248.253 16.5111 248.253 16.4558V15.4167ZM247.628 8.75H236.375C236.209 8.75 236.05 8.81585 235.933 8.93306C235.816 9.05027 235.75 9.20924 235.75 9.375V14.1667H248.253V9.375C248.253 9.20924 248.187 9.05027 248.07 8.93306C247.953 8.81585 247.794 8.75 247.628 8.75H247.628ZM240.542 11.6667H243.46C243.618 11.6669 243.771 11.7272 243.886 11.8354C244.002 11.9436 244.072 12.0916 244.083 12.2495C244.093 12.4074 244.044 12.5635 243.944 12.6862C243.844 12.809 243.701 12.8893 243.544 12.9108L243.46 12.9167H240.542C240.383 12.9166 240.231 12.8565 240.115 12.7484C239.999 12.6402 239.929 12.4923 239.918 12.3343C239.908 12.1763 239.957 12.0201 240.057 11.8973C240.157 11.7744 240.3 11.6941 240.457 11.6725L240.542 11.6667H243.46H240.542ZM246.167 10C246.388 10 246.6 10.0878 246.756 10.2441C246.912 10.4004 247 10.6123 247 10.8333C247 11.0543 246.912 11.2663 246.756 11.4226C246.6 11.5789 246.388 11.6667 246.167 11.6667C245.946 11.6667 245.734 11.5789 245.577 11.4226C245.421 11.2663 245.333 11.0543 245.333 10.8333C245.333 10.6123 245.421 10.4004 245.577 10.2441C245.734 10.0878 245.946 10 246.167 10ZM237.833 10C238.054 10 238.266 10.0878 238.423 10.2441C238.579 10.4004 238.667 10.6123 238.667 10.8333C238.667 11.0543 238.579 11.2663 238.423 11.4226C238.266 11.5789 238.054 11.6667 237.833 11.6667C237.612 11.6667 237.4 11.5789 237.244 11.4226C237.088 11.2663 237 11.0543 237 10.8333C237 10.6123 237.088 10.4004 237.244 10.2441C237.4 10.0878 237.612 10 237.833 10ZM245.167 3.75H238.834C238.509 3.74997 238.193 3.85872 237.936 4.05895C237.68 4.25917 237.498 4.53938 237.419 4.855L236.759 7.5H247.244L246.581 4.85333C246.502 4.53802 246.319 4.25819 246.063 4.05829C245.807 3.85839 245.491 3.74988 245.166 3.75H245.167Z" fill="#404040"/>
<path d="M274.167 2.5C274.77 2.5001 275.357 2.70187 275.833 3.07328C276.308 3.44469 276.647 3.96444 276.793 4.55L277.114 5.83333H277.875C278.026 5.83334 278.172 5.88804 278.286 5.98731C278.4 6.08658 278.474 6.2237 278.494 6.37333L278.5 6.45833C278.5 6.60936 278.445 6.75528 278.346 6.86911C278.247 6.98293 278.11 7.05696 277.96 7.0775L277.875 7.08333H277.428L277.602 7.77167C277.877 7.93886 278.105 8.17425 278.263 8.4551C278.421 8.73595 278.504 9.05278 278.503 9.375V16.4558C278.503 16.8426 278.35 17.2135 278.076 17.487C277.803 17.7605 277.432 17.9142 277.045 17.9142H275.792C275.405 17.9142 275.034 17.7605 274.76 17.487C274.487 17.2135 274.333 16.8426 274.333 16.4558L274.333 15.4167H267.67V16.4558C267.67 16.8426 267.516 17.2135 267.243 17.487C266.969 17.7605 266.598 17.9142 266.212 17.9142H264.958C264.572 17.9142 264.201 17.7605 263.927 17.487C263.654 17.2135 263.5 16.8426 263.5 16.4558V9.375C263.5 8.69583 263.861 8.10083 264.402 7.7725L264.574 7.08333H264.125C263.974 7.08333 263.828 7.02863 263.714 6.92936C263.6 6.83009 263.526 6.69296 263.506 6.54333L263.5 6.45833C263.5 6.3073 263.555 6.16138 263.654 6.04756C263.753 5.93373 263.89 5.85971 264.04 5.83917L264.125 5.83333H264.886L265.207 4.55167C265.354 3.96566 265.692 3.44543 266.168 3.07368C266.644 2.70193 267.231 2.5 267.835 2.5H274.166H274.167ZM266.419 15.4167H264.749L264.75 16.4558C264.75 16.5708 264.843 16.6642 264.958 16.6642H266.212C266.267 16.6642 266.32 16.6422 266.359 16.6031C266.398 16.5641 266.42 16.5111 266.42 16.4558V15.4167H266.419ZM277.253 15.4167H275.582L275.583 16.4558C275.583 16.5708 275.676 16.6642 275.791 16.6642H277.044C277.099 16.6642 277.152 16.6422 277.191 16.6031C277.231 16.5641 277.253 16.5111 277.253 16.4558V15.4167ZM276.628 8.75H265.375C265.209 8.75 265.05 8.81585 264.933 8.93306C264.816 9.05027 264.75 9.20924 264.75 9.375V14.1667H277.253V9.375C277.253 9.20924 277.187 9.05027 277.07 8.93306C276.953 8.81585 276.794 8.75 276.628 8.75H276.628ZM269.542 11.6667H272.46C272.618 11.6669 272.771 11.7272 272.886 11.8354C273.002 11.9436 273.072 12.0916 273.083 12.2495C273.093 12.4074 273.044 12.5635 272.944 12.6862C272.844 12.809 272.701 12.8893 272.544 12.9108L272.46 12.9167H269.542C269.383 12.9166 269.231 12.8565 269.115 12.7484C268.999 12.6402 268.929 12.4923 268.918 12.3343C268.908 12.1763 268.957 12.0201 269.057 11.8973C269.157 11.7744 269.3 11.6941 269.457 11.6725L269.542 11.6667H272.46H269.542ZM275.167 10C275.388 10 275.6 10.0878 275.756 10.2441C275.912 10.4004 276 10.6123 276 10.8333C276 11.0543 275.912 11.2663 275.756 11.4226C275.6 11.5789 275.388 11.6667 275.167 11.6667C274.946 11.6667 274.734 11.5789 274.577 11.4226C274.421 11.2663 274.333 11.0543 274.333 10.8333C274.333 10.6123 274.421 10.4004 274.577 10.2441C274.734 10.0878 274.946 10 275.167 10ZM266.833 10C267.054 10 267.266 10.0878 267.423 10.2441C267.579 10.4004 267.667 10.6123 267.667 10.8333C267.667 11.0543 267.579 11.2663 267.423 11.4226C267.266 11.5789 267.054 11.6667 266.833 11.6667C266.612 11.6667 266.4 11.5789 266.244 11.4226C266.088 11.2663 266 11.0543 266 10.8333C266 10.6123 266.088 10.4004 266.244 10.2441C266.4 10.0878 266.612 10 266.833 10ZM274.167 3.75H267.834C267.509 3.74997 267.193 3.85872 266.936 4.05895C266.68 4.25917 266.498 4.53938 266.419 4.855L265.759 7.5H276.244L275.581 4.85333C275.502 4.53802 275.319 4.25819 275.063 4.05829C274.807 3.85839 274.491 3.74988 274.166 3.75H274.167Z" fill="#404040"/>
<path d="M303.167 2.5C303.77 2.5001 304.357 2.70187 304.833 3.07328C305.308 3.44469 305.647 3.96444 305.793 4.55L306.114 5.83333H306.875C307.026 5.83334 307.172 5.88804 307.286 5.98731C307.4 6.08658 307.474 6.2237 307.494 6.37333L307.5 6.45833C307.5 6.60936 307.445 6.75528 307.346 6.86911C307.247 6.98293 307.11 7.05696 306.96 7.0775L306.875 7.08333H306.428L306.602 7.77167C306.877 7.93886 307.105 8.17425 307.263 8.4551C307.421 8.73595 307.504 9.05278 307.503 9.375V16.4558C307.503 16.8426 307.35 17.2135 307.076 17.487C306.803 17.7605 306.432 17.9142 306.045 17.9142H304.792C304.405 17.9142 304.034 17.7605 303.76 17.487C303.487 17.2135 303.333 16.8426 303.333 16.4558L303.333 15.4167H296.67V16.4558C296.67 16.8426 296.516 17.2135 296.243 17.487C295.969 17.7605 295.598 17.9142 295.212 17.9142H293.958C293.572 17.9142 293.201 17.7605 292.927 17.487C292.654 17.2135 292.5 16.8426 292.5 16.4558V9.375C292.5 8.69583 292.861 8.10083 293.402 7.7725L293.574 7.08333H293.125C292.974 7.08333 292.828 7.02863 292.714 6.92936C292.6 6.83009 292.526 6.69296 292.506 6.54333L292.5 6.45833C292.5 6.3073 292.555 6.16138 292.654 6.04756C292.753 5.93373 292.89 5.85971 293.04 5.83917L293.125 5.83333H293.886L294.207 4.55167C294.354 3.96566 294.692 3.44543 295.168 3.07368C295.644 2.70193 296.231 2.5 296.835 2.5H303.166H303.167ZM295.419 15.4167H293.749L293.75 16.4558C293.75 16.5708 293.843 16.6642 293.958 16.6642H295.212C295.267 16.6642 295.32 16.6422 295.359 16.6031C295.398 16.5641 295.42 16.5111 295.42 16.4558V15.4167H295.419ZM306.253 15.4167H304.582L304.583 16.4558C304.583 16.5708 304.676 16.6642 304.791 16.6642H306.044C306.099 16.6642 306.152 16.6422 306.191 16.6031C306.231 16.5641 306.253 16.5111 306.253 16.4558V15.4167ZM305.628 8.75H294.375C294.209 8.75 294.05 8.81585 293.933 8.93306C293.816 9.05027 293.75 9.20924 293.75 9.375V14.1667H306.253V9.375C306.253 9.20924 306.187 9.05027 306.07 8.93306C305.953 8.81585 305.794 8.75 305.628 8.75H305.628ZM298.542 11.6667H301.46C301.618 11.6669 301.771 11.7272 301.886 11.8354C302.002 11.9436 302.072 12.0916 302.083 12.2495C302.093 12.4074 302.044 12.5635 301.944 12.6862C301.844 12.809 301.701 12.8893 301.544 12.9108L301.46 12.9167H298.542C298.383 12.9166 298.231 12.8565 298.115 12.7484C297.999 12.6402 297.929 12.4923 297.918 12.3343C297.908 12.1763 297.957 12.0201 298.057 11.8973C298.157 11.7744 298.3 11.6941 298.457 11.6725L298.542 11.6667H301.46H298.542ZM304.167 10C304.388 10 304.6 10.0878 304.756 10.2441C304.912 10.4004 305 10.6123 305 10.8333C305 11.0543 304.912 11.2663 304.756 11.4226C304.6 11.5789 304.388 11.6667 304.167 11.6667C303.946 11.6667 303.734 11.5789 303.577 11.4226C303.421 11.2663 303.333 11.0543 303.333 10.8333C303.333 10.6123 303.421 10.4004 303.577 10.2441C303.734 10.0878 303.946 10 304.167 10ZM295.833 10C296.054 10 296.266 10.0878 296.423 10.2441C296.579 10.4004 296.667 10.6123 296.667 10.8333C296.667 11.0543 296.579 11.2663 296.423 11.4226C296.266 11.5789 296.054 11.6667 295.833 11.6667C295.612 11.6667 295.4 11.5789 295.244 11.4226C295.088 11.2663 295 11.0543 295 10.8333C295 10.6123 295.088 10.4004 295.244 10.2441C295.4 10.0878 295.612 10 295.833 10ZM303.167 3.75H296.834C296.509 3.74997 296.193 3.85872 295.936 4.05895C295.68 4.25917 295.498 4.53938 295.419 4.855L294.759 7.5H305.244L304.581 4.85333C304.502 4.53802 304.319 4.25819 304.063 4.05829C303.807 3.85839 303.491 3.74988 303.166 3.75H303.167Z" fill="#404040"/>
<path d="M332.167 2.5C332.77 2.5001 333.357 2.70187 333.833 3.07328C334.308 3.44469 334.647 3.96444 334.793 4.55L335.114 5.83333H335.875C336.026 5.83334 336.172 5.88804 336.286 5.98731C336.4 6.08658 336.474 6.2237 336.494 6.37333L336.5 6.45833C336.5 6.60936 336.445 6.75528 336.346 6.86911C336.247 6.98293 336.11 7.05696 335.96 7.0775L335.875 7.08333H335.428L335.602 7.77167C335.877 7.93886 336.105 8.17425 336.263 8.4551C336.421 8.73595 336.504 9.05278 336.503 9.375V16.4558C336.503 16.8426 336.35 17.2135 336.076 17.487C335.803 17.7605 335.432 17.9142 335.045 17.9142H333.792C333.405 17.9142 333.034 17.7605 332.76 17.487C332.487 17.2135 332.333 16.8426 332.333 16.4558L332.333 15.4167H325.67V16.4558C325.67 16.8426 325.516 17.2135 325.243 17.487C324.969 17.7605 324.598 17.9142 324.212 17.9142H322.958C322.572 17.9142 322.201 17.7605 321.927 17.487C321.654 17.2135 321.5 16.8426 321.5 16.4558V9.375C321.5 8.69583 321.861 8.10083 322.402 7.7725L322.574 7.08333H322.125C321.974 7.08333 321.828 7.02863 321.714 6.92936C321.6 6.83009 321.526 6.69296 321.506 6.54333L321.5 6.45833C321.5 6.3073 321.555 6.16138 321.654 6.04756C321.753 5.93373 321.89 5.85971 322.04 5.83917L322.125 5.83333H322.886L323.207 4.55167C323.354 3.96566 323.692 3.44543 324.168 3.07368C324.644 2.70193 325.231 2.5 325.835 2.5H332.166H332.167ZM324.419 15.4167H322.749L322.75 16.4558C322.75 16.5708 322.843 16.6642 322.958 16.6642H324.212C324.267 16.6642 324.32 16.6422 324.359 16.6031C324.398 16.5641 324.42 16.5111 324.42 16.4558V15.4167H324.419ZM335.253 15.4167H333.582L333.583 16.4558C333.583 16.5708 333.676 16.6642 333.791 16.6642H335.044C335.099 16.6642 335.152 16.6422 335.191 16.6031C335.231 16.5641 335.253 16.5111 335.253 16.4558V15.4167ZM334.628 8.75H323.375C323.209 8.75 323.05 8.81585 322.933 8.93306C322.816 9.05027 322.75 9.20924 322.75 9.375V14.1667H335.253V9.375C335.253 9.20924 335.187 9.05027 335.07 8.93306C334.953 8.81585 334.794 8.75 334.628 8.75H334.628ZM327.542 11.6667H330.46C330.618 11.6669 330.771 11.7272 330.886 11.8354C331.002 11.9436 331.072 12.0916 331.083 12.2495C331.093 12.4074 331.044 12.5635 330.944 12.6862C330.844 12.809 330.701 12.8893 330.544 12.9108L330.46 12.9167H327.542C327.383 12.9166 327.231 12.8565 327.115 12.7484C326.999 12.6402 326.929 12.4923 326.918 12.3343C326.908 12.1763 326.957 12.0201 327.057 11.8973C327.157 11.7744 327.3 11.6941 327.457 11.6725L327.542 11.6667H330.46H327.542ZM333.167 10C333.388 10 333.6 10.0878 333.756 10.2441C333.912 10.4004 334 10.6123 334 10.8333C334 11.0543 333.912 11.2663 333.756 11.4226C333.6 11.5789 333.388 11.6667 333.167 11.6667C332.946 11.6667 332.734 11.5789 332.577 11.4226C332.421 11.2663 332.333 11.0543 332.333 10.8333C332.333 10.6123 332.421 10.4004 332.577 10.2441C332.734 10.0878 332.946 10 333.167 10ZM324.833 10C325.054 10 325.266 10.0878 325.423 10.2441C325.579 10.4004 325.667 10.6123 325.667 10.8333C325.667 11.0543 325.579 11.2663 325.423 11.4226C325.266 11.5789 325.054 11.6667 324.833 11.6667C324.612 11.6667 324.4 11.5789 324.244 11.4226C324.088 11.2663 324 11.0543 324 10.8333C324 10.6123 324.088 10.4004 324.244 10.2441C324.4 10.0878 324.612 10 324.833 10ZM332.167 3.75H325.834C325.509 3.74997 325.193 3.85872 324.936 4.05895C324.68 4.25917 324.498 4.53938 324.419 4.855L323.759 7.5H334.244L333.581 4.85333C333.502 4.53802 333.319 4.25819 333.063 4.05829C332.807 3.85839 332.491 3.74988 332.166 3.75H332.167Z" fill="#404040"/>
<path d="M361.167 2.5C361.77 2.5001 362.357 2.70187 362.833 3.07328C363.308 3.44469 363.647 3.96444 363.793 4.55L364.114 5.83333H364.875C365.026 5.83334 365.172 5.88804 365.286 5.98731C365.4 6.08658 365.474 6.2237 365.494 6.37333L365.5 6.45833C365.5 6.60936 365.445 6.75528 365.346 6.86911C365.247 6.98293 365.11 7.05696 364.96 7.0775L364.875 7.08333H364.428L364.602 7.77167C364.877 7.93886 365.105 8.17425 365.263 8.4551C365.421 8.73595 365.504 9.05278 365.503 9.375V16.4558C365.503 16.8426 365.35 17.2135 365.076 17.487C364.803 17.7605 364.432 17.9142 364.045 17.9142H362.792C362.405 17.9142 362.034 17.7605 361.76 17.487C361.487 17.2135 361.333 16.8426 361.333 16.4558L361.333 15.4167H354.67V16.4558C354.67 16.8426 354.516 17.2135 354.243 17.487C353.969 17.7605 353.598 17.9142 353.212 17.9142H351.958C351.572 17.9142 351.201 17.7605 350.927 17.487C350.654 17.2135 350.5 16.8426 350.5 16.4558V9.375C350.5 8.69583 350.861 8.10083 351.402 7.7725L351.574 7.08333H351.125C350.974 7.08333 350.828 7.02863 350.714 6.92936C350.6 6.83009 350.526 6.69296 350.506 6.54333L350.5 6.45833C350.5 6.3073 350.555 6.16138 350.654 6.04756C350.753 5.93373 350.89 5.85971 351.04 5.83917L351.125 5.83333H351.886L352.207 4.55167C352.354 3.96566 352.692 3.44543 353.168 3.07368C353.644 2.70193 354.231 2.5 354.835 2.5H361.166H361.167ZM353.419 15.4167H351.749L351.75 16.4558C351.75 16.5708 351.843 16.6642 351.958 16.6642H353.212C353.267 16.6642 353.32 16.6422 353.359 16.6031C353.398 16.5641 353.42 16.5111 353.42 16.4558V15.4167H353.419ZM364.253 15.4167H362.582L362.583 16.4558C362.583 16.5708 362.676 16.6642 362.791 16.6642H364.044C364.099 16.6642 364.152 16.6422 364.191 16.6031C364.231 16.5641 364.253 16.5111 364.253 16.4558V15.4167ZM363.628 8.75H352.375C352.209 8.75 352.05 8.81585 351.933 8.93306C351.816 9.05027 351.75 9.20924 351.75 9.375V14.1667H364.253V9.375C364.253 9.20924 364.187 9.05027 364.07 8.93306C363.953 8.81585 363.794 8.75 363.628 8.75H363.628ZM356.542 11.6667H359.46C359.618 11.6669 359.771 11.7272 359.886 11.8354C360.002 11.9436 360.072 12.0916 360.083 12.2495C360.093 12.4074 360.044 12.5635 359.944 12.6862C359.844 12.809 359.701 12.8893 359.544 12.9108L359.46 12.9167H356.542C356.383 12.9166 356.231 12.8565 356.115 12.7484C355.999 12.6402 355.929 12.4923 355.918 12.3343C355.908 12.1763 355.957 12.0201 356.057 11.8973C356.157 11.7744 356.3 11.6941 356.457 11.6725L356.542 11.6667H359.46H356.542ZM362.167 10C362.388 10 362.6 10.0878 362.756 10.2441C362.912 10.4004 363 10.6123 363 10.8333C363 11.0543 362.912 11.2663 362.756 11.4226C362.6 11.5789 362.388 11.6667 362.167 11.6667C361.946 11.6667 361.734 11.5789 361.577 11.4226C361.421 11.2663 361.333 11.0543 361.333 10.8333C361.333 10.6123 361.421 10.4004 361.577 10.2441C361.734 10.0878 361.946 10 362.167 10ZM353.833 10C354.054 10 354.266 10.0878 354.423 10.2441C354.579 10.4004 354.667 10.6123 354.667 10.8333C354.667 11.0543 354.579 11.2663 354.423 11.4226C354.266 11.5789 354.054 11.6667 353.833 11.6667C353.612 11.6667 353.4 11.5789 353.244 11.4226C353.088 11.2663 353 11.0543 353 10.8333C353 10.6123 353.088 10.4004 353.244 10.2441C353.4 10.0878 353.612 10 353.833 10ZM361.167 3.75H354.834C354.509 3.74997 354.193 3.85872 353.936 4.05895C353.68 4.25917 353.498 4.53938 353.419 4.855L352.759 7.5H363.244L362.581 4.85333C362.502 4.53802 362.319 4.25819 362.063 4.05829C361.807 3.85839 361.491 3.74988 361.166 3.75H361.167Z" fill="#404040"/>
<path d="M390.167 2.5C390.77 2.5001 391.357 2.70187 391.833 3.07328C392.308 3.44469 392.647 3.96444 392.793 4.55L393.114 5.83333H393.875C394.026 5.83334 394.172 5.88804 394.286 5.98731C394.4 6.08658 394.474 6.2237 394.494 6.37333L394.5 6.45833C394.5 6.60936 394.445 6.75528 394.346 6.86911C394.247 6.98293 394.11 7.05696 393.96 7.0775L393.875 7.08333H393.428L393.602 7.77167C393.877 7.93886 394.105 8.17425 394.263 8.4551C394.421 8.73595 394.504 9.05278 394.503 9.375V16.4558C394.503 16.8426 394.35 17.2135 394.076 17.487C393.803 17.7605 393.432 17.9142 393.045 17.9142H391.792C391.405 17.9142 391.034 17.7605 390.76 17.487C390.487 17.2135 390.333 16.8426 390.333 16.4558L390.333 15.4167H383.67V16.4558C383.67 16.8426 383.516 17.2135 383.243 17.487C382.969 17.7605 382.598 17.9142 382.212 17.9142H380.958C380.572 17.9142 380.201 17.7605 379.927 17.487C379.654 17.2135 379.5 16.8426 379.5 16.4558V9.375C379.5 8.69583 379.861 8.10083 380.402 7.7725L380.574 7.08333H380.125C379.974 7.08333 379.828 7.02863 379.714 6.92936C379.6 6.83009 379.526 6.69296 379.506 6.54333L379.5 6.45833C379.5 6.3073 379.555 6.16138 379.654 6.04756C379.753 5.93373 379.89 5.85971 380.04 5.83917L380.125 5.83333H380.886L381.207 4.55167C381.354 3.96566 381.692 3.44543 382.168 3.07368C382.644 2.70193 383.231 2.5 383.835 2.5H390.166H390.167ZM382.419 15.4167H380.749L380.75 16.4558C380.75 16.5708 380.843 16.6642 380.958 16.6642H382.212C382.267 16.6642 382.32 16.6422 382.359 16.6031C382.398 16.5641 382.42 16.5111 382.42 16.4558V15.4167H382.419ZM393.253 15.4167H391.582L391.583 16.4558C391.583 16.5708 391.676 16.6642 391.791 16.6642H393.044C393.099 16.6642 393.152 16.6422 393.191 16.6031C393.231 16.5641 393.253 16.5111 393.253 16.4558V15.4167ZM392.628 8.75H381.375C381.209 8.75 381.05 8.81585 380.933 8.93306C380.816 9.05027 380.75 9.20924 380.75 9.375V14.1667H393.253V9.375C393.253 9.20924 393.187 9.05027 393.07 8.93306C392.953 8.81585 392.794 8.75 392.628 8.75H392.628ZM385.542 11.6667H388.46C388.618 11.6669 388.771 11.7272 388.886 11.8354C389.002 11.9436 389.072 12.0916 389.083 12.2495C389.093 12.4074 389.044 12.5635 388.944 12.6862C388.844 12.809 388.701 12.8893 388.544 12.9108L388.46 12.9167H385.542C385.383 12.9166 385.231 12.8565 385.115 12.7484C384.999 12.6402 384.929 12.4923 384.918 12.3343C384.908 12.1763 384.957 12.0201 385.057 11.8973C385.157 11.7744 385.3 11.6941 385.457 11.6725L385.542 11.6667H388.46H385.542ZM391.167 10C391.388 10 391.6 10.0878 391.756 10.2441C391.912 10.4004 392 10.6123 392 10.8333C392 11.0543 391.912 11.2663 391.756 11.4226C391.6 11.5789 391.388 11.6667 391.167 11.6667C390.946 11.6667 390.734 11.5789 390.577 11.4226C390.421 11.2663 390.333 11.0543 390.333 10.8333C390.333 10.6123 390.421 10.4004 390.577 10.2441C390.734 10.0878 390.946 10 391.167 10ZM382.833 10C383.054 10 383.266 10.0878 383.423 10.2441C383.579 10.4004 383.667 10.6123 383.667 10.8333C383.667 11.0543 383.579 11.2663 383.423 11.4226C383.266 11.5789 383.054 11.6667 382.833 11.6667C382.612 11.6667 382.4 11.5789 382.244 11.4226C382.088 11.2663 382 11.0543 382 10.8333C382 10.6123 382.088 10.4004 382.244 10.2441C382.4 10.0878 382.612 10 382.833 10ZM390.167 3.75H383.834C383.509 3.74997 383.193 3.85872 382.936 4.05895C382.68 4.25917 382.498 4.53938 382.419 4.855L381.759 7.5H392.244L391.581 4.85333C391.502 4.53802 391.319 4.25819 391.063 4.05829C390.807 3.85839 390.491 3.74988 390.166 3.75H390.167Z" fill="#404040"/>
<path d="M448.167 2.5C448.77 2.5001 449.357 2.70187 449.833 3.07328C450.308 3.44469 450.647 3.96444 450.793 4.55L451.114 5.83333H451.875C452.026 5.83334 452.172 5.88804 452.286 5.98731C452.4 6.08658 452.474 6.2237 452.494 6.37333L452.5 6.45833C452.5 6.60936 452.445 6.75528 452.346 6.86911C452.247 6.98293 452.11 7.05696 451.96 7.0775L451.875 7.08333H451.428L451.602 7.77167C451.877 7.93886 452.105 8.17425 452.263 8.4551C452.421 8.73595 452.504 9.05278 452.503 9.375V16.4558C452.503 16.8426 452.35 17.2135 452.076 17.487C451.803 17.7605 451.432 17.9142 451.045 17.9142H449.792C449.405 17.9142 449.034 17.7605 448.76 17.487C448.487 17.2135 448.333 16.8426 448.333 16.4558L448.333 15.4167H441.67V16.4558C441.67 16.8426 441.516 17.2135 441.243 17.487C440.969 17.7605 440.598 17.9142 440.212 17.9142H438.958C438.572 17.9142 438.201 17.7605 437.927 17.487C437.654 17.2135 437.5 16.8426 437.5 16.4558V9.375C437.5 8.69583 437.861 8.10083 438.402 7.7725L438.574 7.08333H438.125C437.974 7.08333 437.828 7.02863 437.714 6.92936C437.6 6.83009 437.526 6.69296 437.506 6.54333L437.5 6.45833C437.5 6.3073 437.555 6.16138 437.654 6.04756C437.753 5.93373 437.89 5.85971 438.04 5.83917L438.125 5.83333H438.886L439.207 4.55167C439.354 3.96566 439.692 3.44543 440.168 3.07368C440.644 2.70193 441.231 2.5 441.835 2.5H448.166H448.167ZM440.419 15.4167H438.749L438.75 16.4558C438.75 16.5708 438.843 16.6642 438.958 16.6642H440.212C440.267 16.6642 440.32 16.6422 440.359 16.6031C440.398 16.5641 440.42 16.5111 440.42 16.4558V15.4167H440.419ZM451.253 15.4167H449.582L449.583 16.4558C449.583 16.5708 449.676 16.6642 449.791 16.6642H451.044C451.099 16.6642 451.152 16.6422 451.191 16.6031C451.231 16.5641 451.253 16.5111 451.253 16.4558V15.4167ZM450.628 8.75H439.375C439.209 8.75 439.05 8.81585 438.933 8.93306C438.816 9.05027 438.75 9.20924 438.75 9.375V14.1667H451.253V9.375C451.253 9.20924 451.187 9.05027 451.07 8.93306C450.953 8.81585 450.794 8.75 450.628 8.75H450.628ZM443.542 11.6667H446.46C446.618 11.6669 446.771 11.7272 446.886 11.8354C447.002 11.9436 447.072 12.0916 447.083 12.2495C447.093 12.4074 447.044 12.5635 446.944 12.6862C446.844 12.809 446.701 12.8893 446.544 12.9108L446.46 12.9167H443.542C443.383 12.9166 443.231 12.8565 443.115 12.7484C442.999 12.6402 442.929 12.4923 442.918 12.3343C442.908 12.1763 442.957 12.0201 443.057 11.8973C443.157 11.7744 443.3 11.6941 443.457 11.6725L443.542 11.6667H446.46H443.542ZM449.167 10C449.388 10 449.6 10.0878 449.756 10.2441C449.912 10.4004 450 10.6123 450 10.8333C450 11.0543 449.912 11.2663 449.756 11.4226C449.6 11.5789 449.388 11.6667 449.167 11.6667C448.946 11.6667 448.734 11.5789 448.577 11.4226C448.421 11.2663 448.333 11.0543 448.333 10.8333C448.333 10.6123 448.421 10.4004 448.577 10.2441C448.734 10.0878 448.946 10 449.167 10ZM440.833 10C441.054 10 441.266 10.0878 441.423 10.2441C441.579 10.4004 441.667 10.6123 441.667 10.8333C441.667 11.0543 441.579 11.2663 441.423 11.4226C441.266 11.5789 441.054 11.6667 440.833 11.6667C440.612 11.6667 440.4 11.5789 440.244 11.4226C440.088 11.2663 440 11.0543 440 10.8333C440 10.6123 440.088 10.4004 440.244 10.2441C440.4 10.0878 440.612 10 440.833 10ZM448.167 3.75H441.834C441.509 3.74997 441.193 3.85872 440.936 4.05895C440.68 4.25917 440.498 4.53938 440.419 4.855L439.759 7.5H450.244L449.581 4.85333C449.502 4.53802 449.319 4.25819 449.063 4.05829C448.807 3.85839 448.491 3.74988 448.166 3.75H448.167Z" fill="#404040"/>
<path d="M419.167 2.5C419.77 2.5001 420.357 2.70187 420.833 3.07328C421.308 3.44469 421.647 3.96444 421.793 4.55L422.114 5.83333H422.875C423.026 5.83334 423.172 5.88804 423.286 5.98731C423.4 6.08658 423.474 6.2237 423.494 6.37333L423.5 6.45833C423.5 6.60936 423.445 6.75528 423.346 6.86911C423.247 6.98293 423.11 7.05696 422.96 7.0775L422.875 7.08333H422.428L422.602 7.77167C422.877 7.93886 423.105 8.17425 423.263 8.4551C423.421 8.73595 423.504 9.05278 423.503 9.375V16.4558C423.503 16.8426 423.35 17.2135 423.076 17.487C422.803 17.7605 422.432 17.9142 422.045 17.9142H420.792C420.405 17.9142 420.034 17.7605 419.76 17.487C419.487 17.2135 419.333 16.8426 419.333 16.4558L419.333 15.4167H412.67V16.4558C412.67 16.8426 412.516 17.2135 412.243 17.487C411.969 17.7605 411.598 17.9142 411.212 17.9142H409.958C409.572 17.9142 409.201 17.7605 408.927 17.487C408.654 17.2135 408.5 16.8426 408.5 16.4558V9.375C408.5 8.69583 408.861 8.10083 409.402 7.7725L409.574 7.08333H409.125C408.974 7.08333 408.828 7.02863 408.714 6.92936C408.6 6.83009 408.526 6.69296 408.506 6.54333L408.5 6.45833C408.5 6.3073 408.555 6.16138 408.654 6.04756C408.753 5.93373 408.89 5.85971 409.04 5.83917L409.125 5.83333H409.886L410.207 4.55167C410.354 3.96566 410.692 3.44543 411.168 3.07368C411.644 2.70193 412.231 2.5 412.835 2.5H419.166H419.167ZM411.419 15.4167H409.749L409.75 16.4558C409.75 16.5708 409.843 16.6642 409.958 16.6642H411.212C411.267 16.6642 411.32 16.6422 411.359 16.6031C411.398 16.5641 411.42 16.5111 411.42 16.4558V15.4167H411.419ZM422.253 15.4167H420.582L420.583 16.4558C420.583 16.5708 420.676 16.6642 420.791 16.6642H422.044C422.099 16.6642 422.152 16.6422 422.191 16.6031C422.231 16.5641 422.253 16.5111 422.253 16.4558V15.4167ZM421.628 8.75H410.375C410.209 8.75 410.05 8.81585 409.933 8.93306C409.816 9.05027 409.75 9.20924 409.75 9.375V14.1667H422.253V9.375C422.253 9.20924 422.187 9.05027 422.07 8.93306C421.953 8.81585 421.794 8.75 421.628 8.75H421.628ZM414.542 11.6667H417.46C417.618 11.6669 417.771 11.7272 417.886 11.8354C418.002 11.9436 418.072 12.0916 418.083 12.2495C418.093 12.4074 418.044 12.5635 417.944 12.6862C417.844 12.809 417.701 12.8893 417.544 12.9108L417.46 12.9167H414.542C414.383 12.9166 414.231 12.8565 414.115 12.7484C413.999 12.6402 413.929 12.4923 413.918 12.3343C413.908 12.1763 413.957 12.0201 414.057 11.8973C414.157 11.7744 414.3 11.6941 414.457 11.6725L414.542 11.6667H417.46H414.542ZM420.167 10C420.388 10 420.6 10.0878 420.756 10.2441C420.912 10.4004 421 10.6123 421 10.8333C421 11.0543 420.912 11.2663 420.756 11.4226C420.6 11.5789 420.388 11.6667 420.167 11.6667C419.946 11.6667 419.734 11.5789 419.577 11.4226C419.421 11.2663 419.333 11.0543 419.333 10.8333C419.333 10.6123 419.421 10.4004 419.577 10.2441C419.734 10.0878 419.946 10 420.167 10ZM411.833 10C412.054 10 412.266 10.0878 412.423 10.2441C412.579 10.4004 412.667 10.6123 412.667 10.8333C412.667 11.0543 412.579 11.2663 412.423 11.4226C412.266 11.5789 412.054 11.6667 411.833 11.6667C411.612 11.6667 411.4 11.5789 411.244 11.4226C411.088 11.2663 411 11.0543 411 10.8333C411 10.6123 411.088 10.4004 411.244 10.2441C411.4 10.0878 411.612 10 411.833 10ZM419.167 3.75H412.834C412.509 3.74997 412.193 3.85872 411.936 4.05895C411.68 4.25917 411.498 4.53938 411.419 4.855L410.759 7.5H421.244L420.581 4.85333C420.502 4.53802 420.319 4.25819 420.063 4.05829C419.807 3.85839 419.491 3.74988 419.166 3.75H419.167Z" fill="#404040"/>
</svg>
