<svg width="433" height="19" viewBox="0 0 433 19" fill="none" xmlns="http://www.w3.org/2000/svg">
<g clip-path="url(#clip0_3123_24618)">
<path d="M8.99933 9.97L8.61459 9.08294C8.42949 8.687 8.1409 8.35064 7.78048 8.11076C7.42006 7.87087 7.00174 7.73673 6.5714 7.72305C6.14107 7.70938 5.71535 7.81669 5.34095 8.03322C4.96654 8.24974 4.65793 8.56712 4.44895 8.95053L4.07704 9.67075L3.70513 8.95053C3.50592 8.57455 3.20941 8.26132 2.84778 8.04486C2.48614 7.82839 2.0732 7.71696 1.65378 7.72266C1.36464 7.72212 1.07782 7.77524 0.807363 7.87941C0.716584 7.9137 0.618999 7.92508 0.522961 7.91256C0.426922 7.90005 0.335291 7.86403 0.255908 7.80757C0.177623 7.75286 0.113473 7.67969 0.0689173 7.5943C0.0243614 7.50891 0.000718256 7.41383 0 7.31713C0.0219 6.22487 0.468203 5.18605 1.24103 4.4285C2.01385 3.67094 3.0501 3.2565 4.12251 3.27607C4.96986 3.27524 5.79803 3.53292 6.50029 4.01588C7.20257 3.53295 8.03073 3.27528 8.87808 3.27607C9.94993 3.25633 10.9858 3.67024 11.7585 4.42706C12.5313 5.18388 12.9779 6.22188 13.0006 7.31356C13.0005 7.40258 12.9796 7.49029 12.9396 7.56947C12.8997 7.64865 12.8419 7.71703 12.7709 7.76897C12.6979 7.82212 12.6135 7.85688 12.5248 7.87041C12.436 7.88393 12.3454 7.87582 12.2603 7.84675C12.0147 7.76303 11.7573 7.72051 11.4984 7.72088C11.0545 7.71517 10.6185 7.84084 10.2434 8.08262C9.86831 8.32441 9.57018 8.67191 9.38523 9.08294L8.99933 9.97ZM6.50029 6.86588C6.98026 6.86314 7.45457 6.97143 7.88746 7.18259C8.32036 7.39374 8.70053 7.70225 8.99933 8.08485C9.29809 7.70222 9.67827 7.39369 10.1112 7.18253C10.5441 6.97137 11.0184 6.8631 11.4984 6.86588C11.7125 6.86582 11.9261 6.8873 12.1361 6.93C12.018 6.14076 11.6226 5.42205 11.0233 4.90745C10.4241 4.39285 9.66175 4.11738 8.87808 4.13225C8.10966 4.13006 7.36339 4.39432 6.76203 4.88156L6.49913 5.0971L6.23564 4.88156C5.6349 4.39483 4.88954 4.1306 4.12192 4.13225C3.33169 4.11632 2.56313 4.3959 1.96159 4.91812C1.36005 5.44033 0.967259 6.16897 0.857495 6.96622C1.11726 6.89958 1.38415 6.86608 1.65203 6.86647C2.11178 6.86326 2.56669 6.96215 2.98509 7.15626C3.40349 7.35037 3.77533 7.63504 4.07471 7.99044C4.37408 7.63504 4.74592 7.35037 5.16432 7.15626C5.58272 6.96215 6.03763 6.86326 6.49738 6.86647L6.50029 6.86588Z" fill="#404040"/>
<path d="M7.61239 19.0002C7.46698 19.0003 7.32313 18.9698 7.18983 18.9106C7.05652 18.8515 6.93664 18.7649 6.83767 18.6564C6.75408 18.5723 6.64129 18.5251 6.52376 18.5251C6.40623 18.5251 6.29344 18.5723 6.20985 18.6564C6.11088 18.7649 5.99099 18.8515 5.85769 18.9106C5.72439 18.9698 5.58054 19.0003 5.43513 19.0002C4.43983 18.8507 3.49317 18.4642 2.67203 17.8721C1.00367 16.7523 0.653328 15.6716 0.653328 14.9627C0.652845 14.8713 0.674125 14.7812 0.715345 14.7C0.756565 14.6188 0.816495 14.549 0.889999 14.4966C0.961557 14.4461 1.04406 14.414 1.13044 14.403C1.21683 14.3921 1.30454 14.4026 1.38608 14.4337C1.59646 14.5132 1.81921 14.5535 2.04362 14.5524C2.44906 14.5441 2.84256 14.4112 3.17253 14.1711C3.5025 13.931 3.75353 13.5949 3.89269 13.207L4.28325 12.2012L4.67382 13.207C4.80138 13.5877 5.03942 13.92 5.35645 14.16C5.67348 14.3999 6.05456 14.5362 6.44927 14.5507C6.84398 14.5653 7.23372 14.4574 7.56695 14.2414C7.90017 14.0255 8.16116 13.7115 8.3154 13.3412L8.69548 12.52L9.07555 13.3412C9.22919 13.6965 9.47968 13.9995 9.7973 14.2142C10.1149 14.4289 10.4863 14.5463 10.8675 14.5524C11.117 14.5525 11.364 14.5017 11.5938 14.4028C11.6806 14.3656 11.775 14.351 11.8687 14.3601C11.9624 14.3692 12.0524 14.4018 12.1307 14.4551C12.2119 14.5101 12.2785 14.5848 12.3245 14.6724C12.3705 14.7601 12.3944 14.858 12.3942 14.9574C12.3942 15.6699 12.0444 16.7505 10.3755 17.8703C9.55457 18.4631 8.60788 18.8503 7.61239 19.0002ZM6.52347 17.6702C6.85795 17.6701 7.1794 17.8023 7.42002 18.0389C7.52728 18.144 7.55584 18.144 7.61239 18.144C8.44026 17.988 9.22517 17.6514 9.91323 17.1572C10.6242 16.7423 11.1825 16.102 11.5029 15.3338C11.295 15.3851 11.0819 15.411 10.8681 15.411C10.4495 15.4096 10.0366 15.3117 9.66046 15.1247C9.2843 14.9376 8.95459 14.6663 8.69606 14.331C8.43256 14.6751 8.09394 14.9519 7.70706 15.1395C7.32018 15.327 6.89571 15.4202 6.46733 15.4115C6.03895 15.4028 5.61846 15.2925 5.23924 15.0893C4.86001 14.8862 4.53249 14.5959 4.28267 14.2413C4.02523 14.6012 3.68837 14.8944 3.29925 15.0974C2.91013 15.3004 2.47963 15.4074 2.04246 15.4098C1.87843 15.4099 1.71472 15.3948 1.55338 15.3647C1.88018 16.1176 2.43364 16.7452 3.13371 17.1566C3.82184 17.6507 4.60672 17.9873 5.43455 18.1434C5.49284 18.1434 5.51966 18.1434 5.62692 18.0383C5.86777 17.8018 6.18945 17.6698 6.52405 17.6702H6.52347Z" fill="#404040"/>
<path d="M2.05469 7.32255C2.05469 7.32255 3.97837 9.25699 3.97837 11.0549C3.97837 12.8812 3.41351 14.6281 2.70291 14.8851C1.99231 15.1422 3.98187 14.2 3.98187 14.2L4.23428 12.7447C4.29804 13.2322 4.46598 13.6996 4.72627 14.1139C5.2206 14.5912 5.85167 14.8954 6.52754 14.9819C7.16139 14.8998 7.7581 14.6317 8.24486 14.21C8.52117 13.8538 8.53632 13.2292 8.69955 13.5266C9.0681 14.0481 9.53255 14.4917 10.0671 14.8329C10.3679 14.9243 9.41772 13.4008 9.41772 10.9177C9.43044 10.2308 9.58724 9.55451 9.8776 8.93434C10.168 8.31417 10.5852 7.76442 11.1012 7.32196L9.16531 8.20664L8.99743 8.60624L7.9668 7.71146L6.52462 7.12305L5.35234 7.29405L4.48144 8.12174L4.22903 8.69233L2.05469 7.32255Z" fill="#404040"/>
<path d="M6.50751 2.73674C6.39947 2.44775 6.37028 2.13436 6.42304 1.82984C6.47579 1.52531 6.60852 1.24102 6.80714 1.00715C7.3685 0.484055 8.99022 0.122461 9.59297 0.00252335C9.61584 -0.00209047 9.63951 -0.000355072 9.6615 0.00754773C9.68348 0.0154505 9.70297 0.0292299 9.71793 0.0474422C9.73289 0.0656546 9.74277 0.0876297 9.74653 0.111065C9.75028 0.134501 9.74778 0.158535 9.73929 0.180648C9.45538 1.02781 9.06341 1.8333 8.57342 2.57643C8.0708 2.90113 7.50308 3.10687 6.91206 3.17849L7.60634 2.32409C7.63574 2.29058 7.65162 2.247 7.6508 2.20207C7.64999 2.15715 7.63253 2.11419 7.60193 2.08182C7.57133 2.04946 7.52985 2.03006 7.4858 2.02753C7.44176 2.025 7.3984 2.03952 7.36442 2.06818L6.50751 2.73674Z" fill="#404040"/>
</g>
<g clip-path="url(#clip1_3123_24618)">
<path d="M36.9993 9.97L36.6146 9.08294C36.4295 8.687 36.1409 8.35064 35.7805 8.11076C35.4201 7.87087 35.0017 7.73673 34.5714 7.72305C34.1411 7.70938 33.7153 7.81669 33.3409 8.03322C32.9665 8.24974 32.6579 8.56712 32.4489 8.95053L32.077 9.67075L31.7051 8.95053C31.5059 8.57455 31.2094 8.26132 30.8478 8.04486C30.4861 7.82839 30.0732 7.71696 29.6538 7.72266C29.3646 7.72212 29.0778 7.77524 28.8074 7.87941C28.7166 7.9137 28.619 7.92508 28.523 7.91256C28.4269 7.90005 28.3353 7.86403 28.2559 7.80757C28.1776 7.75286 28.1135 7.67969 28.0689 7.5943C28.0244 7.50891 28.0007 7.41383 28 7.31713C28.0219 6.22487 28.4682 5.18605 29.241 4.4285C30.0138 3.67094 31.0501 3.2565 32.1225 3.27607C32.9699 3.27524 33.798 3.53292 34.5003 4.01588C35.2026 3.53295 36.0307 3.27528 36.8781 3.27607C37.9499 3.25633 38.9858 3.67024 39.7585 4.42706C40.5313 5.18388 40.9779 6.22188 41.0006 7.31356C41.0005 7.40258 40.9796 7.49029 40.9396 7.56947C40.8997 7.64865 40.8419 7.71703 40.7709 7.76897C40.6979 7.82212 40.6135 7.85688 40.5248 7.87041C40.436 7.88393 40.3454 7.87582 40.2603 7.84675C40.0147 7.76303 39.7573 7.72051 39.4984 7.72088C39.0545 7.71517 38.6185 7.84084 38.2434 8.08262C37.8683 8.32441 37.5702 8.67191 37.3852 9.08294L36.9993 9.97ZM34.5003 6.86588C34.9803 6.86314 35.4546 6.97143 35.8875 7.18259C36.3204 7.39374 36.7005 7.70225 36.9993 8.08485C37.2981 7.70222 37.6783 7.39369 38.1112 7.18253C38.5441 6.97137 39.0184 6.8631 39.4984 6.86588C39.7125 6.86582 39.9261 6.8873 40.1361 6.93C40.018 6.14076 39.6226 5.42205 39.0233 4.90745C38.4241 4.39285 37.6617 4.11738 36.8781 4.13225C36.1097 4.13006 35.3634 4.39432 34.762 4.88156L34.4991 5.0971L34.2356 4.88156C33.6349 4.39483 32.8895 4.1306 32.1219 4.13225C31.3317 4.11632 30.5631 4.3959 29.9616 4.91812C29.3601 5.44033 28.9673 6.16897 28.8575 6.96622C29.1173 6.89958 29.3842 6.86608 29.652 6.86647C30.1118 6.86326 30.5667 6.96215 30.9851 7.15626C31.4035 7.35037 31.7753 7.63504 32.0747 7.99044C32.3741 7.63504 32.7459 7.35037 33.1643 7.15626C33.5827 6.96215 34.0376 6.86326 34.4974 6.86647L34.5003 6.86588Z" fill="#404040"/>
<path d="M35.6124 19.0002C35.467 19.0003 35.3231 18.9698 35.1898 18.9106C35.0565 18.8515 34.9366 18.7649 34.8377 18.6564C34.7541 18.5723 34.6413 18.5251 34.5238 18.5251C34.4062 18.5251 34.2934 18.5723 34.2098 18.6564C34.1109 18.7649 33.991 18.8515 33.8577 18.9106C33.7244 18.9698 33.5805 19.0003 33.4351 19.0002C32.4398 18.8507 31.4932 18.4642 30.672 17.8721C29.0037 16.7523 28.6533 15.6716 28.6533 14.9627C28.6528 14.8713 28.6741 14.7812 28.7153 14.7C28.7566 14.6188 28.8165 14.549 28.89 14.4966C28.9616 14.4461 29.0441 14.414 29.1304 14.403C29.2168 14.3921 29.3045 14.4026 29.3861 14.4337C29.5965 14.5132 29.8192 14.5535 30.0436 14.5524C30.4491 14.5441 30.8426 14.4112 31.1725 14.1711C31.5025 13.931 31.7535 13.5949 31.8927 13.207L32.2833 12.2012L32.6738 13.207C32.8014 13.5877 33.0394 13.92 33.3565 14.16C33.6735 14.3999 34.0546 14.5362 34.4493 14.5507C34.844 14.5653 35.2337 14.4574 35.5669 14.2414C35.9002 14.0255 36.1612 13.7115 36.3154 13.3412L36.6955 12.52L37.0756 13.3412C37.2292 13.6965 37.4797 13.9995 37.7973 14.2142C38.1149 14.4289 38.4863 14.5463 38.8675 14.5524C39.117 14.5525 39.364 14.5017 39.5938 14.4028C39.6806 14.3656 39.775 14.351 39.8687 14.3601C39.9624 14.3692 40.0524 14.4018 40.1307 14.4551C40.2119 14.5101 40.2785 14.5848 40.3245 14.6724C40.3705 14.7601 40.3944 14.858 40.3942 14.9574C40.3942 15.6699 40.0444 16.7505 38.3755 17.8703C37.5546 18.4631 36.6079 18.8503 35.6124 19.0002ZM34.5235 17.6702C34.8579 17.6701 35.1794 17.8023 35.42 18.0389C35.5273 18.144 35.5558 18.144 35.6124 18.144C36.4403 17.988 37.2252 17.6514 37.9132 17.1572C38.6242 16.7423 39.1825 16.102 39.5029 15.3338C39.295 15.3851 39.0819 15.411 38.8681 15.411C38.4495 15.4096 38.0366 15.3117 37.6605 15.1247C37.2843 14.9376 36.9546 14.6663 36.6961 14.331C36.4326 14.6751 36.0939 14.9519 35.7071 15.1395C35.3202 15.327 34.8957 15.4202 34.4673 15.4115C34.039 15.4028 33.6185 15.2925 33.2392 15.0893C32.86 14.8862 32.5325 14.5959 32.2827 14.2413C32.0252 14.6012 31.6884 14.8944 31.2992 15.0974C30.9101 15.3004 30.4796 15.4074 30.0425 15.4098C29.8784 15.4099 29.7147 15.3948 29.5534 15.3647C29.8802 16.1176 30.4336 16.7452 31.1337 17.1566C31.8218 17.6507 32.6067 17.9873 33.4345 18.1434C33.4928 18.1434 33.5197 18.1434 33.6269 18.0383C33.8678 17.8018 34.1895 17.6698 34.5241 17.6702H34.5235Z" fill="#404040"/>
<path d="M30.0547 7.32255C30.0547 7.32255 31.9784 9.25699 31.9784 11.0549C31.9784 12.8812 31.4135 14.6281 30.7029 14.8851C29.9923 15.1422 31.9819 14.2 31.9819 14.2L32.2343 12.7447C32.298 13.2322 32.466 13.6996 32.7263 14.1139C33.2206 14.5912 33.8517 14.8954 34.5275 14.9819C35.1614 14.8998 35.7581 14.6317 36.2449 14.21C36.5212 13.8538 36.5363 13.2292 36.6995 13.5266C37.0681 14.0481 37.5325 14.4917 38.0671 14.8329C38.3679 14.9243 37.4177 13.4008 37.4177 10.9177C37.4304 10.2308 37.5872 9.55451 37.8776 8.93434C38.168 8.31417 38.5852 7.76442 39.1012 7.32196L37.1653 8.20664L36.9974 8.60624L35.9668 7.71146L34.5246 7.12305L33.3523 7.29405L32.4814 8.12174L32.229 8.69233L30.0547 7.32255Z" fill="#404040"/>
<path d="M34.5075 2.73674C34.3995 2.44775 34.3703 2.13436 34.423 1.82984C34.4758 1.52531 34.6085 1.24102 34.8071 1.00715C35.3685 0.484055 36.9902 0.122461 37.593 0.00252335C37.6158 -0.00209047 37.6395 -0.000355072 37.6615 0.00754773C37.6835 0.0154505 37.703 0.0292299 37.7179 0.0474422C37.7329 0.0656546 37.7428 0.0876297 37.7465 0.111065C37.7503 0.134501 37.7478 0.158535 37.7393 0.180648C37.4554 1.02781 37.0634 1.8333 36.5734 2.57643C36.0708 2.90113 35.5031 3.10687 34.9121 3.17849L35.6063 2.32409C35.6357 2.29058 35.6516 2.247 35.6508 2.20207C35.65 2.15715 35.6325 2.11419 35.6019 2.08182C35.5713 2.04946 35.5299 2.03006 35.4858 2.02753C35.4418 2.025 35.3984 2.03952 35.3644 2.06818L34.5075 2.73674Z" fill="#404040"/>
</g>
<g clip-path="url(#clip2_3123_24618)">
<path d="M64.9993 9.97L64.6146 9.08294C64.4295 8.687 64.1409 8.35064 63.7805 8.11076C63.4201 7.87087 63.0017 7.73673 62.5714 7.72305C62.1411 7.70938 61.7153 7.81669 61.3409 8.03322C60.9665 8.24974 60.6579 8.56712 60.4489 8.95053L60.077 9.67075L59.7051 8.95053C59.5059 8.57455 59.2094 8.26132 58.8478 8.04486C58.4861 7.82839 58.0732 7.71696 57.6538 7.72266C57.3646 7.72212 57.0778 7.77524 56.8074 7.87941C56.7166 7.9137 56.619 7.92508 56.523 7.91256C56.4269 7.90005 56.3353 7.86403 56.2559 7.80757C56.1776 7.75286 56.1135 7.67969 56.0689 7.5943C56.0244 7.50891 56.0007 7.41383 56 7.31713C56.0219 6.22487 56.4682 5.18605 57.241 4.4285C58.0138 3.67094 59.0501 3.2565 60.1225 3.27607C60.9699 3.27524 61.798 3.53292 62.5003 4.01588C63.2026 3.53295 64.0307 3.27528 64.8781 3.27607C65.9499 3.25633 66.9858 3.67024 67.7585 4.42706C68.5313 5.18388 68.9779 6.22188 69.0006 7.31356C69.0005 7.40258 68.9796 7.49029 68.9396 7.56947C68.8997 7.64865 68.8419 7.71703 68.7709 7.76897C68.6979 7.82212 68.6135 7.85688 68.5248 7.87041C68.436 7.88393 68.3454 7.87582 68.2603 7.84675C68.0147 7.76303 67.7573 7.72051 67.4984 7.72088C67.0545 7.71517 66.6185 7.84084 66.2434 8.08262C65.8683 8.32441 65.5702 8.67191 65.3852 9.08294L64.9993 9.97ZM62.5003 6.86588C62.9803 6.86314 63.4546 6.97143 63.8875 7.18259C64.3204 7.39374 64.7005 7.70225 64.9993 8.08485C65.2981 7.70222 65.6783 7.39369 66.1112 7.18253C66.5441 6.97137 67.0184 6.8631 67.4984 6.86588C67.7125 6.86582 67.9261 6.8873 68.1361 6.93C68.018 6.14076 67.6226 5.42205 67.0233 4.90745C66.4241 4.39285 65.6617 4.11738 64.8781 4.13225C64.1097 4.13006 63.3634 4.39432 62.762 4.88156L62.4991 5.0971L62.2356 4.88156C61.6349 4.39483 60.8895 4.1306 60.1219 4.13225C59.3317 4.11632 58.5631 4.3959 57.9616 4.91812C57.3601 5.44033 56.9673 6.16897 56.8575 6.96622C57.1173 6.89958 57.3842 6.86608 57.652 6.86647C58.1118 6.86326 58.5667 6.96215 58.9851 7.15626C59.4035 7.35037 59.7753 7.63504 60.0747 7.99044C60.3741 7.63504 60.7459 7.35037 61.1643 7.15626C61.5827 6.96215 62.0376 6.86326 62.4974 6.86647L62.5003 6.86588Z" fill="#404040"/>
<path d="M63.6124 19.0002C63.467 19.0003 63.3231 18.9698 63.1898 18.9106C63.0565 18.8515 62.9366 18.7649 62.8377 18.6564C62.7541 18.5723 62.6413 18.5251 62.5238 18.5251C62.4062 18.5251 62.2934 18.5723 62.2098 18.6564C62.1109 18.7649 61.991 18.8515 61.8577 18.9106C61.7244 18.9698 61.5805 19.0003 61.4351 19.0002C60.4398 18.8507 59.4932 18.4642 58.672 17.8721C57.0037 16.7523 56.6533 15.6716 56.6533 14.9627C56.6528 14.8713 56.6741 14.7812 56.7153 14.7C56.7566 14.6188 56.8165 14.549 56.89 14.4966C56.9616 14.4461 57.0441 14.414 57.1304 14.403C57.2168 14.3921 57.3045 14.4026 57.3861 14.4337C57.5965 14.5132 57.8192 14.5535 58.0436 14.5524C58.4491 14.5441 58.8426 14.4112 59.1725 14.1711C59.5025 13.931 59.7535 13.5949 59.8927 13.207L60.2833 12.2012L60.6738 13.207C60.8014 13.5877 61.0394 13.92 61.3565 14.16C61.6735 14.3999 62.0546 14.5362 62.4493 14.5507C62.844 14.5653 63.2337 14.4574 63.5669 14.2414C63.9002 14.0255 64.1612 13.7115 64.3154 13.3412L64.6955 12.52L65.0756 13.3412C65.2292 13.6965 65.4797 13.9995 65.7973 14.2142C66.1149 14.4289 66.4863 14.5463 66.8675 14.5524C67.117 14.5525 67.364 14.5017 67.5938 14.4028C67.6806 14.3656 67.775 14.351 67.8687 14.3601C67.9624 14.3692 68.0524 14.4018 68.1307 14.4551C68.2119 14.5101 68.2785 14.5848 68.3245 14.6724C68.3705 14.7601 68.3944 14.858 68.3942 14.9574C68.3942 15.6699 68.0444 16.7505 66.3755 17.8703C65.5546 18.4631 64.6079 18.8503 63.6124 19.0002ZM62.5235 17.6702C62.8579 17.6701 63.1794 17.8023 63.42 18.0389C63.5273 18.144 63.5558 18.144 63.6124 18.144C64.4403 17.988 65.2252 17.6514 65.9132 17.1572C66.6242 16.7423 67.1825 16.102 67.5029 15.3338C67.295 15.3851 67.0819 15.411 66.8681 15.411C66.4495 15.4096 66.0366 15.3117 65.6605 15.1247C65.2843 14.9376 64.9546 14.6663 64.6961 14.331C64.4326 14.6751 64.0939 14.9519 63.7071 15.1395C63.3202 15.327 62.8957 15.4202 62.4673 15.4115C62.039 15.4028 61.6185 15.2925 61.2392 15.0893C60.86 14.8862 60.5325 14.5959 60.2827 14.2413C60.0252 14.6012 59.6884 14.8944 59.2992 15.0974C58.9101 15.3004 58.4796 15.4074 58.0425 15.4098C57.8784 15.4099 57.7147 15.3948 57.5534 15.3647C57.8802 16.1176 58.4336 16.7452 59.1337 17.1566C59.8218 17.6507 60.6067 17.9873 61.4345 18.1434C61.4928 18.1434 61.5197 18.1434 61.6269 18.0383C61.8678 17.8018 62.1895 17.6698 62.5241 17.6702H62.5235Z" fill="#404040"/>
<path d="M58.0547 7.32255C58.0547 7.32255 59.9784 9.25699 59.9784 11.0549C59.9784 12.8812 59.4135 14.6281 58.7029 14.8851C57.9923 15.1422 59.9819 14.2 59.9819 14.2L60.2343 12.7447C60.298 13.2322 60.466 13.6996 60.7263 14.1139C61.2206 14.5912 61.8517 14.8954 62.5275 14.9819C63.1614 14.8998 63.7581 14.6317 64.2449 14.21C64.5212 13.8538 64.5363 13.2292 64.6995 13.5266C65.0681 14.0481 65.5325 14.4917 66.0671 14.8329C66.3679 14.9243 65.4177 13.4008 65.4177 10.9177C65.4304 10.2308 65.5872 9.55451 65.8776 8.93434C66.168 8.31417 66.5852 7.76442 67.1012 7.32196L65.1653 8.20664L64.9974 8.60624L63.9668 7.71146L62.5246 7.12305L61.3523 7.29405L60.4814 8.12174L60.229 8.69233L58.0547 7.32255Z" fill="#404040"/>
<path d="M62.5075 2.73674C62.3995 2.44775 62.3703 2.13436 62.423 1.82984C62.4758 1.52531 62.6085 1.24102 62.8071 1.00715C63.3685 0.484055 64.9902 0.122461 65.593 0.00252335C65.6158 -0.00209047 65.6395 -0.000355072 65.6615 0.00754773C65.6835 0.0154505 65.703 0.0292299 65.7179 0.0474422C65.7329 0.0656546 65.7428 0.0876297 65.7465 0.111065C65.7503 0.134501 65.7478 0.158535 65.7393 0.180648C65.4554 1.02781 65.0634 1.8333 64.5734 2.57643C64.0708 2.90113 63.5031 3.10687 62.9121 3.17849L63.6063 2.32409C63.6357 2.29058 63.6516 2.247 63.6508 2.20207C63.65 2.15715 63.6325 2.11419 63.6019 2.08182C63.5713 2.04946 63.5299 2.03006 63.4858 2.02753C63.4418 2.025 63.3984 2.03952 63.3644 2.06818L62.5075 2.73674Z" fill="#404040"/>
</g>
<g clip-path="url(#clip3_3123_24618)">
<path d="M92.9993 9.97L92.6146 9.08294C92.4295 8.687 92.1409 8.35064 91.7805 8.11076C91.4201 7.87087 91.0017 7.73673 90.5714 7.72305C90.1411 7.70938 89.7153 7.81669 89.3409 8.03322C88.9665 8.24974 88.6579 8.56712 88.4489 8.95053L88.077 9.67075L87.7051 8.95053C87.5059 8.57455 87.2094 8.26132 86.8478 8.04486C86.4861 7.82839 86.0732 7.71696 85.6538 7.72266C85.3646 7.72212 85.0778 7.77524 84.8074 7.87941C84.7166 7.9137 84.619 7.92508 84.523 7.91256C84.4269 7.90005 84.3353 7.86403 84.2559 7.80757C84.1776 7.75286 84.1135 7.67969 84.0689 7.5943C84.0244 7.50891 84.0007 7.41383 84 7.31713C84.0219 6.22487 84.4682 5.18605 85.241 4.4285C86.0138 3.67094 87.0501 3.2565 88.1225 3.27607C88.9699 3.27524 89.798 3.53292 90.5003 4.01588C91.2026 3.53295 92.0307 3.27528 92.8781 3.27607C93.9499 3.25633 94.9858 3.67024 95.7585 4.42706C96.5313 5.18388 96.9779 6.22188 97.0006 7.31356C97.0005 7.40258 96.9796 7.49029 96.9396 7.56947C96.8997 7.64865 96.8419 7.71703 96.7709 7.76897C96.6979 7.82212 96.6135 7.85688 96.5248 7.87041C96.436 7.88393 96.3454 7.87582 96.2603 7.84675C96.0147 7.76303 95.7573 7.72051 95.4984 7.72088C95.0545 7.71517 94.6185 7.84084 94.2434 8.08262C93.8683 8.32441 93.5702 8.67191 93.3852 9.08294L92.9993 9.97ZM90.5003 6.86588C90.9803 6.86314 91.4546 6.97143 91.8875 7.18259C92.3204 7.39374 92.7005 7.70225 92.9993 8.08485C93.2981 7.70222 93.6783 7.39369 94.1112 7.18253C94.5441 6.97137 95.0184 6.8631 95.4984 6.86588C95.7125 6.86582 95.9261 6.8873 96.1361 6.93C96.018 6.14076 95.6226 5.42205 95.0233 4.90745C94.4241 4.39285 93.6617 4.11738 92.8781 4.13225C92.1097 4.13006 91.3634 4.39432 90.762 4.88156L90.4991 5.0971L90.2356 4.88156C89.6349 4.39483 88.8895 4.1306 88.1219 4.13225C87.3317 4.11632 86.5631 4.3959 85.9616 4.91812C85.3601 5.44033 84.9673 6.16897 84.8575 6.96622C85.1173 6.89958 85.3842 6.86608 85.652 6.86647C86.1118 6.86326 86.5667 6.96215 86.9851 7.15626C87.4035 7.35037 87.7753 7.63504 88.0747 7.99044C88.3741 7.63504 88.7459 7.35037 89.1643 7.15626C89.5827 6.96215 90.0376 6.86326 90.4974 6.86647L90.5003 6.86588Z" fill="#404040"/>
<path d="M91.6124 19.0002C91.467 19.0003 91.3231 18.9698 91.1898 18.9106C91.0565 18.8515 90.9366 18.7649 90.8377 18.6564C90.7541 18.5723 90.6413 18.5251 90.5238 18.5251C90.4062 18.5251 90.2934 18.5723 90.2098 18.6564C90.1109 18.7649 89.991 18.8515 89.8577 18.9106C89.7244 18.9698 89.5805 19.0003 89.4351 19.0002C88.4398 18.8507 87.4932 18.4642 86.672 17.8721C85.0037 16.7523 84.6533 15.6716 84.6533 14.9627C84.6528 14.8713 84.6741 14.7812 84.7153 14.7C84.7566 14.6188 84.8165 14.549 84.89 14.4966C84.9616 14.4461 85.0441 14.414 85.1304 14.403C85.2168 14.3921 85.3045 14.4026 85.3861 14.4337C85.5965 14.5132 85.8192 14.5535 86.0436 14.5524C86.4491 14.5441 86.8426 14.4112 87.1725 14.1711C87.5025 13.931 87.7535 13.5949 87.8927 13.207L88.2833 12.2012L88.6738 13.207C88.8014 13.5877 89.0394 13.92 89.3565 14.16C89.6735 14.3999 90.0546 14.5362 90.4493 14.5507C90.844 14.5653 91.2337 14.4574 91.5669 14.2414C91.9002 14.0255 92.1612 13.7115 92.3154 13.3412L92.6955 12.52L93.0756 13.3412C93.2292 13.6965 93.4797 13.9995 93.7973 14.2142C94.1149 14.4289 94.4863 14.5463 94.8675 14.5524C95.117 14.5525 95.364 14.5017 95.5938 14.4028C95.6806 14.3656 95.775 14.351 95.8687 14.3601C95.9624 14.3692 96.0524 14.4018 96.1307 14.4551C96.2119 14.5101 96.2785 14.5848 96.3245 14.6724C96.3705 14.7601 96.3944 14.858 96.3942 14.9574C96.3942 15.6699 96.0444 16.7505 94.3755 17.8703C93.5546 18.4631 92.6079 18.8503 91.6124 19.0002ZM90.5235 17.6702C90.8579 17.6701 91.1794 17.8023 91.42 18.0389C91.5273 18.144 91.5558 18.144 91.6124 18.144C92.4403 17.988 93.2252 17.6514 93.9132 17.1572C94.6242 16.7423 95.1825 16.102 95.5029 15.3338C95.295 15.3851 95.0819 15.411 94.8681 15.411C94.4495 15.4096 94.0366 15.3117 93.6605 15.1247C93.2843 14.9376 92.9546 14.6663 92.6961 14.331C92.4326 14.6751 92.0939 14.9519 91.7071 15.1395C91.3202 15.327 90.8957 15.4202 90.4673 15.4115C90.039 15.4028 89.6185 15.2925 89.2392 15.0893C88.86 14.8862 88.5325 14.5959 88.2827 14.2413C88.0252 14.6012 87.6884 14.8944 87.2992 15.0974C86.9101 15.3004 86.4796 15.4074 86.0425 15.4098C85.8784 15.4099 85.7147 15.3948 85.5534 15.3647C85.8802 16.1176 86.4336 16.7452 87.1337 17.1566C87.8218 17.6507 88.6067 17.9873 89.4345 18.1434C89.4928 18.1434 89.5197 18.1434 89.6269 18.0383C89.8678 17.8018 90.1895 17.6698 90.5241 17.6702H90.5235Z" fill="#404040"/>
<path d="M86.0547 7.32255C86.0547 7.32255 87.9784 9.25699 87.9784 11.0549C87.9784 12.8812 87.4135 14.6281 86.7029 14.8851C85.9923 15.1422 87.9819 14.2 87.9819 14.2L88.2343 12.7447C88.298 13.2322 88.466 13.6996 88.7263 14.1139C89.2206 14.5912 89.8517 14.8954 90.5275 14.9819C91.1614 14.8998 91.7581 14.6317 92.2449 14.21C92.5212 13.8538 92.5363 13.2292 92.6995 13.5266C93.0681 14.0481 93.5325 14.4917 94.0671 14.8329C94.3679 14.9243 93.4177 13.4008 93.4177 10.9177C93.4304 10.2308 93.5872 9.55451 93.8776 8.93434C94.168 8.31417 94.5852 7.76442 95.1012 7.32196L93.1653 8.20664L92.9974 8.60624L91.9668 7.71146L90.5246 7.12305L89.3523 7.29405L88.4814 8.12174L88.229 8.69233L86.0547 7.32255Z" fill="#404040"/>
<path d="M90.5075 2.73674C90.3995 2.44775 90.3703 2.13436 90.423 1.82984C90.4758 1.52531 90.6085 1.24102 90.8071 1.00715C91.3685 0.484055 92.9902 0.122461 93.593 0.00252335C93.6158 -0.00209047 93.6395 -0.000355072 93.6615 0.00754773C93.6835 0.0154505 93.703 0.0292299 93.7179 0.0474422C93.7329 0.0656546 93.7428 0.0876297 93.7465 0.111065C93.7503 0.134501 93.7478 0.158535 93.7393 0.180648C93.4554 1.02781 93.0634 1.8333 92.5734 2.57643C92.0708 2.90113 91.5031 3.10687 90.9121 3.17849L91.6063 2.32409C91.6357 2.29058 91.6516 2.247 91.6508 2.20207C91.65 2.15715 91.6325 2.11419 91.6019 2.08182C91.5713 2.04946 91.5299 2.03006 91.4858 2.02753C91.4418 2.025 91.3984 2.03952 91.3644 2.06818L90.5075 2.73674Z" fill="#404040"/>
</g>
<g clip-path="url(#clip4_3123_24618)">
<path d="M120.999 9.97L120.615 9.08294C120.429 8.687 120.141 8.35064 119.78 8.11076C119.42 7.87087 119.002 7.73673 118.571 7.72305C118.141 7.70938 117.715 7.81669 117.341 8.03322C116.967 8.24974 116.658 8.56712 116.449 8.95053L116.077 9.67075L115.705 8.95053C115.506 8.57455 115.209 8.26132 114.848 8.04486C114.486 7.82839 114.073 7.71696 113.654 7.72266C113.365 7.72212 113.078 7.77524 112.807 7.87941C112.717 7.9137 112.619 7.92508 112.523 7.91256C112.427 7.90005 112.335 7.86403 112.256 7.80757C112.178 7.75286 112.113 7.67969 112.069 7.5943C112.024 7.50891 112.001 7.41383 112 7.31713C112.022 6.22487 112.468 5.18605 113.241 4.4285C114.014 3.67094 115.05 3.2565 116.123 3.27607C116.97 3.27524 117.798 3.53292 118.5 4.01588C119.203 3.53295 120.031 3.27528 120.878 3.27607C121.95 3.25633 122.986 3.67024 123.759 4.42706C124.531 5.18388 124.978 6.22188 125.001 7.31356C125 7.40258 124.98 7.49029 124.94 7.56947C124.9 7.64865 124.842 7.71703 124.771 7.76897C124.698 7.82212 124.614 7.85688 124.525 7.87041C124.436 7.88393 124.345 7.87582 124.26 7.84675C124.015 7.76303 123.757 7.72051 123.498 7.72088C123.054 7.71517 122.619 7.84084 122.243 8.08262C121.868 8.32441 121.57 8.67191 121.385 9.08294L120.999 9.97ZM118.5 6.86588C118.98 6.86314 119.455 6.97143 119.887 7.18259C120.32 7.39374 120.701 7.70225 120.999 8.08485C121.298 7.70222 121.678 7.39369 122.111 7.18253C122.544 6.97137 123.018 6.8631 123.498 6.86588C123.712 6.86582 123.926 6.8873 124.136 6.93C124.018 6.14076 123.623 5.42205 123.023 4.90745C122.424 4.39285 121.662 4.11738 120.878 4.13225C120.11 4.13006 119.363 4.39432 118.762 4.88156L118.499 5.0971L118.236 4.88156C117.635 4.39483 116.89 4.1306 116.122 4.13225C115.332 4.11632 114.563 4.3959 113.962 4.91812C113.36 5.44033 112.967 6.16897 112.857 6.96622C113.117 6.89958 113.384 6.86608 113.652 6.86647C114.112 6.86326 114.567 6.96215 114.985 7.15626C115.403 7.35037 115.775 7.63504 116.075 7.99044C116.374 7.63504 116.746 7.35037 117.164 7.15626C117.583 6.96215 118.038 6.86326 118.497 6.86647L118.5 6.86588Z" fill="#404040"/>
<path d="M119.612 19.0002C119.467 19.0003 119.323 18.9698 119.19 18.9106C119.057 18.8515 118.937 18.7649 118.838 18.6564C118.754 18.5723 118.641 18.5251 118.524 18.5251C118.406 18.5251 118.293 18.5723 118.21 18.6564C118.111 18.7649 117.991 18.8515 117.858 18.9106C117.724 18.9698 117.581 19.0003 117.435 19.0002C116.44 18.8507 115.493 18.4642 114.672 17.8721C113.004 16.7523 112.653 15.6716 112.653 14.9627C112.653 14.8713 112.674 14.7812 112.715 14.7C112.757 14.6188 112.816 14.549 112.89 14.4966C112.962 14.4461 113.044 14.414 113.13 14.403C113.217 14.3921 113.305 14.4026 113.386 14.4337C113.596 14.5132 113.819 14.5535 114.044 14.5524C114.449 14.5441 114.843 14.4112 115.173 14.1711C115.502 13.931 115.754 13.5949 115.893 13.207L116.283 12.2012L116.674 13.207C116.801 13.5877 117.039 13.92 117.356 14.16C117.673 14.3999 118.055 14.5362 118.449 14.5507C118.844 14.5653 119.234 14.4574 119.567 14.2414C119.9 14.0255 120.161 13.7115 120.315 13.3412L120.695 12.52L121.076 13.3412C121.229 13.6965 121.48 13.9995 121.797 14.2142C122.115 14.4289 122.486 14.5463 122.867 14.5524C123.117 14.5525 123.364 14.5017 123.594 14.4028C123.681 14.3656 123.775 14.351 123.869 14.3601C123.962 14.3692 124.052 14.4018 124.131 14.4551C124.212 14.5101 124.279 14.5848 124.325 14.6724C124.37 14.7601 124.394 14.858 124.394 14.9574C124.394 15.6699 124.044 16.7505 122.375 17.8703C121.555 18.4631 120.608 18.8503 119.612 19.0002ZM118.523 17.6702C118.858 17.6701 119.179 17.8023 119.42 18.0389C119.527 18.144 119.556 18.144 119.612 18.144C120.44 17.988 121.225 17.6514 121.913 17.1572C122.624 16.7423 123.183 16.102 123.503 15.3338C123.295 15.3851 123.082 15.411 122.868 15.411C122.449 15.4096 122.037 15.3117 121.66 15.1247C121.284 14.9376 120.955 14.6663 120.696 14.331C120.433 14.6751 120.094 14.9519 119.707 15.1395C119.32 15.327 118.896 15.4202 118.467 15.4115C118.039 15.4028 117.618 15.2925 117.239 15.0893C116.86 14.8862 116.532 14.5959 116.283 14.2413C116.025 14.6012 115.688 14.8944 115.299 15.0974C114.91 15.3004 114.48 15.4074 114.042 15.4098C113.878 15.4099 113.715 15.3948 113.553 15.3647C113.88 16.1176 114.434 16.7452 115.134 17.1566C115.822 17.6507 116.607 17.9873 117.435 18.1434C117.493 18.1434 117.52 18.1434 117.627 18.0383C117.868 17.8018 118.189 17.6698 118.524 17.6702H118.523Z" fill="#404040"/>
<path d="M114.055 7.32255C114.055 7.32255 115.978 9.25699 115.978 11.0549C115.978 12.8812 115.414 14.6281 114.703 14.8851C113.992 15.1422 115.982 14.2 115.982 14.2L116.234 12.7447C116.298 13.2322 116.466 13.6996 116.726 14.1139C117.221 14.5912 117.852 14.8954 118.528 14.9819C119.161 14.8998 119.758 14.6317 120.245 14.21C120.521 13.8538 120.536 13.2292 120.7 13.5266C121.068 14.0481 121.533 14.4917 122.067 14.8329C122.368 14.9243 121.418 13.4008 121.418 10.9177C121.43 10.2308 121.587 9.55451 121.878 8.93434C122.168 8.31417 122.585 7.76442 123.101 7.32196L121.165 8.20664L120.997 8.60624L119.967 7.71146L118.525 7.12305L117.352 7.29405L116.481 8.12174L116.229 8.69233L114.055 7.32255Z" fill="#404040"/>
<path d="M118.508 2.73674C118.399 2.44775 118.37 2.13436 118.423 1.82984C118.476 1.52531 118.609 1.24102 118.807 1.00715C119.369 0.484055 120.99 0.122461 121.593 0.00252335C121.616 -0.00209047 121.64 -0.000355072 121.661 0.00754773C121.683 0.0154505 121.703 0.0292299 121.718 0.0474422C121.733 0.0656546 121.743 0.0876297 121.747 0.111065C121.75 0.134501 121.748 0.158535 121.739 0.180648C121.455 1.02781 121.063 1.8333 120.573 2.57643C120.071 2.90113 119.503 3.10687 118.912 3.17849L119.606 2.32409C119.636 2.29058 119.652 2.247 119.651 2.20207C119.65 2.15715 119.633 2.11419 119.602 2.08182C119.571 2.04946 119.53 2.03006 119.486 2.02753C119.442 2.025 119.398 2.03952 119.364 2.06818L118.508 2.73674Z" fill="#404040"/>
</g>
<g clip-path="url(#clip5_3123_24618)">
<path d="M148.999 9.97L148.615 9.08294C148.429 8.687 148.141 8.35064 147.78 8.11076C147.42 7.87087 147.002 7.73673 146.571 7.72305C146.141 7.70938 145.715 7.81669 145.341 8.03322C144.967 8.24974 144.658 8.56712 144.449 8.95053L144.077 9.67075L143.705 8.95053C143.506 8.57455 143.209 8.26132 142.848 8.04486C142.486 7.82839 142.073 7.71696 141.654 7.72266C141.365 7.72212 141.078 7.77524 140.807 7.87941C140.717 7.9137 140.619 7.92508 140.523 7.91256C140.427 7.90005 140.335 7.86403 140.256 7.80757C140.178 7.75286 140.113 7.67969 140.069 7.5943C140.024 7.50891 140.001 7.41383 140 7.31713C140.022 6.22487 140.468 5.18605 141.241 4.4285C142.014 3.67094 143.05 3.2565 144.123 3.27607C144.97 3.27524 145.798 3.53292 146.5 4.01588C147.203 3.53295 148.031 3.27528 148.878 3.27607C149.95 3.25633 150.986 3.67024 151.759 4.42706C152.531 5.18388 152.978 6.22188 153.001 7.31356C153 7.40258 152.98 7.49029 152.94 7.56947C152.9 7.64865 152.842 7.71703 152.771 7.76897C152.698 7.82212 152.614 7.85688 152.525 7.87041C152.436 7.88393 152.345 7.87582 152.26 7.84675C152.015 7.76303 151.757 7.72051 151.498 7.72088C151.054 7.71517 150.619 7.84084 150.243 8.08262C149.868 8.32441 149.57 8.67191 149.385 9.08294L148.999 9.97ZM146.5 6.86588C146.98 6.86314 147.455 6.97143 147.887 7.18259C148.32 7.39374 148.701 7.70225 148.999 8.08485C149.298 7.70222 149.678 7.39369 150.111 7.18253C150.544 6.97137 151.018 6.8631 151.498 6.86588C151.712 6.86582 151.926 6.8873 152.136 6.93C152.018 6.14076 151.623 5.42205 151.023 4.90745C150.424 4.39285 149.662 4.11738 148.878 4.13225C148.11 4.13006 147.363 4.39432 146.762 4.88156L146.499 5.0971L146.236 4.88156C145.635 4.39483 144.89 4.1306 144.122 4.13225C143.332 4.11632 142.563 4.3959 141.962 4.91812C141.36 5.44033 140.967 6.16897 140.857 6.96622C141.117 6.89958 141.384 6.86608 141.652 6.86647C142.112 6.86326 142.567 6.96215 142.985 7.15626C143.403 7.35037 143.775 7.63504 144.075 7.99044C144.374 7.63504 144.746 7.35037 145.164 7.15626C145.583 6.96215 146.038 6.86326 146.497 6.86647L146.5 6.86588Z" fill="#404040"/>
<path d="M147.612 19.0002C147.467 19.0003 147.323 18.9698 147.19 18.9106C147.057 18.8515 146.937 18.7649 146.838 18.6564C146.754 18.5723 146.641 18.5251 146.524 18.5251C146.406 18.5251 146.293 18.5723 146.21 18.6564C146.111 18.7649 145.991 18.8515 145.858 18.9106C145.724 18.9698 145.581 19.0003 145.435 19.0002C144.44 18.8507 143.493 18.4642 142.672 17.8721C141.004 16.7523 140.653 15.6716 140.653 14.9627C140.653 14.8713 140.674 14.7812 140.715 14.7C140.757 14.6188 140.816 14.549 140.89 14.4966C140.962 14.4461 141.044 14.414 141.13 14.403C141.217 14.3921 141.305 14.4026 141.386 14.4337C141.596 14.5132 141.819 14.5535 142.044 14.5524C142.449 14.5441 142.843 14.4112 143.173 14.1711C143.502 13.931 143.754 13.5949 143.893 13.207L144.283 12.2012L144.674 13.207C144.801 13.5877 145.039 13.92 145.356 14.16C145.673 14.3999 146.055 14.5362 146.449 14.5507C146.844 14.5653 147.234 14.4574 147.567 14.2414C147.9 14.0255 148.161 13.7115 148.315 13.3412L148.695 12.52L149.076 13.3412C149.229 13.6965 149.48 13.9995 149.797 14.2142C150.115 14.4289 150.486 14.5463 150.867 14.5524C151.117 14.5525 151.364 14.5017 151.594 14.4028C151.681 14.3656 151.775 14.351 151.869 14.3601C151.962 14.3692 152.052 14.4018 152.131 14.4551C152.212 14.5101 152.279 14.5848 152.325 14.6724C152.37 14.7601 152.394 14.858 152.394 14.9574C152.394 15.6699 152.044 16.7505 150.375 17.8703C149.555 18.4631 148.608 18.8503 147.612 19.0002ZM146.523 17.6702C146.858 17.6701 147.179 17.8023 147.42 18.0389C147.527 18.144 147.556 18.144 147.612 18.144C148.44 17.988 149.225 17.6514 149.913 17.1572C150.624 16.7423 151.183 16.102 151.503 15.3338C151.295 15.3851 151.082 15.411 150.868 15.411C150.449 15.4096 150.037 15.3117 149.66 15.1247C149.284 14.9376 148.955 14.6663 148.696 14.331C148.433 14.6751 148.094 14.9519 147.707 15.1395C147.32 15.327 146.896 15.4202 146.467 15.4115C146.039 15.4028 145.618 15.2925 145.239 15.0893C144.86 14.8862 144.532 14.5959 144.283 14.2413C144.025 14.6012 143.688 14.8944 143.299 15.0974C142.91 15.3004 142.48 15.4074 142.042 15.4098C141.878 15.4099 141.715 15.3948 141.553 15.3647C141.88 16.1176 142.434 16.7452 143.134 17.1566C143.822 17.6507 144.607 17.9873 145.435 18.1434C145.493 18.1434 145.52 18.1434 145.627 18.0383C145.868 17.8018 146.189 17.6698 146.524 17.6702H146.523Z" fill="#404040"/>
<path d="M142.055 7.32255C142.055 7.32255 143.978 9.25699 143.978 11.0549C143.978 12.8812 143.414 14.6281 142.703 14.8851C141.992 15.1422 143.982 14.2 143.982 14.2L144.234 12.7447C144.298 13.2322 144.466 13.6996 144.726 14.1139C145.221 14.5912 145.852 14.8954 146.528 14.9819C147.161 14.8998 147.758 14.6317 148.245 14.21C148.521 13.8538 148.536 13.2292 148.7 13.5266C149.068 14.0481 149.533 14.4917 150.067 14.8329C150.368 14.9243 149.418 13.4008 149.418 10.9177C149.43 10.2308 149.587 9.55451 149.878 8.93434C150.168 8.31417 150.585 7.76442 151.101 7.32196L149.165 8.20664L148.997 8.60624L147.967 7.71146L146.525 7.12305L145.352 7.29405L144.481 8.12174L144.229 8.69233L142.055 7.32255Z" fill="#404040"/>
<path d="M146.508 2.73674C146.399 2.44775 146.37 2.13436 146.423 1.82984C146.476 1.52531 146.609 1.24102 146.807 1.00715C147.369 0.484055 148.99 0.122461 149.593 0.00252335C149.616 -0.00209047 149.64 -0.000355072 149.661 0.00754773C149.683 0.0154505 149.703 0.0292299 149.718 0.0474422C149.733 0.0656546 149.743 0.0876297 149.747 0.111065C149.75 0.134501 149.748 0.158535 149.739 0.180648C149.455 1.02781 149.063 1.8333 148.573 2.57643C148.071 2.90113 147.503 3.10687 146.912 3.17849L147.606 2.32409C147.636 2.29058 147.652 2.247 147.651 2.20207C147.65 2.15715 147.633 2.11419 147.602 2.08182C147.571 2.04946 147.53 2.03006 147.486 2.02753C147.442 2.025 147.398 2.03952 147.364 2.06818L146.508 2.73674Z" fill="#404040"/>
</g>
<g clip-path="url(#clip6_3123_24618)">
<path d="M176.999 9.97L176.615 9.08294C176.429 8.687 176.141 8.35064 175.78 8.11076C175.42 7.87087 175.002 7.73673 174.571 7.72305C174.141 7.70938 173.715 7.81669 173.341 8.03322C172.967 8.24974 172.658 8.56712 172.449 8.95053L172.077 9.67075L171.705 8.95053C171.506 8.57455 171.209 8.26132 170.848 8.04486C170.486 7.82839 170.073 7.71696 169.654 7.72266C169.365 7.72212 169.078 7.77524 168.807 7.87941C168.717 7.9137 168.619 7.92508 168.523 7.91256C168.427 7.90005 168.335 7.86403 168.256 7.80757C168.178 7.75286 168.113 7.67969 168.069 7.5943C168.024 7.50891 168.001 7.41383 168 7.31713C168.022 6.22487 168.468 5.18605 169.241 4.4285C170.014 3.67094 171.05 3.2565 172.123 3.27607C172.97 3.27524 173.798 3.53292 174.5 4.01588C175.203 3.53295 176.031 3.27528 176.878 3.27607C177.95 3.25633 178.986 3.67024 179.759 4.42706C180.531 5.18388 180.978 6.22188 181.001 7.31356C181 7.40258 180.98 7.49029 180.94 7.56947C180.9 7.64865 180.842 7.71703 180.771 7.76897C180.698 7.82212 180.614 7.85688 180.525 7.87041C180.436 7.88393 180.345 7.87582 180.26 7.84675C180.015 7.76303 179.757 7.72051 179.498 7.72088C179.054 7.71517 178.619 7.84084 178.243 8.08262C177.868 8.32441 177.57 8.67191 177.385 9.08294L176.999 9.97ZM174.5 6.86588C174.98 6.86314 175.455 6.97143 175.887 7.18259C176.32 7.39374 176.701 7.70225 176.999 8.08485C177.298 7.70222 177.678 7.39369 178.111 7.18253C178.544 6.97137 179.018 6.8631 179.498 6.86588C179.712 6.86582 179.926 6.8873 180.136 6.93C180.018 6.14076 179.623 5.42205 179.023 4.90745C178.424 4.39285 177.662 4.11738 176.878 4.13225C176.11 4.13006 175.363 4.39432 174.762 4.88156L174.499 5.0971L174.236 4.88156C173.635 4.39483 172.89 4.1306 172.122 4.13225C171.332 4.11632 170.563 4.3959 169.962 4.91812C169.36 5.44033 168.967 6.16897 168.857 6.96622C169.117 6.89958 169.384 6.86608 169.652 6.86647C170.112 6.86326 170.567 6.96215 170.985 7.15626C171.403 7.35037 171.775 7.63504 172.075 7.99044C172.374 7.63504 172.746 7.35037 173.164 7.15626C173.583 6.96215 174.038 6.86326 174.497 6.86647L174.5 6.86588Z" fill="#404040"/>
<path d="M175.612 19.0002C175.467 19.0003 175.323 18.9698 175.19 18.9106C175.057 18.8515 174.937 18.7649 174.838 18.6564C174.754 18.5723 174.641 18.5251 174.524 18.5251C174.406 18.5251 174.293 18.5723 174.21 18.6564C174.111 18.7649 173.991 18.8515 173.858 18.9106C173.724 18.9698 173.581 19.0003 173.435 19.0002C172.44 18.8507 171.493 18.4642 170.672 17.8721C169.004 16.7523 168.653 15.6716 168.653 14.9627C168.653 14.8713 168.674 14.7812 168.715 14.7C168.757 14.6188 168.816 14.549 168.89 14.4966C168.962 14.4461 169.044 14.414 169.13 14.403C169.217 14.3921 169.305 14.4026 169.386 14.4337C169.596 14.5132 169.819 14.5535 170.044 14.5524C170.449 14.5441 170.843 14.4112 171.173 14.1711C171.502 13.931 171.754 13.5949 171.893 13.207L172.283 12.2012L172.674 13.207C172.801 13.5877 173.039 13.92 173.356 14.16C173.673 14.3999 174.055 14.5362 174.449 14.5507C174.844 14.5653 175.234 14.4574 175.567 14.2414C175.9 14.0255 176.161 13.7115 176.315 13.3412L176.695 12.52L177.076 13.3412C177.229 13.6965 177.48 13.9995 177.797 14.2142C178.115 14.4289 178.486 14.5463 178.867 14.5524C179.117 14.5525 179.364 14.5017 179.594 14.4028C179.681 14.3656 179.775 14.351 179.869 14.3601C179.962 14.3692 180.052 14.4018 180.131 14.4551C180.212 14.5101 180.279 14.5848 180.325 14.6724C180.37 14.7601 180.394 14.858 180.394 14.9574C180.394 15.6699 180.044 16.7505 178.375 17.8703C177.555 18.4631 176.608 18.8503 175.612 19.0002ZM174.523 17.6702C174.858 17.6701 175.179 17.8023 175.42 18.0389C175.527 18.144 175.556 18.144 175.612 18.144C176.44 17.988 177.225 17.6514 177.913 17.1572C178.624 16.7423 179.183 16.102 179.503 15.3338C179.295 15.3851 179.082 15.411 178.868 15.411C178.449 15.4096 178.037 15.3117 177.66 15.1247C177.284 14.9376 176.955 14.6663 176.696 14.331C176.433 14.6751 176.094 14.9519 175.707 15.1395C175.32 15.327 174.896 15.4202 174.467 15.4115C174.039 15.4028 173.618 15.2925 173.239 15.0893C172.86 14.8862 172.532 14.5959 172.283 14.2413C172.025 14.6012 171.688 14.8944 171.299 15.0974C170.91 15.3004 170.48 15.4074 170.042 15.4098C169.878 15.4099 169.715 15.3948 169.553 15.3647C169.88 16.1176 170.434 16.7452 171.134 17.1566C171.822 17.6507 172.607 17.9873 173.435 18.1434C173.493 18.1434 173.52 18.1434 173.627 18.0383C173.868 17.8018 174.189 17.6698 174.524 17.6702H174.523Z" fill="#404040"/>
<path d="M170.055 7.32255C170.055 7.32255 171.978 9.25699 171.978 11.0549C171.978 12.8812 171.414 14.6281 170.703 14.8851C169.992 15.1422 171.982 14.2 171.982 14.2L172.234 12.7447C172.298 13.2322 172.466 13.6996 172.726 14.1139C173.221 14.5912 173.852 14.8954 174.528 14.9819C175.161 14.8998 175.758 14.6317 176.245 14.21C176.521 13.8538 176.536 13.2292 176.7 13.5266C177.068 14.0481 177.533 14.4917 178.067 14.8329C178.368 14.9243 177.418 13.4008 177.418 10.9177C177.43 10.2308 177.587 9.55451 177.878 8.93434C178.168 8.31417 178.585 7.76442 179.101 7.32196L177.165 8.20664L176.997 8.60624L175.967 7.71146L174.525 7.12305L173.352 7.29405L172.481 8.12174L172.229 8.69233L170.055 7.32255Z" fill="#404040"/>
<path d="M174.508 2.73674C174.399 2.44775 174.37 2.13436 174.423 1.82984C174.476 1.52531 174.609 1.24102 174.807 1.00715C175.369 0.484055 176.99 0.122461 177.593 0.00252335C177.616 -0.00209047 177.64 -0.000355072 177.661 0.00754773C177.683 0.0154505 177.703 0.0292299 177.718 0.0474422C177.733 0.0656546 177.743 0.0876297 177.747 0.111065C177.75 0.134501 177.748 0.158535 177.739 0.180648C177.455 1.02781 177.063 1.8333 176.573 2.57643C176.071 2.90113 175.503 3.10687 174.912 3.17849L175.606 2.32409C175.636 2.29058 175.652 2.247 175.651 2.20207C175.65 2.15715 175.633 2.11419 175.602 2.08182C175.571 2.04946 175.53 2.03006 175.486 2.02753C175.442 2.025 175.398 2.03952 175.364 2.06818L174.508 2.73674Z" fill="#404040"/>
</g>
<g clip-path="url(#clip7_3123_24618)">
<path d="M204.999 9.97L204.615 9.08294C204.429 8.687 204.141 8.35064 203.78 8.11076C203.42 7.87087 203.002 7.73673 202.571 7.72305C202.141 7.70938 201.715 7.81669 201.341 8.03322C200.967 8.24974 200.658 8.56712 200.449 8.95053L200.077 9.67075L199.705 8.95053C199.506 8.57455 199.209 8.26132 198.848 8.04486C198.486 7.82839 198.073 7.71696 197.654 7.72266C197.365 7.72212 197.078 7.77524 196.807 7.87941C196.717 7.9137 196.619 7.92508 196.523 7.91256C196.427 7.90005 196.335 7.86403 196.256 7.80757C196.178 7.75286 196.113 7.67969 196.069 7.5943C196.024 7.50891 196.001 7.41383 196 7.31713C196.022 6.22487 196.468 5.18605 197.241 4.4285C198.014 3.67094 199.05 3.2565 200.123 3.27607C200.97 3.27524 201.798 3.53292 202.5 4.01588C203.203 3.53295 204.031 3.27528 204.878 3.27607C205.95 3.25633 206.986 3.67024 207.759 4.42706C208.531 5.18388 208.978 6.22188 209.001 7.31356C209 7.40258 208.98 7.49029 208.94 7.56947C208.9 7.64865 208.842 7.71703 208.771 7.76897C208.698 7.82212 208.614 7.85688 208.525 7.87041C208.436 7.88393 208.345 7.87582 208.26 7.84675C208.015 7.76303 207.757 7.72051 207.498 7.72088C207.054 7.71517 206.619 7.84084 206.243 8.08262C205.868 8.32441 205.57 8.67191 205.385 9.08294L204.999 9.97ZM202.5 6.86588C202.98 6.86314 203.455 6.97143 203.887 7.18259C204.32 7.39374 204.701 7.70225 204.999 8.08485C205.298 7.70222 205.678 7.39369 206.111 7.18253C206.544 6.97137 207.018 6.8631 207.498 6.86588C207.712 6.86582 207.926 6.8873 208.136 6.93C208.018 6.14076 207.623 5.42205 207.023 4.90745C206.424 4.39285 205.662 4.11738 204.878 4.13225C204.11 4.13006 203.363 4.39432 202.762 4.88156L202.499 5.0971L202.236 4.88156C201.635 4.39483 200.89 4.1306 200.122 4.13225C199.332 4.11632 198.563 4.3959 197.962 4.91812C197.36 5.44033 196.967 6.16897 196.857 6.96622C197.117 6.89958 197.384 6.86608 197.652 6.86647C198.112 6.86326 198.567 6.96215 198.985 7.15626C199.403 7.35037 199.775 7.63504 200.075 7.99044C200.374 7.63504 200.746 7.35037 201.164 7.15626C201.583 6.96215 202.038 6.86326 202.497 6.86647L202.5 6.86588Z" fill="#404040"/>
<path d="M203.612 19.0002C203.467 19.0003 203.323 18.9698 203.19 18.9106C203.057 18.8515 202.937 18.7649 202.838 18.6564C202.754 18.5723 202.641 18.5251 202.524 18.5251C202.406 18.5251 202.293 18.5723 202.21 18.6564C202.111 18.7649 201.991 18.8515 201.858 18.9106C201.724 18.9698 201.581 19.0003 201.435 19.0002C200.44 18.8507 199.493 18.4642 198.672 17.8721C197.004 16.7523 196.653 15.6716 196.653 14.9627C196.653 14.8713 196.674 14.7812 196.715 14.7C196.757 14.6188 196.816 14.549 196.89 14.4966C196.962 14.4461 197.044 14.414 197.13 14.403C197.217 14.3921 197.305 14.4026 197.386 14.4337C197.596 14.5132 197.819 14.5535 198.044 14.5524C198.449 14.5441 198.843 14.4112 199.173 14.1711C199.502 13.931 199.754 13.5949 199.893 13.207L200.283 12.2012L200.674 13.207C200.801 13.5877 201.039 13.92 201.356 14.16C201.673 14.3999 202.055 14.5362 202.449 14.5507C202.844 14.5653 203.234 14.4574 203.567 14.2414C203.9 14.0255 204.161 13.7115 204.315 13.3412L204.695 12.52L205.076 13.3412C205.229 13.6965 205.48 13.9995 205.797 14.2142C206.115 14.4289 206.486 14.5463 206.867 14.5524C207.117 14.5525 207.364 14.5017 207.594 14.4028C207.681 14.3656 207.775 14.351 207.869 14.3601C207.962 14.3692 208.052 14.4018 208.131 14.4551C208.212 14.5101 208.279 14.5848 208.325 14.6724C208.37 14.7601 208.394 14.858 208.394 14.9574C208.394 15.6699 208.044 16.7505 206.375 17.8703C205.555 18.4631 204.608 18.8503 203.612 19.0002ZM202.523 17.6702C202.858 17.6701 203.179 17.8023 203.42 18.0389C203.527 18.144 203.556 18.144 203.612 18.144C204.44 17.988 205.225 17.6514 205.913 17.1572C206.624 16.7423 207.183 16.102 207.503 15.3338C207.295 15.3851 207.082 15.411 206.868 15.411C206.449 15.4096 206.037 15.3117 205.66 15.1247C205.284 14.9376 204.955 14.6663 204.696 14.331C204.433 14.6751 204.094 14.9519 203.707 15.1395C203.32 15.327 202.896 15.4202 202.467 15.4115C202.039 15.4028 201.618 15.2925 201.239 15.0893C200.86 14.8862 200.532 14.5959 200.283 14.2413C200.025 14.6012 199.688 14.8944 199.299 15.0974C198.91 15.3004 198.48 15.4074 198.042 15.4098C197.878 15.4099 197.715 15.3948 197.553 15.3647C197.88 16.1176 198.434 16.7452 199.134 17.1566C199.822 17.6507 200.607 17.9873 201.435 18.1434C201.493 18.1434 201.52 18.1434 201.627 18.0383C201.868 17.8018 202.189 17.6698 202.524 17.6702H202.523Z" fill="#404040"/>
<path d="M198.055 7.32255C198.055 7.32255 199.978 9.25699 199.978 11.0549C199.978 12.8812 199.414 14.6281 198.703 14.8851C197.992 15.1422 199.982 14.2 199.982 14.2L200.234 12.7447C200.298 13.2322 200.466 13.6996 200.726 14.1139C201.221 14.5912 201.852 14.8954 202.528 14.9819C203.161 14.8998 203.758 14.6317 204.245 14.21C204.521 13.8538 204.536 13.2292 204.7 13.5266C205.068 14.0481 205.533 14.4917 206.067 14.8329C206.368 14.9243 205.418 13.4008 205.418 10.9177C205.43 10.2308 205.587 9.55451 205.878 8.93434C206.168 8.31417 206.585 7.76442 207.101 7.32196L205.165 8.20664L204.997 8.60624L203.967 7.71146L202.525 7.12305L201.352 7.29405L200.481 8.12174L200.229 8.69233L198.055 7.32255Z" fill="#404040"/>
<path d="M202.508 2.73674C202.399 2.44775 202.37 2.13436 202.423 1.82984C202.476 1.52531 202.609 1.24102 202.807 1.00715C203.369 0.484055 204.99 0.122461 205.593 0.00252335C205.616 -0.00209047 205.64 -0.000355072 205.661 0.00754773C205.683 0.0154505 205.703 0.0292299 205.718 0.0474422C205.733 0.0656546 205.743 0.0876297 205.747 0.111065C205.75 0.134501 205.748 0.158535 205.739 0.180648C205.455 1.02781 205.063 1.8333 204.573 2.57643C204.071 2.90113 203.503 3.10687 202.912 3.17849L203.606 2.32409C203.636 2.29058 203.652 2.247 203.651 2.20207C203.65 2.15715 203.633 2.11419 203.602 2.08182C203.571 2.04946 203.53 2.03006 203.486 2.02753C203.442 2.025 203.398 2.03952 203.364 2.06818L202.508 2.73674Z" fill="#404040"/>
</g>
<g clip-path="url(#clip8_3123_24618)">
<path d="M232.999 9.97L232.615 9.08294C232.429 8.687 232.141 8.35064 231.78 8.11076C231.42 7.87087 231.002 7.73673 230.571 7.72305C230.141 7.70938 229.715 7.81669 229.341 8.03322C228.967 8.24974 228.658 8.56712 228.449 8.95053L228.077 9.67075L227.705 8.95053C227.506 8.57455 227.209 8.26132 226.848 8.04486C226.486 7.82839 226.073 7.71696 225.654 7.72266C225.365 7.72212 225.078 7.77524 224.807 7.87941C224.717 7.9137 224.619 7.92508 224.523 7.91256C224.427 7.90005 224.335 7.86403 224.256 7.80757C224.178 7.75286 224.113 7.67969 224.069 7.5943C224.024 7.50891 224.001 7.41383 224 7.31713C224.022 6.22487 224.468 5.18605 225.241 4.4285C226.014 3.67094 227.05 3.2565 228.123 3.27607C228.97 3.27524 229.798 3.53292 230.5 4.01588C231.203 3.53295 232.031 3.27528 232.878 3.27607C233.95 3.25633 234.986 3.67024 235.759 4.42706C236.531 5.18388 236.978 6.22188 237.001 7.31356C237 7.40258 236.98 7.49029 236.94 7.56947C236.9 7.64865 236.842 7.71703 236.771 7.76897C236.698 7.82212 236.614 7.85688 236.525 7.87041C236.436 7.88393 236.345 7.87582 236.26 7.84675C236.015 7.76303 235.757 7.72051 235.498 7.72088C235.054 7.71517 234.619 7.84084 234.243 8.08262C233.868 8.32441 233.57 8.67191 233.385 9.08294L232.999 9.97ZM230.5 6.86588C230.98 6.86314 231.455 6.97143 231.887 7.18259C232.32 7.39374 232.701 7.70225 232.999 8.08485C233.298 7.70222 233.678 7.39369 234.111 7.18253C234.544 6.97137 235.018 6.8631 235.498 6.86588C235.712 6.86582 235.926 6.8873 236.136 6.93C236.018 6.14076 235.623 5.42205 235.023 4.90745C234.424 4.39285 233.662 4.11738 232.878 4.13225C232.11 4.13006 231.363 4.39432 230.762 4.88156L230.499 5.0971L230.236 4.88156C229.635 4.39483 228.89 4.1306 228.122 4.13225C227.332 4.11632 226.563 4.3959 225.962 4.91812C225.36 5.44033 224.967 6.16897 224.857 6.96622C225.117 6.89958 225.384 6.86608 225.652 6.86647C226.112 6.86326 226.567 6.96215 226.985 7.15626C227.403 7.35037 227.775 7.63504 228.075 7.99044C228.374 7.63504 228.746 7.35037 229.164 7.15626C229.583 6.96215 230.038 6.86326 230.497 6.86647L230.5 6.86588Z" fill="#404040"/>
<path d="M231.612 19.0002C231.467 19.0003 231.323 18.9698 231.19 18.9106C231.057 18.8515 230.937 18.7649 230.838 18.6564C230.754 18.5723 230.641 18.5251 230.524 18.5251C230.406 18.5251 230.293 18.5723 230.21 18.6564C230.111 18.7649 229.991 18.8515 229.858 18.9106C229.724 18.9698 229.581 19.0003 229.435 19.0002C228.44 18.8507 227.493 18.4642 226.672 17.8721C225.004 16.7523 224.653 15.6716 224.653 14.9627C224.653 14.8713 224.674 14.7812 224.715 14.7C224.757 14.6188 224.816 14.549 224.89 14.4966C224.962 14.4461 225.044 14.414 225.13 14.403C225.217 14.3921 225.305 14.4026 225.386 14.4337C225.596 14.5132 225.819 14.5535 226.044 14.5524C226.449 14.5441 226.843 14.4112 227.173 14.1711C227.502 13.931 227.754 13.5949 227.893 13.207L228.283 12.2012L228.674 13.207C228.801 13.5877 229.039 13.92 229.356 14.16C229.673 14.3999 230.055 14.5362 230.449 14.5507C230.844 14.5653 231.234 14.4574 231.567 14.2414C231.9 14.0255 232.161 13.7115 232.315 13.3412L232.695 12.52L233.076 13.3412C233.229 13.6965 233.48 13.9995 233.797 14.2142C234.115 14.4289 234.486 14.5463 234.867 14.5524C235.117 14.5525 235.364 14.5017 235.594 14.4028C235.681 14.3656 235.775 14.351 235.869 14.3601C235.962 14.3692 236.052 14.4018 236.131 14.4551C236.212 14.5101 236.279 14.5848 236.325 14.6724C236.37 14.7601 236.394 14.858 236.394 14.9574C236.394 15.6699 236.044 16.7505 234.375 17.8703C233.555 18.4631 232.608 18.8503 231.612 19.0002ZM230.523 17.6702C230.858 17.6701 231.179 17.8023 231.42 18.0389C231.527 18.144 231.556 18.144 231.612 18.144C232.44 17.988 233.225 17.6514 233.913 17.1572C234.624 16.7423 235.183 16.102 235.503 15.3338C235.295 15.3851 235.082 15.411 234.868 15.411C234.449 15.4096 234.037 15.3117 233.66 15.1247C233.284 14.9376 232.955 14.6663 232.696 14.331C232.433 14.6751 232.094 14.9519 231.707 15.1395C231.32 15.327 230.896 15.4202 230.467 15.4115C230.039 15.4028 229.618 15.2925 229.239 15.0893C228.86 14.8862 228.532 14.5959 228.283 14.2413C228.025 14.6012 227.688 14.8944 227.299 15.0974C226.91 15.3004 226.48 15.4074 226.042 15.4098C225.878 15.4099 225.715 15.3948 225.553 15.3647C225.88 16.1176 226.434 16.7452 227.134 17.1566C227.822 17.6507 228.607 17.9873 229.435 18.1434C229.493 18.1434 229.52 18.1434 229.627 18.0383C229.868 17.8018 230.189 17.6698 230.524 17.6702H230.523Z" fill="#404040"/>
<path d="M226.055 7.32255C226.055 7.32255 227.978 9.25699 227.978 11.0549C227.978 12.8812 227.414 14.6281 226.703 14.8851C225.992 15.1422 227.982 14.2 227.982 14.2L228.234 12.7447C228.298 13.2322 228.466 13.6996 228.726 14.1139C229.221 14.5912 229.852 14.8954 230.528 14.9819C231.161 14.8998 231.758 14.6317 232.245 14.21C232.521 13.8538 232.536 13.2292 232.7 13.5266C233.068 14.0481 233.533 14.4917 234.067 14.8329C234.368 14.9243 233.418 13.4008 233.418 10.9177C233.43 10.2308 233.587 9.55451 233.878 8.93434C234.168 8.31417 234.585 7.76442 235.101 7.32196L233.165 8.20664L232.997 8.60624L231.967 7.71146L230.525 7.12305L229.352 7.29405L228.481 8.12174L228.229 8.69233L226.055 7.32255Z" fill="#404040"/>
<path d="M230.508 2.73674C230.399 2.44775 230.37 2.13436 230.423 1.82984C230.476 1.52531 230.609 1.24102 230.807 1.00715C231.369 0.484055 232.99 0.122461 233.593 0.00252335C233.616 -0.00209047 233.64 -0.000355072 233.661 0.00754773C233.683 0.0154505 233.703 0.0292299 233.718 0.0474422C233.733 0.0656546 233.743 0.0876297 233.747 0.111065C233.75 0.134501 233.748 0.158535 233.739 0.180648C233.455 1.02781 233.063 1.8333 232.573 2.57643C232.071 2.90113 231.503 3.10687 230.912 3.17849L231.606 2.32409C231.636 2.29058 231.652 2.247 231.651 2.20207C231.65 2.15715 231.633 2.11419 231.602 2.08182C231.571 2.04946 231.53 2.03006 231.486 2.02753C231.442 2.025 231.398 2.03952 231.364 2.06818L230.508 2.73674Z" fill="#404040"/>
</g>
<g clip-path="url(#clip9_3123_24618)">
<path d="M260.999 9.97L260.615 9.08294C260.429 8.687 260.141 8.35064 259.78 8.11076C259.42 7.87087 259.002 7.73673 258.571 7.72305C258.141 7.70938 257.715 7.81669 257.341 8.03322C256.967 8.24974 256.658 8.56712 256.449 8.95053L256.077 9.67075L255.705 8.95053C255.506 8.57455 255.209 8.26132 254.848 8.04486C254.486 7.82839 254.073 7.71696 253.654 7.72266C253.365 7.72212 253.078 7.77524 252.807 7.87941C252.717 7.9137 252.619 7.92508 252.523 7.91256C252.427 7.90005 252.335 7.86403 252.256 7.80757C252.178 7.75286 252.113 7.67969 252.069 7.5943C252.024 7.50891 252.001 7.41383 252 7.31713C252.022 6.22487 252.468 5.18605 253.241 4.4285C254.014 3.67094 255.05 3.2565 256.123 3.27607C256.97 3.27524 257.798 3.53292 258.5 4.01588C259.203 3.53295 260.031 3.27528 260.878 3.27607C261.95 3.25633 262.986 3.67024 263.759 4.42706C264.531 5.18388 264.978 6.22188 265.001 7.31356C265 7.40258 264.98 7.49029 264.94 7.56947C264.9 7.64865 264.842 7.71703 264.771 7.76897C264.698 7.82212 264.614 7.85688 264.525 7.87041C264.436 7.88393 264.345 7.87582 264.26 7.84675C264.015 7.76303 263.757 7.72051 263.498 7.72088C263.054 7.71517 262.619 7.84084 262.243 8.08262C261.868 8.32441 261.57 8.67191 261.385 9.08294L260.999 9.97ZM258.5 6.86588C258.98 6.86314 259.455 6.97143 259.887 7.18259C260.32 7.39374 260.701 7.70225 260.999 8.08485C261.298 7.70222 261.678 7.39369 262.111 7.18253C262.544 6.97137 263.018 6.8631 263.498 6.86588C263.712 6.86582 263.926 6.8873 264.136 6.93C264.018 6.14076 263.623 5.42205 263.023 4.90745C262.424 4.39285 261.662 4.11738 260.878 4.13225C260.11 4.13006 259.363 4.39432 258.762 4.88156L258.499 5.0971L258.236 4.88156C257.635 4.39483 256.89 4.1306 256.122 4.13225C255.332 4.11632 254.563 4.3959 253.962 4.91812C253.36 5.44033 252.967 6.16897 252.857 6.96622C253.117 6.89958 253.384 6.86608 253.652 6.86647C254.112 6.86326 254.567 6.96215 254.985 7.15626C255.403 7.35037 255.775 7.63504 256.075 7.99044C256.374 7.63504 256.746 7.35037 257.164 7.15626C257.583 6.96215 258.038 6.86326 258.497 6.86647L258.5 6.86588Z" fill="#404040"/>
<path d="M259.612 19.0002C259.467 19.0003 259.323 18.9698 259.19 18.9106C259.057 18.8515 258.937 18.7649 258.838 18.6564C258.754 18.5723 258.641 18.5251 258.524 18.5251C258.406 18.5251 258.293 18.5723 258.21 18.6564C258.111 18.7649 257.991 18.8515 257.858 18.9106C257.724 18.9698 257.581 19.0003 257.435 19.0002C256.44 18.8507 255.493 18.4642 254.672 17.8721C253.004 16.7523 252.653 15.6716 252.653 14.9627C252.653 14.8713 252.674 14.7812 252.715 14.7C252.757 14.6188 252.816 14.549 252.89 14.4966C252.962 14.4461 253.044 14.414 253.13 14.403C253.217 14.3921 253.305 14.4026 253.386 14.4337C253.596 14.5132 253.819 14.5535 254.044 14.5524C254.449 14.5441 254.843 14.4112 255.173 14.1711C255.502 13.931 255.754 13.5949 255.893 13.207L256.283 12.2012L256.674 13.207C256.801 13.5877 257.039 13.92 257.356 14.16C257.673 14.3999 258.055 14.5362 258.449 14.5507C258.844 14.5653 259.234 14.4574 259.567 14.2414C259.9 14.0255 260.161 13.7115 260.315 13.3412L260.695 12.52L261.076 13.3412C261.229 13.6965 261.48 13.9995 261.797 14.2142C262.115 14.4289 262.486 14.5463 262.867 14.5524C263.117 14.5525 263.364 14.5017 263.594 14.4028C263.681 14.3656 263.775 14.351 263.869 14.3601C263.962 14.3692 264.052 14.4018 264.131 14.4551C264.212 14.5101 264.279 14.5848 264.325 14.6724C264.37 14.7601 264.394 14.858 264.394 14.9574C264.394 15.6699 264.044 16.7505 262.375 17.8703C261.555 18.4631 260.608 18.8503 259.612 19.0002ZM258.523 17.6702C258.858 17.6701 259.179 17.8023 259.42 18.0389C259.527 18.144 259.556 18.144 259.612 18.144C260.44 17.988 261.225 17.6514 261.913 17.1572C262.624 16.7423 263.183 16.102 263.503 15.3338C263.295 15.3851 263.082 15.411 262.868 15.411C262.449 15.4096 262.037 15.3117 261.66 15.1247C261.284 14.9376 260.955 14.6663 260.696 14.331C260.433 14.6751 260.094 14.9519 259.707 15.1395C259.32 15.327 258.896 15.4202 258.467 15.4115C258.039 15.4028 257.618 15.2925 257.239 15.0893C256.86 14.8862 256.532 14.5959 256.283 14.2413C256.025 14.6012 255.688 14.8944 255.299 15.0974C254.91 15.3004 254.48 15.4074 254.042 15.4098C253.878 15.4099 253.715 15.3948 253.553 15.3647C253.88 16.1176 254.434 16.7452 255.134 17.1566C255.822 17.6507 256.607 17.9873 257.435 18.1434C257.493 18.1434 257.52 18.1434 257.627 18.0383C257.868 17.8018 258.189 17.6698 258.524 17.6702H258.523Z" fill="#404040"/>
<path d="M254.055 7.32255C254.055 7.32255 255.978 9.25699 255.978 11.0549C255.978 12.8812 255.414 14.6281 254.703 14.8851C253.992 15.1422 255.982 14.2 255.982 14.2L256.234 12.7447C256.298 13.2322 256.466 13.6996 256.726 14.1139C257.221 14.5912 257.852 14.8954 258.528 14.9819C259.161 14.8998 259.758 14.6317 260.245 14.21C260.521 13.8538 260.536 13.2292 260.7 13.5266C261.068 14.0481 261.533 14.4917 262.067 14.8329C262.368 14.9243 261.418 13.4008 261.418 10.9177C261.43 10.2308 261.587 9.55451 261.878 8.93434C262.168 8.31417 262.585 7.76442 263.101 7.32196L261.165 8.20664L260.997 8.60624L259.967 7.71146L258.525 7.12305L257.352 7.29405L256.481 8.12174L256.229 8.69233L254.055 7.32255Z" fill="#404040"/>
<path d="M258.508 2.73674C258.399 2.44775 258.37 2.13436 258.423 1.82984C258.476 1.52531 258.609 1.24102 258.807 1.00715C259.369 0.484055 260.99 0.122461 261.593 0.00252335C261.616 -0.00209047 261.64 -0.000355072 261.661 0.00754773C261.683 0.0154505 261.703 0.0292299 261.718 0.0474422C261.733 0.0656546 261.743 0.0876297 261.747 0.111065C261.75 0.134501 261.748 0.158535 261.739 0.180648C261.455 1.02781 261.063 1.8333 260.573 2.57643C260.071 2.90113 259.503 3.10687 258.912 3.17849L259.606 2.32409C259.636 2.29058 259.652 2.247 259.651 2.20207C259.65 2.15715 259.633 2.11419 259.602 2.08182C259.571 2.04946 259.53 2.03006 259.486 2.02753C259.442 2.025 259.398 2.03952 259.364 2.06818L258.508 2.73674Z" fill="#404040"/>
</g>
<g clip-path="url(#clip10_3123_24618)">
<path d="M288.999 9.97L288.615 9.08294C288.429 8.687 288.141 8.35064 287.78 8.11076C287.42 7.87087 287.002 7.73673 286.571 7.72305C286.141 7.70938 285.715 7.81669 285.341 8.03322C284.967 8.24974 284.658 8.56712 284.449 8.95053L284.077 9.67075L283.705 8.95053C283.506 8.57455 283.209 8.26132 282.848 8.04486C282.486 7.82839 282.073 7.71696 281.654 7.72266C281.365 7.72212 281.078 7.77524 280.807 7.87941C280.717 7.9137 280.619 7.92508 280.523 7.91256C280.427 7.90005 280.335 7.86403 280.256 7.80757C280.178 7.75286 280.113 7.67969 280.069 7.5943C280.024 7.50891 280.001 7.41383 280 7.31713C280.022 6.22487 280.468 5.18605 281.241 4.4285C282.014 3.67094 283.05 3.2565 284.123 3.27607C284.97 3.27524 285.798 3.53292 286.5 4.01588C287.203 3.53295 288.031 3.27528 288.878 3.27607C289.95 3.25633 290.986 3.67024 291.759 4.42706C292.531 5.18388 292.978 6.22188 293.001 7.31356C293 7.40258 292.98 7.49029 292.94 7.56947C292.9 7.64865 292.842 7.71703 292.771 7.76897C292.698 7.82212 292.614 7.85688 292.525 7.87041C292.436 7.88393 292.345 7.87582 292.26 7.84675C292.015 7.76303 291.757 7.72051 291.498 7.72088C291.054 7.71517 290.619 7.84084 290.243 8.08262C289.868 8.32441 289.57 8.67191 289.385 9.08294L288.999 9.97ZM286.5 6.86588C286.98 6.86314 287.455 6.97143 287.887 7.18259C288.32 7.39374 288.701 7.70225 288.999 8.08485C289.298 7.70222 289.678 7.39369 290.111 7.18253C290.544 6.97137 291.018 6.8631 291.498 6.86588C291.712 6.86582 291.926 6.8873 292.136 6.93C292.018 6.14076 291.623 5.42205 291.023 4.90745C290.424 4.39285 289.662 4.11738 288.878 4.13225C288.11 4.13006 287.363 4.39432 286.762 4.88156L286.499 5.0971L286.236 4.88156C285.635 4.39483 284.89 4.1306 284.122 4.13225C283.332 4.11632 282.563 4.3959 281.962 4.91812C281.36 5.44033 280.967 6.16897 280.857 6.96622C281.117 6.89958 281.384 6.86608 281.652 6.86647C282.112 6.86326 282.567 6.96215 282.985 7.15626C283.403 7.35037 283.775 7.63504 284.075 7.99044C284.374 7.63504 284.746 7.35037 285.164 7.15626C285.583 6.96215 286.038 6.86326 286.497 6.86647L286.5 6.86588Z" fill="#404040"/>
<path d="M287.612 19.0002C287.467 19.0003 287.323 18.9698 287.19 18.9106C287.057 18.8515 286.937 18.7649 286.838 18.6564C286.754 18.5723 286.641 18.5251 286.524 18.5251C286.406 18.5251 286.293 18.5723 286.21 18.6564C286.111 18.7649 285.991 18.8515 285.858 18.9106C285.724 18.9698 285.581 19.0003 285.435 19.0002C284.44 18.8507 283.493 18.4642 282.672 17.8721C281.004 16.7523 280.653 15.6716 280.653 14.9627C280.653 14.8713 280.674 14.7812 280.715 14.7C280.757 14.6188 280.816 14.549 280.89 14.4966C280.962 14.4461 281.044 14.414 281.13 14.403C281.217 14.3921 281.305 14.4026 281.386 14.4337C281.596 14.5132 281.819 14.5535 282.044 14.5524C282.449 14.5441 282.843 14.4112 283.173 14.1711C283.502 13.931 283.754 13.5949 283.893 13.207L284.283 12.2012L284.674 13.207C284.801 13.5877 285.039 13.92 285.356 14.16C285.673 14.3999 286.055 14.5362 286.449 14.5507C286.844 14.5653 287.234 14.4574 287.567 14.2414C287.9 14.0255 288.161 13.7115 288.315 13.3412L288.695 12.52L289.076 13.3412C289.229 13.6965 289.48 13.9995 289.797 14.2142C290.115 14.4289 290.486 14.5463 290.867 14.5524C291.117 14.5525 291.364 14.5017 291.594 14.4028C291.681 14.3656 291.775 14.351 291.869 14.3601C291.962 14.3692 292.052 14.4018 292.131 14.4551C292.212 14.5101 292.279 14.5848 292.325 14.6724C292.37 14.7601 292.394 14.858 292.394 14.9574C292.394 15.6699 292.044 16.7505 290.375 17.8703C289.555 18.4631 288.608 18.8503 287.612 19.0002ZM286.523 17.6702C286.858 17.6701 287.179 17.8023 287.42 18.0389C287.527 18.144 287.556 18.144 287.612 18.144C288.44 17.988 289.225 17.6514 289.913 17.1572C290.624 16.7423 291.183 16.102 291.503 15.3338C291.295 15.3851 291.082 15.411 290.868 15.411C290.449 15.4096 290.037 15.3117 289.66 15.1247C289.284 14.9376 288.955 14.6663 288.696 14.331C288.433 14.6751 288.094 14.9519 287.707 15.1395C287.32 15.327 286.896 15.4202 286.467 15.4115C286.039 15.4028 285.618 15.2925 285.239 15.0893C284.86 14.8862 284.532 14.5959 284.283 14.2413C284.025 14.6012 283.688 14.8944 283.299 15.0974C282.91 15.3004 282.48 15.4074 282.042 15.4098C281.878 15.4099 281.715 15.3948 281.553 15.3647C281.88 16.1176 282.434 16.7452 283.134 17.1566C283.822 17.6507 284.607 17.9873 285.435 18.1434C285.493 18.1434 285.52 18.1434 285.627 18.0383C285.868 17.8018 286.189 17.6698 286.524 17.6702H286.523Z" fill="#404040"/>
<path d="M282.055 7.32255C282.055 7.32255 283.978 9.25699 283.978 11.0549C283.978 12.8812 283.414 14.6281 282.703 14.8851C281.992 15.1422 283.982 14.2 283.982 14.2L284.234 12.7447C284.298 13.2322 284.466 13.6996 284.726 14.1139C285.221 14.5912 285.852 14.8954 286.528 14.9819C287.161 14.8998 287.758 14.6317 288.245 14.21C288.521 13.8538 288.536 13.2292 288.7 13.5266C289.068 14.0481 289.533 14.4917 290.067 14.8329C290.368 14.9243 289.418 13.4008 289.418 10.9177C289.43 10.2308 289.587 9.55451 289.878 8.93434C290.168 8.31417 290.585 7.76442 291.101 7.32196L289.165 8.20664L288.997 8.60624L287.967 7.71146L286.525 7.12305L285.352 7.29405L284.481 8.12174L284.229 8.69233L282.055 7.32255Z" fill="#404040"/>
<path d="M286.508 2.73674C286.399 2.44775 286.37 2.13436 286.423 1.82984C286.476 1.52531 286.609 1.24102 286.807 1.00715C287.369 0.484055 288.99 0.122461 289.593 0.00252335C289.616 -0.00209047 289.64 -0.000355072 289.661 0.00754773C289.683 0.0154505 289.703 0.0292299 289.718 0.0474422C289.733 0.0656546 289.743 0.0876297 289.747 0.111065C289.75 0.134501 289.748 0.158535 289.739 0.180648C289.455 1.02781 289.063 1.8333 288.573 2.57643C288.071 2.90113 287.503 3.10687 286.912 3.17849L287.606 2.32409C287.636 2.29058 287.652 2.247 287.651 2.20207C287.65 2.15715 287.633 2.11419 287.602 2.08182C287.571 2.04946 287.53 2.03006 287.486 2.02753C287.442 2.025 287.398 2.03952 287.364 2.06818L286.508 2.73674Z" fill="#404040"/>
</g>
<g clip-path="url(#clip11_3123_24618)">
<path d="M316.999 9.97L316.615 9.08294C316.429 8.687 316.141 8.35064 315.78 8.11076C315.42 7.87087 315.002 7.73673 314.571 7.72305C314.141 7.70938 313.715 7.81669 313.341 8.03322C312.967 8.24974 312.658 8.56712 312.449 8.95053L312.077 9.67075L311.705 8.95053C311.506 8.57455 311.209 8.26132 310.848 8.04486C310.486 7.82839 310.073 7.71696 309.654 7.72266C309.365 7.72212 309.078 7.77524 308.807 7.87941C308.717 7.9137 308.619 7.92508 308.523 7.91256C308.427 7.90005 308.335 7.86403 308.256 7.80757C308.178 7.75286 308.113 7.67969 308.069 7.5943C308.024 7.50891 308.001 7.41383 308 7.31713C308.022 6.22487 308.468 5.18605 309.241 4.4285C310.014 3.67094 311.05 3.2565 312.123 3.27607C312.97 3.27524 313.798 3.53292 314.5 4.01588C315.203 3.53295 316.031 3.27528 316.878 3.27607C317.95 3.25633 318.986 3.67024 319.759 4.42706C320.531 5.18388 320.978 6.22188 321.001 7.31356C321 7.40258 320.98 7.49029 320.94 7.56947C320.9 7.64865 320.842 7.71703 320.771 7.76897C320.698 7.82212 320.614 7.85688 320.525 7.87041C320.436 7.88393 320.345 7.87582 320.26 7.84675C320.015 7.76303 319.757 7.72051 319.498 7.72088C319.054 7.71517 318.619 7.84084 318.243 8.08262C317.868 8.32441 317.57 8.67191 317.385 9.08294L316.999 9.97ZM314.5 6.86588C314.98 6.86314 315.455 6.97143 315.887 7.18259C316.32 7.39374 316.701 7.70225 316.999 8.08485C317.298 7.70222 317.678 7.39369 318.111 7.18253C318.544 6.97137 319.018 6.8631 319.498 6.86588C319.712 6.86582 319.926 6.8873 320.136 6.93C320.018 6.14076 319.623 5.42205 319.023 4.90745C318.424 4.39285 317.662 4.11738 316.878 4.13225C316.11 4.13006 315.363 4.39432 314.762 4.88156L314.499 5.0971L314.236 4.88156C313.635 4.39483 312.89 4.1306 312.122 4.13225C311.332 4.11632 310.563 4.3959 309.962 4.91812C309.36 5.44033 308.967 6.16897 308.857 6.96622C309.117 6.89958 309.384 6.86608 309.652 6.86647C310.112 6.86326 310.567 6.96215 310.985 7.15626C311.403 7.35037 311.775 7.63504 312.075 7.99044C312.374 7.63504 312.746 7.35037 313.164 7.15626C313.583 6.96215 314.038 6.86326 314.497 6.86647L314.5 6.86588Z" fill="#404040"/>
<path d="M315.612 19.0002C315.467 19.0003 315.323 18.9698 315.19 18.9106C315.057 18.8515 314.937 18.7649 314.838 18.6564C314.754 18.5723 314.641 18.5251 314.524 18.5251C314.406 18.5251 314.293 18.5723 314.21 18.6564C314.111 18.7649 313.991 18.8515 313.858 18.9106C313.724 18.9698 313.581 19.0003 313.435 19.0002C312.44 18.8507 311.493 18.4642 310.672 17.8721C309.004 16.7523 308.653 15.6716 308.653 14.9627C308.653 14.8713 308.674 14.7812 308.715 14.7C308.757 14.6188 308.816 14.549 308.89 14.4966C308.962 14.4461 309.044 14.414 309.13 14.403C309.217 14.3921 309.305 14.4026 309.386 14.4337C309.596 14.5132 309.819 14.5535 310.044 14.5524C310.449 14.5441 310.843 14.4112 311.173 14.1711C311.502 13.931 311.754 13.5949 311.893 13.207L312.283 12.2012L312.674 13.207C312.801 13.5877 313.039 13.92 313.356 14.16C313.673 14.3999 314.055 14.5362 314.449 14.5507C314.844 14.5653 315.234 14.4574 315.567 14.2414C315.9 14.0255 316.161 13.7115 316.315 13.3412L316.695 12.52L317.076 13.3412C317.229 13.6965 317.48 13.9995 317.797 14.2142C318.115 14.4289 318.486 14.5463 318.867 14.5524C319.117 14.5525 319.364 14.5017 319.594 14.4028C319.681 14.3656 319.775 14.351 319.869 14.3601C319.962 14.3692 320.052 14.4018 320.131 14.4551C320.212 14.5101 320.279 14.5848 320.325 14.6724C320.37 14.7601 320.394 14.858 320.394 14.9574C320.394 15.6699 320.044 16.7505 318.375 17.8703C317.555 18.4631 316.608 18.8503 315.612 19.0002ZM314.523 17.6702C314.858 17.6701 315.179 17.8023 315.42 18.0389C315.527 18.144 315.556 18.144 315.612 18.144C316.44 17.988 317.225 17.6514 317.913 17.1572C318.624 16.7423 319.183 16.102 319.503 15.3338C319.295 15.3851 319.082 15.411 318.868 15.411C318.449 15.4096 318.037 15.3117 317.66 15.1247C317.284 14.9376 316.955 14.6663 316.696 14.331C316.433 14.6751 316.094 14.9519 315.707 15.1395C315.32 15.327 314.896 15.4202 314.467 15.4115C314.039 15.4028 313.618 15.2925 313.239 15.0893C312.86 14.8862 312.532 14.5959 312.283 14.2413C312.025 14.6012 311.688 14.8944 311.299 15.0974C310.91 15.3004 310.48 15.4074 310.042 15.4098C309.878 15.4099 309.715 15.3948 309.553 15.3647C309.88 16.1176 310.434 16.7452 311.134 17.1566C311.822 17.6507 312.607 17.9873 313.435 18.1434C313.493 18.1434 313.52 18.1434 313.627 18.0383C313.868 17.8018 314.189 17.6698 314.524 17.6702H314.523Z" fill="#404040"/>
<path d="M310.055 7.32255C310.055 7.32255 311.978 9.25699 311.978 11.0549C311.978 12.8812 311.414 14.6281 310.703 14.8851C309.992 15.1422 311.982 14.2 311.982 14.2L312.234 12.7447C312.298 13.2322 312.466 13.6996 312.726 14.1139C313.221 14.5912 313.852 14.8954 314.528 14.9819C315.161 14.8998 315.758 14.6317 316.245 14.21C316.521 13.8538 316.536 13.2292 316.7 13.5266C317.068 14.0481 317.533 14.4917 318.067 14.8329C318.368 14.9243 317.418 13.4008 317.418 10.9177C317.43 10.2308 317.587 9.55451 317.878 8.93434C318.168 8.31417 318.585 7.76442 319.101 7.32196L317.165 8.20664L316.997 8.60624L315.967 7.71146L314.525 7.12305L313.352 7.29405L312.481 8.12174L312.229 8.69233L310.055 7.32255Z" fill="#404040"/>
<path d="M314.508 2.73674C314.399 2.44775 314.37 2.13436 314.423 1.82984C314.476 1.52531 314.609 1.24102 314.807 1.00715C315.369 0.484055 316.99 0.122461 317.593 0.00252335C317.616 -0.00209047 317.64 -0.000355072 317.661 0.00754773C317.683 0.0154505 317.703 0.0292299 317.718 0.0474422C317.733 0.0656546 317.743 0.0876297 317.747 0.111065C317.75 0.134501 317.748 0.158535 317.739 0.180648C317.455 1.02781 317.063 1.8333 316.573 2.57643C316.071 2.90113 315.503 3.10687 314.912 3.17849L315.606 2.32409C315.636 2.29058 315.652 2.247 315.651 2.20207C315.65 2.15715 315.633 2.11419 315.602 2.08182C315.571 2.04946 315.53 2.03006 315.486 2.02753C315.442 2.025 315.398 2.03952 315.364 2.06818L314.508 2.73674Z" fill="#404040"/>
</g>
<g clip-path="url(#clip12_3123_24618)">
<path d="M344.999 9.97L344.615 9.08294C344.429 8.687 344.141 8.35064 343.78 8.11076C343.42 7.87087 343.002 7.73673 342.571 7.72305C342.141 7.70938 341.715 7.81669 341.341 8.03322C340.967 8.24974 340.658 8.56712 340.449 8.95053L340.077 9.67075L339.705 8.95053C339.506 8.57455 339.209 8.26132 338.848 8.04486C338.486 7.82839 338.073 7.71696 337.654 7.72266C337.365 7.72212 337.078 7.77524 336.807 7.87941C336.717 7.9137 336.619 7.92508 336.523 7.91256C336.427 7.90005 336.335 7.86403 336.256 7.80757C336.178 7.75286 336.113 7.67969 336.069 7.5943C336.024 7.50891 336.001 7.41383 336 7.31713C336.022 6.22487 336.468 5.18605 337.241 4.4285C338.014 3.67094 339.05 3.2565 340.123 3.27607C340.97 3.27524 341.798 3.53292 342.5 4.01588C343.203 3.53295 344.031 3.27528 344.878 3.27607C345.95 3.25633 346.986 3.67024 347.759 4.42706C348.531 5.18388 348.978 6.22188 349.001 7.31356C349 7.40258 348.98 7.49029 348.94 7.56947C348.9 7.64865 348.842 7.71703 348.771 7.76897C348.698 7.82212 348.614 7.85688 348.525 7.87041C348.436 7.88393 348.345 7.87582 348.26 7.84675C348.015 7.76303 347.757 7.72051 347.498 7.72088C347.054 7.71517 346.619 7.84084 346.243 8.08262C345.868 8.32441 345.57 8.67191 345.385 9.08294L344.999 9.97ZM342.5 6.86588C342.98 6.86314 343.455 6.97143 343.887 7.18259C344.32 7.39374 344.701 7.70225 344.999 8.08485C345.298 7.70222 345.678 7.39369 346.111 7.18253C346.544 6.97137 347.018 6.8631 347.498 6.86588C347.712 6.86582 347.926 6.8873 348.136 6.93C348.018 6.14076 347.623 5.42205 347.023 4.90745C346.424 4.39285 345.662 4.11738 344.878 4.13225C344.11 4.13006 343.363 4.39432 342.762 4.88156L342.499 5.0971L342.236 4.88156C341.635 4.39483 340.89 4.1306 340.122 4.13225C339.332 4.11632 338.563 4.3959 337.962 4.91812C337.36 5.44033 336.967 6.16897 336.857 6.96622C337.117 6.89958 337.384 6.86608 337.652 6.86647C338.112 6.86326 338.567 6.96215 338.985 7.15626C339.403 7.35037 339.775 7.63504 340.075 7.99044C340.374 7.63504 340.746 7.35037 341.164 7.15626C341.583 6.96215 342.038 6.86326 342.497 6.86647L342.5 6.86588Z" fill="#404040"/>
<path d="M343.612 19.0002C343.467 19.0003 343.323 18.9698 343.19 18.9106C343.057 18.8515 342.937 18.7649 342.838 18.6564C342.754 18.5723 342.641 18.5251 342.524 18.5251C342.406 18.5251 342.293 18.5723 342.21 18.6564C342.111 18.7649 341.991 18.8515 341.858 18.9106C341.724 18.9698 341.581 19.0003 341.435 19.0002C340.44 18.8507 339.493 18.4642 338.672 17.8721C337.004 16.7523 336.653 15.6716 336.653 14.9627C336.653 14.8713 336.674 14.7812 336.715 14.7C336.757 14.6188 336.816 14.549 336.89 14.4966C336.962 14.4461 337.044 14.414 337.13 14.403C337.217 14.3921 337.305 14.4026 337.386 14.4337C337.596 14.5132 337.819 14.5535 338.044 14.5524C338.449 14.5441 338.843 14.4112 339.173 14.1711C339.502 13.931 339.754 13.5949 339.893 13.207L340.283 12.2012L340.674 13.207C340.801 13.5877 341.039 13.92 341.356 14.16C341.673 14.3999 342.055 14.5362 342.449 14.5507C342.844 14.5653 343.234 14.4574 343.567 14.2414C343.9 14.0255 344.161 13.7115 344.315 13.3412L344.695 12.52L345.076 13.3412C345.229 13.6965 345.48 13.9995 345.797 14.2142C346.115 14.4289 346.486 14.5463 346.867 14.5524C347.117 14.5525 347.364 14.5017 347.594 14.4028C347.681 14.3656 347.775 14.351 347.869 14.3601C347.962 14.3692 348.052 14.4018 348.131 14.4551C348.212 14.5101 348.279 14.5848 348.325 14.6724C348.37 14.7601 348.394 14.858 348.394 14.9574C348.394 15.6699 348.044 16.7505 346.375 17.8703C345.555 18.4631 344.608 18.8503 343.612 19.0002ZM342.523 17.6702C342.858 17.6701 343.179 17.8023 343.42 18.0389C343.527 18.144 343.556 18.144 343.612 18.144C344.44 17.988 345.225 17.6514 345.913 17.1572C346.624 16.7423 347.183 16.102 347.503 15.3338C347.295 15.3851 347.082 15.411 346.868 15.411C346.449 15.4096 346.037 15.3117 345.66 15.1247C345.284 14.9376 344.955 14.6663 344.696 14.331C344.433 14.6751 344.094 14.9519 343.707 15.1395C343.32 15.327 342.896 15.4202 342.467 15.4115C342.039 15.4028 341.618 15.2925 341.239 15.0893C340.86 14.8862 340.532 14.5959 340.283 14.2413C340.025 14.6012 339.688 14.8944 339.299 15.0974C338.91 15.3004 338.48 15.4074 338.042 15.4098C337.878 15.4099 337.715 15.3948 337.553 15.3647C337.88 16.1176 338.434 16.7452 339.134 17.1566C339.822 17.6507 340.607 17.9873 341.435 18.1434C341.493 18.1434 341.52 18.1434 341.627 18.0383C341.868 17.8018 342.189 17.6698 342.524 17.6702H342.523Z" fill="#404040"/>
<path d="M338.055 7.32255C338.055 7.32255 339.978 9.25699 339.978 11.0549C339.978 12.8812 339.414 14.6281 338.703 14.8851C337.992 15.1422 339.982 14.2 339.982 14.2L340.234 12.7447C340.298 13.2322 340.466 13.6996 340.726 14.1139C341.221 14.5912 341.852 14.8954 342.528 14.9819C343.161 14.8998 343.758 14.6317 344.245 14.21C344.521 13.8538 344.536 13.2292 344.7 13.5266C345.068 14.0481 345.533 14.4917 346.067 14.8329C346.368 14.9243 345.418 13.4008 345.418 10.9177C345.43 10.2308 345.587 9.55451 345.878 8.93434C346.168 8.31417 346.585 7.76442 347.101 7.32196L345.165 8.20664L344.997 8.60624L343.967 7.71146L342.525 7.12305L341.352 7.29405L340.481 8.12174L340.229 8.69233L338.055 7.32255Z" fill="#404040"/>
<path d="M342.508 2.73674C342.399 2.44775 342.37 2.13436 342.423 1.82984C342.476 1.52531 342.609 1.24102 342.807 1.00715C343.369 0.484055 344.99 0.122461 345.593 0.00252335C345.616 -0.00209047 345.64 -0.000355072 345.661 0.00754773C345.683 0.0154505 345.703 0.0292299 345.718 0.0474422C345.733 0.0656546 345.743 0.0876297 345.747 0.111065C345.75 0.134501 345.748 0.158535 345.739 0.180648C345.455 1.02781 345.063 1.8333 344.573 2.57643C344.071 2.90113 343.503 3.10687 342.912 3.17849L343.606 2.32409C343.636 2.29058 343.652 2.247 343.651 2.20207C343.65 2.15715 343.633 2.11419 343.602 2.08182C343.571 2.04946 343.53 2.03006 343.486 2.02753C343.442 2.025 343.398 2.03952 343.364 2.06818L342.508 2.73674Z" fill="#404040"/>
</g>
<g clip-path="url(#clip13_3123_24618)">
<path d="M372.999 9.97L372.615 9.08294C372.429 8.687 372.141 8.35064 371.78 8.11076C371.42 7.87087 371.002 7.73673 370.571 7.72305C370.141 7.70938 369.715 7.81669 369.341 8.03322C368.967 8.24974 368.658 8.56712 368.449 8.95053L368.077 9.67075L367.705 8.95053C367.506 8.57455 367.209 8.26132 366.848 8.04486C366.486 7.82839 366.073 7.71696 365.654 7.72266C365.365 7.72212 365.078 7.77524 364.807 7.87941C364.717 7.9137 364.619 7.92508 364.523 7.91256C364.427 7.90005 364.335 7.86403 364.256 7.80757C364.178 7.75286 364.113 7.67969 364.069 7.5943C364.024 7.50891 364.001 7.41383 364 7.31713C364.022 6.22487 364.468 5.18605 365.241 4.4285C366.014 3.67094 367.05 3.2565 368.123 3.27607C368.97 3.27524 369.798 3.53292 370.5 4.01588C371.203 3.53295 372.031 3.27528 372.878 3.27607C373.95 3.25633 374.986 3.67024 375.759 4.42706C376.531 5.18388 376.978 6.22188 377.001 7.31356C377 7.40258 376.98 7.49029 376.94 7.56947C376.9 7.64865 376.842 7.71703 376.771 7.76897C376.698 7.82212 376.614 7.85688 376.525 7.87041C376.436 7.88393 376.345 7.87582 376.26 7.84675C376.015 7.76303 375.757 7.72051 375.498 7.72088C375.054 7.71517 374.619 7.84084 374.243 8.08262C373.868 8.32441 373.57 8.67191 373.385 9.08294L372.999 9.97ZM370.5 6.86588C370.98 6.86314 371.455 6.97143 371.887 7.18259C372.32 7.39374 372.701 7.70225 372.999 8.08485C373.298 7.70222 373.678 7.39369 374.111 7.18253C374.544 6.97137 375.018 6.8631 375.498 6.86588C375.712 6.86582 375.926 6.8873 376.136 6.93C376.018 6.14076 375.623 5.42205 375.023 4.90745C374.424 4.39285 373.662 4.11738 372.878 4.13225C372.11 4.13006 371.363 4.39432 370.762 4.88156L370.499 5.0971L370.236 4.88156C369.635 4.39483 368.89 4.1306 368.122 4.13225C367.332 4.11632 366.563 4.3959 365.962 4.91812C365.36 5.44033 364.967 6.16897 364.857 6.96622C365.117 6.89958 365.384 6.86608 365.652 6.86647C366.112 6.86326 366.567 6.96215 366.985 7.15626C367.403 7.35037 367.775 7.63504 368.075 7.99044C368.374 7.63504 368.746 7.35037 369.164 7.15626C369.583 6.96215 370.038 6.86326 370.497 6.86647L370.5 6.86588Z" fill="#404040"/>
<path d="M371.612 19.0002C371.467 19.0003 371.323 18.9698 371.19 18.9106C371.057 18.8515 370.937 18.7649 370.838 18.6564C370.754 18.5723 370.641 18.5251 370.524 18.5251C370.406 18.5251 370.293 18.5723 370.21 18.6564C370.111 18.7649 369.991 18.8515 369.858 18.9106C369.724 18.9698 369.581 19.0003 369.435 19.0002C368.44 18.8507 367.493 18.4642 366.672 17.8721C365.004 16.7523 364.653 15.6716 364.653 14.9627C364.653 14.8713 364.674 14.7812 364.715 14.7C364.757 14.6188 364.816 14.549 364.89 14.4966C364.962 14.4461 365.044 14.414 365.13 14.403C365.217 14.3921 365.305 14.4026 365.386 14.4337C365.596 14.5132 365.819 14.5535 366.044 14.5524C366.449 14.5441 366.843 14.4112 367.173 14.1711C367.502 13.931 367.754 13.5949 367.893 13.207L368.283 12.2012L368.674 13.207C368.801 13.5877 369.039 13.92 369.356 14.16C369.673 14.3999 370.055 14.5362 370.449 14.5507C370.844 14.5653 371.234 14.4574 371.567 14.2414C371.9 14.0255 372.161 13.7115 372.315 13.3412L372.695 12.52L373.076 13.3412C373.229 13.6965 373.48 13.9995 373.797 14.2142C374.115 14.4289 374.486 14.5463 374.867 14.5524C375.117 14.5525 375.364 14.5017 375.594 14.4028C375.681 14.3656 375.775 14.351 375.869 14.3601C375.962 14.3692 376.052 14.4018 376.131 14.4551C376.212 14.5101 376.279 14.5848 376.325 14.6724C376.37 14.7601 376.394 14.858 376.394 14.9574C376.394 15.6699 376.044 16.7505 374.375 17.8703C373.555 18.4631 372.608 18.8503 371.612 19.0002ZM370.523 17.6702C370.858 17.6701 371.179 17.8023 371.42 18.0389C371.527 18.144 371.556 18.144 371.612 18.144C372.44 17.988 373.225 17.6514 373.913 17.1572C374.624 16.7423 375.183 16.102 375.503 15.3338C375.295 15.3851 375.082 15.411 374.868 15.411C374.449 15.4096 374.037 15.3117 373.66 15.1247C373.284 14.9376 372.955 14.6663 372.696 14.331C372.433 14.6751 372.094 14.9519 371.707 15.1395C371.32 15.327 370.896 15.4202 370.467 15.4115C370.039 15.4028 369.618 15.2925 369.239 15.0893C368.86 14.8862 368.532 14.5959 368.283 14.2413C368.025 14.6012 367.688 14.8944 367.299 15.0974C366.91 15.3004 366.48 15.4074 366.042 15.4098C365.878 15.4099 365.715 15.3948 365.553 15.3647C365.88 16.1176 366.434 16.7452 367.134 17.1566C367.822 17.6507 368.607 17.9873 369.435 18.1434C369.493 18.1434 369.52 18.1434 369.627 18.0383C369.868 17.8018 370.189 17.6698 370.524 17.6702H370.523Z" fill="#404040"/>
<path d="M366.055 7.32255C366.055 7.32255 367.978 9.25699 367.978 11.0549C367.978 12.8812 367.414 14.6281 366.703 14.8851C365.992 15.1422 367.982 14.2 367.982 14.2L368.234 12.7447C368.298 13.2322 368.466 13.6996 368.726 14.1139C369.221 14.5912 369.852 14.8954 370.528 14.9819C371.161 14.8998 371.758 14.6317 372.245 14.21C372.521 13.8538 372.536 13.2292 372.7 13.5266C373.068 14.0481 373.533 14.4917 374.067 14.8329C374.368 14.9243 373.418 13.4008 373.418 10.9177C373.43 10.2308 373.587 9.55451 373.878 8.93434C374.168 8.31417 374.585 7.76442 375.101 7.32196L373.165 8.20664L372.997 8.60624L371.967 7.71146L370.525 7.12305L369.352 7.29405L368.481 8.12174L368.229 8.69233L366.055 7.32255Z" fill="#404040"/>
<path d="M370.508 2.73674C370.399 2.44775 370.37 2.13436 370.423 1.82984C370.476 1.52531 370.609 1.24102 370.807 1.00715C371.369 0.484055 372.99 0.122461 373.593 0.00252335C373.616 -0.00209047 373.64 -0.000355072 373.661 0.00754773C373.683 0.0154505 373.703 0.0292299 373.718 0.0474422C373.733 0.0656546 373.743 0.0876297 373.747 0.111065C373.75 0.134501 373.748 0.158535 373.739 0.180648C373.455 1.02781 373.063 1.8333 372.573 2.57643C372.071 2.90113 371.503 3.10687 370.912 3.17849L371.606 2.32409C371.636 2.29058 371.652 2.247 371.651 2.20207C371.65 2.15715 371.633 2.11419 371.602 2.08182C371.571 2.04946 371.53 2.03006 371.486 2.02753C371.442 2.025 371.398 2.03952 371.364 2.06818L370.508 2.73674Z" fill="#404040"/>
</g>
<g clip-path="url(#clip14_3123_24618)">
<path d="M400.999 9.97L400.615 9.08294C400.429 8.687 400.141 8.35064 399.78 8.11076C399.42 7.87087 399.002 7.73673 398.571 7.72305C398.141 7.70938 397.715 7.81669 397.341 8.03322C396.967 8.24974 396.658 8.56712 396.449 8.95053L396.077 9.67075L395.705 8.95053C395.506 8.57455 395.209 8.26132 394.848 8.04486C394.486 7.82839 394.073 7.71696 393.654 7.72266C393.365 7.72212 393.078 7.77524 392.807 7.87941C392.717 7.9137 392.619 7.92508 392.523 7.91256C392.427 7.90005 392.335 7.86403 392.256 7.80757C392.178 7.75286 392.113 7.67969 392.069 7.5943C392.024 7.50891 392.001 7.41383 392 7.31713C392.022 6.22487 392.468 5.18605 393.241 4.4285C394.014 3.67094 395.05 3.2565 396.123 3.27607C396.97 3.27524 397.798 3.53292 398.5 4.01588C399.203 3.53295 400.031 3.27528 400.878 3.27607C401.95 3.25633 402.986 3.67024 403.759 4.42706C404.531 5.18388 404.978 6.22188 405.001 7.31356C405 7.40258 404.98 7.49029 404.94 7.56947C404.9 7.64865 404.842 7.71703 404.771 7.76897C404.698 7.82212 404.614 7.85688 404.525 7.87041C404.436 7.88393 404.345 7.87582 404.26 7.84675C404.015 7.76303 403.757 7.72051 403.498 7.72088C403.054 7.71517 402.619 7.84084 402.243 8.08262C401.868 8.32441 401.57 8.67191 401.385 9.08294L400.999 9.97ZM398.5 6.86588C398.98 6.86314 399.455 6.97143 399.887 7.18259C400.32 7.39374 400.701 7.70225 400.999 8.08485C401.298 7.70222 401.678 7.39369 402.111 7.18253C402.544 6.97137 403.018 6.8631 403.498 6.86588C403.712 6.86582 403.926 6.8873 404.136 6.93C404.018 6.14076 403.623 5.42205 403.023 4.90745C402.424 4.39285 401.662 4.11738 400.878 4.13225C400.11 4.13006 399.363 4.39432 398.762 4.88156L398.499 5.0971L398.236 4.88156C397.635 4.39483 396.89 4.1306 396.122 4.13225C395.332 4.11632 394.563 4.3959 393.962 4.91812C393.36 5.44033 392.967 6.16897 392.857 6.96622C393.117 6.89958 393.384 6.86608 393.652 6.86647C394.112 6.86326 394.567 6.96215 394.985 7.15626C395.403 7.35037 395.775 7.63504 396.075 7.99044C396.374 7.63504 396.746 7.35037 397.164 7.15626C397.583 6.96215 398.038 6.86326 398.497 6.86647L398.5 6.86588Z" fill="#404040"/>
<path d="M399.612 19.0002C399.467 19.0003 399.323 18.9698 399.19 18.9106C399.057 18.8515 398.937 18.7649 398.838 18.6564C398.754 18.5723 398.641 18.5251 398.524 18.5251C398.406 18.5251 398.293 18.5723 398.21 18.6564C398.111 18.7649 397.991 18.8515 397.858 18.9106C397.724 18.9698 397.581 19.0003 397.435 19.0002C396.44 18.8507 395.493 18.4642 394.672 17.8721C393.004 16.7523 392.653 15.6716 392.653 14.9627C392.653 14.8713 392.674 14.7812 392.715 14.7C392.757 14.6188 392.816 14.549 392.89 14.4966C392.962 14.4461 393.044 14.414 393.13 14.403C393.217 14.3921 393.305 14.4026 393.386 14.4337C393.596 14.5132 393.819 14.5535 394.044 14.5524C394.449 14.5441 394.843 14.4112 395.173 14.1711C395.502 13.931 395.754 13.5949 395.893 13.207L396.283 12.2012L396.674 13.207C396.801 13.5877 397.039 13.92 397.356 14.16C397.673 14.3999 398.055 14.5362 398.449 14.5507C398.844 14.5653 399.234 14.4574 399.567 14.2414C399.9 14.0255 400.161 13.7115 400.315 13.3412L400.695 12.52L401.076 13.3412C401.229 13.6965 401.48 13.9995 401.797 14.2142C402.115 14.4289 402.486 14.5463 402.867 14.5524C403.117 14.5525 403.364 14.5017 403.594 14.4028C403.681 14.3656 403.775 14.351 403.869 14.3601C403.962 14.3692 404.052 14.4018 404.131 14.4551C404.212 14.5101 404.279 14.5848 404.325 14.6724C404.37 14.7601 404.394 14.858 404.394 14.9574C404.394 15.6699 404.044 16.7505 402.375 17.8703C401.555 18.4631 400.608 18.8503 399.612 19.0002ZM398.523 17.6702C398.858 17.6701 399.179 17.8023 399.42 18.0389C399.527 18.144 399.556 18.144 399.612 18.144C400.44 17.988 401.225 17.6514 401.913 17.1572C402.624 16.7423 403.183 16.102 403.503 15.3338C403.295 15.3851 403.082 15.411 402.868 15.411C402.449 15.4096 402.037 15.3117 401.66 15.1247C401.284 14.9376 400.955 14.6663 400.696 14.331C400.433 14.6751 400.094 14.9519 399.707 15.1395C399.32 15.327 398.896 15.4202 398.467 15.4115C398.039 15.4028 397.618 15.2925 397.239 15.0893C396.86 14.8862 396.532 14.5959 396.283 14.2413C396.025 14.6012 395.688 14.8944 395.299 15.0974C394.91 15.3004 394.48 15.4074 394.042 15.4098C393.878 15.4099 393.715 15.3948 393.553 15.3647C393.88 16.1176 394.434 16.7452 395.134 17.1566C395.822 17.6507 396.607 17.9873 397.435 18.1434C397.493 18.1434 397.52 18.1434 397.627 18.0383C397.868 17.8018 398.189 17.6698 398.524 17.6702H398.523Z" fill="#404040"/>
<path d="M394.055 7.32255C394.055 7.32255 395.978 9.25699 395.978 11.0549C395.978 12.8812 395.414 14.6281 394.703 14.8851C393.992 15.1422 395.982 14.2 395.982 14.2L396.234 12.7447C396.298 13.2322 396.466 13.6996 396.726 14.1139C397.221 14.5912 397.852 14.8954 398.528 14.9819C399.161 14.8998 399.758 14.6317 400.245 14.21C400.521 13.8538 400.536 13.2292 400.7 13.5266C401.068 14.0481 401.533 14.4917 402.067 14.8329C402.368 14.9243 401.418 13.4008 401.418 10.9177C401.43 10.2308 401.587 9.55451 401.878 8.93434C402.168 8.31417 402.585 7.76442 403.101 7.32196L401.165 8.20664L400.997 8.60624L399.967 7.71146L398.525 7.12305L397.352 7.29405L396.481 8.12174L396.229 8.69233L394.055 7.32255Z" fill="#404040"/>
<path d="M398.508 2.73674C398.399 2.44775 398.37 2.13436 398.423 1.82984C398.476 1.52531 398.609 1.24102 398.807 1.00715C399.369 0.484055 400.99 0.122461 401.593 0.00252335C401.616 -0.00209047 401.64 -0.000355072 401.661 0.00754773C401.683 0.0154505 401.703 0.0292299 401.718 0.0474422C401.733 0.0656546 401.743 0.0876297 401.747 0.111065C401.75 0.134501 401.748 0.158535 401.739 0.180648C401.455 1.02781 401.063 1.8333 400.573 2.57643C400.071 2.90113 399.503 3.10687 398.912 3.17849L399.606 2.32409C399.636 2.29058 399.652 2.247 399.651 2.20207C399.65 2.15715 399.633 2.11419 399.602 2.08182C399.571 2.04946 399.53 2.03006 399.486 2.02753C399.442 2.025 399.398 2.03952 399.364 2.06818L398.508 2.73674Z" fill="#404040"/>
</g>
<g clip-path="url(#clip15_3123_24618)">
<path d="M428.999 9.97L428.615 9.08294C428.429 8.687 428.141 8.35064 427.78 8.11076C427.42 7.87087 427.002 7.73673 426.571 7.72305C426.141 7.70938 425.715 7.81669 425.341 8.03322C424.967 8.24974 424.658 8.56712 424.449 8.95053L424.077 9.67075L423.705 8.95053C423.506 8.57455 423.209 8.26132 422.848 8.04486C422.486 7.82839 422.073 7.71696 421.654 7.72266C421.365 7.72212 421.078 7.77524 420.807 7.87941C420.717 7.9137 420.619 7.92508 420.523 7.91256C420.427 7.90005 420.335 7.86403 420.256 7.80757C420.178 7.75286 420.113 7.67969 420.069 7.5943C420.024 7.50891 420.001 7.41383 420 7.31713C420.022 6.22487 420.468 5.18605 421.241 4.4285C422.014 3.67094 423.05 3.2565 424.123 3.27607C424.97 3.27524 425.798 3.53292 426.5 4.01588C427.203 3.53295 428.031 3.27528 428.878 3.27607C429.95 3.25633 430.986 3.67024 431.759 4.42706C432.531 5.18388 432.978 6.22188 433.001 7.31356C433 7.40258 432.98 7.49029 432.94 7.56947C432.9 7.64865 432.842 7.71703 432.771 7.76897C432.698 7.82212 432.614 7.85688 432.525 7.87041C432.436 7.88393 432.345 7.87582 432.26 7.84675C432.015 7.76303 431.757 7.72051 431.498 7.72088C431.054 7.71517 430.619 7.84084 430.243 8.08262C429.868 8.32441 429.57 8.67191 429.385 9.08294L428.999 9.97ZM426.5 6.86588C426.98 6.86314 427.455 6.97143 427.887 7.18259C428.32 7.39374 428.701 7.70225 428.999 8.08485C429.298 7.70222 429.678 7.39369 430.111 7.18253C430.544 6.97137 431.018 6.8631 431.498 6.86588C431.712 6.86582 431.926 6.8873 432.136 6.93C432.018 6.14076 431.623 5.42205 431.023 4.90745C430.424 4.39285 429.662 4.11738 428.878 4.13225C428.11 4.13006 427.363 4.39432 426.762 4.88156L426.499 5.0971L426.236 4.88156C425.635 4.39483 424.89 4.1306 424.122 4.13225C423.332 4.11632 422.563 4.3959 421.962 4.91812C421.36 5.44033 420.967 6.16897 420.857 6.96622C421.117 6.89958 421.384 6.86608 421.652 6.86647C422.112 6.86326 422.567 6.96215 422.985 7.15626C423.403 7.35037 423.775 7.63504 424.075 7.99044C424.374 7.63504 424.746 7.35037 425.164 7.15626C425.583 6.96215 426.038 6.86326 426.497 6.86647L426.5 6.86588Z" fill="#404040"/>
<path d="M427.612 19.0002C427.467 19.0003 427.323 18.9698 427.19 18.9106C427.057 18.8515 426.937 18.7649 426.838 18.6564C426.754 18.5723 426.641 18.5251 426.524 18.5251C426.406 18.5251 426.293 18.5723 426.21 18.6564C426.111 18.7649 425.991 18.8515 425.858 18.9106C425.724 18.9698 425.581 19.0003 425.435 19.0002C424.44 18.8507 423.493 18.4642 422.672 17.8721C421.004 16.7523 420.653 15.6716 420.653 14.9627C420.653 14.8713 420.674 14.7812 420.715 14.7C420.757 14.6188 420.816 14.549 420.89 14.4966C420.962 14.4461 421.044 14.414 421.13 14.403C421.217 14.3921 421.305 14.4026 421.386 14.4337C421.596 14.5132 421.819 14.5535 422.044 14.5524C422.449 14.5441 422.843 14.4112 423.173 14.1711C423.502 13.931 423.754 13.5949 423.893 13.207L424.283 12.2012L424.674 13.207C424.801 13.5877 425.039 13.92 425.356 14.16C425.673 14.3999 426.055 14.5362 426.449 14.5507C426.844 14.5653 427.234 14.4574 427.567 14.2414C427.9 14.0255 428.161 13.7115 428.315 13.3412L428.695 12.52L429.076 13.3412C429.229 13.6965 429.48 13.9995 429.797 14.2142C430.115 14.4289 430.486 14.5463 430.867 14.5524C431.117 14.5525 431.364 14.5017 431.594 14.4028C431.681 14.3656 431.775 14.351 431.869 14.3601C431.962 14.3692 432.052 14.4018 432.131 14.4551C432.212 14.5101 432.279 14.5848 432.325 14.6724C432.37 14.7601 432.394 14.858 432.394 14.9574C432.394 15.6699 432.044 16.7505 430.375 17.8703C429.555 18.4631 428.608 18.8503 427.612 19.0002ZM426.523 17.6702C426.858 17.6701 427.179 17.8023 427.42 18.0389C427.527 18.144 427.556 18.144 427.612 18.144C428.44 17.988 429.225 17.6514 429.913 17.1572C430.624 16.7423 431.183 16.102 431.503 15.3338C431.295 15.3851 431.082 15.411 430.868 15.411C430.449 15.4096 430.037 15.3117 429.66 15.1247C429.284 14.9376 428.955 14.6663 428.696 14.331C428.433 14.6751 428.094 14.9519 427.707 15.1395C427.32 15.327 426.896 15.4202 426.467 15.4115C426.039 15.4028 425.618 15.2925 425.239 15.0893C424.86 14.8862 424.532 14.5959 424.283 14.2413C424.025 14.6012 423.688 14.8944 423.299 15.0974C422.91 15.3004 422.48 15.4074 422.042 15.4098C421.878 15.4099 421.715 15.3948 421.553 15.3647C421.88 16.1176 422.434 16.7452 423.134 17.1566C423.822 17.6507 424.607 17.9873 425.435 18.1434C425.493 18.1434 425.52 18.1434 425.627 18.0383C425.868 17.8018 426.189 17.6698 426.524 17.6702H426.523Z" fill="#404040"/>
<path d="M422.055 7.32255C422.055 7.32255 423.978 9.25699 423.978 11.0549C423.978 12.8812 423.414 14.6281 422.703 14.8851C421.992 15.1422 423.982 14.2 423.982 14.2L424.234 12.7447C424.298 13.2322 424.466 13.6996 424.726 14.1139C425.221 14.5912 425.852 14.8954 426.528 14.9819C427.161 14.8998 427.758 14.6317 428.245 14.21C428.521 13.8538 428.536 13.2292 428.7 13.5266C429.068 14.0481 429.533 14.4917 430.067 14.8329C430.368 14.9243 429.418 13.4008 429.418 10.9177C429.43 10.2308 429.587 9.55451 429.878 8.93434C430.168 8.31417 430.585 7.76442 431.101 7.32196L429.165 8.20664L428.997 8.60624L427.967 7.71146L426.525 7.12305L425.352 7.29405L424.481 8.12174L424.229 8.69233L422.055 7.32255Z" fill="#404040"/>
<path d="M426.508 2.73674C426.399 2.44775 426.37 2.13436 426.423 1.82984C426.476 1.52531 426.609 1.24102 426.807 1.00715C427.369 0.484055 428.99 0.122461 429.593 0.00252335C429.616 -0.00209047 429.64 -0.000355072 429.661 0.00754773C429.683 0.0154505 429.703 0.0292299 429.718 0.0474422C429.733 0.0656546 429.743 0.0876297 429.747 0.111065C429.75 0.134501 429.748 0.158535 429.739 0.180648C429.455 1.02781 429.063 1.8333 428.573 2.57643C428.071 2.90113 427.503 3.10687 426.912 3.17849L427.606 2.32409C427.636 2.29058 427.652 2.247 427.651 2.20207C427.65 2.15715 427.633 2.11419 427.602 2.08182C427.571 2.04946 427.53 2.03006 427.486 2.02753C427.442 2.025 427.398 2.03952 427.364 2.06818L426.508 2.73674Z" fill="#404040"/>
</g>
<defs>
<clipPath id="clip0_3123_24618">
<rect width="13" height="19" fill="white"/>
</clipPath>
<clipPath id="clip1_3123_24618">
<rect width="13" height="19" fill="white" transform="translate(28)"/>
</clipPath>
<clipPath id="clip2_3123_24618">
<rect width="13" height="19" fill="white" transform="translate(56)"/>
</clipPath>
<clipPath id="clip3_3123_24618">
<rect width="13" height="19" fill="white" transform="translate(84)"/>
</clipPath>
<clipPath id="clip4_3123_24618">
<rect width="13" height="19" fill="white" transform="translate(112)"/>
</clipPath>
<clipPath id="clip5_3123_24618">
<rect width="13" height="19" fill="white" transform="translate(140)"/>
</clipPath>
<clipPath id="clip6_3123_24618">
<rect width="13" height="19" fill="white" transform="translate(168)"/>
</clipPath>
<clipPath id="clip7_3123_24618">
<rect width="13" height="19" fill="white" transform="translate(196)"/>
</clipPath>
<clipPath id="clip8_3123_24618">
<rect width="13" height="19" fill="white" transform="translate(224)"/>
</clipPath>
<clipPath id="clip9_3123_24618">
<rect width="13" height="19" fill="white" transform="translate(252)"/>
</clipPath>
<clipPath id="clip10_3123_24618">
<rect width="13" height="19" fill="white" transform="translate(280)"/>
</clipPath>
<clipPath id="clip11_3123_24618">
<rect width="13" height="19" fill="white" transform="translate(308)"/>
</clipPath>
<clipPath id="clip12_3123_24618">
<rect width="13" height="19" fill="white" transform="translate(336)"/>
</clipPath>
<clipPath id="clip13_3123_24618">
<rect width="13" height="19" fill="white" transform="translate(364)"/>
</clipPath>
<clipPath id="clip14_3123_24618">
<rect width="13" height="19" fill="white" transform="translate(392)"/>
</clipPath>
<clipPath id="clip15_3123_24618">
<rect width="13" height="19" fill="white" transform="translate(420)"/>
</clipPath>
</defs>
</svg>
