<svg width="592" height="587" viewBox="0 0 592 587" fill="none" xmlns="http://www.w3.org/2000/svg">
<g clip-path="url(#clip0_3335_55584)">
<path d="M62.6427 222.479C75.9459 225.562 89.8649 224.632 102.639 219.805C115.414 214.978 126.47 206.471 134.409 195.361C142.348 184.25 146.815 171.035 147.243 157.386C147.672 143.737 144.043 130.267 136.816 118.681C129.589 107.094 119.088 97.9112 106.641 92.2926C94.1948 86.674 80.3617 84.8725 66.8912 87.1157C53.4208 89.359 40.9181 95.5464 30.9644 104.895C21.0106 114.244 14.0528 126.335 10.9709 139.638C6.84144 157.475 9.96497 176.222 19.6547 191.757C29.3444 207.291 44.807 218.342 62.6427 222.479Z" fill="#CD6735"/>
<path d="M63.938 216.898C76.1444 219.72 88.9138 218.861 100.632 214.427C112.349 209.993 122.489 202.185 129.77 191.989C137.05 181.793 141.143 169.667 141.532 157.145C141.921 144.622 138.588 132.266 131.955 121.638C125.322 111.009 115.686 102.586 104.267 97.4338C92.8466 92.2813 80.1552 90.6305 67.7971 92.6901C55.439 94.7498 43.9691 100.427 34.8376 109.005C25.7061 117.583 19.3231 128.676 16.4957 140.881C14.6191 148.987 14.3576 157.384 15.7262 165.591C17.0948 173.799 20.0667 181.656 24.4722 188.715C28.8777 195.774 34.6304 201.896 41.402 206.731C48.1736 211.567 55.8313 215.022 63.938 216.898Z" fill="#CD6735"/>
<path d="M46.6239 104.068L43.2424 118.654L57.8284 122.035L61.1897 107.409L46.6239 104.068ZM40.7087 104.159C36.3414 107.375 32.4001 111.134 28.9794 115.343L37.6502 117.362L40.7087 104.159ZM61.5531 129.071L58.1615 143.656L72.7475 147.028L76.1189 132.452L61.5531 129.071ZM41.8797 124.508L38.5082 139.094L53.1144 142.475L56.4858 127.879L41.8797 124.508ZM66.2973 108.62L62.9158 123.216L77.5018 126.587L80.8732 112.002L66.2973 108.62ZM18.3906 134.43L32.9262 137.802L36.2976 123.216L25.1133 120.632C22.3155 124.939 20.0577 129.573 18.3906 134.43ZM64.4703 93.3281C59.1693 94.5333 54.0415 96.4019 49.208 98.8898L62.4818 101.918L64.4703 93.3281ZM70.0624 92.3187L67.5692 103.089L82.1451 106.48L85.4156 92.2682C80.3135 91.6694 75.1571 91.6999 70.0624 92.3591V92.3187Z" fill="#F79668"/>
<path d="M129.336 123.56L114.77 120.178L111.378 134.764L125.964 138.135L129.336 123.56ZM129.245 117.635C126.037 113.26 122.278 109.318 118.061 105.906L116.042 114.586L129.245 117.635ZM104.343 138.499L89.7669 135.117L86.4258 149.713L101.002 153.094L104.343 138.499ZM108.905 118.836L94.3194 115.485L90.9479 130.08L105.524 133.462L108.905 118.836ZM124.783 143.233L110.208 139.871L106.826 154.447L121.412 157.879L124.783 143.233ZM98.9829 95.2969L95.6114 109.812L110.208 113.193L112.792 102.029C108.483 99.2267 103.845 96.9655 98.9829 95.2969ZM140.086 141.375C138.89 136.075 137.021 130.95 134.524 126.124L131.496 139.387L140.086 141.375ZM141.096 146.978L130.335 144.484L126.944 159.06L141.196 162.371C141.785 157.267 141.734 152.109 141.045 147.018L141.096 146.978Z" fill="#F79668"/>
<path d="M109.844 206.329L113.225 191.743L98.6494 188.362L95.2578 202.948L109.844 206.329ZM115.769 206.218C120.134 203.006 124.075 199.255 127.498 195.054L118.838 193.035L115.769 206.218ZM94.9045 181.286L98.2961 166.7L83.7 163.329L80.369 177.905L94.9045 181.286ZM114.578 185.849L117.97 171.263L103.384 167.881L100.002 182.467L114.578 185.849ZM90.1704 201.726L93.5519 187.151L78.9659 183.779L75.5844 198.365L90.1704 201.726ZM138.087 175.916L123.562 172.555L120.18 187.151L131.344 189.735C134.149 185.422 136.414 180.781 138.087 175.916ZM91.9974 217.029C97.2929 215.827 102.414 213.958 107.24 211.467L93.986 208.439L91.9974 217.029ZM86.3952 218.038L88.8985 207.238L74.3125 203.846L71.0117 218.099C76.1346 218.687 81.3098 218.657 86.4254 218.008L86.3952 218.038Z" fill="#F79668"/>
<path d="M27.124 186.788L41.7 190.179L45.0411 175.584L30.5056 172.202L27.124 186.788ZM27.2351 192.713C30.4397 197.087 34.1954 201.029 38.4093 204.442L40.4281 195.771L27.2351 192.713ZM52.107 171.849L66.693 175.24L70.0745 160.645L55.4885 157.273L52.107 171.849ZM47.5545 191.532L62.2011 194.903L65.5827 180.328L50.9865 176.946L47.5545 191.532ZM31.6765 167.115L46.2827 170.486L49.644 155.911L35.058 152.539L31.6765 167.115ZM57.4973 215.02L60.8485 200.495L46.2625 197.114L43.6784 208.288C47.9919 211.089 52.6329 213.35 57.4973 215.02ZM16.3839 168.982C17.5771 174.283 19.4464 179.409 21.9458 184.234L24.974 170.981L16.3839 168.982ZM15.3745 163.39L26.1651 165.894L29.5466 151.298L15.2836 147.997C14.6957 153.1 14.7363 158.257 15.4048 163.35L15.3745 163.39Z" fill="#F79668"/>
<path d="M92.5321 93.4695C92.7339 93.4695 92.9358 93.5805 93.1478 93.6209L64.5512 217.019C64.3481 216.968 64.1426 216.927 63.9354 216.898L62.1992 216.423L90.7757 93.0859C91.3309 93.2777 91.9264 93.3383 92.5321 93.4695Z" fill="#F79668"/>
<path d="M139.926 169.476C139.876 169.678 139.815 169.88 139.755 170.082L16.3945 141.496C16.4551 141.284 16.4854 141.092 16.5258 140.88C16.6671 140.275 16.8286 139.689 16.9901 139.094L140.32 167.659C140.199 168.265 140.088 168.881 139.926 169.476Z" fill="#F79668"/>
<path d="M235.918 237.509L260.477 225.437L162.05 25.0527L137.48 37.1149L235.918 237.509Z" fill="#989898"/>
<path d="M153.654 48.8647C155.31 52.2361 158.409 54.1035 160.579 53.0234C162.749 51.9434 163.153 48.3802 161.497 45.0089C159.842 41.6375 156.753 39.8004 154.593 40.8603C152.433 41.9202 152.039 45.554 153.654 48.8647Z" fill="white"/>
<path d="M151.099 341.587C162.928 365.673 181.633 385.711 204.851 399.167C228.068 412.622 254.754 418.89 281.533 417.179C308.313 415.468 333.984 405.854 355.3 389.554C376.616 373.253 392.619 350.998 401.286 325.602C409.953 300.206 410.894 272.811 403.991 246.88C397.087 220.95 382.649 197.648 362.502 179.923C342.355 162.198 317.405 150.845 290.805 147.3C264.206 143.756 237.153 148.178 213.067 160.008C180.771 175.871 156.099 203.913 144.478 237.965C132.857 272.017 135.239 309.291 151.099 341.587Z" fill="#CDCCCC"/>
<path d="M173.407 330.575C183.07 350.251 198.352 366.62 217.318 377.612C236.285 388.603 258.085 393.723 279.962 392.325C301.839 390.926 322.81 383.072 340.222 369.755C357.635 356.438 370.708 338.256 377.787 317.51C384.866 296.763 385.633 274.383 379.992 253.2C374.351 232.018 362.555 212.983 346.096 198.504C329.637 184.026 309.253 174.753 287.524 171.859C265.794 168.965 243.694 172.579 224.019 182.245C210.955 188.661 199.283 197.586 189.669 208.513C180.055 219.439 172.688 232.153 167.988 245.927C163.288 259.701 161.347 274.266 162.277 288.79C163.207 303.314 166.989 317.513 173.407 330.575Z" fill="#989898"/>
<path d="M307.931 248.592C291.518 263.39 267.988 264.056 255.381 250.066C242.773 236.076 245.842 212.718 262.255 197.941C278.668 183.163 302.177 182.497 314.795 196.477C327.412 210.457 324.324 233.794 307.931 248.592Z" fill="white"/>
<path d="M299.15 219.38C298.14 227.536 291.549 233.411 284.544 232.502C277.538 231.594 272.723 224.236 273.793 216.07C274.863 207.904 281.404 202.059 288.4 202.948C295.395 203.836 300.21 211.225 299.15 219.38Z" fill="#F8991D"/>
<path d="M293.821 213.718C294.397 216.262 293.629 218.614 292.115 218.957C290.601 219.3 288.916 217.483 288.36 214.919C287.805 212.355 288.572 210.024 290.076 209.701C291.58 209.378 293.266 211.174 293.821 213.718Z" fill="#FFCC67"/>
<path d="M221.101 311.225C240.694 316.988 260.549 308.116 265.465 291.431C270.381 274.746 258.469 256.546 238.847 250.742C219.224 244.938 199.479 253.892 194.533 270.577C189.587 287.262 201.498 305.451 221.101 311.225Z" fill="white"/>
<path d="M216.73 283.386C220.869 289.756 228.672 292.027 234.133 288.433C239.594 284.84 240.664 276.835 236.515 270.456C232.366 264.077 224.574 261.836 219.113 265.409C213.652 268.982 212.602 276.987 216.73 283.386Z" fill="#F8991D"/>
<path d="M218.901 276.542C219.446 278.894 221.021 280.579 222.404 280.196C223.787 279.812 224.483 277.713 223.938 275.371C223.393 273.029 221.808 271.333 220.415 271.707C219.022 272.08 218.346 274.2 218.901 276.542Z" fill="#FFCC67"/>
<path d="M336.136 266.085C336.136 266.085 330.534 273.342 323.569 277.753C316.604 282.165 304.329 286.374 296.315 287.111C288.3 287.847 276.126 292.016 269.343 296.397C262.56 300.778 250.396 304.936 242.341 305.683C234.286 306.43 221.527 311.174 214.007 316.252C209.441 319.346 205.379 323.125 201.965 327.456L210.838 348.744C214.708 345.069 218.908 341.758 223.385 338.852C230.36 334.431 242.624 330.222 250.639 329.495C258.653 328.768 270.827 324.589 277.61 320.218C284.393 315.848 296.557 311.659 304.612 310.932C312.667 310.205 325.416 305.431 332.946 300.344C337.794 296.926 342.044 292.731 345.523 287.928L336.136 266.085Z" fill="#CD6735"/>
<path d="M212.079 320.218C219.276 315.656 231.954 311.316 240.272 310.548C248.59 309.781 261.126 305.501 268.132 300.969C275.137 296.437 287.714 292.117 296.052 291.37C304.39 290.623 317.553 285.697 325.325 280.448C329.891 277.227 333.947 273.338 337.357 268.911L345.564 287.928C342.084 292.731 337.834 296.926 332.987 300.344C325.456 305.39 312.707 310.195 304.652 310.932C296.597 311.669 284.464 315.848 277.651 320.218C270.837 324.589 258.724 328.768 250.679 329.495C242.634 330.221 230.36 334.431 223.425 338.852C218.948 341.758 214.748 345.069 210.878 348.744L203.105 330.484C203.105 330.484 208.052 322.772 212.079 320.218Z" fill="#993720"/>
<path d="M218.779 331.776C225.976 327.203 238.664 322.853 246.962 322.096C255.259 321.339 267.816 317.049 274.831 312.506C281.847 307.964 294.404 303.684 302.742 302.917C311.079 302.15 324.242 297.234 332.015 291.996C336.113 289.128 339.795 285.707 342.957 281.831L345.571 287.887C342.091 292.69 337.841 296.885 332.994 300.303C325.463 305.35 312.715 310.155 304.66 310.891C296.604 311.628 284.471 315.807 277.658 320.178C270.844 324.548 258.731 328.727 250.686 329.454C242.641 330.181 230.367 334.39 223.432 338.811C218.956 341.717 214.756 345.028 210.885 348.703L207.453 340.477C210.991 337.28 214.778 334.37 218.779 331.776Z" fill="#CD6735"/>
<path d="M219.668 335.44C226.855 330.878 239.553 326.568 247.931 325.841C256.309 325.114 268.836 320.794 275.851 316.322C282.867 311.851 295.464 307.51 303.812 306.794C312.16 306.077 325.343 301.171 333.085 295.933C337.389 292.91 341.231 289.278 344.491 285.152L345.804 288.181C342.338 293 338.094 297.21 333.247 300.636C325.716 305.683 312.947 310.438 304.872 311.144C296.797 311.851 284.613 315.999 277.82 320.38C271.026 324.761 258.863 328.889 250.808 329.586C242.753 330.282 230.438 334.461 223.473 338.892C218.989 341.788 214.788 345.1 210.926 348.784L208.816 343.737C212.214 340.696 215.842 337.922 219.668 335.44Z" fill="#FFCC67"/>
<path d="M356.949 275.694C356.949 275.694 352.305 283.618 345.956 288.897C339.607 294.176 327.989 299.899 320.095 301.646C312.201 303.392 300.714 309.085 294.527 314.334C288.339 319.583 276.832 325.225 268.928 326.991C261.024 328.758 248.992 335.067 242.179 341.123C238.064 344.752 234.533 348.995 231.711 353.7L243.198 373.676C246.575 369.538 250.325 365.719 254.403 362.27C260.742 356.991 272.38 351.257 280.274 349.501C288.167 347.745 299.665 342.072 305.842 336.863C312.02 331.655 323.537 325.962 331.431 324.206C339.324 322.449 351.377 316.13 358.19 310.074C362.554 306.066 366.227 301.367 369.062 296.165L356.949 275.694Z" fill="#CD6735"/>
<path d="M240.867 345.221C247.408 339.771 259.441 333.846 267.587 332.029C275.733 330.212 287.613 324.357 294.013 318.977C300.413 313.597 312.294 307.712 320.46 305.855C328.626 303.998 341.052 297.497 348.087 291.29C352.218 287.518 355.748 283.137 358.555 278.299L369.063 296.165C366.221 301.377 362.537 306.083 358.161 310.095C351.348 316.09 339.315 322.429 331.402 324.226C323.488 326.023 311.991 331.685 305.813 336.884C299.635 342.082 288.158 347.725 280.235 349.471C272.311 351.217 260.702 356.961 254.363 362.24C250.286 365.689 246.535 369.508 243.159 373.646L233.176 356.486C233.176 356.486 237.143 348.28 240.867 345.221Z" fill="#993720"/>
<path d="M248.942 355.83C255.493 350.379 267.525 344.434 275.661 342.647C283.797 340.86 295.698 334.945 302.077 329.575C308.457 324.206 320.378 318.331 328.524 316.453C336.67 314.576 349.146 308.086 356.172 301.878C359.871 298.52 363.082 294.66 365.711 290.411L369.062 296.165C366.22 301.376 362.536 306.083 358.16 310.094C351.347 316.09 339.314 322.429 331.401 324.226C323.487 326.022 311.99 331.685 305.812 336.883C299.634 342.082 288.157 347.724 280.234 349.471C272.31 351.217 260.701 356.96 254.362 362.239C250.285 365.689 246.534 369.507 243.158 373.645L238.727 365.934C241.848 362.29 245.264 358.911 248.942 355.83Z" fill="#CD6735"/>
<path d="M250.232 359.362C256.783 353.912 268.836 348.017 277.002 346.24C285.168 344.464 297.089 338.559 303.449 333.239C309.808 327.92 321.769 322.005 329.956 320.218C338.142 318.432 350.588 311.901 357.634 305.713C361.521 302.182 364.87 298.101 367.577 293.601L369.262 296.437C366.433 301.655 362.76 306.369 358.391 310.387C351.587 316.372 339.515 322.691 331.601 324.427C323.687 326.163 312.13 331.816 305.942 337.014C299.754 342.213 288.307 347.835 280.353 349.571C272.399 351.307 260.781 357 254.432 362.29C250.354 365.728 246.609 369.544 243.247 373.685L240.512 368.962C243.5 365.516 246.75 362.307 250.232 359.362Z" fill="#FFCC67"/>
<path d="M301.432 73.5639C302.508 83.9117 306.629 93.7079 313.273 101.714C319.917 109.719 328.786 115.575 338.758 118.54C348.73 121.506 359.358 121.447 369.297 118.372C379.236 115.297 388.04 109.344 394.595 101.265C401.151 93.1865 405.163 83.3454 406.125 72.9864C407.087 62.6274 404.955 52.2158 400 43.0683C395.044 33.9207 387.487 26.4482 378.284 21.5956C369.082 16.7431 358.646 14.7285 348.299 15.8067C341.429 16.5212 334.767 18.582 328.693 21.8714C322.619 25.1608 317.253 29.6143 312.901 34.9777C308.549 40.3411 305.296 46.5093 303.328 53.13C301.36 59.7507 300.716 66.6942 301.432 73.5639Z" fill="#F8991D"/>
<path d="M313.463 72.3125C314.293 80.2792 317.467 87.8209 322.583 93.9838C327.7 100.147 334.529 104.654 342.207 106.936C349.885 109.217 358.067 109.171 365.719 106.802C373.371 104.434 380.148 99.8491 385.194 93.6285C390.24 87.4079 393.328 79.8307 394.068 71.8551C394.807 63.8794 393.165 55.8637 389.348 48.8215C385.532 41.7794 379.712 36.0271 372.627 32.2922C365.541 28.5573 357.506 27.0075 349.54 27.8389C338.859 28.9561 329.06 34.2683 322.295 42.6078C315.53 50.9474 312.353 61.6318 313.463 72.3125Z" fill="#FFCC67"/>
<path d="M358.272 114.051C350.222 114.84 342.107 113.497 334.742 110.155L353.467 68.043L358.272 114.051Z" fill="#FBF49C" stroke="#FFCC67" stroke-width="1.4"/>
<path d="M334.679 110.155C327.299 106.817 320.928 101.595 316.207 95.0139L353.555 67.9521L334.679 110.155Z" fill="#FBF49C" stroke="#FFCC67" stroke-width="1.4"/>
<path d="M316.209 95.0041C311.479 88.422 308.578 80.704 307.801 72.6361L353.628 67.8516L316.209 95.0041Z" fill="#FBF49C" stroke="#FFCC67" stroke-width="1.4"/>
<path d="M307.8 72.6356C306.998 64.5731 308.342 56.4417 311.696 49.0664L353.779 67.841L307.8 72.6356Z" fill="#FBF49C" stroke="#FFCC67" stroke-width="1.4"/>
<path d="M311.688 49.0564C315.025 41.6791 320.247 35.3115 326.829 30.5947L353.891 67.9421L311.688 49.0564Z" fill="#FBF49C" stroke="#FFCC67" stroke-width="1.4"/>
<path d="M326.848 30.5951C333.429 25.8696 341.142 22.9657 349.206 22.1768L354.001 68.0434L326.848 30.5951Z" fill="#FBF49C" stroke="#FFCC67" stroke-width="1.4"/>
<path d="M349.207 22.1759C357.272 21.364 365.409 22.7049 372.787 26.062L354.012 68.1535L349.207 22.1759Z" fill="#FBF49C" stroke="#FFCC67" stroke-width="1.4"/>
<path d="M372.796 26.0625C380.176 29.3956 386.545 34.6187 391.258 41.2033L353.91 68.265L372.796 26.0625Z" fill="#FBF49C" stroke="#FFCC67" stroke-width="1.4"/>
<path d="M391.267 41.2334C395.999 47.8111 398.904 55.5257 399.685 63.5914L353.848 68.3658L391.267 41.2334Z" fill="#FBF49C" stroke="#FFCC67" stroke-width="1.4"/>
<path d="M399.676 63.5811C400.479 71.6469 399.135 79.7815 395.78 87.1604L353.688 68.3857L399.676 63.5811Z" fill="#FBF49C" stroke="#FFCC67" stroke-width="1.4"/>
<path d="M395.791 87.1607C392.457 94.5427 387.234 100.914 380.65 105.633L353.598 68.2852L395.791 87.1607Z" fill="#FBF49C" stroke="#FFCC67" stroke-width="1.4"/>
<path d="M380.64 105.633C374.054 110.357 366.338 113.257 358.271 114.041L353.477 68.2148L380.64 105.633Z" fill="#FBF49C" stroke="#FFCC67" stroke-width="1.4"/>
<path d="M364.74 110.377C365.816 120.725 369.938 130.522 376.583 138.528C383.228 146.533 392.099 152.389 402.072 155.353C412.046 158.317 422.674 158.257 432.613 155.18C442.552 152.103 451.356 146.148 457.91 138.067C464.464 129.986 468.475 120.144 469.434 109.784C470.393 99.4237 468.259 89.0118 463.3 79.8651C458.341 70.7184 450.781 63.2476 441.576 58.3979C432.371 53.5481 421.935 51.5371 411.586 52.6193C397.716 54.0699 384.99 60.9688 376.205 71.7995C367.421 82.6302 363.296 96.5061 364.74 110.377Z" fill="#F8991D"/>
<path d="M439.427 70.1726C445.877 75.1086 448.956 81.9118 446.301 85.374C443.646 88.8362 436.267 87.6149 429.837 82.6689C423.407 77.7229 420.298 70.9196 422.953 67.4675C425.608 64.0154 432.977 65.2266 439.427 70.1726Z" fill="#FFCC67"/>
<path d="M581.008 152.937L470.262 155.798L473.123 266.541L583.869 263.68L581.008 152.937Z" fill="#CD6735"/>
<path d="M460.03 154.85C460.374 168.214 490.313 178.379 526.651 177.45C562.99 176.521 592.354 164.813 592.001 151.438C591.647 138.064 561.718 127.919 525.38 128.848C489.041 129.777 459.687 141.476 460.03 154.85Z" fill="#CD6735"/>
<path d="M473.959 155.314C474.161 163.682 497.791 169.93 526.448 169.183C555.105 168.436 578.352 160.977 578.14 152.619C577.928 144.261 554.298 137.993 525.651 138.74C497.004 139.487 473.727 146.946 473.959 155.314Z" fill="#F79668"/>
<path d="M483.48 253.983L572.894 251.661L570.39 154.275L480.977 156.587L483.48 253.983Z" fill="#F79668"/>
<path d="M523.748 169.271L421.316 211.468L463.515 313.897L565.946 271.699L523.748 169.271Z" fill="#CD6735"/>
<path d="M411.457 214.212C416.554 226.587 448.189 225.386 481.752 211.548C515.315 197.709 538.612 176.3 533.535 163.935C528.458 151.57 496.813 152.781 463.24 166.599C429.667 180.418 406.329 201.857 411.457 214.212Z" fill="#CD6735"/>
<path d="M424.581 209.691C427.77 217.443 452.067 214.849 478.554 203.937C505.041 193.026 524.129 177.754 520.949 170.001C517.77 162.249 493.473 164.854 466.976 175.775C440.479 186.697 421.401 201.949 424.581 209.691Z" fill="#F79668"/>
<path d="M514.309 174.349L431.602 208.403L468.693 298.482L551.4 264.427L514.309 174.349Z" fill="#F79668"/>
<path d="M484.457 200.333C491.17 197.487 499.053 200.333 501.991 206.602C504.928 212.87 505.251 219.724 515.446 227.092C525.641 234.461 514.528 242.93 503.485 251.217C492.442 259.504 480.874 252.6 477.805 235.874C474.736 219.148 477.745 203.16 484.457 200.333Z" fill="#FBF49C"/>
<path d="M477.936 250.682L505.644 236.086L491.048 208.358L463.34 222.964L477.936 250.682Z" fill="#FDEC09"/>
<path d="M69.0547 231.564C61.8172 250.571 68.2472 270.698 83.4388 276.492C98.6305 282.286 116.83 271.566 124.088 252.549C131.346 233.532 128.812 206.319 112.581 200.121C96.3492 193.924 76.3325 212.547 69.0547 231.564Z" fill="#CDCCCC"/>
<path d="M72.4562 230.777C66.0768 247.502 71.6588 265.157 84.9023 270.214C98.1458 275.271 114.084 265.813 120.474 249.087C126.864 232.362 124.693 208.459 110.521 203.059C96.349 197.659 78.8256 214.061 72.4562 230.777Z" fill="white"/>
<path d="M11.5175 305.138C23.6304 321.5 44.0306 326.91 57.1025 317.251C70.1744 307.591 70.9618 286.464 58.8488 270.112C46.7359 253.76 22.4393 241.203 8.47916 251.549C-5.48101 261.896 -0.59545 288.786 11.5175 305.138Z" fill="#CDCCCC"/>
<path d="M14.5551 302.585C25.1943 316.978 43.0811 321.763 54.4874 313.345C65.8938 304.926 66.5196 286.394 55.8703 271.96C45.221 257.525 23.9224 246.553 11.7287 255.567C-0.464983 264.581 3.91587 288.191 14.5551 302.585Z" fill="white"/>
<path d="M412.516 381.246C416.092 395.991 423.96 409.345 435.125 419.619C446.29 429.892 460.251 436.625 475.242 438.964C490.234 441.303 505.582 439.145 519.347 432.761C533.111 426.378 544.674 416.056 552.572 403.102C560.471 390.147 564.35 375.141 563.72 359.982C563.09 344.822 557.978 330.19 549.032 317.936C540.086 305.681 527.707 296.355 513.46 291.136C499.213 285.916 483.738 285.039 468.993 288.615C459.202 290.989 449.975 295.268 441.838 301.208C433.701 307.148 426.814 314.632 421.569 323.234C416.325 331.835 412.826 341.386 411.273 351.34C409.72 361.293 410.142 371.456 412.516 381.246Z" fill="#6168B0"/>
<path d="M419.776 379.47C423.006 392.769 430.108 404.812 440.182 414.076C450.257 423.34 462.853 429.409 476.376 431.515C489.9 433.621 503.744 431.67 516.159 425.908C528.574 420.146 539.002 410.833 546.124 399.146C553.245 387.458 556.742 373.921 556.171 360.247C555.599 346.573 550.986 333.375 542.914 322.322C534.842 311.269 523.674 302.858 510.822 298.152C497.97 293.445 484.011 292.656 470.711 295.882C452.873 300.215 437.486 311.454 427.935 327.129C418.383 342.804 415.448 361.631 419.776 379.47Z" fill="#CECBE6"/>
<path d="M429.373 377.148C432.143 388.554 438.233 398.882 446.872 406.827C455.512 414.771 466.314 419.976 477.911 421.781C489.509 423.587 501.382 421.913 512.028 416.971C522.674 412.029 531.616 404.041 537.722 394.017C543.828 383.994 546.824 372.384 546.332 360.658C545.84 348.931 541.881 337.613 534.957 328.136C528.032 318.659 518.453 311.449 507.43 307.416C496.407 303.384 484.436 302.71 473.03 305.481C465.456 307.317 458.318 310.628 452.024 315.224C445.73 319.82 440.404 325.612 436.35 332.268C432.295 338.923 429.592 346.313 428.395 354.013C427.198 361.714 427.531 369.576 429.373 377.148Z" fill="white"/>
<path d="M516.434 329.565C514.381 330.064 512.523 331.161 511.094 332.716C509.664 334.271 508.728 336.215 508.404 338.302C508.08 340.39 508.382 342.526 509.272 344.442C510.161 346.357 511.599 347.966 513.404 349.064C515.208 350.162 517.297 350.701 519.408 350.612C521.518 350.523 523.555 349.81 525.26 348.563C526.965 347.317 528.262 345.593 528.987 343.609C529.713 341.625 529.833 339.471 529.334 337.418C529.004 336.055 528.408 334.77 527.581 333.637C526.753 332.505 525.711 331.546 524.512 330.817C523.314 330.087 521.984 329.601 520.598 329.386C519.211 329.172 517.796 329.232 516.434 329.565ZM519.936 343.979C519.138 344.178 518.3 344.136 517.526 343.858C516.752 343.58 516.078 343.079 515.588 342.419C515.099 341.758 514.817 340.967 514.777 340.145C514.737 339.324 514.942 338.509 515.365 337.804C515.788 337.099 516.41 336.535 517.154 336.184C517.897 335.833 518.728 335.71 519.541 335.83C520.355 335.951 521.114 336.31 521.723 336.862C522.333 337.414 522.765 338.135 522.965 338.932C523.101 339.46 523.132 340.009 523.055 340.549C522.979 341.088 522.797 341.608 522.519 342.076C522.241 342.545 521.874 342.955 521.438 343.281C521.001 343.608 520.505 343.845 519.977 343.979H519.936Z" fill="#DF8A26"/>
<path d="M468.992 338.418C466.942 338.916 465.086 340.011 463.658 341.565C462.23 343.118 461.295 345.06 460.971 347.145C460.646 349.229 460.947 351.364 461.836 353.277C462.724 355.191 464.16 356.798 465.962 357.896C467.764 358.994 469.851 359.533 471.959 359.445C474.067 359.356 476.102 358.645 477.806 357.401C479.509 356.157 480.806 354.435 481.532 352.454C482.258 350.473 482.38 348.321 481.882 346.271C481.553 344.908 480.958 343.623 480.132 342.49C479.306 341.358 478.264 340.399 477.067 339.67C475.869 338.94 474.54 338.454 473.154 338.239C471.769 338.024 470.354 338.085 468.992 338.418ZM472.495 352.832C471.695 353.033 470.853 352.993 470.076 352.715C469.298 352.438 468.621 351.936 468.129 351.274C467.638 350.611 467.354 349.817 467.313 348.993C467.273 348.169 467.478 347.352 467.902 346.644C468.327 345.937 468.952 345.371 469.698 345.019C470.444 344.667 471.278 344.544 472.094 344.666C472.91 344.788 473.671 345.15 474.282 345.705C474.892 346.26 475.324 346.984 475.523 347.785C475.789 348.853 475.623 349.983 475.059 350.928C474.496 351.874 473.581 352.558 472.515 352.832H472.495Z" fill="#DF8A26"/>
<path d="M453.649 380.772C451.595 381.267 449.734 382.359 448.301 383.911C446.868 385.464 445.927 387.406 445.599 389.493C445.27 391.58 445.568 393.718 446.454 395.635C447.341 397.553 448.776 399.165 450.578 400.267C452.381 401.368 454.47 401.911 456.581 401.825C458.692 401.74 460.73 401.03 462.437 399.786C464.145 398.542 465.445 396.82 466.173 394.836C466.902 392.853 467.025 390.699 466.529 388.645C465.861 385.895 464.131 383.522 461.716 382.047C459.302 380.571 456.401 380.112 453.649 380.772ZM457.141 395.196C456.343 395.395 455.505 395.353 454.731 395.075C453.957 394.797 453.283 394.296 452.793 393.635C452.304 392.975 452.022 392.184 451.982 391.362C451.942 390.541 452.147 389.726 452.57 389.021C452.993 388.316 453.615 387.752 454.359 387.401C455.102 387.05 455.933 386.927 456.746 387.047C457.56 387.168 458.319 387.527 458.928 388.079C459.538 388.631 459.97 389.352 460.17 390.149C460.435 391.22 460.266 392.352 459.698 393.298C459.131 394.244 458.211 394.927 457.141 395.196Z" fill="#DF8A26"/>
<path d="M491.594 311.386C489.541 311.883 487.681 312.978 486.25 314.531C484.819 316.085 483.881 318.028 483.554 320.115C483.228 322.203 483.527 324.34 484.416 326.256C485.304 328.173 486.74 329.783 488.544 330.883C490.347 331.983 492.436 332.524 494.547 332.436C496.658 332.349 498.695 331.638 500.401 330.392C502.108 329.147 503.406 327.424 504.133 325.44C504.86 323.457 504.982 321.302 504.484 319.249C503.815 316.499 502.081 314.127 499.665 312.653C497.248 311.179 494.346 310.723 491.594 311.386ZM495.087 325.81C494.289 326.009 493.45 325.967 492.676 325.689C491.902 325.412 491.228 324.911 490.738 324.25C490.249 323.589 489.967 322.798 489.927 321.977C489.887 321.155 490.092 320.341 490.515 319.636C490.938 318.931 491.56 318.367 492.304 318.015C493.047 317.664 493.878 317.541 494.691 317.662C495.505 317.782 496.264 318.141 496.873 318.694C497.483 319.246 497.915 319.966 498.115 320.764C498.381 321.834 498.211 322.967 497.644 323.913C497.076 324.859 496.156 325.541 495.087 325.81Z" fill="#DF8A26"/>
<path d="M478.906 364.803C476.854 365.302 474.996 366.399 473.566 367.954C472.137 369.509 471.201 371.453 470.877 373.54C470.552 375.627 470.854 377.764 471.744 379.68C472.634 381.595 474.072 383.204 475.876 384.302C477.681 385.4 479.77 385.939 481.88 385.85C483.991 385.761 486.027 385.048 487.732 383.801C489.438 382.555 490.735 380.83 491.46 378.847C492.185 376.863 492.306 374.709 491.807 372.656C491.132 369.907 489.396 367.537 486.979 366.065C484.561 364.593 481.658 364.14 478.906 364.803ZM482.409 379.227C481.609 379.429 480.767 379.388 479.99 379.111C479.213 378.833 478.535 378.332 478.044 377.669C477.552 377.007 477.268 376.213 477.227 375.389C477.187 374.565 477.392 373.747 477.816 373.04C478.241 372.332 478.866 371.767 479.612 371.415C480.358 371.062 481.192 370.94 482.008 371.062C482.824 371.184 483.586 371.545 484.196 372.101C484.807 372.656 485.238 373.38 485.437 374.18C485.704 375.254 485.535 376.389 484.967 377.338C484.4 378.287 483.48 378.974 482.409 379.247V379.227Z" fill="#DF8A26"/>
<path d="M444.696 356.97C442.643 357.468 440.783 358.565 439.352 360.121C437.922 361.677 436.986 363.622 436.662 365.71C436.337 367.798 436.64 369.936 437.531 371.852C438.423 373.768 439.863 375.377 441.669 376.475C443.475 377.572 445.566 378.109 447.677 378.018C449.789 377.926 451.826 377.21 453.53 375.96C455.234 374.711 456.529 372.983 457.252 370.997C457.974 369.011 458.09 366.855 457.587 364.803C456.91 362.058 455.174 359.693 452.759 358.225C450.343 356.757 447.444 356.306 444.696 356.97ZM448.189 371.404C447.388 371.596 446.548 371.546 445.776 371.261C445.003 370.976 444.332 370.468 443.848 369.803C443.363 369.137 443.087 368.342 443.053 367.519C443.02 366.696 443.231 365.882 443.66 365.179C444.089 364.476 444.716 363.916 445.463 363.569C446.21 363.222 447.043 363.104 447.857 363.23C448.671 363.356 449.429 363.721 450.036 364.277C450.643 364.834 451.072 365.558 451.268 366.357C451.398 366.891 451.423 367.445 451.338 367.988C451.254 368.531 451.064 369.052 450.778 369.521C450.492 369.99 450.116 370.398 449.671 370.721C449.227 371.044 448.723 371.276 448.189 371.404Z" fill="#DF8A26"/>
<path d="M520.473 358.535C518.421 359.033 516.563 360.128 515.133 361.682C513.703 363.235 512.766 365.178 512.44 367.264C512.115 369.351 512.414 371.487 513.302 373.403C514.19 375.319 515.626 376.928 517.428 378.028C519.231 379.128 521.319 379.669 523.429 379.583C525.539 379.497 527.576 378.787 529.282 377.543C530.989 376.299 532.288 374.578 533.016 372.596C533.745 370.614 533.869 368.46 533.374 366.408C532.706 363.653 530.973 361.277 528.554 359.801C526.134 358.324 523.228 357.869 520.473 358.535ZM523.976 372.969C523.176 373.17 522.334 373.13 521.557 372.852C520.78 372.575 520.102 372.073 519.611 371.411C519.119 370.748 518.835 369.955 518.794 369.131C518.754 368.306 518.959 367.489 519.383 366.781C519.808 366.074 520.433 365.508 521.179 365.156C521.925 364.804 522.759 364.681 523.575 364.803C524.391 364.925 525.153 365.287 525.763 365.842C526.374 366.397 526.805 367.121 527.004 367.922C527.267 368.995 527.093 370.129 526.522 371.075C525.951 372.02 525.028 372.701 523.956 372.969H523.976Z" fill="#DF8A26"/>
<path d="M509.299 385.617C507.247 386.116 505.389 387.211 503.959 388.766C502.53 390.321 501.593 392.264 501.268 394.351C500.943 396.437 501.244 398.574 502.133 400.489C503.021 402.405 504.458 404.014 506.262 405.113C508.065 406.213 510.154 406.753 512.264 406.665C514.374 406.577 516.411 405.866 518.117 404.621C519.822 403.375 521.121 401.652 521.848 399.67C522.574 397.687 522.697 395.533 522.2 393.48C521.53 390.728 519.795 388.354 517.377 386.879C514.958 385.405 512.053 384.951 509.299 385.617ZM512.802 400.041C512.004 400.24 511.165 400.198 510.391 399.92C509.617 399.642 508.943 399.141 508.454 398.481C507.965 397.82 507.682 397.029 507.642 396.207C507.603 395.386 507.807 394.571 508.23 393.866C508.653 393.161 509.276 392.597 510.019 392.246C510.763 391.895 511.594 391.772 512.407 391.892C513.22 392.013 513.98 392.372 514.589 392.924C515.198 393.476 515.63 394.197 515.83 394.994C516.093 396.065 515.923 397.196 515.355 398.141C514.788 399.087 513.87 399.77 512.802 400.041Z" fill="#DF8A26"/>
<path d="M240.06 435.965C240.06 435.753 240.141 435.571 240.181 435.389L42.387 388.463C42.3365 388.655 42.276 388.826 42.2356 389.018C36.0099 415.253 40.4614 442.887 54.6108 465.84C68.7601 488.794 91.4483 505.186 117.684 511.411C143.92 517.637 171.554 513.186 194.508 499.037C217.462 484.888 233.855 462.2 240.08 435.965H240.06Z" fill="#119A48"/>
<path d="M220.524 430.726L62.1072 393.146C57.3043 414.088 60.9749 436.079 72.3188 454.325C83.6628 472.572 101.76 485.594 122.666 490.553C143.571 495.512 165.589 492.006 183.92 480.799C202.252 469.592 215.409 451.593 220.524 430.726Z" fill="#ED2224"/>
<path d="M214.805 429.404L70.0953 395.085C65.7045 414.219 69.0569 434.312 79.4216 450.984C89.7863 467.656 106.322 479.554 125.424 484.084C144.526 488.614 164.644 485.407 181.391 475.164C198.138 464.921 210.157 448.472 214.825 429.404H214.805Z" fill="#F26768"/>
<path d="M146.605 434.925C146.676 438.489 145.222 441.406 143.385 441.446C141.548 441.486 139.953 438.64 139.892 435.087C139.832 431.534 141.255 428.596 143.102 428.556C144.95 428.516 146.524 431.362 146.605 434.925Z" fill="#231F20"/>
<path d="M189.265 445.201C187.792 448.461 185.228 450.48 183.562 449.713C181.897 448.946 181.695 445.675 183.158 442.445C184.622 439.215 187.196 437.176 188.861 437.954C190.527 438.731 190.729 441.971 189.265 445.201Z" fill="#231F20"/>
<path d="M119.738 460.817C117.417 463.502 114.398 464.753 112.985 463.532C111.572 462.311 112.319 459.161 114.631 456.466C116.942 453.771 119.97 452.56 121.374 453.751C122.777 454.942 122.04 458.101 119.738 460.817Z" fill="#231F20"/>
<path d="M92.4819 425.367C90.8466 428.536 88.1818 430.414 86.5465 429.546C84.9113 428.678 84.8911 425.427 86.5465 422.288C88.202 419.149 90.8466 417.241 92.4819 418.109C94.1171 418.977 94.1676 422.197 92.4819 425.367Z" fill="#231F20"/>
<path d="M157.843 467.761C157.016 471.233 154.886 473.666 153.079 473.242C151.272 472.818 150.505 469.639 151.353 466.176C152.201 462.714 154.31 460.251 156.117 460.685C157.924 461.119 158.691 464.269 157.843 467.761Z" fill="#231F20"/>
<path d="M274.488 108.308C281.453 107.773 286.792 103.331 286.419 98.3753C286.045 93.4192 280.11 89.8056 273.165 90.3002C266.22 90.7948 260.881 95.2664 261.244 100.222C261.607 105.179 267.543 108.822 274.488 108.308Z" fill="#52B848"/>
<path d="M301.116 129.404C307.96 128.071 312.735 123.014 311.776 118.139C310.817 113.264 304.508 110.367 297.644 111.699C290.78 113.032 286.015 118.089 286.984 122.974C287.954 127.86 294.272 130.736 301.116 129.404Z" fill="#52B848"/>
<path d="M266.002 127.819C271.604 131.988 278.539 132.139 281.526 128.142C284.514 124.145 282.374 117.534 276.802 113.355C271.23 109.176 264.255 109.055 261.288 113.042C258.32 117.029 260.42 123.65 266.002 127.819Z" fill="#52B848"/>
<path d="M489.069 111.204C496.003 111.91 502.03 108.468 502.524 103.502C503.019 98.5361 497.82 93.9636 490.896 93.257C483.971 92.5504 477.925 95.9924 477.41 100.959C476.895 105.925 482.114 110.497 489.069 111.204Z" fill="#52B848"/>
<path d="M503.618 92.1474C509.2 96.3263 516.154 96.4575 519.122 92.4704C522.09 88.4833 519.99 81.8718 514.408 77.6929C508.826 73.514 501.861 73.3929 498.883 77.3699C495.906 81.3469 498.025 87.9786 503.618 92.1474Z" fill="#52B848"/>
<path d="M85.6278 329.06L83.7266 330.356L91.5025 341.755L93.4037 340.458L85.6278 329.06Z" fill="#119A48"/>
<path d="M82.559 354.185C90.291 365.52 102.414 370.708 109.662 365.772C116.909 360.836 116.505 347.664 108.783 336.339C101.061 325.013 88.4438 334.683 88.4438 334.683C88.4438 334.683 74.847 342.839 82.559 354.185Z" fill="#ED2224"/>
<path d="M87.7578 334.673C87.7578 334.673 93.7234 335.955 98.0033 333.048C102.283 330.141 103.272 324.115 103.272 324.115C103.272 324.115 97.3068 322.823 93.0269 325.74C88.747 328.657 87.7578 334.673 87.7578 334.673Z" fill="#119A48"/>
<path d="M72.668 345.12C72.668 345.12 78.6134 346.402 82.9034 343.495C87.1934 340.588 88.1625 334.562 88.1625 334.562C88.1625 334.562 82.2069 333.269 77.9169 336.177C73.6269 339.084 72.668 345.12 72.668 345.12Z" fill="#119A48"/>
<path d="M107.1 344.818C107.615 345.605 108.432 345.948 108.917 345.625C109.401 345.302 109.381 344.404 108.846 343.607C108.311 342.809 107.504 342.496 107.029 342.809C106.555 343.122 106.615 344.061 107.1 344.818Z" fill="#F79668"/>
<path d="M101.467 349.057C101.982 349.834 102.81 350.187 103.274 349.854C103.738 349.521 103.738 348.643 103.214 347.836C102.689 347.028 101.881 346.725 101.386 347.038C100.892 347.351 100.942 348.29 101.467 349.057Z" fill="#F79668"/>
<path d="M89.7758 356.981C90.3007 357.768 91.1083 358.111 91.6029 357.778C92.0975 357.445 92.047 356.567 91.5322 355.759C91.0174 354.952 90.1897 354.629 89.6951 354.962C89.2005 355.295 89.2509 356.224 89.7758 356.981Z" fill="#F79668"/>
<path d="M95.3501 353.034C95.875 353.811 96.6926 354.165 97.1771 353.842C97.6616 353.519 97.6313 352.61 97.1064 351.823C96.5815 351.036 95.7639 350.703 95.2693 351.036C94.7747 351.369 94.8252 352.267 95.3501 353.034Z" fill="#F79668"/>
<path d="M107.563 351.792C108.078 352.549 108.896 352.923 109.38 352.589C109.865 352.256 109.834 351.358 109.309 350.571C108.785 349.783 107.967 349.46 107.493 349.783C107.018 350.106 107.038 351.015 107.563 351.792Z" fill="#F79668"/>
<path d="M101.932 356.021C102.446 356.798 103.264 357.132 103.738 356.819C104.213 356.506 104.203 355.597 103.678 354.8C103.153 354.002 102.335 353.69 101.851 354.002C101.366 354.315 101.397 355.264 101.932 356.021Z" fill="#F79668"/>
<path d="M95.8132 359.998C96.3381 360.765 97.1558 361.129 97.6403 360.796C98.1248 360.463 98.0945 359.574 97.5797 358.777C97.0649 357.979 96.2271 357.656 95.7426 357.979C95.2581 358.302 95.2884 359.231 95.8132 359.998Z" fill="#F79668"/>
<path d="M108.268 358.747C108.783 359.514 109.6 359.877 110.095 359.534C110.59 359.191 110.549 358.323 110.024 357.515C109.5 356.708 108.682 356.405 108.187 356.738C107.693 357.071 107.743 357.989 108.268 358.747Z" fill="#F79668"/>
<path d="M102.639 362.997C103.154 363.764 103.981 364.117 104.466 363.794C104.95 363.471 104.91 362.562 104.395 361.775C103.88 360.988 103.053 360.655 102.558 360.988C102.063 361.321 102.104 362.229 102.639 362.997Z" fill="#F79668"/>
<path d="M100.98 341.487C101.505 342.244 102.322 342.607 102.807 342.264C103.292 341.921 103.251 341.063 102.736 340.245C102.222 339.428 101.394 339.135 100.919 339.468C100.445 339.801 100.465 340.709 100.98 341.487Z" fill="#F79668"/>
<path d="M95.3601 345.715C95.8749 346.482 96.7026 346.826 97.1871 346.503C97.6716 346.18 97.6413 345.281 97.1063 344.484C96.5714 343.686 95.7638 343.363 95.2894 343.686C94.815 344.009 94.8352 344.938 95.3601 345.715Z" fill="#F79668"/>
<path d="M89.2325 349.662C89.7675 350.419 90.5851 350.793 91.0696 350.439C91.5541 350.086 91.5239 349.238 90.999 348.42C90.4741 347.603 89.6564 347.3 89.182 347.633C88.7076 347.966 88.7177 348.915 89.2325 349.662Z" fill="#F79668"/>
<path d="M234.775 22.4056L223.98 31.001L225.408 32.7934L236.202 24.1981L234.775 22.4056Z" fill="#119A48"/>
<path d="M249.275 32.2299C260.025 23.7107 264.305 11.2346 258.854 4.37077C253.404 -2.49308 240.281 -1.1405 229.581 7.39893C218.882 15.9384 229.44 27.7785 229.44 27.7785C229.44 27.7785 238.545 40.7895 249.275 32.2299Z" fill="#ED2224"/>
<path d="M229.439 28.4753C229.439 28.4753 230.297 22.419 227.077 18.3815C223.857 14.3439 217.781 13.7988 217.781 13.7988C217.781 13.7988 216.933 19.8552 220.153 23.8927C223.373 27.9303 229.439 28.4753 229.439 28.4753Z" fill="#119A48"/>
<path d="M240.967 42.8077C240.967 42.8077 241.814 36.7514 238.605 32.7138C235.395 28.6763 229.298 28.1211 229.298 28.1211C229.298 28.1211 228.46 34.1774 231.67 38.215C234.88 42.2525 240.967 42.8077 240.967 42.8077Z" fill="#119A48"/>
<path d="M238.16 8.48914C238.886 7.90369 239.169 7.0659 238.806 6.61167C238.442 6.15745 237.554 6.24829 236.837 6.82364C236.121 7.399 235.828 8.24688 236.181 8.70111C236.534 9.15533 237.423 9.0443 238.16 8.48914Z" fill="#F79668"/>
<path d="M242.794 13.7783C243.52 13.1928 243.803 12.3651 243.45 11.8907C243.096 11.4163 242.188 11.5374 241.431 12.1128C240.674 12.6881 240.422 13.5259 240.785 13.9802C241.148 14.4344 242.057 14.3637 242.794 13.7783Z" fill="#F79668"/>
<path d="M251.555 24.8613C252.292 24.2657 252.565 23.4279 252.212 22.9636C251.858 22.4993 250.96 22.6103 250.243 23.1857C249.527 23.761 249.234 24.5988 249.577 25.0631C249.92 25.5274 250.829 25.4265 251.555 24.8613Z" fill="#F79668"/>
<path d="M247.206 19.5922C247.943 19.0169 248.215 18.1791 247.862 17.7148C247.509 17.2504 246.61 17.3514 245.843 17.9368C245.076 18.5223 244.834 19.3399 245.197 19.8042C245.56 20.2685 246.479 20.1474 247.206 19.5922Z" fill="#F79668"/>
<path d="M245.053 7.4795C245.79 6.90415 246.063 6.05627 245.719 5.61214C245.376 5.16801 244.468 5.24875 243.751 5.81401C243.034 6.37927 242.742 7.23725 243.085 7.70157C243.428 8.16589 244.347 8.07504 245.053 7.4795Z" fill="#F79668"/>
<path d="M249.697 12.8093C250.424 12.2239 250.707 11.3861 250.354 10.9218C250 10.4575 249.102 10.5584 248.335 11.1439C247.568 11.7293 247.325 12.5671 247.679 13.0213C248.032 13.4755 248.94 13.3746 249.697 12.8093Z" fill="#F79668"/>
<path d="M254.108 18.5831C254.835 17.9976 255.118 17.1598 254.754 16.7056C254.391 16.2514 253.523 16.3422 252.796 16.9277C252.069 17.5131 251.787 18.3408 252.14 18.7951C252.493 19.2493 253.381 19.1685 254.108 18.5831Z" fill="#F79668"/>
<path d="M251.969 6.27844C252.686 5.693 252.979 4.8552 252.626 4.40098C252.272 3.94675 251.364 4.02751 250.607 4.61296C249.85 5.1984 249.597 6.0261 249.961 6.48032C250.324 6.93455 251.243 6.8437 251.969 6.27844Z" fill="#F79668"/>
<path d="M256.594 11.5776C257.33 11.0022 257.603 10.1644 257.26 9.70011C256.917 9.23579 256.008 9.33673 255.241 9.92218C254.474 10.5076 254.232 11.3454 254.585 11.7996C254.938 12.2539 255.877 12.1529 256.594 11.5776Z" fill="#F79668"/>
<path d="M235.263 14.7981C235.989 14.2227 236.272 13.3849 235.909 12.9206C235.545 12.4563 234.667 12.5572 233.95 13.1326C233.234 13.7079 232.941 14.5558 233.294 15.0201C233.648 15.4845 234.536 15.3835 235.263 14.7981Z" fill="#F79668"/>
<path d="M239.858 20.1067C240.584 19.5313 240.867 18.6935 240.514 18.2292C240.16 17.7649 239.262 17.8759 238.495 18.4513C237.728 19.0266 237.485 19.8745 237.839 20.3288C238.192 20.783 239.171 20.6921 239.858 20.1067Z" fill="#F79668"/>
<path d="M244.309 25.9106C245.036 25.3352 245.319 24.4974 244.965 24.0331C244.612 23.5688 243.724 23.6697 242.947 24.2552C242.169 24.8406 241.937 25.6683 242.301 26.1226C242.664 26.5768 243.593 26.4859 244.309 25.9106Z" fill="#F79668"/>
<path d="M218.921 59.493L220.809 58.1909L213.046 46.7949L211.148 48.0869L218.921 59.493Z" fill="#119A48"/>
<path d="M209.979 71.9392C217.691 83.2646 229.834 88.4528 237.051 83.5169C244.268 78.581 243.915 65.4085 236.193 54.0629C228.471 42.7174 215.884 52.4277 215.884 52.4277C215.884 52.4277 202.247 60.5937 209.979 71.9392Z" fill="#ED2224"/>
<path d="M215.168 52.4176C215.168 52.4176 221.123 53.7197 225.413 50.8127C229.704 47.9056 230.673 41.8695 230.673 41.8695C230.673 41.8695 224.707 40.5876 220.437 43.4845C216.167 46.3815 215.168 52.4176 215.168 52.4176Z" fill="#119A48"/>
<path d="M200.066 62.8645C200.066 62.8645 206.022 64.1565 210.302 61.2394C214.582 58.3223 215.561 52.3164 215.561 52.3164C215.561 52.3164 209.595 51.0244 205.325 53.9314C201.056 56.8385 200.066 62.8645 200.066 62.8645Z" fill="#119A48"/>
<path d="M234.497 62.5822C235.022 63.3493 235.83 63.7026 236.324 63.3796C236.819 63.0566 236.778 62.1582 236.253 61.3608C235.729 60.5634 234.901 60.2404 234.426 60.5634C233.952 60.8864 233.982 61.815 234.497 62.5822Z" fill="#F79668"/>
<path d="M228.854 66.8119C229.389 67.5892 230.206 67.9324 230.691 67.6094C231.175 67.2864 231.135 66.3779 230.62 65.5906C230.106 64.8033 229.278 64.4701 228.803 64.8032C228.329 65.1363 228.349 66.0246 228.854 66.8119Z" fill="#F79668"/>
<path d="M217.176 74.7454C217.701 75.5025 218.519 75.8659 218.993 75.5328C219.468 75.1997 219.447 74.3114 218.933 73.514C218.418 72.7166 217.6 72.3936 217.106 72.7267C216.611 73.0598 216.641 73.9783 217.176 74.7454Z" fill="#F79668"/>
<path d="M222.759 70.7786C223.273 71.5659 224.091 71.9091 224.576 71.5861C225.06 71.2631 225.03 70.3647 224.505 69.5673C223.98 68.7699 223.172 68.4368 222.688 68.7699C222.203 69.103 222.234 70.0619 222.759 70.7786Z" fill="#F79668"/>
<path d="M234.959 69.5367C235.484 70.2937 236.292 70.6672 236.786 70.3341C237.281 70.001 237.231 69.1229 236.706 68.3153C236.181 67.5078 235.363 67.1949 234.879 67.528C234.394 67.8611 234.434 68.7696 234.959 69.5367Z" fill="#F79668"/>
<path d="M229.328 73.7759C229.842 74.543 230.66 74.8862 231.144 74.5531C231.629 74.22 231.609 73.3419 231.084 72.5848C230.559 71.8278 229.741 71.4543 229.257 71.7874C228.772 72.1205 228.752 72.9987 229.328 73.7759Z" fill="#F79668"/>
<path d="M223.21 77.7536C223.745 78.5207 224.553 78.8841 225.037 78.5409C225.522 78.1977 225.492 77.3296 224.967 76.5221C224.442 75.7146 223.624 75.3916 223.15 75.7146C222.675 76.0376 222.696 76.9864 223.21 77.7536Z" fill="#F79668"/>
<path d="M235.656 76.5122C236.191 77.2793 237.019 77.6326 237.493 77.2995C237.967 76.9664 237.947 76.0882 237.412 75.2807C236.877 74.4732 236.09 74.1502 235.595 74.4833C235.101 74.8164 235.141 75.7349 235.656 76.5122Z" fill="#F79668"/>
<path d="M230.045 80.7514C230.56 81.5186 231.368 81.8719 231.862 81.5388C232.357 81.2057 232.316 80.3174 231.802 79.52C231.287 78.7226 230.449 78.3996 229.965 78.7226C229.48 79.0456 229.52 79.9843 230.045 80.7514Z" fill="#F79668"/>
<path d="M228.388 59.221C228.913 59.9982 229.73 60.3515 230.215 60.0083C230.699 59.6651 230.659 58.8071 230.134 58.04C229.609 57.2729 228.802 56.9196 228.317 57.2426C227.833 57.5656 227.873 58.464 228.388 59.221Z" fill="#F79668"/>
<path d="M222.758 63.4705C223.273 64.2275 224.091 64.5808 224.585 64.2477C225.08 63.9146 225.029 63.0364 224.515 62.2289C224 61.4214 223.172 61.1186 222.688 61.4517C222.203 61.7848 222.223 62.6932 222.758 63.4705Z" fill="#F79668"/>
<path d="M216.642 67.4477C217.157 68.2048 217.964 68.5682 218.459 68.2351C218.953 67.902 218.913 67.0137 218.388 66.2163C217.863 65.4189 217.056 65.0959 216.571 65.4189C216.087 65.7419 216.127 66.6806 216.642 67.4477Z" fill="#F79668"/>
<path d="M262.337 49.9243L264.638 49.884L264.497 36.0957L262.195 36.126L262.337 49.9243Z" fill="#119A48"/>
<path d="M248.001 55.3141C248.142 69.0216 255.359 80.0643 264.151 79.9835C272.943 79.9028 279.898 68.6986 279.757 54.981C279.616 41.2634 263.768 42.3535 263.768 42.3535C263.768 42.3535 247.87 41.5864 248.001 55.3141Z" fill="#ED2224"/>
<path d="M263.152 41.9499C263.152 41.9499 267.382 46.3307 272.56 46.2802C277.738 46.2297 281.887 41.7682 281.887 41.7682C281.887 41.7682 277.648 37.3875 272.469 37.4379C267.291 37.4884 263.152 41.9499 263.152 41.9499Z" fill="#119A48"/>
<path d="M244.793 42.2634C244.793 42.2634 249.032 46.6441 254.211 46.5937C259.389 46.5432 263.528 42.0817 263.528 42.0817C263.528 42.0817 259.298 37.7009 254.12 37.7514C248.942 37.8019 244.793 42.2634 244.793 42.2634Z" fill="#119A48"/>
<path d="M273.602 61.1184C273.602 62.047 274.086 62.794 274.682 62.794C275.277 62.794 275.691 62.0369 275.691 61.1184C275.691 60.1998 275.197 59.4226 274.611 59.4327C274.026 59.4428 273.592 60.1998 273.602 61.1184Z" fill="#F79668"/>
<path d="M266.567 61.5227C266.567 62.4614 267.061 63.1983 267.637 63.1882C268.212 63.1781 268.696 62.4312 268.646 61.5025C268.595 60.5739 268.151 59.8269 267.566 59.837C266.98 59.8471 266.556 60.5941 266.567 61.5227Z" fill="#F79668"/>
<path d="M252.445 61.633C252.445 62.5617 252.93 63.3086 253.515 63.3086C254.101 63.3086 254.585 62.5415 254.525 61.6129C254.464 60.6842 254.03 59.9575 253.445 59.9474C252.859 59.9373 252.435 60.7044 252.445 61.633Z" fill="#F79668"/>
<path d="M259.266 61.4417C259.266 62.3804 259.77 63.1172 260.346 63.1172C260.921 63.1172 261.416 62.3501 261.355 61.4215C261.295 60.4928 260.861 59.7459 260.275 59.756C259.69 59.7661 259.256 60.513 259.266 61.4417Z" fill="#F79668"/>
<path d="M270.141 67.1648C270.141 68.1036 270.635 68.8505 271.231 68.8505C271.826 68.8505 272.24 68.0834 272.24 67.1447C272.24 66.2059 271.756 65.4893 271.16 65.4893C270.565 65.4893 270.141 66.2463 270.141 67.1648Z" fill="#F79668"/>
<path d="M263.074 67.5888C263.074 68.5073 263.579 69.2442 264.154 69.2442C264.73 69.2442 265.214 68.477 265.164 67.5484C265.113 66.6198 264.669 65.8728 264.074 65.8829C263.478 65.893 263.074 66.64 263.074 67.5888Z" fill="#F79668"/>
<path d="M255.806 67.4976C255.806 68.4263 256.291 69.1732 256.876 69.1631C257.462 69.153 257.886 68.396 257.886 67.4673C257.886 66.5387 257.391 65.7918 256.805 65.8019C256.22 65.812 255.776 66.5589 255.806 67.4976Z" fill="#F79668"/>
<path d="M266.848 73.3723C266.848 74.3009 267.353 75.0378 267.928 75.0378C268.503 75.0378 268.988 74.2808 268.937 73.342C268.887 72.4033 268.433 71.6765 267.847 71.6866C267.262 71.6967 266.838 72.4437 266.848 73.3723Z" fill="#F79668"/>
<path d="M259.813 73.7659C259.813 74.7046 260.307 75.4314 260.893 75.4314C261.478 75.4314 261.902 74.6743 261.902 73.7457C261.902 72.817 261.418 72.0701 260.832 72.0802C260.247 72.0903 259.803 72.8372 259.813 73.7659Z" fill="#F79668"/>
<path d="M270.371 54.9204C270.371 55.849 270.856 56.5859 271.451 56.5859C272.047 56.5859 272.461 55.8288 272.461 54.9002C272.461 53.9716 271.966 53.2246 271.391 53.2246C270.815 53.2246 270.371 54.022 270.371 54.9204Z" fill="#F79668"/>
<path d="M263.336 55.345C263.336 56.2736 263.821 57.0306 264.416 57.0205C265.012 57.0105 265.476 56.2534 265.426 55.3248C265.375 54.3961 264.931 53.6492 264.346 53.6593C263.76 53.6694 263.326 54.4163 263.336 55.345Z" fill="#F79668"/>
<path d="M256.008 55.274C256.008 56.2026 256.492 56.9597 257.088 56.9395C257.683 56.9193 258.097 56.1825 258.097 55.2437C258.097 54.305 257.603 53.5681 257.027 53.5782C256.452 53.5883 256.008 54.3454 256.008 55.274Z" fill="#F79668"/>
<path d="M298.1 12.1934C296.957 13.3348 296.178 14.7898 295.861 16.3743C295.545 17.9588 295.706 19.6015 296.323 21.0945C296.941 22.5876 297.988 23.8638 299.331 24.7618C300.674 25.6598 302.253 26.1391 303.869 26.1391C305.485 26.1391 307.064 25.6598 308.408 24.7618C309.751 23.8638 310.798 22.5876 311.415 21.0945C312.033 19.6015 312.194 17.9588 311.877 16.3743C311.561 14.7898 310.782 13.3348 309.638 12.1934C308.881 11.4344 307.982 10.8322 306.992 10.4213C306.002 10.0103 304.941 9.79883 303.869 9.79883C302.797 9.79883 301.736 10.0103 300.746 10.4213C299.756 10.8322 298.857 11.4344 298.1 12.1934Z" fill="#ED2224"/>
<path d="M304.064 15.2113L297.503 1.92773L294.586 4.41083L297.069 5.54135L302.702 15.2214L304.064 15.2113Z" fill="#993720"/>
<path d="M486.083 62.4308C487.181 63.6158 487.902 65.0997 488.156 66.6948C488.41 68.2899 488.186 69.9245 487.511 71.392C486.836 72.8595 485.741 74.0938 484.365 74.9389C482.988 75.784 481.392 76.202 479.778 76.1398C478.164 76.0777 476.604 75.5383 475.297 74.5899C473.989 73.6414 472.993 72.3266 472.432 70.8115C471.872 69.2965 471.774 67.6495 472.15 66.0786C472.526 64.5078 473.36 63.0838 474.545 61.9867C476.137 60.5211 478.244 59.7451 480.406 59.8283C482.568 59.9116 484.609 60.8472 486.083 62.4308Z" fill="#ED2224"/>
<path d="M480.004 65.2067L487.09 52.2158L489.916 54.82L487.383 55.8395L481.346 65.2773L480.004 65.2067Z" fill="#993720"/>
<path d="M300.53 556.355C310.485 568.903 323.936 578.218 339.184 583.121C354.432 588.025 370.792 588.297 386.194 583.903C401.597 579.509 415.351 570.646 425.716 558.436C436.082 546.226 442.594 531.216 444.429 515.305C446.264 499.393 443.34 483.295 436.026 469.046C428.712 454.797 417.337 443.036 403.339 435.252C389.341 427.467 373.349 424.008 357.385 425.312C341.421 426.616 326.202 432.624 313.653 442.577C296.828 455.927 285.994 475.413 283.534 496.749C281.073 518.085 287.187 539.525 300.53 556.355Z" fill="#DF8A26"/>
<path d="M354.678 540.841C347.329 545.211 337.72 543.192 333.319 536.339C328.918 529.485 327.404 521.622 314.382 514.697C301.361 507.773 312.909 496.145 324.406 484.759C335.903 473.373 350.459 479.53 356.707 498.466C362.955 517.403 361.996 536.47 354.678 540.841Z" fill="#FBF49C"/>
<path d="M354.172 481.276L324.293 502.706L345.713 532.553L375.581 511.144L354.172 481.276Z" fill="#FDEC09"/>
<path d="M386.826 480.408L356.957 501.827L378.377 531.695L408.235 510.276L386.826 480.408Z" fill="#FDEC09"/>
<path d="M65.3378 121.773C70.082 120.995 79.9944 125.235 87.3329 131.19C94.6713 137.146 104.937 143.838 110.105 146.079C115.273 148.32 116.828 155.446 113.557 161.906C110.287 168.366 101.444 172.928 93.9647 172C86.485 171.071 77.0167 173.453 72.9487 177.218C68.8808 180.983 60.3715 180.509 53.992 176.209C47.6125 171.909 45.1293 163.47 48.4604 157.576C52.1558 150.529 54.5785 142.885 55.6171 134.996C56.2329 128.475 60.6036 122.55 65.3378 121.773Z" fill="white"/>
<path d="M66.6724 143.646C65.5316 144.789 64.7552 146.244 64.4411 147.828C64.1271 149.411 64.2896 151.053 64.908 152.544C65.5265 154.035 66.5731 155.31 67.9158 156.207C69.2584 157.103 70.8367 157.582 72.4513 157.582C74.0659 157.582 75.6442 157.103 76.9868 156.207C78.3295 155.31 79.3762 154.035 79.9946 152.544C80.6131 151.053 80.7755 149.411 80.4615 147.828C80.1474 146.244 79.371 144.789 78.2302 143.646C77.4717 142.887 76.5709 142.284 75.5793 141.873C74.5877 141.462 73.5248 141.25 72.4513 141.25C71.3778 141.25 70.3149 141.462 69.3233 141.873C68.3317 142.284 67.4309 142.887 66.6724 143.646Z" fill="#ED2224"/>
<path d="M72.648 146.684L66.0969 133.391L63.1797 135.874L65.6527 136.994L71.2853 146.684H72.648Z" fill="#993720"/>
<path d="M331.917 424.357C331.067 425.681 330.628 427.228 330.658 428.801C330.687 430.374 331.182 431.904 332.081 433.195C332.979 434.487 334.241 435.483 335.706 436.058C337.171 436.633 338.773 436.76 340.31 436.424C341.847 436.087 343.25 435.303 344.342 434.169C345.433 433.035 346.163 431.603 346.44 430.054C346.717 428.505 346.529 426.909 345.899 425.467C345.268 424.025 344.224 422.803 342.899 421.955C341.121 420.826 338.97 420.445 336.913 420.895C334.856 421.345 333.061 422.589 331.917 424.357Z" fill="#85459A"/>
<path d="M414.142 488.494C413.293 489.821 412.857 491.37 412.888 492.946C412.92 494.521 413.418 496.051 414.32 497.343C415.222 498.635 416.486 499.631 417.954 500.204C419.422 500.777 421.026 500.902 422.565 500.563C424.104 500.224 425.507 499.436 426.598 498.299C427.689 497.162 428.418 495.727 428.693 494.176C428.968 492.624 428.777 491.026 428.143 489.584C427.51 488.141 426.463 486.919 425.134 486.071C423.355 484.936 421.198 484.554 419.137 485.008C417.076 485.462 415.279 486.716 414.142 488.494Z" fill="#85459A"/>
<path d="M403.695 456.657C402.849 457.986 402.416 459.536 402.451 461.111C402.486 462.686 402.987 464.215 403.891 465.505C404.795 466.795 406.062 467.788 407.53 468.359C408.999 468.929 410.603 469.051 412.141 468.709C413.679 468.367 415.081 467.577 416.17 466.439C417.258 465.3 417.985 463.864 418.258 462.313C418.53 460.761 418.337 459.164 417.701 457.722C417.066 456.281 416.017 455.06 414.688 454.215C413.806 453.651 412.822 453.267 411.792 453.084C410.762 452.902 409.705 452.925 408.684 453.152C407.663 453.379 406.696 453.806 405.84 454.407C404.984 455.009 404.255 455.773 403.695 456.657Z" fill="#85459A"/>
<path d="M409.165 434.925C408.319 436.252 407.886 437.799 407.92 439.372C407.954 440.945 408.453 442.472 409.356 443.761C410.258 445.05 411.522 446.042 412.988 446.613C414.454 447.183 416.056 447.306 417.592 446.966C419.128 446.626 420.529 445.838 421.617 444.701C422.705 443.565 423.432 442.132 423.705 440.583C423.979 439.033 423.787 437.438 423.153 435.998C422.52 434.558 421.474 433.338 420.147 432.492C418.367 431.362 416.212 430.982 414.153 431.439C412.094 431.895 410.3 433.148 409.165 434.925Z" fill="#85459A"/>
<path d="M254.111 495.489C253.263 496.815 252.829 498.362 252.861 499.935C252.893 501.508 253.392 503.036 254.293 504.326C255.193 505.616 256.457 506.609 257.922 507.181C259.388 507.753 260.991 507.877 262.527 507.539C264.063 507.2 265.465 506.413 266.554 505.277C267.643 504.142 268.371 502.709 268.646 501.16C268.92 499.611 268.729 498.015 268.097 496.574C267.465 495.134 266.419 493.913 265.093 493.067C264.213 492.503 263.231 492.119 262.202 491.936C261.174 491.753 260.119 491.775 259.099 492C258.079 492.225 257.113 492.649 256.257 493.248C255.401 493.846 254.672 494.608 254.111 495.489Z" fill="#85459A"/>
<path d="M381.082 455.82C380.232 457.148 379.795 458.698 379.826 460.275C379.857 461.851 380.354 463.383 381.255 464.677C382.157 465.971 383.421 466.968 384.889 467.543C386.357 468.119 387.963 468.246 389.503 467.909C391.044 467.571 392.45 466.785 393.543 465.649C394.637 464.513 395.369 463.079 395.648 461.527C395.926 459.975 395.738 458.375 395.108 456.93C394.477 455.485 393.432 454.259 392.105 453.407C390.323 452.267 388.161 451.881 386.095 452.333C384.028 452.785 382.225 454.039 381.082 455.82Z" fill="#85459A"/>
<path d="M341.997 438.186C341.145 439.512 340.706 441.062 340.736 442.638C340.765 444.214 341.261 445.746 342.162 447.039C343.063 448.333 344.327 449.33 345.795 449.905C347.262 450.48 348.868 450.606 350.407 450.268C351.947 449.93 353.352 449.142 354.443 448.005C355.535 446.868 356.265 445.433 356.54 443.881C356.816 442.329 356.624 440.73 355.991 439.287C355.357 437.843 354.309 436.621 352.98 435.774C352.101 435.209 351.119 434.823 350.091 434.638C349.062 434.454 348.008 434.474 346.987 434.698C345.967 434.923 345.001 435.346 344.144 435.945C343.288 436.543 342.558 437.305 341.997 438.186Z" fill="#85459A"/>
<path d="M349.066 423.813C348.219 425.14 347.785 426.688 347.818 428.262C347.851 429.837 348.35 431.365 349.252 432.656C350.154 433.947 351.418 434.941 352.884 435.514C354.351 436.086 355.954 436.211 357.492 435.873C359.029 435.535 360.432 434.748 361.523 433.613C362.614 432.478 363.344 431.045 363.621 429.495C363.898 427.945 363.709 426.348 363.078 424.906C362.448 423.463 361.404 422.24 360.079 421.39C359.197 420.825 358.212 420.439 357.181 420.255C356.15 420.071 355.093 420.092 354.07 420.317C353.047 420.542 352.078 420.966 351.219 421.566C350.361 422.166 349.629 422.929 349.066 423.813Z" fill="#85459A"/>
<path d="M323.931 443.445C323.085 444.773 322.651 446.322 322.685 447.897C322.719 449.471 323.219 451 324.122 452.291C325.025 453.581 326.29 454.575 327.758 455.146C329.225 455.717 330.83 455.841 332.367 455.501C333.905 455.161 335.307 454.373 336.397 453.236C337.487 452.099 338.215 450.665 338.49 449.114C338.765 447.563 338.573 445.966 337.941 444.524C337.308 443.082 336.261 441.86 334.934 441.012C334.052 440.448 333.068 440.063 332.037 439.88C331.006 439.696 329.95 439.718 328.928 439.944C327.905 440.17 326.938 440.596 326.081 441.197C325.223 441.797 324.493 442.561 323.931 443.445Z" fill="#85459A"/>
<path d="M361.117 437.792C360.266 439.118 359.828 440.666 359.857 442.241C359.886 443.816 360.382 445.347 361.281 446.64C362.18 447.933 363.443 448.931 364.909 449.506C366.376 450.082 367.98 450.21 369.519 449.874C371.058 449.538 372.462 448.753 373.555 447.619C374.648 446.484 375.38 445.051 375.659 443.501C375.937 441.95 375.749 440.352 375.119 438.908C374.489 437.465 373.445 436.24 372.12 435.39C370.34 434.257 368.184 433.875 366.123 434.325C364.062 434.775 362.263 436.021 361.117 437.792Z" fill="#85459A"/>
<path d="M241.442 195.357C244.471 198.648 242.714 205.34 237.465 210.235L202.136 243.162C196.877 248.057 190.023 249.379 186.995 246.099C183.966 242.818 185.723 236.126 191.032 231.22L226.362 198.294C231.58 193.399 238.384 192.076 241.442 195.357Z" fill="#993720"/>
<path d="M240.969 195.993L245.006 186.182L250.376 193.782L240.969 195.993Z" fill="#993720"/>
<path d="M187.527 245.069L185.044 255.385L178.594 248.693L187.527 245.069Z" fill="#993720"/>
<path d="M273.33 368.73C274.652 373.02 281.345 374.786 288.219 372.667L334.339 358.444C341.223 356.315 345.745 351.056 344.433 346.776C343.121 342.496 336.358 340.72 329.534 342.829L283.404 357.062C276.53 359.191 271.998 364.44 273.33 368.73Z" fill="#993720"/>
<path d="M274.105 368.639L263.566 367.267L267.503 375.685L274.105 368.639Z" fill="#993720"/>
<path d="M343.262 346.694L353.457 349.682L350.873 340.749L343.262 346.694Z" fill="#993720"/>
</g>
<defs>
<clipPath id="clip0_3335_55584">
<rect width="592" height="587" fill="white"/>
</clipPath>
</defs>
</svg>
