<svg width="34" height="33" viewBox="0 0 34 33" fill="none" xmlns="http://www.w3.org/2000/svg">
<path d="M27.0032 18.0461C27.057 17.6154 27.0974 17.1848 27.0974 16.7272C27.0974 16.2696 27.057 15.8389 27.0032 15.4082L29.8429 13.1876C30.0987 12.9857 30.1659 12.6223 30.0044 12.3262L27.3127 7.66957C27.1512 7.37348 26.7878 7.26581 26.4918 7.37348L23.1406 8.71934C22.4407 8.18099 21.687 7.73686 20.8661 7.4004L20.3547 3.83388C20.3324 3.67553 20.2531 3.53074 20.1317 3.42667C20.0103 3.3226 19.8551 3.2664 19.6952 3.26862H14.3118C13.9753 3.26862 13.6927 3.51087 13.6523 3.83388L13.1409 7.4004C12.3199 7.73686 11.5662 8.19445 10.8664 8.71934L7.51518 7.37348C7.20563 7.25235 6.85571 7.37348 6.6942 7.66957L4.00249 12.3262C3.82753 12.6223 3.90828 12.9857 4.16399 13.1876L7.00375 15.4082C6.94992 15.8389 6.90954 16.2831 6.90954 16.7272C6.90954 17.1713 6.94992 17.6154 7.00375 18.0461L4.16399 20.2668C3.90828 20.4687 3.84099 20.832 4.00249 21.1281L6.6942 25.7848C6.85571 26.0809 7.21909 26.1886 7.51518 26.0809L10.8664 24.735C11.5662 25.2734 12.3199 25.7175 13.1409 26.054L13.6523 29.6205C13.6927 29.9435 13.9753 30.1858 14.3118 30.1858H19.6952C20.0316 30.1858 20.3143 29.9435 20.3547 29.6205L20.8661 26.054C21.687 25.7175 22.4407 25.2599 23.1406 24.735L26.4918 26.0809C26.8013 26.202 27.1512 26.0809 27.3127 25.7848L30.0044 21.1281C30.1659 20.832 30.0987 20.4687 29.8429 20.2668L27.0032 18.0461V18.0461ZM17.0035 21.4377C14.406 21.4377 12.293 19.3247 12.293 16.7272C12.293 14.1297 14.406 12.0167 17.0035 12.0167C19.601 12.0167 21.714 14.1297 21.714 16.7272C21.714 19.3247 19.601 21.4377 17.0035 21.4377Z" fill="black"/>
</svg>
