<svg xmlns="http://www.w3.org/2000/svg" xmlns:xlink="http://www.w3.org/1999/xlink" viewBox="0 0 309.38 309.38"><defs><style>.cls-1{fill:none;}.cls-2{clip-path:url(#clip-path);}.cls-3{fill:#06964b;}.cls-4{fill:#ffd522;}.cls-5{fill:#fff;}.cls-6{fill:#d8b41d;}</style><clipPath id="clip-path" transform="translate(2.3 2.3)"><circle class="cls-1" cx="152.39" cy="152.39" r="152.39"/></clipPath></defs><g id="Layer_2" data-name="Layer 2"><g id="Layer_1-2" data-name="Layer 1"><g class="cls-2"><path class="cls-3" d="M307.08,152.39a156.65,156.65,0,0,1-2.92,30.19c-.05.28-.12.56-.16.83a154.46,154.46,0,0,1-15.19,42c-.19.32-.37.67-.56,1-2,3.74-4.2,7.38-6.57,10.91-.16.26-.32.49-.49.74a145.68,145.68,0,0,1-12.35,16.14,154.72,154.72,0,0,1-62.79,43.31c-1.06.39-2.16.79-3.25,1.16a155.1,155.1,0,0,1-88.56,3.62c-.65-.14-1.28-.3-1.9-.46-.4-.1-.79-.21-1.16-.33a3.59,3.59,0,0,1-.68-.21,152.35,152.35,0,0,1-38.12-16.51l0,0a10.72,10.72,0,0,1-3.55-2.21A154.28,154.28,0,0,1-2.3,152.39c0-2,0-4,.12-6A154,154,0,0,1,11.49,88.47c.61-1.3,1.21-2.6,1.84-3.88A153,153,0,0,1,43.05,43c.63-.68,1.28-1.3,1.93-1.93s1.41-1.35,2.13-2a154.1,154.1,0,0,1,103-41.36c.76,0,1.51,0,2.27,0A156.13,156.13,0,0,1,191,2.55l.26.07a162.23,162.23,0,0,1,20.41,7.76l.32.14a197.05,197.05,0,0,1,41.12,25.61q6,4.74,11.57,9.89A154.59,154.59,0,0,1,291,83.64c1.2,2.44,2.36,4.92,3.45,7.45C296.15,95,297.68,98.94,299,103c1,3,2,6.08,2.78,9.2v0c1.12,4.16,2.07,8.36,2.84,12.63,0,.28.09.54.13.82A152.79,152.79,0,0,1,307.08,152.39Z" transform="translate(2.3 2.3)"/><path class="cls-4" d="M281.19,238.07a145.68,145.68,0,0,1-12.35,16.14,154.72,154.72,0,0,1-62.79,43.31,71.82,71.82,0,0,0,6.55-5,73.78,73.78,0,0,0,8-7.92c1.76-2,3.32-3.92,2.83-6.43a1.19,1.19,0,0,0-2-.63,9.57,9.57,0,0,1-1,.88c-.81.51-1.83.51-2.64,1-1.28.74-2,2.18-3.23,3a11.49,11.49,0,0,1-3.34,1.28A34.69,34.69,0,0,1,201.13,285a18.77,18.77,0,0,1-7.82-1.58,20.82,20.82,0,0,1-5-3.7,89.79,89.79,0,0,1-7.46-7.77c-1.16-1.37-2.18-2.84-3.36-4.16a7.39,7.39,0,0,1-1.14-1.28l-.49-2a1.72,1.72,0,0,0,1.86-.95c.23-.49.21-1.09.58-1.51l.23-.21L197,277.27a9.17,9.17,0,0,0,3.81,2.25c2,.44,4-.46,5.78-1.42a85.61,85.61,0,0,0,31.63-28.72,12.14,12.14,0,0,0-13.47-1.51c-4.44,2.44-8.2,7.9-13.1,6.6-3.6-1-5-6.32-2.37-9,1.4-1.41,13-.74,15.63-1.18A86,86,0,0,0,240.81,240a84.76,84.76,0,0,0,14.75-7.32c3.34-2,7.31-2.78,10.59-4.94a2.14,2.14,0,0,1,3,.79,21.71,21.71,0,0,0,5.9,6.55A20.79,20.79,0,0,0,281.19,238.07Z" transform="translate(2.3 2.3)"/><path class="cls-5" d="M281.45,237.26a19.51,19.51,0,0,1-5.85-2.9,20.49,20.49,0,0,1-5.67-6.29,3.11,3.11,0,0,0-2-1.47,2.86,2.86,0,0,0-2.27.42,26.85,26.85,0,0,1-5.32,2.51,34.5,34.5,0,0,0-5.22,2.41,86.23,86.23,0,0,1-14.61,7.25,83.53,83.53,0,0,1-15.72,4.29,42.79,42.79,0,0,1-5.15.19c-6.92.05-10,.23-10.94,1.23a6.5,6.5,0,0,0,2.76,10.38c3.77,1,6.81-1.44,9.78-3.83a29.37,29.37,0,0,1,3.95-2.83,11.28,11.28,0,0,1,11.91.92,84.4,84.4,0,0,1-30.88,27.82c-1.61.86-3.49,1.72-5.23,1.35a8.67,8.67,0,0,1-3.43-2.09l-18.91-15.88-.53.3-.44.37a2.7,2.7,0,0,0-.56,1.23l-.16.51a1,1,0,0,1-1.07.44h-.49l-.25.42c-.35.65.49,2.86.49,2.86a3.93,3.93,0,0,0,.9,1.09l.35.35c.6.69,1.18,1.44,1.76,2.18s1,1.32,1.58,1.95a91.15,91.15,0,0,0,7.53,7.87,21.23,21.23,0,0,0,5.17,3.81,20.21,20.21,0,0,0,8.18,1.69,35.14,35.14,0,0,0,10.31-1.32,12.78,12.78,0,0,0,3.55-1.37,8.12,8.12,0,0,0,1.74-1.6,6.5,6.5,0,0,1,1.46-1.35,4.65,4.65,0,0,1,1.07-.39,5.08,5.08,0,0,0,1.6-.63,5.24,5.24,0,0,0,.91-.72l.26-.26.34-.07.24.26c.39,2-.79,3.55-2.63,5.71A73.12,73.12,0,0,1,212,291.9a74.89,74.89,0,0,1-6.45,4.92l-2.79,1.86c1.09-.37,2.19-.77,3.25-1.16a154.72,154.72,0,0,0,62.79-43.31,145.68,145.68,0,0,0,12.35-16.14c.17-.25.33-.48.49-.74Zm-14,17.25a154.18,154.18,0,0,1-55.73,39.87l1.42-1.18a74,74,0,0,0,8.1-8c1.69-2,3.6-4.18,3-7.15a2.1,2.1,0,0,0-1.4-1.53l-.62-.09a2,2,0,0,0-1.37.53l-.28.26a4.74,4.74,0,0,1-.65.55,4.09,4.09,0,0,1-1.12.42,5.42,5.42,0,0,0-1.5.56,7.5,7.5,0,0,0-1.86,1.67,7,7,0,0,1-1.4,1.3,10.12,10.12,0,0,1-3.11,1.16,33.5,33.5,0,0,1-9.8,1.28,18.54,18.54,0,0,1-7.47-1.51,19.83,19.83,0,0,1-4.76-3.55,86.35,86.35,0,0,1-7.39-7.71c-.53-.63-1-1.28-1.53-1.91s-1.21-1.53-1.83-2.27l-.49-.47a2.51,2.51,0,0,1-.54-.6c0-.12-.13-.51-.23-.88a2.47,2.47,0,0,0,1.6-1.37,7.22,7.22,0,0,0,.26-.79l17.69,14.86a10.19,10.19,0,0,0,4.18,2.44c2.19.49,4.35-.44,6.37-1.51a86,86,0,0,0,31.92-29l.42-.61-.56-.48a13,13,0,0,0-14.42-1.63,31,31,0,0,0-4.2,3c-2.74,2.2-5.34,4.29-8.27,3.5a4.79,4.79,0,0,1-2-7.52c.79-.68,6.62-.72,9.73-.75a44.67,44.67,0,0,0,5.43-.2,86.53,86.53,0,0,0,16.05-4.39A84.39,84.39,0,0,0,256,233.38a33.83,33.83,0,0,1,5-2.27,29.41,29.41,0,0,0,5.64-2.7,1.18,1.18,0,0,1,.95-.16,1.38,1.38,0,0,1,.89.68,22.06,22.06,0,0,0,5.55,6.33,1.24,1.24,0,0,0,.18.14,4,4,0,0,0,.42.33,4.94,4.94,0,0,0,.49.3.37.37,0,0,0,.16.09s.05,0,.07,0l.28.19a.42.42,0,0,0,.14.09,20.54,20.54,0,0,0,4.13,2.09,152.67,152.67,0,0,1-11.66,15.11C268,253.93,267.7,254.23,267.45,254.51Z" transform="translate(2.3 2.3)"/><path class="cls-4" d="M95.36,169.92H95s0,0,0,0l-.11.07.16,0h.09l0,.1s.07,0,.07-.07l.18,0h0Zm206.45-57.7v0c-.83-3.12-1.76-6.18-2.78-9.2-1.35-4-2.88-8-4.56-11.89-1.09-2.53-2.25-5-3.45-7.45a155.26,155.26,0,0,0-99.73-81L191,2.55A156.13,156.13,0,0,0,152.39-2.3c-.76,0-1.51,0-2.27,0a154.1,154.1,0,0,0-103,41.36c-.72.67-1.44,1.35-2.13,2,.86-.44,1.74-.86,2.6-1.3,6.48-3.18,13.07-6.27,19.36-9.78s13.59-6.08,20.83-5c7.92,1.21,14.3,6.85,21.6,10.11,6.24,2.78,13.09,3.8,19.83,4.8,6.06.91,12.42,1.79,18.2-.18,5.18-1.72,9.82-7,15-2.49,2.05,1.77,3.25,4.23,4.44,6.62.44.88.83,2.07.11,2.74s-1.55.3-2.36.39a3.53,3.53,0,0,0-2.77,3.14,7.78,7.78,0,0,0,1.09,4.32c1.3,2.41,3.21,5.18,1.54,7.59a4.46,4.46,0,0,1-2.56,1.63c-7.17,1.83-13.65-2.79-20.83-2.7-5.1.09-10.7,3.09-11.56,8.11-.44,2.6.35,5.61-1.32,7.64-2.09,2.53-7.06,2.25-7.71,5.47-.58,2.7,3,5.11,1.25,8a4.47,4.47,0,0,1-3.43,2.07,7.15,7.15,0,0,1-2.14-.12l-.6-.14c-.21,0-.4-.12-.61-.19a36.73,36.73,0,0,1-3.46-1.39c-.37-.16-.74-.32-1.14-.46-.18-.07-.37-.17-.55-.23s-.42-.14-.63-.19a3.77,3.77,0,0,0-.6-.16,3.87,3.87,0,0,0-.61-.12l-.51,0c-.21,0-.39,0-.6,0h-.28a1.86,1.86,0,0,0-.33,0h-.14l-.16,0a2.65,2.65,0,0,0-.62.21.75.75,0,0,0-.33.14s-.09,0-.14.07a3.06,3.06,0,0,0-.49.3,3.54,3.54,0,0,0-.62.53,2.64,2.64,0,0,0-.35.4l-.21.28a2.67,2.67,0,0,0-.47.81,1.83,1.83,0,0,0-.18.46,2.38,2.38,0,0,0-.16.7,3,3,0,0,1,0,.42,1.46,1.46,0,0,1-.12.37,1.79,1.79,0,0,1-.48.67l-.31.28a.63.63,0,0,1-.25.14,1.21,1.21,0,0,1-.35.12l-.14,0a2.12,2.12,0,0,1-.67,0,12.6,12.6,0,0,1-4.51-1.55,14,14,0,0,1-2-1.37,12.55,12.55,0,0,1-1.62-1.72,2.52,2.52,0,0,1-.35-.72s0,0,0,0a.55.55,0,0,1-.07-.28A2.15,2.15,0,0,1,92,88a2.67,2.67,0,0,0,.42-.67,2.41,2.41,0,0,0,.4-.86,1.54,1.54,0,0,0,.14-.37.43.43,0,0,0,0-.14c0-.1,0-.19.07-.28a.18.18,0,0,0,0-.12s0-.07,0-.09a1.29,1.29,0,0,0,.07-.4.07.07,0,0,0,0-.06c0-.07,0-.14,0-.21s0-.4,0-.61v0c0-.21,0-.45,0-.65l0-.12a.82.82,0,0,0,0-.28c0-.23-.07-.44-.11-.67,0,0,0-.07,0-.09a4,4,0,0,0-.23-.79c0-.07,0-.12-.07-.14a4.93,4.93,0,0,0-.35-.82,1.26,1.26,0,0,0-.18-.32A6,6,0,0,0,91.23,79L91,78.74l-.33-.28-.46-.37-.38-.23a1,1,0,0,0-.23-.14,6.56,6.56,0,0,0-1-.49,8.87,8.87,0,0,0-2.3-.65,13.08,13.08,0,0,0-7.24,1c-3.74,1.65-6.71,4.6-9.59,7.47-2.16,2.16-4.41,4.44-5.44,7.34a8.07,8.07,0,0,0,.42,6.55,2.47,2.47,0,0,0,3.21.93,35.44,35.44,0,0,1,14.14-3.51,2.56,2.56,0,0,1,2.55,3.32,9.2,9.2,0,0,1-2.62,3.81c-2,1.81-4.46,3.16-6.09,5.3a6.34,6.34,0,0,0-1,5.75,3.59,3.59,0,0,1-.74,3.67L64,129.45c-3.81,4.3-8,8.82-13.24,10.8a1.16,1.16,0,0,1-1.39-1.7l1.74-2.67c1.74-2.71,3.53-5.55,3.95-8.73a8.85,8.85,0,0,0-1.19-5.66,3,3,0,0,0-4.87-.21,14.05,14.05,0,0,0-2.28,4.29,1.15,1.15,0,0,1-2.18,0L41.24,114l-.23-.12a2,2,0,0,1-2.6-1.71,5.9,5.9,0,0,0-2-3.49c-1.81-1.53-4.18-2.18-6.24-3.36a11.2,11.2,0,0,1-5.44-7.16,2.26,2.26,0,0,0-2.44-1.81l-1,.12a.9.9,0,0,1-.68-1.58A34.53,34.53,0,0,0,32.69,65a1.16,1.16,0,0,0-2-.65q-7,7.45-13.29,15.56c-1.92,2.48-3.27,5.39-5.29,7.82a7.57,7.57,0,0,1-.63.75A154,154,0,0,0-2.18,146.42c-.07,2-.12,4-.12,6A154.28,154.28,0,0,0,68.78,282.54a10.72,10.72,0,0,0,3.55,2.21l0,0A152.35,152.35,0,0,0,110.5,301.3a3.59,3.59,0,0,0,.68.21c.37.12.76.23,1.16.33l-.86-.7a1.37,1.37,0,0,1-.44-.56,1.58,1.58,0,0,1,.62-2,1.72,1.72,0,0,0,0-2.9c-4.76-3-9.59-5.95-14.93-7.64-2.88-.93-5.82-1.49-8.73-2.28a47.45,47.45,0,0,1-4.85-1.6H83.1c-.27-.12-.58-.23-.86-.35-.55-.21-1.09-.44-1.64-.7A55.68,55.68,0,0,1,71,277.69c-1.49-1.07-3-2.19-4.35-3.39-.58-.51-1.18-1-1.74-1.56-.09-.09-.21-.18-.3-.28a55.36,55.36,0,0,1-13-18.57,4.78,4.78,0,0,1-.53-2.49c.47-2.81,5.18-3.25,5.5-6.06.12-1-.44-2.16.14-3a2.89,2.89,0,0,1,1.42-.91c2.9-1.11,5.83-2.25,8.75-3.39a6.08,6.08,0,0,1,3.72-.58c2.09.61,3.81,3.37,5.71,2.37-.39-2.64,2.74-4.43,5.41-4.8,2.35-.31,5-.31,6.83-1.7a.92.92,0,0,1,1.25.07c2.63,3,6.6,4.62,10.57,5.22,4.25.68,8.59.31,12.91.19a16.76,16.76,0,0,1,6.87.81c2.16.89,4,2.88,4.06,5.23,0,1.6-.79,3.11-1.3,4.66a2.23,2.23,0,0,0,0,1.89,2.62,2.62,0,0,0,1,.72l16.67,8.33a2.68,2.68,0,0,0,3.46-1,6.07,6.07,0,0,1,5.58-2.42c3,.38,5.55,2.3,8.4,3.35a15,15,0,0,0,6.67.79c2.32-.26,4.15-1.37,6.36-1.88a8.79,8.79,0,0,0,2.18-.75.85.85,0,0,0,.21-.14,3.61,3.61,0,0,0,.72-.48c-.19-.21-.4-.42-.58-.63a10.27,10.27,0,0,1-1.39-2.07l0,0a8.27,8.27,0,0,1-.44-1,8.67,8.67,0,0,1-.49-1.76,5.16,5.16,0,0,1-.07-.79,4.88,4.88,0,0,1,.38-1.9,10.34,10.34,0,0,1,1.81-3.05l0,0c.53-.69,1.07-1.35,1.58-2a9.05,9.05,0,0,0,1.42-3.25,2.4,2.4,0,0,0-2.93-2.65,46.62,46.62,0,0,1-5.53.95h0c-.42.05-.84.07-1.26.1a21.14,21.14,0,0,1-2.64,0,4.29,4.29,0,0,1-.79-.07,16.62,16.62,0,0,1-4-.88h0l-.6-.19A11.3,11.3,0,0,1,153,234a4.94,4.94,0,0,1-.84-2.49c0-2.32,2.3-4,4.5-4.57,5.07-1.37,10.38.44,15.61.69s11.56-2.2,12.17-7.43l-18.65-7a6.34,6.34,0,0,0-3.32-.44c-5.25.79-4.53,8.1-7.06,12.47a8.52,8.52,0,0,1-4.71,3.58c-1.88.67-3.6.21-5.53.65a.7.7,0,0,0-.6.37.93.93,0,0,0,.18.67c1.21,1.81,2.35,3.62,3.53,5.46a2.8,2.8,0,0,1,.4.79c.11.49-.1,1,0,1.51.19.88,1.23,1.53,1.12,2.41s-1.28,1.14-2.18,1.19c-1.61.07-3.37.13-4.72-.79a10.29,10.29,0,0,1-1.81-2c-.58-.75-1.23-1.42-1.83-2.16a40.79,40.79,0,0,1-2.53-3.65c-.82-1.3-1.91-2.88-1.86-4.53,0-1.07.53-1.85.35-3-.42-2.88-2.49-5.9-4.37-8.06-1-1.18-6.36-6.75-8-4.9-.77.89-.12,2.21.53,3.16,2.18,3.16,4.44,6.41,7.69,8.5,1.06.67,2.39,1.51,2.25,2.79-.09.83-.84,1.44-1.28,2.18-.58,1-.67,2.14-1.39,3-1,1.12-2.65,1.14-4.09,1a1.66,1.66,0,0,0-1.27.19c-.68.51-.38,1.67-1,2.18a1.38,1.38,0,0,1-1.58-.09,16.75,16.75,0,0,0-1.4-1c-.37-.16-.79-.23-1.18-.37a3,3,0,0,1-2-2.62,1.56,1.56,0,0,1,.86-1.7,2.17,2.17,0,0,1,1.46.28,5,5,0,0,0,2.63.37,2.31,2.31,0,0,0,1.81-1.74c.23-1.37-1.56-3.76-2.14-5-1-2-3.37-3.39-4.92-5-1.88-1.9-3.11-5-5.81-5.85-1.92-.58-4.48.56-6.43.63-3.27.16-6.34-.86-9.45.76-2.58,1.35-4.36,4-7.1,4.86-2.47.81-5.21,0-7.6-1.05-4.94-2.25-9.7-6.48-9.47-12a7.13,7.13,0,0,1,6.87-6.87c5.06-.07,4.74,5.38,9,6.08A5.1,5.1,0,0,0,93,202.87c2.48-4.34-3.21-6.73-1.61-10.59A4.29,4.29,0,0,1,94,190c3.88-1.39,7.78,1.09,11.56.3s7-4.69,10.66-3.64c1.51.42,2.76,1.62,4.29,1.83,3.86.44,5.23-4.94,5.11-8.82,1.23-.44,2.49.74,2.86,2s.28,2.58.72,3.81c1.44,3.78,7.1,3.64,10.38,1.27s5.48-6,9-8c1-.54,2.06-.95,3-1.54a1.32,1.32,0,0,0-.4-2.43l-5.89-1.21-.91-.19c.16-.23.35-.48.51-.74A63.91,63.91,0,0,0,151.35,161c.58-1.37,1-3.18-.17-4.11a2.81,2.81,0,0,0-2-.42c-4.64.53-7.24,5.73-8,10.36s-.49,9.68-3.07,13.6c-1,1.49-2.46,2.84-4.69,2.18a5,5,0,0,1-2.9-2.36c-1.25-2.28-1-4.95-.72-7.48a6.45,6.45,0,0,0-6.22.95c-3-1.93-2.56-6.64-.33-9.36s5.6-4.2,8.52-6.2c7.36-5,12.5-13.77,21.16-15.83a15.83,15.83,0,0,1,17.39,8.08,3.1,3.1,0,0,1-.19,3.18c-1.88,2.46-5.59-.63-7.54,1.09a2.28,2.28,0,0,0,0,3.39c1.23,1.21,3.16,1.12,4.69.47,5.9-2.42,7.18-10.75,12.68-14,1.93-1.13,4.16-1.55,6.08-2.64s3.6-3.28,2.95-5.41c-.3-.91-1-1.77-.81-2.72.53-2.44,5.55-1,6.11-3.37-1.6-1.88-3.28-4.64-1.79-6.61.58-.79,1.56-1.24,2.16-2,1-1.23,1-3,.83-4.55l-1.76-21.9a7,7,0,0,1,.93-4.15c2-3.07,4.74-1.21,6.8-2.74,1.54-1.07,2.09-3.67,2.81-5.09A26.55,26.55,0,0,0,206.73,77a30.7,30.7,0,0,0,.88-6.57,7.58,7.58,0,0,0-.05-.84,8.43,8.43,0,0,0,.86,0,19.1,19.1,0,0,0,3.14-.24A27.12,27.12,0,0,0,230,88.54a25.26,25.26,0,0,0,7.17,1,27.38,27.38,0,0,0,19-7.66,38,38,0,0,0,13.44,5.52c.49.1.95.17,1.42.28,3.57.68,6.34,1,10.38-.72.27-.11.55-.25.83-.39a3.64,3.64,0,0,0,.12.86,5.39,5.39,0,0,0,1.09,2.27,7.63,7.63,0,0,0,.74.77v0a11.81,11.81,0,0,1,2.63,3.21l0,0v0L287,94c.81,2.13-.07,4.62.76,6.73a4.43,4.43,0,0,0,7.85.77,6.73,6.73,0,0,1,2.65,1.83,11.15,11.15,0,0,1,2.51,5.81,17.42,17.42,0,0,1,.18,3.15c0,2.16-.21,4.35-.16,6.53a7.18,7.18,0,0,0,1.09,4.23,5.52,5.52,0,0,0,1.88,1.71,1.88,1.88,0,0,0,.58.12l.31-.05C303.88,120.58,302.93,116.38,301.81,112.22ZM153.9,117.31c-.72,1-1,2.3-1.76,3.27a7.91,7.91,0,0,1-1.95,1.53,54.19,54.19,0,0,0-7.64,6,7.59,7.59,0,0,1-3.09,2.09,5.86,5.86,0,0,1-1.26.14,9.15,9.15,0,0,0-2.67.14,16.23,16.23,0,0,0-1.83.88,5,5,0,0,1-1.51.44,5.58,5.58,0,0,1-4.06-1,10.11,10.11,0,0,0-1.84-1.37l-.11-.05c-1.49-.58-3.18.19-4.81.16a5,5,0,0,1-3.88-2.11,3.58,3.58,0,0,0-.79-1,2.33,2.33,0,0,0-1.48-.26c-3.16.28-6.13,2.4-9.27,3-1.2.21-3,.49-3.85-.67-.68-.91-.68-2.74-.44-4.41a13.87,13.87,0,0,1,.74-3.09c1.3-3.34,5.46-5.57,8.2-7.57.76-.53,1.53-1.18,2.34-1.76.26-.19.54-.38.79-.54a10.23,10.23,0,0,1,2.81-1.32,26.36,26.36,0,0,1,4.69-.4,23.16,23.16,0,0,0,8-2.32c.88-.39,1.76-.81,2.62-1.23,2.41-1.18,5.18-2.79,5.5-5.46.26-2-.88-4.22.26-5.89A4.45,4.45,0,0,1,139,93.14a5.86,5.86,0,0,1,3.53-1.33c1.65.19,2.79,1.74,4.2,2.63s3.23,1,4.74,1.83a13.09,13.09,0,0,1,2.9,2.32c1.37,1.35,2.72,2.67,4.09,4a6.14,6.14,0,0,1,2.14,3.25,11.44,11.44,0,0,1-.31,3,2.37,2.37,0,0,0,1.19,2.5l.51.24c.49.39.07,1.2-.44,1.57C159.17,114.92,155.6,114.92,153.9,117.31ZM103,164.91a2.18,2.18,0,0,1-1,.67,6.62,6.62,0,0,1-1,.26,1.56,1.56,0,0,1,.65.72,2.61,2.61,0,0,1,.09,2.11,7.15,7.15,0,0,1-2,2.46c1.25,3,2.51,6.11,3.76,9.17a4.56,4.56,0,0,1,.51,2.07,3.25,3.25,0,0,1-3.16,2.65c-1.69.11-3.2-.84-4.87-.79s-3.23.35-4.81-.24a5.89,5.89,0,0,1-1.07-.53l1.09-.37,1.58-.56c.38-.14.75-.25,1.12-.39a1.14,1.14,0,0,1-.88-.61,1.73,1.73,0,0,1-.21-1.3,4,4,0,0,1,1.41-2,5.45,5.45,0,0,0,1.58-1.93,12.94,12.94,0,0,0,.16-1.44,9.07,9.07,0,0,0-.32-1.6,7.71,7.71,0,0,1-.3-2.51v0a.65.65,0,0,1,0-.18.81.81,0,0,1,0-.33v-.07l0-.21H95s0,0,0,0l-.11.07a2,2,0,0,0-.26.18l0,0a1.06,1.06,0,0,0-.54.85v0a3.36,3.36,0,0,1-.44,1.76,14.82,14.82,0,0,0-1.69,2.39c-.26.58-.3,1.21-.58,1.79a3.44,3.44,0,0,1-3.72,1.46,6.44,6.44,0,0,1-2.2-.92,1,1,0,0,1-.24-1.56,3.38,3.38,0,0,0,.84-1.32,9.65,9.65,0,0,1,1.09-2.79,4.84,4.84,0,0,1,3.37-1.53,13.8,13.8,0,0,1,1.69,0,5.4,5.4,0,0,0,1.19.09.78.78,0,0,0,.21,0,2.87,2.87,0,0,0,.86-.65,1.34,1.34,0,0,0,.41-.65.08.08,0,0,0,0-.07,9,9,0,0,0-.19-2.25l0-.1a3,3,0,0,0-.14-.51,7.22,7.22,0,0,1-.23-.83s0,0,0-.05a1.27,1.27,0,0,1,.09-.93.37.37,0,0,1,.14-.14.69.69,0,0,1,.28-.16,16.88,16.88,0,0,1,3-.86,15.79,15.79,0,0,1,3.94-.28c.35,0,.72.05,1.05.09C103.42,163.24,103.49,164.33,103,164.91Z" transform="translate(2.3 2.3)"/><path class="cls-5" d="M162.49,110.88l-.09-.1-.63-.25v0h0a.77.77,0,0,1-.44-.46,2.2,2.2,0,0,1-.21-1l0-.16v0a25.39,25.39,0,0,0,.33-2.54l0-.6A7,7,0,0,0,159,102v0c-1.37-1.32-2.74-2.63-4.11-4a13.24,13.24,0,0,0-3.11-2.49c-1.72-.86-3.46-1-4.64-1.78a24,24,0,0,1-1.95-1.54,5.37,5.37,0,0,0-2.63-1.2l-.39,0a7,7,0,0,0-3.69,1.49h0a6.17,6.17,0,0,0-1.6,1.44,0,0,0,0,1,0,0,4.12,4.12,0,0,0-.65,2.35c0,1.23.32,2.41.32,3.36l0,.54a4.44,4.44,0,0,1-1.68,2.76,17.28,17.28,0,0,1-3.36,2c-.86.42-1.72.82-2.6,1.23a23,23,0,0,1-7.67,2.26,22.1,22.1,0,0,0-4.85.42,10.63,10.63,0,0,0-3.06,1.41v0l-.79.52,0,0c-.83.63-1.62,1.25-2.34,1.79h0c-1.33.95-3.07,2-4.67,3.29a11.66,11.66,0,0,0-3.81,4.62,15,15,0,0,0-.79,3.3,14,14,0,0,0-.16,2,5.5,5.5,0,0,0,.74,3.09,2.89,2.89,0,0,0,1.32,1,5,5,0,0,0,1.49.23,10.76,10.76,0,0,0,1.88-.21l.14,0a24.47,24.47,0,0,0,4.67-1.61,15.65,15.65,0,0,1,4.39-1.3h0l.33,0a1.11,1.11,0,0,1,.58.12,4.19,4.19,0,0,1,.58.79v0a5.74,5.74,0,0,0,4.55,2.46h.11c1.33,0,2.51-.39,3.44-.37a2.59,2.59,0,0,1,.95.16h0l.09.05a9.23,9.23,0,0,1,1.62,1.25h0a6.27,6.27,0,0,0,3.8,1.23c.31,0,.59,0,.89,0a6.13,6.13,0,0,0,1.74-.49l.14-.07a12.83,12.83,0,0,1,1.58-.79h0a4.91,4.91,0,0,1,1.21-.14l1.2,0a5.34,5.34,0,0,0,1.47-.16,8.35,8.35,0,0,0,3.46-2.28,52.6,52.6,0,0,1,7.52-5.87,8.82,8.82,0,0,0,2.14-1.69h0c.93-1.21,1.18-2.54,1.76-3.33a6.59,6.59,0,0,1,3.19-2,15.79,15.79,0,0,0,4.27-2,2.57,2.57,0,0,0,.67-.75,2.36,2.36,0,0,0,.33-1A1.48,1.48,0,0,0,162.49,110.88Zm-11,9.17a8.33,8.33,0,0,1-1.74,1.34h0a55.28,55.28,0,0,0-7.73,6l0,0a7.5,7.5,0,0,1-2.7,1.89h0a5.64,5.64,0,0,1-1,.09c-.37,0-.76,0-1.2,0a6.53,6.53,0,0,0-1.7.21l0,0a15.64,15.64,0,0,0-1.93.9,3.92,3.92,0,0,1-1.28.35,2.68,2.68,0,0,1-.65.05,4.61,4.61,0,0,1-2.78-.89,9.08,9.08,0,0,0-2-1.46l-.11,0,0,0a4.36,4.36,0,0,0-1.6-.28c-1.3,0-2.46.4-3.44.38h-.11a4.07,4.07,0,0,1-3.14-1.72s0,0,0,0a4,4,0,0,0-1-1.2v0h0a2.62,2.62,0,0,0-1.53-.41l-.52,0a17.71,17.71,0,0,0-4.87,1.41,23.2,23.2,0,0,1-4.46,1.54,9.21,9.21,0,0,1-1.58.18,2.36,2.36,0,0,1-.9-.14,1.27,1.27,0,0,1-.54-.37,4.17,4.17,0,0,1-.42-2.09,11.39,11.39,0,0,1,.14-1.72,15.6,15.6,0,0,1,.7-2.9,9.92,9.92,0,0,1,3.3-3.92c1.48-1.19,3.2-2.23,4.59-3.25.79-.56,1.56-1.19,2.35-1.77a0,0,0,0,0,0,0,6.19,6.19,0,0,0,.75-.51v0a9.4,9.4,0,0,1,2.57-1.23,25.18,25.18,0,0,1,4.51-.35,24.17,24.17,0,0,0,8.26-2.41c.91-.4,1.77-.82,2.65-1.23a18.1,18.1,0,0,0,3.72-2.3,6,6,0,0,0,2.27-3.83c0-.26,0-.49,0-.75,0-1.25-.33-2.43-.33-3.36a2.27,2.27,0,0,1,.37-1.4v0a4,4,0,0,1,1.17-1,5.53,5.53,0,0,1,2.76-1.2l.21,0h0a3.45,3.45,0,0,1,1.74.86c.63.49,1.28,1.11,2.09,1.63,1.67,1,3.49,1.16,4.79,1.85a12.88,12.88,0,0,1,2.69,2.19q2.06,2,4.11,4a5.49,5.49,0,0,1,1.88,2.76l0,.37a23.22,23.22,0,0,1-.32,2.37v0l0,.3a4.17,4.17,0,0,0,.35,1.72,2.68,2.68,0,0,0,1.35,1.3v0l.12,0-.24.3a13.82,13.82,0,0,1-3.8,1.77,7.79,7.79,0,0,0-4,2.62c-.84,1.21-1.1,2.46-1.72,3.2ZM104.28,180c-1.18-2.88-2.37-5.78-3.53-8.64a6.73,6.73,0,0,0,1.74-2.37v0a3.27,3.27,0,0,0,.23-1.28,3.63,3.63,0,0,0-.27-1.37,2.94,2.94,0,0,0,1.18-.83l0,0a2.27,2.27,0,0,0,.51-1.44,2.24,2.24,0,0,0-.27-1,1.71,1.71,0,0,0-.93-.77l-.1,0-.09,0-.25,0-.84-.07-.93,0a17.48,17.48,0,0,0-6.34,1.23,1.78,1.78,0,0,0-.86.7,1.85,1.85,0,0,0-.25.92,5.35,5.35,0,0,0,.23,1.19,5.28,5.28,0,0,1,.23.72v.09s0,0,0,.05a15.32,15.32,0,0,1,.2,1.69v.24h0v0l-.18.25a3.65,3.65,0,0,1-.56.47h-.12c-.14,0-.46-.07-1-.12H91.7c-.45,0-.89,0-1.35.07h0a5.46,5.46,0,0,0-3.93,1.84,10.18,10.18,0,0,0-1.23,3,2.55,2.55,0,0,1-.63,1,1.85,1.85,0,0,0-.55,1.3,1.9,1.9,0,0,0,.93,1.63v0a7.41,7.41,0,0,0,2.5,1,5.64,5.64,0,0,0,.93.09,4,4,0,0,0,3.67-2,18.47,18.47,0,0,0,.6-1.83,17.29,17.29,0,0,1,1.63-2.25v0a2.62,2.62,0,0,0,.35-.74l.21.91a10,10,0,0,1,.3,1.44V175c0,.23-.12.55-.16,1.11a5.37,5.37,0,0,1-1.3,1.49l0,0A5,5,0,0,0,92,180.05l-.07.55a2.71,2.71,0,0,0,.33,1.21c-.79.3-1.61.58-2.4.86l-1.71.58,1.55.95a6.85,6.85,0,0,0,3.69,1c.91,0,1.75-.09,2.65-.12h.07c1.23,0,2.62.77,4.51.82l.34,0a4.42,4.42,0,0,0,2.56-1,3.38,3.38,0,0,0,1.37-2.46v-.24A5.47,5.47,0,0,0,104.28,180Zm-1.14,2.32a1.71,1.71,0,0,1-.72,1.25,2.93,2.93,0,0,1-1.62.61l-.23,0c-1.28,0-2.67-.79-4.51-.81H95.9c-1,0-1.81.11-2.56.11-.23,0-.46,0-.69,0,.51-.16,1-.35,1.53-.53l3.6-1.33L94,181.28l-.21-.14-.16-.54,0-.18a3.45,3.45,0,0,1,1.16-1.56h0a6.36,6.36,0,0,0,1.79-2.25l.07-.14v-.16c0-.21.14-.65.16-1.32v-.19a12.77,12.77,0,0,0-.34-1.72v0a8.21,8.21,0,0,1-.31-2,5.38,5.38,0,0,1,.07-.78l0-.12,0-.33-.07-.81-.51,0,0-.44c0-.76-.21-1.51-.23-1.92v0l0-.09v-.05a6.21,6.21,0,0,0-.27-.95,1.7,1.7,0,0,1-.14-.68v0l0,0a15.52,15.52,0,0,1,5.71-1.12l.84,0,.83.07v0l0,.16-.12.35,0,0a2.52,2.52,0,0,1-1.53.63l-2.23.4,2,1.16a1.23,1.23,0,0,1,.51,1.11,2.09,2.09,0,0,1-.12.67v0a6.73,6.73,0,0,1-1.74,2.13l-.44.4.21.53c1.28,3.07,2.53,6.13,3.78,9.2a4,4,0,0,1,.42,1.55Zm-12.07-7.36c-.3.74-.35,1.37-.56,1.72a2.38,2.38,0,0,1-2.16,1.09l-.63-.07-.2-.05a6.47,6.47,0,0,1-1.72-.76l0,0-.07-.14v-.07a4.19,4.19,0,0,0,1-1.62,10.39,10.39,0,0,1,1-2.58,4,4,0,0,1,2.77-1.21h0c.42,0,.79,0,1.19,0h.39a9.68,9.68,0,0,0,1,.11,1.84,1.84,0,0,1-.28,1.12,16.41,16.41,0,0,0-1.76,2.51Zm13.21,5c-1.18-2.88-2.37-5.78-3.53-8.64a6.73,6.73,0,0,0,1.74-2.37v0a3.27,3.27,0,0,0,.23-1.28,3.63,3.63,0,0,0-.27-1.37,2.94,2.94,0,0,0,1.18-.83l0,0a2.27,2.27,0,0,0,.51-1.44,2.24,2.24,0,0,0-.27-1,1.71,1.71,0,0,0-.93-.77l-.1,0-.09,0-.25,0-.84-.07-.93,0a17.48,17.48,0,0,0-6.34,1.23,1.78,1.78,0,0,0-.86.7,1.85,1.85,0,0,0-.25.92,5.35,5.35,0,0,0,.23,1.19,5.28,5.28,0,0,1,.23.72v.09s0,0,0,.05a15.32,15.32,0,0,1,.2,1.69v.24h0v0l-.18.25a3.65,3.65,0,0,1-.56.47h-.12c-.14,0-.46-.07-1-.12H91.7c-.45,0-.89,0-1.35.07h0a5.46,5.46,0,0,0-3.93,1.84,10.18,10.18,0,0,0-1.23,3,2.55,2.55,0,0,1-.63,1,1.85,1.85,0,0,0-.55,1.3,1.9,1.9,0,0,0,.93,1.63v0a7.41,7.41,0,0,0,2.5,1,5.64,5.64,0,0,0,.93.09,4,4,0,0,0,3.67-2,18.47,18.47,0,0,0,.6-1.83,17.29,17.29,0,0,1,1.63-2.25v0a2.62,2.62,0,0,0,.35-.74l.21.91a10,10,0,0,1,.3,1.44V175c0,.23-.12.55-.16,1.11a5.37,5.37,0,0,1-1.3,1.49l0,0A5,5,0,0,0,92,180.05l-.07.55a2.71,2.71,0,0,0,.33,1.21c-.79.3-1.61.58-2.4.86l-1.71.58,1.55.95a6.85,6.85,0,0,0,3.69,1c.91,0,1.75-.09,2.65-.12h.07c1.23,0,2.62.77,4.51.82l.34,0a4.42,4.42,0,0,0,2.56-1,3.38,3.38,0,0,0,1.37-2.46v-.24A5.47,5.47,0,0,0,104.28,180Zm-1.14,2.32a1.71,1.71,0,0,1-.72,1.25,2.93,2.93,0,0,1-1.62.61l-.23,0c-1.28,0-2.67-.79-4.51-.81H95.9c-1,0-1.81.11-2.56.11-.23,0-.46,0-.69,0,.51-.16,1-.35,1.53-.53l3.6-1.33L94,181.28l-.21-.14-.16-.54,0-.18a3.45,3.45,0,0,1,1.16-1.56h0a6.36,6.36,0,0,0,1.79-2.25l.07-.14v-.16c0-.21.14-.65.16-1.32v-.19a12.77,12.77,0,0,0-.34-1.72v0a8.21,8.21,0,0,1-.31-2,5.38,5.38,0,0,1,.07-.78l0-.12,0-.33-.07-.81-.51,0,0-.44c0-.76-.21-1.51-.23-1.92v0l0-.09v-.05a6.21,6.21,0,0,0-.27-.95,1.7,1.7,0,0,1-.14-.68v0l0,0a15.52,15.52,0,0,1,5.71-1.12l.84,0,.83.07v0l0,.16-.12.35,0,0a2.52,2.52,0,0,1-1.53.63l-2.23.4,2,1.16a1.23,1.23,0,0,1,.51,1.11,2.09,2.09,0,0,1-.12.67v0a6.73,6.73,0,0,1-1.74,2.13l-.44.4.21.53c1.28,3.07,2.53,6.13,3.78,9.2a4,4,0,0,1,.42,1.55Zm-12.07-7.36c-.3.74-.35,1.37-.56,1.72a2.38,2.38,0,0,1-2.16,1.09l-.63-.07-.2-.05a6.47,6.47,0,0,1-1.72-.76l0,0-.07-.14v-.07a4.19,4.19,0,0,0,1-1.62,10.39,10.39,0,0,1,1-2.58,4,4,0,0,1,2.77-1.21h0c.42,0,.79,0,1.19,0h.39a9.68,9.68,0,0,0,1,.11,1.84,1.84,0,0,1-.28,1.12,16.41,16.41,0,0,0-1.76,2.51Zm71.42-64.06-.09-.1-.63-.25v0h0a.77.77,0,0,1-.44-.46,2.2,2.2,0,0,1-.21-1l0-.16v0a25.39,25.39,0,0,0,.33-2.54l0-.6A7,7,0,0,0,159,102v0c-1.37-1.32-2.74-2.63-4.11-4a13.24,13.24,0,0,0-3.11-2.49c-1.72-.86-3.46-1-4.64-1.78a24,24,0,0,1-1.95-1.54,5.37,5.37,0,0,0-2.63-1.2l-.39,0a7,7,0,0,0-3.69,1.49h0a6.17,6.17,0,0,0-1.6,1.44,0,0,0,0,1,0,0,4.12,4.12,0,0,0-.65,2.35c0,1.23.32,2.41.32,3.36l0,.54a4.44,4.44,0,0,1-1.68,2.76,17.28,17.28,0,0,1-3.36,2c-.86.42-1.72.82-2.6,1.23a23,23,0,0,1-7.67,2.26,22.1,22.1,0,0,0-4.85.42,10.63,10.63,0,0,0-3.06,1.41v0l-.79.52,0,0c-.83.63-1.62,1.25-2.34,1.79h0c-1.33.95-3.07,2-4.67,3.29a11.66,11.66,0,0,0-3.81,4.62,15,15,0,0,0-.79,3.3,14,14,0,0,0-.16,2,5.5,5.5,0,0,0,.74,3.09,2.89,2.89,0,0,0,1.32,1,5,5,0,0,0,1.49.23,10.76,10.76,0,0,0,1.88-.21l.14,0a24.47,24.47,0,0,0,4.67-1.61,15.65,15.65,0,0,1,4.39-1.3h0l.33,0a1.11,1.11,0,0,1,.58.12,4.19,4.19,0,0,1,.58.79v0a5.74,5.74,0,0,0,4.55,2.46h.11c1.33,0,2.51-.39,3.44-.37a2.59,2.59,0,0,1,.95.16h0l.09.05a9.23,9.23,0,0,1,1.62,1.25h0a6.27,6.27,0,0,0,3.8,1.23c.31,0,.59,0,.89,0a6.13,6.13,0,0,0,1.74-.49l.14-.07a12.83,12.83,0,0,1,1.58-.79h0a4.91,4.91,0,0,1,1.21-.14l1.2,0a5.34,5.34,0,0,0,1.47-.16,8.35,8.35,0,0,0,3.46-2.28,52.6,52.6,0,0,1,7.52-5.87,8.82,8.82,0,0,0,2.14-1.69h0c.93-1.21,1.18-2.54,1.76-3.33a6.59,6.59,0,0,1,3.19-2,15.79,15.79,0,0,0,4.27-2,2.57,2.57,0,0,0,.67-.75,2.36,2.36,0,0,0,.33-1A1.48,1.48,0,0,0,162.49,110.88Zm-11,9.17a8.33,8.33,0,0,1-1.74,1.34h0a55.28,55.28,0,0,0-7.73,6l0,0a7.5,7.5,0,0,1-2.7,1.89h0a5.64,5.64,0,0,1-1,.09c-.37,0-.76,0-1.2,0a6.53,6.53,0,0,0-1.7.21l0,0a15.64,15.64,0,0,0-1.93.9,3.92,3.92,0,0,1-1.28.35,2.68,2.68,0,0,1-.65.05,4.61,4.61,0,0,1-2.78-.89,9.08,9.08,0,0,0-2-1.46l-.11,0,0,0a4.36,4.36,0,0,0-1.6-.28c-1.3,0-2.46.4-3.44.38h-.11a4.07,4.07,0,0,1-3.14-1.72s0,0,0,0a4,4,0,0,0-1-1.2v0h0a2.62,2.62,0,0,0-1.53-.41l-.52,0a17.71,17.71,0,0,0-4.87,1.41,23.2,23.2,0,0,1-4.46,1.54,9.21,9.21,0,0,1-1.58.18,2.36,2.36,0,0,1-.9-.14,1.27,1.27,0,0,1-.54-.37,4.17,4.17,0,0,1-.42-2.09,11.39,11.39,0,0,1,.14-1.72,15.6,15.6,0,0,1,.7-2.9,9.92,9.92,0,0,1,3.3-3.92c1.48-1.19,3.2-2.23,4.59-3.25.79-.56,1.56-1.19,2.35-1.77a0,0,0,0,0,0,0,6.19,6.19,0,0,0,.75-.51v0a9.4,9.4,0,0,1,2.57-1.23,25.18,25.18,0,0,1,4.51-.35,24.17,24.17,0,0,0,8.26-2.41c.91-.4,1.77-.82,2.65-1.23a18.1,18.1,0,0,0,3.72-2.3,6,6,0,0,0,2.27-3.83c0-.26,0-.49,0-.75,0-1.25-.33-2.43-.33-3.36a2.27,2.27,0,0,1,.37-1.4v0a4,4,0,0,1,1.17-1,5.53,5.53,0,0,1,2.76-1.2l.21,0h0a3.45,3.45,0,0,1,1.74.86c.63.49,1.28,1.11,2.09,1.63,1.67,1,3.49,1.16,4.79,1.85a12.88,12.88,0,0,1,2.69,2.19q2.06,2,4.11,4a5.49,5.49,0,0,1,1.88,2.76l0,.37a23.22,23.22,0,0,1-.32,2.37v0l0,.3a4.17,4.17,0,0,0,.35,1.72,2.68,2.68,0,0,0,1.35,1.3v0l.12,0-.24.3a13.82,13.82,0,0,1-3.8,1.77,7.79,7.79,0,0,0-4,2.62c-.84,1.21-1.1,2.46-1.72,3.2Zm11-9.17-.09-.1-.63-.25v0h0a.77.77,0,0,1-.44-.46,2.2,2.2,0,0,1-.21-1l0-.16v0a25.39,25.39,0,0,0,.33-2.54l0-.6A7,7,0,0,0,159,102v0c-1.37-1.32-2.74-2.63-4.11-4a13.24,13.24,0,0,0-3.11-2.49c-1.72-.86-3.46-1-4.64-1.78a24,24,0,0,1-1.95-1.54,5.37,5.37,0,0,0-2.63-1.2l-.39,0a7,7,0,0,0-3.69,1.49h0a6.17,6.17,0,0,0-1.6,1.44,0,0,0,0,1,0,0,4.12,4.12,0,0,0-.65,2.35c0,1.23.32,2.41.32,3.36l0,.54a4.44,4.44,0,0,1-1.68,2.76,17.28,17.28,0,0,1-3.36,2c-.86.42-1.72.82-2.6,1.23a23,23,0,0,1-7.67,2.26,22.1,22.1,0,0,0-4.85.42,10.63,10.63,0,0,0-3.06,1.41v0l-.79.52,0,0c-.83.63-1.62,1.25-2.34,1.79h0c-1.33.95-3.07,2-4.67,3.29a11.66,11.66,0,0,0-3.81,4.62,15,15,0,0,0-.79,3.3,14,14,0,0,0-.16,2,5.5,5.5,0,0,0,.74,3.09,2.89,2.89,0,0,0,1.32,1,5,5,0,0,0,1.49.23,10.76,10.76,0,0,0,1.88-.21l.14,0a24.47,24.47,0,0,0,4.67-1.61,15.65,15.65,0,0,1,4.39-1.3h0l.33,0a1.11,1.11,0,0,1,.58.12,4.19,4.19,0,0,1,.58.79v0a5.74,5.74,0,0,0,4.55,2.46h.11c1.33,0,2.51-.39,3.44-.37a2.59,2.59,0,0,1,.95.16h0l.09.05a9.23,9.23,0,0,1,1.62,1.25h0a6.27,6.27,0,0,0,3.8,1.23c.31,0,.59,0,.89,0a6.13,6.13,0,0,0,1.74-.49l.14-.07a12.83,12.83,0,0,1,1.58-.79h0a4.91,4.91,0,0,1,1.21-.14l1.2,0a5.34,5.34,0,0,0,1.47-.16,8.35,8.35,0,0,0,3.46-2.28,52.6,52.6,0,0,1,7.52-5.87,8.82,8.82,0,0,0,2.14-1.69h0c.93-1.21,1.18-2.54,1.76-3.33a6.59,6.59,0,0,1,3.19-2,15.79,15.79,0,0,0,4.27-2,2.57,2.57,0,0,0,.67-.75,2.36,2.36,0,0,0,.33-1A1.48,1.48,0,0,0,162.49,110.88Zm-11,9.17a8.33,8.33,0,0,1-1.74,1.34h0a55.28,55.28,0,0,0-7.73,6l0,0a7.5,7.5,0,0,1-2.7,1.89h0a5.64,5.64,0,0,1-1,.09c-.37,0-.76,0-1.2,0a6.53,6.53,0,0,0-1.7.21l0,0a15.64,15.64,0,0,0-1.93.9,3.92,3.92,0,0,1-1.28.35,2.68,2.68,0,0,1-.65.05,4.61,4.61,0,0,1-2.78-.89,9.08,9.08,0,0,0-2-1.46l-.11,0,0,0a4.36,4.36,0,0,0-1.6-.28c-1.3,0-2.46.4-3.44.38h-.11a4.07,4.07,0,0,1-3.14-1.72s0,0,0,0a4,4,0,0,0-1-1.2v0h0a2.62,2.62,0,0,0-1.53-.41l-.52,0a17.71,17.71,0,0,0-4.87,1.41,23.2,23.2,0,0,1-4.46,1.54,9.21,9.21,0,0,1-1.58.18,2.36,2.36,0,0,1-.9-.14,1.27,1.27,0,0,1-.54-.37,4.17,4.17,0,0,1-.42-2.09,11.39,11.39,0,0,1,.14-1.72,15.6,15.6,0,0,1,.7-2.9,9.92,9.92,0,0,1,3.3-3.92c1.48-1.19,3.2-2.23,4.59-3.25.79-.56,1.56-1.19,2.35-1.77a0,0,0,0,0,0,0,6.19,6.19,0,0,0,.75-.51v0a9.4,9.4,0,0,1,2.57-1.23,25.18,25.18,0,0,1,4.51-.35,24.17,24.17,0,0,0,8.26-2.41c.91-.4,1.77-.82,2.65-1.23a18.1,18.1,0,0,0,3.72-2.3,6,6,0,0,0,2.27-3.83c0-.26,0-.49,0-.75,0-1.25-.33-2.43-.33-3.36a2.27,2.27,0,0,1,.37-1.4v0a4,4,0,0,1,1.17-1,5.53,5.53,0,0,1,2.76-1.2l.21,0h0a3.45,3.45,0,0,1,1.74.86c.63.49,1.28,1.11,2.09,1.63,1.67,1,3.49,1.16,4.79,1.85a12.88,12.88,0,0,1,2.69,2.19q2.06,2,4.11,4a5.49,5.49,0,0,1,1.88,2.76l0,.37a23.22,23.22,0,0,1-.32,2.37v0l0,.3a4.17,4.17,0,0,0,.35,1.72,2.68,2.68,0,0,0,1.35,1.3v0l.12,0-.24.3a13.82,13.82,0,0,1-3.8,1.77,7.79,7.79,0,0,0-4,2.62c-.84,1.21-1.1,2.46-1.72,3.2ZM104.28,180c-1.18-2.88-2.37-5.78-3.53-8.64a6.73,6.73,0,0,0,1.74-2.37v0a3.27,3.27,0,0,0,.23-1.28,3.63,3.63,0,0,0-.27-1.37,2.94,2.94,0,0,0,1.18-.83l0,0a2.27,2.27,0,0,0,.51-1.44,2.24,2.24,0,0,0-.27-1,1.71,1.71,0,0,0-.93-.77l-.1,0-.09,0-.25,0-.84-.07-.93,0a17.48,17.48,0,0,0-6.34,1.23,1.78,1.78,0,0,0-.86.7,1.85,1.85,0,0,0-.25.92,5.35,5.35,0,0,0,.23,1.19,5.28,5.28,0,0,1,.23.72v.09s0,0,0,.05a15.32,15.32,0,0,1,.2,1.69v.24h0v0l-.18.25a3.65,3.65,0,0,1-.56.47h-.12c-.14,0-.46-.07-1-.12H91.7c-.45,0-.89,0-1.35.07h0a5.46,5.46,0,0,0-3.93,1.84,10.18,10.18,0,0,0-1.23,3,2.55,2.55,0,0,1-.63,1,1.85,1.85,0,0,0-.55,1.3,1.9,1.9,0,0,0,.93,1.63v0a7.41,7.41,0,0,0,2.5,1,5.64,5.64,0,0,0,.93.09,4,4,0,0,0,3.67-2,18.47,18.47,0,0,0,.6-1.83,17.29,17.29,0,0,1,1.63-2.25v0a2.62,2.62,0,0,0,.35-.74l.21.91a10,10,0,0,1,.3,1.44V175c0,.23-.12.55-.16,1.11a5.37,5.37,0,0,1-1.3,1.49l0,0A5,5,0,0,0,92,180.05l-.07.55a2.71,2.71,0,0,0,.33,1.21c-.79.3-1.61.58-2.4.86l-1.71.58,1.55.95a6.85,6.85,0,0,0,3.69,1c.91,0,1.75-.09,2.65-.12h.07c1.23,0,2.62.77,4.51.82l.34,0a4.42,4.42,0,0,0,2.56-1,3.38,3.38,0,0,0,1.37-2.46v-.24A5.47,5.47,0,0,0,104.28,180Zm-1.14,2.32a1.71,1.71,0,0,1-.72,1.25,2.93,2.93,0,0,1-1.62.61l-.23,0c-1.28,0-2.67-.79-4.51-.81H95.9c-1,0-1.81.11-2.56.11-.23,0-.46,0-.69,0,.51-.16,1-.35,1.53-.53l3.6-1.33L94,181.28l-.21-.14-.16-.54,0-.18a3.45,3.45,0,0,1,1.16-1.56h0a6.36,6.36,0,0,0,1.79-2.25l.07-.14v-.16c0-.21.14-.65.16-1.32v-.19a12.77,12.77,0,0,0-.34-1.72v0a8.21,8.21,0,0,1-.31-2,5.38,5.38,0,0,1,.07-.78l0-.12,0-.33-.07-.81-.51,0,0-.44c0-.76-.21-1.51-.23-1.92v0l0-.09v-.05a6.21,6.21,0,0,0-.27-.95,1.7,1.7,0,0,1-.14-.68v0l0,0a15.52,15.52,0,0,1,5.71-1.12l.84,0,.83.07v0l0,.16-.12.35,0,0a2.52,2.52,0,0,1-1.53.63l-2.23.4,2,1.16a1.23,1.23,0,0,1,.51,1.11,2.09,2.09,0,0,1-.12.67v0a6.73,6.73,0,0,1-1.74,2.13l-.44.4.21.53c1.28,3.07,2.53,6.13,3.78,9.2a4,4,0,0,1,.42,1.55Zm-12.07-7.36c-.3.74-.35,1.37-.56,1.72a2.38,2.38,0,0,1-2.16,1.09l-.63-.07-.2-.05a6.47,6.47,0,0,1-1.72-.76l0,0-.07-.14v-.07a4.19,4.19,0,0,0,1-1.62,10.39,10.39,0,0,1,1-2.58,4,4,0,0,1,2.77-1.21h0c.42,0,.79,0,1.19,0h.39a9.68,9.68,0,0,0,1,.11,1.84,1.84,0,0,1-.28,1.12,16.41,16.41,0,0,0-1.76,2.51Zm13.21,5c-1.18-2.88-2.37-5.78-3.53-8.64a6.73,6.73,0,0,0,1.74-2.37v0a3.27,3.27,0,0,0,.23-1.28,3.63,3.63,0,0,0-.27-1.37,2.94,2.94,0,0,0,1.18-.83l0,0a2.27,2.27,0,0,0,.51-1.44,2.24,2.24,0,0,0-.27-1,1.71,1.71,0,0,0-.93-.77l-.1,0-.09,0-.25,0-.84-.07-.93,0a17.48,17.48,0,0,0-6.34,1.23,1.78,1.78,0,0,0-.86.7,1.85,1.85,0,0,0-.25.92,5.35,5.35,0,0,0,.23,1.19,5.28,5.28,0,0,1,.23.72v.09s0,0,0,.05a15.32,15.32,0,0,1,.2,1.69v.24h0v0l-.18.25a3.65,3.65,0,0,1-.56.47h-.12c-.14,0-.46-.07-1-.12H91.7c-.45,0-.89,0-1.35.07h0a5.46,5.46,0,0,0-3.93,1.84,10.18,10.18,0,0,0-1.23,3,2.55,2.55,0,0,1-.63,1,1.85,1.85,0,0,0-.55,1.3,1.9,1.9,0,0,0,.93,1.63v0a7.41,7.41,0,0,0,2.5,1,5.64,5.64,0,0,0,.93.09,4,4,0,0,0,3.67-2,18.47,18.47,0,0,0,.6-1.83,17.29,17.29,0,0,1,1.63-2.25v0a2.62,2.62,0,0,0,.35-.74l.21.91a10,10,0,0,1,.3,1.44V175c0,.23-.12.55-.16,1.11a5.37,5.37,0,0,1-1.3,1.49l0,0A5,5,0,0,0,92,180.05l-.07.55a2.71,2.71,0,0,0,.33,1.21c-.79.3-1.61.58-2.4.86l-1.71.58,1.55.95a6.85,6.85,0,0,0,3.69,1c.91,0,1.75-.09,2.65-.12h.07c1.23,0,2.62.77,4.51.82l.34,0a4.42,4.42,0,0,0,2.56-1,3.38,3.38,0,0,0,1.37-2.46v-.24A5.47,5.47,0,0,0,104.28,180Zm-1.14,2.32a1.71,1.71,0,0,1-.72,1.25,2.93,2.93,0,0,1-1.62.61l-.23,0c-1.28,0-2.67-.79-4.51-.81H95.9c-1,0-1.81.11-2.56.11-.23,0-.46,0-.69,0,.51-.16,1-.35,1.53-.53l3.6-1.33L94,181.28l-.21-.14-.16-.54,0-.18a3.45,3.45,0,0,1,1.16-1.56h0a6.36,6.36,0,0,0,1.79-2.25l.07-.14v-.16c0-.21.14-.65.16-1.32v-.19a12.77,12.77,0,0,0-.34-1.72v0a8.21,8.21,0,0,1-.31-2,5.38,5.38,0,0,1,.07-.78l0-.12,0-.33-.07-.81-.51,0,0-.44c0-.76-.21-1.51-.23-1.92v0l0-.09v-.05a6.21,6.21,0,0,0-.27-.95,1.7,1.7,0,0,1-.14-.68v0l0,0a15.52,15.52,0,0,1,5.71-1.12l.84,0,.83.07v0l0,.16-.12.35,0,0a2.52,2.52,0,0,1-1.53.63l-2.23.4,2,1.16a1.23,1.23,0,0,1,.51,1.11,2.09,2.09,0,0,1-.12.67v0a6.73,6.73,0,0,1-1.74,2.13l-.44.4.21.53c1.28,3.07,2.53,6.13,3.78,9.2a4,4,0,0,1,.42,1.55Zm-12.07-7.36c-.3.74-.35,1.37-.56,1.72a2.38,2.38,0,0,1-2.16,1.09l-.63-.07-.2-.05a6.47,6.47,0,0,1-1.72-.76l0,0-.07-.14v-.07a4.19,4.19,0,0,0,1-1.62,10.39,10.39,0,0,1,1-2.58,4,4,0,0,1,2.77-1.21h0c.42,0,.79,0,1.19,0h.39a9.68,9.68,0,0,0,1,.11,1.84,1.84,0,0,1-.28,1.12,16.41,16.41,0,0,0-1.76,2.51Zm71.42-64.06-.09-.1-.63-.25v0h0a.77.77,0,0,1-.44-.46,2.2,2.2,0,0,1-.21-1l0-.16v0a25.39,25.39,0,0,0,.33-2.54l0-.6A7,7,0,0,0,159,102v0c-1.37-1.32-2.74-2.63-4.11-4a13.24,13.24,0,0,0-3.11-2.49c-1.72-.86-3.46-1-4.64-1.78a24,24,0,0,1-1.95-1.54,5.37,5.37,0,0,0-2.63-1.2l-.39,0a7,7,0,0,0-3.69,1.49h0a6.17,6.17,0,0,0-1.6,1.44,0,0,0,0,1,0,0,4.12,4.12,0,0,0-.65,2.35c0,1.23.32,2.41.32,3.36l0,.54a4.44,4.44,0,0,1-1.68,2.76,17.28,17.28,0,0,1-3.36,2c-.86.42-1.72.82-2.6,1.23a23,23,0,0,1-7.67,2.26,22.1,22.1,0,0,0-4.85.42,10.63,10.63,0,0,0-3.06,1.41v0l-.79.52,0,0c-.83.63-1.62,1.25-2.34,1.79h0c-1.33.95-3.07,2-4.67,3.29a11.66,11.66,0,0,0-3.81,4.62,15,15,0,0,0-.79,3.3,14,14,0,0,0-.16,2,5.5,5.5,0,0,0,.74,3.09,2.89,2.89,0,0,0,1.32,1,5,5,0,0,0,1.49.23,10.76,10.76,0,0,0,1.88-.21l.14,0a24.47,24.47,0,0,0,4.67-1.61,15.65,15.65,0,0,1,4.39-1.3h0l.33,0a1.11,1.11,0,0,1,.58.12,4.19,4.19,0,0,1,.58.79v0a5.74,5.74,0,0,0,4.55,2.46h.11c1.33,0,2.51-.39,3.44-.37a2.59,2.59,0,0,1,.95.16h0l.09.05a9.23,9.23,0,0,1,1.62,1.25h0a6.27,6.27,0,0,0,3.8,1.23c.31,0,.59,0,.89,0a6.13,6.13,0,0,0,1.74-.49l.14-.07a12.83,12.83,0,0,1,1.58-.79h0a4.91,4.91,0,0,1,1.21-.14l1.2,0a5.34,5.34,0,0,0,1.47-.16,8.35,8.35,0,0,0,3.46-2.28,52.6,52.6,0,0,1,7.52-5.87,8.82,8.82,0,0,0,2.14-1.69h0c.93-1.21,1.18-2.54,1.76-3.33a6.59,6.59,0,0,1,3.19-2,15.79,15.79,0,0,0,4.27-2,2.57,2.57,0,0,0,.67-.75,2.36,2.36,0,0,0,.33-1A1.48,1.48,0,0,0,162.49,110.88Zm-11,9.17a8.33,8.33,0,0,1-1.74,1.34h0a55.28,55.28,0,0,0-7.73,6l0,0a7.5,7.5,0,0,1-2.7,1.89h0a5.64,5.64,0,0,1-1,.09c-.37,0-.76,0-1.2,0a6.53,6.53,0,0,0-1.7.21l0,0a15.64,15.64,0,0,0-1.93.9,3.92,3.92,0,0,1-1.28.35,2.68,2.68,0,0,1-.65.05,4.61,4.61,0,0,1-2.78-.89,9.08,9.08,0,0,0-2-1.46l-.11,0,0,0a4.36,4.36,0,0,0-1.6-.28c-1.3,0-2.46.4-3.44.38h-.11a4.07,4.07,0,0,1-3.14-1.72s0,0,0,0a4,4,0,0,0-1-1.2v0h0a2.62,2.62,0,0,0-1.53-.41l-.52,0a17.71,17.71,0,0,0-4.87,1.41,23.2,23.2,0,0,1-4.46,1.54,9.21,9.21,0,0,1-1.58.18,2.36,2.36,0,0,1-.9-.14,1.27,1.27,0,0,1-.54-.37,4.17,4.17,0,0,1-.42-2.09,11.39,11.39,0,0,1,.14-1.72,15.6,15.6,0,0,1,.7-2.9,9.92,9.92,0,0,1,3.3-3.92c1.48-1.19,3.2-2.23,4.59-3.25.79-.56,1.56-1.19,2.35-1.77a0,0,0,0,0,0,0,6.19,6.19,0,0,0,.75-.51v0a9.4,9.4,0,0,1,2.57-1.23,25.18,25.18,0,0,1,4.51-.35,24.17,24.17,0,0,0,8.26-2.41c.91-.4,1.77-.82,2.65-1.23a18.1,18.1,0,0,0,3.72-2.3,6,6,0,0,0,2.27-3.83c0-.26,0-.49,0-.75,0-1.25-.33-2.43-.33-3.36a2.27,2.27,0,0,1,.37-1.4v0a4,4,0,0,1,1.17-1,5.53,5.53,0,0,1,2.76-1.2l.21,0h0a3.45,3.45,0,0,1,1.74.86c.63.49,1.28,1.11,2.09,1.63,1.67,1,3.49,1.16,4.79,1.85a12.88,12.88,0,0,1,2.69,2.19q2.06,2,4.11,4a5.49,5.49,0,0,1,1.88,2.76l0,.37a23.22,23.22,0,0,1-.32,2.37v0l0,.3a4.17,4.17,0,0,0,.35,1.72,2.68,2.68,0,0,0,1.35,1.3v0l.12,0-.24.3a13.82,13.82,0,0,1-3.8,1.77,7.79,7.79,0,0,0-4,2.62c-.84,1.21-1.1,2.46-1.72,3.2Zm11-9.17-.09-.1-.63-.25v0h0a.77.77,0,0,1-.44-.46,2.2,2.2,0,0,1-.21-1l0-.16v0a25.39,25.39,0,0,0,.33-2.54l0-.6A7,7,0,0,0,159,102v0c-1.37-1.32-2.74-2.63-4.11-4a13.24,13.24,0,0,0-3.11-2.49c-1.72-.86-3.46-1-4.64-1.78a24,24,0,0,1-1.95-1.54,5.37,5.37,0,0,0-2.63-1.2l-.39,0a7,7,0,0,0-3.69,1.49h0a6.17,6.17,0,0,0-1.6,1.44,0,0,0,0,1,0,0,4.12,4.12,0,0,0-.65,2.35c0,1.23.32,2.41.32,3.36l0,.54a4.44,4.44,0,0,1-1.68,2.76,17.28,17.28,0,0,1-3.36,2c-.86.42-1.72.82-2.6,1.23a23,23,0,0,1-7.67,2.26,22.1,22.1,0,0,0-4.85.42,10.63,10.63,0,0,0-3.06,1.41v0l-.79.52,0,0c-.83.63-1.62,1.25-2.34,1.79h0c-1.33.95-3.07,2-4.67,3.29a11.66,11.66,0,0,0-3.81,4.62,15,15,0,0,0-.79,3.3,14,14,0,0,0-.16,2,5.5,5.5,0,0,0,.74,3.09,2.89,2.89,0,0,0,1.32,1,5,5,0,0,0,1.49.23,10.76,10.76,0,0,0,1.88-.21l.14,0a24.47,24.47,0,0,0,4.67-1.61,15.65,15.65,0,0,1,4.39-1.3h0l.33,0a1.11,1.11,0,0,1,.58.12,4.19,4.19,0,0,1,.58.79v0a5.74,5.74,0,0,0,4.55,2.46h.11c1.33,0,2.51-.39,3.44-.37a2.59,2.59,0,0,1,.95.16h0l.09.05a9.23,9.23,0,0,1,1.62,1.25h0a6.27,6.27,0,0,0,3.8,1.23c.31,0,.59,0,.89,0a6.13,6.13,0,0,0,1.74-.49l.14-.07a12.83,12.83,0,0,1,1.58-.79h0a4.91,4.91,0,0,1,1.21-.14l1.2,0a5.34,5.34,0,0,0,1.47-.16,8.35,8.35,0,0,0,3.46-2.28,52.6,52.6,0,0,1,7.52-5.87,8.82,8.82,0,0,0,2.14-1.69h0c.93-1.21,1.18-2.54,1.76-3.33a6.59,6.59,0,0,1,3.19-2,15.79,15.79,0,0,0,4.27-2,2.57,2.57,0,0,0,.67-.75,2.36,2.36,0,0,0,.33-1A1.48,1.48,0,0,0,162.49,110.88Zm-11,9.17a8.33,8.33,0,0,1-1.74,1.34h0a55.28,55.28,0,0,0-7.73,6l0,0a7.5,7.5,0,0,1-2.7,1.89h0a5.64,5.64,0,0,1-1,.09c-.37,0-.76,0-1.2,0a6.53,6.53,0,0,0-1.7.21l0,0a15.64,15.64,0,0,0-1.93.9,3.92,3.92,0,0,1-1.28.35,2.68,2.68,0,0,1-.65.05,4.61,4.61,0,0,1-2.78-.89,9.08,9.08,0,0,0-2-1.46l-.11,0,0,0a4.36,4.36,0,0,0-1.6-.28c-1.3,0-2.46.4-3.44.38h-.11a4.07,4.07,0,0,1-3.14-1.72s0,0,0,0a4,4,0,0,0-1-1.2v0h0a2.62,2.62,0,0,0-1.53-.41l-.52,0a17.71,17.71,0,0,0-4.87,1.41,23.2,23.2,0,0,1-4.46,1.54,9.21,9.21,0,0,1-1.58.18,2.36,2.36,0,0,1-.9-.14,1.27,1.27,0,0,1-.54-.37,4.17,4.17,0,0,1-.42-2.09,11.39,11.39,0,0,1,.14-1.72,15.6,15.6,0,0,1,.7-2.9,9.92,9.92,0,0,1,3.3-3.92c1.48-1.19,3.2-2.23,4.59-3.25.79-.56,1.56-1.19,2.35-1.77a0,0,0,0,0,0,0,6.19,6.19,0,0,0,.75-.51v0a9.4,9.4,0,0,1,2.57-1.23,25.18,25.18,0,0,1,4.51-.35,24.17,24.17,0,0,0,8.26-2.41c.91-.4,1.77-.82,2.65-1.23a18.1,18.1,0,0,0,3.72-2.3,6,6,0,0,0,2.27-3.83c0-.26,0-.49,0-.75,0-1.25-.33-2.43-.33-3.36a2.27,2.27,0,0,1,.37-1.4v0a4,4,0,0,1,1.17-1,5.53,5.53,0,0,1,2.76-1.2l.21,0h0a3.45,3.45,0,0,1,1.74.86c.63.49,1.28,1.11,2.09,1.63,1.67,1,3.49,1.16,4.79,1.85a12.88,12.88,0,0,1,2.69,2.19q2.06,2,4.11,4a5.49,5.49,0,0,1,1.88,2.76l0,.37a23.22,23.22,0,0,1-.32,2.37v0l0,.3a4.17,4.17,0,0,0,.35,1.72,2.68,2.68,0,0,0,1.35,1.3v0l.12,0-.24.3a13.82,13.82,0,0,1-3.8,1.77,7.79,7.79,0,0,0-4,2.62c-.84,1.21-1.1,2.46-1.72,3.2Zm-50.74,51.29a6.73,6.73,0,0,0,1.74-2.37v0a3.27,3.27,0,0,0,.23-1.28,3.63,3.63,0,0,0-.27-1.37,2.94,2.94,0,0,0,1.18-.83l0,0a2.27,2.27,0,0,0,.51-1.44,2.24,2.24,0,0,0-.27-1,1.71,1.71,0,0,0-.93-.77l-.1,0-.09,0-.25,0-.84-.07-.93,0a17.48,17.48,0,0,0-6.34,1.23,1.78,1.78,0,0,0-.86.7,1.85,1.85,0,0,0-.25.92,5.35,5.35,0,0,0,.23,1.19,5.28,5.28,0,0,1,.23.72v.09s0,0,0,.05a15.32,15.32,0,0,1,.2,1.69v.24h0v0l-.18.25a3.65,3.65,0,0,1-.56.47h-.12c-.14,0-.46-.07-1-.12H91.7c-.45,0-.89,0-1.35.07h0a5.46,5.46,0,0,0-3.93,1.84,10.18,10.18,0,0,0-1.23,3,2.55,2.55,0,0,1-.63,1,1.85,1.85,0,0,0-.55,1.3,1.9,1.9,0,0,0,.93,1.63v0a7.41,7.41,0,0,0,2.5,1,5.64,5.64,0,0,0,.93.09,4,4,0,0,0,3.67-2,18.47,18.47,0,0,0,.6-1.83,17.29,17.29,0,0,1,1.63-2.25v0a2.62,2.62,0,0,0,.35-.74l.21.91a10,10,0,0,1,.3,1.44V175c0,.23-.12.55-.16,1.11a5.37,5.37,0,0,1-1.3,1.49l0,0A5,5,0,0,0,92,180.05l-.07.55a2.71,2.71,0,0,0,.33,1.21c-.79.3-1.61.58-2.4.86l-1.71.58,1.55.95a6.85,6.85,0,0,0,3.69,1c.91,0,1.75-.09,2.65-.12h.07c1.23,0,2.62.77,4.51.82l.34,0a4.42,4.42,0,0,0,2.56-1,3.38,3.38,0,0,0,1.37-2.46v-.24a5.47,5.47,0,0,0-.56-2.2C103.1,177.1,101.91,174.2,100.75,171.34Zm2.39,11a1.71,1.71,0,0,1-.72,1.25,2.93,2.93,0,0,1-1.62.61l-.23,0c-1.28,0-2.67-.79-4.51-.81H95.9c-1,0-1.81.11-2.56.11-.23,0-.46,0-.69,0,.51-.16,1-.35,1.53-.53l3.6-1.33L94,181.28l-.21-.14-.16-.54,0-.18a3.45,3.45,0,0,1,1.16-1.56h0a6.36,6.36,0,0,0,1.79-2.25l.07-.14v-.16c0-.21.14-.65.16-1.32v-.19a12.77,12.77,0,0,0-.34-1.72v0a8.21,8.21,0,0,1-.31-2,5.38,5.38,0,0,1,.07-.78l0-.12,0-.33-.07-.81-.51,0,0-.44c0-.76-.21-1.51-.23-1.92v0l0-.09v-.05a6.21,6.21,0,0,0-.27-.95,1.7,1.7,0,0,1-.14-.68v0l0,0a15.52,15.52,0,0,1,5.71-1.12l.84,0,.83.07v0l0,.16-.12.35,0,0a2.52,2.52,0,0,1-1.53.63l-2.23.4,2,1.16a1.23,1.23,0,0,1,.51,1.11,2.09,2.09,0,0,1-.12.67v0a6.73,6.73,0,0,1-1.74,2.13l-.44.4.21.53c1.28,3.07,2.53,6.13,3.78,9.2a4,4,0,0,1,.42,1.55Zm-12.07-7.36c-.3.74-.35,1.37-.56,1.72a2.38,2.38,0,0,1-2.16,1.09l-.63-.07-.2-.05a6.47,6.47,0,0,1-1.72-.76l0,0-.07-.14v-.07a4.19,4.19,0,0,0,1-1.62,10.39,10.39,0,0,1,1-2.58,4,4,0,0,1,2.77-1.21h0c.42,0,.79,0,1.19,0h.39a9.68,9.68,0,0,0,1,.11,1.84,1.84,0,0,1-.28,1.12,16.41,16.41,0,0,0-1.76,2.51Zm213.58-50.09c-.77-4.27-1.72-8.47-2.84-12.63v0c-.83-3.12-1.76-6.18-2.78-9.2-1.35-4-2.88-8-4.56-11.89-1.09-2.53-2.25-5-3.45-7.45a155.26,155.26,0,0,0-99.73-81L191,2.55A156.13,156.13,0,0,0,152.39-2.3c-.76,0-1.51,0-2.27,0a154.1,154.1,0,0,0-103,41.36c-.72.67-1.44,1.35-2.13,2s-1.3,1.25-1.93,1.93l2.32-1.19c7.27-3.64,14.79-7.1,22-11.07,5.16-2.86,11.12-5.14,17-5.14a19.17,19.17,0,0,1,3.28.26c7.56,1.14,13.93,6.69,21.36,10,6.38,2.86,13.3,3.88,20.06,4.88a70.32,70.32,0,0,0,10.4,1,25.48,25.48,0,0,0,8.2-1.21,39.4,39.4,0,0,0,5.5-2.65,11,11,0,0,1,4.9-1.58,5.6,5.6,0,0,1,3.79,1.58c1.88,1.6,3.06,4,4.25,6.34a3.64,3.64,0,0,1,.41,1.35c0,.23,0,.3-.14.39s-.37.16-.95.14h-.14a4.47,4.47,0,0,0-.79.05,3.7,3.7,0,0,0-2.43,1.37A4.91,4.91,0,0,0,161,50.09a5,5,0,0,0,0,.65,9.19,9.19,0,0,0,1.23,4.15c1,1.74,2.09,3.6,2.09,5v0a2.87,2.87,0,0,1-.51,1.62,3.45,3.45,0,0,1-2.07,1.3,13.34,13.34,0,0,1-3.29.4c-5.46,0-10.89-3.09-17.09-3.11H141a14.88,14.88,0,0,0-7.8,2.32A9.81,9.81,0,0,0,128.68,69a37.82,37.82,0,0,0-.2,4.13,5,5,0,0,1-1,3.11c-.79,1-2.39,1.58-4,2.23a10.19,10.19,0,0,0-2.32,1.25,4,4,0,0,0-1.51,2.35,5.51,5.51,0,0,0-.07.79,7.6,7.6,0,0,0,1,3.23,6.1,6.1,0,0,1,.79,2.53,2.23,2.23,0,0,1-.35,1.23v0a3.74,3.74,0,0,1-2.79,1.65l-.58,0a6.05,6.05,0,0,1-1.32-.14,22.3,22.3,0,0,1-4.46-1.67v0a9.83,9.83,0,0,0-1.16-.49,10,10,0,0,0-2.6-.75l0,0-.52,0c-.23,0-.48,0-.74,0l-.3,0h0l-.31,0-.16,0h0l-.19,0h-.05a6.08,6.08,0,0,0-.72.24l0,0a2.7,2.7,0,0,0-.74.37h0l-.39.28,0,0-.63.51,0,0-.42.51h0a5,5,0,0,0-.74,1.18v0l-.21.55a3.12,3.12,0,0,0-.21.93v0l-.14.48h0l-.13.23-.17.21-.21.17-.16.09-.28.09h0l-.19,0-.14,0a11.52,11.52,0,0,1-7.47-4.25l-.05-.07-.14-.23-.07-.21-.07-.39a1.2,1.2,0,0,1,.3-.79v0h0a7,7,0,0,0,.53-.85v0l.21-.39v0l.19-.41,0,0a5.22,5.22,0,0,0,.25-.88s0,0,0-.05h0a7,7,0,0,0,.17-1v0c0-.21,0-.42,0-.69s0-.49,0-.72v0l0-.28v0a5.38,5.38,0,0,0-.25-1.23v0l-.12-.4,0-.07v0l-.17-.44,0,0a4,4,0,0,0-.35-.72v0l-.21-.37v0h0a6,6,0,0,0-1-1.3l-.27-.27v0l-.33-.28h0l-.51-.39,0,0-.41-.25-.4-.24,0,0h0a5.17,5.17,0,0,0-.85-.42,9.93,9.93,0,0,0-2.49-.72v0a14.21,14.21,0,0,0-2-.14,14.41,14.41,0,0,0-5.78,1.23c-3.93,1.74-6.94,4.76-9.85,7.64-2.16,2.18-4.5,4.53-5.64,7.66a9.54,9.54,0,0,0-.53,3.14,8.33,8.33,0,0,0,1,4.11A3.36,3.36,0,0,0,66.62,101a3.24,3.24,0,0,0,1.44-.34l.25-.12A35,35,0,0,1,81.85,97.2h.05a1.86,1.86,0,0,1,1.25.51,1.69,1.69,0,0,1,.51,1.18l-.09.51a8.46,8.46,0,0,1-2.39,3.46c-1.88,1.75-4.39,3.09-6.18,5.41a7.79,7.79,0,0,0-1.53,4.53,5.51,5.51,0,0,0,.37,2v0a2.12,2.12,0,0,1,.16.86,2.88,2.88,0,0,1-.76,1.93L63.3,128.89c-3.79,4.28-7.92,8.71-12.89,10.57l-.12,0-.2-.09-.1-.23,0-.17,1.74-2.64c1.72-2.72,3.6-5.65,4.06-9.1a9.6,9.6,0,0,0,.07-1.21,9.42,9.42,0,0,0-1.37-5,3.75,3.75,0,0,0-3.22-1.79,3.86,3.86,0,0,0-3,1.48,15.1,15.1,0,0,0-2.41,4.53l-.28.21-.28-.21L42,113.43l-.58-.3-.3-.14-.35.09-.33.07A1.24,1.24,0,0,1,39.24,112a6.74,6.74,0,0,0-2.32-4c-2-1.67-4.46-2.32-6.36-3.46a10.2,10.2,0,0,1-5-6.59,3.13,3.13,0,0,0-3-2.49l-.35,0-1,.11h0l0-.07,0,0a35.61,35.61,0,0,0,12.65-27,32,32,0,0,0-.21-3.67,2,2,0,0,0-.69-1.3,2.14,2.14,0,0,0-1.33-.47,1.85,1.85,0,0,0-1.44.63q-7,7.49-13.35,15.63c-1.3,1.67-2.32,3.51-3.41,5.2-.63,1.28-1.23,2.58-1.84,3.88A154,154,0,0,0-2.18,146.42c-.07,2-.12,4-.12,6A154.28,154.28,0,0,0,68.78,282.54a10.72,10.72,0,0,0,3.55,2.21l0,0A152.35,152.35,0,0,0,110.5,301.3a3.59,3.59,0,0,0,.68.21c.37.12.76.23,1.16.33.62.16,1.25.32,1.9.46L112,300.47a.72.72,0,0,1-.28-.56.74.74,0,0,1,.38-.65,2.56,2.56,0,0,0,1.2-2.16,2.61,2.61,0,0,0-1.18-2.18c-4.78-3-9.66-6-15.14-7.74-2.93-.95-5.92-1.48-8.78-2.27-1.6-.47-3.2-1-4.76-1.58l-.16-.05h-.05c-.79-.32-1.55-.62-2.3-1A56.27,56.27,0,0,1,71.49,277c-1.46-1-2.9-2.16-4.27-3.32-.7-.6-1.37-1.21-2-1.83l-.28-.28a53.6,53.6,0,0,1-12.54-18,4.45,4.45,0,0,1-.51-1.77l0-.23v0a2.2,2.2,0,0,1,.76-1.23,25.94,25.94,0,0,1,2.63-1.84,6.59,6.59,0,0,0,1.34-1.2,3.38,3.38,0,0,0,.77-1.82l0-.41c0-.7-.14-1.3-.14-1.7a1,1,0,0,1,.12-.53v0a2.34,2.34,0,0,1,1-.58c2.9-1.11,5.85-2.25,8.76-3.39a7.59,7.59,0,0,1,2.5-.65,2.15,2.15,0,0,1,.68.1,7.82,7.82,0,0,1,2.23,1.34,5.09,5.09,0,0,0,2.87,1.28,2.69,2.69,0,0,0,1.24-.3l.53-.28-.09-.6,0-.33a2.93,2.93,0,0,1,1.42-2.27,7.52,7.52,0,0,1,3.3-1.24c1.13-.16,2.39-.25,3.64-.46A8.11,8.11,0,0,0,89.05,234l.09,0,0,0c2.81,3.16,7,4.85,11.06,5.48a35.13,35.13,0,0,0,5.87.42c2.42,0,4.83-.16,7.2-.23l1.49,0a13.29,13.29,0,0,1,5,.79,6.83,6.83,0,0,1,2.51,1.81,4.27,4.27,0,0,1,1,2.63v.09c0,1.28-.69,2.69-1.23,4.3a3.9,3.9,0,0,0-.25,1.34,2.23,2.23,0,0,0,.37,1.28h0a3.46,3.46,0,0,0,1.32,1l16.67,8.34a3.79,3.79,0,0,0,1.56.37,3.53,3.53,0,0,0,3-1.63l0,0a5.2,5.2,0,0,1,4.18-2.07l.53.05c2.72.3,5.2,2.18,8.22,3.3a15.76,15.76,0,0,0,5.34.93,13.94,13.94,0,0,0,1.72-.1c2.55-.3,4.41-1.44,6.45-1.9h.05a9,9,0,0,0,2.37-.81h0a8.79,8.79,0,0,0,1-.7l.77-.58-.68-.67a10.56,10.56,0,0,1-1.81-2.49l0,0s0,0,0-.07a8.34,8.34,0,0,1-.65-1.63,5.75,5.75,0,0,1-.21-1.44,4.69,4.69,0,0,1,.3-1.6v0l0,0a5,5,0,0,1,.23-.62s0,0,0,0l.07-.16c.14-.23.28-.44.4-.65a0,0,0,0,0,0,0l.3-.44,0,0a8.08,8.08,0,0,1,.6-.81v0c.56-.7,1.09-1.37,1.6-2.09a9.12,9.12,0,0,0,1.58-3.58l.05-.53a3.26,3.26,0,0,0-3.28-3.19,4.73,4.73,0,0,0-.72.07,43.73,43.73,0,0,1-5.45.93h0a20.17,20.17,0,0,1-2.46.14,18.07,18.07,0,0,1-5.9-.95h0l-.14-.05-.42-.14s0,0,0,0a10.61,10.61,0,0,1-5.06-4.29,4.09,4.09,0,0,1-.7-2.05v0l0,0a3.07,3.07,0,0,1,1.16-2.27,6.77,6.77,0,0,1,2.74-1.42,14.56,14.56,0,0,1,3.9-.46c3.62,0,7.47,1,11.42,1.18.26,0,.54,0,.79,0a16.2,16.2,0,0,0,7.83-2,8.31,8.31,0,0,0,4.43-6.22l.07-.65-19.25-7.25a7.43,7.43,0,0,0-2.78-.58,5.2,5.2,0,0,0-1,.09h0a5.28,5.28,0,0,0-3.48,2,14.61,14.61,0,0,0-2.3,5.46,22.16,22.16,0,0,1-1.88,5.43v0a7.6,7.6,0,0,1-4.25,3.21,7.89,7.89,0,0,1-2.49.34,15.3,15.3,0,0,0-2.88.26H145v0a1.75,1.75,0,0,0-.59.19,1.33,1.33,0,0,0-.62.72l-.07.42a1.64,1.64,0,0,0,.35,1c1.18,1.78,2.32,3.59,3.5,5.41,0,0,0,0,0,0a2.75,2.75,0,0,1,.25.49l0,.14c0,.19-.07.51-.07.93l0,.42h0v0a3.73,3.73,0,0,0,.74,1.46,1.49,1.49,0,0,1,.35.65v0c0,.07-.07.13-.3.23a3,3,0,0,1-1.07.21h0c-.42,0-.81,0-1.23,0a5.24,5.24,0,0,1-2.93-.67h0a9.34,9.34,0,0,1-1.63-1.83c-.62-.79-1.27-1.47-1.83-2.19h0a36.57,36.57,0,0,1-2.46-3.55c-.84-1.25-1.75-2.72-1.75-3.92v-.05l0-.07c0-.7.35-1.42.37-2.55l0-.61c-.46-3.16-2.62-6.24-4.57-8.47a36.09,36.09,0,0,0-3.16-3.11,16.17,16.17,0,0,0-2.25-1.65,5.07,5.07,0,0,0-2.35-.82,2,2,0,0,0-1.53.68,2.34,2.34,0,0,0-.56,1.53,5.37,5.37,0,0,0,1,2.67c2.19,3.16,4.49,6.52,7.92,8.71a8.45,8.45,0,0,1,1.4,1,1.34,1.34,0,0,1,.48.88v.09a1.71,1.71,0,0,1-.35.72,11.68,11.68,0,0,0-.83,1.12,7.5,7.5,0,0,0-.7,1.69,3.46,3.46,0,0,1-.58,1.16,3,3,0,0,1-2.34.77,7.61,7.61,0,0,1-1.05-.07h0l-.56,0a1.85,1.85,0,0,0-1.9,1.23,5,5,0,0,0-.26,1c-.07.26-.14.31-.14.31v0l-.09,0-.51-.18a9.89,9.89,0,0,0-1.49-1,7.12,7.12,0,0,0-1.25-.39,2.23,2.23,0,0,1-1.46-1.9v-.14L119,231l.16-.17.1,0a2.61,2.61,0,0,1,.79.25l0,0a6.78,6.78,0,0,0,2.3.49,5.64,5.64,0,0,0,.79-.07h0a3.56,3.56,0,0,0,1.56-.82,2.5,2.5,0,0,0,.9-1.6v0l0-.4a6.54,6.54,0,0,0-1-2.88c-.49-.88-1-1.71-1.25-2.2a9.23,9.23,0,0,0-2.46-2.93c-1-.81-1.91-1.53-2.63-2.25s-1.62-2.11-2.53-3.27a7.7,7.7,0,0,0-3.64-2.81,5.35,5.35,0,0,0-1.49-.19c-1.9,0-3.86.74-5.2.79h-.7c-1.44,0-2.9-.19-4.43-.19a9.68,9.68,0,0,0-4.69,1.05A19.7,19.7,0,0,0,92,216.43a10.24,10.24,0,0,1-3.32,2.09,6,6,0,0,1-1.93.3,13,13,0,0,1-5.06-1.32,18.94,18.94,0,0,1-6.27-4.41,9.71,9.71,0,0,1-2.72-6.46l0-.34a6.24,6.24,0,0,1,6-6.06h.06a3.89,3.89,0,0,1,2.42.69,13.88,13.88,0,0,1,2.46,2.83,6,6,0,0,0,3.88,2.54h0a4.37,4.37,0,0,0,.93.09,6,6,0,0,0,5.18-3.09,5.31,5.31,0,0,0,.74-2.62,8,8,0,0,0-1.37-4,6.31,6.31,0,0,1-1.16-3,2.65,2.65,0,0,1,.23-1.07v0a3.28,3.28,0,0,1,2.07-1.81,6.17,6.17,0,0,1,2.34-.4c2.26,0,4.67.86,7.3.88a8.23,8.23,0,0,0,1.81-.18,17.4,17.4,0,0,0,5-2.26,9.24,9.24,0,0,1,4.2-1.53,4.21,4.21,0,0,1,1,.14l0,0a8.76,8.76,0,0,1,2,.91,6.68,6.68,0,0,0,2.46.93l.56,0a4.08,4.08,0,0,0,2.69-1,7.71,7.71,0,0,0,2.19-3.71,15.28,15.28,0,0,0,.6-4.13,1.24,1.24,0,0,1,.53.34,2.48,2.48,0,0,1,.68,1.07c.34,1,.21,2.39.74,3.88a5,5,0,0,0,2.37,2.69,7.17,7.17,0,0,0,3.48.82,10.12,10.12,0,0,0,5.81-1.84c3.46-2.51,5.66-6.15,8.94-7.94.92-.51,2-.93,3.06-1.56a2.16,2.16,0,0,0-.67-4l-5.58-1.11a66.21,66.21,0,0,0,6.37-11.5,7.38,7.38,0,0,0,.62-2.71,2.79,2.79,0,0,0-1-2.37,3.15,3.15,0,0,0-2.09-.65l-.58,0a8.5,8.5,0,0,0-6.06,4,17.35,17.35,0,0,0-2.65,7.06c-.7,4.76-.53,9.66-3,13.26a5.1,5.1,0,0,1-1.27,1.41,2.56,2.56,0,0,1-1.58.54,2.92,2.92,0,0,1-.89-.12,4.3,4.3,0,0,1-2.39-1.95v0a8.14,8.14,0,0,1-.83-3.88,27.5,27.5,0,0,1,.21-3.09l.06-.65-.6-.23a6.9,6.9,0,0,0-2.55-.46,7.11,7.11,0,0,0-4,1.16,4.24,4.24,0,0,1-1.28-3.3,7.49,7.49,0,0,1,1.58-4.48c2-2.56,5.32-4,8.34-6,3.81-2.58,6.94-6.06,10.19-9.1s6.6-5.62,10.68-6.6a13.74,13.74,0,0,1,3.18-.37,15,15,0,0,1,13.26,8,2.76,2.76,0,0,1,.26,1.14,2,2,0,0,1-.35,1.16,1.76,1.76,0,0,1-1.53.65c-1,0-2.33-.44-3.7-.44a3.1,3.1,0,0,0-2.2.74,2.87,2.87,0,0,0-1,2.23,3.52,3.52,0,0,0,1,2.42,4.39,4.39,0,0,0,3.09,1.18,6.7,6.7,0,0,0,2.53-.53c3.27-1.35,5.13-4.25,6.89-7s3.39-5.57,5.9-7c1.72-1,4-1.46,6.06-2.64a7.49,7.49,0,0,0,2.44-2.12,5.05,5.05,0,0,0,1.09-3,5,5,0,0,0-.18-1.23c-.17-.49-.4-.9-.56-1.28a2.35,2.35,0,0,1-.26-.83l0-.16c.07-.31.18-.42.6-.63a19.34,19.34,0,0,1,2.81-.6,5.33,5.33,0,0,0,1.6-.61,2.44,2.44,0,0,0,1.09-1.53l.1-.42-.28-.32c-1.14-1.3-2.21-3-2.16-4.3a2,2,0,0,1,.39-1.25l0,0a3.73,3.73,0,0,1,.88-.81,6.93,6.93,0,0,0,1.25-1.11,5.62,5.62,0,0,0,1.09-3.67c0-.51,0-1-.07-1.49l-1.76-21.9,0-.55a6,6,0,0,1,.81-3.07v0a3.11,3.11,0,0,1,1.28-1.19,5.64,5.64,0,0,1,2.32-.41,5.38,5.38,0,0,0,3-.89,6.5,6.5,0,0,0,2-2.76c.44-1,.76-2,1.09-2.65a26.81,26.81,0,0,0,2.48-6.57,31.34,31.34,0,0,0,.91-6.5V70.5h.11a15.47,15.47,0,0,0,2.37-.17,27.87,27.87,0,0,0,18.86,19,25.82,25.82,0,0,0,7.4,1.07,28.09,28.09,0,0,0,19.07-7.48,38.13,38.13,0,0,0,13.21,5.32c.49.09.93.16,1.37.28h0a26.48,26.48,0,0,0,4.79.56,14.5,14.5,0,0,0,5.92-1.28,6.26,6.26,0,0,0,1.23,2.44c.16.2.35.39.53.6l.23.25a11.2,11.2,0,0,1,2.49,3l0,0,0,.09,0,0,0,.12h0a7.17,7.17,0,0,1,.3,2.43V98a8.72,8.72,0,0,0,.44,3.09,5.34,5.34,0,0,0,4.39,3.29l.51,0a5.33,5.33,0,0,0,4-1.81,6.1,6.1,0,0,1,2.58,2.41,11.08,11.08,0,0,1,1.51,4.27,20.69,20.69,0,0,1,.19,3c0,2-.19,4-.19,6v.65a8.07,8.07,0,0,0,1.28,4.72,8.6,8.6,0,0,0,1.53,1.58,3,3,0,0,0,1.6.58l.44-.07C304.74,125.39,304.69,125.13,304.65,124.85Zm-3-6.64c0-.95,0-1.92.09-2.9.7,2.74,1.3,5.5,1.81,8.31a8.38,8.38,0,0,1-1-1.09,6.35,6.35,0,0,1-.93-3.71ZM110,299.91a1,1,0,0,0,0,.39,152.09,152.09,0,0,1-37.25-16.2s0,0,0,0l0,0-.07-.05-.09,0a10.14,10.14,0,0,1-3.27-2l-.07,0-.05-.05A153.42,153.42,0,0,1-1.44,152.39c0-2,0-4,.12-5.92A152.56,152.56,0,0,1,12.21,88.93a6.48,6.48,0,0,0,.56-.65l0,0c2.09-2.58,3.44-5.46,5.3-7.83l0,0C22.27,75,26.7,69.85,31.32,64.92l.21-.09.23.07.1.19A29,29,0,0,1,32,68.57,33.74,33.74,0,0,1,20,94.23a1.72,1.72,0,0,0-.16,2.55,1.69,1.69,0,0,0,1.25.56h.21l1-.14h.14a1.41,1.41,0,0,1,1.37,1.14,12.11,12.11,0,0,0,5.85,7.73c2.18,1.23,4.5,1.88,6.13,3.27a5.11,5.11,0,0,1,1.74,3,2.92,2.92,0,0,0,2.83,2.54.42.42,0,0,0,.19,0l3.09,10.92a2,2,0,0,0,3.78.11v0a13.46,13.46,0,0,1,2.16-4,2.2,2.2,0,0,1,1.7-.84,2.06,2.06,0,0,1,1.78,1A7.94,7.94,0,0,1,54.22,126a6.54,6.54,0,0,1-.07,1c-.37,2.92-2.07,5.66-3.81,8.38l-1.72,2.67a1.86,1.86,0,0,0-.32,1.07,2,2,0,0,0,2,2,2.65,2.65,0,0,0,.72-.12,24.12,24.12,0,0,0,7.41-4.71A68,68,0,0,0,64.57,130l9.94-11.24a4.55,4.55,0,0,0,1.19-3,4.39,4.39,0,0,0-.28-1.51,4,4,0,0,1-.26-1.42,6.22,6.22,0,0,1,1.19-3.5c1.48-2,3.85-3.28,6-5.18a10.24,10.24,0,0,0,2.88-4.18,3.21,3.21,0,0,0,.17-1A3.45,3.45,0,0,0,81.9,95.5h-.12a36.12,36.12,0,0,0-14.47,3.63,1.92,1.92,0,0,1-.69.16,1.67,1.67,0,0,1-1.42-.79h0a6.56,6.56,0,0,1-.81-3.25,7.37,7.37,0,0,1,.44-2.56c1-2.67,3.07-4.87,5.25-7,2.88-2.9,5.78-5.74,9.34-7.29a12.63,12.63,0,0,1,5.08-1.09,7.57,7.57,0,0,1,1.44.11.56.56,0,0,1,.23,0,8.63,8.63,0,0,1,2.09.58l.7.34,0,0,.32.21h0l.33.21.42.32.51.51a4.58,4.58,0,0,1,.72.91v0l.21.39,0,0,.23.49.14.37v0l.16.47v0a5.24,5.24,0,0,1,.19.91l0,.28v0a3.76,3.76,0,0,1,0,.56l0,.58v0a3.67,3.67,0,0,1-.11.74v0c0,.21-.12.41-.19.62v0l-.16.37-.19.37,0,0-.35.54v0a3,3,0,0,0-.67,1.86,2.62,2.62,0,0,0,.14.88v0l.14.35,0,.09.28.44,0,.1a13.34,13.34,0,0,0,8.64,5l.37,0a2.7,2.7,0,0,0,.63-.07l0,0,.42-.12.07,0,.42-.23.09,0,.37-.33,0,0,.3-.35.05-.07.23-.42,0,0,0,0a3.24,3.24,0,0,0,.28-1.11l.09-.44.18-.49,0-.05a2.68,2.68,0,0,1,.44-.72l0,0,.33-.37.51-.42.32-.23h0l.44-.21,0,0,.46-.14.14,0h.12l.26,0v0l.18,0,.56,0h.11l.35,0h0a8.37,8.37,0,0,1,2.16.62l0,0a9.16,9.16,0,0,1,1.09.44l0,0a29.56,29.56,0,0,0,4.5,1.7h0l.28.07h0a9.36,9.36,0,0,0,1.62.16,6.3,6.3,0,0,0,.75,0,5.34,5.34,0,0,0,4.08-2.46l0,0a4.32,4.32,0,0,0,.58-2.09,8.47,8.47,0,0,0-1-3.28,5.68,5.68,0,0,1-.81-2.48l0-.44a2.13,2.13,0,0,1,.89-1.35,12.87,12.87,0,0,1,3.13-1.51,8.42,8.42,0,0,0,3.51-2.25,6.61,6.61,0,0,0,1.32-4.09c.07-1.39,0-2.78.19-3.94a8.13,8.13,0,0,1,3.8-5.35,13.5,13.5,0,0,1,6.92-2h.24c5.59-.05,11,3.09,17.09,3.11a14.51,14.51,0,0,0,3.71-.44,5.31,5.31,0,0,0,3-2v0A4.47,4.47,0,0,0,166,60c0-2.21-1.4-4.18-2.3-5.88a7.58,7.58,0,0,1-1-3.36l0-.47a2.94,2.94,0,0,1,.68-1.6,2.2,2.2,0,0,1,1.32-.79h.05l.55,0h.14a3,3,0,0,0,2.11-.58v0a2.2,2.2,0,0,0,.68-1.62,4.74,4.74,0,0,0-.61-2.09c-1.18-2.39-2.43-5-4.64-6.9v0a7.39,7.39,0,0,0-4.9-2,13,13,0,0,0-5.69,1.79A40.08,40.08,0,0,1,147.14,39a24.25,24.25,0,0,1-7.66,1.11,73,73,0,0,1-10.15-1c-6.75-1-13.51-2-19.62-4.74-7.12-3.18-13.58-8.89-21.8-10.2a26.42,26.42,0,0,0-3.53-.25c-6.34,0-12.54,2.41-17.86,5.34s-11,5.71-16.67,8.45A153,153,0,0,1,129.24.28a151.3,151.3,0,0,1,20.88-1.7h0c.75,0,1.47,0,2.23,0a155.89,155.89,0,0,1,38.36,4.8s0,0,.05,0h0l.19.07h0l.05,0a156,156,0,0,1,20.62,6.92l.32.14a153.44,153.44,0,0,1,41.12,25.61,150.46,150.46,0,0,1,11,10.47A154.06,154.06,0,0,1,290.25,84c1.21,2.44,2.37,4.9,3.44,7.41,1.46,3.36,2.78,6.8,4,10.28a7,7,0,0,0-1.79-1l-.63-.23-.37.55a3.67,3.67,0,0,1-3,1.65l-.34,0a3.71,3.71,0,0,1-3-2.23,6.93,6.93,0,0,1-.32-2.46V96.8a8.83,8.83,0,0,0-.44-3.11l0,0-.11-.28-.07-.14-.09-.09s-.05,0-.05,0a11.07,11.07,0,0,0-2.39-2.92v0l-.23-.21,0-.05a6.86,6.86,0,0,1-.65-.69,4.47,4.47,0,0,1-1-2.6V85.22l-1.21.6a13.53,13.53,0,0,1-6.22,1.58,24.42,24.42,0,0,1-4.44-.53h0l-1.44-.28a37,37,0,0,1-13.14-5.41l-.56-.35-.49.46a26.48,26.48,0,0,1-18.37,7.43,24,24,0,0,1-6.94-1,26.34,26.34,0,0,1-17.9-18.52l-.19-.75-.76.12a19.09,19.09,0,0,1-2.84.21c-.32,0-.65,0-1,0l-1,0,.07,1c0,.33,0,.65,0,1a28.82,28.82,0,0,1-.86,6.15A24.79,24.79,0,0,1,203.57,83c-.42.81-.74,1.81-1.14,2.72A4.9,4.9,0,0,1,201,87.79c-.74.56-1.71.54-3,.63a5.56,5.56,0,0,0-2.07.51A5.05,5.05,0,0,0,194,90.74v0a7.36,7.36,0,0,0-1.09,4c0,.23,0,.46,0,.69l1.77,21.9c0,.44.07.91.07,1.35a4,4,0,0,1-.72,2.6,6.52,6.52,0,0,1-1,.83,6.26,6.26,0,0,0-1.23,1.16,0,0,0,0,1,0,0,3.76,3.76,0,0,0-.74,2.25,8.71,8.71,0,0,0,2.25,5,1,1,0,0,1-.46.3,17.65,17.65,0,0,1-2.83.63,4.42,4.42,0,0,0-1.58.6,2.37,2.37,0,0,0-1.07,1.53l-.07.54a3.82,3.82,0,0,0,.39,1.53,7.84,7.84,0,0,1,.49,1.09,2.58,2.58,0,0,1,.12.72,3.56,3.56,0,0,1-.77,2,6.31,6.31,0,0,1-1.88,1.64h0c-1.77,1-4,1.42-6.11,2.65-3,1.79-4.71,4.83-6.46,7.59s-3.46,5.3-6.1,6.37a5.14,5.14,0,0,1-1.88.41,2.6,2.6,0,0,1-1.91-.69,1.88,1.88,0,0,1-.51-1.21,1.24,1.24,0,0,1,.42-1h0a1.51,1.51,0,0,1,1.09-.33c1,0,2.3.44,3.7.44a3.41,3.41,0,0,0,2.88-1.32l0-.07a3.5,3.5,0,0,0,.65-2.11,4.34,4.34,0,0,0-.42-1.88,15.63,15.63,0,0,0-6.15-6.55,17.18,17.18,0,0,0-8.64-2.39,15.41,15.41,0,0,0-3.57.42c-4.55,1.06-8.13,3.9-11.45,7s-6.41,6.52-10,8.94c-2.81,1.93-6.3,3.39-8.71,6.36h0a9,9,0,0,0-2,5.55,5.78,5.78,0,0,0,2.48,5.06l.51.33.49-.37a5.54,5.54,0,0,1,3.44-1.19,4.22,4.22,0,0,1,1.34.19,23.75,23.75,0,0,0-.16,2.55,9.64,9.64,0,0,0,1.05,4.71l0,0a5.9,5.9,0,0,0,3.37,2.74h0a4.62,4.62,0,0,0,1.35.21,4.4,4.4,0,0,0,2.6-.89,7.93,7.93,0,0,0,1.69-1.85c2.74-4.25,2.49-9.41,3.18-13.94a16,16,0,0,1,2.37-6.36,7,7,0,0,1,4.85-3.3l.4,0a1.75,1.75,0,0,1,1,.28,1.18,1.18,0,0,1,.4,1.05,5.51,5.51,0,0,1-.51,2.06,65.27,65.27,0,0,1-6.88,12.22l-.76,1.06,8.08,1.63h0a.52.52,0,0,1,.37.49l-.23.39c-.9.54-2,.95-3,1.53-3.76,2.16-6,5.88-9.1,8.06a8.52,8.52,0,0,1-4.81,1.51,5.78,5.78,0,0,1-2.67-.6,3.44,3.44,0,0,1-1.6-1.81c-.37-1-.28-2.33-.7-3.77a4.24,4.24,0,0,0-1.11-1.81,2.92,2.92,0,0,0-2-.88,2.52,2.52,0,0,0-.82.14l-.58.21,0,.6v.44a13.33,13.33,0,0,1-1,5.21,4.88,4.88,0,0,1-1.21,1.74,2.51,2.51,0,0,1-1.6.58l-.37,0a5.18,5.18,0,0,1-1.84-.72,10.4,10.4,0,0,0-2.32-1.06,5.72,5.72,0,0,0-1.51-.21,10.25,10.25,0,0,0-5,1.76,16.77,16.77,0,0,1-4.5,2.07,8.11,8.11,0,0,1-1.46.14c-2.21,0-4.65-.88-7.3-.88a8.13,8.13,0,0,0-2.92.48A5.09,5.09,0,0,0,90.6,192a4.66,4.66,0,0,0-.34,1.72,7.71,7.71,0,0,0,1.37,3.85,6.64,6.64,0,0,1,1.16,3.14,3.45,3.45,0,0,1-.54,1.78,4.3,4.3,0,0,1-3.69,2.23,2.88,2.88,0,0,1-.65-.07h0a3.61,3.61,0,0,1-2-1c-.86-.76-1.54-2-2.51-3a5.77,5.77,0,0,0-4.51-2l-.09,0a7.67,7.67,0,0,0-5.36,2.3,8.24,8.24,0,0,0-2.35,5.36l0,.44a11.41,11.41,0,0,0,3.16,7.6A21,21,0,0,0,81,219.06a14.38,14.38,0,0,0,5.76,1.46,8.34,8.34,0,0,0,2.46-.37,12,12,0,0,0,3.88-2.42,19.55,19.55,0,0,1,3.35-2.5,8.2,8.2,0,0,1,3.9-.84c1.37,0,2.85.19,4.43.19h.77c1.74-.1,3.6-.79,5.06-.79h.07a3.4,3.4,0,0,1,1,.11,5.84,5.84,0,0,1,2.78,2.23c.86,1.07,1.65,2.35,2.67,3.41.84.86,1.86,1.58,2.74,2.35a7.64,7.64,0,0,1,2,2.37c.33.67.86,1.48,1.3,2.3a5.48,5.48,0,0,1,.79,2.06l0,.12v0a1.11,1.11,0,0,1-.37.63,1.42,1.42,0,0,1-.77.39h0l-.44.05a4.45,4.45,0,0,1-1.65-.37h0a4.43,4.43,0,0,0-1.44-.4l-.61.1a2,2,0,0,0-1.13,1,2.65,2.65,0,0,0-.33,1.33v.27a3.9,3.9,0,0,0,2.6,3.37,10.78,10.78,0,0,1,1.09.33h0c.3.11.67.53,1.3.93a2.61,2.61,0,0,0,1.39.44,1.81,1.81,0,0,0,1.16-.42h0v0a2.54,2.54,0,0,0,.77-1.56l.12-.46.07-.12,0,0,.23,0,.42,0h0a11,11,0,0,0,1.19.07,4.7,4.7,0,0,0,3.62-1.33v0a5.19,5.19,0,0,0,.9-1.72,6.24,6.24,0,0,1,.56-1.37c.16-.28.44-.6.72-1a3,3,0,0,0,.68-1.53l0-.28a3,3,0,0,0-1-2.11,11.91,11.91,0,0,0-1.65-1.21l-.09,0c-3-2-5.2-5.08-7.36-8.19v0a3.5,3.5,0,0,1-.72-1.69l.14-.42.25-.09a3.3,3.3,0,0,1,1.47.58,27.38,27.38,0,0,1,5,4.41c1.84,2.09,3.83,5.06,4.18,7.62l0,.35c0,.65-.32,1.34-.39,2.48v.14c0,2,1.23,3.6,2,4.88a36.92,36.92,0,0,0,2.58,3.71c.62.77,1.23,1.44,1.81,2.14l0,0a9.35,9.35,0,0,0,2,2.16v0a6.78,6.78,0,0,0,3.93,1c.46,0,.9,0,1.32-.05h0a4.29,4.29,0,0,0,1.64-.35,2,2,0,0,0,1.3-1.53v0l0-.23a2.93,2.93,0,0,0-.65-1.62,4,4,0,0,1-.49-.79h0l0-.14c0-.19.07-.49.07-.93l-.05-.47v0a3.94,3.94,0,0,0-.48-1l0,0c-1.14-1.74-2.27-3.5-3.41-5.27A15.3,15.3,0,0,1,148,230a9.26,9.26,0,0,0,3-.46c.3-.12.63-.24.93-.38a4.26,4.26,0,0,0-.63,2.23v.1a5.9,5.9,0,0,0,.95,2.88,12.06,12.06,0,0,0,5.65,4.89l.3.14h0l.6.21h0a.54.54,0,0,0,.11,0h0a19.23,19.23,0,0,0,6.29,1,25.44,25.44,0,0,0,2.63-.14c.37,0,.72-.07,1.06-.12h0c1.58-.21,3.09-.51,4.6-.86l.34,0a1.64,1.64,0,0,1,1.12.44,1.42,1.42,0,0,1,.46,1.05l0,.21v0a7.46,7.46,0,0,1-1.28,2.88v0c-.39.54-.79,1-1.21,1.58l-.34.42v0a11.31,11.31,0,0,0-.7.93v0l-.33.44,0,0a8.61,8.61,0,0,0-.46.79l-.1.18v0l0,0a4.91,4.91,0,0,0-.32.83h0v.05a6.53,6.53,0,0,0-.39,2.16,7.62,7.62,0,0,0,.25,1.86,10.23,10.23,0,0,0,.84,2.07l.07.11s0,.05.05.05.09.18.13.25a10.05,10.05,0,0,0,1.21,1.77l0,0s0,0,0,0a8.59,8.59,0,0,1-2,.63h0a24,24,0,0,0-3,1,13.67,13.67,0,0,1-3.28.9c-.51.05-1,.07-1.53.07a13.83,13.83,0,0,1-4.74-.83,25.43,25.43,0,0,1-3-1.37,17.48,17.48,0,0,0-5.57-2,6.57,6.57,0,0,0-.74-.05,6.93,6.93,0,0,0-5.65,2.86,1.82,1.82,0,0,1-1.55.85,1.9,1.9,0,0,1-.82-.2l-16.64-8.32c-.38-.18-.63-.35-.65-.44l0,0-.07-.33a2.86,2.86,0,0,1,.17-.81c.46-1.42,1.32-3,1.32-4.83v-.12a5.77,5.77,0,0,0-1.42-3.66,7.74,7.74,0,0,0-3.16-2.3,14.22,14.22,0,0,0-5.68-.93l-1.54,0c-2.41.07-4.8.21-7.15.21a34.92,34.92,0,0,1-5.62-.37,16.81,16.81,0,0,1-10-4.95,1.75,1.75,0,0,0-1.28-.58,1.78,1.78,0,0,0-1.11.4,6.9,6.9,0,0,1-2.86,1.09c-1.11.21-2.32.28-3.55.44a9.32,9.32,0,0,0-4.07,1.56,4.53,4.53,0,0,0-2.11,3.46,3.57,3.57,0,0,1-1.86-1,9.2,9.2,0,0,0-2.76-1.6,4.08,4.08,0,0,0-1.14-.16,8.62,8.62,0,0,0-3.11.77l-8.75,3.39A3.54,3.54,0,0,0,56,241.84a2.62,2.62,0,0,0-.39,1.48c0,.68.14,1.28.14,1.7l0,.23a1.86,1.86,0,0,1-.67,1.23,18.91,18.91,0,0,1-2.6,1.81,7.39,7.39,0,0,0-1.37,1.21,3.76,3.76,0,0,0-.84,1.76v0l0,.48a6.07,6.07,0,0,0,.65,2.44v0A55.53,55.53,0,0,0,64,273.07c.33.3.65.6,1,.88s.72.67,1.09,1c1.41,1.2,2.9,2.37,4.41,3.43a57.42,57.42,0,0,0,9.73,5.48v0c.28.12.53.26.81.35l1.74.72,0,0a.2.2,0,0,1,.09.05h0c1.55.58,3.16,1.11,4.78,1.55,3,.82,5.9,1.37,8.71,2.28,5.22,1.65,10,4.53,14.72,7.55a.83.83,0,0,1,.42.74,1,1,0,0,1-.4.72A2.46,2.46,0,0,0,110,299.91Zm46.09-74.28c1.39-2.39,1.81-5.34,2.6-7.73a8.73,8.73,0,0,1,1.44-3,3.73,3.73,0,0,1,2.44-1.37h0a3,3,0,0,1,.68-.07,6.22,6.22,0,0,1,2.18.46l.07,0,17.9,6.73a6.71,6.71,0,0,1-3.48,4.32,14.5,14.5,0,0,1-7,1.74c-.23,0-.49,0-.7,0-3.71-.17-7.59-1.19-11.51-1.21a17.42,17.42,0,0,0-4.34.53,5.52,5.52,0,0,0-.84.28A7.47,7.47,0,0,0,156.13,225.63Zm-53.41-95.78a5,5,0,0,0,1.49.23,10.76,10.76,0,0,0,1.88-.21l.14,0a24.47,24.47,0,0,0,4.67-1.61,15.65,15.65,0,0,1,4.39-1.3h0l.33,0a1.11,1.11,0,0,1,.58.12,4.19,4.19,0,0,1,.58.79v0a5.74,5.74,0,0,0,4.55,2.46h.11c1.33,0,2.51-.39,3.44-.37a2.59,2.59,0,0,1,.95.16h0l.09.05a9.23,9.23,0,0,1,1.62,1.25h0a6.27,6.27,0,0,0,3.8,1.23c.31,0,.59,0,.89,0a6.13,6.13,0,0,0,1.74-.49l.14-.07a12.83,12.83,0,0,1,1.58-.79h0a4.91,4.91,0,0,1,1.21-.14l1.2,0a5.34,5.34,0,0,0,1.47-.16,8.35,8.35,0,0,0,3.46-2.28,52.6,52.6,0,0,1,7.52-5.87,8.82,8.82,0,0,0,2.14-1.69h0c.93-1.21,1.18-2.54,1.76-3.33a6.59,6.59,0,0,1,3.19-2,15.79,15.79,0,0,0,4.27-2,2.57,2.57,0,0,0,.67-.75,2.36,2.36,0,0,0,.33-1,1.48,1.48,0,0,0-.54-1.11l-.09-.1-.63-.25v0h0a.77.77,0,0,1-.44-.46,2.2,2.2,0,0,1-.21-1l0-.16v0a25.39,25.39,0,0,0,.33-2.54l0-.6A7,7,0,0,0,159,102v0c-1.37-1.32-2.74-2.63-4.11-4a13.24,13.24,0,0,0-3.11-2.49c-1.72-.86-3.46-1-4.64-1.78a24,24,0,0,1-1.95-1.54,5.37,5.37,0,0,0-2.63-1.2l-.39,0a7,7,0,0,0-3.69,1.49h0a6.17,6.17,0,0,0-1.6,1.44,0,0,0,0,1,0,0,4.12,4.12,0,0,0-.65,2.35c0,1.23.32,2.41.32,3.36l0,.54a4.44,4.44,0,0,1-1.68,2.76,17.28,17.28,0,0,1-3.36,2c-.86.42-1.72.82-2.6,1.23a23,23,0,0,1-7.67,2.26,22.1,22.1,0,0,0-4.85.42,10.63,10.63,0,0,0-3.06,1.41v0l-.79.52,0,0c-.83.63-1.62,1.25-2.34,1.79h0c-1.33.95-3.07,2-4.67,3.29a11.66,11.66,0,0,0-3.81,4.62,15,15,0,0,0-.79,3.3,14,14,0,0,0-.16,2,5.5,5.5,0,0,0,.74,3.09A2.89,2.89,0,0,0,102.72,129.85Zm.47-8.69a9.92,9.92,0,0,1,3.3-3.92c1.48-1.19,3.2-2.23,4.59-3.25.79-.56,1.56-1.19,2.35-1.77a0,0,0,0,0,0,0,6.19,6.19,0,0,0,.75-.51v0a9.4,9.4,0,0,1,2.57-1.23,25.18,25.18,0,0,1,4.51-.35,24.17,24.17,0,0,0,8.26-2.41c.91-.4,1.77-.82,2.65-1.23a18.1,18.1,0,0,0,3.72-2.3,6,6,0,0,0,2.27-3.83c0-.26,0-.49,0-.75,0-1.25-.33-2.43-.33-3.36a2.27,2.27,0,0,1,.37-1.4v0a4,4,0,0,1,1.17-1,5.53,5.53,0,0,1,2.76-1.2l.21,0h0a3.45,3.45,0,0,1,1.74.86c.63.49,1.28,1.11,2.09,1.63,1.67,1,3.49,1.16,4.79,1.85a12.88,12.88,0,0,1,2.69,2.19q2.06,2,4.11,4a5.49,5.49,0,0,1,1.88,2.76l0,.37a23.22,23.22,0,0,1-.32,2.37v0l0,.3a4.17,4.17,0,0,0,.35,1.72,2.68,2.68,0,0,0,1.35,1.3v0l.12,0-.24.3a13.82,13.82,0,0,1-3.8,1.77,7.79,7.79,0,0,0-4,2.62c-.84,1.21-1.1,2.46-1.72,3.2v0a8.33,8.33,0,0,1-1.74,1.34h0a55.28,55.28,0,0,0-7.73,6l0,0a7.5,7.5,0,0,1-2.7,1.89h0a5.64,5.64,0,0,1-1,.09c-.37,0-.76,0-1.2,0a6.53,6.53,0,0,0-1.7.21l0,0a15.64,15.64,0,0,0-1.93.9,3.92,3.92,0,0,1-1.28.35,2.68,2.68,0,0,1-.65.05,4.61,4.61,0,0,1-2.78-.89,9.08,9.08,0,0,0-2-1.46l-.11,0,0,0a4.36,4.36,0,0,0-1.6-.28c-1.3,0-2.46.4-3.44.38h-.11a4.07,4.07,0,0,1-3.14-1.72s0,0,0,0a4,4,0,0,0-1-1.2v0h0a2.62,2.62,0,0,0-1.53-.41l-.52,0a17.71,17.71,0,0,0-4.87,1.41,23.2,23.2,0,0,1-4.46,1.54,9.21,9.21,0,0,1-1.58.18,2.36,2.36,0,0,1-.9-.14,1.27,1.27,0,0,1-.54-.37,4.17,4.17,0,0,1-.42-2.09,11.39,11.39,0,0,1,.14-1.72A15.6,15.6,0,0,1,103.19,121.16ZM84.92,178.31a7.41,7.41,0,0,0,2.5,1,5.64,5.64,0,0,0,.93.09,4,4,0,0,0,3.67-2,18.47,18.47,0,0,0,.6-1.83,17.29,17.29,0,0,1,1.63-2.25v0a2.62,2.62,0,0,0,.35-.74l.21.91a10,10,0,0,1,.3,1.44V175c0,.23-.12.55-.16,1.11a5.37,5.37,0,0,1-1.3,1.49l0,0A5,5,0,0,0,92,180.05l-.07.55a2.71,2.71,0,0,0,.33,1.21c-.79.3-1.61.58-2.4.86l-1.71.58,1.55.95a6.85,6.85,0,0,0,3.69,1c.91,0,1.75-.09,2.65-.12h.07c1.23,0,2.62.77,4.51.82l.34,0a4.42,4.42,0,0,0,2.56-1,3.38,3.38,0,0,0,1.37-2.46v-.24a5.47,5.47,0,0,0-.56-2.2c-1.18-2.88-2.37-5.78-3.53-8.64a6.73,6.73,0,0,0,1.74-2.37v0a3.27,3.27,0,0,0,.23-1.28,3.63,3.63,0,0,0-.27-1.37,2.94,2.94,0,0,0,1.18-.83l0,0a2.27,2.27,0,0,0,.51-1.44,2.24,2.24,0,0,0-.27-1,1.71,1.71,0,0,0-.93-.77l-.1,0-.09,0-.25,0-.84-.07-.93,0a17.48,17.48,0,0,0-6.34,1.23,1.78,1.78,0,0,0-.86.7,1.85,1.85,0,0,0-.25.92,5.35,5.35,0,0,0,.23,1.19,5.28,5.28,0,0,1,.23.72v.09s0,0,0,.05a15.32,15.32,0,0,1,.2,1.69v.24h0v0l-.18.25a3.65,3.65,0,0,1-.56.47h-.12c-.14,0-.46-.07-1-.12H91.7c-.45,0-.89,0-1.35.07h0a5.46,5.46,0,0,0-3.93,1.84,10.18,10.18,0,0,0-1.23,3,2.55,2.55,0,0,1-.63,1,1.85,1.85,0,0,0-.55,1.3,1.9,1.9,0,0,0,.93,1.63Zm5.59-7.09c.42,0,.79,0,1.19,0h.39a9.68,9.68,0,0,0,1,.11,1.84,1.84,0,0,1-.28,1.12,16.41,16.41,0,0,0-1.76,2.51v0c-.3.74-.35,1.37-.56,1.72a2.38,2.38,0,0,1-2.16,1.09l-.63-.07-.2-.05a6.47,6.47,0,0,1-1.72-.76l0,0-.07-.14v-.07a4.19,4.19,0,0,0,1-1.62,10.39,10.39,0,0,1,1-2.58,4,4,0,0,1,2.77-1.21Zm11.08-7.47.83.07v0l0,.16-.12.35,0,0a2.52,2.52,0,0,1-1.53.63l-2.23.4,2,1.16a1.23,1.23,0,0,1,.51,1.11,2.09,2.09,0,0,1-.12.67v0a6.73,6.73,0,0,1-1.74,2.13l-.44.4.21.53c1.28,3.07,2.53,6.13,3.78,9.2a4,4,0,0,1,.42,1.55v.12a1.71,1.71,0,0,1-.72,1.25,2.93,2.93,0,0,1-1.62.61l-.23,0c-1.28,0-2.67-.79-4.51-.81H95.9c-1,0-1.81.11-2.56.11-.23,0-.46,0-.69,0,.51-.16,1-.35,1.53-.53l3.6-1.33L94,181.28l-.21-.14-.16-.54,0-.18a3.45,3.45,0,0,1,1.16-1.56h0a6.36,6.36,0,0,0,1.79-2.25l.07-.14v-.16c0-.21.14-.65.16-1.32v-.19a12.77,12.77,0,0,0-.34-1.72v0a8.21,8.21,0,0,1-.31-2,5.38,5.38,0,0,1,.07-.78l0-.12,0-.33-.07-.81-.51,0,0-.44c0-.76-.21-1.51-.23-1.92v0l0-.09v-.05a6.21,6.21,0,0,0-.27-.95,1.7,1.7,0,0,1-.14-.68v0l0,0a15.52,15.52,0,0,1,5.71-1.12ZM104.28,180c-1.18-2.88-2.37-5.78-3.53-8.64a6.73,6.73,0,0,0,1.74-2.37v0a3.27,3.27,0,0,0,.23-1.28,3.63,3.63,0,0,0-.27-1.37,2.94,2.94,0,0,0,1.18-.83l0,0a2.27,2.27,0,0,0,.51-1.44,2.24,2.24,0,0,0-.27-1,1.71,1.71,0,0,0-.93-.77l-.1,0-.09,0-.25,0-.84-.07-.93,0a17.48,17.48,0,0,0-6.34,1.23,1.78,1.78,0,0,0-.86.7,1.85,1.85,0,0,0-.25.92,5.35,5.35,0,0,0,.23,1.19,5.28,5.28,0,0,1,.23.72v.09s0,0,0,.05a15.32,15.32,0,0,1,.2,1.69v.24h0v0l-.18.25a3.65,3.65,0,0,1-.56.47h-.12c-.14,0-.46-.07-1-.12H91.7c-.45,0-.89,0-1.35.07h0a5.46,5.46,0,0,0-3.93,1.84,10.18,10.18,0,0,0-1.23,3,2.55,2.55,0,0,1-.63,1,1.85,1.85,0,0,0-.55,1.3,1.9,1.9,0,0,0,.93,1.63v0a7.41,7.41,0,0,0,2.5,1,5.64,5.64,0,0,0,.93.09,4,4,0,0,0,3.67-2,18.47,18.47,0,0,0,.6-1.83,17.29,17.29,0,0,1,1.63-2.25v0a2.62,2.62,0,0,0,.35-.74l.21.91a10,10,0,0,1,.3,1.44V175c0,.23-.12.55-.16,1.11a5.37,5.37,0,0,1-1.3,1.49l0,0A5,5,0,0,0,92,180.05l-.07.55a2.71,2.71,0,0,0,.33,1.21c-.79.3-1.61.58-2.4.86l-1.71.58,1.55.95a6.85,6.85,0,0,0,3.69,1c.91,0,1.75-.09,2.65-.12h.07c1.23,0,2.62.77,4.51.82l.34,0a4.42,4.42,0,0,0,2.56-1,3.38,3.38,0,0,0,1.37-2.46v-.24A5.47,5.47,0,0,0,104.28,180Zm-1.14,2.32a1.71,1.71,0,0,1-.72,1.25,2.93,2.93,0,0,1-1.62.61l-.23,0c-1.28,0-2.67-.79-4.51-.81H95.9c-1,0-1.81.11-2.56.11-.23,0-.46,0-.69,0,.51-.16,1-.35,1.53-.53l3.6-1.33L94,181.28l-.21-.14-.16-.54,0-.18a3.45,3.45,0,0,1,1.16-1.56h0a6.36,6.36,0,0,0,1.79-2.25l.07-.14v-.16c0-.21.14-.65.16-1.32v-.19a12.77,12.77,0,0,0-.34-1.72v0a8.21,8.21,0,0,1-.31-2,5.38,5.38,0,0,1,.07-.78l0-.12,0-.33-.07-.81-.51,0,0-.44c0-.76-.21-1.51-.23-1.92v0l0-.09v-.05a6.21,6.21,0,0,0-.27-.95,1.7,1.7,0,0,1-.14-.68v0l0,0a15.52,15.52,0,0,1,5.71-1.12l.84,0,.83.07v0l0,.16-.12.35,0,0a2.52,2.52,0,0,1-1.53.63l-2.23.4,2,1.16a1.23,1.23,0,0,1,.51,1.11,2.09,2.09,0,0,1-.12.67v0a6.73,6.73,0,0,1-1.74,2.13l-.44.4.21.53c1.28,3.07,2.53,6.13,3.78,9.2a4,4,0,0,1,.42,1.55Zm-12.07-7.36c-.3.74-.35,1.37-.56,1.72a2.38,2.38,0,0,1-2.16,1.09l-.63-.07-.2-.05a6.47,6.47,0,0,1-1.72-.76l0,0-.07-.14v-.07a4.19,4.19,0,0,0,1-1.62,10.39,10.39,0,0,1,1-2.58,4,4,0,0,1,2.77-1.21h0c.42,0,.79,0,1.19,0h.39a9.68,9.68,0,0,0,1,.11,1.84,1.84,0,0,1-.28,1.12,16.41,16.41,0,0,0-1.76,2.51Zm71.42-64.06-.09-.1-.63-.25v0h0a.77.77,0,0,1-.44-.46,2.2,2.2,0,0,1-.21-1l0-.16v0a25.39,25.39,0,0,0,.33-2.54l0-.6A7,7,0,0,0,159,102v0c-1.37-1.32-2.74-2.63-4.11-4a13.24,13.24,0,0,0-3.11-2.49c-1.72-.86-3.46-1-4.64-1.78a24,24,0,0,1-1.95-1.54,5.37,5.37,0,0,0-2.63-1.2l-.39,0a7,7,0,0,0-3.69,1.49h0a6.17,6.17,0,0,0-1.6,1.44,0,0,0,0,1,0,0,4.12,4.12,0,0,0-.65,2.35c0,1.23.32,2.41.32,3.36l0,.54a4.44,4.44,0,0,1-1.68,2.76,17.28,17.28,0,0,1-3.36,2c-.86.42-1.72.82-2.6,1.23a23,23,0,0,1-7.67,2.26,22.1,22.1,0,0,0-4.85.42,10.63,10.63,0,0,0-3.06,1.41v0l-.79.52,0,0c-.83.63-1.62,1.25-2.34,1.79h0c-1.33.95-3.07,2-4.67,3.29a11.66,11.66,0,0,0-3.81,4.62,15,15,0,0,0-.79,3.3,14,14,0,0,0-.16,2,5.5,5.5,0,0,0,.74,3.09,2.89,2.89,0,0,0,1.32,1,5,5,0,0,0,1.49.23,10.76,10.76,0,0,0,1.88-.21l.14,0a24.47,24.47,0,0,0,4.67-1.61,15.65,15.65,0,0,1,4.39-1.3h0l.33,0a1.11,1.11,0,0,1,.58.12,4.19,4.19,0,0,1,.58.79v0a5.74,5.74,0,0,0,4.55,2.46h.11c1.33,0,2.51-.39,3.44-.37a2.59,2.59,0,0,1,.95.16h0l.09.05a9.23,9.23,0,0,1,1.62,1.25h0a6.27,6.27,0,0,0,3.8,1.23c.31,0,.59,0,.89,0a6.13,6.13,0,0,0,1.74-.49l.14-.07a12.83,12.83,0,0,1,1.58-.79h0a4.91,4.91,0,0,1,1.21-.14l1.2,0a5.34,5.34,0,0,0,1.47-.16,8.35,8.35,0,0,0,3.46-2.28,52.6,52.6,0,0,1,7.52-5.87,8.82,8.82,0,0,0,2.14-1.69h0c.93-1.21,1.18-2.54,1.76-3.33a6.59,6.59,0,0,1,3.19-2,15.79,15.79,0,0,0,4.27-2,2.57,2.57,0,0,0,.67-.75,2.36,2.36,0,0,0,.33-1A1.48,1.48,0,0,0,162.49,110.88Zm-11,9.17a8.33,8.33,0,0,1-1.74,1.34h0a55.28,55.28,0,0,0-7.73,6l0,0a7.5,7.5,0,0,1-2.7,1.89h0a5.64,5.64,0,0,1-1,.09c-.37,0-.76,0-1.2,0a6.53,6.53,0,0,0-1.7.21l0,0a15.64,15.64,0,0,0-1.93.9,3.92,3.92,0,0,1-1.28.35,2.68,2.68,0,0,1-.65.05,4.61,4.61,0,0,1-2.78-.89,9.08,9.08,0,0,0-2-1.46l-.11,0,0,0a4.36,4.36,0,0,0-1.6-.28c-1.3,0-2.46.4-3.44.38h-.11a4.07,4.07,0,0,1-3.14-1.72s0,0,0,0a4,4,0,0,0-1-1.2v0h0a2.62,2.62,0,0,0-1.53-.41l-.52,0a17.71,17.71,0,0,0-4.87,1.41,23.2,23.2,0,0,1-4.46,1.54,9.21,9.21,0,0,1-1.58.18,2.36,2.36,0,0,1-.9-.14,1.27,1.27,0,0,1-.54-.37,4.17,4.17,0,0,1-.42-2.09,11.39,11.39,0,0,1,.14-1.72,15.6,15.6,0,0,1,.7-2.9,9.92,9.92,0,0,1,3.3-3.92c1.48-1.19,3.2-2.23,4.59-3.25.79-.56,1.56-1.19,2.35-1.77a0,0,0,0,0,0,0,6.19,6.19,0,0,0,.75-.51v0a9.4,9.4,0,0,1,2.57-1.23,25.18,25.18,0,0,1,4.51-.35,24.17,24.17,0,0,0,8.26-2.41c.91-.4,1.77-.82,2.65-1.23a18.1,18.1,0,0,0,3.72-2.3,6,6,0,0,0,2.27-3.83c0-.26,0-.49,0-.75,0-1.25-.33-2.43-.33-3.36a2.27,2.27,0,0,1,.37-1.4v0a4,4,0,0,1,1.17-1,5.53,5.53,0,0,1,2.76-1.2l.21,0h0a3.45,3.45,0,0,1,1.74.86c.63.49,1.28,1.11,2.09,1.63,1.67,1,3.49,1.16,4.79,1.85a12.88,12.88,0,0,1,2.69,2.19q2.06,2,4.11,4a5.49,5.49,0,0,1,1.88,2.76l0,.37a23.22,23.22,0,0,1-.32,2.37v0l0,.3a4.17,4.17,0,0,0,.35,1.72,2.68,2.68,0,0,0,1.35,1.3v0l.12,0-.24.3a13.82,13.82,0,0,1-3.8,1.77,7.79,7.79,0,0,0-4,2.62c-.84,1.21-1.1,2.46-1.72,3.2Zm11-9.17-.09-.1-.63-.25v0h0a.77.77,0,0,1-.44-.46,2.2,2.2,0,0,1-.21-1l0-.16v0a25.39,25.39,0,0,0,.33-2.54l0-.6A7,7,0,0,0,159,102v0c-1.37-1.32-2.74-2.63-4.11-4a13.24,13.24,0,0,0-3.11-2.49c-1.72-.86-3.46-1-4.64-1.78a24,24,0,0,1-1.95-1.54,5.37,5.37,0,0,0-2.63-1.2l-.39,0a7,7,0,0,0-3.69,1.49h0a6.17,6.17,0,0,0-1.6,1.44,0,0,0,0,1,0,0,4.12,4.12,0,0,0-.65,2.35c0,1.23.32,2.41.32,3.36l0,.54a4.44,4.44,0,0,1-1.68,2.76,17.28,17.28,0,0,1-3.36,2c-.86.42-1.72.82-2.6,1.23a23,23,0,0,1-7.67,2.26,22.1,22.1,0,0,0-4.85.42,10.63,10.63,0,0,0-3.06,1.41v0l-.79.52,0,0c-.83.63-1.62,1.25-2.34,1.79h0c-1.33.95-3.07,2-4.67,3.29a11.66,11.66,0,0,0-3.81,4.62,15,15,0,0,0-.79,3.3,14,14,0,0,0-.16,2,5.5,5.5,0,0,0,.74,3.09,2.89,2.89,0,0,0,1.32,1,5,5,0,0,0,1.49.23,10.76,10.76,0,0,0,1.88-.21l.14,0a24.47,24.47,0,0,0,4.67-1.61,15.65,15.65,0,0,1,4.39-1.3h0l.33,0a1.11,1.11,0,0,1,.58.12,4.19,4.19,0,0,1,.58.79v0a5.74,5.74,0,0,0,4.55,2.46h.11c1.33,0,2.51-.39,3.44-.37a2.59,2.59,0,0,1,.95.16h0l.09.05a9.23,9.23,0,0,1,1.62,1.25h0a6.27,6.27,0,0,0,3.8,1.23c.31,0,.59,0,.89,0a6.13,6.13,0,0,0,1.74-.49l.14-.07a12.83,12.83,0,0,1,1.58-.79h0a4.91,4.91,0,0,1,1.21-.14l1.2,0a5.34,5.34,0,0,0,1.47-.16,8.35,8.35,0,0,0,3.46-2.28,52.6,52.6,0,0,1,7.52-5.87,8.82,8.82,0,0,0,2.14-1.69h0c.93-1.21,1.18-2.54,1.76-3.33a6.59,6.59,0,0,1,3.19-2,15.79,15.79,0,0,0,4.27-2,2.57,2.57,0,0,0,.67-.75,2.36,2.36,0,0,0,.33-1A1.48,1.48,0,0,0,162.49,110.88Zm-11,9.17a8.33,8.33,0,0,1-1.74,1.34h0a55.28,55.28,0,0,0-7.73,6l0,0a7.5,7.5,0,0,1-2.7,1.89h0a5.64,5.64,0,0,1-1,.09c-.37,0-.76,0-1.2,0a6.53,6.53,0,0,0-1.7.21l0,0a15.64,15.64,0,0,0-1.93.9,3.92,3.92,0,0,1-1.28.35,2.68,2.68,0,0,1-.65.05,4.61,4.61,0,0,1-2.78-.89,9.08,9.08,0,0,0-2-1.46l-.11,0,0,0a4.36,4.36,0,0,0-1.6-.28c-1.3,0-2.46.4-3.44.38h-.11a4.07,4.07,0,0,1-3.14-1.72s0,0,0,0a4,4,0,0,0-1-1.2v0h0a2.62,2.62,0,0,0-1.53-.41l-.52,0a17.71,17.71,0,0,0-4.87,1.41,23.2,23.2,0,0,1-4.46,1.54,9.21,9.21,0,0,1-1.58.18,2.36,2.36,0,0,1-.9-.14,1.27,1.27,0,0,1-.54-.37,4.17,4.17,0,0,1-.42-2.09,11.39,11.39,0,0,1,.14-1.72,15.6,15.6,0,0,1,.7-2.9,9.92,9.92,0,0,1,3.3-3.92c1.48-1.19,3.2-2.23,4.59-3.25.79-.56,1.56-1.19,2.35-1.77a0,0,0,0,0,0,0,6.19,6.19,0,0,0,.75-.51v0a9.4,9.4,0,0,1,2.57-1.23,25.18,25.18,0,0,1,4.51-.35,24.17,24.17,0,0,0,8.26-2.41c.91-.4,1.77-.82,2.65-1.23a18.1,18.1,0,0,0,3.72-2.3,6,6,0,0,0,2.27-3.83c0-.26,0-.49,0-.75,0-1.25-.33-2.43-.33-3.36a2.27,2.27,0,0,1,.37-1.4v0a4,4,0,0,1,1.17-1,5.53,5.53,0,0,1,2.76-1.2l.21,0h0a3.45,3.45,0,0,1,1.74.86c.63.49,1.28,1.11,2.09,1.63,1.67,1,3.49,1.16,4.79,1.85a12.88,12.88,0,0,1,2.69,2.19q2.06,2,4.11,4a5.49,5.49,0,0,1,1.88,2.76l0,.37a23.22,23.22,0,0,1-.32,2.37v0l0,.3a4.17,4.17,0,0,0,.35,1.72,2.68,2.68,0,0,0,1.35,1.3v0l.12,0-.24.3a13.82,13.82,0,0,1-3.8,1.77,7.79,7.79,0,0,0-4,2.62c-.84,1.21-1.1,2.46-1.72,3.2ZM104.28,180c-1.18-2.88-2.37-5.78-3.53-8.64a6.73,6.73,0,0,0,1.74-2.37v0a3.27,3.27,0,0,0,.23-1.28,3.63,3.63,0,0,0-.27-1.37,2.94,2.94,0,0,0,1.18-.83l0,0a2.27,2.27,0,0,0,.51-1.44,2.24,2.24,0,0,0-.27-1,1.71,1.71,0,0,0-.93-.77l-.1,0-.09,0-.25,0-.84-.07-.93,0a17.48,17.48,0,0,0-6.34,1.23,1.78,1.78,0,0,0-.86.7,1.85,1.85,0,0,0-.25.92,5.35,5.35,0,0,0,.23,1.19,5.28,5.28,0,0,1,.23.72v.09s0,0,0,.05a15.32,15.32,0,0,1,.2,1.69v.24h0v0l-.18.25a3.65,3.65,0,0,1-.56.47h-.12c-.14,0-.46-.07-1-.12H91.7c-.45,0-.89,0-1.35.07h0a5.46,5.46,0,0,0-3.93,1.84,10.18,10.18,0,0,0-1.23,3,2.55,2.55,0,0,1-.63,1,1.85,1.85,0,0,0-.55,1.3,1.9,1.9,0,0,0,.93,1.63v0a7.41,7.41,0,0,0,2.5,1,5.64,5.64,0,0,0,.93.09,4,4,0,0,0,3.67-2,18.47,18.47,0,0,0,.6-1.83,17.29,17.29,0,0,1,1.63-2.25v0a2.62,2.62,0,0,0,.35-.74l.21.91a10,10,0,0,1,.3,1.44V175c0,.23-.12.55-.16,1.11a5.37,5.37,0,0,1-1.3,1.49l0,0A5,5,0,0,0,92,180.05l-.07.55a2.71,2.71,0,0,0,.33,1.21c-.79.3-1.61.58-2.4.86l-1.71.58,1.55.95a6.85,6.85,0,0,0,3.69,1c.91,0,1.75-.09,2.65-.12h.07c1.23,0,2.62.77,4.51.82l.34,0a4.42,4.42,0,0,0,2.56-1,3.38,3.38,0,0,0,1.37-2.46v-.24A5.47,5.47,0,0,0,104.28,180Zm-1.14,2.32a1.71,1.71,0,0,1-.72,1.25,2.93,2.93,0,0,1-1.62.61l-.23,0c-1.28,0-2.67-.79-4.51-.81H95.9c-1,0-1.81.11-2.56.11-.23,0-.46,0-.69,0,.51-.16,1-.35,1.53-.53l3.6-1.33L94,181.28l-.21-.14-.16-.54,0-.18a3.45,3.45,0,0,1,1.16-1.56h0a6.36,6.36,0,0,0,1.79-2.25l.07-.14v-.16c0-.21.14-.65.16-1.32v-.19a12.77,12.77,0,0,0-.34-1.72v0a8.21,8.21,0,0,1-.31-2,5.38,5.38,0,0,1,.07-.78l0-.12,0-.33-.07-.81-.51,0,0-.44c0-.76-.21-1.51-.23-1.92v0l0-.09v-.05a6.21,6.21,0,0,0-.27-.95,1.7,1.7,0,0,1-.14-.68v0l0,0a15.52,15.52,0,0,1,5.71-1.12l.84,0,.83.07v0l0,.16-.12.35,0,0a2.52,2.52,0,0,1-1.53.63l-2.23.4,2,1.16a1.23,1.23,0,0,1,.51,1.11,2.09,2.09,0,0,1-.12.67v0a6.73,6.73,0,0,1-1.74,2.13l-.44.4.21.53c1.28,3.07,2.53,6.13,3.78,9.2a4,4,0,0,1,.42,1.55Zm-12.07-7.36c-.3.74-.35,1.37-.56,1.72a2.38,2.38,0,0,1-2.16,1.09l-.63-.07-.2-.05a6.47,6.47,0,0,1-1.72-.76l0,0-.07-.14v-.07a4.19,4.19,0,0,0,1-1.62,10.39,10.39,0,0,1,1-2.58,4,4,0,0,1,2.77-1.21h0c.42,0,.79,0,1.19,0h.39a9.68,9.68,0,0,0,1,.11,1.84,1.84,0,0,1-.28,1.12,16.41,16.41,0,0,0-1.76,2.51Zm13.21,5c-1.18-2.88-2.37-5.78-3.53-8.64a6.73,6.73,0,0,0,1.74-2.37v0a3.27,3.27,0,0,0,.23-1.28,3.63,3.63,0,0,0-.27-1.37,2.94,2.94,0,0,0,1.18-.83l0,0a2.27,2.27,0,0,0,.51-1.44,2.24,2.24,0,0,0-.27-1,1.71,1.71,0,0,0-.93-.77l-.1,0-.09,0-.25,0-.84-.07-.93,0a17.48,17.48,0,0,0-6.34,1.23,1.78,1.78,0,0,0-.86.7,1.85,1.85,0,0,0-.25.92,5.35,5.35,0,0,0,.23,1.19,5.28,5.28,0,0,1,.23.72v.09s0,0,0,.05a15.32,15.32,0,0,1,.2,1.69v.24h0v0l-.18.25a3.65,3.65,0,0,1-.56.47h-.12c-.14,0-.46-.07-1-.12H91.7c-.45,0-.89,0-1.35.07h0a5.46,5.46,0,0,0-3.93,1.84,10.18,10.18,0,0,0-1.23,3,2.55,2.55,0,0,1-.63,1,1.85,1.85,0,0,0-.55,1.3,1.9,1.9,0,0,0,.93,1.63v0a7.41,7.41,0,0,0,2.5,1,5.64,5.64,0,0,0,.93.09,4,4,0,0,0,3.67-2,18.47,18.47,0,0,0,.6-1.83,17.29,17.29,0,0,1,1.63-2.25v0a2.62,2.62,0,0,0,.35-.74l.21.91a10,10,0,0,1,.3,1.44V175c0,.23-.12.55-.16,1.11a5.37,5.37,0,0,1-1.3,1.49l0,0A5,5,0,0,0,92,180.05l-.07.55a2.71,2.71,0,0,0,.33,1.21c-.79.3-1.61.58-2.4.86l-1.71.58,1.55.95a6.85,6.85,0,0,0,3.69,1c.91,0,1.75-.09,2.65-.12h.07c1.23,0,2.62.77,4.51.82l.34,0a4.42,4.42,0,0,0,2.56-1,3.38,3.38,0,0,0,1.37-2.46v-.24A5.47,5.47,0,0,0,104.28,180Zm-1.14,2.32a1.71,1.71,0,0,1-.72,1.25,2.93,2.93,0,0,1-1.62.61l-.23,0c-1.28,0-2.67-.79-4.51-.81H95.9c-1,0-1.81.11-2.56.11-.23,0-.46,0-.69,0,.51-.16,1-.35,1.53-.53l3.6-1.33L94,181.28l-.21-.14-.16-.54,0-.18a3.45,3.45,0,0,1,1.16-1.56h0a6.36,6.36,0,0,0,1.79-2.25l.07-.14v-.16c0-.21.14-.65.16-1.32v-.19a12.77,12.77,0,0,0-.34-1.72v0a8.21,8.21,0,0,1-.31-2,5.38,5.38,0,0,1,.07-.78l0-.12,0-.33-.07-.81-.51,0,0-.44c0-.76-.21-1.51-.23-1.92v0l0-.09v-.05a6.21,6.21,0,0,0-.27-.95,1.7,1.7,0,0,1-.14-.68v0l0,0a15.52,15.52,0,0,1,5.71-1.12l.84,0,.83.07v0l0,.16-.12.35,0,0a2.52,2.52,0,0,1-1.53.63l-2.23.4,2,1.16a1.23,1.23,0,0,1,.51,1.11,2.09,2.09,0,0,1-.12.67v0a6.73,6.73,0,0,1-1.74,2.13l-.44.4.21.53c1.28,3.07,2.53,6.13,3.78,9.2a4,4,0,0,1,.42,1.55Zm-12.07-7.36c-.3.74-.35,1.37-.56,1.72a2.38,2.38,0,0,1-2.16,1.09l-.63-.07-.2-.05a6.47,6.47,0,0,1-1.72-.76l0,0-.07-.14v-.07a4.19,4.19,0,0,0,1-1.62,10.39,10.39,0,0,1,1-2.58,4,4,0,0,1,2.77-1.21h0c.42,0,.79,0,1.19,0h.39a9.68,9.68,0,0,0,1,.11,1.84,1.84,0,0,1-.28,1.12,16.41,16.41,0,0,0-1.76,2.51Zm71.42-64.06-.09-.1-.63-.25v0h0a.77.77,0,0,1-.44-.46,2.2,2.2,0,0,1-.21-1l0-.16v0a25.39,25.39,0,0,0,.33-2.54l0-.6A7,7,0,0,0,159,102v0c-1.37-1.32-2.74-2.63-4.11-4a13.24,13.24,0,0,0-3.11-2.49c-1.72-.86-3.46-1-4.64-1.78a24,24,0,0,1-1.95-1.54,5.37,5.37,0,0,0-2.63-1.2l-.39,0a7,7,0,0,0-3.69,1.49h0a6.17,6.17,0,0,0-1.6,1.44,0,0,0,0,1,0,0,4.12,4.12,0,0,0-.65,2.35c0,1.23.32,2.41.32,3.36l0,.54a4.44,4.44,0,0,1-1.68,2.76,17.28,17.28,0,0,1-3.36,2c-.86.42-1.72.82-2.6,1.23a23,23,0,0,1-7.67,2.26,22.1,22.1,0,0,0-4.85.42,10.63,10.63,0,0,0-3.06,1.41v0l-.79.52,0,0c-.83.63-1.62,1.25-2.34,1.79h0c-1.33.95-3.07,2-4.67,3.29a11.66,11.66,0,0,0-3.81,4.62,15,15,0,0,0-.79,3.3,14,14,0,0,0-.16,2,5.5,5.5,0,0,0,.74,3.09,2.89,2.89,0,0,0,1.32,1,5,5,0,0,0,1.49.23,10.76,10.76,0,0,0,1.88-.21l.14,0a24.47,24.47,0,0,0,4.67-1.61,15.65,15.65,0,0,1,4.39-1.3h0l.33,0a1.11,1.11,0,0,1,.58.12,4.19,4.19,0,0,1,.58.79v0a5.74,5.74,0,0,0,4.55,2.46h.11c1.33,0,2.51-.39,3.44-.37a2.59,2.59,0,0,1,.95.16h0l.09.05a9.23,9.23,0,0,1,1.62,1.25h0a6.27,6.27,0,0,0,3.8,1.23c.31,0,.59,0,.89,0a6.13,6.13,0,0,0,1.74-.49l.14-.07a12.83,12.83,0,0,1,1.58-.79h0a4.91,4.91,0,0,1,1.21-.14l1.2,0a5.34,5.34,0,0,0,1.47-.16,8.35,8.35,0,0,0,3.46-2.28,52.6,52.6,0,0,1,7.52-5.87,8.82,8.82,0,0,0,2.14-1.69h0c.93-1.21,1.18-2.54,1.76-3.33a6.59,6.59,0,0,1,3.19-2,15.79,15.79,0,0,0,4.27-2,2.57,2.57,0,0,0,.67-.75,2.36,2.36,0,0,0,.33-1A1.48,1.48,0,0,0,162.49,110.88Zm-11,9.17a8.33,8.33,0,0,1-1.74,1.34h0a55.28,55.28,0,0,0-7.73,6l0,0a7.5,7.5,0,0,1-2.7,1.89h0a5.64,5.64,0,0,1-1,.09c-.37,0-.76,0-1.2,0a6.53,6.53,0,0,0-1.7.21l0,0a15.64,15.64,0,0,0-1.93.9,3.92,3.92,0,0,1-1.28.35,2.68,2.68,0,0,1-.65.05,4.61,4.61,0,0,1-2.78-.89,9.08,9.08,0,0,0-2-1.46l-.11,0,0,0a4.36,4.36,0,0,0-1.6-.28c-1.3,0-2.46.4-3.44.38h-.11a4.07,4.07,0,0,1-3.14-1.72s0,0,0,0a4,4,0,0,0-1-1.2v0h0a2.62,2.62,0,0,0-1.53-.41l-.52,0a17.71,17.71,0,0,0-4.87,1.41,23.2,23.2,0,0,1-4.46,1.54,9.21,9.21,0,0,1-1.58.18,2.36,2.36,0,0,1-.9-.14,1.27,1.27,0,0,1-.54-.37,4.17,4.17,0,0,1-.42-2.09,11.39,11.39,0,0,1,.14-1.72,15.6,15.6,0,0,1,.7-2.9,9.92,9.92,0,0,1,3.3-3.92c1.48-1.19,3.2-2.23,4.59-3.25.79-.56,1.56-1.19,2.35-1.77a0,0,0,0,0,0,0,6.19,6.19,0,0,0,.75-.51v0a9.4,9.4,0,0,1,2.57-1.23,25.18,25.18,0,0,1,4.51-.35,24.17,24.17,0,0,0,8.26-2.41c.91-.4,1.77-.82,2.65-1.23a18.1,18.1,0,0,0,3.72-2.3,6,6,0,0,0,2.27-3.83c0-.26,0-.49,0-.75,0-1.25-.33-2.43-.33-3.36a2.27,2.27,0,0,1,.37-1.4v0a4,4,0,0,1,1.17-1,5.53,5.53,0,0,1,2.76-1.2l.21,0h0a3.45,3.45,0,0,1,1.74.86c.63.49,1.28,1.11,2.09,1.63,1.67,1,3.49,1.16,4.79,1.85a12.88,12.88,0,0,1,2.69,2.19q2.06,2,4.11,4a5.49,5.49,0,0,1,1.88,2.76l0,.37a23.22,23.22,0,0,1-.32,2.37v0l0,.3a4.17,4.17,0,0,0,.35,1.72,2.68,2.68,0,0,0,1.35,1.3v0l.12,0-.24.3a13.82,13.82,0,0,1-3.8,1.77,7.79,7.79,0,0,0-4,2.62c-.84,1.21-1.1,2.46-1.72,3.2Zm11-9.17-.09-.1-.63-.25v0h0a.77.77,0,0,1-.44-.46,2.2,2.2,0,0,1-.21-1l0-.16v0a25.39,25.39,0,0,0,.33-2.54l0-.6A7,7,0,0,0,159,102v0c-1.37-1.32-2.74-2.63-4.11-4a13.24,13.24,0,0,0-3.11-2.49c-1.72-.86-3.46-1-4.64-1.78a24,24,0,0,1-1.95-1.54,5.37,5.37,0,0,0-2.63-1.2l-.39,0a7,7,0,0,0-3.69,1.49h0a6.17,6.17,0,0,0-1.6,1.44,0,0,0,0,1,0,0,4.12,4.12,0,0,0-.65,2.35c0,1.23.32,2.41.32,3.36l0,.54a4.44,4.44,0,0,1-1.68,2.76,17.28,17.28,0,0,1-3.36,2c-.86.42-1.72.82-2.6,1.23a23,23,0,0,1-7.67,2.26,22.1,22.1,0,0,0-4.85.42,10.63,10.63,0,0,0-3.06,1.41v0l-.79.52,0,0c-.83.63-1.62,1.25-2.34,1.79h0c-1.33.95-3.07,2-4.67,3.29a11.66,11.66,0,0,0-3.81,4.62,15,15,0,0,0-.79,3.3,14,14,0,0,0-.16,2,5.5,5.5,0,0,0,.74,3.09,2.89,2.89,0,0,0,1.32,1,5,5,0,0,0,1.49.23,10.76,10.76,0,0,0,1.88-.21l.14,0a24.47,24.47,0,0,0,4.67-1.61,15.65,15.65,0,0,1,4.39-1.3h0l.33,0a1.11,1.11,0,0,1,.58.12,4.19,4.19,0,0,1,.58.79v0a5.74,5.74,0,0,0,4.55,2.46h.11c1.33,0,2.51-.39,3.44-.37a2.59,2.59,0,0,1,.95.16h0l.09.05a9.23,9.23,0,0,1,1.62,1.25h0a6.27,6.27,0,0,0,3.8,1.23c.31,0,.59,0,.89,0a6.13,6.13,0,0,0,1.74-.49l.14-.07a12.83,12.83,0,0,1,1.58-.79h0a4.91,4.91,0,0,1,1.21-.14l1.2,0a5.34,5.34,0,0,0,1.47-.16,8.35,8.35,0,0,0,3.46-2.28,52.6,52.6,0,0,1,7.52-5.87,8.82,8.82,0,0,0,2.14-1.69h0c.93-1.21,1.18-2.54,1.76-3.33a6.59,6.59,0,0,1,3.19-2,15.79,15.79,0,0,0,4.27-2,2.57,2.57,0,0,0,.67-.75,2.36,2.36,0,0,0,.33-1A1.48,1.48,0,0,0,162.49,110.88Zm-11,9.17a8.33,8.33,0,0,1-1.74,1.34h0a55.28,55.28,0,0,0-7.73,6l0,0a7.5,7.5,0,0,1-2.7,1.89h0a5.64,5.64,0,0,1-1,.09c-.37,0-.76,0-1.2,0a6.53,6.53,0,0,0-1.7.21l0,0a15.64,15.64,0,0,0-1.93.9,3.92,3.92,0,0,1-1.28.35,2.68,2.68,0,0,1-.65.05,4.61,4.61,0,0,1-2.78-.89,9.08,9.08,0,0,0-2-1.46l-.11,0,0,0a4.36,4.36,0,0,0-1.6-.28c-1.3,0-2.46.4-3.44.38h-.11a4.07,4.07,0,0,1-3.14-1.72s0,0,0,0a4,4,0,0,0-1-1.2v0h0a2.62,2.62,0,0,0-1.53-.41l-.52,0a17.71,17.71,0,0,0-4.87,1.41,23.2,23.2,0,0,1-4.46,1.54,9.21,9.21,0,0,1-1.58.18,2.36,2.36,0,0,1-.9-.14,1.27,1.27,0,0,1-.54-.37,4.17,4.17,0,0,1-.42-2.09,11.39,11.39,0,0,1,.14-1.72,15.6,15.6,0,0,1,.7-2.9,9.92,9.92,0,0,1,3.3-3.92c1.48-1.19,3.2-2.23,4.59-3.25.79-.56,1.56-1.19,2.35-1.77a0,0,0,0,0,0,0,6.19,6.19,0,0,0,.75-.51v0a9.4,9.4,0,0,1,2.57-1.23,25.18,25.18,0,0,1,4.51-.35,24.17,24.17,0,0,0,8.26-2.41c.91-.4,1.77-.82,2.65-1.23a18.1,18.1,0,0,0,3.72-2.3,6,6,0,0,0,2.27-3.83c0-.26,0-.49,0-.75,0-1.25-.33-2.43-.33-3.36a2.27,2.27,0,0,1,.37-1.4v0a4,4,0,0,1,1.17-1,5.53,5.53,0,0,1,2.76-1.2l.21,0h0a3.45,3.45,0,0,1,1.74.86c.63.49,1.28,1.11,2.09,1.63,1.67,1,3.49,1.16,4.79,1.85a12.88,12.88,0,0,1,2.69,2.19q2.06,2,4.11,4a5.49,5.49,0,0,1,1.88,2.76l0,.37a23.22,23.22,0,0,1-.32,2.37v0l0,.3a4.17,4.17,0,0,0,.35,1.72,2.68,2.68,0,0,0,1.35,1.3v0l.12,0-.24.3a13.82,13.82,0,0,1-3.8,1.77,7.79,7.79,0,0,0-4,2.62c-.84,1.21-1.1,2.46-1.72,3.2ZM104.28,180c-1.18-2.88-2.37-5.78-3.53-8.64a6.73,6.73,0,0,0,1.74-2.37v0a3.27,3.27,0,0,0,.23-1.28,3.63,3.63,0,0,0-.27-1.37,2.94,2.94,0,0,0,1.18-.83l0,0a2.27,2.27,0,0,0,.51-1.44,2.24,2.24,0,0,0-.27-1,1.71,1.71,0,0,0-.93-.77l-.1,0-.09,0-.25,0-.84-.07-.93,0a17.48,17.48,0,0,0-6.34,1.23,1.78,1.78,0,0,0-.86.7,1.85,1.85,0,0,0-.25.92,5.35,5.35,0,0,0,.23,1.19,5.28,5.28,0,0,1,.23.72v.09s0,0,0,.05a15.32,15.32,0,0,1,.2,1.69v.24h0v0l-.18.25a3.65,3.65,0,0,1-.56.47h-.12c-.14,0-.46-.07-1-.12H91.7c-.45,0-.89,0-1.35.07h0a5.46,5.46,0,0,0-3.93,1.84,10.18,10.18,0,0,0-1.23,3,2.55,2.55,0,0,1-.63,1,1.85,1.85,0,0,0-.55,1.3,1.9,1.9,0,0,0,.93,1.63v0a7.41,7.41,0,0,0,2.5,1,5.64,5.64,0,0,0,.93.09,4,4,0,0,0,3.67-2,18.47,18.47,0,0,0,.6-1.83,17.29,17.29,0,0,1,1.63-2.25v0a2.62,2.62,0,0,0,.35-.74l.21.91a10,10,0,0,1,.3,1.44V175c0,.23-.12.55-.16,1.11a5.37,5.37,0,0,1-1.3,1.49l0,0A5,5,0,0,0,92,180.05l-.07.55a2.71,2.71,0,0,0,.33,1.21c-.79.3-1.61.58-2.4.86l-1.71.58,1.55.95a6.85,6.85,0,0,0,3.69,1c.91,0,1.75-.09,2.65-.12h.07c1.23,0,2.62.77,4.51.82l.34,0a4.42,4.42,0,0,0,2.56-1,3.38,3.38,0,0,0,1.37-2.46v-.24A5.47,5.47,0,0,0,104.28,180Zm-1.14,2.32a1.71,1.71,0,0,1-.72,1.25,2.93,2.93,0,0,1-1.62.61l-.23,0c-1.28,0-2.67-.79-4.51-.81H95.9c-1,0-1.81.11-2.56.11-.23,0-.46,0-.69,0,.51-.16,1-.35,1.53-.53l3.6-1.33L94,181.28l-.21-.14-.16-.54,0-.18a3.45,3.45,0,0,1,1.16-1.56h0a6.36,6.36,0,0,0,1.79-2.25l.07-.14v-.16c0-.21.14-.65.16-1.32v-.19a12.77,12.77,0,0,0-.34-1.72v0a8.21,8.21,0,0,1-.31-2,5.38,5.38,0,0,1,.07-.78l0-.12,0-.33-.07-.81-.51,0,0-.44c0-.76-.21-1.51-.23-1.92v0l0-.09v-.05a6.21,6.21,0,0,0-.27-.95,1.7,1.7,0,0,1-.14-.68v0l0,0a15.52,15.52,0,0,1,5.71-1.12l.84,0,.83.07v0l0,.16-.12.35,0,0a2.52,2.52,0,0,1-1.53.63l-2.23.4,2,1.16a1.23,1.23,0,0,1,.51,1.11,2.09,2.09,0,0,1-.12.67v0a6.73,6.73,0,0,1-1.74,2.13l-.44.4.21.53c1.28,3.07,2.53,6.13,3.78,9.2a4,4,0,0,1,.42,1.55Zm-12.07-7.36c-.3.74-.35,1.37-.56,1.72a2.38,2.38,0,0,1-2.16,1.09l-.63-.07-.2-.05a6.47,6.47,0,0,1-1.72-.76l0,0-.07-.14v-.07a4.19,4.19,0,0,0,1-1.62,10.39,10.39,0,0,1,1-2.58,4,4,0,0,1,2.77-1.21h0c.42,0,.79,0,1.19,0h.39a9.68,9.68,0,0,0,1,.11,1.84,1.84,0,0,1-.28,1.12,16.41,16.41,0,0,0-1.76,2.51Z" transform="translate(2.3 2.3)"/><path class="cls-4" d="M304,183.41a154.46,154.46,0,0,1-15.19,42,15.7,15.7,0,0,1-1-3.86,19.71,19.71,0,0,1,.37-5.2c.88-4.92,1.77-10,4.16-14.37,1.9-3.48,4.76-6.62,5.48-10.54.3-1.63.18-3.32.63-4.95s1.57-3.2,3.22-3.41A6.47,6.47,0,0,1,304,183.41Z" transform="translate(2.3 2.3)"/><path class="cls-5" d="M304.13,182.58a6.76,6.76,0,0,0-2.55-.33c-2.23.28-3.51,2.35-3.95,4a14.05,14.05,0,0,0-.41,3c-.07.67-.12,1.34-.24,2-.46,2.55-1.9,4.73-3.41,7.05-.67,1-1.37,2.14-2,3.26-2.47,4.5-3.37,9.63-4.25,14.62a21.26,21.26,0,0,0-.4,5.44,19.28,19.28,0,0,0,1.05,4l.25.72c.19-.33.37-.68.56-1a154.46,154.46,0,0,0,15.19-42c0-.27.11-.55.16-.83ZM289,223.24a11.08,11.08,0,0,1-.35-1.77,18.17,18.17,0,0,1,.39-5c.84-4.81,1.72-9.78,4-14.05.58-1.07,1.26-2.11,1.93-3.14,1.53-2.34,3.11-4.8,3.64-7.66.14-.74.19-1.49.26-2.23a14.44,14.44,0,0,1,.37-2.67c.33-1.25,1.21-2.62,2.51-2.76l.3,0a4.47,4.47,0,0,1,.91.12A153.13,153.13,0,0,1,289,223.24Z" transform="translate(2.3 2.3)"/><path class="cls-6" d="M108.78,147.67a19.81,19.81,0,0,1-7.14,15.23,16.47,16.47,0,0,0-6.9,1.14c-1.14.46-.26,1.82-.14,2.63a19.55,19.55,0,0,1-5.65.83,19.83,19.83,0,1,1,19.83-19.83Z" transform="translate(2.3 2.3)"/><path class="cls-6" d="M155.71,10.43A15.21,15.21,0,1,1,129.12.37a152.64,152.64,0,0,1,21-1.72h0a15.42,15.42,0,0,1,3.47,4A15.11,15.11,0,0,1,155.71,10.43Z" transform="translate(2.3 2.3)"/><circle class="cls-6" cx="178.19" cy="116.91" r="9.26"/><path class="cls-6" d="M19.11,164.86A18.52,18.52,0,0,1,1.7,183.34a156.27,156.27,0,0,1-3.08-31c0-2,0-4,.11-6,.61-.05,1.24-.08,1.87-.08A18.5,18.5,0,0,1,19.11,164.86Z" transform="translate(2.3 2.3)"/><circle class="cls-6" cx="35.71" cy="219.38" r="5.29"/><circle class="cls-6" cx="26.46" cy="126.16" r="7.93"/><path class="cls-6" d="M68.9,180.26a9,9,0,1,1-9-9A9,9,0,0,1,68.9,180.26Z" transform="translate(2.3 2.3)"/><path class="cls-6" d="M249.59,264.67a8.6,8.6,0,1,1-8.6-8.59A8.6,8.6,0,0,1,249.59,264.67Z" transform="translate(2.3 2.3)"/><path class="cls-6" d="M280,238.42a150,150,0,0,1-12.58,16.1,11.92,11.92,0,0,1-3.35-8.38A11.2,11.2,0,0,1,274,235.26,20.17,20.17,0,0,0,280,238.42Z" transform="translate(2.3 2.3)"/><circle class="cls-6" cx="171.9" cy="86.17" r="5.02"/><circle class="cls-6" cx="176.92" cy="19.07" r="4.63"/><path class="cls-6" d="M89.26,17.89A3.31,3.31,0,1,1,86,14.58,3.3,3.3,0,0,1,89.26,17.89Z" transform="translate(2.3 2.3)"/><path class="cls-6" d="M73.91,232.1a2.82,2.82,0,1,1-2.81-2.81A2.81,2.81,0,0,1,73.91,232.1Z" transform="translate(2.3 2.3)"/><path class="cls-6" d="M119.11,167.5a3.72,3.72,0,1,1-3.72-3.73A3.73,3.73,0,0,1,119.11,167.5Z" transform="translate(2.3 2.3)"/><path class="cls-6" d="M83.45,283.18l0,0a12.45,12.45,0,0,1-6.06,1.57,12.31,12.31,0,0,1-4.68-.91l-.05,0a11.24,11.24,0,0,1-3.55-2.22,12.26,12.26,0,0,1-4.17-9.26c0-.29,0-.55,0-.82.66.63,1.35,1.24,2,1.85,1.39,1.19,2.85,2.31,4.34,3.38a56.49,56.49,0,0,0,9.59,5.39C81.74,282.5,82.61,282.86,83.45,283.18Z" transform="translate(2.3 2.3)"/><path class="cls-6" d="M116.16,92.23A16.86,16.86,0,0,1,86.33,76.56a9,9,0,0,1,4.33,1.9C93.4,80.73,94.07,85.33,92,88a2.18,2.18,0,0,0,0,2.7A12.45,12.45,0,0,0,100,95.34a2.17,2.17,0,0,0,2.38-2.1,4.75,4.75,0,0,1,4.18-4C110,89.13,112.86,91.59,116.16,92.23Z" transform="translate(2.3 2.3)"/><path class="cls-6" d="M172.17,255.22h0a11.24,11.24,0,1,1-13.08-16.38h0a19.73,19.73,0,0,0,8.72.86,11.21,11.21,0,0,1,5.49,7C171.58,249,170.12,251.36,172.17,255.22Z" transform="translate(2.3 2.3)"/><path class="cls-6" d="M238.64,74.2a2.37,2.37,0,1,1-2.36-2.36A2.36,2.36,0,0,1,238.64,74.2Z" transform="translate(2.3 2.3)"/><path class="cls-6" d="M261,62.7a23.63,23.63,0,1,1-25.82-21.2A23.62,23.62,0,0,1,261,62.7Z" transform="translate(2.3 2.3)"/></g></g></g></svg>