<svg width="28" height="28" viewBox="0 0 28 28" fill="none" xmlns="http://www.w3.org/2000/svg">
<circle cx="14" cy="14" r="14" fill="#2769F8"/>
<path d="M14.8887 16.6543H12.3984C12.4049 16.0684 12.4505 15.5638 12.5352 15.1406C12.6263 14.7109 12.7793 14.3236 12.9941 13.9785C13.2155 13.6335 13.5085 13.2917 13.873 12.9531C14.179 12.6797 14.446 12.4193 14.6738 12.1719C14.9017 11.9245 15.0807 11.6706 15.2109 11.4102C15.3411 11.1432 15.4062 10.847 15.4062 10.5215C15.4062 10.1439 15.3477 9.83138 15.2305 9.58398C15.1198 9.33008 14.9505 9.13802 14.7227 9.00781C14.5013 8.8776 14.2214 8.8125 13.8828 8.8125C13.6029 8.8125 13.3424 8.87435 13.1016 8.99805C12.8607 9.11523 12.6621 9.29753 12.5059 9.54492C12.3561 9.79232 12.278 10.1178 12.2715 10.5215H9.43945C9.45898 9.62956 9.66406 8.89388 10.0547 8.31445C10.4518 7.72852 10.9824 7.29557 11.6465 7.01562C12.3105 6.72917 13.056 6.58594 13.8828 6.58594C14.7943 6.58594 15.5755 6.73568 16.2266 7.03516C16.8776 7.32812 17.3757 7.76107 17.7207 8.33398C18.0658 8.90039 18.2383 9.59049 18.2383 10.4043C18.2383 10.9707 18.1276 11.4753 17.9062 11.918C17.6849 12.3542 17.3952 12.7611 17.0371 13.1387C16.679 13.5163 16.2852 13.9069 15.8555 14.3105C15.4844 14.6426 15.2305 14.9909 15.0938 15.3555C14.9635 15.7201 14.8952 16.153 14.8887 16.6543ZM12.1055 19.6719C12.1055 19.2552 12.2487 18.9102 12.5352 18.6367C12.8216 18.3568 13.2057 18.2168 13.6875 18.2168C14.1628 18.2168 14.5436 18.3568 14.8301 18.6367C15.123 18.9102 15.2695 19.2552 15.2695 19.6719C15.2695 20.0755 15.123 20.4173 14.8301 20.6973C14.5436 20.9772 14.1628 21.1172 13.6875 21.1172C13.2057 21.1172 12.8216 20.9772 12.5352 20.6973C12.2487 20.4173 12.1055 20.0755 12.1055 19.6719Z" fill="white"/>
</svg>
