<?xml version="1.0" encoding="iso-8859-1"?>
<!-- Generator: Adobe Illustrator 19.0.0, SVG Export Plug-In . SVG Version: 6.00 Build 0)  -->
<svg version="1.1" id="Capa_1" xmlns="http://www.w3.org/2000/svg" xmlns:xlink="http://www.w3.org/1999/xlink" x="0px" y="0px"
	 viewBox="0 0 512 512" style="enable-background:new 0 0 512 512;" xml:space="preserve">
<polygon style="fill:#F2D788;" points="244.637,142.031 83.979,299.572 83.979,502 405.295,502 405.295,299.572 "/>
<path d="M367.025,325.642c-2.588,0-5.174-0.996-7.128-2.986c-3.87-3.94-3.827-10.258,0.114-14.128l0.027-0.027
	c3.94-3.87,10.272-3.813,14.141,0.127c3.87,3.94,3.813,10.271-0.127,14.141C372.102,324.685,369.562,325.642,367.025,325.642z"/>
<path d="M122.23,325.635c-2.592,0-5.182-1.001-7.141-2.999c-3.867-3.943-3.805-10.275,0.139-14.142l122.407-120.032
	c3.889-3.813,10.114-3.813,14.003,0l97.522,95.629c3.943,3.867,4.005,10.198,0.139,14.142c-3.868,3.943-10.199,4.005-14.142,0.139
	l-90.521-88.764L129.231,322.776C127.285,324.684,124.756,325.635,122.23,325.635z"/>
<polygon style="fill:#009797;" points="436.306,329.981 244.637,142.031 52.967,329.981 11.344,280.766 244.637,64.979 
	477.929,291.293 "/>
<rect x="211.482" y="359.902" style="fill:#FDB845;" width="66.31" height="142.101"/>
<rect x="313.462" y="359.902" style="fill:#53C3C0;" width="62.37" height="68.69"/>
<path d="M375.839,438.592h-62.375c-5.523,0-10-4.477-10-10V359.9c0-5.523,4.477-10,10-10h62.375c5.523,0,10,4.477,10,10v68.691
	C385.839,434.115,381.362,438.592,375.839,438.592z M323.463,418.591h42.375V369.9h-42.375V418.591z"/>
<rect x="113.431" y="359.902" style="fill:#53C3C0;" width="62.37" height="68.69"/>
<path d="M175.81,438.592h-62.375c-5.523,0-10-4.477-10-10V359.9c0-5.523,4.477-10,10-10h62.375c5.523,0,10,4.477,10,10v68.691
	C185.81,434.115,181.333,438.592,175.81,438.592z M123.435,418.591h42.375V369.9h-42.375
	C123.435,369.9,123.435,418.591,123.435,418.591z"/>
<polyline style="fill:#FDB845;" points="368.771,117.698 368.771,185.699 428.455,243.597 428.455,123.683 "/>
<path style="fill:#11AB67;" d="M395.689,38.041c-1.28-2-2.709-3.915-4.303-5.723c-25.194-28.587-81.798-19.875-81.798-19.875
	s-15.758,55.061,9.436,83.647c16.335,18.535,45.869,21.389,64.623,21.105"/>
<path style="fill:#34E184;" d="M477.054,106.758c-31.917,28.129-93.393,10.535-93.393,10.535s-9.727-63.199,22.19-91.328
	c31.917-28.129,93.393-10.535,93.393-10.535S508.971,78.629,477.054,106.758z"/>
<path d="M484.892,284.115l-46.437-45.047V132.052c15.993-1.636,32.451-6.546,45.21-17.791
	c35.611-31.385,25.893-97.55,25.462-100.352c-0.594-3.859-3.379-7.019-7.132-8.093c-2.725-0.78-67.144-18.737-102.756,12.647
	c-1.331,1.173-2.599,2.396-3.806,3.661C365.846-5.944,310.5,2.184,308.067,2.559c-3.859,0.594-7.019,3.379-8.093,7.132
	c-0.705,2.463-16.935,60.691,11.548,93.012c12.206,13.85,29.994,20.256,47.25,22.897v36.166L251.6,57.801
	c-3.813-3.699-9.854-3.771-13.753-0.164L4.554,273.425c-3.928,3.633-4.3,9.714-0.845,13.799l41.623,49.215
	c1.795,2.123,4.393,3.402,7.169,3.532c0.156,0.007,0.311,0.011,0.466,0.011c2.612,0,5.127-1.023,7.001-2.86l14.01-13.738V502
	c0,5.523,4.477,10,10,10h321.316c5.523,0,10-4.477,10-10V323.383l14.01,13.738c3.815,3.74,9.896,3.822,13.81,0.185l41.623-38.688
	c2.008-1.867,3.162-4.476,3.191-7.218C487.958,288.657,486.86,286.024,484.892,284.115z M412.464,33.468
	c21.892-19.294,62.122-13.226,77.667-9.933c1.713,19.665,0.527,57.904-19.689,75.72c-16.81,14.815-44.431,14.676-63.387,12.323
	l34.185-26.962l22.401,3.977c0.591,0.105,1.179,0.155,1.76,0.155c4.756,0,8.974-3.407,9.834-8.253
	c0.965-5.438-2.66-10.628-8.098-11.594l-4.875-0.866l13.076-10.313c4.336-3.42,5.079-9.708,1.659-14.044
	c-3.42-4.335-9.706-5.08-14.044-1.659l-26.13,20.608l1.461-7.786c1.019-5.428-2.557-10.654-7.984-11.673
	c-5.43-1.016-10.654,2.557-11.673,7.984l-5.687,30.312l-20.649,16.286c-0.229-15.418,1.522-37.616,11.477-53.813
	c0.261-0.358,0.497-0.732,0.707-1.118C406.722,39.361,409.363,36.2,412.464,33.468z M326.525,89.48
	c-16.65-18.893-11.779-53.525-8.832-67.836c14.548-1.123,49.409-1.599,66.093,17.181c-11.846,23.388-12.17,52.214-11.187,68.12
	C357.329,105.991,337.659,102.113,326.525,89.48z M378.771,127.198c0.806,0.011,1.604,0.017,2.394,0.017
	c0.287,0,0.573-0.001,0.858-0.002c4.162,1.106,18.685,4.647,36.433,5.378v87.075l-39.684-38.497v-53.97H378.771z M221.481,492V369.9
	h46.312V492H221.481z M395.295,492H287.793V359.9c0-5.523-4.477-10-10-10h-66.312c-5.523,0-10,4.477-10,10V492H93.979V303.771
	l150.658-147.735l150.658,147.735V492z M436.491,316.157L251.638,134.891c-1.944-1.907-4.473-2.86-7.001-2.86
	s-5.057,0.953-7.001,2.86L53.652,315.304l-28.495-33.692L244.473,78.753l218.934,212.384L436.491,316.157z"/>
<g>
</g>
<g>
</g>
<g>
</g>
<g>
</g>
<g>
</g>
<g>
</g>
<g>
</g>
<g>
</g>
<g>
</g>
<g>
</g>
<g>
</g>
<g>
</g>
<g>
</g>
<g>
</g>
<g>
</g>
</svg>
