<svg width="18" height="18" viewBox="0 0 18 18" fill="none" xmlns="http://www.w3.org/2000/svg">
<path d="M16.5 9.625V12.75H1.5V2.75H7.75V1.5H1.5C1.16848 1.5 0.850537 1.6317 0.616116 1.86612C0.381696 2.10054 0.25 2.41848 0.25 2.75V12.75C0.25 13.0815 0.381696 13.3995 0.616116 13.6339C0.850537 13.8683 1.16848 14 1.5 14H6.5V16.5H4V17.75H14V16.5H11.5V14H16.5C16.8315 14 17.1495 13.8683 17.3839 13.6339C17.6183 13.3995 17.75 13.0815 17.75 12.75V9.625H16.5ZM10.25 16.5H7.75V14H10.25V16.5Z" fill="black"/>
<path d="M17.75 5.25V4H16.4369C16.3563 3.60876 16.2009 3.23676 15.9794 2.90438L16.9106 1.97312L16.0269 1.08937L15.0956 2.02063C14.7632 1.79907 14.3912 1.64373 14 1.56312V0.25H12.75V1.56312C12.3588 1.64373 11.9868 1.79907 11.6544 2.02063L10.7231 1.08937L9.83938 1.97312L10.7706 2.90438C10.5491 3.23676 10.3937 3.60876 10.3131 4H9V5.25H10.3131C10.3937 5.64124 10.5491 6.01325 10.7706 6.34563L9.83938 7.27688L10.7231 8.16062L11.6544 7.22937C11.9868 7.45093 12.3588 7.60627 12.75 7.68688V9H14V7.68688C14.3912 7.60627 14.7632 7.45093 15.0956 7.22937L16.0269 8.16062L16.9106 7.27688L15.9794 6.34563C16.2009 6.01325 16.3563 5.64124 16.4369 5.25H17.75ZM13.375 6.5C13.0042 6.5 12.6416 6.39003 12.3333 6.18401C12.025 5.97798 11.7846 5.68514 11.6427 5.34253C11.5008 4.99992 11.4637 4.62292 11.536 4.25921C11.6084 3.89549 11.787 3.5614 12.0492 3.29917C12.3114 3.03695 12.6455 2.85838 13.0092 2.78603C13.3729 2.71368 13.7499 2.75081 14.0925 2.89273C14.4351 3.03464 14.728 3.27496 14.934 3.58331C15.14 3.89165 15.25 4.25416 15.25 4.625C15.2495 5.12213 15.0518 5.59875 14.7003 5.95028C14.3488 6.3018 13.8721 6.4995 13.375 6.5V6.5Z" fill="black"/>
</svg>
