<svg width="18" height="18" viewBox="0 0 18 18" fill="none" xmlns="http://www.w3.org/2000/svg">
<path fill-rule="evenodd" clip-rule="evenodd" d="M9 2.125C5.20304 2.125 2.125 5.20304 2.125 9C2.125 12.797 5.20304 15.875 9 15.875C12.797 15.875 15.875 12.797 15.875 9C15.875 5.20304 12.797 2.125 9 2.125ZM0.875 9C0.875 4.51269 4.51269 0.875 9 0.875C13.4873 0.875 17.125 4.51269 17.125 9C17.125 13.4873 13.4873 17.125 9 17.125C4.51269 17.125 0.875 13.4873 0.875 9Z" fill="black"/>
<path fill-rule="evenodd" clip-rule="evenodd" d="M9.00033 8.79199C8.88527 8.79199 8.79199 8.88527 8.79199 9.00033C8.79199 9.11539 8.88527 9.20866 9.00033 9.20866C9.11539 9.20866 9.20866 9.11539 9.20866 9.00033C9.20866 8.88527 9.11539 8.79199 9.00033 8.79199ZM7.54199 9.00033C7.54199 8.19491 8.19491 7.54199 9.00033 7.54199C9.80574 7.54199 10.4587 8.19491 10.4587 9.00033C10.4587 9.80574 9.80574 10.4587 9.00033 10.4587C8.19491 10.4587 7.54199 9.80574 7.54199 9.00033Z" fill="black"/>
<path fill-rule="evenodd" clip-rule="evenodd" d="M12.7751 5.22505C13.0192 5.46913 13.0192 5.86486 12.7751 6.10893L10.6167 8.26727C10.3727 8.51134 9.97694 8.51134 9.73286 8.26727C9.48879 8.02319 9.48879 7.62746 9.73286 7.38338L11.8912 5.22505C12.1353 4.98097 12.531 4.98097 12.7751 5.22505Z" fill="black"/>
<path fill-rule="evenodd" clip-rule="evenodd" d="M8.99967 5.45801C8.06037 5.45801 7.15953 5.83115 6.49534 6.49534C5.83115 7.15953 5.45801 8.06037 5.45801 8.99967C5.45801 9.34485 5.17819 9.62467 4.83301 9.62467C4.48783 9.62467 4.20801 9.34485 4.20801 8.99967C4.20801 7.72885 4.71284 6.51007 5.61145 5.61145C6.51007 4.71284 7.72885 4.20801 8.99967 4.20801C9.34485 4.20801 9.62467 4.48783 9.62467 4.83301C9.62467 5.17819 9.34485 5.45801 8.99967 5.45801Z" fill="black"/>
</svg>
