<svg id="Capa_1" enable-background="new 0 0 513.185 513.185" height="512" viewBox="0 0 513.185 513.185" width="512" xmlns="http://www.w3.org/2000/svg"><g><path d="m256.592 106.276c-60.525 0-117.429 23.57-160.227 66.368-41.025 41.025-64.367 95.013-66.232 152.726h-15.02c1.193-38.403 11.56-76.174 30.138-109.623 2.011-3.621.706-8.187-2.915-10.198-3.62-2.011-8.187-.706-10.198 2.915-20.841 37.523-31.954 80.155-32.138 123.291-.009 2.297.879 4.459 2.501 6.088 1.623 1.629 3.782 2.526 6.08 2.526h46.013c4.142 0 7.5-3.358 7.5-7.5s-3.358-7.5-7.5-7.5h-9.45c.281-8.114 1.004-16.151 2.182-24.076l17.578 3.293c.467.087.932.13 1.39.13 3.539 0 6.688-2.516 7.363-6.12.763-4.071-1.919-7.99-5.99-8.753l-17.608-3.299c4.236-19.061 11.093-37.352 20.378-54.448l15.461 9.092c1.194.703 2.503 1.036 3.795 1.036 2.57 0 5.074-1.323 6.472-3.699 2.1-3.57.908-8.167-2.663-10.267l-15.442-9.081c8.214-12.842 17.875-24.89 28.913-35.928 2.862-2.862 5.8-5.622 8.794-8.298l11.408 13.744c1.483 1.787 3.621 2.71 5.775 2.71 1.688 0 3.386-.567 4.786-1.729 3.188-2.646 3.626-7.374.981-10.561l-11.428-13.768c15.507-12.02 32.459-21.716 50.422-28.926l6.084 16.856c1.103 3.055 3.984 4.956 7.055 4.956.845 0 1.705-.144 2.546-.447 3.896-1.406 5.915-5.705 4.508-9.601l-6.081-16.848c18.341-5.872 37.57-9.235 57.27-9.917v17.853c0 4.142 3.358 7.5 7.5 7.5s7.5-3.358 7.5-7.5v-17.852c19.665.685 38.905 4.046 57.265 9.93l-6.076 16.834c-1.406 3.896.612 8.195 4.508 9.601.841.303 1.701.447 2.546.447 3.071 0 5.952-1.9 7.055-4.956l6.079-16.84c17.964 7.211 34.916 16.921 50.416 28.924l-11.417 13.754c-2.646 3.187-2.207 7.916.981 10.561 1.4 1.163 3.098 1.729 4.786 1.729 2.154 0 4.292-.923 5.775-2.71l11.403-13.737c1.827 1.632 3.638 3.287 5.415 4.989 2.991 2.864 7.739 2.76 10.604-.231 2.864-2.992 2.761-7.739-.231-10.604-42.324-40.52-97.943-62.836-156.61-62.836z"/><path d="m437.666 151.065c-48.422-48.229-112.729-74.789-181.073-74.789-41.379 0-80.883 9.552-117.415 28.389-34.841 17.966-65.612 44.164-88.987 75.761-2.463 3.33-1.761 8.026 1.569 10.49 3.331 2.464 8.027 1.761 10.49-1.569 22.016-29.76 50.994-54.432 83.803-71.35 34.385-17.731 71.577-26.721 110.541-26.721 64.349 0 124.896 25.008 170.488 70.417 44.051 43.875 69.116 101.787 70.993 163.677h-15.018c-1.537-48.259-17.896-93.626-47.567-131.627-2.55-3.265-7.263-3.845-10.527-1.296s-3.845 7.263-1.296 10.527c4.101 5.251 7.919 10.659 11.47 16.199l-15.451 9.086c-3.571 2.1-4.763 6.696-2.663 10.267 1.397 2.376 3.901 3.699 6.472 3.699 1.292 0 2.601-.334 3.795-1.036l15.496-9.113c9.335 17.141 16.163 35.417 20.377 54.462l-17.642 3.305c-4.071.763-6.753 4.682-5.99 8.753.675 3.604 3.824 6.12 7.363 6.12.458 0 .923-.042 1.39-.13l17.599-3.297c1.169 7.922 1.893 15.957 2.169 24.08h-9.458c-4.142 0-7.5 3.358-7.5 7.5s3.358 7.5 7.5 7.5h46.013c2.298 0 4.457-.897 6.08-2.526 1.622-1.629 2.51-3.791 2.501-6.089-.294-68.305-27.114-132.475-75.522-180.689z"/><path d="m391.188 217.973c-1.65-1.868-4.118-2.789-6.593-2.472l-1.447.189c-17.706 2.315-34.27 9.635-47.902 21.167l-81.733 69.145c-9.472 8.013-10.658 22.238-2.646 31.709 4.445 5.254 10.799 7.959 17.195 7.958 5.135 0 10.297-1.745 14.515-5.312l29.789-25.2c3.162-2.675 3.557-7.408.882-10.57-2.675-3.161-7.407-3.557-10.57-.882l-29.788 25.2c-1.53 1.294-3.472 1.911-5.468 1.749-1.997-.167-3.809-1.101-5.102-2.63-1.294-1.53-1.915-3.472-1.749-5.468.167-1.997 1.101-3.809 2.63-5.102l81.733-69.145c8.598-7.274 18.588-12.549 29.329-15.542-4.728 10.823-11.861 20.411-21.017 28.156l-25.937 21.942c-3.162 2.675-3.557 7.408-.882 10.57 2.676 3.162 7.408 3.558 10.57.882l25.937-21.942c14.718-12.451 25.054-28.895 29.892-47.556.626-2.411.012-4.977-1.638-6.846z"/><path d="m364.316 291.639c-3.957 1.225-6.172 5.425-4.947 9.382 3.18 10.275 4.792 20.991 4.792 31.849 0 4.142 3.358 7.5 7.5 7.5s7.5-3.358 7.5-7.5c0-12.364-1.838-24.571-5.463-36.284-1.224-3.957-5.424-6.171-9.382-4.947z"/><path d="m311.779 223.407c-17.217-8.696-35.785-13.106-55.187-13.106-67.585 0-122.569 54.984-122.569 122.569 0 4.142 3.358 7.5 7.5 7.5s7.5-3.358 7.5-7.5c0-59.314 48.255-107.569 107.569-107.569 17.031 0 33.323 3.867 48.424 11.495 3.698 1.868 8.208.384 10.076-3.313s.384-8.209-3.313-10.076z"/><path d="m377.358 369.064h-30.153c-4.262 0-8.185 1.439-11.346 3.834-3.161-2.395-7.084-3.834-11.346-3.834h-30.153c-4.262 0-8.185 1.439-11.346 3.834-3.161-2.395-7.084-3.834-11.346-3.834h-30.153c-4.262 0-8.185 1.439-11.346 3.834-3.161-2.395-7.084-3.834-11.346-3.834h-30.153c-4.262 0-8.185 1.439-11.346 3.834-3.161-2.395-7.084-3.834-11.346-3.834h-30.153c-10.392 0-18.846 8.454-18.846 18.846v30.153c0 10.392 8.455 18.846 18.846 18.846h30.153c4.262 0 8.185-1.439 11.346-3.834 3.161 2.395 7.084 3.834 11.346 3.834h30.153c4.262 0 8.185-1.439 11.346-3.834 3.161 2.395 7.084 3.834 11.346 3.834h30.153c4.262 0 8.185-1.439 11.346-3.834 3.161 2.395 7.084 3.834 11.346 3.834h30.153c4.262 0 8.185-1.439 11.346-3.834 3.161 2.395 7.084 3.834 11.346 3.834h30.153c10.392 0 18.846-8.455 18.846-18.846v-30.153c.001-10.392-8.454-18.846-18.846-18.846zm-211.379 52.845h-30.153c-2.121 0-3.846-1.726-3.846-3.846v-30.153c0-2.121 1.726-3.846 3.846-3.846h30.153c2.121 0 3.846 1.725 3.846 3.846v30.153c0 2.12-1.725 3.846-3.846 3.846zm52.845 0h-30.153c-2.121 0-3.846-1.726-3.846-3.846v-30.153c0-2.121 1.726-3.846 3.846-3.846h30.153c2.121 0 3.846 1.725 3.846 3.846v30.153c0 2.12-1.726 3.846-3.846 3.846zm52.845 0h-30.153c-2.121 0-3.846-1.726-3.846-3.846v-30.153c0-2.121 1.725-3.846 3.846-3.846h30.153c2.121 0 3.846 1.725 3.846 3.846v30.153c0 2.12-1.725 3.846-3.846 3.846zm52.845 0h-30.153c-2.121 0-3.846-1.726-3.846-3.846v-30.153c0-2.121 1.726-3.846 3.846-3.846h30.153c2.121 0 3.846 1.725 3.846 3.846v30.153c0 2.12-1.726 3.846-3.846 3.846zm56.691-3.846c0 2.121-1.726 3.846-3.846 3.846h-30.153c-2.121 0-3.846-1.726-3.846-3.846v-30.153c0-2.121 1.725-3.846 3.846-3.846h30.153c2.121 0 3.846 1.725 3.846 3.846z"/></g></svg>