<svg width="21" height="22" viewBox="0 0 21 22" fill="none" xmlns="http://www.w3.org/2000/svg">
<g clip-path="url(#clip0_3427_45538)">
<path d="M14.2281 16.7344C14.2401 16.7534 14.2476 16.7749 14.2499 16.7974C14.2469 16.7759 14.2393 16.7555 14.2275 16.7374L14.2281 16.7344Z" fill="white"/>
<path d="M18.3111 1.09072C17.8728 0.656232 17.3359 0.338737 16.7481 0.166453C16.2345 0.0205835 15.6996 -0.0322352 15.168 0.0104067C14.7162 0.0434958 14.2701 0.132785 13.8396 0.276284C13.5486 0.362636 13.2654 0.474486 12.9933 0.610582C12.6922 0.773229 12.3804 0.910669 12.0869 1.09072C11.5565 1.41242 11.026 1.74251 10.4927 2.0564C9.88504 2.41291 9.28566 2.78502 8.68687 3.15832C8.3421 3.37319 8.00086 3.59405 7.65785 3.81311C7.31485 4.03218 6.96772 4.26325 6.62412 4.49131C6.38425 4.65036 6.14202 4.8082 5.91041 4.97985C5.69058 5.1419 5.4566 5.28474 5.25268 5.469C5.18755 5.49214 5.13029 5.5338 5.08766 5.58903C4.89888 5.71241 4.71888 5.84919 4.54899 5.99835C4.46574 6.04252 4.3909 6.10146 4.32798 6.1724C4.29428 6.19017 4.2618 6.21022 4.23074 6.23242C3.94136 6.47249 3.64786 6.70656 3.36438 6.95263C2.99132 7.27912 2.62768 7.61282 2.28114 7.97293C2.12555 8.13377 1.97821 8.30482 1.8291 8.47167C1.72406 8.59485 1.62794 8.72564 1.54149 8.86298C1.15075 9.45056 0.784757 10.0513 0.539584 10.7235C0.294411 11.3957 0.116425 12.0337 0.0651511 12.6081C0.0262535 13.033 -0.0250199 13.4579 0.0162352 13.884C0.0403989 14.1241 0.0439346 14.372 0.100513 14.6103C0.137053 14.7681 0.130571 14.9308 0.180077 15.0904C0.33272 15.5783 0.468861 16.0729 0.714623 16.523C0.874647 16.8274 1.05175 17.1222 1.24505 17.4059C1.46782 17.7216 1.6794 18.0463 1.92988 18.3421C2.25992 18.7305 2.58937 19.1224 2.94122 19.4891C3.05909 19.6091 3.17402 19.7334 3.29896 19.8462C3.47577 20.0076 3.66024 20.1613 3.84353 20.3155C4.00093 20.4582 4.16664 20.5911 4.33977 20.7134C4.53426 20.8395 4.71813 20.9829 4.92912 21.0873C5.12656 21.1846 5.30808 21.3154 5.50847 21.4048C5.756 21.5141 5.99822 21.6401 6.26402 21.7049C6.37836 21.7331 6.49446 21.831 6.58876 21.834C6.79032 21.8412 6.97302 21.915 7.16692 21.9396C7.74685 22.014 8.32265 22.0398 8.90199 21.933C9.23557 21.8795 9.56447 21.7992 9.88563 21.6929C10.2202 21.5793 10.5446 21.4365 10.8551 21.2662C11.1463 21.1017 11.4539 20.9631 11.7309 20.7765C12.0277 20.5822 12.3125 20.3696 12.5837 20.1397C12.9535 19.8213 13.2991 19.4748 13.6174 19.1032C13.806 18.8805 13.9711 18.6416 14.1479 18.4106C14.3133 18.1877 14.4587 17.9501 14.5822 17.7006C14.6404 17.6295 14.6852 17.5481 14.7142 17.4605C14.772 17.3766 14.8216 17.2872 14.8622 17.1934C14.9117 17.0884 14.9624 16.9827 15.0119 16.8777C15.0449 16.8051 15.0773 16.7319 15.1091 16.6599C15.1505 16.5964 15.1798 16.5255 15.1952 16.451C15.2357 16.3984 15.2632 16.3367 15.2753 16.2709C15.3079 16.2253 15.3293 16.1725 15.3378 16.1167C15.4617 15.8463 15.5699 15.5688 15.6619 15.2855C15.9171 14.5466 16.17 13.8072 16.4281 13.0696C16.4722 12.9574 16.5224 12.8478 16.5784 12.7413C16.6249 12.6423 16.6373 12.5132 16.6851 12.407C16.8198 12.0877 16.9717 11.7761 17.14 11.4737C17.4524 10.9246 17.8473 10.4534 18.3659 10.1017C18.6707 9.89175 18.9624 9.66264 19.2393 9.41575C19.7839 8.93561 20.2507 8.39245 20.5766 7.73226C20.7421 7.40429 20.8611 7.05411 20.9302 6.69215C21.0147 6.2455 21.0244 5.78752 20.9591 5.33756C20.9352 5.13468 20.8958 4.93402 20.8412 4.73738C20.7665 4.50142 20.6791 4.26981 20.5795 4.04358C20.3215 3.47197 19.9925 2.93644 19.6006 2.45012C19.2128 1.95797 18.7584 1.52765 18.3111 1.09072ZM0.787115 13.8192C0.720518 12.5469 1.02286 11.3585 1.60102 10.238C1.91132 9.64291 2.2993 9.09337 2.75439 8.60431C3.27598 8.04315 3.85355 7.5474 4.44114 7.06066C4.93679 6.65074 5.44953 6.26303 5.96993 5.88672C6.53689 5.4782 7.11407 5.08368 7.70147 4.70317C8.2867 4.32266 8.8737 3.94515 9.46954 3.58265L11.6985 2.22745C12.2 1.92316 12.6963 1.60687 13.2308 1.3602C13.8791 1.06011 14.5463 0.839249 15.2606 0.789434C16.0857 0.729417 16.8589 0.886662 17.5219 1.41542C17.8202 1.64674 18.0665 1.94015 18.2446 2.27609C18.4226 2.61203 18.5283 2.98277 18.5545 3.36358C18.6235 4.17802 18.3871 4.90003 17.8862 5.53862C17.4536 6.09018 16.8913 6.45208 16.2743 6.74737C15.6977 7.01858 15.1763 7.39766 14.7372 7.86489C14.2593 8.37684 13.9439 8.98722 13.7353 9.65822C13.532 10.3064 13.4182 10.9744 13.2927 11.6388C13.1059 12.6165 12.8625 13.5744 12.3992 14.4596C12.1132 15.0051 11.7659 15.5148 11.3643 15.9787C10.9445 16.4638 10.4812 16.908 9.98051 17.3056C9.24264 17.8956 8.46468 18.4178 7.55295 18.6902C6.05539 19.1386 4.63562 18.9267 3.28835 18.1501C2.83651 17.8866 2.43 17.5496 2.08488 17.1526C1.25919 16.1995 0.852534 15.0748 0.787115 13.8192ZM19.8752 4.34247C20.154 4.98105 20.2966 5.64365 20.2023 6.34645C20.119 6.93514 19.8885 7.49212 19.5328 7.96392C19.1094 8.53045 18.5906 9.01592 18.0005 9.39774C17.3045 9.86287 16.7911 10.4931 16.3933 11.2289C15.9507 12.0463 15.6543 12.925 15.3572 13.803C15.1256 14.4872 14.8975 15.1732 14.6235 15.8436L14.5174 16.1095C14.4702 16.2103 14.4229 16.3104 14.3754 16.4096C14.3837 16.4115 14.3924 16.4115 14.4007 16.4096C14.3926 16.4127 14.3839 16.4138 14.3754 16.4126L14.2268 16.7385C14.2388 16.7575 14.2463 16.779 14.2486 16.8015C14.2456 16.7801 14.238 16.7596 14.2263 16.7415L14.0494 17.0872C14.043 17.095 14.0371 17.1034 14.0306 17.1118L14.0135 17.137C14.0023 17.155 13.9911 17.1718 13.9805 17.1898C13.9699 17.2078 13.9711 17.2078 13.9658 17.2168C13.9563 17.2352 13.9475 17.2538 13.9392 17.2726C13.9351 17.2822 13.931 17.2918 13.9274 17.3014C13.6743 17.7312 13.3903 18.1412 13.0776 18.5282C12.71 18.9672 12.2979 19.3656 11.8482 19.7165C11.2487 20.1766 10.5917 20.5532 9.89447 20.8365C9.66865 20.9349 9.43475 21.0128 9.19549 21.0693L9.12005 21.0987C9.04519 21.1037 8.97148 21.1201 8.9014 21.1474C8.8902 21.1366 8.88018 21.1384 8.87134 21.151C8.48974 21.2094 8.10323 21.2275 7.71797 21.205C6.89994 21.145 6.14733 20.8761 5.43715 20.4734C4.88683 20.1561 4.37289 19.7775 3.90482 19.3444C3.88773 19.333 3.87005 19.3216 3.87005 19.2976L3.91307 19.3126C4.57989 19.5602 5.28267 19.6925 5.99233 19.7039C6.89193 19.7134 7.78181 19.5139 8.59434 19.1206C9.71412 18.5804 10.6695 17.8068 11.5411 16.9215C12.3632 16.0964 13.0088 15.107 13.4371 14.0155C13.7282 13.2707 13.9056 12.4958 14.0553 11.712C14.182 11.047 14.2911 10.3772 14.5144 9.73504C14.78 8.94531 15.2971 8.26865 15.9837 7.81268C16.3756 7.5474 16.8141 7.37515 17.2137 7.12908C17.7232 6.82231 18.1724 6.42204 18.5386 5.94854C19.069 5.25353 19.3201 4.47271 19.3313 3.60125C19.3313 3.56704 19.3313 3.53283 19.3313 3.49922C19.3313 3.46561 19.3266 3.4332 19.323 3.36839C19.5381 3.6738 19.7231 4.00007 19.8752 4.34247Z" fill="white"/>
<path d="M14.2281 16.7344C14.2401 16.7534 14.2476 16.7749 14.2499 16.7974C14.2469 16.7759 14.2393 16.7555 14.2275 16.7374L14.2281 16.7344Z" fill="white"/>
<path d="M3.91314 19.3138C3.91019 19.324 3.90784 19.3348 3.90489 19.3456C3.8878 19.3342 3.87012 19.3228 3.87012 19.2988L3.91314 19.3138Z" fill="white"/>
<path d="M15.8564 2.17439C15.4998 1.97933 15.1097 1.92352 14.7107 1.94032C13.9616 1.97213 13.2679 2.217 12.6055 2.5525C11.4822 3.12206 10.4113 3.78586 9.34633 4.45925C8.40768 5.05383 7.48907 5.68061 6.5905 6.3396C5.86441 6.87256 5.15187 7.41992 4.46881 8.01109C3.80166 8.58666 3.16044 9.18743 2.66479 9.93165C1.9994 10.9285 1.60394 12.0113 1.67525 13.2326C1.72836 14.3886 2.2233 15.4777 3.05435 16.2671C3.1495 16.3745 3.25808 16.4687 3.37732 16.5474C3.53463 16.69 3.70958 16.8111 3.89772 16.9075C3.91363 16.9195 3.93014 16.9303 3.94664 16.9411L3.9543 16.9453C3.97021 16.9555 3.98612 16.9657 4.00263 16.9747C4.01913 16.9837 4.03858 16.9951 4.05685 17.0041L4.11166 17.0329L4.20065 17.0773L4.24544 17.0995C4.27668 17.1145 4.30791 17.1289 4.33974 17.1427C4.45761 17.1938 4.57548 17.2406 4.69335 17.2814C4.73402 17.2958 4.7741 17.309 4.81476 17.3216C4.88077 17.3426 4.94796 17.3618 5.01455 17.3816C5.0399 17.3888 5.06465 17.3954 5.09058 17.4014L5.11416 17.4074L5.19667 17.426C5.22849 17.4332 5.26032 17.4398 5.29273 17.4458C5.33458 17.4536 5.37701 17.4614 5.41885 17.468C5.4607 17.4746 5.50313 17.4806 5.54556 17.4866C5.588 17.4927 5.62984 17.4969 5.67169 17.5005C5.69408 17.5035 5.71648 17.5053 5.73887 17.5065L5.79781 17.5113L5.90625 17.5167C5.94515 17.5167 5.98346 17.5167 6.02412 17.5167C6.03097 17.5175 6.0379 17.5175 6.04475 17.5167C6.08483 17.5167 6.12431 17.5167 6.16262 17.5167L6.27401 17.5125C6.29464 17.5125 6.31468 17.5125 6.33295 17.5089C6.43078 17.5029 6.52861 17.4933 6.62763 17.48C6.65827 17.4764 6.68656 17.4716 6.71898 17.4668C6.75139 17.462 6.78911 17.456 6.82388 17.4494C6.85865 17.4428 6.87869 17.4398 6.9058 17.4338C6.97358 17.4206 7.04077 17.4062 7.10795 17.3888C7.13742 17.3822 7.16689 17.3744 7.19636 17.366C7.24527 17.3534 7.29478 17.3396 7.3437 17.3252C8.04032 17.1163 8.65207 16.7484 9.21491 16.2863C10.1154 15.5475 10.9146 14.7186 11.5169 13.7055C12.025 12.8503 12.3344 11.92 12.5401 10.9489C12.6845 10.2653 12.7835 9.56854 12.9897 8.90115C13.196 8.23375 13.5408 7.64618 14.0689 7.17985C14.2793 6.99439 14.5121 6.84375 14.7354 6.6775C14.8142 6.64448 14.8873 6.59912 14.9523 6.54306C15.0281 6.50315 15.0982 6.45309 15.1609 6.39422C15.2196 6.35733 15.273 6.31228 15.3195 6.26038C15.3769 6.2261 15.4283 6.18228 15.4715 6.13074C15.516 6.10701 15.5546 6.07312 15.5841 6.03171C15.647 5.98569 15.7005 5.92758 15.7415 5.86066C15.8007 5.82166 15.8496 5.76824 15.8835 5.70522C15.9308 5.6697 15.968 5.62207 15.9913 5.56718C16.0338 5.5401 16.0662 5.49932 16.0833 5.45134C16.51 4.87037 16.7781 4.23359 16.7098 3.49297C16.655 2.9072 16.3738 2.45647 15.8564 2.17439ZM15.9524 3.85488C15.9047 4.29241 15.7138 4.66691 15.4692 5.01982C15.425 5.08404 15.3584 5.13085 15.3289 5.20707C15.2381 5.3031 15.1238 5.37512 15.046 5.48555C15.0177 5.52276 14.9688 5.53837 14.9517 5.58638L14.5686 5.88647C14.5008 5.92031 14.4378 5.96331 14.3812 6.01431C14.0244 6.21428 13.6959 6.46262 13.4046 6.75252C12.7015 7.41932 12.3332 8.26796 12.1145 9.19943C11.9501 9.89564 11.8464 10.605 11.6731 11.3C11.419 12.3525 10.9381 13.3341 10.2651 14.1737C9.82972 14.7062 9.3426 15.1926 8.8112 15.6255C8.31731 16.0324 7.78512 16.3589 7.17573 16.5462C6.35063 16.8006 5.5326 16.8036 4.72282 16.4808C4.7075 16.4748 4.691 16.4712 4.67508 16.4664L4.52244 16.4003L4.27196 16.2665C4.22501 16.221 4.16974 16.1853 4.1093 16.1615L3.87945 15.9862C3.82523 15.943 3.77219 15.8998 3.71856 15.856C3.66492 15.8122 3.62131 15.7599 3.57298 15.7119C3.55825 15.7257 3.5447 15.7401 3.53114 15.7539C3.54411 15.7395 3.55766 15.7251 3.5724 15.7113C3.517 15.6513 3.46277 15.5949 3.40737 15.5361C2.94977 15.0271 2.63933 14.3992 2.51037 13.7217C2.33828 12.8083 2.4921 11.9404 2.88285 11.1092C3.25002 10.329 3.78162 9.68077 4.40457 9.1016C4.92674 8.61666 5.47425 8.16353 6.03414 7.72601C6.64 7.25307 7.26001 6.80054 7.88944 6.36061C8.98958 5.59198 10.117 4.86697 11.2718 4.18557C11.9849 3.76545 12.6898 3.32192 13.4618 3.01643C13.9799 2.81117 14.5115 2.66413 15.0796 2.73375C15.6737 2.80577 16.0202 3.2463 15.9524 3.85368V3.85488Z" fill="white"/>
<path d="M6.57435 9.24156C6.05041 9.26916 5.58599 9.46962 5.1646 9.78171C4.57524 10.2198 4.15739 10.7762 3.99414 11.5096C3.87214 12.0606 3.95347 12.5743 4.32595 13.01C4.66011 13.3996 5.10095 13.5502 5.59778 13.5376C6.27436 13.5184 6.83543 13.2219 7.33815 12.7796C7.44262 12.6871 7.54014 12.5868 7.62988 12.4795C7.99234 12.0474 8.23928 11.563 8.28584 10.9893C8.31943 10.5847 8.24105 10.2042 7.99823 9.87534C7.64344 9.3928 7.14897 9.21095 6.57435 9.24156ZM7.5014 11.0703C7.41536 11.4844 7.16783 11.9003 6.77649 12.2526C6.46413 12.5119 6.06927 12.7292 5.59248 12.7556C5.00312 12.7874 4.62593 12.3601 4.72966 11.7725C4.8269 11.2155 5.12865 10.7894 5.56536 10.4521C5.86154 10.2121 6.21948 10.0644 6.59615 10.0266C6.80601 9.99875 7.01886 10.0458 7.19847 10.1598C7.47076 10.3441 7.58097 10.6856 7.5014 11.0703Z" fill="white"/>
</g>
<defs>
<clipPath id="clip0_3427_45538">
<rect width="21" height="22" fill="white"/>
</clipPath>
</defs>
</svg>
