<svg width="71" height="68" viewBox="0 0 71 68" fill="none" xmlns="http://www.w3.org/2000/svg">
<path d="M13.333 16.7773H60.8319C61.7944 16.7774 62.7462 16.9791 63.6259 17.3695C64.5056 17.7598 65.2938 18.3302 65.9396 19.0438C66.5853 19.7575 67.0744 20.5985 67.3753 21.5127C67.6762 22.4269 67.7822 23.394 67.6864 24.3517L65.6197 45.0184C65.4498 46.7182 64.6542 48.2943 63.3876 49.4406C62.121 50.587 60.4736 51.2218 58.7653 51.2218H25.8708C24.2776 51.2225 22.7335 50.6709 21.5013 49.661C20.2691 48.6511 19.425 47.2454 19.1128 45.6832L13.333 16.7773Z" stroke="#FF2C2C" stroke-width="6" stroke-linejoin="round"/>
<path d="M13.3333 16.7778L10.5433 5.60745C10.3567 4.8626 9.92662 4.20145 9.32128 3.72904C8.71593 3.25662 7.97009 3.00002 7.20223 3H3" stroke="#FF2C2C" stroke-width="6" stroke-linecap="round" stroke-linejoin="round"/>
<path d="M23.667 65H30.5559" stroke="#FF2C2C" stroke-width="6" stroke-linecap="round" stroke-linejoin="round"/>
<path d="M51.2227 65H58.1116" stroke="#FF2C2C" stroke-width="6" stroke-linecap="round" stroke-linejoin="round"/>
</svg>
