<svg width="14" height="24" viewBox="0 0 14 24" fill="none" xmlns="http://www.w3.org/2000/svg">
<g clip-path="url(#clip0_3087_24801)">
<path d="M10.2889 18.4358L3.71186 19.0403C3.37984 19.0403 3.11133 18.8903 3.11133 18.7013V17.6408C3.11133 17.4533 3.38056 17.3018 3.71186 17.3018L10.2889 16.6973C10.6209 16.6973 10.8894 16.8473 10.8894 17.0363V18.0975C10.8901 18.2843 10.6209 18.4358 10.2889 18.4358Z" fill="#404040"/>
<path d="M10.8782 15.6078H3.12104C3.04696 15.6078 2.97591 15.5772 2.92352 15.5228C2.87114 15.4683 2.84171 15.3945 2.84171 15.3175V14.5218C2.83896 13.5394 2.49704 12.5907 1.87811 11.848C1.03245 10.8257 0.488052 9.572 0.310004 8.23673C0.131957 6.90145 0.327795 5.54114 0.874105 4.31845C1.42041 3.09576 2.29407 2.06244 3.39062 1.34204C4.48717 0.621631 5.7602 0.244631 7.0575 0.256114C8.35479 0.267597 9.62146 0.667076 10.706 1.40679C11.7906 2.1465 12.6472 3.19514 13.1734 4.42732C13.6996 5.6595 13.8731 7.02307 13.6732 8.35501C13.4733 9.68694 12.9084 10.9309 12.0461 11.938C11.4678 12.6219 11.1515 13.5027 11.1575 14.413V15.3168C11.1576 15.355 11.1505 15.3928 11.1365 15.4281C11.1225 15.4634 11.1019 15.4955 11.076 15.5225C11.05 15.5495 11.0192 15.571 10.9853 15.5856C10.9513 15.6003 10.915 15.6078 10.8782 15.6078V15.6078ZM3.71148 14.9935H10.2871C10.3237 14.9935 10.3601 14.986 10.394 14.9714C10.4278 14.9569 10.4586 14.9355 10.4846 14.9085C10.5105 14.8816 10.5311 14.8496 10.5451 14.8144C10.5592 14.7791 10.5664 14.7414 10.5664 14.7033V14.4138C10.5602 13.3528 10.9296 12.3264 11.6043 11.53C12.3901 10.6116 12.9049 9.47765 13.0874 8.2635C13.2699 7.04934 13.1122 5.80628 12.6334 4.68266C12.1545 3.55904 11.3746 2.60233 10.3867 1.9267C9.39882 1.25108 8.24471 0.88508 7.06212 0.872389C5.87952 0.859699 4.71838 1.20085 3.71729 1.85513C2.71619 2.50941 1.91743 3.44918 1.41631 4.56229C0.915203 5.67539 0.732915 6.91481 0.891207 8.13262C1.0495 9.35043 1.54168 10.4952 2.30902 11.4303C3.0266 12.2902 3.42513 13.3881 3.43286 14.5263V14.707C3.43286 14.7452 3.44009 14.7829 3.45412 14.8181C3.46816 14.8533 3.48874 14.8853 3.51468 14.9123C3.54062 14.9392 3.57141 14.9606 3.6053 14.9752C3.63919 14.9898 3.67551 14.9973 3.7122 14.9973L3.71148 14.9935Z" fill="#404040"/>
<path d="M10.8783 15.8631H3.12109C2.98179 15.8629 2.84825 15.8053 2.74974 15.7029C2.65124 15.6006 2.59582 15.4618 2.59563 15.3171V14.5213C2.59235 13.6003 2.27148 12.711 1.69121 12.0148C0.814157 10.9552 0.249411 9.65548 0.0645158 8.27113C-0.120379 6.88679 0.0824038 5.4764 0.648613 4.20865C1.21482 2.9409 2.12049 1.86945 3.2573 1.12244C4.39411 0.375434 5.71395 -0.0155135 7.05896 -0.00364378C8.40397 0.00822593 9.71722 0.42241 10.8417 1.18937C11.9661 1.95634 12.8541 3.04362 13.3995 4.32118C13.9449 5.59874 14.1246 7.0125 13.9171 8.39338C13.7096 9.77426 13.1237 11.0638 12.2295 12.1078C11.6917 12.7452 11.398 13.5657 11.4045 14.4133V15.3171C11.4043 15.4619 11.3487 15.6008 11.2501 15.7032C11.1514 15.8056 11.0177 15.8631 10.8783 15.8631V15.8631ZM7.00148 0.511311H6.90765C5.67018 0.529505 4.46335 0.913969 3.42872 1.61961C2.39409 2.32525 1.57456 3.32281 1.06624 4.49529C0.557928 5.66776 0.381906 6.96654 0.558824 8.23928C0.735742 9.51203 1.25826 10.706 2.0651 11.6811C2.72219 12.4702 3.08531 13.4778 3.08861 14.5213V15.3171C3.08861 15.3216 3.08947 15.3261 3.09114 15.3303C3.09281 15.3345 3.09526 15.3383 3.09834 15.3415C3.10142 15.3447 3.10508 15.3472 3.10911 15.3489C3.11314 15.3507 3.11746 15.3516 3.12182 15.3516H10.8783C10.8871 15.3516 10.8955 15.3479 10.9017 15.3415C10.908 15.335 10.9115 15.3262 10.9115 15.3171V14.4133C10.9052 13.44 11.2435 12.4983 11.8621 11.7673C12.6958 10.7933 13.2409 9.58958 13.4316 8.30115C13.6223 7.01271 13.4505 5.69447 12.9369 4.50513C12.4233 3.31578 11.5898 2.30604 10.5368 1.59747C9.48375 0.888905 8.25604 0.511713 7.00148 0.511311V0.511311ZM10.2849 15.2488H3.71225C3.57294 15.2486 3.4394 15.191 3.3409 15.0887C3.24239 14.9863 3.18697 14.8476 3.18678 14.7028V14.5228C3.17818 13.4457 2.80076 12.4069 2.12213 11.5926C1.32455 10.6198 0.813182 9.42914 0.649055 8.16266C0.484927 6.89618 0.674971 5.60737 1.19651 4.45005C1.71804 3.29273 2.54904 2.31577 3.59032 1.63577C4.63161 0.955772 5.83921 0.601452 7.069 0.615096C8.29879 0.62874 9.49883 1.00977 10.5259 1.71272C11.553 2.41566 12.3637 3.41083 12.8614 4.57946C13.359 5.74809 13.5225 7.04082 13.3324 8.30337C13.1423 9.56592 12.6066 10.745 11.7892 11.6998C11.1546 12.4496 10.8076 13.4156 10.814 14.4141V14.7036C10.8136 14.8484 10.7579 14.9872 10.6591 15.0895C10.5603 15.1917 10.4265 15.249 10.2871 15.2488H10.2849ZM7.00148 1.12331H6.91559C5.79275 1.14048 4.69779 1.4892 3.75854 2.12876C2.81929 2.76831 2.07453 3.67231 1.6112 4.73519C1.14788 5.79808 0.985111 6.97599 1.14191 8.13139C1.29872 9.28679 1.76861 10.372 2.49674 11.2603C3.25202 12.1668 3.67193 13.3231 3.68121 14.5221V14.7028C3.68121 14.712 3.68471 14.7207 3.69094 14.7272C3.69716 14.7337 3.70561 14.7373 3.71441 14.7373H10.2893C10.2981 14.7373 10.3065 14.7337 10.3128 14.7272C10.319 14.7207 10.3225 14.712 10.3225 14.7028V14.4133C10.3161 13.2896 10.7076 12.2026 11.4225 11.3593C12.1804 10.4734 12.6758 9.3787 12.849 8.20706C13.0222 7.03541 12.8659 5.83672 12.3988 4.75524C11.9317 3.67377 11.1738 2.75561 10.2162 2.11126C9.25866 1.46691 8.1423 1.12383 7.00148 1.12331V1.12331Z" fill="#404040"/>
<path d="M10.2889 21.2131L3.71186 21.8176C3.37984 21.8176 3.11133 21.6676 3.11133 21.4786V20.4181C3.11133 20.2306 3.38056 20.0791 3.71186 20.0791L10.2889 19.4746C10.6209 19.4746 10.8894 19.6246 10.8894 19.8136V20.8749C10.8901 21.0631 10.6209 21.2131 10.2889 21.2131Z" fill="#404040"/>
<path d="M6.99904 24.0004C7.9511 24.0004 8.7227 23.4049 8.7227 22.6699H5.27539C5.27539 23.4049 6.04771 24.0004 6.99904 24.0004Z" fill="#404040"/>
</g>
<defs>
<clipPath id="clip0_3087_24801">
<rect width="14" height="24" fill="white"/>
</clipPath>
</defs>
</svg>
