<?xml version="1.0" encoding="UTF-8" standalone="no"?> <svg width="64" height="64" viewBox="0 0 64 64" fill="none" xmlns="http://www.w3.org/2000/svg">
<path d="M56 2.5H8C6.54212 2.50264 5.14471 3.08295 4.11383 4.11383C3.08295 5.14471 2.50264 6.54212 2.5 8V56C2.50264 57.4579 3.08295 58.8553 4.11383 59.8862C5.14471 60.917 6.54212 61.4974 8 61.5H56C57.4579 61.4974 58.8553 60.917 59.8862 59.8862C60.917 58.8553 61.4974 57.4579 61.5 56V8C61.4974 6.54212 60.917 5.14471 59.8862 4.11383C58.8553 3.08295 57.4579 2.50264 56 2.5V2.5ZM58.5 56C58.5 56.663 58.2366 57.2989 57.7678 57.7678C57.2989 58.2366 56.663 58.5 56 58.5H8C7.33696 58.5 6.70107 58.2366 6.23223 57.7678C5.76339 57.2989 5.5 56.663 5.5 56V8C5.5 7.33696 5.76339 6.70107 6.23223 6.23223C6.70107 5.76339 7.33696 5.5 8 5.5H21.36V26.5C21.3651 26.7851 21.4508 27.0628 21.6072 27.3012C21.7636 27.5396 21.9842 27.7288 22.2437 27.847C22.5031 27.9653 22.7907 28.0076 23.0732 27.9692C23.3557 27.9308 23.6215 27.8132 23.84 27.63L32 20.53L40.16 27.67C40.3785 27.8532 40.6443 27.9708 40.9268 28.0092C41.2093 28.0476 41.4969 28.0053 41.7563 27.887C42.0158 27.7688 42.2364 27.5796 42.3928 27.3412C42.5492 27.1028 42.6349 26.8251 42.64 26.54V5.5H56C56.663 5.5 57.2989 5.76339 57.7678 6.23223C58.2366 6.70107 58.5 7.33696 58.5 8V56Z" fill="black"/>
<path d="M52 44.29H43.75C43.3522 44.29 42.9706 44.4481 42.6893 44.7294C42.408 45.0107 42.25 45.3922 42.25 45.79C42.25 46.1879 42.408 46.5694 42.6893 46.8507C42.9706 47.132 43.3522 47.29 43.75 47.29H52C52.3978 47.29 52.7794 47.132 53.0607 46.8507C53.342 46.5694 53.5 46.1879 53.5 45.79C53.5 45.3922 53.342 45.0107 53.0607 44.7294C52.7794 44.4481 52.3978 44.29 52 44.29V44.29Z" fill="black"/>
<path d="M52 50.5H43.75C43.3522 50.5 42.9706 50.658 42.6893 50.9393C42.408 51.2206 42.25 51.6022 42.25 52C42.25 52.3978 42.408 52.7794 42.6893 53.0607C42.9706 53.342 43.3522 53.5 43.75 53.5H52C52.3978 53.5 52.7794 53.342 53.0607 53.0607C53.342 52.7794 53.5 52.3978 53.5 52C53.5 51.6022 53.342 51.2206 53.0607 50.9393C52.7794 50.658 52.3978 50.5 52 50.5Z" fill="black"/>
</svg>
