<svg width="20" height="18" viewBox="0 0 20 18" fill="none" xmlns="http://www.w3.org/2000/svg">
<path fill-rule="evenodd" clip-rule="evenodd" d="M12.5908 2.942C10.5503 2.942 8.89253 4.57504 8.89253 6.59375C8.89253 8.61246 10.5503 10.2455 12.5908 10.2455C14.6314 10.2455 16.2892 8.61246 16.2892 6.59375C16.2892 4.57504 14.6314 2.942 12.5908 2.942ZM8.06055 6.59375C8.06055 4.12764 10.0869 2.125 12.5908 2.125C15.0948 2.125 17.1212 4.12764 17.1212 6.59375C17.1212 9.05986 15.0948 11.0625 12.5908 11.0625C10.0869 11.0625 8.06055 9.05986 8.06055 6.59375Z" fill="black"/>
<path fill-rule="evenodd" clip-rule="evenodd" d="M4.30124 7.80376C3.32266 8.2372 2.73412 8.99187 2.3835 9.68856C2.19558 10.0619 2.08093 10.4095 2.0135 10.6635C1.97987 10.7901 1.95823 10.8926 1.94515 10.9621C1.93862 10.9969 1.93424 11.0233 1.93159 11.0404L1.92884 11.0588L1.92834 11.0625L1.92833 11.0625C1.92835 11.0624 1.92836 11.0623 1.50957 11.0223C1.09078 10.9824 1.0908 10.9823 1.09082 10.9821L1.09087 10.9818L1.09099 10.9808L1.09132 10.9783L1.09244 10.9702C1.09338 10.9635 1.09473 10.9542 1.09655 10.9425C1.10018 10.9192 1.10569 10.8861 1.11353 10.8444C1.1292 10.761 1.15425 10.643 1.19239 10.4993C1.26851 10.2127 1.39778 9.82019 1.61131 9.39592C2.03602 8.55202 2.81409 7.54513 4.21196 7.03392L4.47563 6.9375L4.67538 7.11396L4.67548 7.11405L4.6755 7.11407L4.67574 7.11428L4.67684 7.11522L4.68626 7.1232C4.6954 7.13086 4.71019 7.14304 4.73035 7.15896C4.77072 7.19085 4.83236 7.23755 4.9131 7.29303C5.07515 7.40437 5.31089 7.54879 5.60298 7.67968C6.18937 7.94244 6.97377 8.13872 7.84549 7.93908L8.06052 8.64606C6.91993 8.90728 5.91563 8.6427 5.21637 8.32936C4.86565 8.17221 4.58434 7.99978 4.39004 7.86628C4.35816 7.84438 4.32853 7.82346 4.30124 7.80376Z" fill="black"/>
<path fill-rule="evenodd" clip-rule="evenodd" d="M6.88222 0.907329C5.31053 0.907329 4.01208 2.23181 4.01208 3.84375C4.01208 5.45738 5.29214 6.78017 6.88222 6.78017H7.04248V7.625H6.88222C4.82635 7.625 3.18164 5.91665 3.18164 3.84375C3.18164 1.76917 4.84802 0.0625 6.88222 0.0625C8.28303 0.0625 9.52101 0.869965 10.1513 2.04374L9.42256 2.44877C8.93106 1.53351 7.96545 0.907329 6.88222 0.907329Z" fill="black"/>
<path fill-rule="evenodd" clip-rule="evenodd" d="M8.95979 11.4972L7.89618 12.3414L7.36328 11.6919L9.02233 10.375L9.291 10.6597C9.29108 10.6598 9.29134 10.66 9.29146 10.6602L9.2957 10.6645C9.29999 10.6689 9.30718 10.6762 9.3172 10.6861C9.33726 10.7059 9.36858 10.736 9.41055 10.7741C9.4946 10.8505 9.62074 10.9585 9.78401 11.0796C10.1119 11.3228 10.5818 11.613 11.1548 11.8099C12.2745 12.1946 13.8317 12.2429 15.5804 10.7505L15.7582 10.5988L15.9831 10.6668L15.8584 11.0657C15.9831 10.6668 15.9834 10.6669 15.9837 10.667L15.9844 10.6672L15.9859 10.6677L15.9901 10.669L16.0025 10.6729C16.0125 10.6762 16.026 10.6807 16.0428 10.6866C16.0763 10.6983 16.1229 10.7155 16.1806 10.7389C16.2961 10.7856 16.4566 10.8574 16.6466 10.9604C17.0265 11.1664 17.5273 11.4989 18.0228 12.0091C19.0229 13.0389 19.9696 14.7601 19.9057 17.5297L19.8963 17.9375H9.10353V17.1029H19.0589C19.0221 14.7966 18.2055 13.4056 17.4092 12.5857C16.9836 12.1475 16.5556 11.8641 16.237 11.6913C16.1206 11.6283 16.0192 11.5801 15.9384 11.5447C14.0151 13.0841 12.2118 13.0572 10.8749 12.5978C10.1967 12.3647 9.64952 12.0251 9.27317 11.746C9.15112 11.6555 9.04623 11.5708 8.95979 11.4972Z" fill="black"/>
<path fill-rule="evenodd" clip-rule="evenodd" d="M4.32323 10.375L8.06932 13.882L5.99218 13.8561C6.08013 14.9535 6.52936 15.7434 6.97312 16.2713C7.22182 16.5672 7.4698 16.7818 7.65331 16.921C7.74493 16.9905 7.82001 17.0409 7.87038 17.0729C7.89555 17.0889 7.91449 17.1003 7.92617 17.1071L7.93811 17.114L7.93868 17.1144L7.93942 17.1148L9.45416 17.9375L7.69671 17.8305C5.54076 17.6993 4.2863 16.6542 3.58483 15.6468C3.23735 15.1477 3.02532 14.6589 2.89989 14.2956C2.86172 14.185 2.83137 14.0855 2.80756 14.0001H0.393555L4.32323 10.375ZM3.56121 13.5571L3.56203 13.5617C3.56289 13.5664 3.56438 13.5743 3.56658 13.5853C3.57098 13.6073 3.57823 13.6413 3.58898 13.6858C3.6105 13.7747 3.64593 13.9047 3.70047 14.0627C3.80991 14.3797 3.99419 14.8032 4.29246 15.2316C4.71163 15.8336 5.35528 16.4473 6.35085 16.7923C6.33664 16.7759 6.32242 16.7592 6.3082 16.7422C5.71915 16.0414 5.13691 14.9654 5.13691 13.4652V13.0745L6.0426 13.0857L4.31883 11.472L2.41398 13.2292H3.50754L3.56121 13.5571Z" fill="black"/>
</svg>
