<?xml version="1.0" encoding="iso-8859-1"?>
<!-- Generator: Adobe Illustrator 19.0.0, SVG Export Plug-In . SVG Version: 6.00 Build 0)  -->
<svg version="1.1" id="Capa_1" xmlns="http://www.w3.org/2000/svg" xmlns:xlink="http://www.w3.org/1999/xlink" x="0px" y="0px"
	 viewBox="0 0 508 508" style="enable-background:new 0 0 508 508;" xml:space="preserve">
<g>
	<g>
		<path d="M284.3,136.9c11.4-9,18.8-23,18.8-38.6c0-27.1-22.1-49.2-49.2-49.2c-27.1,0-49.2,22.1-49.2,49.2
			c0,15.7,7.4,29.6,18.9,38.6c-34.8,13.6-59.8,49.9-59.8,92.5v8.2H344v-8.2h0.1C344.1,186.8,319.1,150.5,284.3,136.9z M221.2,98.3
			c0-18.1,14.7-32.8,32.8-32.8c18.1,0,32.8,14.7,32.8,32.8c0,18.1-14.7,32.8-32.8,32.8C235.9,131.1,221.2,116.4,221.2,98.3z
			 M180.7,221.2c3.7-41.3,35.2-73.8,73.4-73.8s69.6,32.4,73.4,73.8H180.7z"/>
	</g>
</g>
<g>
	<g>
		<path d="M120.4,358.2c11.4-9,18.8-23,18.8-38.6c0-27.1-22.1-49.2-49.2-49.2s-49.2,22.1-49.2,49.2c0,15.7,7.4,29.6,18.9,38.6
			C25,371.8,0,408.1,0,450.7v8.2h180.2v-8.2C180.2,408.1,155.2,371.8,120.4,358.2z M57.3,319.6c0-18.1,14.7-32.8,32.8-32.8
			c18.1,0,32.8,14.7,32.8,32.8s-14.7,32.8-32.8,32.8C72,352.4,57.3,337.7,57.3,319.6z M16.8,442.5c3.7-41.3,35.2-73.8,73.4-73.8
			s69.6,32.4,73.4,73.8H16.8z"/>
	</g>
</g>
<g>
	<g>
		<path d="M448.2,358.2c11.4-9,18.8-23,18.8-38.6c0-27.1-22.1-49.2-49.2-49.2c-27.1,0-49.2,22.1-49.2,49.2
			c0,15.7,7.4,29.6,18.9,38.6c-34.8,13.6-59.8,49.9-59.8,92.5v8.2H508v-8.2C508,408.1,483,371.8,448.2,358.2z M385.1,319.6
			c0-18.1,14.7-32.8,32.8-32.8c18.1,0,32.8,14.7,32.8,32.8s-14.7,32.8-32.8,32.8C399.8,352.4,385.1,337.7,385.1,319.6z M344.5,442.5
			c3.7-41.3,35.2-73.8,73.4-73.8s69.6,32.4,73.4,73.8H344.5z"/>
	</g>
</g>
<g>
	<g>
		<polygon points="262.2,340.7 262.2,254 245.8,254 245.8,340.7 182.6,403.9 194.2,415.5 254,355.7 313.8,415.5 325.4,403.9 		"/>
	</g>
</g>
<g>
</g>
<g>
</g>
<g>
</g>
<g>
</g>
<g>
</g>
<g>
</g>
<g>
</g>
<g>
</g>
<g>
</g>
<g>
</g>
<g>
</g>
<g>
</g>
<g>
</g>
<g>
</g>
<g>
</g>
</svg>
