<svg id="Layer_1" height="512" viewBox="0 0 256 256" width="512" xmlns="http://www.w3.org/2000/svg"><g><g><g><g><g><g><g><path d="m195.703 243.095h-135.406c-5.522 0-9.999-4.477-9.999-9.999v-188.11c0-5.522 4.477-9.999 9.999-9.999h135.405c5.522 0 9.999 4.477 9.999 9.999v188.109c.001 5.523-4.476 10-9.998 10z" fill="#58595b"/></g><g><path d="m199.818 35.87c.568 1.255.884 2.649.884 4.116v188.109c0 5.522-4.477 9.999-9.999 9.999h-135.406c-1.467 0-2.86-.316-4.116-.884 1.569 3.469 5.06 5.884 9.116 5.884h135.405c5.522 0 9.999-4.477 9.999-9.999v-188.109c.001-4.055-2.413-7.547-5.883-9.116z" fill="#414042"/></g><g><path d="m189.106 229.154h-122.212c-1.841 0-3.333-1.492-3.333-3.333v-173.527c0-1.841 1.492-3.333 3.333-3.333h122.212c1.841 0 3.333 1.492 3.333 3.333v173.527c0 1.841-1.492 3.333-3.333 3.333z" fill="#f1f2f2"/></g><g><path d="m189.106 48.961h-1.667v171.86c0 1.841-1.492 3.333-3.333 3.333h-120.545v1.667c0 1.841 1.492 3.333 3.333 3.333h122.212c1.841 0 3.333-1.492 3.333-3.333v-173.527c0-1.841-1.492-3.333-3.333-3.333z" fill="#e6e7e8"/></g><g><path d="m69.56 167.399c-1.1 0-2-.899-2-2 0-1.1.9-2 2-2s2 .9 2 2c0 1.101-.9 2-2 2zm0-8c-1.1 0-2-.899-2-2v-102.439c0-.53.22-1.04.59-1.41.37-.38.89-.59 1.41-.59h14.26c1.1 0 2 .899 2 2 0 1.1-.9 2-2 2h-12.26v100.439c0 1.101-.9 2-2 2z" fill="#fff"/></g><g><path d="m166.473 48.612-4.994-17.915c-.803-2.882-3.429-4.876-6.421-4.876h-20.808c0 3.451-2.798 6.249-6.249 6.249s-6.249-2.798-6.249-6.249h-20.808c-2.992 0-5.618 1.994-6.421 4.876l-4.994 17.915c-1.184 4.249 2.011 8.456 6.422 8.456h64.102c4.41 0 7.604-4.207 6.42-8.456z" fill="#ffa91a"/></g><g><path d="m166.473 48.612-4.994-17.915c-.803-2.882-3.429-4.876-6.421-4.876h-2.151l3.566 12.791c1.185 4.249-2.01 8.456-6.421 8.456h-60.094l-.43 1.544c-1.184 4.249 2.011 8.456 6.422 8.456h64.102c4.411 0 7.605-4.207 6.421-8.456z" fill="#f79219"/></g><g><g><path d="m166.473 48.612-4.994-17.915c-.665-2.387-2.58-4.164-4.918-4.705l4.912 17.62c1.185 4.249-2.01 8.456-6.421 8.456h-64.103c-.519 0-1.02-.059-1.5-.168.671 2.894 3.257 5.168 6.5 5.168h64.102c4.412 0 7.606-4.207 6.422-8.456z" fill="#ef7816"/></g><g><path d="m121.855 26.965c-.069-.371-.105-.753-.105-1.145h-2.5c.755.567 1.641.967 2.605 1.145z" fill="#f79219"/></g></g><g><path d="m128 12.905c-7.133 0-12.915 5.782-12.915 12.916 0 7.133 5.782 12.915 12.915 12.915s12.916-5.782 12.916-12.915-5.783-12.916-12.916-12.916zm0 19.165c-3.451 0-6.249-2.798-6.249-6.249s2.798-6.249 6.249-6.249c3.452 0 6.249 2.798 6.249 6.249s-2.797 6.249-6.249 6.249z" fill="#ffa91a"/></g><g><g><path d="m136.078 15.743c1.775 2.212 2.838 5.021 2.838 8.078 0 7.133-5.782 12.915-12.916 12.915-3.057 0-5.866-1.062-8.078-2.837 2.367 2.949 6.002 4.837 10.078 4.837 7.133 0 12.916-5.782 12.916-12.915 0-4.076-1.889-7.711-4.838-10.078z" fill="#f79219"/></g><g><path d="m122.695 29.126c-.599-.959-.945-2.091-.945-3.305 0-3.451 2.798-6.249 6.25-6.249 1.214 0 2.346.346 3.305.945-1.104-1.768-3.067-2.945-5.305-2.945-3.451 0-6.25 2.798-6.25 6.249 0 2.238 1.177 4.201 2.945 5.305z" fill="#f79219"/></g></g></g></g></g></g><g><g><g><path d="m93.466 169.328h-12.813c-1.105 0-2-.895-2-2v-12.813c0-1.105.895-2 2-2h12.813c1.105 0 2 .895 2 2v12.813c0 1.105-.895 2-2 2z" fill="#939598"/></g><g><path d="m175.347 169.328h-68.989c-1.105 0-2-.895-2-2v-12.813c0-1.105.895-2 2-2h68.989c1.105 0 2 .895 2 2v12.813c0 1.105-.895 2-2 2z" fill="#d1d3d4"/></g></g><g><g><path d="m93.466 192.787h-12.813c-1.105 0-2-.895-2-2v-12.813c0-1.105.895-2 2-2h12.813c1.105 0 2 .895 2 2v12.813c0 1.104-.895 2-2 2z" fill="#939598"/></g><g><path d="m175.347 192.787h-68.989c-1.105 0-2-.895-2-2v-12.813c0-1.105.895-2 2-2h68.989c1.105 0 2 .895 2 2v12.813c0 1.104-.895 2-2 2z" fill="#d1d3d4"/></g></g><g><g><path d="m93.466 216.246h-12.813c-1.105 0-2-.895-2-2v-12.813c0-1.105.895-2 2-2h12.813c1.105 0 2 .895 2 2v12.813c0 1.104-.895 2-2 2z" fill="#939598"/></g><g><path d="m175.347 216.246h-68.989c-1.105 0-2-.895-2-2v-12.813c0-1.105.895-2 2-2h68.989c1.105 0 2 .895 2 2v12.813c0 1.104-.895 2-2 2z" fill="#d1d3d4"/></g></g></g></g><g><g><circle cx="128" cy="105.994" fill="#76a34f" r="35.243"/></g><g><path d="m149.606 78.161c4.64 5.968 7.41 13.461 7.41 21.606 0 19.464-15.779 35.243-35.243 35.243-8.144 0-15.638-2.771-21.606-7.41 6.448 8.294 16.513 13.637 27.833 13.637 19.464 0 35.243-15.779 35.243-35.243 0-11.319-5.343-21.385-13.637-27.833z" fill="#648940"/></g><g><g><g><g><path d="m124.643 119.719c-1.389 0-2.724-.553-3.706-1.536l-10.249-10.247c-2.048-2.046-2.048-5.365 0-7.413s5.365-2.048 7.413 0l6.543 6.539 13.256-13.257c2.048-2.048 5.365-2.048 7.413 0 2.048 2.046 2.048 5.365 0 7.413l-16.962 16.966c-.984.982-2.315 1.535-3.708 1.535z" fill="#fff"/></g></g></g></g></g></g></svg>