<svg width="38" height="37" viewBox="0 0 38 37" fill="none" xmlns="http://www.w3.org/2000/svg">
<path d="M7.12004 6.82897C6.02463 7.31582 5.30957 8.41123 5.30957 9.61313V16.7637C5.30957 25.2075 11.1518 33.1036 19.0022 35.0206C26.8526 33.1036 32.6948 25.2075 32.6948 16.7637V9.61313C32.6948 8.41123 31.9798 7.31582 30.8844 6.82897L20.2345 2.0974C19.4434 1.74748 18.5458 1.74748 17.7699 2.0974L7.12004 6.82897ZM19.0022 10.6781C19.839 10.6781 20.5236 11.3627 20.5236 12.1995C20.5236 13.0363 19.839 13.7209 19.0022 13.7209C18.1654 13.7209 17.4808 13.0363 17.4808 12.1995C17.4808 11.3627 18.1654 10.6781 19.0022 10.6781ZM19.0022 16.7637C19.839 16.7637 20.5236 17.4484 20.5236 18.2851V24.3707C20.5236 25.2075 19.839 25.8921 19.0022 25.8921C18.1654 25.8921 17.4808 25.2075 17.4808 24.3707V18.2851C17.4808 17.4484 18.1654 16.7637 19.0022 16.7637Z" fill="black"/>
</svg>
