<svg width="20" height="16" viewBox="0 0 20 16" fill="none" xmlns="http://www.w3.org/2000/svg">
<path d="M13.75 4.875C13.75 4.70924 13.8158 4.55027 13.9331 4.43306C14.0503 4.31585 14.2092 4.25 14.375 4.25H16.875C17.0408 4.25 17.1997 4.31585 17.3169 4.43306C17.4342 4.55027 17.5 4.70924 17.5 4.875V6.125C17.5 6.29076 17.4342 6.44973 17.3169 6.56694C17.1997 6.68415 17.0408 6.75 16.875 6.75H14.375C14.2092 6.75 14.0503 6.68415 13.9331 6.56694C13.8158 6.44973 13.75 6.29076 13.75 6.125V4.875Z" fill="black"/>
<path d="M2.5 0.5C1.83696 0.5 1.20107 0.763392 0.732233 1.23223C0.263392 1.70107 0 2.33696 0 3L0 13C0 13.663 0.263392 14.2989 0.732233 14.7678C1.20107 15.2366 1.83696 15.5 2.5 15.5H17.5C18.163 15.5 18.7989 15.2366 19.2678 14.7678C19.7366 14.2989 20 13.663 20 13V3C20 2.33696 19.7366 1.70107 19.2678 1.23223C18.7989 0.763392 18.163 0.5 17.5 0.5H2.5ZM18.75 3V9.25H1.25V3C1.25 2.66848 1.3817 2.35054 1.61612 2.11612C1.85054 1.8817 2.16848 1.75 2.5 1.75H17.5C17.8315 1.75 18.1495 1.8817 18.3839 2.11612C18.6183 2.35054 18.75 2.66848 18.75 3ZM17.5 14.25H2.5C2.16848 14.25 1.85054 14.1183 1.61612 13.8839C1.3817 13.6495 1.25 13.3315 1.25 13V11.75H18.75V13C18.75 13.3315 18.6183 13.6495 18.3839 13.8839C18.1495 14.1183 17.8315 14.25 17.5 14.25Z" fill="black"/>
</svg>
