<?xml version="1.0" encoding="iso-8859-1"?>
<!-- Generator: Adobe Illustrator 19.0.0, SVG Export Plug-In . SVG Version: 6.00 Build 0)  -->
<svg version="1.1" id="Capa_1" xmlns="http://www.w3.org/2000/svg" xmlns:xlink="http://www.w3.org/1999/xlink" x="0px" y="0px"
	 viewBox="0 0 480 480" style="enable-background:new 0 0 480 480;" xml:space="preserve">
<path style="fill:#F7EC2F;" d="M176,352l-16-88H48l-16,88l72-24L176,352z"/>
<path style="fill:#3F4E56;" d="M69.392,472c17.336,0,17.336-16,34.672-16c17.32,0,17.32,16,34.64,16
	c13.968,0,16.792-10.288,26.4-14.32L200,360l-96-32L8,360l34.872,97.656C52.56,461.656,55.368,472,69.392,472L69.392,472z"/>
<path style="fill:#F5FAFC;" d="M410.248,114.448C393.328,97.512,370.376,88,346.448,88H88l48,48.032l296,0.176L410.248,114.448z"/>
<path style="fill:#1493B0;" d="M435.032,139.24L432,136.208l-296-0.176l1.976,1.976C157.168,157.208,183.2,168,210.344,168H224.8
	l7.104-16h47.968l-11.192,16h154.44C438.128,168,445.64,149.856,435.032,139.24L435.032,139.24z"/>
<path style="fill:#ED4720;" d="M88,232h32v32H88V232z"/>
<path style="fill:#D3D3D3;" d="M232,304v144h40c0-13.256,10.744-24,24-24s24,10.744,24,24h72V304H232z"/>
<circle style="fill:#3F4E56;" cx="296" cy="448" r="24"/>
<path style="fill:#55D5F2;" d="M448,336h-56v112c0-13.256,10.744-24,24-24s24,10.744,24,24h32v-64L448,336z"/>
<circle style="fill:#3F4E56;" cx="416" cy="448" r="24"/>
<g>
	<path style="fill:#55D5F2;" d="M128,8H88v80h64L128,8z"/>
	<path style="fill:#55D5F2;" d="M216,24l16,64h48l-40-64H216z"/>
	<path style="fill:#55D5F2;" d="M231.912,152l-31.976,72l23.984,8l55.968-80H231.912z"/>
</g>
<path style="fill:#1493B0;" d="M208,480c-11.792,0-18.128-5.848-22.752-10.12c-3.968-3.672-6.368-5.88-11.896-5.88
	s-7.928,2.208-11.888,5.872c-4.632,4.28-10.968,10.128-22.752,10.128s-18.128-5.848-22.752-10.128
	C112,466.208,109.6,464,104.072,464c-5.544,0-7.944,2.216-11.912,5.88C87.528,474.152,81.184,480,69.392,480
	c-11.8,0-18.144-5.848-22.776-10.12c-3.968-3.664-6.368-5.88-11.92-5.88s-7.952,2.216-11.928,5.88C18.144,474.152,11.8,480,0,480
	v-16c5.544,0,7.952-2.216,11.928-5.88C16.552,453.848,22.896,448,34.696,448s18.144,5.848,22.776,10.12
	c3.976,3.664,6.376,5.88,11.92,5.88c5.536,0,7.936-2.208,11.912-5.88c4.632-4.272,10.968-10.12,22.768-10.12
	c11.792,0,18.128,5.848,22.752,10.128c3.96,3.664,6.352,5.872,11.888,5.872s7.928-2.208,11.888-5.872
	c4.624-4.28,10.96-10.128,22.752-10.128s18.128,5.848,22.752,10.12c3.968,3.672,6.368,5.88,11.896,5.88V480z"/>
<path style="fill:#F5FAFC;" d="M424,336v48h48l-24-48H424z"/>
<path d="M49.272,451.76L18.28,365L96,339.104V449.04c2.376-0.648,5.04-1.04,8.072-1.04c2.968,0,5.592,0.376,7.928,1V339.104
	l77.72,25.904l-31,86.808c3.728-2.168,8.408-3.816,14.632-3.816c1.288,0,2.48,0.096,3.632,0.224l30.544-85.536
	c0.72-2.024,0.6-4.256-0.344-6.192s-2.624-3.408-4.664-4.088l-19.504-6.504l-15.152-83.336c-0.688-3.8-4-6.568-7.864-6.568h-32v-24
	c0-4.416-3.584-8-8-8H88c-4.416,0-8,3.584-8,8v24H48c-3.864,0-7.176,2.768-7.872,6.568l-15.152,83.336l-19.504,6.504
	c-2.04,0.68-3.72,2.152-4.664,4.088s-1.064,4.168-0.344,6.192l30.552,85.536c1.168-0.128,2.384-0.224,3.68-0.224
	C40.88,448,45.544,449.616,49.272,451.76L49.272,451.76z M96,240h16v16H96V240z M88,272h32h33.328l12.384,68.136l-59.176-19.728
	c-0.832-0.272-1.68-0.408-2.536-0.408s-1.704,0.136-2.528,0.408l-59.176,19.728L54.672,272H88z"/>
<path d="M80.528,90.616c0.088,0.248,0.152,0.504,0.264,0.744c0.384,0.832,0.872,1.624,1.552,2.304l49.976,50
	C153.16,164.512,180.872,176,210.344,176h2.152l-19.88,44.752c-0.912,2.056-0.92,4.408-0.008,6.48
	c0.912,2.064,2.648,3.648,4.792,4.36l23.984,8c0.832,0.272,1.688,0.408,2.536,0.408c2.56,0,5.024-1.232,6.552-3.416L272.856,176
	h150.28c10.232,0,19.016-5.872,22.936-15.328c3.92-9.464,1.864-19.84-5.376-27.088l-24.784-24.8
	C397.352,90.224,372.688,80,346.448,80H284.44l-37.648-60.24C245.32,17.424,242.76,16,240,16h-24c-2.464,0-4.792,1.136-6.304,3.08
	s-2.056,4.472-1.456,6.864L221.752,80h-63.8L135.664,5.704C134.648,2.32,131.528,0,128,0H88c-4.416,0-8,3.584-8,8v80
	c0,0.176,0.088,0.32,0.096,0.496C80.144,89.224,80.288,89.92,80.528,90.616z M96,16h26.048l19.2,64H96V16z M235.568,32l30,48h-27.32
	l-12-48H235.568z M232,96h48h66.448c17.736,0,34.568,5.664,48.584,16H336v16h76.488l8.192,8.2l8.696,8.696
	c3.88,3.88,2.448,8.36,1.92,9.648c-0.536,1.28-2.688,5.456-8.16,5.456H284.048l2.384-3.416c1.712-2.448,1.92-5.64,0.536-8.28
	c-1.368-2.64-4.104-4.304-7.088-4.304h-47.968c-1.928,0-3.688,0.752-5.104,1.944c-0.912,0.768-1.704,1.68-2.208,2.808L219.608,160
	h-9.256c-23.36,0-45.36-8.528-62.648-23.968c-1.36-1.216-2.76-2.384-4.056-3.688L107.304,96H152L232,96z M210.824,219.2L237.12,160
	h27.408l-43.736,62.52L210.824,219.2z"/>
<path d="M72,288h64v16H72V288z"/>
<path d="M176,112h15.992v16H176V112z"/>
<path d="M208,112h15.992v16H208V112z"/>
<path d="M240,112h15.992v16H240V112z"/>
<path d="M272,112h15.992v16H272V112z"/>
<path d="M304.008,112H320v16h-15.992V112z"/>
<path d="M479.16,380.424l-24-48C453.8,329.712,451.032,328,448,328h-24h-24v-24c0-4.416-3.584-8-8-8H232c-4.416,0-8,3.584-8,8v144
	c0,4.416,3.584,8,8,8h33.136c3.576,13.76,16,24,30.864,24s27.288-10.24,30.864-24h58.272c3.576,13.76,16,24,30.864,24
	s27.288-10.24,30.864-24H472c4.416,0,8-3.584,8-8v-64c0-0.088-0.056-0.16-0.056-0.248
	C479.904,382.616,479.68,381.472,479.16,380.424L479.16,380.424z M445.856,436.768c-0.184-0.48-0.304-0.984-0.504-1.448
	c-0.768-1.768-1.68-3.456-2.744-5.04c-0.232-0.344-0.52-0.64-0.76-0.976c-0.88-1.208-1.816-2.376-2.848-3.456
	c-0.464-0.48-0.976-0.912-1.472-1.36c-0.92-0.84-1.864-1.64-2.872-2.376c-0.592-0.424-1.2-0.816-1.816-1.208
	c-1.032-0.648-2.104-1.216-3.208-1.744c-0.656-0.312-1.304-0.624-1.984-0.888c-1.224-0.48-2.496-0.848-3.792-1.176
	c-0.616-0.16-1.216-0.36-1.848-0.48c-1.96-0.384-3.952-0.616-6.008-0.616c-1.968,0-3.872,0.24-5.744,0.584
	c-0.456,0.08-0.896,0.168-1.344,0.272c-1.832,0.416-3.616,0.936-5.312,1.656c-0.072,0.032-0.128,0.072-0.2,0.096
	c-1.168,0.504-2.304,1.056-3.392,1.688V344h16v40c0,4.416,3.584,8,8,8h40v48H447C446.696,438.88,446.264,437.832,445.856,436.768
	L445.856,436.768z M416,464c-8.824,0-16-7.176-16-16s7.176-16,16-16s16,7.176,16,16S424.824,464,416,464z M325.856,436.768
	c-0.184-0.48-0.304-0.984-0.504-1.448c-0.768-1.768-1.68-3.456-2.744-5.04c-0.232-0.344-0.52-0.64-0.76-0.976
	c-0.88-1.208-1.816-2.376-2.848-3.456c-0.464-0.48-0.976-0.912-1.472-1.36c-0.92-0.84-1.864-1.64-2.872-2.376
	c-0.592-0.424-1.2-0.816-1.816-1.208c-1.032-0.648-2.104-1.216-3.208-1.744c-0.656-0.312-1.304-0.624-1.984-0.888
	c-1.224-0.48-2.496-0.848-3.792-1.176c-0.616-0.16-1.216-0.36-1.848-0.48c-1.96-0.384-3.952-0.616-6.008-0.616s-4.048,0.232-6,0.608
	c-0.632,0.12-1.224,0.328-1.848,0.48c-1.296,0.328-2.56,0.696-3.792,1.176c-0.68,0.264-1.328,0.576-1.984,0.888
	c-1.104,0.528-2.176,1.096-3.208,1.744c-0.624,0.384-1.232,0.776-1.816,1.208c-1.016,0.728-1.96,1.528-2.872,2.376
	c-0.496,0.456-1.008,0.88-1.472,1.36c-1.04,1.08-1.968,2.24-2.848,3.456c-0.24,0.336-0.536,0.632-0.76,0.976
	c-1.064,1.584-1.976,3.272-2.744,5.04c-0.2,0.472-0.328,0.968-0.504,1.448c-0.4,1.064-0.84,2.12-1.128,3.232H240V312h144v24v104
	h-57.008C326.696,438.88,326.264,437.832,325.856,436.768L325.856,436.768z M296,464c-8.824,0-16-7.176-16-16s7.176-16,16-16
	s16,7.176,16,16S304.824,464,296,464z M459.056,376H432v-32h11.056L459.056,376z"/>
<g>
</g>
<g>
</g>
<g>
</g>
<g>
</g>
<g>
</g>
<g>
</g>
<g>
</g>
<g>
</g>
<g>
</g>
<g>
</g>
<g>
</g>
<g>
</g>
<g>
</g>
<g>
</g>
<g>
</g>
</svg>
