<svg width="20" height="25" viewBox="0 0 20 25" fill="none" xmlns="http://www.w3.org/2000/svg">
<path d="M1.00064 6V22.72C0.993665 23.0124 1.04362 23.3034 1.14765 23.5763C1.25167 23.8492 1.40774 24.0986 1.60692 24.3103C1.8061 24.5221 2.0445 24.692 2.3085 24.8103C2.57249 24.9286 2.85691 24.9931 3.14549 25H16.817C17.1088 24.9981 17.3973 24.9373 17.6656 24.8211C17.9339 24.705 18.1767 24.5359 18.3799 24.3237C18.583 24.1114 18.7424 23.8603 18.8488 23.585C18.9552 23.3096 19.0063 23.0156 18.9994 22.72V6H1.00064ZM7.75017 21.2H6.25027V9.8H7.75017V21.2ZM13.7497 21.2H12.2498V9.8H13.7497V21.2Z" fill="#FF2C2C"/>
<path d="M19.2788 2.4H13.7036V1.6C13.7036 1.17565 13.5516 0.768687 13.2811 0.468629C13.0106 0.168571 12.6437 0 12.2611 0H7.7894C7.43235 0.0397982 7.1015 0.225783 6.86144 0.521638C6.62138 0.817493 6.48937 1.20197 6.49116 1.6V2.4H0.721241C0.529956 2.4 0.346505 2.48429 0.211247 2.63431C0.0759878 2.78434 0 2.98783 0 3.2C0 3.41217 0.0759878 3.61566 0.211247 3.76569C0.346505 3.91571 0.529956 4 0.721241 4H19.2788C19.47 4 19.6535 3.91571 19.7888 3.76569C19.924 3.61566 20 3.41217 20 3.2C20 2.98783 19.924 2.78434 19.7888 2.63431C19.6535 2.48429 19.47 2.4 19.2788 2.4Z" fill="#FF2C2C"/>
</svg>
