<svg width="77" height="62" viewBox="0 0 77 62" fill="none" xmlns="http://www.w3.org/2000/svg">
<path d="M11.55 27.125C15.797 27.125 19.25 23.6496 19.25 19.375C19.25 15.1004 15.797 11.625 11.55 11.625C7.30297 11.625 3.85 15.1004 3.85 19.375C3.85 23.6496 7.30297 27.125 11.55 27.125ZM65.45 27.125C69.697 27.125 73.15 23.6496 73.15 19.375C73.15 15.1004 69.697 11.625 65.45 11.625C61.203 11.625 57.75 15.1004 57.75 19.375C57.75 23.6496 61.203 27.125 65.45 27.125ZM69.3 31H61.6C59.4825 31 57.5695 31.8598 56.1739 33.2523C61.0225 35.9285 64.4634 40.7602 65.2094 46.5H73.15C75.2795 46.5 77 44.7684 77 42.625V38.75C77 34.4754 73.547 31 69.3 31ZM38.5 31C45.9473 31 51.975 24.9332 51.975 17.4375C51.975 9.9418 45.9473 3.875 38.5 3.875C31.0527 3.875 25.025 9.9418 25.025 17.4375C25.025 24.9332 31.0527 31 38.5 31ZM47.74 34.875H46.7414C44.2389 36.0859 41.4597 36.8125 38.5 36.8125C35.5403 36.8125 32.7731 36.0859 30.2586 34.875H29.26C21.6081 34.875 15.4 41.1234 15.4 48.825V52.3125C15.4 55.5215 17.9867 58.125 21.175 58.125H55.825C59.0133 58.125 61.6 55.5215 61.6 52.3125V48.825C61.6 41.1234 55.3919 34.875 47.74 34.875ZM20.8261 33.2523C19.4305 31.8598 17.5175 31 15.4 31H7.7C3.45297 31 0 34.4754 0 38.75V42.625C0 44.7684 1.72047 46.5 3.85 46.5H11.7786C12.5366 40.7602 15.9775 35.9285 20.8261 33.2523Z" fill="#F79219"/>
</svg>
