<?xml version="1.0" encoding="utf-8"?>
<!-- Generator: Adobe Illustrator 26.0.0, SVG Export Plug-In . SVG Version: 6.00 Build 0)  -->
<svg version="1.1" id="Layer_1" xmlns="http://www.w3.org/2000/svg" xmlns:xlink="http://www.w3.org/1999/xlink" x="0px" y="0px"
	 viewBox="0 0 79 55" style="enable-background:new 0 0 79 55;" xml:space="preserve">
<style type="text/css">
	.st0{fill:#FFFFFF;}
</style>
<path class="st0" d="M37.5,35.1c-0.1,3.1-1,5.9-2.5,8.3c-1.5,2.4-3.7,4.2-6.5,5.6c-2.8,1.3-5.9,2-9.5,2c-5.9,0-10.5-1.9-13.9-5.8
	C1.7,41.3,0,35.9,0,28.9v-2.2c0-4.4,0.8-8.2,2.3-11.5C3.8,11.8,6,9.3,8.9,7.5c2.9-1.8,6.2-2.7,10-2.7c5.4,0,9.8,1.4,13.1,4.3
	c3.3,2.9,5.2,6.8,5.6,11.8H26.8c-0.1-2.7-0.8-4.7-2.1-5.9c-1.3-1.2-3.3-1.8-5.9-1.8c-2.7,0-4.7,1-5.9,3c-1.3,2-1.9,5.2-2,9.7v3.2
	c0,4.8,0.6,8.2,1.8,10.3c1.2,2.1,3.3,3.1,6.2,3.1c2.5,0,4.4-0.6,5.7-1.8c1.3-1.2,2-3,2.1-5.6H37.5z"/>
<path class="st0" d="M78.9,35.1c-0.1,3.1-1,5.9-2.5,8.3c-1.5,2.4-3.7,4.2-6.5,5.6c-2.8,1.3-5.9,2-9.5,2c-5.9,0-10.5-1.9-13.9-5.8
	s-5.1-9.3-5.1-16.3v-2.2c0-4.4,0.8-8.2,2.3-11.5c1.5-3.3,3.7-5.9,6.6-7.7c2.9-1.8,6.2-2.7,10-2.7c5.4,0,9.8,1.4,13.1,4.3
	c3.3,2.9,5.2,6.8,5.6,11.8H68.2c-0.1-2.7-0.8-4.7-2.1-5.9c-1.3-1.2-3.3-1.8-5.9-1.8c-2.7,0-4.7,1-5.9,3c-1.3,2-1.9,5.2-2,9.7v3.2
	c0,4.8,0.6,8.2,1.8,10.3c1.2,2.1,3.3,3.1,6.2,3.1c2.5,0,4.4-0.6,5.7-1.8c1.3-1.2,2-3,2.1-5.6H78.9z"/>
<path class="st0" d="M63.3,0v9.4h-7V0L63.3,0z"/>
<path class="st0" d="M63.3,45.6V55h-7v-9.4H63.3z"/>
</svg>
