<svg id="Group_86" data-name="Group 86" xmlns="http://www.w3.org/2000/svg" width="41.996" height="44.996" viewBox="0 0 41.996 44.996">
  <path id="Path_261" data-name="Path 261" d="M376.453,141.3l-8.662-9.2v-.092H344.433v14.836l12.192,11.206.053.051,4.116,3.779,16.617-14.9v-3.663l-.94-2.01Zm2.9,3.922a1.259,1.259,0,0,1,.865-.34,1.389,1.389,0,0,1,.734.22,1.823,1.823,0,0,1,.449.391,2.624,2.624,0,0,1,.6,1.56v25.87a2.115,2.115,0,0,1-.591,1.464,1.988,1.988,0,0,1-1.425.608H342.021a2,2,0,0,1-1.426-.608,2.045,2.045,0,0,1-.438-.671,2.091,2.091,0,0,1-.153-.793v-25.87a2.648,2.648,0,0,1,.616-1.582,2,2,0,0,1,.449-.366,1.4,1.4,0,0,1,.713-.212,1.249,1.249,0,0,1,.712.209V131a1.019,1.019,0,0,1,.281-.7.964.964,0,0,1,.681-.3h24.656a.945.945,0,0,1,.414.1.972.972,0,0,1,.334.27L379.068,141.2a1.008,1.008,0,0,1,.278.7v3.329Zm-19.212,18.739-4.14-3.8L341.956,172.81v.114a.064.064,0,0,0,0,.047.075.075,0,0,0,.047,0H379.98a.072.072,0,0,0,.046,0,.055.055,0,0,0,0-.047v-.077l-14.212-12.818-4.383,3.941a.953.953,0,0,1-1.289,0Zm-5.6-5.127-12.578-11.568v22.881l12.578-11.331Zm25.51,11.375V147.256l-12.751,11.451,12.751,11.485Z" transform="translate(-340.004 -130)" fill="#313131"/>
  <path id="Path_262" data-name="Path 262" d="M361.355,135.648a8.831,8.831,0,0,1,5,1.559,9.2,9.2,0,0,1,3.314,4.152,9.486,9.486,0,0,1,.513,5.345,9.339,9.339,0,0,1-2.464,4.736,8.923,8.923,0,0,1-4.608,2.532,8.775,8.775,0,0,1-5.2-.527,9.061,9.061,0,0,1-4.039-3.407,9.444,9.444,0,0,1,1.12-11.68A8.876,8.876,0,0,1,361.355,135.648Z" transform="translate(-340.004 -130)" fill="#00a912" fill-rule="evenodd"/>
  <path id="Path_263" data-name="Path 263" d="M358.563,143.426l1.592,1.549,3.774-3.926c.31-.326.506-.589.89-.179l1.251,1.314c.41.418.392.663,0,1.051l-5.2,5.259c-.816.824-.674.875-1.5.03l-2.911-2.974a.372.372,0,0,1,.036-.579l1.45-1.545C358.164,143.188,358.338,143.206,358.563,143.426Z" transform="translate(-340.004 -130)" fill="#fff" fill-rule="evenodd"/>
</svg>
