<svg width="52" height="52" viewBox="0 0 52 52" fill="none" xmlns="http://www.w3.org/2000/svg">
<path opacity="0.5" d="M29.6156 29.2868C29.7659 29.4371 38.4759 22.0312 38.4759 22.0312L39.3778 9.62834L31.8581 12.8662L19.1669 12.3665L12.7969 9.47803L13.7922 21.6493C13.7881 21.6493 29.4694 29.1405 29.6156 29.2868Z" fill="white"/>
<path opacity="0.7" d="M25.4676 2.40918L19.0204 3.03074L14.1576 4.78574L11.4438 7.61324L14.3851 41.7707L14.3282 46.0689C14.3282 46.0689 17.7773 50.5376 25.9226 50.5376C34.0679 50.5376 38.0248 46.467 38.0248 46.467L37.9679 42.0551L40.6248 7.95043L38.7032 5.1798L31.407 2.86012L25.4676 2.40918Z" fill="#E0E0E0"/>
<path d="M13.7637 21.633C13.7637 22.742 15.1774 42.1039 15.799 43.1236C16.4205 44.1433 19.6746 47.3283 26.008 47.2145C32.3415 47.1008 36.213 44.3098 36.5502 43.347C36.8915 42.3842 38.4718 22.027 38.4718 22.027C38.4718 22.027 38.3012 19.8211 33.7227 18.2936C29.1443 16.7661 23.4284 17.087 20.548 17.672C16.9284 18.4114 13.7637 20.3898 13.7637 21.633Z" fill="#C0C0C0"/>
<path d="M15.8236 25.4436L14.5886 23.0143C14.5886 23.0143 14.5643 22.2952 14.6618 21.8646C14.7593 21.434 15.4946 19.4108 20.2965 18.4521C24.1071 17.6883 28.9455 17.7574 32.4596 18.7161C34.8402 19.3661 37.1721 20.6296 37.493 21.8849C37.8586 23.3108 37.229 23.9202 37.229 23.9202L34.8443 27.7308L17.4121 27.4993L15.8236 25.4436Z" fill="#FCF9E9"/>
<path d="M16.5545 42.5747C16.7088 43.0988 19.1707 46.1538 25.8657 46.1538C32.5607 46.1538 35.5426 43.6676 35.6076 43.1029C35.6726 42.5382 37.5617 23.1844 37.5617 23.1844C37.5617 23.1844 34.8113 26.7635 26.0607 26.5969C17.3101 26.4304 14.5923 22.9976 14.5923 22.9976C14.5923 22.9976 16.3879 42.0141 16.5545 42.5747Z" fill="#F0E7BA"/>
<path d="M17.1153 15.4985C16.1566 15.5594 15.6569 16.2947 15.856 17.8182C15.99 18.8419 16.2541 19.9388 17.611 19.8047C18.9841 19.6707 19.0247 18.2366 18.8703 17.42C18.6428 16.1972 18.1797 15.4335 17.1153 15.4985ZM17.5825 20.406C16.6563 20.4791 16.3556 21.0357 16.4897 22.6932C16.6644 24.8828 17.7816 38.6344 17.8831 39.8288C17.9806 41.0232 18.5128 41.4538 19.24 41.4538C19.9672 41.4538 20.5644 40.7266 20.5319 39.8978C20.4994 39.0691 19.24 23.4244 19.1385 22.5307C19.041 21.6328 18.8744 20.3044 17.5825 20.406ZM15.6244 44.2813C15.3481 45.0003 16.3069 46.471 18.2122 47.45C20.3369 48.5428 22.7135 48.3763 22.7541 47.4825C22.7947 46.54 21.3281 46.7919 19.11 45.7275C17.2738 44.846 16.055 43.1519 15.6244 44.2813Z" fill="white"/>
<path d="M26.8857 48.5431C26.8004 49.25 30.4404 49.0062 33.2273 48.0475C36.3961 46.9547 37.3264 45.4068 36.9608 44.8747C36.5951 44.3425 35.8598 45.7197 32.7276 46.7393C28.3889 48.1409 27.0117 47.4706 26.8857 48.5431Z" fill="#D5D5D5"/>
<path d="M26.4589 13.9181H26.1705C17.038 13.8612 13.6174 11.4684 12.3905 9.98555C11.5942 9.01868 11.3342 7.96649 11.5252 6.94274V6.91024C12.4433 4.16805 17.6189 1.73055 26.0283 1.69805C35.5061 1.66149 40.3649 5.00493 40.6005 7.28399C40.6736 8.01524 40.5396 9.29493 39.4508 10.4406C37.4683 12.5165 32.7761 13.9181 26.4589 13.9181ZM13.4589 7.27586C13.333 7.94618 13.3005 8.49461 13.8733 9.18524C14.7508 10.2456 17.2046 12.4271 26.1624 12.484H26.463C34.4905 12.484 37.0539 10.7168 38.1264 9.53461C38.7277 8.87243 38.9633 8.28743 38.8942 7.58868C38.7358 6.08961 34.7749 3.22149 26.1299 3.27024C16.9242 3.31899 13.8002 5.65086 13.5036 7.22711L13.4589 7.27586Z" fill="#C8C8C8"/>
<path d="M14.5682 5.63478C14.3854 5.43978 13.7273 5.56572 13.191 6.18728C12.7157 6.73978 12.0819 7.87728 13.0163 9.16509C13.9588 10.461 16.896 12.8701 26.5079 12.996C35.1935 13.1098 39.3494 10.1442 39.4713 8.14134C39.5932 6.13853 38.346 6.18728 38.346 6.46353C38.346 6.73978 38.606 7.29634 38.5207 7.96665C38.4191 8.73853 36.4935 12.0413 26.4063 12.0657C16.7457 12.0901 13.5851 8.96197 13.6176 7.96259C13.6663 6.41072 14.9704 6.06134 14.5682 5.63478Z" fill="white"/>
</svg>
