<svg width="60" height="60" viewBox="0 0 60 60" fill="none" xmlns="http://www.w3.org/2000/svg">
<g clip-path="url(#clip0_3156_29860)">
<path d="M49.3942 30.0002H10.9702C9.85061 30.0002 8.929 29.0378 8.929 27.9434C8.929 27.761 8.9626 27.5546 8.9998 27.389L11.0446 13.1102C11.2186 12.1826 12.0538 12.0002 13.0534 12.0002H47.317C48.3094 12.0002 49.1518 12.167 49.3234 13.091L51.3682 27.6302C51.3994 27.7994 51.4402 27.899 51.4402 28.0814C51.439 29.1758 50.5126 30.0002 49.3942 30.0002ZM47.857 46.0142C45.6934 46.0142 43.939 44.3114 43.939 42.1886C43.939 40.0802 45.6934 38.3798 47.857 38.3798C50.0062 38.3798 51.7642 40.0802 51.7642 42.1886C51.7642 44.3114 50.0062 46.0142 47.857 46.0142ZM12.4558 46.0142C10.3078 46.0142 8.5522 44.3114 8.5522 42.1886C8.5522 40.0802 10.3078 38.3798 12.4558 38.3798C14.6254 38.3798 16.3774 40.0802 16.3774 42.1886C16.3774 44.3114 14.6254 46.0142 12.4558 46.0142ZM19.1998 3.60017H43.1998V7.20017H19.1998C16.7998 7.20017 16.7998 3.60017 19.1998 3.60017ZM53.0422 9.10817C52.3414 5.73257 50.2942 4.37297 46.9546 3.01457C43.621 1.66097 35.8954 0.0385742 30.085 0.0385742C24.2494 0.0385742 16.4842 1.66217 13.147 3.01457C9.80861 4.37417 7.795 5.73257 7.1002 9.10817L4.7998 27.899V54.0002H8.3998V56.4002C8.3998 61.2002 14.3998 61.2002 14.3998 56.4002V54.0002H44.3998V56.4002C44.3998 61.2002 51.5998 61.2002 51.5998 56.4002V54.0002H55.1998V27.899L53.0422 9.10817Z" fill="black"/>
</g>
<defs>
<clipPath id="clip0_3156_29860">
<rect width="60" height="60" fill="white"/>
</clipPath>
</defs>
</svg>
