<svg width="64" height="64" viewBox="0 0 64 64" fill="none" xmlns="http://www.w3.org/2000/svg">
<path d="M52.2002 7.90022L54.7002 10.5002L60.0002 7.00022C62.2002 6.70022 63.2002 2.00022 57.2002 3.50022C55.7002 3.90022 53.4002 5.00022 52.2002 7.90022Z" fill="#89664C"/>
<path d="M61.1 7.0002C62.9 6.3002 61.6 4.2002 61.6 4.2002C61.6 4.2002 62 5.7002 59.2 6.1002C55.1 6.7002 54 9.7002 54 9.7002L54.7 10.4002C54.7 10.4002 57.1 8.6002 61.1 7.0002Z" fill="#594640"/>
<path d="M53.5 5.99989C62.3 15.2999 54.7001 29.2999 45.9001 45.4999C45.2001 46.8999 44.4001 48.1999 43.7001 49.5999C37.5 61.0999 28.4 62.2999 23.5 61.9999C18 61.5999 12.5 58.9999 8.80005 55.0999C5.00005 51.0999 2.50005 45.2999 2.10005 39.3999C1.70005 34.1999 2.60005 24.2999 13.2 17.3999C14.4 16.5999 15.7 15.7999 16.9 14.9999C31.8 5.19989 44.7001 -3.30011 53.5 5.99989Z" fill="#699635"/>
<path d="M14.9999 19.8998C29.4999 10.4998 44.2999 -0.500246 51.9999 7.69975C59.6999 15.7998 44.4999 26.2998 35.9999 42.1998C27.4999 57.9998 17.0999 60.6998 10.1999 53.4998C3.39987 46.1998 0.399872 29.3998 14.9999 19.8998Z" fill="#C7E755"/>
<path d="M11.7998 51.7999C13.3998 53.3999 15.0998 54.2999 17.0998 54.3999C22.5998 54.7999 28.6998 49.5999 33.7998 40.1999C36.6998 34.6999 40.3998 29.8999 43.6998 25.5999C48.8998 18.8999 53.6998 12.4999 50.5998 9.19992C45.2998 3.59992 31.5998 12.5999 20.5998 19.8999C19.3998 20.6999 18.0998 21.4999 16.8998 22.2999C7.79983 28.1999 6.99983 36.2999 7.29983 40.5999C7.59983 44.9999 9.29983 49.1999 11.7998 51.7999Z" fill="#C7E755"/>
<path opacity="0.33" d="M11.7998 51.7999C13.3998 53.3999 15.0998 54.2999 17.0998 54.3999C22.5998 54.7999 28.6998 49.5999 33.7998 40.1999C36.6998 34.6999 40.3998 29.8999 43.6998 25.5999C48.8998 18.8999 53.6998 12.4999 50.5998 9.19992C45.2998 3.59992 31.5998 12.5999 20.5998 19.8999C19.3998 20.6999 18.0998 21.4999 16.8998 22.2999C7.79983 28.1999 6.99983 36.2999 7.29983 40.5999C7.59983 44.9999 9.29983 49.1999 11.7998 51.7999Z" fill="#FFCE31"/>
<path d="M17.2002 26.9998C23.2002 20.3998 32.0002 20.9998 33.8002 24.9998C35.6002 28.9998 33.0002 34.9998 29.0002 39.3998C24.9002 43.7998 19.4002 46.6998 15.7002 44.8998C11.9002 43.0998 11.2002 33.5998 17.2002 26.9998Z" fill="#89664C"/>
<path d="M16.4998 33.5998C19.0998 29.7998 21.7998 28.7998 21.2998 29.6998C20.8998 30.5998 19.4998 32.7998 18.6998 34.7998C17.7998 36.7998 17.2998 38.4998 16.2998 39.0998C15.2998 39.8998 13.9998 37.6998 16.4998 33.5998Z" fill="#D3976E"/>
<path d="M26.4002 36.7C22.9002 40.4 18.7002 43.3 14.7002 44.2C15.0002 44.5 15.3002 44.8 15.7002 44.9C19.5002 46.8 24.9002 43.9 29.0002 39.4C33.0002 35 35.6002 29 33.8002 25C33.6002 24.6 33.4002 24.3 33.1002 24C32.4002 28.2 29.8002 32.9 26.4002 36.7Z" fill="#594640"/>
</svg>
