<svg width="48" height="48" viewBox="0 0 48 48" fill="none" xmlns="http://www.w3.org/2000/svg">
<path d="M24 3C25.9891 3 27.8968 3.79018 29.3033 5.1967C30.7098 6.60322 31.5 8.51088 31.5 10.5V12H16.5V10.5C16.5 8.51088 17.2902 6.60322 18.6967 5.1967C20.1032 3.79018 22.0109 3 24 3ZM34.5 12V10.5C34.5 7.71523 33.3938 5.04451 31.4246 3.07538C29.4555 1.10625 26.7848 0 24 0C21.2152 0 18.5445 1.10625 16.5754 3.07538C14.6062 5.04451 13.5 7.71523 13.5 10.5V12H3V42C3 43.5913 3.63214 45.1174 4.75736 46.2426C5.88258 47.3679 7.4087 48 9 48H39C40.5913 48 42.1174 47.3679 43.2426 46.2426C44.3679 45.1174 45 43.5913 45 42V12H34.5ZM6 15H42V42C42 42.7957 41.6839 43.5587 41.1213 44.1213C40.5587 44.6839 39.7957 45 39 45H9C8.20435 45 7.44129 44.6839 6.87868 44.1213C6.31607 43.5587 6 42.7957 6 42V15Z" fill="black"/>
</svg>
