<svg width="67" height="67" viewBox="0 0 67 67" fill="none" xmlns="http://www.w3.org/2000/svg">
<path d="M29.8151 15.8496L1.94727 25.35C1.94727 25.35 2.14094 27.1978 2.9575 28.789C3.9782 30.7728 5.98297 33.1964 9.84594 34.0653C15.5566 35.3477 22.3666 33.2696 28.9462 28.8623C35.5258 24.4549 39.1009 17.1373 37.787 11.4109C36.5674 6.10323 33.2593 4.73183 30.8201 4.48581C29.8622 4.39159 28.2709 4.47011 27.5643 4.72136C26.4651 5.10347 29.8151 15.8496 29.8151 15.8496Z" fill="#871E0C"/>
<path d="M17.2737 12.123C13.4107 14.892 6.44374 14.0911 2.93147 20.2468C-0.198682 25.7429 3.87366 31.6054 9.11327 31.6054C14.2953 31.6054 21.1523 29.208 26.2663 25.8214C31.6054 22.2829 38.7922 11.1337 33.0396 6.46466C26.5542 1.19888 22.2934 8.52701 17.2737 12.123Z" fill="#A62714"/>
<path d="M21.7067 10.7564C21.11 10.6518 20.5918 12.065 17.9118 13.8186C14.2896 16.1897 12.0859 15.7605 12.3477 16.9696C12.557 17.938 14.6298 18.5504 17.3936 17.6606C22.0941 16.1478 23.1723 11.0182 21.7067 10.7564V10.7564Z" fill="#FBCB89"/>
<path d="M24.3869 10.4476C23.2039 9.8038 23.853 8.23349 25.2924 6.95107C26.847 5.56919 28.6581 5.70005 29.0874 6.39099C29.6317 7.2599 28.2813 8.34865 27.4909 9.06575C26.5435 9.93466 25.8106 11.2276 24.3869 10.4476ZM8.92978 18.7965C7.97713 17.603 6.10846 18.7389 5.004 20.2202C3.75299 21.9004 3.10916 25.999 4.83127 26.1717C6.12416 26.3026 6.12416 23.8843 6.98783 22.7641C7.8515 21.644 9.96096 20.0893 8.92978 18.7965V18.7965Z" fill="#D16250"/>
<path d="M45.2933 18.352C45.2933 18.352 46.3349 15.1381 47.7901 15.2899C49.3028 15.4469 50.758 15.6249 52.7104 18.2839C54.9088 21.2728 55.7149 25.476 57.3376 27.5121C61.7135 32.9925 64.3516 33.4898 65.0216 39.1011C65.6602 44.4401 61.8705 51.36 54.0609 49.8996C44.6128 48.1356 40.5195 36.6723 40.5195 36.6723L45.2933 18.352Z" fill="#871E0C"/>
<path d="M40.3046 18.1265C37.9073 21.0106 37.8811 25.6221 38.2266 28.2969C38.572 30.9716 40.6135 39.5403 44.1938 43.2933C47.7741 47.0464 53.0032 49.2501 56.7563 47.9572C60.5093 46.6643 62.467 43.8325 61.7865 39.3466C61.4201 36.9283 59.8864 34.8294 57.688 33.2329C55.4895 31.6364 51.6894 27.4541 51.6894 27.4541C51.6894 27.4541 50.6111 21.8481 50.3965 19.8643C50.1819 17.8805 50.1976 16.0065 48.5697 15.4465C47.3763 15.0277 42.8485 15.0644 40.3046 18.1265Z" fill="#A62714"/>
<path d="M44.9159 18.3517C44.1046 17.6085 43.1153 18.1581 42.7279 18.8333C42.3825 19.4353 42.1836 20.1785 42.8117 20.6706C43.5864 21.2725 44.2145 20.8119 44.8269 20.1681C45.2875 19.676 45.4341 18.8228 44.9159 18.3517V18.3517ZM41.2937 22.3822C40.4981 22.5131 39.6449 23.6751 40.1474 28.1139C40.7493 33.4163 43.2461 37.6299 45.0206 40.0692C46.8579 42.5921 48.6428 42.1682 48.6637 41.9064C48.7213 41.1632 47.5436 40.043 46.1146 37.2897C43.9685 33.1703 42.6861 28.8833 42.5029 26.6273C42.2411 23.4186 42.3249 22.2147 41.2937 22.3822V22.3822Z" fill="#D16250"/>
<path d="M50.2236 22.7539C49.7996 23.0994 49.2134 25.68 51.8724 30.0507C54.9764 35.1542 57.6617 34.2643 57.892 33.72C58.1223 33.1756 56.039 31.4482 55.1125 30.171C53.4532 27.8836 52.935 26.753 51.8567 24.6121C51.3909 23.6857 50.679 22.3823 50.2236 22.7539V22.7539Z" fill="#FBCB89"/>
<path d="M26.3915 50.0409C26.2606 49.999 7.57914 44.482 7.57914 44.482C7.57914 44.482 7.39071 45.042 7.28602 45.9581C7.07141 47.8215 7.28602 50.9988 8.87727 53.7468C10.2277 56.0761 12.4419 57.9029 15.4778 59.2743C17.3465 60.1223 19.7386 60.8289 23.0101 61.5094C32.5419 63.488 44.0994 60.808 45.2823 51.8415C45.7639 48.2036 43.6597 45.3509 41.8434 43.9481C39.1843 41.8909 36.3211 42.2678 36.3211 42.2678L26.3915 50.0409Z" fill="#871E0C"/>
<path d="M29.3336 42.3093C23.1414 42.3093 20.3724 38.3102 15.0124 38.6609C11.3117 38.9017 9.12373 40.9902 8.24435 42.749C7.36498 44.5077 6.45943 47.5751 8.59505 49.9986C10.9244 52.6367 14.5675 56.4578 25.8161 58.3893C37.2323 60.3522 42.8645 53.469 43.3461 49.517C43.8276 45.5651 41.6344 42.8851 38.3839 42.3983C35.1333 41.9115 30.5271 42.3093 29.3336 42.3093Z" fill="#A62714"/>
<path d="M22.2148 42.6185C21.6286 43.2205 23.2983 46.5338 27.4597 46.7799C31.621 47.0259 33.2279 44.3616 32.7045 44.0161C32.3957 43.812 29.1137 43.9324 27.5329 43.7701C24.8006 43.4979 22.5551 42.2731 22.2148 42.6185V42.6185Z" fill="#FBCB89"/>
<path d="M18.2417 42.2207C17.6869 44.1521 14.3369 42.5818 12.3059 43.8433C10.1284 45.1886 9.43749 47.6749 8.92452 47.6749C8.16554 47.6749 8.11319 43.2885 11.9971 41.1162C14.8969 39.4936 18.6343 40.8597 18.2417 42.2207V42.2207Z" fill="#D16250"/>
</svg>
