<svg width="50" height="50" viewBox="0 0 50 50" fill="none" xmlns="http://www.w3.org/2000/svg">
<path d="M42.9696 27.4219L48.829 33.2031L22.8133 45.625C22.8133 45.625 19.3758 47.1875 17.7352 44.6875C11.329 34.6875 42.9696 27.4219 42.9696 27.4219Z" fill="#256382"/>
<path d="M22.1874 38.3594C22.1874 38.3594 17.1874 40.0781 18.1249 43.4375C19.0624 46.875 23.0468 44.7656 23.0468 44.7656L47.7343 33.2812C47.7343 33.2812 46.328 29.6094 48.828 27.1875L22.1874 38.3594Z" fill="#D9E3E8"/>
<path d="M26.3281 3.90625L50 26.9531L22.0312 37.8906L4.0625 9.92188L26.3281 3.90625Z" fill="#42ADE2"/>
<path d="M27.0312 9.14062L31.5625 13.9844L14.6094 20.0781L10.625 13.9062L27.0312 9.14062Z" fill="white"/>
<path d="M47.6562 29.6875L31.1719 36.4063L47.4219 28.9844L47.6562 29.6875ZM47.4219 31.7188L29.8438 38.9844L47.1094 30.9375L47.4219 31.7188ZM47.5781 32.8125L25.1562 42.5781L47.2656 32.1094L47.5781 32.8125Z" fill="#94989B"/>
<path d="M17.7344 44.6875C15 38.9844 22.0313 37.9687 22.0313 37.9687L4.0625 9.92185C4.0625 9.92185 0 9.84373 0 14.0625C0 15.7812 0.78125 17.1094 0.78125 17.1094L17.7344 44.6875" fill="#428BC1"/>
</svg>
