<svg width="58" height="58" viewBox="0 0 58 58" fill="none" xmlns="http://www.w3.org/2000/svg">
<path d="M50.1996 31.7913L46.8937 21.8733C46.4141 20.4293 45.4916 19.1731 44.2574 18.2833C43.0231 17.3936 41.5398 16.9154 40.0182 16.9167H17.9831C16.4615 16.9154 14.9782 17.3936 13.744 18.2833C12.5097 19.1731 11.5872 20.4293 11.1077 21.8733L7.80165 31.7913C6.92271 32.1594 6.17212 32.779 5.64413 33.5723C5.11615 34.3655 4.8343 35.2971 4.83398 36.25V43.5C4.83398 45.2835 5.81032 46.8254 7.25065 47.664V50.75C7.25065 51.391 7.50526 52.0057 7.95848 52.4589C8.41169 52.9121 9.02638 53.1667 9.66732 53.1667H12.084C12.7249 53.1667 13.3396 52.9121 13.7928 52.4589C14.246 52.0057 14.5007 51.391 14.5007 50.75V48.3334H43.5007V50.75C43.5007 51.391 43.7553 52.0057 44.2085 52.4589C44.6617 52.9121 45.2764 53.1667 45.9173 53.1667H48.334C48.9749 53.1667 49.5896 52.9121 50.0428 52.4589C50.496 52.0057 50.7507 51.391 50.7507 50.75V47.664C51.4838 47.2435 52.0933 46.6372 52.5175 45.9062C52.9418 45.1752 53.1659 44.3453 53.1673 43.5V36.25C53.1673 34.2418 51.9421 32.5235 50.1996 31.7913ZM17.9831 21.75H40.0158C40.5232 21.7499 41.0178 21.9095 41.4294 22.2062C41.8411 22.5029 42.1489 22.9216 42.3092 23.403L44.9821 31.4167H13.0192L15.6897 23.403C16.0207 22.4146 16.9439 21.75 17.9831 21.75ZM13.2923 43.5C12.8161 43.4999 12.3446 43.4059 11.9047 43.2235C11.4648 43.0412 11.0652 42.7739 10.7286 42.4371C10.0487 41.7568 9.667 40.8344 9.66732 39.8726C9.66764 38.9109 10.05 37.9887 10.7303 37.3089C11.4105 36.629 12.333 36.2473 13.2947 36.2476C14.2565 36.2479 15.1787 36.6303 15.8585 37.3106C16.5383 37.9908 16.9201 38.9133 16.9197 39.875C16.9194 40.8368 16.5371 41.759 15.8568 42.4388C15.1765 43.1186 14.254 43.5004 13.2923 43.5ZM44.709 43.5C43.7473 43.4997 42.825 43.1174 42.1452 42.4371C41.4654 41.7568 41.0837 40.8344 41.084 39.8726C41.0843 38.9109 41.4667 37.9887 42.1469 37.3089C42.8272 36.629 43.7497 36.2473 44.7114 36.2476C45.6731 36.2479 46.5953 36.6303 47.2752 37.3106C47.955 37.9908 48.3367 38.9133 48.3364 39.875C48.3361 40.8368 47.9537 41.759 47.2735 42.4388C46.5932 43.1186 45.6707 43.5004 44.709 43.5ZM12.7534 12.0834C13.592 13.5213 15.1338 14.5 16.9173 14.5C18.7008 14.5 20.2427 13.5213 21.0812 12.0834H36.9225C37.7587 13.5213 39.3005 14.5 41.084 14.5C42.8675 14.5 44.4093 13.5213 45.2479 12.0834H41.084V7.25004H45.2479C44.4093 5.81212 42.8675 4.83337 41.084 4.83337C39.3005 4.83337 37.7587 5.81212 36.9201 7.25004H21.0812C20.2427 5.81212 18.7008 4.83337 16.9173 4.83337C15.1338 4.83337 13.592 5.81212 12.7534 7.25004H16.9173V12.0834H12.7534Z" fill="black"/>
</svg>
