<svg width="52" height="52" viewBox="0 0 52 52" fill="none" xmlns="http://www.w3.org/2000/svg">
<path d="M19.573 27.8076L2.72179 28.417C2.72179 28.417 1.65336 27.3486 1.80773 26.9667C1.96211 26.5848 15.9168 15.6811 16.449 15.7582C16.9812 15.8354 18.204 17.1314 19.1952 16.6723C20.1865 16.2132 19.1952 13.5442 19.4999 13.1664C19.8046 12.7845 30.7084 6.91418 31.3949 6.60949C32.0815 6.3048 32.6909 5.61824 34.064 5.92293C35.4371 6.22762 38.8699 6.83699 42.6034 9.35574C46.3368 11.8745 50.2287 14.7711 49.924 16.3717C49.6193 17.9723 19.573 27.8076 19.573 27.8076Z" fill="#FFE265"/>
<path d="M7.90559 46.9505C11.6431 46.4914 46.4912 39.0205 47.9415 38.793C49.3918 38.5655 50.3059 37.1924 50.3059 35.6649C50.3059 34.1374 49.924 16.3721 49.924 16.3721C49.924 16.3721 48.2462 16.9043 46.2637 17.3633C44.2812 17.8183 28.0353 21.7833 21.6328 23.2336C15.2303 24.6839 5.00902 27.353 3.8634 27.353C2.71777 27.353 1.80371 26.9711 1.80371 26.9711C1.80371 26.9711 2.1084 42.8311 2.18559 43.9768C2.26277 45.1224 2.79496 46.4914 4.0909 46.8733C5.38684 47.2552 6.23184 47.1536 7.90559 46.9505Z" fill="#FEB502"/>
<path d="M30.4565 10.3834C30.4565 11.3584 31.4478 12.0043 33.089 11.9555C34.8806 11.9027 35.3762 10.8384 35.3194 10.1559C35.2625 9.46929 34.4378 8.86804 32.8047 8.89648C31.2894 8.92491 30.4565 9.52616 30.4565 10.3834Z" fill="#FF8B0D"/>
<path d="M12.1546 22.5379C9.51399 23.4276 9.81055 25.7391 10.5824 26.2551C11.3543 26.771 12.3821 26.7426 13.5846 26.3119C14.7871 25.8813 15.5509 25.3897 15.6727 24.5854C15.7865 23.8216 14.7871 21.6482 12.1546 22.5379ZM36.1477 15.9322C34.3765 16.0135 32.4184 17.2851 31.6871 18.5079C30.9152 19.7957 30.8584 21.311 32.6296 22.2535C34.4009 23.196 40.6652 20.7951 40.3524 18.5932C40.0396 16.3872 38.0084 15.8469 36.1477 15.9322ZM30.0012 33.7463C30.0012 33.7463 32.5159 31.8857 32.5159 30.5735C32.5159 29.2572 31.4312 26.1494 26.8243 25.9138C22.5059 25.6904 19.8449 31.5769 22.6765 34.6076C25.5081 37.6382 27.2224 36.2651 28.2827 35.9807C29.3431 35.6922 30.0012 33.7463 30.0012 33.7463ZM17.5618 39.0357C17.5618 39.0357 20.0602 37.4716 18.1427 35.7572C16.794 34.5507 14.9902 35.0951 14.0721 36.0335C12.8981 37.236 13.2149 39.1494 14.2996 40.0066C15.3884 40.8679 17.5618 39.0357 17.5618 39.0357ZM9.09555 32.0035C9.09555 32.0035 8.81118 31.1057 7.79149 30.7441C6.64587 30.3379 4.93555 31.7638 5.6668 33.2873C6.32493 34.6604 7.78336 34.2582 7.78336 34.2582L9.09555 32.0035ZM45.6702 33.3157C45.9181 33.0476 47.539 31.8776 47.539 30.9879C47.539 30.1022 45.0974 27.3641 41.9815 29.4238C38.8656 31.4835 40.4946 34.5994 41.3518 35.1154C42.209 35.6313 44.5856 34.4897 45.6702 33.3157Z" fill="#ED6B31"/>
<path d="M12.537 23.9396C10.8023 24.5409 10.1483 25.7677 10.583 26.2552C11.042 26.7712 12.0414 27.1124 13.7842 26.4827C15.133 25.9952 15.8155 25.1787 15.7017 24.4515C15.6205 23.9234 14.1092 23.3952 12.537 23.9396ZM6.75204 31.9427C5.99235 32.8934 6.60985 33.974 7.32485 34.2299C8.03985 34.4859 9.29922 33.714 9.21391 32.4302C9.12454 31.1424 7.4386 31.0856 6.75204 31.9427ZM15.588 37.1224C13.9548 38.4468 13.9102 39.7427 14.5399 40.1815C14.9786 40.4902 16.5955 41.1321 18.0742 40.0393C19.1711 39.2309 19.1914 37.5327 18.8461 36.7202C18.5577 36.0296 16.9611 36.0052 15.588 37.1224ZM25.5005 29.9034C23.3148 32.0281 22.7948 35.4771 24.9398 36.2896C26.8289 37.0046 29.5427 36.574 31.1433 34.6037C32.8252 32.5318 33.0039 30.2446 31.9233 28.8959C30.6314 27.2749 27.1905 28.2662 25.5005 29.9034ZM35.4333 18.049C32.5733 19.0199 30.8874 21.0796 32.3458 22.1115C33.8042 23.1393 35.3195 22.989 36.977 22.4243C38.858 21.7865 40.2961 20.3077 40.353 18.9062C40.3977 17.7565 37.952 17.1918 35.4333 18.049ZM43.0708 31.1993C41.1249 32.7837 40.5561 34.3721 41.3564 35.1156C42.1567 35.859 44.0742 36.2002 45.8455 34.9734C47.6858 33.6977 47.8199 32.2515 47.6167 31.0856C47.3892 29.7734 45.0695 29.5702 43.0708 31.1993Z" fill="#FF8B0D"/>
</svg>
