<svg width="41" height="41" viewBox="0 0 41 41" fill="none" xmlns="http://www.w3.org/2000/svg">
<path d="M4.86875 13.0686C6.02188 14.9264 7.30313 15.1827 8.2 14.0936C9.60938 12.428 8.07188 10.3139 6.40625 9.73734C3.65156 8.64828 1.28125 11.7233 1.28125 11.7233C1.28125 11.7233 3.90781 11.467 4.86875 13.0686Z" fill="#F29A2E"/>
<path d="M27.4187 6.53405C22.4858 9.41687 26.5858 16.3356 17.6812 18.1934L27.1624 22.87C29.0843 26.2012 34.4015 26.4575 34.4015 26.4575C34.4015 26.4575 35.7468 22.4856 34.6577 19.5387C37.6046 19.5387 39.6546 17.745 39.6546 17.745C39.6546 17.745 37.989 11.8512 32.928 11.8512C37.9249 9.80124 38.8218 5.57312 38.8218 5.57312C38.8218 5.57312 34.4015 2.49812 27.4187 6.53405Z" fill="#E1EAF2"/>
<path d="M22.8704 39.7191H13.7095C13.7095 38.9504 19.0907 38.8223 19.347 33.6973C20.1798 39.3988 22.8704 38.9504 22.8704 39.7191Z" fill="#F4BC58"/>
<path d="M31.647 19.6034C31.647 26.9706 25.6251 34.53 18.1938 34.53C10.7626 34.53 4.74072 26.9706 4.74072 19.6034C4.74072 14.6706 15.3751 18.13 18.1938 18.13C25.6251 18.0659 31.647 12.1722 31.647 19.6034Z" fill="#D1DCE6"/>
<path d="M23.3188 31.5193C23.3188 32.9928 21.2047 36.1959 19.3469 36.1959C17.4891 36.1959 15.375 34.0178 15.375 32.5443C15.375 31.0709 23.3188 30.8147 23.3188 31.5193Z" fill="#D1DCE6"/>
<path d="M4.16406 16.8482C4.16406 18.7701 4.54844 24.3435 4.54844 24.3435L6.27813 22.1654L8.32812 24.5998L8.77656 21.2045L11.9156 23.4467L11.3391 20.1154L15.1188 20.4998L13.3891 18.4498L16.0156 16.7201C16.0156 16.7201 12.8125 17.4248 12.8766 15.4388C12.9406 13.4529 14.5422 7.81541 12.5563 6.9826C8.90469 5.63728 4.16406 8.71228 4.16406 16.8482Z" fill="#E1EAF2"/>
<path d="M4.16426 10.5064C4.41192 10.5064 4.61269 10.4204 4.61269 10.3143C4.61269 10.2081 4.41192 10.1221 4.16426 10.1221C3.91659 10.1221 3.71582 10.2081 3.71582 10.3143C3.71582 10.4204 3.91659 10.5064 4.16426 10.5064Z" fill="#3E4347"/>
<path d="M7.36719 11.6592C7.8979 11.6592 8.32812 11.229 8.32812 10.6982C8.32812 10.1675 7.8979 9.7373 7.36719 9.7373C6.83648 9.7373 6.40625 10.1675 6.40625 10.6982C6.40625 11.229 6.83648 11.6592 7.36719 11.6592Z" fill="#3E4347"/>
<path d="M4.99696 15.1188C4.99696 17.1688 3.65165 15.6953 3.65165 15.6953C3.20321 15.6953 1.3454 17.1047 1.98602 14.7344C2.81884 11.6594 6.02196 9.60938 6.02196 9.60938C6.02196 9.60938 4.99696 11.4031 4.99696 15.1188Z" fill="#E24B4B"/>
<path d="M13.3251 6.79014V6.02139C13.197 4.41983 15.5032 3.7792 15.247 2.94639C14.8626 1.85733 11.8517 2.56202 10.3782 4.93233C10.1861 5.18858 10.0579 5.50889 9.99387 5.89327C9.92981 5.63702 9.86575 5.38077 9.73762 5.12452C9.03294 3.65108 11.147 2.30577 10.5064 1.60108C9.67356 0.640143 7.17512 2.30577 6.59856 5.06045C6.47044 5.63702 6.47043 6.21358 6.66262 6.79014C6.59856 6.72608 6.5345 6.66202 6.47044 6.66202C5.38137 5.8292 6.47044 4.09952 5.70169 3.71514C4.54856 3.20264 3.52356 5.50889 4.10012 7.75108C4.4845 9.03233 5.89387 10.3776 7.047 9.28858C7.43137 8.96827 8.32825 8.45577 8.84075 8.26358C9.22512 8.13545 10.2501 8.19952 10.8907 8.64795C11.4673 9.03233 11.9157 9.80108 12.7486 9.80108C16.4001 9.9292 18.3861 6.40577 17.0407 5.63702C16.3361 5.12452 15.247 6.40577 13.3251 6.79014Z" fill="#E24B4B"/>
<path d="M27.2267 28.1235C26.6501 26.7141 24.9845 25.9454 24.9845 25.9454C26.7142 25.0485 27.7392 23.1266 27.7392 23.1266C26.8423 22.7422 23.3829 22.486 23.3829 22.486C24.1517 21.7172 24.7923 20.6282 24.7923 20.6282C24.7923 20.6282 20.8204 19.6672 17.4892 21.461C13.133 23.8954 14.4142 29.661 19.347 30.3016C24.7923 31.0063 27.2267 28.1235 27.2267 28.1235Z" fill="#E1EAF2"/>
</svg>
