<svg width="58" height="58" viewBox="0 0 58 58" fill="none" xmlns="http://www.w3.org/2000/svg">
<path d="M4.8335 7.25016C4.8335 6.60922 5.08811 5.99453 5.54132 5.54132C5.99453 5.08811 6.60922 4.8335 7.25016 4.8335H50.7502C51.3911 4.8335 52.0058 5.08811 52.459 5.54132C52.9122 5.99453 53.1668 6.60922 53.1668 7.25016V45.9168C53.1668 46.5578 52.9122 47.1725 52.459 47.6257C52.0058 48.0789 51.3911 48.3335 50.7502 48.3335H7.25016C6.60922 48.3335 5.99453 48.0789 5.54132 47.6257C5.08811 47.1725 4.8335 46.5578 4.8335 45.9168V7.25016Z" stroke="black" stroke-width="4" stroke-linecap="round" stroke-linejoin="round"/>
<path d="M53.1668 25.375V35.0417M9.66683 48.3333H19.3335V53.1667H9.66683V48.3333ZM38.6668 48.3333H48.3335V53.1667H38.6668V48.3333ZM25.3752 19.3333H32.6252H25.3752ZM12.0835 41.0833H14.5002H12.0835ZM22.9585 41.0833H35.0418H22.9585ZM4.8335 30.2083H53.1668H4.8335ZM4.8335 12.0833H53.1668H4.8335ZM43.5002 41.0833H45.9168H43.5002ZM4.8335 7.25V16.9167V7.25ZM53.1668 7.25V16.9167V7.25ZM4.8335 25.375V35.0417V25.375Z" stroke="black" stroke-width="4" stroke-linecap="round" stroke-linejoin="round"/>
</svg>
