<svg xmlns="http://www.w3.org/2000/svg" viewBox="0 0 93.43 28.53"><defs><style>.cls-1{font-size:12px;stroke:#1d1d1b;stroke-miterlimit:10;stroke-width:0.25px;font-family:SFProDisplay-Bold, SF Pro Display;font-weight:700;}.cls-1,.cls-2{fill:#1d1d1b;}.cls-3{fill:none;}</style></defs><g id="Layer_2" data-name="Layer 2"><g id="Layer_1-2" data-name="Layer 1"><text class="cls-1" transform="translate(38.78 10.86)">Domestic <tspan x="0" y="14.4">Flight</tspan></text><path class="cls-2" d="M22.81,15.61c2,1.6,3.91,3.18,5.84,4.77a.83.83,0,0,1,.25.55c0,1.57,0,3.14,0,4.71a1,1,0,0,1-.66.69c-1.32.07-2.64,0-4,0V22.44H21.45v3.91c-1.43,0-2.8,0-4.16,0-.2,0-.54-.47-.55-.73,0-1.54,0-3.08,0-4.62a.86.86,0,0,1,.27-.61C18.91,18.77,20.84,17.21,22.81,15.61Z"/><path class="cls-2" d="M26.16,15.26a14.18,14.18,0,0,1,0-1.62.77.77,0,0,1,.87-.73c.67,0,1.92-.23,1.88.72a31.83,31.83,0,0,0,0,3.24,1.93,1.93,0,0,0,.5,1.07A12.12,12.12,0,0,0,31,19.24c.57.42.3.73,0,1.12s-.59.64-1.12.2c-2.19-1.84-4.41-3.65-6.61-5.47-.13-.11-.26-.19-.43-.31l-6.07,5-.7.56c-.77.63-1.23.54-1.63-.36a.71.71,0,0,1,.19-.66q3.68-3.08,7.38-6.09a1.28,1.28,0,0,1,1.77,0Z"/><path class="cls-3" d="M19.8,10.74a1.59,1.59,0,0,1,.65-1.41c1.05-.81,2.07-1.66,3.11-2.5A4.61,4.61,0,0,0,25,4c.06-.29-.08-.46-.39-.45a4.8,4.8,0,0,0-3.16.83c-1,.82-2,1.61-3,2.44a1.67,1.67,0,0,1-1.57.36C13,6.26,9.18,5.43,5.34,4.49a1.67,1.67,0,0,0-1.92.62l.65.32,8.35,3.8a1.18,1.18,0,0,1,.28,2.17c-1.39,1.13-2.8,2.23-4.18,3.37a1.52,1.52,0,0,1-1.34.33A20.06,20.06,0,0,1,5,14.71a1.49,1.49,0,0,0-1.64.63l3.58,2a1.49,1.49,0,0,1,.76.92c.34,1.18.7,2.35,1.07,3.52.05.15.05.49.33.31s.78-.44.76-1c0-.87.08-1.74.11-2.61a1.32,1.32,0,0,1,.52-1.08c1.45-1.16,2.88-2.34,4.34-3.48a1.16,1.16,0,0,1,2,.73c.09.39.17.77.25,1.15l2.77-2.3C19.81,12.55,19.81,11.65,19.8,10.74Z"/><path class="cls-3" d="M18.82,23.92c0,.13,0,.48.25.31s.87-.42.86-1.1c-.05-3.22-.08-6.45-.11-9.67l-2.77,2.3c.27,1.25.53,2.49.8,3.73C18.17,21,18.49,22.45,18.82,23.92Z"/><path d="M25.22,1.28A6.61,6.61,0,0,0,20,2.58c-.72.58-1.45,1.13-2.13,1.74a1.42,1.42,0,0,1-1.47.34C12.45,3.74,8.51,2.87,4.58,2a1.56,1.56,0,0,0-1.45.34C2.35,3,1.54,3.6.74,4.24-.34,5.12-.23,6,1,6.58l8.41,3.84c.14.06.34.07.41.31-.73.58-1.47,1.15-2.18,1.76a.91.91,0,0,1-.83.22c-.81-.16-1.63-.27-2.44-.43a1.59,1.59,0,0,0-1.46.36c-.73.63-1.49,1.21-2.24,1.82A1.17,1.17,0,0,0,.86,16.6c1.38.77,2.75,1.56,4.14,2.29a1.48,1.48,0,0,1,.78,1c.45,1.53.92,3.06,1.39,4.58a1.15,1.15,0,0,0,1.94.62c.83-.64,1.63-1.31,2.45-2A1.38,1.38,0,0,0,12.11,22c0-.9.08-1.79.12-2.68a.64.64,0,0,1,.25-.57l2.41-1.94.14.66,2-1.68c-.08-.38-.16-.76-.25-1.15a1.16,1.16,0,0,0-2-.73c-1.46,1.14-2.89,2.32-4.34,3.48A1.32,1.32,0,0,0,10,18.44c0,.87-.13,1.74-.11,2.61,0,.6-.4.8-.76,1s-.28-.16-.33-.31c-.37-1.17-.73-2.34-1.07-3.52a1.49,1.49,0,0,0-.76-.92l-3.58-2A1.49,1.49,0,0,1,5,14.71a20.06,20.06,0,0,0,2.19.39,1.52,1.52,0,0,0,1.34-.33c1.38-1.14,2.79-2.24,4.18-3.37a1.18,1.18,0,0,0-.28-2.17L4.07,5.43l-.65-.32a1.67,1.67,0,0,1,1.92-.62C9.18,5.43,13,6.26,16.88,7.15a1.67,1.67,0,0,0,1.57-.36c1-.83,2-1.62,3-2.44a4.8,4.8,0,0,1,3.16-.83c.31,0,.45.16.39.45a4.61,4.61,0,0,1-1.44,2.86c-1,.84-2.06,1.69-3.11,2.5a1.59,1.59,0,0,0-.65,1.41c0,.91,0,1.81,0,2.72l2.29-1.9h0a1.09,1.09,0,0,1,.47-1C23.33,10,24,9.39,24.79,8.83A6.67,6.67,0,0,0,27.3,4,2.29,2.29,0,0,0,25.22,1.28Z"/></g></g></svg>