<svg width="43" height="43" viewBox="0 0 43 43" fill="none" xmlns="http://www.w3.org/2000/svg">
<path d="M41.5157 12.4901C41.1428 11.2572 41.5594 9.95042 41.3276 8.69737C41.1361 7.64253 40.6624 6.65151 40.098 5.74784C39.0768 4.11183 37.0074 3.37276 35.1799 3.14433C33.9437 2.98979 32.6369 3.1544 31.5081 2.51612C30.6851 2.05253 29.8116 1.56206 28.9113 1.21269C26.6505 0.342607 24.057 0.225029 21.6551 0.154482L21.5005 0.151123L21.346 0.154482C18.9474 0.225029 16.354 0.342607 14.0931 1.21269C13.1928 1.5587 12.3194 2.04917 11.4963 2.51612C10.3676 3.1544 9.06077 2.98979 7.82116 3.14433C5.99702 3.3694 3.92765 4.10847 2.9064 5.74784C2.34202 6.65151 1.87171 7.64253 1.67687 8.69737C1.44507 9.95042 1.86163 11.2572 1.48874 12.4901C1.40476 12.7689 1.05202 13.1821 1.18976 13.4946C1.33085 13.8204 2.10687 14.0589 2.39913 14.2269C3.37671 14.8014 4.45171 15.2078 5.54015 15.5303C6.26913 15.7487 7.02835 16.1989 7.8178 16.088C8.1571 16.041 8.41913 15.9032 8.46952 15.5539C8.62069 14.4856 8.99694 13.3971 9.34632 12.3826C9.44038 12.1071 9.58148 11.6167 9.97788 11.6503C10.2466 11.6738 10.3978 12.2516 10.381 12.4632C10.3172 13.2661 10.1291 14.0623 10.0988 14.8685C10.0652 15.7151 10.3071 16.4038 10.5759 17.1865C10.8782 18.0566 11.2477 18.9065 11.5098 19.79C11.7886 20.7542 11.6206 21.7721 11.3384 22.716C10.6598 24.9668 9.73937 27.0261 8.83905 29.1896C8.49976 29.9992 8.20413 30.8256 7.87155 31.6385C7.72063 32.007 7.55931 32.371 7.3878 32.7303C6.92085 33.7113 5.91976 34.447 6.04741 35.6698C6.24898 37.5914 8.0496 38.7067 9.54452 39.6305C13.0954 41.8275 17.3282 42.8689 21.5039 42.8488C25.683 42.8689 29.9158 41.8309 33.47 39.6305C34.9616 38.7067 36.7655 37.5914 36.9671 35.6698C37.0948 34.4503 36.0903 33.7113 35.6267 32.7303C35.4587 32.3742 35.2941 32.0047 35.1463 31.6385C34.8171 30.8256 34.5181 29.9992 34.1788 29.1896C33.2751 27.0261 32.3547 24.9668 31.6794 22.716C31.3973 21.7721 31.2259 20.7542 31.5081 19.79C31.7668 18.9032 32.1397 18.0566 32.4387 17.1865C32.7108 16.4038 32.9493 15.7151 32.9191 14.8685C32.8922 14.0589 32.7007 13.2661 32.6369 12.4632C32.6234 12.255 32.7712 11.6738 33.0366 11.6503C33.4364 11.62 33.5775 12.1071 33.6716 12.3826C34.0209 13.4005 34.3972 14.4889 34.5484 15.5539C34.5987 15.9032 34.8608 16.041 35.2001 16.088C35.9929 16.1989 36.7454 15.7487 37.4777 15.5303C38.5662 15.2078 39.6378 14.8014 40.6187 14.2269C40.9076 14.0589 41.6837 13.8204 41.8281 13.4946C41.9524 13.1821 41.603 12.7689 41.5157 12.4901Z" fill="#FCC21B"/>
<path d="M18.0868 8.99302C17.2134 9.37935 16.2089 9.31552 15.3254 8.98966L15.2683 8.96951C14.7677 8.77802 14.2369 8.4488 13.8271 8.09943C12.5169 6.9606 12.3859 4.97521 12.9033 3.42318C13.0377 3.01669 13.5012 2.46911 13.985 2.56989C14.0555 2.58669 14.1294 2.61357 14.2034 2.65052C14.6871 2.90247 15.0499 3.30896 15.49 3.62138C16.2559 4.1656 17.0487 4.40411 17.9121 4.74005C18.5168 4.97185 19.1383 5.16333 19.7665 5.29771C19.9344 5.3313 20.1226 5.38841 20.2771 5.44552C20.519 5.53622 20.5324 5.80497 20.5425 6.02669C20.5727 6.59443 19.9815 7.31333 19.6489 7.7299C19.229 8.2506 18.715 8.71755 18.0868 8.99302ZM28.9376 8.09607C28.5311 8.4488 28.0003 8.77466 27.4964 8.96615L27.4427 8.9863C26.5625 9.31216 25.5547 9.37599 24.6812 8.98966C24.053 8.71419 23.5391 8.2506 23.1158 7.71982C22.7832 7.30661 22.1919 6.58435 22.2222 6.01661C22.2356 5.7949 22.2491 5.52615 22.4909 5.43544C22.6488 5.37497 22.8369 5.32122 23.0016 5.28763C23.6331 5.15325 24.2546 4.96177 24.8593 4.72997C25.7227 4.3974 26.5155 4.15552 27.2814 3.6113C27.7215 3.29888 28.0877 2.88904 28.568 2.64044C28.642 2.60349 28.7159 2.57325 28.7864 2.55982C29.2702 2.45904 29.7304 3.00997 29.8648 3.4131C30.3821 4.97185 30.2511 6.95724 28.9376 8.09607Z" fill="white"/>
<path d="M21.3964 36.1905C22.2647 36.1905 22.9686 35.4866 22.9686 34.6183C22.9686 33.75 22.2647 33.0461 21.3964 33.0461C20.5281 33.0461 19.8242 33.75 19.8242 34.6183C19.8242 35.4866 20.5281 36.1905 21.3964 36.1905Z" fill="#F79329"/>
<path d="M21.3964 28.1113C22.2647 28.1113 22.9686 27.4074 22.9686 26.5391C22.9686 25.6708 22.2647 24.9669 21.3964 24.9669C20.5281 24.9669 19.8242 25.6708 19.8242 26.5391C19.8242 27.4074 20.5281 28.1113 21.3964 28.1113Z" fill="#F79329"/>
<path d="M21.3964 20.0354C22.2647 20.0354 22.9686 19.3315 22.9686 18.4632C22.9686 17.5949 22.2647 16.891 21.3964 16.891C20.5281 16.891 19.8242 17.5949 19.8242 18.4632C19.8242 19.3315 20.5281 20.0354 21.3964 20.0354Z" fill="#F79329"/>
<path d="M21.3964 11.956C22.2647 11.956 22.9686 11.2521 22.9686 10.3838C22.9686 9.51554 22.2647 8.81165 21.3964 8.81165C20.5281 8.81165 19.8242 9.51554 19.8242 10.3838C19.8242 11.2521 20.5281 11.956 21.3964 11.956Z" fill="#F79329"/>
</svg>
