<svg width="60" height="60" viewBox="0 0 60 60" fill="none" xmlns="http://www.w3.org/2000/svg">
<path d="M45.4172 26.2778L46.0312 20.3387L44.2266 12.1543C44.2266 12.1543 45.5484 10.7012 46.2938 10.3497C47.0391 9.99809 47.8781 9.80122 47.8781 9.80122C47.8781 9.80122 49.8141 9.47309 51.0891 9.42622C52.3641 9.38403 53.8172 9.60434 53.775 8.98559C53.7328 8.37153 48.0141 7.40122 44.8875 7.31215C41.7656 7.22309 31.3359 7.7059 23.8125 11.3575C16.2891 15.009 14.3109 18.2715 14.3109 18.2715L11.8031 23.245L9.29531 24.2575C9.29531 24.2575 7.00781 28.0872 6.25781 30.2856C5.50781 32.484 4.72031 34.1997 4.32188 34.6403C3.92813 35.0809 1.94531 36.6184 1.94531 36.9278C1.94531 37.2372 3.97031 38.3809 3.97031 38.6856C3.97031 38.995 2.34375 39.3887 2.34375 39.7403C2.34375 40.0918 5.20312 43.3028 9.51562 46.5606C13.8281 49.8184 19.1484 52.1903 23.0672 53.1606C26.9812 54.1262 32.2172 54.5668 32.4375 54.3934C32.6578 54.2153 28.3453 50.8309 28.3453 50.8309C28.3453 50.8309 32.4797 52.5887 35.0766 52.8981C37.6734 53.2075 38.0812 53.2262 40.6219 53.1278C43.1625 53.0293 47.2641 49.42 47.2641 49.42L49.4625 42.159L48.4734 37.42C48.4734 37.42 47.1422 35.2872 47.0859 34.8465C47.0297 34.4059 47.6344 34.7434 48.1734 34.8793C48.8344 35.0434 50.3719 36.1122 51.3422 37.1247C51.9375 37.7481 53.7703 39.7028 54.5297 40.5231C54.8906 40.9168 55.5375 40.7668 55.6969 40.2606L56.4141 36.1356L56.0203 23.1137L54.5297 17.9903C54.3609 17.5497 53.7656 17.47 53.4891 17.859C52.4344 19.345 50.1375 22.8653 49.4625 23.7325C48.5391 24.9184 46.9594 26.7137 46.0641 27.0325C45.5344 27.22 45.3375 27.1309 45.3375 27.1309L45.4172 26.2778Z" fill="#FFB800"/>
<path d="M39.9608 53.0294C39.9608 53.0294 46.7296 51.6934 47.9108 45.1778C48.8343 40.0966 46.9218 34.8184 46.9218 34.8184C46.9218 34.8184 46.9921 34.0966 47.7796 35.0809C49.2327 36.895 51.9374 42.8997 48.4733 49.0028C45.5437 54.1638 40.1577 53.2263 39.8296 53.2263C39.5015 53.2263 39.9608 53.0294 39.9608 53.0294ZM47.878 9.80126C47.878 9.80126 43.753 9.50595 43.589 13.2981C43.4577 16.3028 45.1077 18.4122 45.0421 21.6466C44.9765 24.8809 44.6202 27.22 45.3374 27.1216C45.8343 27.0559 46.9218 25.5044 46.9546 22.1716C46.9874 18.8388 44.7468 15.3934 44.8077 13.2606C44.878 11.0575 47.878 9.80126 47.878 9.80126Z" fill="#B5D219"/>
<path d="M53.8876 17.5917C53.1985 17.8636 53.9204 19.9683 54.1501 20.6292C54.3798 21.2901 55.0595 24.8854 55.1063 30.1636C55.1391 33.9558 54.7782 37.6542 54.6095 38.4792C54.4407 39.3042 54.0798 40.5558 54.9704 40.7573C55.861 40.9589 56.747 39.1073 57.2485 35.9714C57.6423 33.4964 57.6095 31.2511 57.6423 28.912C57.7126 23.9901 56.522 20.8261 56.0907 19.7714C55.6688 18.712 54.811 17.2261 53.8876 17.5917ZM36.4407 18.4026C35.6485 18.4917 36.9657 21.412 37.322 23.5495C37.8938 26.9808 37.8938 29.1792 37.8188 32.0058C37.7485 34.6261 37.1016 39.1636 35.0485 43.0261C34.5985 43.8745 34.322 44.6105 34.9501 44.6761C36.2016 44.8073 38.5595 41.7605 39.7688 38.4745C41.1282 34.7761 41.386 31.4808 40.8891 27.5526C40.4907 24.3933 39.7548 22.3073 39.2626 21.2198C38.8126 20.2355 37.8048 18.2526 36.4407 18.4026ZM25.4766 12.412C24.2579 12.7542 25.9735 15.2808 26.7188 17.2167C27.886 20.2401 30.3048 25.7058 30.3704 31.4808C30.436 37.2558 28.6548 41.5026 28.1251 42.8198C27.5766 44.1933 26.7282 46.162 26.4657 46.7245C26.2032 47.287 26.2126 47.9339 26.4985 48.0136C27.1595 48.1917 28.2704 47.4323 29.4001 46.298C30.1501 45.548 31.5563 44.0526 33.1735 39.4026C34.0595 36.8526 34.8985 32.3948 34.2845 27.4683C33.5532 21.6183 30.9563 17.6808 30.0282 16.2698C28.6548 14.1792 26.897 12.0136 25.4766 12.412Z" fill="#2C2F30"/>
<path d="M17.8216 18.0186C16.8325 18.2904 19.6356 21.1967 20.9575 24.5623C22.2794 27.9279 22.6825 30.7311 22.8512 33.6701C23.0153 36.6045 22.6075 39.7404 22.3216 41.6764C22.0919 43.2467 21.2528 46.0967 21.4216 46.6264C21.5856 47.1561 22.5653 47.1748 23.2919 45.9889C24.0184 44.8029 25.5794 42.2061 26.5356 36.5951C26.9809 33.9889 26.7653 27.8764 23.9294 23.4982C21.4825 19.7248 18.9747 17.6998 17.8216 18.0186ZM9.29968 24.2576C9.29968 24.2576 11.1466 21.6186 11.9387 20.6482C12.7309 19.6826 14.8872 17.4795 14.8872 17.4795C14.8872 17.4795 14.9762 23.7701 15.1966 25.4436C15.4169 27.117 16.1622 30.8107 17.0012 32.7467C17.4372 33.7545 18.2716 36.2154 18.145 37.2326C17.9247 39.0373 15.895 41.7467 15.0231 41.8498C13.1762 42.0701 11.3716 38.5592 10.5372 36.2623C9.34186 33.0092 8.41843 27.0701 9.29968 24.2576Z" fill="#2C2F30"/>
<path d="M16.008 35.4098C16.0549 36.6707 15.0283 37.477 13.9408 37.477C12.8533 37.477 12.0283 36.4363 12.0283 35.3441C12.0283 34.252 12.9518 33.4316 14.0393 33.4316C15.1268 33.4316 15.9611 34.2191 16.008 35.4098Z" fill="#FFB805"/>
<path d="M14.0954 35.3625C13.8095 35.6906 13.0079 35.6859 12.722 35.3484C12.436 35.0109 12.4735 34.3265 12.886 33.9796C13.2985 33.6281 13.8751 33.5625 14.2173 34.0828C14.4564 34.4531 14.447 34.9546 14.0954 35.3625Z" fill="#FFEDC7"/>
</svg>
