<svg width="38" height="38" viewBox="0 0 12 38" fill="none" xmlns="http://www.w3.org/2000/svg">
<path d="M12 17.1V34.2C12 35.2078 11.5786 36.1744 10.8284 36.887C10.0783 37.5996 9.06087 38 8 38H4C2.93913 38 1.92172 37.5996 1.17157 36.887C0.421428 36.1744 0 35.2078 0 34.2V17.1C0.002197 16.5972 0.109394 16.0999 0.31538 15.6368C0.521367 15.1736 0.822048 14.7539 1.2 14.402C4.2 11.191 4 3.8 4 3.8H2V0H10V3.8H8C8 3.8 7.8 11.191 10.8 14.402C11.178 14.7539 11.4786 15.1736 11.6846 15.6368C11.8906 16.0999 11.9978 16.5972 12 17.1V17.1Z" fill="black"/>
<path d="M4.30824 19.5455V29H2.92791V19.5455H4.30824ZM9.47523 21.9091V23.017H5.60201V21.9091H9.47523ZM6.64071 20.2102H8.02104V26.918C8.02104 27.1857 8.06105 27.3873 8.14107 27.5227C8.22109 27.6551 8.32419 27.7459 8.45037 27.7951C8.57963 27.8413 8.71967 27.8643 8.87047 27.8643C8.98127 27.8643 9.07821 27.8567 9.16131 27.8413C9.24441 27.8259 9.30904 27.8136 9.3552 27.8043L9.60449 28.9446C9.52447 28.9754 9.4106 29.0062 9.26287 29.0369C9.11515 29.0708 8.93049 29.0893 8.7089 29.0923C8.34573 29.0985 8.00719 29.0339 7.69327 28.8984C7.37935 28.763 7.12544 28.5537 6.93155 28.2706C6.73766 27.9875 6.64071 27.632 6.64071 27.2042V20.2102Z" fill="white"/>
</svg>
