<svg width="24" height="24" viewBox="0 0 38 38" fill="none" xmlns="http://www.w3.org/2000/svg">
<path d="M37.8724 33.0911L32.4522 11.4091C32.1702 10.2817 31.232 9.50019 30.1611 9.50019H25.6894C25.9543 8.75427 26.1258 7.96234 26.1258 7.12514C26.1258 3.18998 22.9358 0 19.0007 0C15.0657 0 11.8757 3.18998 11.8757 7.12514C11.8757 7.96234 12.0464 8.75427 12.3121 9.50019H7.84043C6.76945 9.50019 5.83058 10.2825 5.54929 11.4091L0.127595 33.0911C-0.49065 35.5634 1.21564 38 3.56468 38H34.4361C36.7844 38 38.4907 35.5634 37.8724 33.0911ZM19 9.49944C17.6908 9.49944 16.625 8.43364 16.625 7.1244C16.625 5.81515 17.6908 4.74935 19 4.74935C20.3092 4.74935 21.375 5.81515 21.375 7.1244C21.375 8.43364 20.3092 9.49944 19 9.49944Z" fill="black"/>
<path d="M11.6875 31.2386C10.8672 31.2386 10.1641 31.1214 9.57812 30.8871C8.99574 30.6562 8.54297 30.3366 8.21982 29.9283C7.90021 29.5234 7.72088 29.0582 7.68182 28.5327H10.5156C10.544 28.7067 10.6151 28.8469 10.7287 28.9535C10.8423 29.06 10.9879 29.1364 11.1655 29.1825C11.3466 29.2322 11.549 29.2571 11.7727 29.2571C12.1527 29.2571 12.467 29.1648 12.7156 28.9801C12.9677 28.7955 13.0938 28.4616 13.0938 27.9787V26.5938H13.0085C12.902 26.8707 12.7386 27.1069 12.5185 27.3022C12.2983 27.494 12.0337 27.6413 11.7248 27.7443C11.4158 27.8437 11.0767 27.8935 10.7074 27.8935C10.125 27.8935 9.58878 27.7585 9.09872 27.4886C8.61222 27.2187 8.22159 26.7908 7.92685 26.2049C7.63565 25.619 7.49006 24.8537 7.49006 23.9091C7.49006 22.9219 7.64276 22.1193 7.94815 21.5014C8.2571 20.8835 8.65483 20.4308 9.14134 20.1431C9.63139 19.8555 10.1463 19.7116 10.6861 19.7116C11.0909 19.7116 11.446 19.7827 11.7514 19.9247C12.0568 20.0632 12.3125 20.2496 12.5185 20.484C12.7244 20.7148 12.8807 20.9687 12.9872 21.2457H13.0511V19.8182H15.9915V27.9787C15.9915 28.6712 15.8121 29.2589 15.4535 29.7418C15.0984 30.2283 14.5977 30.5994 13.9513 30.8551C13.305 31.1108 12.5504 31.2386 11.6875 31.2386ZM11.794 25.8054C12.0639 25.8054 12.2947 25.7308 12.4865 25.5817C12.6818 25.429 12.831 25.2124 12.9339 24.9318C13.0405 24.6477 13.0938 24.3068 13.0938 23.9091C13.0938 23.5043 13.0405 23.158 12.9339 22.8704C12.831 22.5792 12.6818 22.3572 12.4865 22.2045C12.2947 22.0483 12.0639 21.9702 11.794 21.9702C11.5241 21.9702 11.2933 22.0483 11.1016 22.2045C10.9134 22.3572 10.7678 22.5792 10.6648 22.8704C10.5653 23.158 10.5156 23.5043 10.5156 23.9091C10.5156 24.3139 10.5653 24.6584 10.6648 24.9425C10.7678 25.223 10.9134 25.4379 11.1016 25.587C11.2933 25.7326 11.5241 25.8054 11.794 25.8054ZM17.4869 28V19.8182H20.2781V21.3736H20.3634C20.5338 20.8622 20.825 20.4574 21.2369 20.1591C21.6489 19.8608 22.1389 19.7116 22.7071 19.7116C23.2824 19.7116 23.7778 19.8643 24.1933 20.1697C24.6088 20.4716 24.8591 20.8729 24.9443 21.3736H25.0296C25.1681 20.8729 25.4628 20.4716 25.9138 20.1697C26.3648 19.8643 26.8939 19.7116 27.5012 19.7116C28.286 19.7116 28.9216 19.9638 29.4081 20.468C29.8982 20.9723 30.1432 21.6435 30.1432 22.4815V28H27.2029V23.2273C27.2029 22.8686 27.1123 22.5881 26.9312 22.3857C26.7501 22.1797 26.5068 22.0767 26.2014 22.0767C25.8996 22.0767 25.6599 22.1797 25.4823 22.3857C25.3083 22.5881 25.2213 22.8686 25.2213 23.2273V28H22.4088V23.2273C22.4088 22.8686 22.3183 22.5881 22.1372 22.3857C21.9561 22.1797 21.7128 22.0767 21.4074 22.0767C21.205 22.0767 21.031 22.1229 20.8854 22.2152C20.7398 22.3075 20.6262 22.4407 20.5445 22.6147C20.4664 22.7852 20.4273 22.9893 20.4273 23.2273V28H17.4869Z" fill="white"/>
</svg>
