<svg xmlns="http://www.w3.org/2000/svg" viewBox="0 0 60.54 41.67"><defs><style>.cls-1{fill:#1d1d1b;}</style></defs><g id="Layer_2" data-name="Layer 2"><g id="Layer_1-2" data-name="Layer 1"><path class="cls-1" d="M9.52,29.13A18.71,18.71,0,0,0,25,39.64c-.07-.31-.16-.61-.22-.91A4.84,4.84,0,0,1,25,36a9.44,9.44,0,0,1,3.73-5,5.28,5.28,0,0,1,2-.69,1.78,1.78,0,0,0,1.38-1.07,8.83,8.83,0,0,1,1.09-1.79A3.68,3.68,0,0,1,39,27.19c.47.49.86,1.06,1.3,1.58,1.46,1.74,3.1.89,3.67-.66a21.62,21.62,0,0,0,1.13-3.86c.12-.69.44-1,1-1A1,1,0,0,1,47,24.38,20.56,20.56,0,0,1,31.93,40.9c-8.31,2.11-15.44-.17-21.22-6.51a17.91,17.91,0,0,1-3.13-4.88.84.84,0,0,0-.79-.57,11.28,11.28,0,0,1-4.47-1.28A4,4,0,0,1,.59,21.88,11.72,11.72,0,0,1,4,18.16a14.83,14.83,0,0,1,1.55-1.08,1.59,1.59,0,0,0,.74-1C8.49,7.78,13.76,2.54,22.08.55A19.85,19.85,0,0,1,36.14,2.41c.56.28.8.7.69,1.14a1,1,0,0,1-1.49.58,24.3,24.3,0,0,0-5-1.83,2.22,2.22,0,0,0-2.51.91,1.3,1.3,0,0,0-.18,1.55,10.87,10.87,0,0,0,1.17,1.67c1.51,2,1.42,3.11-.37,4.81-.65.62-1.35,1.2-1.94,1.88a3.86,3.86,0,0,0-.91,3.5,7.79,7.79,0,0,1,0,3.33,4.31,4.31,0,0,1-3.31,3.46,11.79,11.79,0,0,1-5.93,0c-2.14-.54-3-2.12-2.23-4.2a7.76,7.76,0,0,1,1.06-2,2.09,2.09,0,0,0,0-2.69,5.36,5.36,0,0,0-4.35-2.32,1.6,1.6,0,0,0-1.63,1.07,18.94,18.94,0,0,0-.62,13.52c.1.34.25.43.6.43a42.81,42.81,0,0,0,12-1.89,75.06,75.06,0,0,0,15.26-6.47,5.21,5.21,0,0,1,.52-.28.92.92,0,0,1,1.22.36.94.94,0,0,1-.31,1.28c-.47.3-1,.55-1.45.81A72.5,72.5,0,0,1,18.8,27.92a40,40,0,0,1-8.37,1.17C10.15,29.09,9.86,29.11,9.52,29.13Zm1.29-18.89a8,8,0,0,1,5.8,3,4.05,4.05,0,0,1,.16,5A7.35,7.35,0,0,0,15.89,20c-.29.95-.08,1.41.88,1.64a10.69,10.69,0,0,0,5,0,2.47,2.47,0,0,0,2-2.23,6.47,6.47,0,0,0,0-2.15,7.26,7.26,0,0,1-.1-2.46,6.38,6.38,0,0,1,2.12-3.61c.58-.56,1.19-1.09,1.75-1.68s.56-.74.1-1.4-.94-1.23-1.37-1.87a3.54,3.54,0,0,1-.68-2.54,4.3,4.3,0,0,1,.79-1.72A19.18,19.18,0,0,0,10.81,10.24ZM42,31.68a4.8,4.8,0,0,1-3.42-2c-.31-.37-.57-.78-.9-1.14a1.79,1.79,0,0,0-3,.06,5.22,5.22,0,0,0-.78,1.28,3.76,3.76,0,0,1-3,2.31,3.36,3.36,0,0,0-1.83.86,8.46,8.46,0,0,0-2.31,3.59,3.11,3.11,0,0,0,.31,2.79.56.56,0,0,0,.57.3A18.92,18.92,0,0,0,37.93,35.9,18.47,18.47,0,0,0,42,31.68ZM6.62,27a21,21,0,0,1-.87-7.81c-.38.29-.69.51-1,.74a8.39,8.39,0,0,0-2.65,3.14,2,2,0,0,0,.8,2.71A8.67,8.67,0,0,0,6.62,27Z"/><path class="cls-1" d="M48.76,16.83c-.78.45-1.49.86-2.21,1.26a.55.55,0,0,0-.27.43c-.14.73-.3,1.44-.43,2.17a1.17,1.17,0,0,1-.59.85c-.75.42-1.49.86-2.25,1.28a.94.94,0,0,1-1.49-.75c-.19-1.3-.38-2.59-.55-3.89a1.21,1.21,0,0,0-.51-.89c-1-.77-2.05-1.58-3.07-2.38a1,1,0,0,1,.14-1.77c.68-.4,1.37-.77,2-1.19a1.29,1.29,0,0,1,1.22-.11c.64.24,1.3.43,1.94.66a.76.76,0,0,0,.7-.07c.65-.4,1.32-.78,2-1.16,0-.2-.19-.23-.29-.3L38.8,6.79c-1-.63-.93-1.36.05-1.94C39.58,4.43,40.32,4,41,3.58a1.26,1.26,0,0,1,1.22-.09c3.08,1.23,6.16,2.44,9.23,3.68a1.18,1.18,0,0,0,1.24-.09c.63-.41,1.3-.76,2-1.14a5.41,5.41,0,0,1,4.43-.39A1.88,1.88,0,0,1,60.46,8a5.46,5.46,0,0,1-2.66,3.62c-.68.37-1.33.78-2,1.14a.9.9,0,0,0-.5.74c-.4,2.83-.82,5.65-1.23,8.48-.08.55-.15,1.1-.24,1.65a1,1,0,0,1-.55.81c-.85.48-1.68,1-2.53,1.45a.92.92,0,0,1-1.46-.79c-.15-2.17-.28-4.35-.41-6.52ZM39.57,14.2l2.65,2.07a1.2,1.2,0,0,1,.5.85c.13,1,.28,2,.43,3,0,.13,0,.41.22.3s.69-.27.76-.75c.09-.71.28-1.41.41-2.11a1.11,1.11,0,0,1,.56-.81c1.32-.76,2.64-1.53,4-2.28a1,1,0,0,1,1.51.85c.09,1.36.16,2.73.24,4.09s.14,2.48.22,3.72c0,.11,0,.4.17.29s.76-.24.83-.78c.47-3.37,1-6.72,1.47-10.08a1.33,1.33,0,0,1,.7-1.07c1-.53,1.9-1.09,2.85-1.63A3.84,3.84,0,0,0,58.59,7.7c.08-.23,0-.38-.26-.41a3.92,3.92,0,0,0-2.67.28c-.91.54-1.84,1-2.74,1.6a1.4,1.4,0,0,1-1.33.09c-3-1.21-6-2.38-9-3.62a1.36,1.36,0,0,0-1.64.26l.49.34,6.3,4.15a1,1,0,0,1-.05,1.79c-1.27.74-2.56,1.46-3.83,2.21a1.2,1.2,0,0,1-1.12.09A15.33,15.33,0,0,1,41,13.89,1.19,1.19,0,0,0,39.57,14.2Z"/></g></g></svg>