<svg width="60" height="58" viewBox="0 0 60 58" fill="none" xmlns="http://www.w3.org/2000/svg">
<path d="M0.161773 58H59.9998V38.532L0.161773 53.198V58ZM0.161773 49.614L59.9998 37.863V37.142L0.161773 45.54V49.614ZM40.3078 2.10003C39.0748 1.46603 36.4688 0.591031 35.1428 0.350031C34.3828 0.212031 33.4158 0.115031 32.3158 0.0580309C31.0557 -0.00170355 29.7939 -0.0157128 28.5328 0.0160308C22.9528 0.137031 17.6718 0.593031 14.5058 2.37303C13.0078 3.21503 12.0208 4.23203 11.1078 5.16803C8.41077 7.93303 6.34677 11.286 4.83477 14.71C1.59477 22.046 -2.48023 31.29 1.93977 35.29C1.99477 35.347 2.04977 35.403 2.10877 35.459C2.12277 35.47 2.13177 35.484 2.14677 35.496H2.15177C2.69982 36.0131 3.37336 36.3781 4.10577 36.555L4.07777 36.556C4.07777 36.556 4.54677 36.87 4.90877 37.365L0.161773 37.657V40.297L4.47977 39.984C3.75977 40.917 5.09277 42.441 8.81877 42.085C21.6248 40.856 59.9998 36.907 59.9998 36.907V33.406L1.83277 32.461C1.73773 32.1829 1.66484 31.8977 1.61477 31.608H14.2378C17.7978 31.608 24.7338 29.17 28.1608 28.01C31.9278 26.736 39.0638 22.495 42.9318 21.787C43.6518 21.655 45.1188 21.847 45.8368 21.981C46.7748 22.157 48.1378 22.52 49.6708 22.971V15.72C48.2038 15.049 46.8928 14.526 45.9578 14.302C45.3048 14.145 43.9338 14.074 43.2948 14.302C38.8778 15.871 31.6548 23.365 27.4338 25.58C24.1838 27.286 17.3788 30.44 13.8328 30.44H1.50077C1.45377 28.584 1.94277 26.368 2.69477 24.05C2.68177 24.105 2.66377 24.165 2.65077 24.22C2.91177 24.78 3.26977 25.133 3.65077 25.11C4.33977 25.071 4.82777 23.86 4.74477 22.407C4.69377 21.506 4.42977 20.743 4.07577 20.29C4.43877 19.389 4.81577 18.494 5.19277 17.622C5.24277 18.114 5.56377 18.677 5.96477 18.677H15.2058C16.4978 18.677 19.1138 16.869 20.2308 16.088C23.2948 13.944 29.0778 8.31403 32.0758 6.03703C32.1378 5.99003 32.2118 5.93503 32.2878 5.88203C34.2468 7.46603 36.2308 9.97503 36.2308 9.97503C36.2308 9.97503 39.8808 7.54203 41.2368 7.30103C42.2718 7.11803 44.4518 7.37803 45.3928 7.93403C47.1868 8.99403 57.1528 15.562 59.9998 17.442V16.101C59.9998 16.101 45.5638 4.80503 40.3078 2.10003Z" fill="black"/>
</svg>
