<svg width="38" height="38" viewBox="0 0 38 38" fill="none" xmlns="http://www.w3.org/2000/svg">
<path fill-rule="evenodd" clip-rule="evenodd" d="M25.726 6.384C23.9522 4.60969 21.5562 3.59741 19.0475 3.5625H18.9525C16.4437 3.59691 14.0472 4.60884 12.2731 6.38303C10.4989 8.15723 9.48692 10.5536 9.45252 13.0625C9.42164 14.8438 9.92277 16.5941 10.8918 18.0904L18.3683 33.25H19.6341L27.1083 18.0904C28.0796 16.5941 28.5808 14.8438 28.5475 13.0625C28.5126 10.5538 27.5003 8.1578 25.726 6.384ZM18.8219 5.9375L19.0166 5.96125L19.1924 5.9375C21.0581 6.01876 22.8218 6.81166 24.121 8.1532C25.4201 9.49475 26.156 11.283 26.1773 13.1504C26.1954 14.4757 25.8085 15.775 25.0681 16.8744L25.0206 16.9551L24.9803 17.0382L19 29.1626L13.0221 17.0501L12.9818 16.9575L12.9343 16.8767C12.1939 15.7773 11.807 14.4781 11.8251 13.1528C11.8454 11.2832 12.5821 9.49271 13.8834 8.15029C15.1848 6.80786 16.9515 6.01585 18.8195 5.9375H18.8219ZM20.2754 11.0889C20.0161 10.9155 19.7251 10.7948 19.4191 10.7339C19.1132 10.6729 18.7982 10.6728 18.4922 10.7335C18.1862 10.7943 17.8952 10.9147 17.6357 11.088C17.3763 11.2612 17.1535 11.4839 16.9801 11.7432C16.8067 12.0025 16.686 12.2935 16.6251 12.5994C16.5641 12.9054 16.564 13.2204 16.6248 13.5264C16.6855 13.8324 16.8059 14.1234 16.9792 14.3828C17.1524 14.6423 17.3751 14.8651 17.6344 15.0385C18.1581 15.3887 18.7996 15.5165 19.4176 15.3938C20.0356 15.2711 20.5795 14.9079 20.9297 14.3842C21.2799 13.8604 21.4077 13.219 21.285 12.601C21.1623 11.983 20.7991 11.4391 20.2754 11.0889ZM16.3163 9.11287C16.8345 8.7486 17.4203 8.49166 18.0393 8.35716C18.6583 8.22266 19.2979 8.21332 19.9206 8.32969C20.5432 8.44607 21.1363 8.6858 21.6649 9.03479C22.1935 9.38378 22.647 9.83497 22.9987 10.3618C23.3503 10.8887 23.5931 11.4805 23.7126 12.1026C23.8321 12.7246 23.826 13.3643 23.6946 13.984C23.5632 14.6036 23.3093 15.1908 22.9476 15.7108C22.586 16.2308 22.124 16.6733 21.5888 17.0121C20.5412 17.6754 19.2757 17.9027 18.0628 17.6456C16.8498 17.3884 15.7855 16.6672 15.0971 15.6359C14.4088 14.6046 14.1509 13.345 14.3787 12.1262C14.6065 10.9074 15.3019 9.82593 16.3163 9.11287Z" fill="black"/>
</svg>
