<svg xmlns="http://www.w3.org/2000/svg" viewBox="0 0 216.68 92.16"><g id="Layer_2" data-name="Layer 2"><g id="Layer_2-2" data-name="Layer 2"><path d="M216.4,52.12A4.6,4.6,0,0,0,212,49.23H167.09c-10.8-14.17-27.75-15.78-29.68-15.93h-9A24.41,24.41,0,0,0,121,24.55c-5.58-4.14-12.53-7-19.53-7H68.13L49.06,0,45.33,4.05,60,17.58H35.91v5.51h7.68L40.82,33.27H27.73v5.56H39.31l-2.83,10.4H27.53a4.53,4.53,0,0,0-4.63,4.41V70.91H7.58a4.55,4.55,0,0,0-4.52,3.43L.12,86.76A4.24,4.24,0,0,0,.94,90.4a4.68,4.68,0,0,0,3.7,1.76H174.06a4.74,4.74,0,0,0,3.18-1.2l38-34.1A4.26,4.26,0,0,0,216.4,52.12Zm-167.1-29h53.88a8.09,8.09,0,0,1,2,.24c3.21.79,12.14,3.51,16.85,10H46.53ZM95.39,44.72a2.87,2.87,0,1,1-2.87-2.87A2.87,2.87,0,0,1,95.39,44.72Zm-24,0a2.88,2.88,0,1,1-2.88-2.87A2.87,2.87,0,0,1,71.39,44.72ZM174,87.07H5.27L7.9,76H23.34A4.54,4.54,0,0,0,28,71.56V54.31H210.46Z"/><path d="M57.13,69.59a2.88,2.88,0,1,0-2.88-2.88A2.88,2.88,0,0,0,57.13,69.59Z"/><path d="M80.75,69.59a2.88,2.88,0,1,0-2.88-2.88A2.87,2.87,0,0,0,80.75,69.59Z"/><path d="M104.37,69.59a2.88,2.88,0,1,0-2.87-2.88A2.88,2.88,0,0,0,104.37,69.59Z"/></g></g></svg>