<svg xmlns="http://www.w3.org/2000/svg" viewBox="0 0 200.24 81.81"><g id="Layer_2" data-name="Layer 2"><g id="Layer_2-2" data-name="Layer 2"><path d="M196.9,47.48l-22.65-.12c-12.94-18.35-49.86-24.78-51.45-25h-4C99.19,9.43,84.75,7.36,77.47,8.41,76.46,6,73.77,2.72,66.88,0L65,4.74C70.59,7,72.23,9.17,72.71,10.3c-2.86,2.62-5.34,8.27-6.74,12H56.41l-11,25.27c-32.91,1.68-44,30.52-44.14,30.81L0,81.81H151.23c39.11,0,48-30.79,48.11-31.1l.9-3.21ZM85.53,15.72a2.07,2.07,0,1,1-2.07,2.06A2.07,2.07,0,0,1,85.53,15.72ZM50.61,67.21a2.74,2.74,0,1,1,2.73-2.73A2.73,2.73,0,0,1,50.61,67.21Zm15.34,0a2.74,2.74,0,1,1,2.73-2.73A2.72,2.72,0,0,1,66,67.21Zm15.34,0A2.74,2.74,0,1,1,84,64.48,2.73,2.73,0,0,1,81.29,67.21Zm39.44,0a2.74,2.74,0,1,1,2.74-2.73A2.73,2.73,0,0,1,120.73,67.21Zm15.34,0a2.74,2.74,0,1,1,2.73-2.73A2.73,2.73,0,0,1,136.07,67.21Zm15.34,0a2.74,2.74,0,1,1,2.73-2.73A2.73,2.73,0,0,1,151.41,67.21ZM51.07,47.4l8.7-20h62.37c2.75.49,32.47,6.15,45.49,19.93C132.72,47.17,76,47,51.07,47.4Z"/><path d="M77.54,40.17a2.74,2.74,0,1,0-2.73-2.74A2.73,2.73,0,0,0,77.54,40.17Z"/><path d="M92.88,40.17a2.74,2.74,0,1,0-2.74-2.74A2.74,2.74,0,0,0,92.88,40.17Z"/><path d="M108.22,40.17a2.74,2.74,0,1,0-2.74-2.74A2.74,2.74,0,0,0,108.22,40.17Z"/></g></g></svg>