<svg width="56" height="66" viewBox="0 0 56 66" fill="none" xmlns="http://www.w3.org/2000/svg">
<path d="M23 0.5C19.855 0.5 17.62 2.725 16.515 5.5H13C6.125 5.5 0.5 11.125 0.5 18V45.5C0.503458 48.386 1.33771 51.2099 2.90308 53.6344C4.46845 56.0589 6.69875 57.9815 9.3275 59.1725L3 65.5H8.86L13.9375 60.4225C14.4375 60.4725 14.9825 60.5 15.5 60.5H40.5C41.0175 60.5 41.565 60.47 42.0625 60.4225L47.14 65.5H53L46.6725 59.1725C49.3013 57.9815 51.5316 56.0589 53.0969 53.6344C54.6623 51.2099 55.4965 48.386 55.5 45.5V18C55.5 11.125 49.875 5.5 43 5.5H39.485C38.38 2.725 36.145 0.5 33 0.5H23ZM23 5.5H33C34.415 5.5 35.5 6.585 35.5 8V10.5H43C46.3 10.5 49.095 12.57 50.11 15.5H5.89C6.40662 14.0298 7.36952 12.7577 8.64421 11.8613C9.91889 10.9649 11.4417 10.489 13 10.5H20.5V8C20.5 6.585 21.585 5.5 23 5.5ZM5.5 20.5H50.5V33H5.5V20.5ZM5.5 38H50.5V45.5C50.5 51.0475 46.0475 55.5 40.5 55.5H15.5C9.9525 55.5 5.5 51.0475 5.5 45.5V38ZM28 40.5C26.6739 40.5 25.4021 41.0268 24.4645 41.9645C23.5268 42.9021 23 44.1739 23 45.5C23 46.8261 23.5268 48.0979 24.4645 49.0355C25.4021 49.9732 26.6739 50.5 28 50.5C29.3261 50.5 30.5979 49.9732 31.5355 49.0355C32.4732 48.0979 33 46.8261 33 45.5C33 44.1739 32.4732 42.9021 31.5355 41.9645C30.5979 41.0268 29.3261 40.5 28 40.5Z" fill="black"/>
</svg>
