<svg width="72" height="72" viewBox="0 0 72 72" fill="none" xmlns="http://www.w3.org/2000/svg">
<path d="M51 60H21V63C21 63.7957 20.6839 64.5587 20.1213 65.1213C19.5587 65.6839 18.7956 66 18 66H15C14.2044 66 13.4413 65.6839 12.8787 65.1213C12.3161 64.5587 12 63.7957 12 63V60H9V36H6V24H9V15C9 13.4087 9.63214 11.8826 10.7574 10.7574C11.8826 9.63214 13.4087 9 15 9H57C58.5913 9 60.1174 9.63214 61.2426 10.7574C62.3679 11.8826 63 13.4087 63 15V24H66V36H63V60H60V63C60 63.7957 59.6839 64.5587 59.1213 65.1213C58.5587 65.6839 57.7957 66 57 66H54C53.2043 66 52.4413 65.6839 51.8787 65.1213C51.3161 64.5587 51 63.7957 51 63V60ZM15 15V42H57V15H15ZM15 48V54H27V48H15ZM45 48V54H57V48H45Z" fill="black"/>
</svg>
