<svg width="44" height="60" viewBox="0 0 44 60" fill="none" xmlns="http://www.w3.org/2000/svg">
<path d="M42.171 41.1006C43.5942 39.6774 43.425 32.2112 43.425 32.2112C43.425 27.6531 42.0576 10.8953 40.1209 7.2467C38.1822 3.6002 27.354 0.522949 21.9977 0.522949C16.6414 0.522949 5.80915 3.6002 3.87453 7.2467C1.93784 10.8973 0.570403 27.6489 0.570403 32.2071C0.570403 32.2071 0.399215 39.6733 1.82234 41.1006C2.76078 42.039 6.37015 44.3593 9.37728 46.098L1.65528 59.4733H6.41965L7.80772 57.0705H36.1836L37.5717 59.4754H42.3402L34.6182 46.1001C37.6253 44.3634 41.2347 42.0411 42.1731 41.1026L42.171 41.1006ZM38.1285 31.6399C37.7787 31.6411 37.4363 31.5385 37.1448 31.345C36.8534 31.1515 36.6258 30.8759 36.4911 30.553C36.3564 30.2302 36.3205 29.8746 36.388 29.5313C36.4555 29.188 36.6233 28.8725 36.8703 28.6247C37.1172 28.3769 37.4322 28.2079 37.7752 28.1392C38.1183 28.0705 38.474 28.1051 38.7973 28.2387C39.1207 28.3723 39.3971 28.5989 39.5916 28.8897C39.7861 29.1805 39.8899 29.5225 39.8899 29.8723C39.8899 30.1041 39.8442 30.3336 39.7555 30.5476C39.6667 30.7617 39.5366 30.9562 39.3727 31.12C39.2087 31.2838 39.0141 31.4136 38.7999 31.5021C38.5857 31.5906 38.3562 31.636 38.1244 31.6358L38.1285 31.6399ZM31.116 11.3531H38.8917C39.562 14.5789 40.1601 19.5619 40.554 24.0024H31.1202V11.3552L31.116 11.3531ZM18.7348 3.44345H25.2647V6.19276H18.7348V3.44551V3.44345ZM5.11203 11.3552H12.8835V24.0045H3.44759C3.83947 19.5619 4.43759 14.5789 5.11203 11.3531V11.3552ZM5.87515 31.6399C5.63373 31.6567 5.39143 31.6237 5.16329 31.5429C4.93516 31.4622 4.72607 31.3354 4.549 31.1704C4.37193 31.0054 4.23067 30.8058 4.13399 30.584C4.03731 30.3621 3.98728 30.1227 3.98699 29.8807C3.98671 29.6387 4.03618 29.3992 4.13234 29.1771C4.2285 28.9551 4.3693 28.7551 4.54598 28.5897C4.72266 28.4243 4.93145 28.2971 5.1594 28.2158C5.38734 28.1345 5.62957 28.1009 5.87103 28.1171C6.3122 28.1536 6.72355 28.3546 7.02358 28.68C7.3236 29.0055 7.4904 29.4319 7.49092 29.8746C7.49144 30.3172 7.32564 30.7439 7.02638 31.0701C6.72712 31.3963 6.31624 31.5982 5.87515 31.6358V31.6399ZM8.26765 29.8723C8.26752 29.6403 8.31308 29.4106 8.40173 29.1962C8.49038 28.9818 8.62039 28.787 8.78433 28.6229C8.94827 28.4588 9.14293 28.3285 9.35721 28.2396C9.57148 28.1507 9.80117 28.1049 10.0332 28.1048C10.2651 28.1046 10.4949 28.1502 10.7093 28.2388C10.9236 28.3275 11.1184 28.4575 11.2826 28.6214C11.4467 28.7854 11.577 28.98 11.6659 29.1943C11.7548 29.4086 11.8006 29.6383 11.8007 29.8703C11.801 30.339 11.615 30.7887 11.2837 31.1204C10.9524 31.4521 10.503 31.6386 10.0342 31.6389C9.80206 31.639 9.57219 31.5934 9.35769 31.5047C9.14319 31.416 8.94826 31.2859 8.78403 31.1219C8.45235 30.7906 8.26586 30.3411 8.26559 29.8723H8.26765ZM10.192 52.9455L12.2338 49.4083H31.7657L33.8076 52.9455H10.192ZM32.1988 29.8723C32.1847 29.6318 32.2199 29.391 32.3023 29.1646C32.3847 28.9381 32.5125 28.731 32.6778 28.5557C32.8431 28.3805 33.0426 28.2409 33.2638 28.1456C33.4851 28.0502 33.7235 28.0011 33.9644 28.0013C34.2053 28.0014 34.4437 28.0508 34.6648 28.1464C34.886 28.242 35.0852 28.3818 35.2504 28.5572C35.4155 28.7327 35.543 28.94 35.6251 29.1665C35.7072 29.393 35.7422 29.6339 35.7278 29.8744C35.6969 30.3212 35.4976 30.7397 35.1701 31.0452C34.8426 31.3507 34.4113 31.5205 33.9634 31.5202C33.5155 31.52 33.0844 31.3497 32.7572 31.0438C32.4301 30.7379 32.2312 30.3192 32.2009 29.8723H32.1988Z" fill="black"/>
</svg>
