<svg width="60" height="55" viewBox="0 0 60 55" fill="none" xmlns="http://www.w3.org/2000/svg">
<path d="M49.9335 0H9.93992C7.21132 0 4.87251 0.977257 2.92351 2.93177C0.974502 4.88628 0 7.2317 0 9.96802V42.452C0 43.8593 0.487251 45.0515 1.46175 46.0288C2.43626 47.006 3.62515 47.4947 5.02843 47.4947H5.26231C5.73007 49.6055 6.87999 51.3842 8.71205 52.8305C10.5441 54.2768 12.6295 55 14.9684 55C17.697 55 20.0358 54.0227 21.9848 52.0682C23.9338 50.1137 24.9083 47.7683 24.9083 45.032C24.9083 42.2957 23.9338 39.9307 21.9848 37.9371C20.0358 35.9435 17.697 34.9467 14.9684 34.9467C12.6295 34.9467 10.5831 35.6503 8.82899 37.0576C7.07489 38.4648 5.88599 40.263 5.26231 42.452H5.02843V9.96802C5.02843 8.63895 5.51568 7.46624 6.49018 6.44989C7.46469 5.43355 8.6146 4.92537 9.93992 4.92537H49.9335C51.2588 4.92537 52.4087 5.43355 53.3832 6.44989C54.3577 7.46624 54.845 8.63895 54.845 9.96802V22.516H44.9051C43.2679 22.516 42.4493 23.3369 42.4493 24.9787V30.0213C42.4493 31.6631 43.2679 32.484 44.9051 32.484H54.845V42.452H54.6111C54.1433 40.3412 52.9934 38.5625 51.1614 37.1162C49.3293 35.6699 47.2439 34.9467 44.9051 34.9467C42.5663 34.9467 40.5198 35.6503 38.7657 37.0576C37.0116 38.4648 35.8227 40.263 35.199 42.452H24.9083V47.4947H35.199C35.6668 49.6055 36.8167 51.3842 38.6488 52.8305C40.4808 54.2768 42.5663 55 44.9051 55C47.2439 55 49.2903 54.2964 51.0444 52.8891C52.7985 51.4819 53.9874 49.6837 54.6111 47.4947H54.845C56.2483 47.4947 57.4372 47.006 58.4117 46.0288C59.3862 45.0515 59.8734 43.8593 59.8734 42.452V9.96802C59.8734 7.2317 58.8989 4.88628 56.9499 2.93177C55.0009 0.977257 52.6621 0 49.9335 0ZM14.9684 39.9893C16.2937 39.9893 17.4631 40.478 18.4766 41.4552C19.49 42.4325 19.9968 43.6247 19.9968 45.032C19.9968 46.3611 19.49 47.5142 18.4766 48.4915C17.4631 49.4687 16.2937 49.9574 14.9684 49.9574C13.643 49.9574 12.4736 49.4687 11.4601 48.4915C10.4467 47.5142 9.93992 46.3611 9.93992 45.032C9.93992 43.6247 10.4467 42.4325 11.4601 41.4552C12.4736 40.478 13.643 39.9893 14.9684 39.9893ZM44.9051 49.9574C43.5797 49.9574 42.4103 49.4687 41.3969 48.4915C40.3834 47.5142 39.8766 46.3611 39.8766 45.032C39.8766 43.6247 40.3834 42.4325 41.3969 41.4552C42.4103 40.478 43.5797 39.9893 44.9051 39.9893C46.2304 39.9893 47.3998 40.478 48.4133 41.4552C49.4268 42.4325 49.9335 43.6247 49.9335 45.032C49.9335 46.3611 49.4268 47.5142 48.4133 48.4915C47.3998 49.4687 46.2304 49.9574 44.9051 49.9574ZM52.3892 12.4307C52.3892 11.7271 52.1554 11.1407 51.6876 10.6716C51.2198 10.2026 50.6351 9.96802 49.9335 9.96802H12.5126C11.1093 9.96802 9.92043 10.4566 8.94593 11.4339C7.97143 12.4112 7.48418 13.6034 7.48418 15.0107V19.936H52.3892V12.4307ZM37.4209 30.0213V24.9787C37.4209 23.3369 36.6023 22.516 34.9651 22.516H9.93992C8.30276 22.516 7.48418 23.3369 7.48418 24.9787V30.0213C7.48418 30.7249 7.71806 31.3113 8.18582 31.7804C8.65358 32.2495 9.23828 32.484 9.93992 32.484H34.9651C35.6668 32.484 36.2515 32.2495 36.7192 31.7804C37.187 31.3113 37.4209 30.7249 37.4209 30.0213Z" fill="#C00000"/>
</svg>
