<svg xmlns="http://www.w3.org/2000/svg" viewBox="0 0 69.86 28.53"><defs><style>.cls-1,.cls-2{fill:#1d1d1b;}.cls-2{font-size:12px;stroke:#1d1d1b;stroke-miterlimit:10;stroke-width:0.25px;font-family:SFProDisplay-Bold, SF Pro Display;font-weight:700;}.cls-3{letter-spacing:-0.01em;}</style></defs><g id="Layer_2" data-name="Layer 2"><g id="Layer_1-2" data-name="Layer 1"><path class="cls-1" d="M14.45,16.84l-2.68,1.54a.66.66,0,0,0-.34.52c-.17.88-.37,1.76-.52,2.64a1.41,1.41,0,0,1-.72,1c-.91.51-1.81,1.05-2.73,1.56a1.15,1.15,0,0,1-1.82-.91c-.23-1.58-.46-3.16-.67-4.74a1.48,1.48,0,0,0-.62-1.08c-1.26-.94-2.49-1.92-3.73-2.9a1.17,1.17,0,0,1,.17-2.14c.83-.49,1.67-.95,2.49-1.45a1.58,1.58,0,0,1,1.49-.14c.78.29,1.58.53,2.36.8A.89.89,0,0,0,8,11.49c.79-.49,1.61-.94,2.42-1.41,0-.25-.23-.28-.36-.37L2.33,4.62C1.17,3.86,1.2,3,2.4,2.27c.89-.52,1.79-1,2.66-1.55A1.58,1.58,0,0,1,6.55.61c3.74,1.5,7.49,3,11.23,4.49A1.45,1.45,0,0,0,19.28,5c.77-.49,1.58-.92,2.37-1.39A6.61,6.61,0,0,1,27,3.11a2.29,2.29,0,0,1,1.64,3,6.61,6.61,0,0,1-3.23,4.41c-.82.45-1.62.95-2.44,1.39a1.08,1.08,0,0,0-.62.9Q21.65,18,20.89,23.1c-.09.67-.18,1.35-.28,2a1.29,1.29,0,0,1-.68,1c-1,.58-2,1.2-3.06,1.76a1.12,1.12,0,0,1-1.78-1c-.19-2.64-.34-5.28-.51-7.93ZM3.27,13.64c1.09.85,2.15,1.69,3.23,2.52a1.45,1.45,0,0,1,.6,1c.16,1.22.34,2.43.52,3.64,0,.16,0,.5.28.36s.84-.32.91-.9c.12-.87.34-1.72.51-2.57a1.35,1.35,0,0,1,.68-1c1.61-.92,3.21-1.86,4.83-2.77a1.16,1.16,0,0,1,1.84,1c.11,1.66.19,3.32.28,5s.18,3,.28,4.53c0,.13-.06.48.2.34.41-.21.93-.28,1-.95.57-4.09,1.19-8.17,1.78-12.26a1.58,1.58,0,0,1,.86-1.29c1.16-.65,2.31-1.33,3.46-2a4.6,4.6,0,0,0,1.86-2.61c.1-.28,0-.47-.31-.51a4.8,4.8,0,0,0-3.25.34c-1.11.66-2.24,1.28-3.34,1.95a1.7,1.7,0,0,1-1.62.11c-3.66-1.47-7.34-2.89-11-4.4a1.65,1.65,0,0,0-2,.31L5.51,4C8.07,5.64,10.63,7.31,13.18,9a1.19,1.19,0,0,1-.07,2.19c-1.54.9-3.11,1.77-4.65,2.68A1.51,1.51,0,0,1,7.09,14,20.76,20.76,0,0,1,5,13.27,1.47,1.47,0,0,0,3.27,13.64Z"/><text class="cls-2" transform="translate(38.98 10.86)"><tspan class="cls-3">L</tspan><tspan x="6.43" y="0">ong</tspan><tspan x="0" y="14.4">Flight</tspan></text></g></g></svg>