<svg width="68" height="64" viewBox="0 0 68 64" fill="none" xmlns="http://www.w3.org/2000/svg">
<path fill-rule="evenodd" clip-rule="evenodd" d="M59.4987 18.6667C59.4987 21.4956 58.3046 24.2088 56.1792 26.2091C54.0538 28.2095 51.1712 29.3333 48.1654 29.3333C45.1596 29.3333 42.2769 28.2095 40.1515 26.2091C38.0261 24.2088 36.832 21.4956 36.832 18.6667C36.832 15.8377 38.0261 13.1246 40.1515 11.1242C42.2769 9.12381 45.1596 8 48.1654 8C51.1712 8 54.0538 9.12381 56.1792 11.1242C58.3046 13.1246 59.4987 15.8377 59.4987 18.6667ZM54.2315 19.98C54.1472 20.3243 53.921 20.623 53.6028 20.8105C53.2846 20.9981 52.9003 21.059 52.5344 20.98L43.1617 18.9533C42.7954 18.8741 42.4775 18.6612 42.278 18.3614C42.0784 18.0616 42.0136 17.6994 42.0978 17.3547C42.1819 17.0099 42.4082 16.7107 42.7267 16.5229C43.0453 16.3351 43.43 16.2741 43.7964 16.3533L53.169 18.3813C53.3503 18.4206 53.5216 18.4932 53.6731 18.5948C53.8247 18.6964 53.9534 18.8251 54.0521 18.9736C54.1507 19.122 54.2174 19.2873 54.2482 19.46C54.2789 19.6327 54.2733 19.8094 54.2315 19.98Z" fill="black"/>
<path d="M23.7683 12.3267C22.8518 10.284 19.7833 10.0787 18.5522 11.976L8.91317 26.82C7.80109 28.532 9.0435 30.7187 11.2124 30.864L28.0226 31.992C30.1901 32.1387 31.7683 30.1413 30.9409 28.2987L23.7683 12.3267Z" fill="black"/>
<path fill-rule="evenodd" clip-rule="evenodd" d="M50.1286 48.48C52.172 47.5834 53.7532 45.9596 54.5245 43.9657C55.2957 41.9718 55.1938 39.7712 54.2412 37.848C53.7695 36.8958 53.1031 36.0403 52.2801 35.3304C51.4571 34.6205 50.4937 34.0702 49.4447 33.7107C47.3262 32.9849 44.9881 33.0808 42.9447 33.9774L27.537 40.74C26.5253 41.184 25.6165 41.8111 24.8623 42.5857C24.1082 43.3602 23.5235 44.267 23.1416 45.2542C22.7598 46.2414 22.5883 47.2897 22.637 48.3393C22.6856 49.3889 22.9534 50.4192 23.4251 51.3714C23.8968 52.3235 24.5632 53.1789 25.3861 53.8887C26.2091 54.5985 27.1725 55.1488 28.2214 55.5082C29.2704 55.8675 30.3842 56.0289 31.4994 55.9832C32.6146 55.9374 33.7093 55.6853 34.7209 55.2414L50.1286 48.4787V48.48ZM42.4191 48.92L48.9315 46.0627C50.2784 45.4561 51.3164 44.3737 51.8201 43.0508C52.3237 41.7279 52.2523 40.2713 51.6212 38.9977C50.9901 37.7241 49.8505 36.7364 48.45 36.2492C47.0494 35.762 45.5012 35.8148 44.1418 36.396L37.6294 39.2534L42.4177 48.92H42.4191Z" fill="black"/>
</svg>
