<svg width="44" height="44" viewBox="0 0 44 44" fill="none" xmlns="http://www.w3.org/2000/svg">
<path d="M10.7275 5.44827L13.1903 39.1107H30.7084L33.3839 5.42383L10.7275 5.44827Z" fill="#CCD6DD"/>
<path d="M30.5557 38.2318L13.3297 38.4237L12.0854 19.709H31.9417L30.5557 38.2318Z" fill="white"/>
<path d="M29.2183 42.9917H14.7814C12.6889 42.9917 11.2198 41.5824 10.9497 39.3115L8.53581 5.43643C8.50893 5.05653 8.63405 4.68151 8.88366 4.39385C9.13326 4.1062 9.48691 3.92947 9.86681 3.90255C10.055 3.88824 10.2442 3.91138 10.4234 3.97061C10.6027 4.02984 10.7684 4.124 10.911 4.24765C11.0536 4.37129 11.1703 4.52197 11.2544 4.69098C11.3384 4.85999 11.3882 5.04398 11.4007 5.23232L13.8073 39.039C13.938 40.1194 14.5076 40.1194 14.7814 40.1194H29.2183C29.8489 40.1194 30.0836 40.1194 30.196 38.9987L32.5989 5.23232C32.6285 4.85436 32.8064 4.50343 33.0937 4.25609C33.3811 4.00875 33.7545 3.88506 34.1327 3.91201C34.5109 3.93895 34.863 4.11434 35.1124 4.39991C35.3618 4.68549 35.4881 5.05809 35.4638 5.43643L33.0573 39.2419C32.7493 42.3475 30.7998 42.9917 29.2183 42.9917Z" fill="#8899A6"/>
<path d="M21.9999 40.3334H18.7891C12.0278 40.3334 11.2516 37.053 10.8935 32.4208C10.4926 27.2495 8.75098 5.41699 8.75098 5.41699L11.1869 5.22266C11.1869 5.22266 12.931 27.0613 13.3306 32.2325C13.6545 36.4358 14.0102 37.889 18.7891 37.889H21.9999C22.324 37.889 22.6349 38.0178 22.8641 38.247C23.0933 38.4762 23.2221 38.7871 23.2221 39.1112C23.2221 39.4354 23.0933 39.7462 22.8641 39.9755C22.6349 40.2047 22.324 40.3334 21.9999 40.3334Z" fill="#8899A6"/>
<path d="M25.2108 40.3334H22.0001C21.6759 40.3334 21.365 40.2047 21.1358 39.9755C20.9066 39.7462 20.7778 39.4354 20.7778 39.1112C20.7778 38.7871 20.9066 38.4762 21.1358 38.247C21.365 38.0178 21.6759 37.889 22.0001 37.889H25.2108C29.9897 37.889 30.3442 36.4358 30.6693 32.2325C31.0702 27.0601 32.8131 5.22266 32.8131 5.22266L35.2502 5.41699C35.2502 5.41699 33.5073 27.2508 33.1064 32.4208C32.7483 37.053 31.9734 40.3334 25.2108 40.3334Z" fill="#8899A6"/>
<path d="M35.4446 4.98979C35.4446 7.07123 32.1079 8.7579 22.0001 8.7579C11.8936 8.7579 8.55566 7.07123 8.55566 4.98979C8.55566 2.90835 11.8923 1.22168 22.0001 1.22168C32.1079 1.22168 35.4446 2.90835 35.4446 4.98979Z" fill="#CCD6DD"/>
<path d="M34.8722 5.04521C34.6921 4.77568 34.4124 4.58872 34.0945 4.52546C33.7765 4.4622 33.4465 4.52782 33.177 4.70788C30.6274 6.41043 24.2865 6.62799 22.0584 6.56932C22.0462 6.5681 22.0352 6.57543 22.023 6.57421C22.012 6.57421 22.0034 6.56932 21.9924 6.56932C19.7692 6.62921 13.4271 6.4141 10.8739 4.70788C10.6043 4.52984 10.2752 4.46575 9.95858 4.52963C9.64191 4.5935 9.36342 4.78015 9.18396 5.04876C9.00451 5.31738 8.9387 5.64611 9.00091 5.96311C9.06313 6.2801 9.24831 6.55958 9.51598 6.74043C12.6571 8.83899 19.1923 9.0211 21.3569 9.0211C21.7101 9.0211 21.9399 9.01621 22.0254 9.01377C22.1122 9.01621 22.3408 9.0211 22.694 9.0211C24.8585 9.0211 31.3938 8.84021 34.5349 6.74043C34.6686 6.65149 34.7834 6.53702 34.8728 6.40359C34.9622 6.27015 35.0243 6.12039 35.0556 5.96288C35.087 5.80538 35.0869 5.64324 35.0554 5.48576C35.0239 5.32828 34.9617 5.17857 34.8722 5.04521Z" fill="white"/>
<path d="M21.9892 21.4185C27.2725 21.4185 31.5555 20.6174 31.5555 19.6292C31.5555 18.641 27.2725 17.8398 21.9892 17.8398C16.7058 17.8398 12.4229 18.641 12.4229 19.6292C12.4229 20.6174 16.7058 21.4185 21.9892 21.4185Z" fill="#E1E8ED"/>
<path d="M13.4961 38.5508H30.8113V40.7911H13.4961V38.5508Z" fill="#8899A6"/>
</svg>
