<svg xmlns="http://www.w3.org/2000/svg" viewBox="0 0 221.19 61.68"><g id="Layer_2" data-name="Layer 2"><g id="Layer_2-2" data-name="Layer 2"><path d="M221,32.11c-.85-5.09-7.61-10-44.38-10.37-.1-2.5-1.2-5.51-4.52-8.69a23.35,23.35,0,0,0-16.18-6.27c-12.71,0-42.62.18-56.62,2.52C97.58,6.3,93,1.71,80.59,0l-.73,5.28c8.31,1.14,12.07,3.57,13.76,5.35C80.91,14.59,72,24.25,69.46,27.26c-15.6,1.35-27.86,2.59-33.57,3.19a3.57,3.57,0,0,0-3.17,2.93,3.62,3.62,0,0,0,2,3.88,46.35,46.35,0,0,0,8.4,3C23.25,45,5.65,54,1.55,56.2a2.91,2.91,0,0,0,1.37,5.48h164.5a88.85,88.85,0,0,0,32.93-6.13C215.62,49.5,222.56,41.61,221,32.11ZM198.38,50.62a83.7,83.7,0,0,1-31,5.74H13.26C24.42,51.27,43.2,44,61,42.89L61,37.57A84.62,84.62,0,0,1,43.85,35c18-1.78,55.46-5.24,91.22-6.94,77-3.65,80.51,4.05,80.65,5C216.84,39.68,211,45.61,198.38,50.62Z"/><path d="M107.28,35.5a3.31,3.31,0,1,0,3.31,3.31A3.31,3.31,0,0,0,107.28,35.5Z"/><circle cx="126.84" cy="38.81" r="3.31"/><path d="M146.39,35.5a3.31,3.31,0,1,0,3.31,3.31A3.31,3.31,0,0,0,146.39,35.5Z"/></g></g></svg>