<svg width="70" height="70" viewBox="0 0 70 70" fill="none" xmlns="http://www.w3.org/2000/svg">
<path d="M51.4062 6.5625H18.5938C16.2753 6.56971 14.0539 7.4939 12.4145 9.13328C10.7751 10.7727 9.85096 12.9941 9.84375 15.3125V50.3125C9.85096 52.6309 10.7751 54.8523 12.4145 56.4917C14.0539 58.1311 16.2753 59.0553 18.5938 59.0625H21.875L17.9375 64.3125C17.5894 64.7766 17.4399 65.36 17.522 65.9344C17.604 66.5087 17.9109 67.0269 18.375 67.375C18.7507 67.6645 19.2132 67.8187 19.6875 67.8125C20.0271 67.8125 20.362 67.7334 20.6658 67.5816C20.9695 67.4297 21.2337 67.2092 21.4375 66.9375L27.3438 59.0625H42.6562L48.5625 66.9375C48.7663 67.2092 49.0305 67.4297 49.3342 67.5816C49.638 67.7334 49.9729 67.8125 50.3125 67.8125C50.7868 67.8187 51.2493 67.6645 51.625 67.375C51.8548 67.2026 52.0484 66.9867 52.1948 66.7395C52.3411 66.4923 52.4374 66.2187 52.478 65.9344C52.5186 65.65 52.5029 65.3604 52.4316 65.0821C52.3603 64.8038 52.2349 64.5423 52.0625 64.3125L48.125 59.0625H51.4062C53.7247 59.0553 55.9461 58.1311 57.5855 56.4917C59.2248 54.8523 60.149 52.6309 60.1562 50.3125V15.3125C60.149 12.9941 59.2248 10.7727 57.5855 9.13328C55.9461 7.4939 53.7247 6.56971 51.4062 6.5625ZM22.9688 50.3125C22.3198 50.3125 21.6854 50.1201 21.1458 49.7595C20.6062 49.399 20.1856 48.8865 19.9373 48.2869C19.6889 47.6874 19.6239 47.0276 19.7505 46.3911C19.8772 45.7546 20.1897 45.17 20.6486 44.7111C21.1074 44.2522 21.6921 43.9397 22.3286 43.8131C22.9651 43.6864 23.6249 43.7514 24.2244 43.9998C24.824 44.2481 25.3365 44.6687 25.697 45.2083C26.0576 45.7479 26.25 46.3823 26.25 47.0313C26.25 47.9015 25.9043 48.7361 25.2889 49.3514C24.6736 49.9668 23.839 50.3125 22.9688 50.3125ZM32.8125 32.8125H14.2188V21.875H32.8125V32.8125ZM47.0312 50.3125C46.3823 50.3125 45.7479 50.1201 45.2083 49.7595C44.6687 49.399 44.2481 48.8865 43.9998 48.2869C43.7514 47.6874 43.6864 47.0276 43.813 46.3911C43.9397 45.7546 44.2522 45.17 44.7111 44.7111C45.1699 44.2522 45.7546 43.9397 46.3911 43.8131C47.0276 43.6864 47.6874 43.7514 48.2869 43.9998C48.8865 44.2481 49.399 44.6687 49.7595 45.2083C50.1201 45.7479 50.3125 46.3823 50.3125 47.0313C50.3125 47.9015 49.9668 48.7361 49.3514 49.3514C48.7361 49.9668 47.9015 50.3125 47.0312 50.3125ZM55.7812 32.8125H37.1875V21.875H55.7812V32.8125Z" fill="black"/>
</svg>
