<svg width="20" height="22" viewBox="0 0 20 22" fill="none" xmlns="http://www.w3.org/2000/svg">
<path d="M19.0643 5.435L19.076 5.42333L15.3543 1.70167C15.1897 1.53894 14.9675 1.44768 14.736 1.44768C14.5045 1.44768 14.2823 1.53894 14.1177 1.70167C13.7793 2.04 13.7793 2.6 14.1177 2.93833L15.961 4.78167C14.736 5.24833 13.9077 6.49667 14.1177 7.94333C14.3043 9.22667 15.401 10.265 16.6843 10.405C17.2327 10.4633 17.711 10.37 18.166 10.1717V18.5833C18.166 19.225 17.641 19.75 16.9993 19.75C16.3577 19.75 15.8327 19.225 15.8327 18.5833V13.3333C15.8327 12.05 14.7827 11 13.4993 11H12.3327V2.83333C12.3327 1.55 11.2827 0.5 9.99935 0.5H2.99935C1.71602 0.5 0.666016 1.55 0.666016 2.83333V20.3333C0.666016 20.975 1.19102 21.5 1.83268 21.5H11.166C11.8077 21.5 12.3327 20.975 12.3327 20.3333V12.75H14.0827V18.42C14.0827 19.9483 15.1793 21.3367 16.696 21.4883C17.1028 21.5309 17.5139 21.4874 17.9027 21.3607C18.2916 21.234 18.6494 21.027 18.9531 20.7531C19.2567 20.4791 19.4994 20.1444 19.6653 19.7706C19.8312 19.3968 19.9166 18.9923 19.916 18.5833V7.5C19.916 6.695 19.5893 5.96 19.0643 5.435ZM9.99935 8.66667H2.99935V4C2.99935 3.35833 3.52435 2.83333 4.16602 2.83333H8.83268C9.47435 2.83333 9.99935 3.35833 9.99935 4V8.66667ZM16.9993 8.66667C16.3577 8.66667 15.8327 8.14167 15.8327 7.5C15.8327 6.85833 16.3577 6.33333 16.9993 6.33333C17.641 6.33333 18.166 6.85833 18.166 7.5C18.166 8.14167 17.641 8.66667 16.9993 8.66667Z" fill="black"/>
</svg>
