<svg width="50" height="50" viewBox="0 0 50 50" fill="none" xmlns="http://www.w3.org/2000/svg">
<path fill-rule="evenodd" clip-rule="evenodd" d="M15.3676 0.209963C15.015 0.121169 14.6421 0.163485 14.3184 0.329038C13.9946 0.49459 13.7421 0.772108 13.6076 1.10996L10.5143 8.8433L2.77761 11.9433C2.56424 12.0289 2.3734 12.1623 2.21981 12.3334C2.06623 12.5044 1.95402 12.7085 1.89184 12.9298C1.82967 13.1511 1.81919 13.3838 1.86123 13.6098C1.90326 13.8358 1.99669 14.0491 2.13428 14.2333L6.70428 20.33L3.54428 32.97C3.45778 33.3182 3.499 33.686 3.66046 34.0064C3.82192 34.3269 4.09292 34.5789 4.42428 34.7166L14.0009 38.71L18.7509 45.8333C18.9273 46.0977 19.1831 46.2993 19.4815 46.409C19.7798 46.5186 20.1053 46.5306 20.4109 46.4433L32.0776 43.11C32.0978 43.1038 32.1178 43.0971 32.1376 43.09L42.1376 39.7566C42.3836 39.6745 42.6042 39.53 42.7777 39.3372C42.9512 39.1444 43.0718 38.9099 43.1276 38.6566L46.4609 23.6566C46.5232 23.3754 46.5032 23.0823 46.4033 22.8121C46.3034 22.542 46.1278 22.3063 45.8976 22.1333L39.8309 17.5833V9.99996C39.8306 9.72159 39.7527 9.44881 39.6061 9.21215C39.4596 8.9755 39.25 8.7843 39.0009 8.65996L29.0009 3.65996C28.9033 3.60998 28.8005 3.57085 28.6943 3.5433L15.3609 0.209963H15.3676ZM38.1076 20.04L42.5843 23.3966L34.0409 30.5133C33.8261 30.6923 33.6656 30.9279 33.5776 31.1933L30.8443 39.3833L25.7943 36.2266C25.6271 36.1222 25.4409 36.0518 25.2465 36.0193C25.052 35.9869 24.8531 35.993 24.661 36.0374C24.469 36.0818 24.2875 36.1637 24.1271 36.2782C23.9667 36.3927 23.8303 36.5377 23.7259 36.705C23.6215 36.8722 23.5511 37.0583 23.5186 37.2528C23.4862 37.4472 23.4923 37.6461 23.5367 37.8382C23.5812 38.0303 23.663 38.2117 23.7775 38.3721C23.892 38.5326 24.0371 38.6689 24.2043 38.7733L28.0109 41.15L20.6443 43.2566L16.2443 36.6666C16.0808 36.4219 15.849 36.2306 15.5776 36.1166L6.76761 32.4466L9.50428 21.5H16.6676C16.8646 21.5 17.0596 21.4612 17.2416 21.3858C17.4236 21.3104 17.589 21.1999 17.7283 21.0606C17.8676 20.9213 17.978 20.756 18.0534 20.574C18.1288 20.392 18.1676 20.1969 18.1676 20C18.1676 19.803 18.1288 19.6079 18.0534 19.4259C17.978 19.2439 17.8676 19.0786 17.7283 18.9393C17.589 18.8 17.4236 18.6895 17.2416 18.6141C17.0596 18.5388 16.8646 18.5 16.6676 18.5H9.08428L5.70761 14L11.7143 11.5966L21.1943 14.7566C21.4851 14.8531 21.7985 14.8581 22.0923 14.7711C22.3861 14.6841 22.6462 14.5092 22.8376 14.27L28.7476 6.8833L36.8343 10.9266V17.3166L29.4443 20.2733C29.2416 20.3543 29.059 20.4787 28.9093 20.6376C28.7596 20.7965 28.6464 20.9861 28.5776 21.1933L26.9109 26.1933C26.8474 26.3805 26.8216 26.5785 26.8349 26.7758C26.8482 26.9731 26.9003 27.1658 26.9884 27.3428C27.0764 27.5199 27.1985 27.6778 27.3478 27.8074C27.4971 27.9371 27.6705 28.036 27.8582 28.0984C28.0458 28.1607 28.2439 28.1854 28.4411 28.171C28.6383 28.1565 28.8307 28.1033 29.0072 28.0142C29.1837 27.9251 29.3409 27.802 29.4697 27.652C29.5985 27.502 29.6963 27.3279 29.7576 27.14L31.2009 22.8L38.1043 20.04H38.1076ZM25.7043 5.88663L21.1509 11.58L13.6509 9.07996L15.9076 3.43996L25.7043 5.88663ZM34.0376 39.2966L40.3876 37.18L42.5843 27.3L36.2876 32.5466L34.0376 39.2966Z" fill="black"/>
</svg>
