<svg width="54" height="54" viewBox="0 0 54 54" fill="none" xmlns="http://www.w3.org/2000/svg">
<g clip-path="url(#clip0_3156_28790)">
<path d="M45.5117 52.0805C44.8324 52.0805 44.1279 51.9919 43.4149 51.8147C37.2809 50.3129 37.3399 44.2632 37.3779 39.8419C37.3864 38.859 37.3948 37.935 37.3526 37.0786C36.9307 28.9111 35.6356 25.8821 32.404 25.5108C32.1522 25.4818 31.9086 25.4034 31.6871 25.2801C31.4656 25.1569 31.2705 24.9913 31.113 24.7926C30.9555 24.594 30.8387 24.3663 30.7692 24.1226C30.6998 23.8788 30.679 23.6237 30.7081 23.3719C30.8304 22.3088 31.7923 21.5579 32.847 21.676C39.8796 22.486 40.8457 29.949 41.2043 36.8804C41.2592 37.8549 41.2465 38.8843 41.2381 39.8799C41.1917 44.9171 41.4828 47.3682 44.3304 48.0685C45.1699 48.2752 46.3554 48.3765 47.216 47.693C47.9712 47.094 48.3931 45.9507 48.3804 44.55C48.3382 40.6182 47.7518 36.699 47.1823 33.383C46.1656 27.4599 44.8535 23.7179 44.8367 23.6799C44.4781 22.6758 45.0054 21.5705 46.0095 21.2119C47.0178 20.8575 48.1189 21.3807 48.4774 22.3847C48.5323 22.545 49.9076 26.4474 50.9918 32.7291C51.5867 36.1927 52.1942 40.306 52.2406 44.5079C52.2701 47.1446 51.3378 49.351 49.6207 50.7179C48.4817 51.6165 47.0684 52.0805 45.5117 52.0805Z" fill="#78A3AD"/>
<path d="M43.3139 10.2894L47.4356 9.09123L48.9459 7.38264L41.4577 -0.953613L37.7578 1.55654L38.3105 4.87248L42.1791 10.2767L43.3139 10.2894Z" fill="#78A3AD"/>
<path d="M4.55225 53.7762V10.9432C4.55225 6.74133 7.99053 3.29883 12.1966 3.29883H27.1141C31.3202 3.29883 34.7627 6.73711 34.7627 10.9432V53.7804H4.55225V53.7762Z" fill="#ED6C30"/>
<path d="M4.55225 53.7762V10.9432C4.55225 6.74133 7.99053 3.29883 12.1966 3.29883H27.1141C31.3202 3.29883 34.7627 6.73711 34.7627 10.9432V53.7804H4.55225V53.7762Z" fill="#F2B200"/>
<path d="M9.61035 12.8081H29.7043V22.1147H9.61035V12.8081Z" fill="#2F2F2F"/>
<path d="M12.8335 15.8496H14.9597V19.1487H12.8335V15.8496ZM18.3601 15.8496H20.4821V19.1487H18.3601V15.8496ZM23.8866 15.8496H26.0129V19.1487H23.8866V15.8496Z" fill="white"/>
</g>
<defs>
<clipPath id="clip0_3156_28790">
<rect width="54" height="54" fill="white"/>
</clipPath>
</defs>
</svg>
