<svg width="52" height="52" viewBox="0 0 52 52" fill="none" xmlns="http://www.w3.org/2000/svg">
<path d="M42.25 19.5H9.75V42.25H42.25V19.5ZM4.875 16.25H47.125V6.5H4.875V16.25ZM45.5 19.5V43.875C45.5 44.306 45.3288 44.7193 45.024 45.024C44.7193 45.3288 44.306 45.5 43.875 45.5H8.125C7.69402 45.5 7.2807 45.3288 6.97595 45.024C6.67121 44.7193 6.5 44.306 6.5 43.875V19.5H3.25C2.81902 19.5 2.4057 19.3288 2.10095 19.024C1.7962 18.7193 1.625 18.306 1.625 17.875V4.875C1.625 4.44402 1.7962 4.0307 2.10095 3.72595C2.4057 3.4212 2.81902 3.25 3.25 3.25H48.75C49.181 3.25 49.5943 3.4212 49.899 3.72595C50.2038 4.0307 50.375 4.44402 50.375 4.875V17.875C50.375 18.306 50.2038 18.7193 49.899 19.024C49.5943 19.3288 49.181 19.5 48.75 19.5H45.5ZM21.125 26H30.875C31.306 26 31.7193 26.1712 32.024 26.476C32.3288 26.7807 32.5 27.194 32.5 27.625C32.5 28.056 32.3288 28.4693 32.024 28.774C31.7193 29.0788 31.306 29.25 30.875 29.25H21.125C20.694 29.25 20.2807 29.0788 19.976 28.774C19.6712 28.4693 19.5 28.056 19.5 27.625C19.5 27.194 19.6712 26.7807 19.976 26.476C20.2807 26.1712 20.694 26 21.125 26Z" fill="black"/>
</svg>
