<svg width="41" height="41" viewBox="0 0 41 41" fill="none" xmlns="http://www.w3.org/2000/svg">
<path d="M34.5297 20.3723C34.0813 20.2441 33.6969 19.9238 33.4406 19.5395C33.1844 19.1551 32.9922 18.6426 32.9922 18.1941V17.4895C33.0562 17.2332 33.1203 16.977 33.1844 16.7848C33.3766 16.3363 33.6328 15.8879 34.0172 15.5676L34.1453 15.4395L34.2094 15.3754L34.2734 15.3113C34.4016 15.2473 34.4656 15.1832 34.5938 15.1191C34.7859 14.991 35.0422 14.8629 35.2344 14.7348C35.6828 14.5426 36.1953 14.4145 36.7078 14.4145C37.2203 14.4145 37.7328 14.5426 38.1812 14.7988C38.4375 14.927 38.6297 15.1191 38.8219 15.3754C39.0141 15.6316 39.1422 15.8879 39.1422 16.2082C39.1422 16.5285 39.0781 16.8488 38.95 17.041C38.8219 17.2973 38.6297 17.4895 38.4375 17.6816C38.0531 18.002 37.5406 18.2582 37.0281 18.3223C36.7719 18.3863 36.5156 18.3863 36.2594 18.3223C36.0031 18.2582 35.7469 18.1301 35.5547 17.9379C35.3625 17.6176 35.2344 17.2973 35.2344 17.041C35.2344 16.7848 35.2984 16.5285 35.4266 16.2723C35.6187 15.8238 35.9391 15.4395 36.2594 15.1191C36.5797 14.7988 36.9641 14.4785 37.3484 14.2223C38.1172 13.7098 38.8859 13.2613 39.7188 12.877C38.95 13.3895 38.2453 13.902 37.5406 14.4785C37.2203 14.7348 36.9 15.0551 36.5797 15.3754C36.3234 15.6957 36.0672 16.0801 35.875 16.4004C35.8109 16.5926 35.7469 16.7848 35.7469 16.977C35.7469 17.1691 35.8109 17.2973 35.9391 17.3613C36.1312 17.5535 36.5797 17.6176 36.9 17.5535C37.2844 17.4895 37.6047 17.2973 37.925 17.041C38.1813 16.7848 38.3734 16.4645 38.3094 16.1441C38.3094 15.8879 38.0531 15.5676 37.7328 15.4395C37.4125 15.2473 37.0281 15.1832 36.6438 15.1832C35.875 15.1832 35.1062 15.5035 34.4656 16.016C34.1453 16.2723 33.8891 16.5926 33.6969 16.977C33.6328 17.1691 33.5047 17.3613 33.5047 17.5535C33.4406 17.7457 33.4406 17.9379 33.3766 18.1301C33.3766 18.5145 33.4406 18.9629 33.6328 19.3473C33.8891 19.7316 34.2094 20.116 34.5297 20.3723Z" fill="#A5627A"/>
<path d="M22.6782 32.2879V22.7426C22.6782 20.4363 23.9595 19.2832 25.6251 19.2832C27.2267 19.2832 28.572 20.4363 28.572 22.7426V32.2879C28.5079 34.5941 22.6782 34.5941 22.6782 32.2879Z" fill="#EA83A3"/>
<path d="M25.6252 35.8109C25.6252 33.8891 26.2018 35.8109 28.5721 35.8109V32.3516H22.7424C22.6784 34.5938 24.0237 35.8109 25.6252 35.8109Z" fill="#A5627A"/>
<path d="M31.3906 33.825V24.2797C31.3906 21.9734 32.6719 20.8203 34.3375 20.8203C35.9391 20.8203 37.2844 21.9734 37.2844 24.2797V33.825C37.2203 36.1312 31.3906 36.1312 31.3906 33.825Z" fill="#EA83A3"/>
<path d="M34.3375 37.2846C34.3375 35.3627 34.9141 37.2846 37.2844 37.2846V33.8252H31.3906C31.3906 36.1314 32.6719 37.2846 34.3375 37.2846Z" fill="#A5627A"/>
<path d="M37.7969 24.5355C37.7969 30.6215 36.0672 34.3371 22.7422 34.3371H10.5703V15.3105H27.8672C32.6078 15.3105 37.7969 16.7199 37.7969 24.5355Z" fill="#EA83A3"/>
<path d="M5.06104 24.7918C5.06104 18.7059 5.89385 14.9902 12.4282 14.9902H18.386V34.0168H9.92978C7.55947 34.0168 5.06104 32.6074 5.06104 24.7918ZM18.8345 35.4262V23.2543C18.8345 20.3074 20.5001 18.834 22.5501 18.834C24.6001 18.834 26.2657 20.3074 26.2657 23.2543V35.4262C26.2657 38.373 18.8345 38.373 18.8345 35.4262Z" fill="#EA83A3"/>
<path d="M22.5501 39.8471C22.5501 37.4127 23.2548 39.8471 26.2657 39.8471V35.4268H18.8345C18.8345 38.3736 20.5001 39.8471 22.5501 39.8471Z" fill="#A5627A"/>
<path d="M13.9014 35.4262V23.2543C13.9014 20.3074 12.2358 18.834 10.1858 18.834C8.13576 18.834 6.47013 20.3074 6.47013 23.2543V35.4262C6.40607 38.373 13.9014 38.373 13.9014 35.4262Z" fill="#EA83A3"/>
<path d="M10.1219 39.8471C10.1219 37.4127 9.41719 39.8471 6.40625 39.8471V35.4268H13.8375C13.9016 38.3736 12.2359 39.8471 10.1219 39.8471Z" fill="#A5627A"/>
<path d="M10.8906 6.72639C9.60936 4.42014 1.47342 5.12483 1.47342 5.12483C1.47342 5.12483 0.512483 13.3889 2.8828 14.6701C4.67655 15.6311 11.8515 8.5842 10.8906 6.72639Z" fill="#FC97B2"/>
<path d="M9.35293 7.94397C8.58418 6.5346 3.52324 6.91897 3.52324 6.91897C3.52324 6.91897 2.94667 12.044 4.42011 12.8127C5.50918 13.5174 9.92949 9.0971 9.35293 7.94397Z" fill="#FFD7E4"/>
<path d="M30.4936 14.6063C32.7999 13.3891 32.0952 5.25321 32.0952 5.25321C32.0952 5.25321 23.7671 4.29227 22.4858 6.66258C21.5249 8.45633 28.6358 15.5673 30.4936 14.6063Z" fill="#FC97B2"/>
<path d="M29.2127 13.0691C30.6221 12.3004 30.2377 7.30351 30.2377 7.30351C30.2377 7.30351 25.1127 6.72695 24.2799 8.20039C23.6393 9.28945 28.0596 13.6457 29.2127 13.0691Z" fill="#FFD7E4"/>
<path d="M30.5578 19.3467C30.5578 28.3154 24.3438 29.9811 16.7203 29.9811C9.09688 29.9811 2.88281 28.3154 2.88281 19.3467C2.88281 10.3779 11.3391 3.97168 16.7203 3.97168C22.1016 3.97168 30.5578 10.3779 30.5578 19.3467Z" fill="#FC97B2"/>
<path d="M23.9596 24.7283C23.9596 28.8924 20.6924 28.3799 16.7205 28.3799C12.7486 28.3799 9.48145 28.8283 9.48145 24.7283C9.48145 20.5643 12.7486 18.4502 16.7205 18.4502C20.7564 18.4502 23.9596 20.5643 23.9596 24.7283Z" fill="#FFD7E4"/>
<path d="M13.5174 27.0342C14.508 27.0342 15.3111 25.6001 15.3111 23.8311C15.3111 22.062 14.508 20.6279 13.5174 20.6279C12.5267 20.6279 11.7236 22.062 11.7236 23.8311C11.7236 25.6001 12.5267 27.0342 13.5174 27.0342Z" fill="#BF7B90"/>
<path d="M19.9876 27.0342C20.9783 27.0342 21.7813 25.6001 21.7813 23.8311C21.7813 22.062 20.9783 20.6279 19.9876 20.6279C18.9969 20.6279 18.1938 22.062 18.1938 23.8311C18.1938 25.6001 18.9969 27.0342 19.9876 27.0342Z" fill="#BF7B90"/>
<path d="M16.7205 10.7627C16.7205 10.7627 15.183 5.57363 11.7236 4.6127C11.7236 4.6127 13.2611 3.71582 14.4143 4.16426C14.4143 4.16426 14.4783 3.20332 13.4533 2.5627C13.4533 2.5627 15.6955 2.11426 16.7846 3.65176C16.7846 3.65176 16.9127 1.98613 16.5283 1.15332C16.5283 1.15332 20.2439 2.0502 21.1408 5.1252C21.2049 5.1252 17.4893 6.27832 16.7205 10.7627Z" fill="#BF7B90"/>
<path d="M8.32812 19.7949C9.21264 19.7949 9.92969 18.5042 9.92969 16.9121C9.92969 15.32 9.21264 14.0293 8.32812 14.0293C7.44361 14.0293 6.72656 15.32 6.72656 16.9121C6.72656 18.5042 7.44361 19.7949 8.32812 19.7949Z" fill="#493B30"/>
<path d="M25.1768 19.667C26.0613 19.667 26.7783 18.3763 26.7783 16.7842C26.7783 15.192 26.0613 13.9014 25.1768 13.9014C24.2922 13.9014 23.5752 15.192 23.5752 16.7842C23.5752 18.3763 24.2922 19.667 25.1768 19.667Z" fill="#493B30"/>
</svg>
