<svg width="52" height="52" viewBox="0 0 52 52" fill="none" xmlns="http://www.w3.org/2000/svg">
<path d="M50.4478 43.6501C50.4478 47.962 39.4986 51.459 25.9916 51.459C12.4927 51.4607 1.54346 47.9596 1.54346 43.6501C1.54346 39.3422 12.4911 35.8452 25.9916 35.8452C39.4978 35.8452 50.4478 39.3422 50.4478 43.6501Z" fill="#E4E3E3"/>
<path d="M45.5571 43.6501C45.5571 47.1016 36.8008 49.8975 26.0002 49.8975C15.2005 49.8975 6.44336 47.1016 6.44336 43.6501C6.44336 40.2035 15.2013 37.4053 26.0002 37.4053C36.8049 37.4053 45.5571 40.2027 45.5571 43.6501Z" fill="#B9BABC"/>
<path d="M46.2502 19.8298C46.2502 11.3887 37.19 17.1161 26.0019 17.1161C14.8138 17.1161 5.74951 11.3879 5.74951 19.8298C5.74951 28.2579 14.8138 44.8743 26.0019 44.8743C37.1892 44.8743 46.2502 28.2579 46.2502 19.8298Z" fill="#E4E3E3"/>
<path d="M20.451 17.4303C20.5079 17.1646 20.5892 16.9631 20.6615 16.7324C12.0709 15.6055 5.74805 12.7885 5.74805 19.8313C5.74805 28.2593 14.8123 44.8741 26.0004 44.8741C27.1014 44.8741 28.1747 44.6727 29.2301 44.3745C22.18 37.6957 18.995 24.0538 20.451 17.432" fill="#CCCCCD"/>
<path d="M46.1295 18.9466C46.1295 24.1165 37.1189 28.3017 26.0031 28.3017C14.8824 28.3017 5.87256 24.1165 5.87256 18.9466C5.87337 13.7824 14.8832 9.59473 26.0031 9.59473C37.1181 9.59554 46.1295 13.7824 46.1295 18.9466Z" fill="#B9BABC"/>
<path d="M45.6056 19.4365C45.5958 19.3593 45.5885 19.2813 45.5787 19.2049C44.1552 9.09092 35.9709 1.33398 26.0861 1.33398C16.6017 1.33398 8.68393 8.4783 6.80137 17.9927C6.63792 18.8255 6.52262 19.667 6.45605 20.513C7.32787 24.8762 15.7421 28.3009 26.0048 28.3009C36.8419 28.3009 45.6267 24.4789 45.6267 19.7647C45.6239 19.6551 45.6172 19.5456 45.6064 19.4365" fill="#EFEFEF"/>
<path d="M13.493 13.729C13.5759 14.3416 13.7944 14.9104 14 15.4767C14.1568 15.9114 14.6841 16.0016 14.9945 15.7863C15.3642 15.5295 15.4097 15.0396 15.2545 14.6089C15.0977 14.1767 14.9579 13.7379 14.8946 13.2724C14.8296 12.8092 14.3518 12.5549 14.0016 12.6695C13.5872 12.8044 13.4313 13.2659 13.493 13.729ZM14.4217 6.88044C14.5062 7.49388 14.7239 8.06263 14.9295 8.62813C15.0863 9.06363 15.6144 9.153 15.924 8.93931C16.2953 8.68175 16.34 8.19181 16.1848 7.762C16.028 7.32813 15.8882 6.89019 15.8249 6.42463C15.7591 5.9615 15.2829 5.70719 14.9319 5.82175C14.5159 5.95663 14.3608 6.41731 14.4217 6.88044Z" fill="#D3D4D5"/>
<path d="M17.956 8.81352C17.9471 8.81677 17.7155 8.85658 17.865 8.8322C17.7935 8.84602 17.7236 8.84845 17.6521 8.8582C17.4434 8.88222 17.236 8.91611 17.0306 8.95977C16.6397 9.04508 16.4236 9.59595 16.5219 10.0217C16.6357 10.5011 17.0273 10.7083 17.4165 10.6213C17.4246 10.6213 17.6602 10.5791 17.5099 10.6026C17.579 10.5913 17.6521 10.5856 17.7236 10.575C17.9276 10.549 18.138 10.523 18.3411 10.4759C18.7327 10.3906 18.9489 9.83808 18.8514 9.41314C18.7392 8.93377 18.346 8.72739 17.956 8.81352ZM8.04918 16.2097C7.97036 16.5152 7.96143 16.8475 7.96143 17.1709C7.96143 17.6397 8.29293 18.0305 8.6878 18.0305C9.08593 18.0305 9.41336 17.6397 9.41336 17.1709C9.41336 17.0563 9.41336 16.941 9.41905 16.8296C9.4223 16.7655 9.44505 16.5867 9.41093 16.8573C9.41905 16.7931 9.43449 16.7305 9.44993 16.6655C9.56855 16.2162 9.31505 15.7271 8.94374 15.6085C8.55049 15.4785 8.16699 15.7596 8.04918 16.2097Z" fill="#B8BABC"/>
<path d="M11.9597 22.1846C12.8421 22.4657 13.7261 22.7599 14.6174 22.9922C15.5314 23.2295 15.9198 21.5663 15.0049 21.3282C14.1112 21.0959 13.2288 20.805 12.344 20.5198C11.4397 20.2338 11.0554 21.8937 11.9597 22.1846Z" fill="#D0D0D0"/>
<path d="M10.8332 16.8864C10.999 17.5299 11.2915 18.0613 11.6384 18.5869C11.8838 18.9558 12.4111 18.89 12.667 18.5869C12.9701 18.2246 12.9116 17.7379 12.667 17.369C12.7523 17.4974 12.6093 17.2715 12.6093 17.2715C12.5476 17.1756 12.4964 17.0765 12.4444 16.9766C12.3902 16.8718 12.3411 16.7644 12.2973 16.6548C12.3339 16.7409 12.2437 16.4647 12.2332 16.4273C12.1178 15.9796 11.727 15.6977 11.3378 15.8269C10.9657 15.9496 10.7178 16.4363 10.8332 16.8864Z" fill="#D5D5D5"/>
<path d="M20.3124 11.9608C21.3102 11.4391 22.2868 10.8688 23.2837 10.3455C24.1393 9.89946 23.3991 8.4134 22.5508 8.85865C21.5531 9.37946 20.5732 9.95065 19.5812 10.4731C18.7232 10.9208 19.4642 12.4052 20.3124 11.9608Z" fill="#D0D0D0"/>
<path d="M25.5448 10.3708L27.7743 11.2507C28.6664 11.6041 29.0442 9.93932 28.161 9.59076C27.4176 9.29582 26.6766 9.0017 25.9339 8.7092C25.041 8.35576 24.6624 10.0206 25.5448 10.3708ZM21.5603 15.288C21.2296 15.483 20.8908 15.6536 20.569 15.8763C20.2302 16.1135 20.1083 16.6481 20.309 17.056C20.5097 17.4598 20.9639 17.6028 21.3051 17.3656C21.622 17.1429 21.9649 16.9715 22.2939 16.7773C22.6506 16.5701 22.7465 15.9811 22.5556 15.5992C22.3443 15.1726 21.9169 15.0824 21.5603 15.288ZM25.1718 2.49763C24.8411 2.69263 24.5023 2.86245 24.1798 3.08588C23.8401 3.32313 23.7207 3.85776 23.9214 4.26563C24.1221 4.66945 24.5754 4.81245 24.9167 4.57438C25.2328 4.35176 25.5756 4.18032 25.9047 3.98613C26.2622 3.77895 26.3573 3.18988 26.1671 2.80801C25.9559 2.38226 25.5285 2.29207 25.1718 2.49763Z" fill="#B8BABC"/>
<path d="M16.4125 17.168C16.7944 17.9658 17.2965 18.6971 17.9717 19.1635C18.7826 19.7241 19.513 18.234 18.707 17.675C18.2431 17.3557 17.9295 16.8454 17.667 16.2978C17.2064 15.3301 15.9502 16.1995 16.4125 17.168ZM17.6004 13.6937C17.9831 14.4908 18.4844 15.222 19.1596 15.6884C19.9713 16.249 20.7025 14.7589 19.8949 14.1999C19.431 13.8814 19.1182 13.3703 18.8557 12.8235C18.3942 11.8558 17.1397 12.7244 17.6004 13.6937ZM21.125 7.79091C21.866 7.49597 22.5916 7.14578 23.3521 6.91178C24.2597 6.63228 23.8737 4.96909 22.967 5.25022C22.2065 5.48666 21.4809 5.83441 20.7399 6.13016C19.8575 6.48684 20.2362 8.15003 21.125 7.79091ZM29.0526 6.25609C30.6435 7.06859 32.2815 7.70316 33.9268 8.32634C34.8238 8.66434 35.2049 7.00197 34.316 6.66478C32.7909 6.08791 31.2577 5.52322 29.7863 4.76922C28.934 4.33291 28.193 5.81978 29.0526 6.25609Z" fill="#D0D0D0"/>
<path d="M35.0838 12.5244C34.7994 12.8543 34.5231 13.0688 34.1185 13.3451C33.7748 13.5791 33.6595 14.1202 33.8577 14.5224C34.06 14.9302 34.5101 15.0676 34.8514 14.8311C35.304 14.524 35.7419 14.1754 36.1132 13.7432C36.3976 13.4149 36.3935 12.8543 36.1132 12.5252C35.8296 12.1897 35.3641 12.1978 35.0838 12.5244ZM33.8041 8.89174C33.5197 9.2208 33.2435 9.4353 32.8372 9.71237C32.4968 9.94718 32.3798 10.4875 32.5796 10.8897C32.7811 11.2976 33.2305 11.4349 33.5717 11.1984C34.0251 10.8905 34.4622 10.5427 34.8343 10.1113C35.1179 9.78224 35.113 9.2208 34.8343 8.89337C34.5483 8.5578 34.0868 8.56593 33.8041 8.89174Z" fill="#B8BABC"/>
<path d="M28.3877 12.9978C28.3097 13.3033 28.3008 13.6397 28.3008 13.9582C28.3008 14.4286 28.6307 14.8203 29.0288 14.8203C29.4237 14.8203 29.7503 14.4286 29.7503 13.9582C29.7503 13.8558 29.756 13.7526 29.7576 13.6494C29.7608 13.5926 29.7657 13.5365 29.7722 13.4845C29.7503 13.751 29.7722 13.5203 29.7893 13.4553C29.9038 13.0051 29.656 12.516 29.2815 12.3958C28.8947 12.2674 28.5047 12.5493 28.3877 12.9978ZM29.5017 8.45594C29.4228 8.76144 29.4147 9.09782 29.4147 9.41632C29.4147 9.88676 29.7446 10.2784 30.1419 10.2784C30.5392 10.2784 30.8658 9.88676 30.8658 9.41632C30.8658 9.31394 30.8707 9.21076 30.8723 9.10676C30.8749 9.05165 30.8792 8.99664 30.8853 8.94182C30.865 9.20832 30.887 8.97757 30.904 8.91338C31.0186 8.46244 30.77 7.97413 30.3962 7.85388C30.0062 7.72551 29.6162 8.00744 29.5017 8.45594Z" fill="#D3D4D5"/>
<path d="M23.4703 13.3091C23.6393 13.8973 23.8928 14.3783 24.2121 14.8634C24.46 15.2322 24.9865 15.1664 25.2391 14.8634C25.5446 14.5042 25.4813 14.0143 25.2391 13.6471C25.3285 13.7787 25.1953 13.5674 25.1896 13.5585C25.1382 13.4723 25.0905 13.3839 25.0466 13.2936C25.0011 13.2034 24.9613 13.1092 24.9215 13.0166C24.8881 12.9264 24.8849 12.9207 24.9166 13.0027C24.9011 12.9524 24.8833 12.9012 24.8686 12.8524C24.7378 12.4072 24.3763 12.1171 23.9765 12.2504C23.6141 12.3666 23.342 12.8662 23.4703 13.3091ZM23.5947 22.1848C24.0773 22.3408 24.5835 22.4351 25.0856 22.3627C25.4764 22.3042 25.812 22.0126 25.812 21.5015C25.812 21.0741 25.4788 20.5834 25.0856 20.6394C24.685 20.6979 24.36 20.6476 23.9806 20.5208C23.0738 20.2275 22.6903 21.8891 23.5947 22.1848ZM17.3295 22.9859C18.1956 23.848 19.2283 23.9707 20.3195 23.9723C21.2571 23.9723 21.2571 22.2506 20.3195 22.2506C19.6686 22.2474 18.8886 22.2953 18.3573 21.768C17.6463 21.0571 16.612 22.2734 17.3295 22.9859Z" fill="#B8BABC"/>
<path d="M27.7468 17.6123C28.3684 17.609 28.9859 17.6066 29.6017 17.5384C29.9966 17.4945 30.3297 17.1784 30.3297 16.6755C30.3297 16.24 29.9974 15.772 29.6017 15.8167C28.9859 15.8833 28.3667 15.8865 27.7468 15.8865C26.8084 15.8865 26.8084 17.6123 27.7468 17.6123ZM36.7655 11.6607C36.9427 12.0117 37.119 12.3619 37.3221 12.6894C37.5585 13.0647 37.9469 13.2532 38.3182 12.9973C38.631 12.7779 38.8139 12.197 38.5807 11.8167C38.3743 11.4917 38.198 11.1399 38.0217 10.7889C37.8169 10.3884 37.3725 10.2397 37.0272 10.4826C36.6851 10.7174 36.56 11.2561 36.7655 11.6607ZM35.3689 6.45099C35.5468 6.80199 35.7239 7.15217 35.927 7.47961C36.1635 7.85499 36.5502 8.04349 36.9215 7.78755C37.2368 7.56817 37.4196 6.98805 37.1848 6.60699C36.98 6.28199 36.8029 5.93017 36.6258 5.57917C36.421 5.17861 35.9766 5.02992 35.6305 5.27286C35.2917 5.50767 35.1657 6.04717 35.3689 6.45099Z" fill="#D5D5D5"/>
<path d="M39.4223 17.4423C39.0924 17.7624 38.7211 18.0671 38.3303 18.3336C37.5211 18.8926 38.2507 20.3795 39.064 19.8221C39.5581 19.4754 40.0214 19.0867 40.4485 18.6602C40.7548 18.3604 40.7069 17.7502 40.4485 17.4423C40.1463 17.0848 39.7254 17.1449 39.4223 17.4423ZM30.6554 22.0028C30.3759 22.1637 30.0729 22.3148 29.7836 22.3238C29.3879 22.3368 29.0589 22.7065 29.0589 23.1859C29.0589 23.6449 29.3871 24.0617 29.7836 24.0479C30.3589 24.03 30.8781 23.7903 31.3891 23.4897C31.7434 23.2833 31.8401 22.6951 31.6491 22.3108C31.4379 21.8859 31.0113 21.794 30.6554 22.0028ZM26.5661 5.5611C26.2874 5.72198 25.9844 5.8731 25.6951 5.88285C25.2994 5.89504 24.9712 6.26473 24.9712 6.7441C24.9712 7.20316 25.3011 7.61916 25.6951 7.60616C26.2696 7.58829 26.7904 7.3486 27.2998 7.04716C27.6557 6.84079 27.7508 6.25254 27.5606 5.86823C27.3494 5.4441 26.9236 5.35229 26.5661 5.5611Z" fill="#D3D4D5"/>
<path d="M33.007 19.3085C33.2979 19.5271 33.6497 19.6384 33.9909 19.6449C34.3891 19.6554 34.7173 19.2476 34.7173 18.7844C34.7173 18.3075 34.3891 17.9329 33.9909 17.9224C33.9397 17.9224 33.8016 17.9013 34.0242 17.9378C33.9807 17.9305 33.938 17.9191 33.8967 17.9037C33.853 17.8914 33.8106 17.8751 33.7699 17.8549C33.9682 17.9427 33.787 17.8549 33.7399 17.8208C33.4051 17.5706 32.9404 17.7339 32.7462 18.1263C32.5414 18.5456 32.6747 19.0574 33.007 19.3085ZM28.5594 3.99938C28.8511 4.21713 29.2021 4.32844 29.5433 4.33494C29.9431 4.34551 30.2705 3.93844 30.2705 3.47369C30.2705 2.99676 29.9398 2.62301 29.5433 2.61326C29.4921 2.61326 29.3548 2.59132 29.5766 2.62869C29.5352 2.61976 29.4921 2.61163 29.4499 2.59457C29.4059 2.58203 29.3632 2.56543 29.3223 2.54501C29.5206 2.63357 29.3394 2.54501 29.2914 2.51088C28.9575 2.26063 28.4936 2.42394 28.3002 2.81638C28.0922 3.23644 28.2254 3.74751 28.5594 3.99938Z" fill="#D5D5D5"/>
<path d="M38.0727 15.7559C38.6155 15.6747 39.1599 15.6024 39.688 15.4318C40.5915 15.1417 40.2072 13.4785 39.3029 13.7726C38.8982 13.9026 38.4904 13.9749 38.0719 14.0343C37.6811 14.0911 37.3447 14.3796 37.3447 14.8963C37.348 15.3213 37.6827 15.8185 38.0727 15.7559ZM41.6485 14.7549C41.772 15.1953 41.8915 15.6365 42.019 16.0785C42.1417 16.5221 42.513 16.8098 42.9136 16.6814C43.28 16.5603 43.5441 16.0671 43.4198 15.6219C43.2971 15.1831 43.1736 14.7387 43.0468 14.2999C42.9242 13.8547 42.552 13.5703 42.1539 13.6963C41.7867 13.8181 41.5218 14.3121 41.6485 14.7549ZM39.3248 9.84744C39.4475 10.2878 39.5677 10.729 39.6945 11.171C39.8172 11.6154 40.1893 11.9031 40.589 11.7739C40.9547 11.6528 41.2212 11.1596 41.0944 10.7144C40.9725 10.2756 40.8499 9.83119 40.7215 9.39244C40.5988 8.94719 40.2267 8.66281 39.8294 8.78875C39.4621 8.91063 39.1972 9.40463 39.3248 9.84744Z" fill="#D3D4D5"/>
<path d="M30.5322 15.712C30.7922 15.8965 31.0603 16.0622 31.335 16.2239C31.6908 16.4335 32.119 16.3393 32.3311 15.9143C32.5204 15.5308 32.4237 14.945 32.0703 14.7362C31.7949 14.5773 31.527 14.4057 31.2675 14.2219C30.9247 13.983 30.4705 14.1285 30.269 14.5323C30.0723 14.9418 30.1926 15.4715 30.5322 15.712Z" fill="#B8BABC"/>
<path d="M35.6085 23.7251C36.2938 23.4799 36.9366 23.1293 37.5138 22.6859C38.2963 22.0806 37.5666 20.5872 36.7801 21.1982C36.3083 21.5664 35.782 21.8589 35.2201 22.0652C34.3304 22.3902 34.7123 24.0542 35.6085 23.7251Z" fill="#D3D4D5"/>
<path d="M42.5345 19.9524C42.5743 19.8728 42.619 19.794 42.6661 19.7192C42.7157 19.6396 42.7141 19.6412 42.658 19.7241C42.6852 19.6875 42.7117 19.6503 42.7376 19.6128C42.8571 19.4414 42.9838 19.274 43.0992 19.1009C43.3486 18.7369 43.4039 18.2389 43.0992 17.8822C42.8424 17.5751 42.32 17.5149 42.073 17.8822C41.8016 18.2754 41.5059 18.6484 41.28 19.0831C41.0704 19.4836 41.202 20.0288 41.5408 20.2604C41.8877 20.5033 42.3257 20.3522 42.5345 19.9524ZM12.4663 10.9207C12.4208 10.9499 12.3721 10.9759 12.3274 11.0027C12.2908 11.0255 12.0731 11.1401 12.2616 11.0491C12.1234 11.1132 11.9812 11.1661 11.8342 11.2026C11.4482 11.3026 11.2272 11.8291 11.3272 12.2613C11.4361 12.7334 11.8342 12.9641 12.2217 12.8634C12.5638 12.7756 12.8839 12.5952 13.2 12.41C13.5543 12.2004 13.6469 11.6162 13.46 11.2335C13.2496 10.8077 12.8198 10.7143 12.4663 10.9207ZM19.3222 18.9799C18.9297 19.0571 18.5357 19.1237 18.1465 19.2009C17.7541 19.2756 17.5396 19.8436 17.6395 20.2604C17.7508 20.7495 18.1416 20.938 18.5324 20.8624C18.9233 20.7844 19.3132 20.7186 19.7073 20.6422C20.0997 20.5651 20.3118 19.9979 20.2168 19.5844C20.1022 19.0936 19.7114 18.9035 19.3222 18.9799Z" fill="#B8BABC"/>
<path d="M13.9343 19.6624C14.2098 20.3766 14.8159 20.6829 15.4236 20.8649C15.8047 20.9794 16.2085 20.7227 16.3141 20.2628C16.4173 19.8167 16.1898 19.3179 15.808 19.2033C15.708 19.1724 15.6081 19.1432 15.5155 19.1074C15.4773 19.0928 15.4423 19.0814 15.405 19.0644C15.2311 18.9912 15.5439 19.1448 15.3838 19.0497C15.3522 19.0332 15.3223 19.0136 15.2945 18.9912C15.149 18.8864 15.4066 19.1156 15.2823 18.9815C15.1588 18.845 15.3635 19.1383 15.2668 18.9669C15.2358 18.9109 15.21 18.8521 15.1896 18.7914C15.0231 18.3632 14.5104 18.2608 14.1927 18.4802C13.8279 18.7394 13.7702 19.2366 13.9343 19.6624Z" fill="#D0D0D0"/>
<path d="M9.1631 20.2744C9.41254 20.5507 9.7156 20.6921 10.0406 20.7871C10.4249 20.9066 10.8263 20.6474 10.9368 20.1883C11.0392 19.7431 10.8125 19.2426 10.4282 19.1288C10.3396 19.1012 10.2478 19.0727 10.1617 19.0346C10.017 18.9736 10.3144 19.1239 10.1877 19.0459C10.1665 19.0297 10.1454 19.0175 10.1243 19.0004C10.2242 19.0955 10.2454 19.115 10.1909 19.0565C9.90248 18.7372 9.45154 18.7161 9.1631 19.0565C8.89173 19.3799 8.87467 19.9527 9.1631 20.2744ZM18.0787 5.61774C18.3273 5.89237 18.6304 6.03537 18.9562 6.13043C19.3405 6.24987 19.741 5.99068 19.8515 5.5308C19.9531 5.08637 19.7272 4.58424 19.3429 4.4713C19.2523 4.44551 19.1633 4.4143 19.0764 4.37787C18.9318 4.31774 19.23 4.46643 19.104 4.38924C19.0829 4.3738 19.061 4.3608 19.0382 4.34374C19.139 4.4388 19.1593 4.45749 19.1057 4.3998C18.8172 4.07968 18.3671 4.06018 18.0795 4.3998C17.8065 4.72318 17.7894 5.29599 18.0787 5.61774Z" fill="#D3D4D5"/>
<path d="M26.5761 24.3829C27.3967 24.0043 28.0093 23.3299 28.6902 22.6953C29.0014 22.4037 28.9461 21.7805 28.6902 21.4758C28.3855 21.1167 27.9744 21.1857 27.6632 21.4758C27.2001 21.9097 26.7508 22.4646 26.1901 22.7222C25.8237 22.8928 25.5694 23.2942 25.6815 23.7808C25.7798 24.1985 26.2048 24.5535 26.5761 24.3829ZM31.5916 18.8977C30.707 18.757 29.8175 18.6483 28.925 18.5719C27.9914 18.4866 27.9963 20.2132 28.925 20.2952C29.6871 20.3651 30.4484 20.435 31.2089 20.5585C31.5989 20.6227 31.9865 20.4528 32.1019 19.9564C32.1953 19.5485 31.9849 18.9627 31.5916 18.8977Z" fill="#D0D0D0"/>
<path d="M26.0325 18.9404C26.0902 18.5929 26.1724 18.25 26.2787 17.9142C26.425 17.4779 26.1251 16.9684 25.7717 16.8555C25.359 16.719 25.0234 17.0196 24.8804 17.4551C24.7707 17.7908 24.687 18.1344 24.6301 18.4829C24.5521 18.9436 24.7398 19.4108 25.1388 19.5416C25.5011 19.6602 25.9513 19.4002 26.0325 18.9404Z" fill="#D3D4D5"/>
</svg>
