<svg width="40" height="53" viewBox="0 0 40 53" fill="none" xmlns="http://www.w3.org/2000/svg">
<path d="M24.544 16.5625H8.78776C7.12401 16.5624 5.52037 17.1806 4.29184 18.2955C3.06331 19.4104 2.29869 20.9416 2.14817 22.5881L0.0273387 45.7756C-0.0564589 46.6923 0.0528895 47.6163 0.348411 48.4887C0.643932 49.3611 1.11914 50.1627 1.74374 50.8424C2.36833 51.5221 3.1286 52.065 3.97608 52.4365C4.82355 52.808 5.73962 52.9999 6.66588 53H26.6659C27.5922 53 28.5084 52.8082 29.356 52.4368C30.2036 52.0654 30.964 51.5225 31.5887 50.8428C32.2134 50.163 32.6887 49.3614 32.9843 48.4889C33.2799 47.6165 33.3893 46.6924 33.3055 45.7756L31.1846 22.5881C31.0341 20.9414 30.2693 19.4101 29.0406 18.2952C27.8118 17.1802 26.2079 16.5622 24.544 16.5625ZM16.6659 43.0625C13.2159 43.0625 10.4159 40.3369 10.4159 36.981C10.4159 34.3931 14.1346 29.1686 15.8325 26.912C15.9297 26.7836 16.0557 26.6794 16.2004 26.6077C16.3451 26.536 16.5047 26.4988 16.6664 26.499C16.8281 26.4992 16.9876 26.5368 17.1321 26.6088C17.2767 26.6809 17.4023 26.7854 17.4992 26.9141C19.2003 29.1707 22.9159 34.3951 22.9159 36.983C22.9159 40.3369 20.1159 43.0625 16.6659 43.0625ZM39.5107 9.73668L34.9992 5.25238C33.749 4.01027 32.0535 3.31249 30.2857 3.3125H23.3325C23.3325 2.43397 22.9814 1.59142 22.3562 0.970209C21.7311 0.348995 20.8833 0 19.9992 0L13.3325 0C12.4485 0 11.6006 0.348995 10.9755 0.970209C10.3504 1.59142 9.99921 2.43397 9.99921 3.3125V13.25H23.3325V9.9375H30.2857L34.7971 14.4208C34.9519 14.5746 35.1357 14.6966 35.3379 14.7799C35.5401 14.8631 35.7569 14.906 35.9758 14.906C36.1947 14.906 36.4114 14.8631 36.6137 14.7799C36.8159 14.6966 36.9997 14.5746 37.1544 14.4208L39.5107 12.0792C39.6655 11.9254 39.7883 11.7428 39.8721 11.5419C39.9558 11.3409 39.999 11.1255 39.999 10.908C39.999 10.6904 39.9558 10.475 39.8721 10.2741C39.7883 10.0731 39.6655 9.89048 39.5107 9.73668Z" fill="#0F6B3A"/>
</svg>
