<svg width="53" height="53" viewBox="0 0 53 53" fill="none" xmlns="http://www.w3.org/2000/svg">
<path d="M10.808 6.99961L10.9941 6.85521L11.1712 6.7135C11.2413 6.65812 11.3207 6.5959 11.4028 6.53452C11.5499 6.43276 11.7162 6.31331 11.9127 6.19499C12.3792 5.90613 12.8728 5.66348 13.3864 5.47048C14.0444 5.2218 14.7316 5.05881 15.4312 4.98551C15.621 4.96181 15.8158 4.95456 16.013 4.94328C16.2104 4.94069 16.4111 4.93489 16.6137 4.94607L16.7662 4.9527L16.8428 4.95642C16.8148 4.9557 17.1232 4.96398 16.9955 4.96087L17.0017 4.96181L17.0141 4.96367L17.039 4.9675L17.2404 4.99835L17.4448 5.02971L17.5611 5.04793L17.747 5.08023C17.9938 5.12536 18.249 5.1765 18.4907 5.23664C18.7007 5.30206 18.9117 5.37121 19.1227 5.44367C19.2291 5.4769 19.3314 5.52431 19.4349 5.56882L19.7448 5.7065C19.9538 5.79397 20.1504 5.91208 20.3501 6.0245C21.1431 6.48442 21.8696 7.0934 22.4653 7.81625C23.062 8.53786 23.5275 9.37323 23.8227 10.2564C24.1221 11.1385 24.2375 12.0695 24.1922 12.954L24.1867 13.1198L24.186 13.1404L24.1829 13.2525L24.1817 13.2599L24.1772 13.2897L24.1681 13.3494L24.1316 13.5869L24.1135 13.7053L24.1044 13.7644L24.0995 13.7952L24.0911 13.8409C24.0466 14.0814 23.996 14.3207 23.9395 14.5587C23.9105 14.6724 23.8745 14.7651 23.8417 14.8681C23.7716 15.0681 23.7134 15.2686 23.6221 15.4557L23.4945 15.7367C23.4509 15.8292 23.4119 15.9227 23.359 16.0092C23.2609 16.1825 23.1607 16.3545 23.0582 16.5252C22.9472 16.6838 22.8346 16.8413 22.7203 16.9975C22.6667 17.0759 22.6018 17.1456 22.541 17.2169L22.3572 17.4268C22.2394 17.5685 22.1051 17.6915 21.9754 17.8136C21.8457 17.9357 21.7201 18.0564 21.5812 18.1584C21.4452 18.2633 21.3145 18.3684 21.1803 18.463L20.7722 18.7215C20.642 18.8089 20.4997 18.8716 20.3672 18.941L20.1688 19.0399L20.0715 19.0878L19.9717 19.1277C19.7058 19.23 19.4601 19.3354 19.2143 19.3946L18.8639 19.4902C18.7507 19.5178 18.6385 19.533 18.5327 19.5527L18.228 19.6039C18.1314 19.6205 18.0367 19.6215 17.9486 19.6298C17.7715 19.6414 17.6147 19.6554 17.4783 19.6576L17.1319 19.6476L16.8457 19.6366C16.2014 19.612 15.6991 19.0696 15.7238 18.4254C15.745 17.8713 16.149 17.4223 16.6715 17.3231L16.8457 17.2902L17.0275 17.2556L17.2434 17.2172C17.3271 17.1973 17.4213 17.1647 17.5265 17.1359C17.5786 17.1189 17.6351 17.1096 17.6908 17.0851L17.8651 17.0131C17.9249 16.9872 17.9889 16.967 18.0515 16.9357L18.2426 16.8332C18.3773 16.7727 18.5034 16.6728 18.6409 16.5863L18.6924 16.5527L18.7407 16.5121L18.8389 16.4309C18.9037 16.3748 18.9763 16.3283 19.0359 16.2603C19.0984 16.1968 19.1621 16.1335 19.2273 16.0705C19.2882 16.0023 19.3443 15.9271 19.405 15.8565C19.4687 15.7887 19.5184 15.706 19.5718 15.6265C19.6251 15.5471 19.6829 15.4707 19.7244 15.3808L19.794 15.2518C19.8169 15.2086 19.844 15.1681 19.8599 15.1203C19.8969 15.0281 19.9352 14.9369 19.9752 14.8466C20.0033 14.7501 20.0315 14.6541 20.0622 14.5596C20.0805 14.5135 20.0855 14.462 20.0956 14.4128L20.1249 14.2651C20.1522 14.1693 20.1494 14.0647 20.1621 13.9656C20.1653 13.9177 20.1766 13.8614 20.1747 13.8212C20.1706 13.7839 20.1676 13.7476 20.166 13.7119C20.1645 13.6767 20.1643 13.6414 20.1655 13.6062L20.166 13.5931L20.1647 13.5647L20.1616 13.5049L20.1555 13.3854L20.1432 13.1453L20.1401 13.0852L20.1385 13.0551L20.1381 13.0475C20.1328 13.2494 20.136 13.1008 20.1346 13.1446L20.1323 13.1353L20.1146 13.0609C20.0407 12.6635 19.8976 12.2917 19.6881 11.9714C19.4878 11.6595 19.2308 11.388 18.9304 11.1709C18.6579 10.9738 18.3517 10.8284 18.0268 10.7416C17.9499 10.7244 17.8797 10.6957 17.8016 10.6922C17.7645 10.6875 17.7276 10.682 17.6907 10.6759C17.6542 10.6704 17.6197 10.6602 17.5818 10.6629C17.5105 10.6623 17.4394 10.6589 17.3684 10.6526C17.3269 10.6642 17.3007 10.6763 17.2707 10.6779L16.952 10.6937L16.7486 10.7041L16.7234 10.7055L16.7108 10.7061L16.7045 10.7064C16.5726 10.7033 16.8768 10.711 16.8447 10.7105L16.8215 10.7168L16.7755 10.7285C16.7142 10.7403 16.657 10.7633 16.6005 10.7777C16.5457 10.8008 16.4912 10.8145 16.4411 10.8394C16.2614 10.9138 16.0929 11.013 15.9406 11.134C15.8278 11.2224 15.7244 11.3221 15.632 11.4316C15.5925 11.4741 15.5639 11.5192 15.5355 11.5526C15.5332 11.563 15.5355 11.5685 15.5345 11.5745L15.5339 11.5819C15.533 11.5848 15.5376 11.5813 15.5197 11.6017L15.3666 11.7807C14.1748 13.1743 12.0789 13.3378 10.6853 12.146C9.29162 10.9541 9.12817 8.85824 10.3199 7.46461C10.4653 7.29494 10.6387 7.13274 10.808 6.99961Z" fill="#E89E34"/>
<path d="M13.9614 17.4759C11.579 19.8583 12.4774 24.9422 10.7016 27.2888C8.92582 29.6354 4.48645 28.8585 4.48645 28.8585C4.48645 28.8585 1.0459 27.9802 1.0459 23.8135C1.0459 19.6468 3.3368 14.5951 8.684 10.6284C14.0312 6.66169 13.9614 17.4759 13.9614 17.4759Z" fill="#E9EAE5"/>
<path d="M7.63151 15.4349C6.76219 15.3885 6.01978 16.0556 5.9733 16.925L5.82796 19.6471C5.78159 20.5164 6.44864 21.2588 7.31807 21.3053C8.18739 21.3516 8.92981 20.6846 8.97629 19.8152L9.12162 17.0931C9.168 16.2237 8.50084 15.4813 7.63151 15.4349Z" fill="#2B3B47"/>
<path d="M40.2152 12.9914C33.1118 12.9914 34.2957 14.2908 28.0803 14.2908C22.9568 14.2908 21.8549 12.5251 17.7684 11.9047C16.9269 9.92688 15.3004 7.69043 12.2457 7.69043C9.13795 7.69043 7.95404 9.31832 6.27916 12.6772L6.2805 12.6774C7.00107 11.971 7.80001 11.2849 8.68424 10.6289C11.8404 8.28751 13.1089 11.0958 13.6189 13.7903C13.6278 13.8372 13.6364 13.8841 13.6449 13.9309L13.6501 13.9594C13.9723 15.7687 13.9617 17.4764 13.9617 17.4764C11.5793 19.8588 12.4777 24.9428 10.7019 27.2894C9.55087 28.8104 7.28098 29.019 5.82617 28.9776L10.7279 29.6799C11.1026 29.7337 11.4474 29.9145 11.7045 30.1921C11.9617 30.4698 12.1157 30.8274 12.1406 31.205C12.3928 35.0281 13.7133 37.3342 14.8664 38.6432C15.9115 39.8294 16.6209 41.2734 16.9613 42.8173C17.7606 46.4412 19.2011 48.0606 21.717 48.0606C23.4928 48.0606 24.6767 43.7994 24.6767 42.1715C24.6767 40.5436 29.2643 40.1383 32.668 40.1383C36.0717 40.1383 37.3296 40.8768 37.3296 42.6155C37.3296 44.3541 36.9596 48.0606 40.5113 48.0606C43.0193 48.0606 44.7155 44.1104 45.4959 41.7888C45.811 40.8515 46.3869 40.0203 47.1635 39.408C48.7901 38.1255 51.6017 34.8341 52.2722 27.1414C53.1916 16.5909 47.3185 12.9914 40.2152 12.9914Z" fill="#CECECA"/>
<path d="M11.4011 8.87249L11.59 8.73109L11.781 8.57954C11.8572 8.51992 11.9435 8.45284 12.0325 8.38711C12.1898 8.27945 12.3679 8.15358 12.578 8.02874C13.0766 7.72437 13.6037 7.46941 14.1518 7.26748C14.8532 7.00765 15.585 6.83915 16.3294 6.76616C16.5311 6.74255 16.738 6.73583 16.9474 6.72558C17.1569 6.72403 17.3699 6.71968 17.5846 6.73282L18.0489 6.75829L18.25 6.79276L18.7728 6.88303C19.0382 6.93209 19.3132 6.98871 19.5721 7.05507C19.7942 7.12556 20.0173 7.2003 20.24 7.27908C20.3523 7.31541 20.4604 7.36603 20.5697 7.41385L20.8967 7.56198C21.117 7.6567 21.3243 7.78247 21.5347 7.90307C22.3698 8.3956 23.1319 9.04485 23.754 9.8119C24.3772 10.5778 24.8601 11.4614 25.1629 12.393C25.47 13.3232 25.583 14.3024 25.5275 15.2288L25.5199 15.4024L25.5189 15.424L25.5151 15.5541L25.5139 15.5616L25.5088 15.5914L25.4987 15.6509L25.4581 15.8883L25.4133 16.145C25.365 16.4001 25.3099 16.654 25.2479 16.9061L25.2364 16.9526L25.2231 16.9926L25.1965 17.072L25.1427 17.2297C25.0676 17.4383 25.0043 17.6471 24.9075 17.842L24.7715 18.1346C24.725 18.2307 24.6831 18.3277 24.6272 18.4179C24.5233 18.5979 24.4169 18.7765 24.308 18.9536C24.191 19.1181 24.0719 19.2812 23.951 19.4429C23.8942 19.524 23.8261 19.5962 23.762 19.67L23.5683 19.8869C23.4439 20.0329 23.3031 20.1599 23.1669 20.2857C23.0307 20.4115 22.8985 20.5355 22.7531 20.6404C22.6107 20.7481 22.4735 20.856 22.3331 20.9528C22.1881 21.0445 22.0457 21.1326 21.9064 21.2171C21.77 21.3062 21.6218 21.3702 21.4835 21.4408L21.2765 21.5414L21.1749 21.5898L21.0709 21.6303C20.7939 21.734 20.5379 21.8397 20.2826 21.8988L19.9186 21.9939C19.801 22.0211 19.6846 22.0358 19.5749 22.0551L19.2591 22.1045C19.159 22.1205 19.061 22.1206 18.9697 22.1283C18.7864 22.1383 18.6242 22.1509 18.4832 22.1516L18.1256 22.1374L17.8303 22.1225C17.0765 22.0845 16.4962 21.4426 16.5342 20.6888C16.5659 20.0613 17.0159 19.5541 17.6006 19.4236L17.8303 19.3728L18.0033 19.3343L18.208 19.2918C18.2873 19.2703 18.376 19.2362 18.475 19.2057C18.524 19.1879 18.5772 19.1779 18.6294 19.1529L18.7925 19.0791C18.8484 19.0527 18.9083 19.032 18.9665 19.0004L19.144 18.8973C19.2691 18.8367 19.3848 18.7372 19.5114 18.6521L19.5587 18.6191L19.6028 18.5792L19.6924 18.4994C19.7513 18.4445 19.8181 18.3994 19.8715 18.3331C19.9282 18.2709 19.9858 18.2096 20.0442 18.1491C20.0989 18.0832 20.1486 18.0106 20.2028 17.9429C20.2601 17.878 20.3032 17.7986 20.35 17.7229C20.3968 17.6471 20.4482 17.5747 20.4829 17.4893L20.5427 17.3674C20.5622 17.3266 20.5861 17.2886 20.5989 17.2435C20.6294 17.1565 20.6613 17.071 20.695 16.9869C20.717 16.8965 20.7389 16.8071 20.7638 16.7195C20.7791 16.6768 20.7812 16.629 20.7884 16.5836L20.8093 16.4473C20.8311 16.3594 20.8231 16.263 20.8309 16.1726L20.8351 16.1044L20.8376 16.0706L20.8388 16.0538L20.8361 16.0424C20.8294 16.0133 20.8239 15.9838 20.8199 15.9542C20.816 15.9265 20.8137 15.8986 20.8131 15.8706L20.7988 15.6527L20.7823 15.4124L20.7782 15.3522L20.7761 15.322L20.7756 15.3145C20.7694 15.5515 20.7731 15.3778 20.7714 15.4296L20.7688 15.4212L20.7492 15.3546C20.665 14.9992 20.5196 14.6755 20.3177 14.4034C20.1187 14.1307 19.8735 13.9069 19.6114 13.7438C19.3494 13.5802 19.0725 13.4786 18.812 13.4316C18.7456 13.4226 18.6862 13.4016 18.6194 13.4053C18.5881 13.4041 18.5568 13.4022 18.5256 13.3994C18.4949 13.3973 18.4661 13.3904 18.4342 13.3961C18.3719 13.4015 18.3131 13.4038 18.2568 13.4027C18.2326 13.4206 18.226 13.438 18.2147 13.4437C18.2126 13.4452 18.2102 13.4464 18.2078 13.4473L18.1188 13.4536L17.9121 13.4678L17.7085 13.4817L17.6833 13.4835L17.6706 13.4843L17.6643 13.4847C17.5101 13.481 17.867 13.4902 17.8297 13.4896L17.811 13.4966L17.7741 13.5099C17.725 13.5237 17.68 13.5482 17.6357 13.5637C17.5931 13.5878 17.5506 13.602 17.5127 13.6272C17.3769 13.7011 17.2529 13.7949 17.1449 13.9054C17.0662 13.9846 16.9963 14.0721 16.9364 14.1663C16.9105 14.2022 16.8937 14.2409 16.8754 14.2685C16.88 14.2744 16.8893 14.2751 16.8944 14.2767L16.9023 14.2779C16.904 14.2788 16.9122 14.2725 16.8934 14.2941L16.7431 14.4761C15.3723 16.1364 12.9151 16.371 11.2548 15.0002C9.59454 13.6294 9.35997 11.1722 10.7307 9.51191C10.9281 9.27258 11.1646 9.05178 11.4011 8.87249Z" fill="#FFB941"/>
</svg>
