<svg width="26" height="26" viewBox="0 0 26 26" fill="none" xmlns="http://www.w3.org/2000/svg">
<path d="M6.39454 1.53077C7.93098 1.03189 12.2884 2.8003 12.8466 3.43648C13.4011 4.06942 9.78104 4.33105 7.81561 4.62233C5.78761 4.92742 3.76489 5.29183 3.21198 4.65361C2.65948 4.02433 4.86014 2.03289 6.39454 1.53077Z" fill="#F79423"/>
<path d="M16.9696 0.421746C18.7254 -0.0909416 23.4339 2.0175 24.0026 2.73575C24.5657 3.46293 20.517 3.64412 18.307 3.91103C16.0194 4.18484 13.7282 4.52853 13.1647 3.80459C12.5976 3.08634 15.2199 0.929152 16.9709 0.421746" fill="#F79423"/>
<path d="M6.66337 3.33415C7.7184 2.64027 12.2591 3.34999 13.0244 3.7859C13.7971 4.21815 10.8693 5.09362 9.34787 5.69162C7.7834 6.31034 6.25062 6.98877 5.47996 6.54596C4.70443 6.11534 5.61281 4.03493 6.66418 3.33415" fill="#F79423"/>
<path d="M10.9204 0.0366094C12.4564 0.174328 14.0729 2.86127 13.923 3.49786C13.7784 4.1308 10.9379 3.15255 9.26532 2.72558C7.54282 2.28764 5.76588 1.90048 5.91945 1.26755C6.06773 0.627703 9.3807 -0.0994843 10.9204 0.0366094Z" fill="#F79423"/>
<path d="M16.1825 3.04077C17.7242 3.17321 19.339 5.86218 19.1887 6.49674C19.0388 7.13333 16.2 6.15305 14.5274 5.72771C12.8098 5.2918 11.0276 4.89937 11.1811 4.2648C11.3266 3.63024 14.6465 2.90671 16.1825 3.04199" fill="#F79423"/>
<path d="M1.91406 20.9771C1.91406 24.8085 7.3895 25.9244 13.2468 25.9244C19.1037 25.9244 24.5812 24.8085 24.5812 20.9771C24.5812 17.1531 19.1041 5.72974 13.2468 5.72974C7.3895 5.72974 1.91406 17.1535 1.91406 20.9771Z" fill="#F79423"/>
<path d="M16.7614 6.2006C16.7615 6.39114 16.7241 6.57983 16.6512 6.75589C16.5784 6.93195 16.4715 7.09192 16.3368 7.22665C16.202 7.36138 16.0421 7.46824 15.866 7.5411C15.69 7.61397 15.5013 7.65142 15.3107 7.65132H11.1812C10.7964 7.65132 10.4274 7.49847 10.1554 7.22641C9.88331 6.95435 9.73047 6.58535 9.73047 6.2006C9.73047 5.81584 9.88331 5.44685 10.1554 5.17478C10.4274 4.90272 10.7964 4.74988 11.1812 4.74988H15.3103C15.5009 4.74982 15.6895 4.78731 15.8656 4.86019C16.0417 4.93307 16.2016 5.03992 16.3364 5.17464C16.4711 5.30936 16.578 5.4693 16.651 5.64534C16.7239 5.82137 16.7614 6.01005 16.7614 6.2006Z" fill="#845939"/>
<path d="M15.9204 16.6423C15.4707 16.1626 14.8499 15.8416 14.2605 15.5751C13.6466 15.2956 12.7573 15.0677 12.3665 14.4661C12.0387 13.9623 12.4904 13.4338 12.9507 13.2802C13.6917 13.0312 14.6058 13.331 15.2562 13.697C15.5804 13.8782 15.9224 13.7007 16.0459 13.3761C16.182 13.017 16.3181 12.6574 16.4522 12.2987C16.5342 12.0806 16.4018 11.8015 16.2068 11.6918C15.6157 11.3639 14.9998 11.1844 14.3494 11.0991V10.0006C14.3494 9.70766 14.1053 9.4635 13.8124 9.4635H12.7992C12.5079 9.4635 12.2621 9.70766 12.2621 10.0006V11.2274C11.2595 11.5167 10.3458 12.1622 9.98996 13.1876C9.59427 14.3227 9.83477 15.4979 10.6769 16.3576C11.1287 16.8199 11.7389 17.1233 12.3182 17.3862C12.9718 17.6811 13.7758 17.8936 14.1979 18.5233C14.6497 19.1964 14.0655 19.8607 13.4341 20.0512C12.5867 20.3055 11.5597 19.924 10.848 19.4808C10.536 19.2858 10.1732 19.4861 10.0598 19.8018L9.6674 20.895C9.58371 21.1286 9.72306 21.3764 9.91481 21.5015C10.5863 21.9411 11.357 22.1588 12.1467 22.2498V23.406C12.1467 23.5632 12.2044 23.6835 12.2897 23.7688C12.295 23.7745 12.3003 23.7793 12.3036 23.7846C12.3084 23.7897 12.3137 23.7943 12.3194 23.7984C12.4047 23.8858 12.525 23.9431 12.6822 23.9431H13.7128C13.8547 23.9418 13.9904 23.8847 14.0906 23.7843C14.1908 23.6838 14.2474 23.5479 14.2483 23.406V22.1296C15.3626 21.8086 16.2239 21.0888 16.6582 19.9708C17.1034 18.8304 16.7248 17.5032 15.9176 16.6419" fill="#25333A"/>
<path d="M15.9204 15.9006C15.4707 15.4228 14.8499 15.1019 14.2605 14.8354C13.6466 14.5559 12.7573 14.328 12.3665 13.7247C12.0387 13.2242 12.4904 12.694 12.9507 12.5388C13.6917 12.2914 14.6058 12.5896 15.2562 12.9557C15.5804 13.1389 15.9224 12.9589 16.0459 12.6347C16.182 12.2756 16.3181 11.9181 16.4522 11.559C16.5342 11.3392 16.4018 11.0601 16.2068 10.952C15.6157 10.6226 14.9998 10.4446 14.3494 10.3577V9.25919C14.3494 8.96791 14.1053 8.72375 13.8124 8.72375H12.7992C12.5079 8.72375 12.2621 8.96791 12.2621 9.25919V10.4861C11.2595 10.7757 10.3458 11.4225 9.98996 12.4478C9.59427 13.5829 9.83477 14.7582 10.6769 15.6162C11.1287 16.0785 11.7389 16.3836 12.3182 16.6448C12.9718 16.9398 13.7758 17.1522 14.1979 17.7819C14.6497 18.4547 14.0655 19.1193 13.4341 19.311C12.5867 19.5658 11.5597 19.1843 10.848 18.7394C10.536 18.5457 10.1732 18.7464 10.0598 19.0604L9.6674 20.1552C9.58371 20.3868 9.72306 20.6366 9.91481 20.7618C10.5863 21.1997 11.357 21.4191 12.1467 21.5101V22.6663C12.1467 22.8214 12.2044 22.9421 12.2897 23.029C12.295 23.0347 12.3003 23.0396 12.3036 23.0449C12.3092 23.049 12.3145 23.0536 12.3194 23.0587C12.4047 23.144 12.525 23.2017 12.6822 23.2017H13.7128C13.8544 23.2004 13.9898 23.1437 14.0899 23.0436C14.19 22.9436 14.2469 22.8082 14.2483 22.6667V21.3886C15.3626 21.0681 16.2239 20.3494 16.6582 19.2302C17.1034 18.0903 16.7248 16.7614 15.9176 15.9002" fill="#25333A"/>
</svg>
