<svg xmlns="http://www.w3.org/2000/svg" viewBox="0 0 72.82 28.53"><defs><style>.cls-1{font-size:12px;stroke:#1d1d1b;stroke-miterlimit:10;stroke-width:0.25px;font-family:SFProDisplay-Bold, SF Pro Display;font-weight:700;}.cls-1,.cls-2{fill:#1d1d1b;}</style></defs><g id="Layer_2" data-name="Layer 2"><g id="Layer_1-2" data-name="Layer 1"><text class="cls-1" transform="translate(40.23 10.86)">Short <tspan x="0" y="14.4">Flight</tspan></text><path class="cls-2" d="M14.45,17.31l-2.68,1.54a.68.68,0,0,0-.34.52c-.17.88-.37,1.76-.52,2.64a1.41,1.41,0,0,1-.72,1c-.91.52-1.81,1.06-2.73,1.56a1.15,1.15,0,0,1-1.82-.91C5.41,22.11,5.18,20.53,5,19a1.48,1.48,0,0,0-.62-1.08C3.09,16.93,1.86,16,.62,15a1.17,1.17,0,0,1,.17-2.14c.83-.49,1.67-.95,2.49-1.45a1.58,1.58,0,0,1,1.49-.13c.78.28,1.58.52,2.36.8A.92.92,0,0,0,8,12c.79-.49,1.61-.94,2.42-1.41,0-.24-.23-.28-.36-.36L2.33,5.1C1.17,4.33,1.2,3.44,2.4,2.74c.89-.51,1.79-1,2.66-1.54a1.55,1.55,0,0,1,1.49-.12c3.74,1.51,7.49,3,11.23,4.49a1.47,1.47,0,0,0,1.5-.11c.77-.5,1.58-.93,2.37-1.39A6.57,6.57,0,0,1,27,3.59a2.28,2.28,0,0,1,1.64,3A6.66,6.66,0,0,1,25.45,11c-.82.44-1.62.95-2.44,1.39a1.05,1.05,0,0,0-.62.89q-.74,5.16-1.5,10.32c-.09.67-.18,1.34-.28,2a1.32,1.32,0,0,1-.68,1c-1,.58-2,1.19-3.06,1.76a1.13,1.13,0,0,1-1.78-1c-.19-2.65-.34-5.29-.51-7.94ZM3.27,14.11C4.36,15,5.42,15.8,6.5,16.63a1.47,1.47,0,0,1,.6,1c.16,1.21.34,2.42.52,3.63,0,.16,0,.5.28.36s.84-.31.91-.9c.12-.87.34-1.71.51-2.57a1.35,1.35,0,0,1,.68-1c1.61-.92,3.21-1.86,4.83-2.77a1.16,1.16,0,0,1,1.84,1c.11,1.66.19,3.33.28,5,.09,1.5.18,3,.28,4.52,0,.14-.06.48.2.35.41-.21.93-.29,1-1,.57-4.09,1.19-8.17,1.78-12.26a1.58,1.58,0,0,1,.86-1.29c1.16-.65,2.31-1.33,3.46-2a4.6,4.6,0,0,0,1.86-2.61c.1-.28,0-.46-.31-.5A4.8,4.8,0,0,0,22.85,6c-1.11.66-2.24,1.28-3.34,2a1.7,1.7,0,0,1-1.62.11c-3.66-1.47-7.34-2.89-11-4.4a1.64,1.64,0,0,0-2,.32l.59.4c2.56,1.69,5.12,3.36,7.67,5.05a1.19,1.19,0,0,1-.07,2.19c-1.54.9-3.11,1.77-4.65,2.68a1.48,1.48,0,0,1-1.37.12A20.76,20.76,0,0,1,5,13.74,1.47,1.47,0,0,0,3.27,14.11Z"/></g></g></svg>