<svg width="47" height="47" viewBox="0 0 47 47" fill="none" xmlns="http://www.w3.org/2000/svg">
<path d="M7.68164 6.8848L39.9427 6.04761V38.5437C39.9427 40.8533 32.7202 42.726 23.8122 42.726C14.9042 42.726 7.68164 40.8533 7.68164 38.5437" fill="#B7D5E5"/>
<path d="M23.5002 10.3841C32.6075 10.3841 39.9906 8.5116 39.9906 6.2018C39.9906 3.892 32.6075 2.01953 23.5002 2.01953C14.3928 2.01953 7.00977 3.892 7.00977 6.2018C7.00977 8.5116 14.3928 10.3841 23.5002 10.3841Z" fill="#E0E0E0"/>
<path d="M23.5004 7.93856C27.2825 7.93856 30.3484 7.16097 30.3484 6.20176C30.3484 5.24256 27.2825 4.46497 23.5004 4.46497C19.7183 4.46497 16.6523 5.24256 16.6523 6.20176C16.6523 7.16097 19.7183 7.93856 23.5004 7.93856Z" fill="#82AEC0"/>
<path d="M23.4998 7.41347C26.5944 7.41347 29.103 6.83644 29.103 6.12464C29.103 5.41284 26.5944 4.83582 23.4998 4.83582C20.4052 4.83582 17.8965 5.41284 17.8965 6.12464C17.8965 6.83644 20.4052 7.41347 23.4998 7.41347Z" fill="#2F7889"/>
<path d="M23.4998 2.01953C22.7214 2.01953 21.5905 2.04523 21.2123 2.05992C20.8304 2.07461 20.8671 2.28023 21.2123 2.29859C21.5574 2.31695 26.6613 2.57398 29.4556 2.88609C33.4837 3.33406 36.6966 4.23 37.9927 5.02313C38.4444 5.29852 39.6561 5.7832 39.0686 6.99492C38.9144 7.3107 38.5068 7.93859 36.4873 8.77945C35.7272 9.09523 39.1861 9.32289 39.9425 8.54445C39.9425 8.54445 39.9902 6.92516 39.9902 6.20547C39.9902 3.89219 32.6061 2.01953 23.4998 2.01953Z" fill="#B7D5E5"/>
<path d="M30.8916 14.6471C30.8916 14.6471 26.3752 12.7671 17.5187 11.4489C8.71352 10.138 7.46875 7.17847 7.46875 7.17847V38.092C8.58133 42.836 22.2297 43.071 26.3826 43.5374C28.5637 43.7834 31.6737 45.4174 31.6737 45.4174C32.823 43.1482 30.4473 36.4543 30.3262 34.7285C30.1279 31.9196 31.3249 31.9783 31.3249 29.2024C31.3249 26.4264 30.2931 25.4314 29.959 22.0385C29.6248 18.6457 30.943 18.106 30.8916 14.6471Z" fill="white"/>
<path d="M16.9973 12.2934C25.538 13.6997 30.8916 14.6507 30.8916 14.6507C30.7044 14.5736 26.423 12.5872 17.6031 11.2726C9.34875 10.0425 8.22516 7.51629 7.00977 6.3927C7.00977 6.3927 7.27781 10.6925 16.9973 12.2934Z" fill="#EEEEEE"/>
<path d="M30.1066 17.379C29.6146 18.6458 29.0528 20.0815 29.24 21.9945C29.4126 23.768 29.7614 24.9504 30.0699 25.9932C30.6353 27.5317 31.0466 29.1987 30.1727 31.6662C29.3759 33.9208 29.1996 36.3626 30.5399 39.9059C30.7198 40.3833 31.6231 42.9242 31.7589 45.7112C31.7589 45.7112 31.7626 45.7112 31.7626 45.7148C31.7626 45.7148 32.5007 43.6329 32.0233 41.2682C31.4101 38.2279 30.6941 37.868 30.606 35.7457C30.4885 32.8265 31.6635 32.1987 31.7626 29.3199C31.8728 26.0519 30.6904 25.4057 30.3453 21.8844C30.0148 18.5062 31.4285 17.9077 30.8924 14.6471C30.7124 15.5357 30.5362 16.2701 30.1066 17.379Z" fill="#81B6CC"/>
<path d="M26.7645 43.0968C26.1072 42.9793 25.2223 42.9536 24.2052 42.8764C21.3264 42.6525 17.3865 42.3477 14.0267 41.584C9.69023 40.5999 8.40875 39.3294 8.12234 38.4041C8.12234 38.4041 8.23617 12.4036 8.16641 10.8981C8.07094 8.79411 7.00977 6.3927 7.00977 6.3927V38.551C8.16273 43.4713 22.3288 43.721 26.6396 44.2057C28.9015 44.459 30.6309 45.1347 31.7655 45.7185C31.7655 45.7148 31.5746 43.956 26.7645 43.0968Z" fill="#B7D5E5"/>
<path d="M39.1673 9.95812C39.1159 11.4122 38.8295 38.5473 38.8295 38.5473C38.8148 38.7273 34.7941 41.4004 31.2617 38.6245L31.7648 42.1862C36.6484 41.4665 39.9457 40.1079 39.9457 38.5473L39.9934 6.19812C39.9898 6.20179 39.2444 7.70726 39.1673 9.95812Z" fill="#81B6CC"/>
</svg>
