<svg width="50" height="50" viewBox="0 0 50 50" fill="none" xmlns="http://www.w3.org/2000/svg">
<path d="M6.33993 40.2422C8.64853 40.8672 11.0938 40.5586 13.4493 40.1523C19.0392 39.1875 24.6681 37.6289 29.2813 34.332C30.4337 33.5078 31.5118 32.5859 32.586 31.6602C35.7227 28.9688 38.9102 26.2227 41.1095 22.7227C43.0313 19.6602 44.1173 15.8828 43.4298 12.3789C42.2852 11.2266 41.004 10.1992 39.6251 9.30859C35.1915 6.45703 30.1798 3.88672 25.1056 2.44141C22.6798 1.75 19.7696 1.14453 17.0899 1.14453C16.4766 1.14453 15.8751 1.17578 15.2891 1.24609C12.4181 1.58984 9.75009 2.76562 7.57821 5.21094C6.07431 6.90234 4.72665 9.23828 4.01962 11.3906C3.11728 14.1367 2.53134 17.1797 2.30868 20.0586C2.02743 23.6992 1.55868 27.3477 1.5079 31.0039C1.47665 33.0664 1.65243 35.1562 2.10946 37.1758C2.99228 38.6797 4.62118 39.7773 6.33993 40.2422Z" fill="#E4E3DE"/>
<path d="M48.2969 21.1719C47.5859 17.7422 45.8164 14.7812 43.4297 12.375C44.1172 15.8789 43.0352 19.6562 41.1094 22.7188C38.9102 26.2188 35.7266 28.9648 32.5859 31.6562C31.5117 32.5781 30.4336 33.5039 29.2812 34.3281C24.668 37.625 19.0391 39.1875 13.4492 40.1484C11.0938 40.5547 8.64453 40.8594 6.33984 40.2383C4.62109 39.7734 2.99219 38.6758 2.10938 37.1719C2.42188 38.5586 2.86328 39.9141 3.46875 41.2031C4.57031 43.5586 6.43359 45.457 8.66797 46.7617C11.2227 48.2578 14.0586 48.8555 16.9297 48.8555C19.3984 48.8555 21.8906 48.4141 24.2461 47.7305C29.5234 46.1953 34.1953 43.1016 38.2266 39.4688C41.9766 36.0938 46.1797 32.1484 47.8633 27.2305C48.4805 25.418 48.6914 23.0664 48.2969 21.1719Z" fill="#CDCBBF"/>
<path d="M41.9378 25.9452C40.4534 23.7421 38.6722 21.7382 36.9573 19.7265C36.6722 19.3944 36.2698 19.1718 35.969 18.8476C35.6683 18.5273 35.3597 18.1874 34.93 18.0507C34.0472 17.7734 33.1058 18.3554 32.3519 18.7773C31.4495 19.2851 30.6058 19.9062 29.7229 20.453C28.0198 21.4921 26.3636 22.6171 24.7308 23.7734C23.305 24.7773 21.9026 25.8202 20.4808 26.828C19.5511 27.4843 18.1018 28.0741 17.7933 29.3085C17.4417 30.7109 20.4886 33.9296 21.2464 34.9804C22.8519 37.1913 29.3558 43.6757 26.5979 46.9687C30.8675 45.3671 35.6526 42.0546 38.0589 39.9101C40.8284 37.4374 43.0354 35.4101 44.8519 32.8241C44.8479 32.3515 44.805 31.9335 44.6526 31.4491C44.0315 29.4296 43.0745 27.6288 41.9378 25.9452Z" fill="#2F2F2F"/>
<path d="M19.0781 4.12881C19.0195 4.16396 18.957 4.21475 18.8906 4.28115C18.5039 4.66787 18.4531 5.36709 18.1016 5.80068C17.7148 6.26943 16.8672 6.35146 16.7422 7.01553C16.6289 7.60537 17.3984 8.15225 17.9258 8.21084C18.5508 8.28115 19.375 7.81631 19.8281 7.42178C20.3789 6.9374 20.7695 6.08975 20.5195 5.371C20.3281 4.8124 19.75 3.73428 19.0781 4.12881ZM16.75 14.789C16.5156 15.2616 16.457 15.9726 16.0625 16.2226C15.7109 16.453 15.3516 16.6093 15.0898 16.9569C14.9102 17.1991 14.875 17.3085 14.875 17.6054C14.8711 18.0077 14.9609 18.0194 15.2539 18.2772C15.8906 18.8202 16.8516 18.6796 17.5156 18.2616C18.5547 17.6132 19.3047 14.4882 17.4609 14.3437C17.0938 14.3085 16.8906 14.5116 16.75 14.789ZM8.82031 17.5858C8.58203 18.0585 8.52734 18.7694 8.13281 19.0194C7.78516 19.246 7.42187 19.4062 7.16016 19.7538C6.97656 19.996 6.94141 20.1054 6.94141 20.4022C6.94141 20.8046 7.03125 20.8163 7.32422 21.0702C7.96094 21.6171 8.92188 21.4726 9.58594 21.0585C10.625 20.4062 11.3711 17.2812 9.53516 17.1366C9.16016 17.1093 8.96094 17.3085 8.82031 17.5858ZM26.0586 13.5194C26.3008 13.1601 26.4375 12.7304 26.4453 12.3085C26.4531 11.7382 26.5273 10.7421 26.0547 10.3085C25.75 10.0312 25.0391 10.1444 24.8359 10.5077C24.7148 10.7226 24.7461 11.1093 24.6523 11.3515C24.4062 11.9843 23.0352 12.8397 23.3516 13.5741C23.5234 13.9804 24.1289 14.2772 24.5312 14.3241C25.1562 14.4022 25.7109 14.039 26.0586 13.5194ZM35.2891 13.6522C35.5312 13.2929 35.6719 12.8593 35.6797 12.4413C35.6875 11.871 35.7617 10.8749 35.2891 10.4413C34.9883 10.164 34.2734 10.2772 34.0664 10.6405C33.9453 10.8554 33.9766 11.2382 33.8789 11.4843C33.6406 12.1171 32.2656 12.9687 32.582 13.7108C32.7539 14.1132 33.3555 14.4101 33.7617 14.4608C34.3906 14.5351 34.9414 14.1679 35.2891 13.6522ZM15.1445 26.8437C15.207 26.746 15.2539 26.6366 15.293 26.5312C15.5859 25.703 15.5039 24.121 14.4688 23.828C13.8828 23.6601 13.3828 24.328 13.2188 24.7968C13.0859 25.1718 13.0117 25.3085 12.7617 25.6601C12.4805 26.0585 12.2578 26.4062 11.8516 26.6796C11.6289 26.8319 11.0156 27.1015 11.125 27.4608C11.1836 27.6601 11.7891 27.8827 11.9687 27.9413C13.0273 28.2812 14.5586 27.8476 15.1445 26.8437Z" fill="#CDCBBF"/>
</svg>
