<svg width="37" height="37" viewBox="0 0 37 37" fill="none" xmlns="http://www.w3.org/2000/svg">
<path d="M10.8751 4.5007L10.9468 4.61286C9.90988 4.75027 8.87528 4.90465 7.84342 5.07594C6.77909 5.25516 4.49261 6.10269 2.97098 6.69584L2.96173 6.58658L1.15625 7.17338L1.67541 14.304L3.60345 14.4682L3.59189 14.3317L8.61464 14.7202C8.70367 20.6524 7.99778 27.7009 7.51794 31.8217L7.3497 31.783L7.21789 34.3759C7.21789 34.3759 12.0493 35.7455 18.4954 35.8438V33.1613L18.4988 7.97523L12.972 1.15625L10.8751 4.5007ZM2.21653 13.7698L1.76617 7.58327L2.44547 7.36184L2.97214 13.8345L2.21653 13.7698ZM17.9172 35.2535C13.0043 35.1176 9.09622 34.251 7.81914 33.9348L7.89198 32.4958C9.45755 32.8282 13.5229 33.6024 17.9172 33.7278V35.2535ZM16.8385 31.7454C16.0904 31.7454 15.4822 31.1794 15.4822 30.4816C15.4822 29.7838 16.0904 29.2179 16.8385 29.2179C17.5871 29.2179 18.1947 29.7838 18.1947 30.4816C18.1947 31.1794 17.5871 31.7454 16.8385 31.7454ZM16.8385 27.136C16.0904 27.136 15.4822 26.57 15.4822 25.8717C15.4822 25.1745 16.0904 24.6085 16.8385 24.6085C17.5871 24.6085 18.1947 25.1745 18.1947 25.8717C18.1947 26.57 17.5871 27.136 16.8385 27.136ZM16.8385 22.5272C16.0904 22.5272 15.4822 21.9612 15.4822 21.2634C15.4822 20.5656 16.0904 19.9991 16.8385 19.9991C17.5871 19.9991 18.1947 20.5651 18.1947 21.2634C18.1947 21.9607 17.5871 22.5272 16.8385 22.5272ZM16.8385 17.9172C16.0904 17.9172 15.4822 17.3518 15.4822 16.654C15.4822 15.9557 16.0904 15.3897 16.8385 15.3897C17.5871 15.3897 18.1947 15.9557 18.1947 16.654C18.1947 17.3524 17.5871 17.9172 16.8385 17.9172ZM18.1947 12.0447C18.1947 12.7425 17.5871 13.3084 16.8385 13.3084C16.0904 13.3084 15.4822 12.7425 15.4822 12.0447C15.4822 11.3469 16.0904 10.7809 16.8385 10.7809C17.5871 10.7809 18.1947 11.3469 18.1947 12.0447ZM17.6756 7.87811L15.0133 9.92005L11.5585 4.49839L13.0321 2.14889L17.6756 7.87811Z" fill="black"/>
<path d="M34.0401 6.58658L34.0309 6.69584C32.5092 6.10384 30.2222 5.25516 29.1584 5.07594C28.1265 4.90494 27.0919 4.75056 26.055 4.61286L26.1267 4.5007L24.0299 1.15625H12.9727L15.8523 4.70767H21.1502L18.4995 7.97523L19.1303 8.45855V35.827C25.2601 35.653 29.784 34.3759 29.784 34.3759L29.6521 31.783L29.4845 31.8223C29.0046 27.7009 28.2976 20.6524 28.3872 14.7202L33.4082 14.3317L33.3967 14.4682L35.3253 14.304L35.8444 7.17338L34.0401 6.58658ZM23.9697 2.14831L25.4434 4.49839L21.9879 9.92005L19.3228 7.87753L23.9697 2.14831ZM29.1099 32.4976L29.1827 33.9342C27.9605 34.2354 24.3293 35.0402 19.7084 35.228V33.707C23.8264 33.5521 27.6102 32.8207 29.1099 32.4976ZM34.7842 13.7698L34.028 13.834L34.5564 7.36242L35.2345 7.58327L34.7842 13.7698Z" fill="black"/>
</svg>
