<svg width="30" height="30" viewBox="0 0 30 30" fill="none" xmlns="http://www.w3.org/2000/svg">
<path d="M24.9432 6.92867C22.3557 4.35669 18.87 2.89093 15.2221 2.84092C11.5742 2.79091 8.04956 4.16056 5.39259 6.66064C2.73562 9.16073 1.15425 12.5955 0.982417 16.2398C0.810587 19.884 2.06174 23.4524 4.47169 26.1914L4.48223 26.2031C4.50157 26.2236 4.51973 26.2447 4.54083 26.2646C4.58419 26.3138 4.6334 26.3695 4.69141 26.4275C4.9189 26.6693 5.19386 26.8615 5.49906 26.9922C5.80427 27.1228 6.13316 27.1891 6.46514 27.1868C6.79713 27.1844 7.12506 27.1136 7.42842 26.9788C7.73178 26.8439 8.00403 26.6478 8.22813 26.4029C9.09043 25.4657 10.1378 24.7176 11.304 24.2059C12.4702 23.6942 13.7298 23.43 15.0033 23.43C16.2768 23.43 17.5365 23.6942 18.7027 24.2059C19.8689 24.7176 20.9162 25.4657 21.7785 26.4029C22.0043 26.6491 22.2787 26.8458 22.5845 26.9804C22.8902 27.1151 23.2205 27.1848 23.5546 27.1851C23.8887 27.1854 24.2192 27.1164 24.5252 26.9824C24.8312 26.8483 25.106 26.6522 25.3322 26.4064L25.5203 26.2013L25.5309 26.1896C27.9054 23.5083 29.167 20.0217 29.0581 16.4418C28.9492 12.8618 27.4781 9.45838 24.9449 6.92633L24.9432 6.92867ZM14.0623 7.49996C14.0623 7.25132 14.1611 7.01286 14.3369 6.83705C14.5127 6.66123 14.7512 6.56246 14.9998 6.56246C15.2485 6.56246 15.4869 6.66123 15.6627 6.83705C15.8385 7.01286 15.9373 7.25132 15.9373 7.49996V9.37496C15.9373 9.6236 15.8385 9.86206 15.6627 10.0379C15.4869 10.2137 15.2485 10.3125 14.9998 10.3125C14.7512 10.3125 14.5127 10.2137 14.3369 10.0379C14.1611 9.86206 14.0623 9.6236 14.0623 9.37496V7.49996ZM7.49981 17.8125H5.62481C5.37617 17.8125 5.13771 17.7137 4.9619 17.5379C4.78608 17.3621 4.68731 17.1236 4.68731 16.875C4.68731 16.6263 4.78608 16.3879 4.9619 16.212C5.13771 16.0362 5.37617 15.9375 5.62481 15.9375H7.49981C7.74845 15.9375 7.98691 16.0362 8.16272 16.212C8.33854 16.3879 8.43731 16.6263 8.43731 16.875C8.43731 17.1236 8.33854 17.3621 8.16272 17.5379C7.98691 17.7137 7.74845 17.8125 7.49981 17.8125ZM10.3592 12.2343C10.1834 12.41 9.94503 12.5087 9.69649 12.5087C9.44796 12.5087 9.20959 12.41 9.0338 12.2343L7.70782 10.9089C7.53198 10.7331 7.4332 10.4946 7.4332 10.246C7.4332 9.99729 7.53198 9.7588 7.70782 9.58297C7.88365 9.40713 8.12214 9.30835 8.37081 9.30835C8.61948 9.30835 8.85796 9.40713 9.0338 9.58297L10.3592 10.9089C10.5349 11.0847 10.6336 11.3231 10.6336 11.5716C10.6336 11.8202 10.5349 12.0585 10.3592 12.2343ZM19.1072 13.5878L16.324 18.0117C16.2102 18.1695 16.0717 18.308 15.9139 18.4218C15.5329 18.6876 15.0625 18.7924 14.6047 18.7135C14.147 18.6346 13.7388 18.3783 13.4688 18.0003C13.1988 17.6223 13.0888 17.1531 13.1626 16.6945C13.2364 16.2359 13.4881 15.8249 13.8631 15.5507L18.2869 12.7675C18.3875 12.6974 18.5071 12.6599 18.6297 12.6599C18.7523 12.6599 18.8719 12.6974 18.9725 12.7675C19.0988 12.8587 19.1838 12.9962 19.2091 13.1499C19.2343 13.3036 19.1977 13.4611 19.1072 13.5878ZM20.9658 12.2343C20.7886 12.4027 20.5526 12.4952 20.3081 12.4921C20.0636 12.489 19.8301 12.3905 19.6572 12.2176C19.4843 12.0447 19.3858 11.8111 19.3827 11.5667C19.3796 11.3222 19.472 11.0862 19.6404 10.9089L20.9658 9.58297C21.1417 9.40713 21.3802 9.30835 21.6288 9.30835C21.8775 9.30835 22.116 9.40713 22.2918 9.58297C22.4676 9.7588 22.5664 9.99729 22.5664 10.246C22.5664 10.4946 22.4676 10.7331 22.2918 10.9089L20.9658 12.2343ZM24.3748 17.8125H22.4998C22.2512 17.8125 22.0127 17.7137 21.8369 17.5379C21.6611 17.3621 21.5623 17.1236 21.5623 16.875C21.5623 16.6263 21.6611 16.3879 21.8369 16.212C22.0127 16.0362 22.2512 15.9375 22.4998 15.9375H24.3748C24.6235 15.9375 24.8619 16.0362 25.0377 16.212C25.2135 16.3879 25.3123 16.6263 25.3123 16.875C25.3123 17.1236 25.2135 17.3621 25.0377 17.5379C24.8619 17.7137 24.6235 17.8125 24.3748 17.8125Z" fill="black"/>
</svg>
