<svg width="46" height="46" viewBox="0 0 46 46" fill="none" xmlns="http://www.w3.org/2000/svg">
<g clip-path="url(#clip0_3156_25798)">
<path d="M29.2356 42.2909C29.1114 42.0748 28.9254 41.9008 28.7015 41.7913C26.6609 39.6114 28.1112 37.0546 28.1112 37.0546C28.1112 36.348 29.3889 34.499 28.1112 34.499L26.8334 35.7768C25.5556 37.0546 25.5556 40.8879 25.5556 40.8879H23.0001C22.8323 40.8879 22.6661 40.921 22.5111 40.9852C22.356 41.0494 22.2152 41.1435 22.0965 41.2622C21.9779 41.3808 21.8838 41.5217 21.8195 41.6767C21.7553 41.8317 21.7223 41.9979 21.7223 42.1657C21.7223 42.3335 21.7553 42.4996 21.8195 42.6547C21.8838 42.8097 21.9779 42.9506 22.0965 43.0692C22.2152 43.1879 22.356 43.282 22.5111 43.3462C22.6661 43.4104 22.8323 43.4435 23.0001 43.4435H24.4146L24.1309 43.5968C23.9832 43.6767 23.8527 43.7849 23.7469 43.9152C23.641 44.0455 23.5619 44.1953 23.5139 44.3562C23.466 44.5171 23.4502 44.6859 23.4675 44.8529C23.4848 45.0199 23.5348 45.1818 23.6147 45.3295C23.6945 45.4771 23.8027 45.6076 23.933 45.7135C24.0633 45.8193 24.2132 45.8985 24.3741 45.9464C24.535 45.9944 24.7037 46.0101 24.8707 45.9929C25.0377 45.9756 25.1997 45.9256 25.3473 45.8457L28.7194 44.0223C29.0174 43.8611 29.2392 43.5882 29.336 43.2635C29.4328 42.9388 29.3967 42.589 29.2356 42.2909V42.2909ZM20.2912 42.2909C20.1675 42.0748 19.9819 41.9008 19.7583 41.7913C17.7177 39.6114 19.1667 37.0546 19.1667 37.0546C19.1667 36.348 20.4445 34.499 19.1667 34.499L17.8889 35.7768C16.6112 37.0546 16.6112 40.8879 16.6112 40.8879H14.0556C13.8878 40.8879 13.7217 40.921 13.5666 40.9852C13.4116 41.0494 13.2707 41.1435 13.1521 41.2622C13.0334 41.3808 12.9393 41.5217 12.8751 41.6767C12.8109 41.8317 12.7778 41.9979 12.7778 42.1657C12.7778 42.3335 12.8109 42.4996 12.8751 42.6547C12.9393 42.8097 13.0334 42.9506 13.1521 43.0692C13.2707 43.1879 13.4116 43.282 13.5666 43.3462C13.7217 43.4104 13.8878 43.4435 14.0556 43.4435H15.4714L15.1877 43.5968C14.8895 43.7581 14.6676 44.0313 14.5708 44.3562C14.474 44.6812 14.5102 45.0312 14.6715 45.3295C14.8328 45.6277 15.106 45.8496 15.4309 45.9464C15.7559 46.0432 16.1059 46.007 16.4042 45.8457L19.7762 44.0223C20.074 43.8609 20.2955 43.5879 20.3921 43.2632C20.4886 42.9385 20.4523 42.5888 20.2912 42.2909V42.2909Z" fill="#FFAC33"/>
<path d="M6.55999 8.944C9.11554 15.3329 2.72666 15.3329 4.00443 17.8884C5.28221 20.444 10.3933 15.3329 7.83777 8.944C5.28221 2.55511 6.55999 8.944 6.55999 8.944Z" fill="#BE1931"/>
<path d="M8.94444 7.66634C8.94444 9.07701 11.4144 10.2219 8.94444 10.2219C6.4745 10.2219 0 8.94412 0 7.66634C0 6.38856 1.36339 3.83301 3.83333 3.83301C6.30328 3.83301 8.94444 6.25567 8.94444 7.66634Z" fill="#FFAC33"/>
<path d="M7.66683 26.8333C7.66683 19.1667 11.7672 10.2222 8.94461 10.2222C3.8335 10.2222 3.8335 7.93372 3.8335 5.11111C3.8335 2.2885 6.122 0 8.94461 0C17.8891 0 16.6113 11.5 14.0557 16.6111C11.9167 20.8891 11.4721 26.8333 7.66683 26.8333Z" fill="#C1694F"/>
<path d="M45.9998 21.7223C45.9998 31.8922 39.6109 36.1612 33.2221 36.0961C30.6231 38.3909 26.9264 39.6112 22.9998 39.6112C14.532 39.6112 7.6665 33.4319 7.6665 25.8112C7.6665 18.1893 14.532 12.0112 22.9998 12.0112C26.8332 8.56122 31.9443 3.70566 35.7776 2.55566C43.4443 7.15566 45.9998 12.5223 45.9998 21.7223Z" fill="#31373D"/>
<path d="M7.66645 5.11122C8.37215 5.11122 8.94423 4.53914 8.94423 3.83344C8.94423 3.12774 8.37215 2.55566 7.66645 2.55566C6.96075 2.55566 6.38867 3.12774 6.38867 3.83344C6.38867 4.53914 6.96075 5.11122 7.66645 5.11122Z" fill="#292F33"/>
<path d="M22.9797 12.0112C20.979 12.0094 18.9944 12.3682 17.1211 13.0705C22.1223 12.7779 25.2363 13.0168 29.3903 15.0536C28.2109 13.1178 25.0561 12.0112 22.9797 12.0112ZM45.9056 18.9559C45.7957 17.3229 45.581 15.8177 45.2411 14.4262C37.255 16.0516 40.8916 18.9559 45.9056 18.9559ZM43.3692 9.72655C42.5054 8.252 41.4002 6.90905 40.0176 5.65555C30.8662 10.2223 36.1766 11.6994 43.3692 9.72655ZM44.9179 28.2198C40.5709 26.8334 39.4911 29.2689 42.0876 32.5834C38.8931 29.5883 36.9369 31.2264 37.8147 35.139C35.9376 32.3432 34.021 34.8732 33.2224 36.0961C38.0281 36.1446 42.8313 33.7398 44.9179 28.2198V28.2198ZM40.0138 5.653C38.8165 4.56689 37.4211 3.54083 35.7779 2.55566C26.8335 7.26811 33.2224 8.18555 40.0138 5.653V5.653ZM44.9179 28.2186C45.6053 26.399 46.0001 24.2434 46.0001 21.7223C46.0001 20.7576 45.9656 19.8427 45.9056 18.9585C40.015 19.4466 41.0488 22.6411 45.9133 23.2403C41.3682 23.3196 40.5709 26.1153 44.9179 28.2186ZM43.3718 9.73039C35.1595 12.7779 38.6529 15.2133 45.2399 14.4237C44.8208 12.7063 44.2074 11.1564 43.3718 9.73039Z" fill="#66757F"/>
</g>
<defs>
<clipPath id="clip0_3156_25798">
<rect width="46" height="46" fill="white"/>
</clipPath>
</defs>
</svg>
