<svg width="56" height="42" viewBox="0 0 56 42" fill="none" xmlns="http://www.w3.org/2000/svg">
<path fill-rule="evenodd" clip-rule="evenodd" d="M50.3837 3.78947C51.4236 3.78947 52.2667 4.6452 52.2667 5.70079V30.2992C52.2667 31.3548 51.4236 32.2105 50.3837 32.2105H5.61633C4.57638 32.2105 3.73333 31.3548 3.73333 30.2992V5.70079C3.73333 4.6452 4.57638 3.78947 5.61633 3.78947H50.3837ZM56 5.70079C56 2.55233 53.4855 0 50.3837 0H5.61633C2.51452 0 0 2.55233 0 5.70079V30.2992C0 33.4477 2.51452 36 5.61633 36H50.3837C53.4855 36 56 33.4477 56 30.2992V5.70079Z" fill="black"/>
<path fill-rule="evenodd" clip-rule="evenodd" d="M45 39C45 37.8954 44.1543 37 43.1111 37H12.8889C11.8457 37 11 37.8954 11 39C11 40.1046 11.8457 41 12.8889 41H43.1111C44.1543 41 45 40.1046 45 39Z" fill="black"/>
</svg>
