<svg id="Layer_1" data-name="Layer 1" xmlns="http://www.w3.org/2000/svg" viewBox="0 0 512 512"><defs><style>.cls-1{fill:#fff;}.cls-2{fill:#757575;}</style></defs><path class="cls-1" d="M403.59,56.68c-.53-.4-1.07-.79-1.61-1.18-1.6-1.17-3.23-2.32-4.86-3.46q-1.23-.855-2.46-1.68c-.83-.56-1.66-1.11-2.49-1.66-.62-.41-1.24-.82-1.87-1.22-.39-.26-.78-.51-1.18-.76-.66-.42-1.32-.83-1.98-1.25-.84-.52-1.69-1.05-2.55-1.56-.85-.52-1.7-1.04-2.56-1.54-.86-.51-1.72-1.01-2.59-1.51a.2186.2186,0,0,0-.05-.03c-.85-.49-1.7-.97-2.56-1.45-.92-.52-1.84-1.02-2.76-1.52-.83-.45-1.67-.9-2.51-1.34-.88-.47-1.77-.93-2.66-1.39q-4.005-2.055-8.1-3.96c-.91-.43-1.83-.85-2.74-1.26-.82-.37-1.65-.74-2.48-1.11q-2.91-1.275-5.88-2.49c-.76-.31-1.52-.61-2.29-.92A244.6847,244.6847,0,0,0,313.1,14.61c-.6-.15-1.21-.29-1.81-.42a.2544.2544,0,0,0-.07-.02c-1.6-.36-3.2-.71-4.8-1.04-2.25-.47-4.52-.9-6.8-1.31-1.83-.32-3.68-.63-5.52-.91-.18-.03-.36-.06-.55-.08-.96-.15-1.91-.29-2.87-.42q-1.32-.195-2.64-.36c-1.18-.15-2.36-.3-3.56-.43-.97-.11-1.94-.22-2.9-.32-.85-.08-1.7-.17-2.55-.24-.84-.08-1.67-.15-2.51-.22-.72-.06-1.45-.12-2.18-.17q-6.135-.45-12.35-.6c-.93-.02-1.86-.04-2.78-.05C258.14,8.01,257.07,8,256,8c-1.42,0-2.83.01-4.24.04-.72.01-1.44.02-2.16.04q-1.41.03-2.82.09-1.08.03-2.16.09c-.84.03-1.67.08-2.51.12-.22.01-.43.03-.65.04-.83.05-1.66.1-2.49.16-.87.05-1.75.12-2.62.19q-5.7.45-11.33,1.15c-.75.09-1.5.19-2.24.29-3.05.4-6.08.87-9.09,1.39-.8.13-1.59.27-2.39.42q-2.655.48-5.28,1.02c-1.01.21-2.01.42-3.02.64q-3.375.735-6.72,1.56c-.75.18-1.51.37-2.26.57-.86.22-1.72.45-2.57.68q-6.12,1.635-12.1,3.58c-.97.32-1.93.64-2.89.96q-5.82,1.965-11.52,4.22c-.9.36-1.79.72-2.68,1.08-.93.38-1.86.77-2.79,1.16l-2.31.99c-1.07.46-2.15.94-3.22,1.43-.91.41-1.83.83-2.74,1.26-.91.42-1.81.85-2.72,1.29q-1.35.645-2.7,1.32c-.85.42-1.71.86-2.56,1.29-.06.03-.12.06-.19.09-.87.45-1.73.9-2.59,1.36-.67.35-1.34.71-2,1.06q-4.455,2.4-8.81,4.99c-.74.44-1.49.89-2.22,1.34q-3.84,2.31-7.58,4.79c-.83.55-1.66,1.1-2.49,1.66q-.81.54-1.62,1.11c-.51.34-1.01.69-1.51,1.04q-2.115,1.47-4.19,2.99c-.97.7-1.94,1.42-2.9,2.15-.49.37-.99.74-1.48,1.12-.92.7-1.84,1.41-2.75,2.13-.62.49-1.24.98-1.86,1.48q-2.61,2.085-5.16,4.24A247.4482,247.4482,0,0,0,8,256C8,392.97,119.03,504,256,504S504,392.97,504,256A247.6246,247.6246,0,0,0,403.59,56.68ZM256,440A184.01,184.01,0,1,1,440,256,184.0005,184.0005,0,0,1,256,440Z"/><path class="cls-2" d="M405,56.5494l-44.5748,48.5147a182.7756,182.7756,0,0,0-218.4235,7.1969L94.46,66.7836q2.5734-2.2239,5.2073-4.3655c.6257-.5148,1.2514-1.0193,1.8771-1.5238.9183-.7413,1.8467-1.4723,2.7752-2.193.4945-.3913.999-.7722,1.4935-1.1531.9688-.7517,1.9477-1.493,2.9266-2.2137q2.0891-1.56,4.2284-3.0785c.5046-.36,1.0092-.7207,1.5238-1.0708q.8175-.5868,1.6349-1.1429c.8376-.5765,1.6752-1.1428,2.5128-1.7091q3.7692-2.5482,7.6494-4.9318c.7368-.4632,1.4936-.9266,2.24-1.38q4.39-2.6563,8.8907-5.1377c.6661-.36,1.3422-.731,2.0184-1.0914.8678-.4736,1.7357-.9369,2.6137-1.4.0706-.0308.1312-.0617.1917-.0926.8578-.4427,1.7257-.8957,2.5835-1.3282q1.3623-.695,2.7247-1.359c.9184-.4531,1.8266-.8958,2.745-1.3283.9183-.4427,1.8468-.8751,2.7651-1.2973,1.08-.5044,2.17-.9986,3.25-1.4723l2.3311-1.0193c.9386-.4015,1.8771-.803,2.8156-1.1943.8982-.3707,1.7963-.7413,2.7046-1.112q5.7522-2.3166,11.6256-4.3448c.9687-.3295,1.9376-.659,2.9164-.9885q6.04-1.9921,12.2109-3.6859c.8578-.2368,1.7257-.4736,2.5936-.7.7569-.2059,1.5238-.4015,2.2807-.5868q3.3756-.8495,6.7816-1.6062c1.0192-.2265,2.0284-.4427,3.0477-.659q2.649-.5559,5.3283-1.05c.8073-.1545,1.6046-.2986,2.4119-.4325,3.0376-.5353,6.0954-1.0193,9.1734-1.4311.7467-.103,1.5036-.2059,2.2605-.2986q5.6765-.7259,11.4338-1.184c.8779-.0721,1.766-.1442,2.644-.1956.8376-.0618,1.6752-.1133,2.5128-.1648.222-.01.434-.0309.656-.0412.8477-.0411,1.6853-.0927,2.533-.1235q1.09-.0618,2.18-.0927,1.4229-.0618,2.8458-.0926c.7266-.0207,1.4532-.031,2.18-.0413,1.4229-.0308,2.8459-.0411,4.2789-.0411,1.08,0,2.16.01,3.2394.0206.9284.01,1.8669.0308,2.8054.0515q6.267.1543,12.4633.6177c.7366.0515,1.4733.1133,2.2.1751.8477.072,1.6853.1441,2.533.2264.8578.0721,1.7156.1648,2.5734.2471.9687.103,1.9477.2163,2.9265.33,1.211.1339,2.4018.2883,3.5927.4427q1.332.17,2.6642.3707c.9688.1338,1.9275.278,2.8963.4325.1917.0205.3733.0514.555.0823,1.8569.2883,3.7238.6075,5.5706.9369,2.3009.4222,4.5917.8649,6.8623,1.3488,1.6147.34,3.2293.7,4.844,1.0708a.2517.2517,0,0,1,.0706.0206c.6055.1338,1.2211.278,1.8266.4324a243.3626,243.3626,0,0,1,34.6244,11.0991c.7771.3192,1.5441.628,2.311.9472q2.9973,1.251,5.9339,2.5637c.8376.381,1.6752.7619,2.5027,1.1428.9183.4222,1.8468.8546,2.7651,1.2973q4.1327,1.9615,8.1743,4.0773c.8981.4736,1.7963.9472,2.6843,1.4311.8478.4531,1.6954.9163,2.5331,1.38.9284.5148,1.8568,1.03,2.7853,1.565.8678.4942,1.7256.9884,2.5834,1.4929a.22.22,0,0,1,.05.0309c.8779.5148,1.7458,1.03,2.6137,1.5547.8679.5148,1.7257,1.05,2.5835,1.5855.8679.5251,1.7256,1.0708,2.5733,1.6062.6661.4325,1.3321.8546,1.9982,1.287.4037.2574.7972.5148,1.1908.7825.6357.4119,1.2614.834,1.8871,1.2561.8376.5663,1.6752,1.1326,2.5128,1.7091q1.2413.8495,2.4826,1.73c1.6449,1.1737,3.29,2.3578,4.9045,3.5624C403.92,55.7361,404.4651,56.1376,405,56.5494Z"/></svg>