<svg width="158" height="158" viewBox="0 0 158 158" fill="none" xmlns="http://www.w3.org/2000/svg">
<g clip-path="url(#clip0_1835_15948)">
<path d="M149.705 107.484L132.501 78.4294L149.529 50.56C149.934 49.8959 150.154 49.1363 150.169 48.3589C150.183 47.5815 149.991 46.8142 149.611 46.1356C149.232 45.457 148.679 44.8914 148.009 44.4966C147.339 44.1018 146.576 43.8921 145.799 43.8889H8.77778C6.44977 43.8889 4.2171 44.8137 2.57095 46.4598C0.924799 48.106 0 50.3387 0 52.6667L0 105.333C0 107.661 0.924799 109.894 2.57095 111.54C4.2171 113.186 6.44977 114.111 8.77778 114.111H145.931C146.705 114.111 147.466 113.906 148.136 113.516C148.805 113.127 149.36 112.567 149.744 111.894C150.127 111.221 150.325 110.459 150.319 109.684C150.312 108.909 150.1 108.15 149.705 107.484V107.484ZM46.1272 92.9567H41.2117L26.9039 73.9089V93.0006H21.9444V65.8333H26.9039L41.2556 84.925V65.8333H46.1711L46.1272 92.9567ZM73.9089 70.2222H58.4161V76.7617H72.4606V81.1506H58.4161V88.2167H73.9089V92.6056H53.4567V65.8333H73.865L73.9089 70.2222ZM110.293 92.8689H105.333L98.5306 72.7239L91.7278 92.9567H86.8122L78.0344 65.8333H83.3889L89.1822 85.2761L95.8533 65.8333H101.208L107.616 85.2761L113.453 65.8333H118.851L110.293 92.8689Z" fill="#FF0000"/>
</g>
<defs>
<clipPath id="clip0_1835_15948">
<rect width="158" height="158" fill="white"/>
</clipPath>
</defs>
</svg>
