<?xml version="1.0" encoding="UTF-8"?>
<svg data-name="Layer 1" version="1.1" viewBox="0 0 640.04 734.98" xmlns="http://www.w3.org/2000/svg">
 <defs>
  <style>.cls-1{fill:#fff;}</style>
 </defs>
 <g fill="#fff">
  <path d="m320.06 269.51a133.9 133.9 0 0 1-29.156-3.2056 10.731 10.731 0 0 1-8.37-10.43v-22.254a101.41 101.41 0 0 1-27.35-15.79l-19.269 11.126a10.533 10.533 0 0 1-5.2954 1.4209 10.795 10.795 0 0 1-7.8941-3.4458 133.89 133.89 0 0 1-29.228-50.546 10.73 10.73 0 0 1 4.9024-12.473l19.26-11.122a103.42 103.42 0 0 1 0-31.568l-19.278-11.133a10.608 10.608 0 0 1-4.8807-12.473 133.08 133.08 0 0 1 29.222-50.532 10.609 10.609 0 0 1 7.8369-3.4634 10.778 10.778 0 0 1 5.3379 1.4253l19.252 11.144a104.49 104.49 0 0 1 27.332-15.78v-22.27a10.738 10.738 0 0 1 8.3921-10.436 134.26 134.26 0 0 1 58.304 0.0049 10.732 10.732 0 0 1 8.37 10.431v22.201a101.43 101.43 0 0 1 27.351 15.79l19.268-11.127a10.536 10.536 0 0 1 5.295-1.42 10.796 10.796 0 0 1 7.8945 3.4463 133.88 133.88 0 0 1 29.228 50.546 10.731 10.731 0 0 1-4.9013 12.472l-19.262 11.122a103.43 103.43 0 0 1 0 31.568l19.279 11.132a10.891 10.891 0 0 1 4.9814 12.359l-0.0449 0.1519a133.09 133.09 0 0 1-29.226 50.547 10.609 10.609 0 0 1-7.8369 3.4629 10.781 10.781 0 0 1-5.3389-1.4253l-19.302-11.146a104.47 104.47 0 0 1-27.334 15.782v22.27a10.736 10.736 0 0 1-8.3926 10.435 133.9 133.9 0 0 1-29.148 3.2009z"/>
  <path class="cls-1" d="m320.02 9a129.31 129.31 0 0 1 28.175 3.0974 6.1837 6.1837 0 0 1 4.8517 6.0388v25.342a97.41 97.41 0 0 1 31.381 18.116l21.988-12.697a6.0286 6.0286 0 0 1 3.0449-0.8177 6.2761 6.2761 0 0 1 4.594 2.0049 128.55 128.55 0 0 1 28.233 48.827 6.2378 6.2378 0 0 1-2.8388 7.2259l-21.988 12.697a99.42 99.42 0 0 1 0 36.233l21.988 12.697a6.374 6.374 0 0 1 2.89 7.2775 127.78 127.78 0 0 1-28.233 48.827 6.09 6.09 0 0 1-4.5336 2.0189 6.2513 6.2513 0 0 1-3.1053-0.8318l-21.987-12.697a100.48 100.48 0 0 1-31.381 18.117v25.394a6.1839 6.1839 0 0 1-4.8517 6.0389 129.75 129.75 0 0 1-56.362 0 6.1838 6.1838 0 0 1-4.8517-6.0389v-25.394a97.409 97.409 0 0 1-31.381-18.116l-21.988 12.697a6.028 6.028 0 0 1-3.045 0.8177 6.2758 6.2758 0 0 1-4.5939-2.0048 128.55 128.55 0 0 1-28.233-48.827 6.2377 6.2377 0 0 1 2.8388-7.2259l21.988-12.697a99.42 99.42 0 0 1 0-36.233l-21.988-12.697a6.174 6.174 0 0 1-2.8388-7.226 127.78 127.78 0 0 1 28.233-48.827 6.09 6.09 0 0 1 4.5336-2.0189 6.2513 6.2513 0 0 1 3.1053 0.8318l21.936 12.697a100.48 100.48 0 0 1 31.381-18.117v-25.394a6.1836 6.1836 0 0 1 4.8517-6.0388 129.39 129.39 0 0 1 28.188-3.0974m0-9a138.45 138.45 0 0 0-30.151 3.3141 15.251 15.251 0 0 0-11.889 14.822v19.243a108.88 108.88 0 0 0-23.2 13.395l-16.609-9.6136-0.0216-0.0126-0.0217-0.0123a15.142 15.142 0 0 0-18.732 2.9121 137.62 137.62 0 0 0-30.2 52.244 15.075 15.075 0 0 0 6.9677 17.712l16.618 9.596a107.8 107.8 0 0 0 0 26.806l-16.654 9.6169a15.182 15.182 0 0 0-6.9669 17.577l0.0181 0.0612 0.019 0.061a138.41 138.41 0 0 0 30.207 52.247 15.323 15.323 0 0 0 11.212 4.9054 15.056 15.056 0 0 0 7.58-2.0439l16.601-9.5865a105.77 105.77 0 0 0 23.233 13.413v19.213a15.264 15.264 0 0 0 11.933 14.832 138.75 138.75 0 0 0 60.244-0.01 15.251 15.251 0 0 0 11.889-14.822v-19.243a108.87 108.87 0 0 0 23.205-13.399l16.663 9.6223a15.325 15.325 0 0 0 7.6059 2.0379 15.143 15.143 0 0 0 11.17-4.94 137.62 137.62 0 0 0 30.19-52.234l0.047-0.1513 0.0418-0.1528a15.394 15.394 0 0 0-7.108-17.46l-16.618-9.5962a107.78 107.78 0 0 0 0-26.806l16.653-9.6167a15.182 15.182 0 0 0 6.9673-17.577l-0.0181-0.0612-0.019-0.0609a138.41 138.41 0 0 0-30.207-52.247 15.324 15.324 0 0 0-11.212-4.9054 15.056 15.056 0 0 0-7.5795 2.0436l-16.601 9.5871a105.77 105.77 0 0 0-23.233-13.413v-19.161a15.264 15.264 0 0 0-11.933-14.832 138.33 138.33 0 0 0-30.093-3.3042z"/>
  <path d="m439.04 510.18a45.99 45.99 0 0 1-13.3 1.9 48.473 48.473 0 0 1-41.4-23.4l-52.44-86.94v333.21c1.19-0.22 2.37-0.48 3.54-0.77l216.4-54.1a32.07 32.07 0 0 0 24.2-31v-178zm-183.2-21.5a48.637 48.637 0 0 1-41.5 23.5 45.996 45.996 0 0 1-13.3-1.9l-137-39.2v178a31.898 31.898 0 0 0 24.2 31l216.2 54.1c1.24 0.3 2.48 0.57 3.74 0.8v-333.21z"/>
  <path d="m638.34 402.46-51.5-99.492a16.466 16.466 0 0 0-16.7-8.6136l-250.1 46.153 91.7 131.93a16.684 16.684 0 0 0 18.5 7.0651l197.9-54.682c9.9-2.8067 14.7-13.453 10.2-22.357z"/>
  <path d="m53.242 302.96-51.5 99.492c-4.6 8.9039 0.3 19.55 10.1 22.26l197.9 54.682a16.684 16.684 0 0 0 18.5-7.0651l91.8-131.83-250.2-46.153a16.471 16.471 0 0 0-16.6 8.6135z"/>
  <path d="m452.97 247.38 125.22 47.838c6.3657 2.6973 12.483 15.208 5.7147 16.616l-49.661 10.328a7.0536 7.0536 0 0 1-4.1879-0.4112l-140.39-54.502a3.602 3.602 0 0 1 0.6719-6.8431l62.63-13.025"/>
  <path d="m186.98 247.38-123.39 47.632c-6.3657 2.6973-14.316 15.413-7.5471 16.821l49.661 10.328a7.0534 7.0534 0 0 0 4.1878-0.4112l140.39-54.502a3.602 3.602 0 0 0-0.6719-6.8431l-62.63-13.025z"/>
 </g>
 <path d="m320.02 198.77a61.974 61.974 0 0 1-45.607-20.132 61.83 61.83 0 0 1 39.972-103.24c1.8726-0.1675 3.7676-0.252 5.6338-0.252a61.973 61.973 0 0 1 45.607 20.132 61.83 61.83 0 0 1-39.972 103.24c-1.8721 0.1676-3.7676 0.2521-5.6338 0.2521z" fill="#d1d5db"/>
 <path class="cls-1" d="m320.01 79.638a57.316 57.316 0 0 1 5.2337 114.39c-1.7583 0.157-3.5071 0.2341-5.2336 0.2341a57.316 57.316 0 0 1-5.2338-114.39c1.7583-0.157 3.5072-0.234 5.2337-0.2341m0.0049-9v9l-6e-4 -9h-0.0051c-2.0009 0-4.0308 0.0909-6.0333 0.27a66.318 66.318 0 0 0 6.0342 132.36c1.9988 0 4.0289-0.0907 6.0338-0.27a66.318 66.318 0 0 0-6.029-132.36z"/>
 <ellipse class="cls-1" transform="translate(-3.1095 266.4) rotate(-45)" cx="320.01" cy="136.95" rx="24.377" ry="24.436"/>
</svg>
