<svg width="130" height="71" viewBox="0 0 130 71" fill="none" xmlns="http://www.w3.org/2000/svg">
<g clip-path="url(#clip0_1812_8237)">
<path d="M33.2886 31.3101C33.4229 31.3772 33.4229 31.4442 33.3558 31.5113C32.8188 31.9806 32.886 32.7181 32.6846 33.3215C32.2819 34.3942 33.1544 35.4669 32.5504 36.5396C32.4162 36.2044 32.349 35.8021 32.2148 35.4669C31.0739 32.9862 28.2551 31.8465 25.7047 32.7851C23.6242 33.5226 21.6779 35.8691 22.4833 38.9532C23.2215 41.769 25.6376 43.3111 28.7249 42.7077C30.6712 42.3054 33.0202 40.4952 32.6175 37.143C33.1544 37.6123 32.886 38.2157 32.9531 38.752C33.0202 39.4225 33.3558 39.4225 33.8256 39.1543C34.9665 38.9532 35.3692 38.0146 35.6376 37.21C35.9061 36.4055 36.3759 36.2044 37.1141 35.8691C38.3222 35.3998 39.5974 35.1316 40.6041 34.2601C41.2081 33.7237 41.745 34.6623 42.4833 34.3271C43.6242 33.8578 43.2886 35.0646 43.4229 35.5339C43.8256 36.9418 44.3625 38.2827 45.1007 39.5566C44.4296 40.16 44.8994 40.9645 44.7651 41.635C44.5638 41.769 44.4967 41.9702 44.4967 42.2384C44.094 42.5065 43.49 42.8418 43.8256 43.3111C44.5638 44.652 43.8256 46.1269 44.3625 47.4678C43.6242 46.6633 43.2886 45.5906 42.6846 44.652C42.4833 44.3838 42.2148 43.9815 41.8792 44.1826C41.4766 44.3838 41.745 44.786 41.8792 45.0542C42.2148 45.7247 42.4833 46.4622 42.6175 47.1996C42.6846 47.736 42.2819 48.4735 43.0873 48.8087L42.886 48.9428C42.8188 49.278 42.7517 49.6803 43.1544 49.8814C43.49 50.1496 43.2215 50.82 43.8927 50.82C44.3625 50.82 44.3625 50.4848 44.4296 50.0825C44.8994 49.8814 45.3692 49.6803 44.7651 49.1439C44.2953 48.6746 44.2282 48.0712 44.2282 47.4678C45.1007 47.1326 45.6376 45.7917 45.0336 44.9872C44.4296 44.1156 44.3625 43.244 44.3625 42.2384C44.5638 42.1043 44.6309 41.9031 44.6309 41.635C45.2349 41.5679 45.1678 41.0316 45.235 40.6293C45.9061 40.9645 46.2417 41.635 46.5101 42.2384C46.8457 42.9758 47.047 43.9145 48.2551 43.5122C48.5907 43.3781 48.7249 43.7804 48.9262 43.9815C49.6645 45.0542 50.4027 46.1269 51.0739 47.1996C49.8658 47.2667 48.9933 48.1383 47.9195 48.3394C47.3826 48.4064 46.9128 48.2723 46.9128 48.9428C46.9128 49.4791 46.6443 50.2166 47.3155 50.4848C47.8524 50.753 48.3893 51.5575 48.9262 51.1553C50 50.3507 51.4094 49.7473 51.2752 48.0042C54.0269 50.5519 55.839 53.837 58.1209 56.787C58.3893 57.1222 58.792 57.4574 58.8591 57.9938C57.3826 58.7313 56.443 60.2062 54.8323 60.7426C54.8994 59.3347 55.9732 58.1949 56.1074 56.7199C55.3692 56.7199 55.3021 57.2563 55.0336 57.5915C54.7652 57.9267 54.4296 58.262 53.9598 57.9938C53.49 57.7256 53.49 57.3233 53.7584 56.854C54.2954 55.8484 53.4229 55.9825 53.0873 56.1165C51.5437 56.5858 49.7987 56.3177 48.4564 57.2563C47.3155 58.0608 46.1745 58.0608 44.8994 58.1279C43.5571 58.1279 42.5504 58.6642 41.8121 59.9381C41.2752 60.8097 41.0739 61.9494 40.0672 62.5528C39.5974 62.821 40.1343 63.2232 40.4027 63.1562C41.4094 62.7539 42.4833 63.2903 43.49 62.821C44.0269 62.821 44.5638 62.821 45.1007 62.7539C46.5772 62.4187 47.4497 63.1562 47.9195 64.43C47.3826 64.9664 46.6443 64.9664 45.9732 65.2346C40.2685 67.38 34.4296 67.7152 28.5235 66.7766C18.8591 65.1675 11.0739 60.4074 5.5034 52.295C4.16112 50.3507 3.35575 48.1383 2.08058 46.1269V46.194C2.08058 45.8588 2.1477 45.5235 1.81213 45.3224C-0.402639 38.3498 -0.805324 31.3772 1.6779 24.3375C1.6779 24.8068 1.81213 25.3432 1.6779 25.7454C1.27521 27.0863 1.94635 27.4886 3.08729 27.5556C4.02689 28.092 4.16112 29.0306 4.49669 29.9022C4.09401 30.1704 3.95978 30.8408 3.22152 30.1033C2.75172 29.634 1.87924 29.9022 1.54367 30.6397C1.2081 31.3772 1.74501 31.9806 2.28192 31.9135C4.09401 31.7124 3.75844 32.9862 3.82555 33.9919C3.82555 35.0646 4.02689 36.2044 3.15441 37.143C2.81884 37.4782 2.68461 38.2157 2.81884 38.618C3.22152 40.2941 2.95307 41.9702 3.42286 43.5792C3.62421 44.3167 3.15441 45.2554 3.95978 45.8588C5.5034 47.4678 6.04031 47.3337 7.65105 45.7917C8.32219 45.1883 8.85911 44.719 8.92622 43.7804C8.92622 43.4452 9.46313 43.4452 9.7987 43.3781C11.9464 42.9088 12.0806 42.7077 12.0806 40.3611C12.0806 38.8861 12.6175 37.8134 14.094 37.0759C15.4363 36.4055 17.047 36.4055 18.1209 35.2657C18.9262 35.0646 19.2618 34.2601 19.9329 33.8578C20.2685 33.6567 20.537 33.1874 20.4027 32.7181C20.2685 32.3158 19.7987 32.3828 19.396 32.2487C18.6578 32.0476 17.9195 31.9135 17.1813 32.2487V32.1147C17.1813 31.5783 17.2484 31.109 17.2484 30.5726C17.3155 30.5726 17.4497 30.5726 17.5168 30.5726C17.9195 30.7738 18.3222 30.9079 18.7249 30.7738C20.6712 30.7067 22.6175 30.7067 24.4296 29.8351C25.3692 29.7681 26.0403 29.2317 26.5772 28.5613C27.1813 27.8238 26.1074 27.5556 25.9061 27.0863C25.839 26.9522 25.839 26.8181 25.839 26.6841C25.839 26.1477 25.5034 25.9466 25.1007 26.2818C24.4296 26.8181 23.8256 26.4159 23.2215 26.0807C22.9531 24.8739 22.6175 23.6 22.349 22.3262C23.2886 22.3262 23.6913 22.7284 23.9598 23.533C24.2282 24.4716 24.6309 25.3432 25.839 25.3432C25.9732 25.3432 26.3088 25.4773 26.3088 25.6113C26.5101 26.8181 27.6511 27.1534 28.4564 27.2875C30.3356 27.6227 31.2081 28.7624 31.8121 30.3715C32.0135 30.9079 32.2819 31.3101 32.9531 31.3101C33.0873 31.3101 33.2215 31.3101 33.2886 31.3101ZM46.7115 52.8984C46.8457 53.0325 46.9128 53.3007 47.1141 52.9655C46.9128 52.9655 46.8457 52.9655 46.7115 52.8984C46.3088 51.5575 44.9665 51.6916 44.0269 51.2893C44.698 52.1609 45.5705 52.8314 46.7115 52.8984ZM31.0068 56.5859C32.349 56.5188 33.3558 55.5131 33.3558 54.3063C33.3558 53.0995 32.0135 51.8927 30.8054 51.9598C29.5974 52.0268 28.3893 53.3007 28.4564 54.5075C28.5907 55.7813 29.5974 56.6529 31.0068 56.5859ZM8.85911 46.5292C7.91951 46.6633 7.24837 47.1996 7.18125 48.3394C7.11414 49.4121 7.98662 50.2837 9.06045 50.2837C10.2014 50.2166 10.8054 49.6132 10.8725 48.4735C10.9396 47.3337 10.0672 46.4622 8.85911 46.5292ZM15.7719 43.6463C13.9598 43.8474 12.5504 44.1826 11.8792 45.9258C11.6108 46.5962 11.5437 47.1326 11.8792 47.6689C12.0135 48.0042 12.4833 48.2723 12.886 47.9371C14.1611 46.7974 15.2349 45.4565 15.7719 43.6463ZM22.0806 53.7029C22.0135 52.4961 21.6108 51.8927 20.6712 51.9598C19.7316 52.0268 19.1947 52.6302 19.1947 53.5689C19.1947 54.5075 19.8658 55.0438 20.6712 54.9768C21.4766 54.9768 22.1477 54.3734 22.0806 53.7029ZM51.2081 52.4291C51.8121 52.228 51.6779 51.5575 51.9464 51.1553C52.2819 50.753 51.6108 50.6859 51.3423 50.6859C50.6041 50.6859 50.2685 51.2223 50.2014 51.8257C50.0001 52.9655 51.2752 51.2893 51.2081 52.4291ZM35.235 40.2941C35.1007 40.0929 35.1007 39.6236 34.7652 39.6236C34.2954 39.6236 34.094 39.9588 34.1611 40.4282C34.1611 40.7634 34.1611 41.1656 34.698 41.0986C35.0336 41.0316 35.235 40.7634 35.235 40.2941Z" fill="#019540"/>
<path d="M54.7651 60.8097C56.3759 60.2733 57.3155 58.7313 58.792 58.0608C60 62.4187 60.5369 61.1449 57.047 63.7596C42.6175 74.4867 22.4832 73.2799 10.1343 60.6085C6.17453 56.5188 3.35573 51.7587 2.08057 46.127C3.35573 48.0712 4.09399 50.3507 5.50338 52.295C11.141 60.4074 18.8591 65.1675 28.5235 66.7766C34.4296 67.7823 40.2685 67.38 45.9732 65.2346C46.6443 64.9664 47.3826 65.0335 47.9195 64.4301C50.0671 63.6926 51.8792 62.4858 53.8255 61.346C53.9598 61.2119 54.094 61.1449 54.2282 61.0108C54.4296 61.0778 54.6309 61.0778 54.7651 60.8097Z" fill="#0A6836"/>
<path d="M22.6173 2.54746H22.6844C23.2213 2.68155 23.6911 2.41337 24.228 2.27928C25.3019 1.94406 26.5099 1.94406 27.2482 2.6145C28.3891 3.48608 29.4629 3.15086 30.5368 3.01677C32.6844 2.68155 34.765 2.68155 36.9126 2.81563C36.6442 2.07815 37.114 1.74292 37.7851 1.60884C38.6576 1.47475 38.4562 2.14519 38.5905 2.68155C38.7247 3.28495 38.926 3.8213 38.3891 4.55879C40.3354 4.02243 39.2616 3.08381 38.9932 2.27928C41.3421 2.07815 43.4898 1.00544 45.8388 1.60884C46.2415 1.54179 46.6442 1.60884 46.9797 1.87701C47.1811 2.14519 47.3824 2.14519 47.718 2.14519C47.7851 2.07815 47.8522 2.14519 47.9193 2.21224C48.0536 2.48041 48.322 2.48041 48.5905 2.41337C48.6576 2.41337 48.7918 2.41337 48.8589 2.48041C48.9932 2.54746 49.1274 2.6145 49.2616 2.68155C49.3287 2.6145 49.3958 2.68155 49.463 2.74859C49.2616 3.28495 48.6576 3.95539 49.9999 3.88835C50.4697 3.88835 51.0066 4.15652 51.4764 4.35766C52.3489 4.69288 53.1542 5.36332 54.1609 5.16219C54.1609 5.76559 54.6307 5.76559 55.0334 5.69854C55.4361 6.8383 56.1072 7.50874 57.3824 7.37465C57.3824 7.84396 57.718 7.97805 58.1207 7.91101C58.1878 7.91101 58.2549 7.91101 58.2549 8.0451C58.322 8.11214 58.3891 8.17919 58.5233 8.24623C59.5301 9.2519 59.4629 10.5928 59.5301 11.9337C58.1878 11.2632 56.9797 10.7269 55.9059 9.8553C54.3623 8.58145 52.4831 7.84396 50.4697 7.37465C50.1341 7.30761 49.8656 7.37465 49.5972 7.03943C48.7918 5.76559 45.3019 4.75992 43.8925 5.29628C42.9529 5.6315 43.4227 6.36899 43.3556 7.03943C42.7515 6.70421 42.4831 5.89968 41.7448 5.96672C41.4093 6.70421 42.0133 7.30761 41.8791 8.24623C41.2079 7.4417 40.7381 7.03943 40.067 8.11214C39.7314 8.6485 38.8589 8.51441 38.3891 7.70988C37.718 6.57012 36.9126 6.03377 35.5032 6.57012C34.9663 6.77125 34.2952 6.63717 33.624 6.57012C31.6777 6.43603 29.9327 6.8383 28.1207 7.57579C27.3824 7.84396 26.4428 8.44736 26.2415 6.90534C26.1744 6.50308 26.1744 5.89968 25.6374 5.89968C24.9663 5.96672 24.3623 6.30194 23.7583 6.50308C24.228 7.50874 22.5502 7.97805 23.1542 9.05076C23.2885 9.31894 23.1542 9.78825 22.8858 9.78825C20.8723 9.78825 19.7314 12.0678 17.718 12.0007C16.577 11.9337 15.5032 12.2689 14.4965 12.8052C13.8925 12.8723 14.0267 11.7996 13.4227 12.0678C12.4831 12.5371 13.6911 13.4757 13.0871 14.0791C12.6844 14.0791 12.5502 13.6768 12.5502 13.4757C12.5502 12.1348 11.8119 12.403 10.9395 12.6041C10.5368 12.7382 10.3354 13.0734 9.99986 13.2075C9.12738 13.6098 8.99315 14.6154 8.18778 15.0177C7.91932 15.1518 7.65087 15.42 7.44952 15.0848C7.31529 14.8836 7.44952 14.6154 7.51664 14.4143C7.71798 14.0791 8.45623 13.8109 7.85221 13.2746C8.05355 13.0734 8.18778 12.8723 8.38912 12.6712C9.59717 12.8052 10.4697 12.403 10.8052 11.1291C10.8723 10.928 11.0737 10.7269 11.275 10.5928C13.1542 9.78825 14.6307 8.0451 17.0468 8.17919C19.0603 8.24623 20.2012 6.2349 22.0804 5.96672C21.9462 5.29628 20.067 6.30194 21.0066 4.75992C21.0737 4.69288 21.4093 4.89401 21.275 4.55879C21.2079 4.62583 21.0737 4.69288 21.0066 4.75992C20.4697 4.75992 19.7985 4.89401 19.5972 5.29628C19.2616 6.16785 18.5234 6.43603 17.9193 6.97239C17.718 7.17352 17.3824 7.64283 17.114 7.24056C16.9797 6.90534 16.2415 6.63717 16.7784 6.03377C16.9797 5.83263 17.1811 5.6315 17.0468 5.29628H17.114C18.9931 5.22923 20.4025 4.08948 21.8119 3.01677L21.8791 2.94972C22.1475 2.88268 22.416 2.88268 22.6173 2.54746ZM27.3153 3.55312C26.7113 3.62017 26.1744 2.94972 25.6374 3.41903C25.5703 3.48608 25.5703 3.88835 25.6374 3.95539C26.2415 4.29061 26.7784 3.88835 27.3153 3.55312Z" fill="#0A6836"/>
<path d="M61.2079 32.6505C61.1408 32.2482 61.1408 31.7789 61.0737 31.3767C60.671 29.4994 61.0737 28.829 62.9529 28.2256C63.624 28.0244 63.8925 27.2869 64.161 26.6835C64.4294 26.1472 64.4965 25.4767 64.6979 24.8733C64.765 24.4711 64.5636 24.0018 64.8992 23.5325C64.9663 24.404 65.0334 25.1415 65.1006 26.1472C65.5704 25.3427 65.5032 24.6722 65.4361 23.9347C65.3019 22.1245 63.8925 21.32 62.8187 20.2473C62.4831 19.7109 63.0871 19.3757 63.2214 18.9734C63.3556 18.5041 63.5569 18.1019 63.7583 17.6996C64.5636 17.6326 65.0334 19.0405 65.973 18.0348C66.1073 17.9007 66.4428 18.37 66.5771 18.7053C68.2549 21.8564 69.1945 25.2756 69.9328 28.7619C69.6643 29.2312 69.7985 29.8346 69.7985 30.3039C69.9328 31.3767 69.7985 32.0471 68.4563 31.9801C67.6509 31.913 67.3153 32.5164 67.3153 33.3209C67.3153 34.5277 67.9865 34.93 69.0603 34.863C69.5301 34.7959 69.9328 34.863 69.9328 35.4664C69.9328 35.9357 69.8657 36.3379 69.3959 36.472C69.0603 36.5391 68.6576 36.5391 68.2549 36.5391C64.4965 36.472 60.8053 36.405 57.0469 36.2709C57.3824 34.997 58.0536 33.7902 57.4496 32.3823C57.0469 31.3767 57.4496 30.3039 57.0469 29.2312C56.6442 28.2926 57.8522 28.4267 58.2549 28.0244C58.8589 27.4881 58.7918 28.3597 59.0603 28.5608C59.9328 29.2312 60.3355 30.1028 60.4697 31.1755C59.8657 31.6448 59.8657 32.2482 60.2012 32.7846C60.4697 33.2539 60.9395 33.1198 61.2079 32.6505ZM64.9663 30.5721C64.2952 32.5835 64.2952 32.5835 62.1475 33.455C61.9462 33.5221 61.7448 33.6562 61.5435 33.8573C61.0737 34.1925 60.7381 34.5948 61.0737 35.0641C61.4093 35.6004 61.6777 34.93 62.0133 34.863C62.2818 34.7959 62.4831 34.7959 62.7516 34.7289C64.765 34.3266 65.5032 33.1198 64.9663 30.5721ZM65.3019 28.2256C65.4361 28.7619 64.4965 29.2983 65.3019 29.7676C65.5032 29.9017 65.7046 29.9017 65.8388 29.7676C66.1073 29.1642 65.6375 28.7619 65.3019 28.2256Z" fill="#059542"/>
<path d="M3.08704 27.4885C1.9461 27.4215 1.27496 27.0192 1.67765 25.6783C1.81188 25.276 1.67765 24.7397 1.67765 24.2704C2.21456 22.192 3.01993 20.2477 4.22798 18.5045C4.96624 18.3705 5.30181 17.7671 5.63738 17.1637C6.57698 15.6887 8.05349 15.3535 9.59711 15.1523C10.134 15.0853 10.738 15.2194 10.3354 15.8898C9.46288 17.3648 11.1407 17.633 11.4092 18.5716C11.4763 18.9068 11.879 18.6386 12.0803 18.3705C12.5501 17.7 13.0199 17.9011 13.4897 18.3705C14.3622 19.1079 15.3018 19.5773 16.4427 19.7784C17.6508 19.9795 18.1877 19.175 18.5233 18.4375C18.9931 17.4318 17.8521 17.3648 17.3823 17.1637C15.5703 16.2921 15.5703 16.3591 16.2414 14.5489C16.4427 14.616 16.577 14.616 16.7783 14.683C18.1877 14.7501 19.7313 14.2808 21.0065 15.4205C21.275 15.6216 21.8119 15.8898 22.1474 15.4205C22.483 14.9512 22.2146 14.5489 21.9461 14.2808C21.2078 13.4092 21.4092 12.8728 22.483 12.5376C22.8186 13.8785 23.8253 15.1523 22.9528 16.6273C22.8186 16.8955 23.1542 17.4318 23.2213 17.9012C23.2884 18.3705 23.5568 18.9068 23.087 19.242C22.6172 19.5773 22.0803 19.3091 21.6105 19.1079C21.3421 18.9739 21.2078 18.7057 20.9394 18.5716C20.4025 18.1693 19.8656 18.1693 19.3287 18.4375C18.6575 18.7727 19.1944 19.3091 19.3287 19.7113C19.8656 22.3261 19.7313 22.7283 17.4495 24.0692C16.9797 23.8011 17.181 23.3317 17.1139 22.8624C17.0468 22.4602 17.2481 21.8568 16.6441 21.8568C16.0401 21.8568 16.3085 22.5272 16.2414 22.8624C16.2414 22.9965 16.2414 23.1306 16.2414 23.2647C15.8387 22.9965 15.3689 22.8624 15.0334 22.5272C14.1609 21.5886 13.4226 21.3875 12.6844 22.8624C11.9461 21.6556 10.8723 20.9181 10.6709 19.6443C10.6038 19.175 10.2683 18.9068 9.86557 19.1079C8.99308 19.4432 7.98637 19.3761 7.31523 20.2477C6.7112 20.8511 6.04006 21.5215 5.43604 22.3261C4.2951 23.8681 3.42261 25.5442 3.08704 27.4885Z" fill="#0B6936"/>
<path d="M57.0471 36.405C60.8055 36.472 64.4968 36.6061 68.2552 36.6731C68.6578 36.6731 69.0605 36.6731 69.3961 36.6061C69.933 36.472 70.0001 36.0697 69.933 35.6004C69.933 34.997 69.4632 34.93 69.0605 34.997C67.9867 35.0641 67.3156 34.6618 67.3156 33.455C67.3156 32.6505 67.7183 32.0471 68.4565 32.1141C69.7988 32.1812 69.933 31.5107 69.7988 30.438C69.7317 29.9017 69.6646 29.3653 69.933 28.896C70.9397 32.2482 70.9397 35.7345 70.8726 39.2208C70.8726 40.2935 70.4028 40.5617 69.3961 40.5617C65.9062 40.2265 62.4162 40.1595 58.8592 40.0924C58.0538 40.0924 57.7183 39.8242 57.584 39.0867C57.4498 38.1481 57.2485 37.2765 57.0471 36.405Z" fill="#0A6836"/>
<path d="M16.3086 14.5488C15.6374 16.359 15.6374 16.292 17.4495 17.1635C17.9193 17.3647 19.0603 17.4317 18.5905 18.4374C18.1878 19.2419 17.718 19.9794 16.5099 19.7783C15.369 19.5771 14.4294 19.1078 13.5569 18.3703C13.02 17.9681 12.5502 17.6999 12.1475 18.3703C11.9462 18.6385 11.6106 18.9067 11.4764 18.5715C11.2079 17.6329 9.53007 17.2976 10.4025 15.8897C10.8052 15.2193 10.2012 15.0852 9.66429 15.1522C8.12067 15.3533 6.64416 15.6886 5.70456 17.1635C5.36899 17.7669 5.03342 18.3703 4.29517 18.5044C5.10054 16.4261 6.3757 14.7499 7.85221 13.1409C8.45624 13.7443 7.71799 13.9454 7.51664 14.2806C7.38241 14.4818 7.24819 14.7499 7.44953 14.9511C7.71799 15.2863 7.98644 15.0181 8.18778 14.884C8.99315 14.4818 9.1945 13.4761 9.99986 13.0738C10.3354 12.9397 10.5368 12.6045 10.9395 12.4704C11.8119 12.2023 12.5502 11.9341 12.5502 13.342C12.5502 13.5431 12.6844 13.9454 13.0871 13.9454C13.6911 13.342 12.416 12.4034 13.4227 11.9341C13.9596 11.6659 13.8254 12.8057 14.4965 12.6716C14.4294 12.8057 14.3623 12.9397 14.2952 13.0738C14.3623 13.2079 14.4294 13.342 14.4965 13.5431C13.7583 14.3477 14.0938 15.1522 14.2952 16.0908C15.0334 15.8227 14.8992 15.2863 14.8992 14.7499C15.3019 14.4818 15.7717 14.2136 16.3086 14.5488Z" fill="#019540"/>
<path d="M45.8389 1.60912C43.4899 1.00572 41.3423 2.07843 38.9933 2.27957C39.1946 3.01705 40.3356 4.02272 38.3893 4.55907C38.9262 3.82159 38.7248 3.28523 38.5906 2.68183C38.5235 2.21252 38.6577 1.47503 37.7852 1.60912C37.047 1.74321 36.6443 2.07843 36.9128 2.81592C34.7651 2.68183 32.6846 2.68183 30.5369 2.95001C29.396 3.0841 28.3893 3.48636 27.2483 2.54774C26.5101 1.94434 25.302 1.94434 24.2282 2.21252C23.6913 2.34661 23.2215 2.61479 22.6846 2.4807C26.8456 0.737545 31.2752 -0.0669877 35.8389 0.067101C34.8322 0.402323 33.7584 0.402323 32.8188 0.938678C32.6175 1.07277 32.2148 1.13981 32.2819 1.47503C32.2819 1.60912 32.5503 1.74321 32.6846 1.81025C33.0201 2.01139 33.3557 2.07843 33.5571 1.67617C34.0269 0.6705 34.9665 0.6705 35.8389 0.469367C36.2416 0.402323 36.7114 0.603456 36.9799 0.134145C40 0.134145 42.953 0.469367 45.8389 1.60912Z" fill="#079745"/>
<path d="M20.8726 4.69336C19.933 6.23538 21.7451 5.22971 21.9464 5.90016C20.0672 6.10129 18.8591 8.17967 16.9128 8.11262C14.5638 7.97853 13.0873 9.72169 11.141 10.5262C10.9397 10.5933 10.7383 10.8614 10.6712 11.0626C10.3357 12.3364 9.46318 12.6716 8.25513 12.6046C10.6712 9.5876 13.6243 7.174 16.9128 5.22971C17.0471 5.56494 16.8457 5.76607 16.6444 5.9672C16.1075 6.50356 16.7786 6.83878 16.98 7.174C17.1813 7.57627 17.5169 7.10696 17.7853 6.90582C18.3893 6.36947 19.1276 6.10129 19.4632 5.22971C19.6645 4.82745 20.3357 4.69336 20.8726 4.69336Z" fill="#059542"/>
<path d="M28.3225 14.0791C28.5238 14.8166 28.7922 15.5541 28.9265 16.2916C29.0607 17.0291 29.8661 18.1018 28.2553 18.3029C27.9869 18.3699 27.9869 18.7052 28.054 18.9063C28.3896 19.912 27.9198 20.9847 28.054 21.9903C28.1211 22.4597 28.054 23.1301 27.5842 23.1971C27.1144 23.3312 26.5775 23.1301 26.1748 22.7278C25.1681 21.6551 25.1681 20.1131 24.8325 18.7722C25.4365 19.0404 25.9063 19.7779 26.5775 19.4427C27.2486 19.1074 27.1144 18.3029 27.0473 17.6325C26.9802 16.895 27.45 16.0904 26.8459 15.2859C26.6446 15.0177 27.0473 14.6825 27.45 14.6825C27.8527 14.6155 28.1211 14.4143 28.3225 14.0791Z" fill="#0E6A39"/>
<path d="M28.3225 14.0798C28.1211 14.4151 27.8527 14.6832 27.45 14.6832C27.1144 14.6832 26.6446 15.0185 26.8459 15.2866C27.45 16.0241 26.9802 16.8287 27.0473 17.6332C27.1144 18.3036 27.2486 19.1082 26.5775 19.4434C25.9063 19.7786 25.3694 19.0411 24.8325 18.7729C25.4365 17.365 25.2352 15.89 25.2352 14.4151C25.2352 13.5435 27.3829 13.3424 28.3225 14.0798Z" fill="#059542"/>
<path d="M22.5502 12.4706C21.4763 12.7387 21.275 13.2751 22.0132 14.2137C22.2817 14.5489 22.5502 14.9512 22.2146 15.3535C21.879 15.8228 21.275 15.5546 21.0736 15.3535C19.7985 14.2137 18.322 14.683 16.8455 14.616C18.4562 12.0013 19.5971 11.599 22.5502 12.4706Z" fill="#079745"/>
<path d="M51.2751 48.0711C51.4093 49.8143 49.9328 50.4177 48.9261 51.2222C48.3892 51.6245 47.8522 50.82 47.3153 50.5518C46.6442 50.2166 46.9126 49.5461 46.9126 49.0098C46.9126 48.3393 47.4496 48.4734 47.9194 48.4064C48.9932 48.2052 49.9328 47.3336 51.0737 47.2666C51.1408 47.5348 51.2079 47.803 51.2751 48.0711Z" fill="#076633"/>
<path d="M16.1744 23.1975C16.1744 23.0634 16.1744 22.9293 16.1744 22.7952C16.2415 22.393 15.9731 21.7896 16.5771 21.7896C17.1811 21.7896 16.9798 22.46 17.0469 22.7952C17.114 23.1975 16.9798 23.6668 17.3825 24.002V24.1361C16.9127 26.3486 18.1207 28.494 17.5167 30.7065C17.4496 30.7065 17.3154 30.7065 17.2483 30.7065C16.8456 30.1701 16.9127 29.4326 16.3087 28.9633C16.1073 27.019 16.2415 25.0747 16.1744 23.1975Z" fill="#079745"/>
<path d="M32.5503 36.5391C33.1543 35.5334 32.2818 34.3937 32.6845 33.3209C32.953 32.7175 32.8187 31.9801 33.3556 31.5107C33.9597 33.1198 34.4295 34.7289 33.8254 36.472C33.557 37.2766 33.3556 38.2152 33.6912 39.1538C33.2214 39.422 32.8858 39.422 32.8187 38.7515C32.7516 38.2152 33.0201 37.6118 32.4832 37.1425C32.6174 36.9413 32.6174 36.7402 32.5503 36.5391Z" fill="#0F6B3A"/>
<path d="M23.2886 26.0806C23.8926 26.3487 24.4295 26.751 25.1678 26.2817C25.5705 25.9465 25.906 26.1476 25.906 26.684C25.906 26.8181 25.906 26.9521 25.9731 27.0862C26.1745 27.6226 27.2483 27.8237 26.6443 28.5612C26.1074 29.2317 25.4362 29.768 24.4966 29.8351C23.6241 28.7623 23.557 27.3544 23.2886 26.0806Z" fill="#0B6936"/>
<path d="M62.8191 20.2476C63.8929 21.3203 65.3023 22.1248 65.4366 23.935C65.5037 24.6725 65.5708 25.3429 65.101 26.1475C65.0339 25.2088 64.9667 24.4714 64.8996 23.5327C64.5641 24.0691 64.7654 24.4714 64.6983 24.8736C63.1547 23.7339 63.2218 21.9237 62.8191 20.2476Z" fill="#0C6F39"/>
<path d="M17.5838 30.5728C18.1207 28.3603 16.9127 26.2149 17.4496 24.0024C17.9865 25.5445 18.3892 27.1535 18.255 28.8967C18.1878 29.5671 18.3892 30.2376 18.7919 30.7739C18.3892 30.908 17.9865 30.7739 17.5838 30.5728Z" fill="#116C3B"/>
<path d="M54.0268 5.16262C52.953 5.36375 52.2147 4.69331 51.3423 4.35809C50.8725 4.15696 50.3355 3.88878 49.8657 3.88878C48.5235 3.95582 49.1946 3.28538 49.3288 2.74902C50.9396 3.28538 52.5503 4.08991 54.0268 5.16262Z" fill="#0C6F39"/>
<path d="M36.9799 0.134265C36.7114 0.603576 36.2416 0.402443 35.8389 0.469487C34.9665 0.670621 34.0269 0.670621 33.5571 1.67629C33.3557 2.07855 33.0201 2.01151 32.7517 1.87742C32.6175 1.81037 32.349 1.67629 32.349 1.5422C32.2819 1.13993 32.6846 1.13993 32.8859 1.00584C33.8255 0.469487 34.8993 0.402443 35.9061 0.134265C36.2416 -0.0668677 36.6443 0.000176683 36.9799 0.134265Z" fill="#0C6F39"/>
<path d="M21.7451 2.88281C20.3357 3.95552 18.9263 5.09528 17.0471 5.16232C18.5236 4.2237 20.0673 3.41917 21.7451 2.88281Z" fill="#059542"/>
<path d="M57.2484 7.37484C55.9732 7.50893 55.3021 6.83849 54.8994 5.69873C55.7719 6.101 56.5773 6.63735 57.2484 7.37484Z" fill="#0C6F39"/>
<path d="M14.8323 14.8171C14.8323 15.3535 14.9665 15.8899 14.2283 16.158C14.0269 15.2865 13.6914 14.4149 14.4296 13.6104C14.5638 14.0126 14.6981 14.4149 14.8323 14.8171Z" fill="#0C6F39"/>
<path d="M61.2079 32.6506C60.9395 33.1199 60.4697 33.254 60.2012 32.8517C59.8657 32.3824 59.7985 31.712 60.4697 31.2427C60.7381 31.712 60.4697 32.4495 61.2079 32.6506Z" fill="#116C3B"/>
<path d="M44.6311 41.7019C44.7653 41.0315 44.2955 40.2269 44.9667 39.6235C45.0338 40.0258 45.168 40.361 45.2351 40.7633C45.168 41.0985 45.2351 41.6349 44.6311 41.7019Z" fill="#0B6936"/>
<path d="M54.8994 5.69895C54.4295 5.766 54.0269 5.766 54.0269 5.1626C54.3624 5.1626 54.698 5.36373 54.8994 5.69895Z" fill="#0C6F39"/>
<path d="M57.9866 7.91135C57.5839 7.9784 57.2483 7.84431 57.2483 7.375C57.5839 7.44204 57.7852 7.64318 57.9866 7.91135Z" fill="#0C6F39"/>
<path d="M1.81226 45.2554C2.14783 45.4565 2.08071 45.8588 2.08071 46.127C1.81226 45.9258 1.81226 45.5906 1.81226 45.2554Z" fill="#0A6836"/>
<path d="M47.6511 2.14562C47.3826 2.21266 47.1142 2.14562 46.9128 1.87744C47.1813 1.87744 47.4498 1.87744 47.6511 2.14562Z" fill="#0C6F39"/>
<path d="M22.6174 2.54785C22.4161 2.88307 22.1476 2.88307 21.8792 2.88307C22.0134 2.6149 22.2818 2.6149 22.6174 2.54785Z" fill="#059542"/>
<path d="M48.4565 2.41378C48.1881 2.41378 47.9867 2.41378 47.7854 2.21264C48.0539 2.1456 48.2552 2.21264 48.4565 2.41378Z" fill="#0C6F39"/>
<path d="M33.2887 31.31C33.1545 31.31 33.0874 31.31 32.9531 31.31C33.0202 31.243 33.0874 31.1759 33.1545 31.1089C33.2887 31.1759 33.2887 31.243 33.2887 31.31Z" fill="#0F6B3A"/>
<path d="M58.3893 8.24654C58.3222 8.1795 58.2551 8.11245 58.1208 8.04541C58.188 8.11245 58.3222 8.1795 58.3893 8.24654Z" fill="#0C6F39"/>
<path d="M49.0604 2.68209C48.9262 2.61505 48.7919 2.548 48.6577 2.48096C48.7919 2.548 48.9262 2.61505 49.0604 2.68209Z" fill="#0C6F39"/>
<path d="M32.5504 36.5395C32.5504 36.7406 32.5504 36.9417 32.5504 37.1429C32.9531 40.4951 30.6041 42.3053 28.6578 42.7075C25.6377 43.3109 23.1545 41.7689 22.4162 38.9531C21.6108 35.869 23.5572 33.5225 25.6377 32.785C28.188 31.8464 31.0739 32.9861 32.1478 35.4667C32.3491 35.802 32.4833 36.1372 32.5504 36.5395Z" fill="#076633"/>
<path d="M43.4901 62.8877C42.4833 63.357 41.4095 62.8207 40.4028 63.223C40.1343 63.357 39.5974 62.8877 40.0672 62.6196C41.0739 62.0162 41.2753 60.8764 41.8122 60.0048C42.5505 58.798 43.4901 58.2617 44.8994 58.1946C46.1746 58.1946 47.3156 58.1276 48.4565 57.323C49.7988 56.3844 51.5437 56.6526 53.0874 56.1833C53.49 56.0492 54.3625 55.9151 53.7585 56.9208C53.49 57.3901 53.4901 57.7253 53.9598 58.0605C54.4296 58.3287 54.7652 57.9935 55.0337 57.6583C55.3021 57.3901 55.3692 56.8537 56.1075 56.7867C55.9733 58.2617 54.8994 59.4014 54.8323 60.8094C54.631 60.8094 54.4968 60.8094 54.2954 60.8094C54.1612 60.4741 54.0941 59.6696 53.6243 59.9378C52.6176 60.5412 51.4766 60.206 50.537 60.6082C48.8592 61.2787 47.2484 62.1502 45.3692 62.0162C44.631 61.9491 43.8927 62.1502 43.4901 62.8877Z" fill="#0A6836"/>
<path d="M4.49682 29.8351C4.8995 31.5112 5.70487 33.1203 4.69816 34.9304C4.36259 35.6009 4.76527 36.6066 4.76527 37.4781C4.76527 38.1486 4.96661 39.0202 4.63104 39.4895C3.15453 41.5008 4.16125 43.7133 3.89279 45.7916C3.08742 45.1882 3.55722 44.2496 3.35588 43.5121C2.88608 41.9031 3.15453 40.1599 2.75185 38.5508C2.61762 38.0815 2.75185 37.4111 3.08742 37.0759C3.9599 36.1372 3.75856 34.9975 3.75856 33.9248C3.75856 32.9191 4.02702 31.7123 2.21494 31.8464C1.67802 31.9135 1.14111 31.3101 1.47668 30.5726C1.81225 29.8351 2.68474 29.5669 3.15453 30.0362C3.89279 30.7067 4.09413 30.1033 4.49682 29.8351Z" fill="#0E6A39"/>
<path d="M31.0066 56.5858C29.5972 56.6528 28.5904 55.7812 28.5233 54.5074C28.4562 53.3006 29.5972 52.0267 30.8723 51.9597C32.0804 51.8927 33.3555 53.0995 33.4227 54.3063C33.3555 55.5131 32.3488 56.5187 31.0066 56.5858Z" fill="#076633"/>
<path d="M8.85897 46.5288C10.067 46.5288 10.9395 47.4004 10.8724 48.4731C10.8053 49.6129 10.1341 50.2163 9.06032 50.2833C7.98649 50.3503 7.11401 49.4117 7.18112 48.339C7.18112 47.1993 7.85226 46.5959 8.85897 46.5288Z" fill="#076633"/>
<path d="M15.7721 43.6465C15.2352 45.4567 14.1613 46.7976 12.8862 47.9373C12.5506 48.2725 12.0808 48.0044 11.8795 47.6691C11.611 47.1328 11.6781 46.5294 11.8795 45.926C12.5506 44.1828 13.96 43.8476 15.7721 43.6465Z" fill="#076633"/>
<path d="M22.0805 53.7028C22.1476 54.3732 21.4765 54.9766 20.6711 54.9766C19.8657 54.9766 19.1946 54.5073 19.1946 53.5687C19.1946 52.6301 19.7315 52.0267 20.6711 51.9596C21.6107 51.8926 22.0134 52.496 22.0805 53.7028Z" fill="#076633"/>
<path d="M44.2281 47.4675C44.2281 48.0709 44.2952 48.6743 44.765 49.1436C45.3691 49.747 44.8993 49.8811 44.4295 50.0822C44.161 49.5458 43.8926 49.0095 43.6241 48.4731C43.4899 48.205 43.2214 47.9368 42.953 48.0709C42.6174 48.2049 42.953 48.6072 42.953 48.8084C42.1476 48.4731 42.6174 47.7356 42.4832 47.1993C42.3489 46.4618 42.0805 45.7243 41.7449 45.0539C41.6107 44.7857 41.3422 44.3834 41.7449 44.1823C42.0805 43.9812 42.3489 44.3834 42.5503 44.6516C43.1543 45.5902 43.4228 46.6629 44.2281 47.4675Z" fill="#0C6F39"/>
<path d="M18.1879 35.1986C17.8523 34.1929 17.8523 33.1202 17.2483 32.2486C17.9865 31.9134 18.7248 32.0475 19.4631 32.2486C19.7986 32.3157 20.3355 32.3157 20.4698 32.7179C20.604 33.1872 20.3355 33.6565 20 33.8577C19.3288 34.1929 18.9933 34.9974 18.1879 35.1986Z" fill="#0C6F39"/>
<path d="M44.3626 42.2383C44.3626 43.1769 44.4298 44.1155 45.0338 44.9871C45.6378 45.7916 45.1009 47.1325 44.2284 47.4677C43.6915 46.1269 44.4298 44.6519 43.6915 43.311C43.3559 42.8417 43.96 42.5065 44.3626 42.2383Z" fill="#0B6936"/>
<path d="M51.2081 52.4288C51.2752 51.289 50.0671 52.9651 50.2013 51.8924C50.2685 51.289 50.604 50.6856 51.3423 50.7527C51.5436 50.7527 52.2819 50.8197 51.9463 51.222C51.6107 51.5572 51.8121 52.2277 51.2081 52.4288Z" fill="#0B6936"/>
<path d="M46.7114 52.8981C45.5705 52.8311 44.698 52.1606 44.0269 51.2891C44.9665 51.7584 46.2416 51.5572 46.7114 52.8981Z" fill="#0B6936"/>
<path d="M35.2349 40.294C35.1678 40.7633 35.0336 41.0315 34.6309 41.0985C34.1611 41.1656 34.1611 40.7633 34.094 40.4281C34.094 39.9588 34.2953 39.6235 34.698 39.6235C35.1678 39.6235 35.1678 40.0928 35.2349 40.294Z" fill="#076633"/>
<path d="M17.2482 32.1141C16.7784 31.1085 16.51 29.9687 16.4429 28.896C17.0469 29.2983 16.9798 30.1028 17.3825 30.6392C17.3154 31.1085 17.2482 31.5778 17.2482 32.1141Z" fill="#0C6F39"/>
<path d="M42.8859 48.9424C43.2215 49.2106 43.0873 49.5458 43.1544 49.881C42.7517 49.6128 42.8188 49.2776 42.8859 48.9424Z" fill="#0C6F39"/>
<path d="M44.6312 41.7017C44.6312 41.9698 44.5641 42.171 44.3628 42.3051C44.3628 42.0369 44.3628 41.8357 44.6312 41.7017Z" fill="#0B6936"/>
<path d="M46.7117 52.8984C46.8459 52.8984 46.9801 52.9655 47.1144 52.9655C46.8459 53.3007 46.7788 53.0325 46.7117 52.8984Z" fill="#0B6936"/>
<path d="M54.1611 61.0773C54.1611 61.0102 54.2283 60.8761 54.2283 60.8091C54.4296 60.8091 54.5638 60.8091 54.7652 60.8091C54.6309 61.0773 54.4296 61.0773 54.1611 61.0773Z" fill="#019540"/>
<path d="M53.7585 61.4129C53.8928 61.2788 54.027 61.2117 54.1612 61.0776C54.027 61.2117 53.8928 61.2788 53.7585 61.4129Z" fill="#019540"/>
<path d="M27.3156 3.55348C26.7787 3.8887 26.2418 4.29097 25.6377 3.95575C25.5706 3.8887 25.5706 3.48644 25.6377 3.41939C26.1747 2.95008 26.7116 3.62053 27.3156 3.55348Z" fill="#019540"/>
<path d="M20.9395 4.69332C21.0066 4.62628 21.1408 4.55923 21.208 4.49219C21.2751 4.82741 21.0066 4.62628 20.9395 4.69332C20.8724 4.69332 20.9395 4.69332 20.9395 4.69332Z" fill="#059542"/>
<path d="M64.9664 30.5728C65.5033 33.1204 64.765 34.3272 62.6845 34.7295C62.416 34.7966 62.2147 34.8636 61.9462 34.8636C61.6107 34.9306 61.3422 35.6011 61.0066 35.0647C60.7382 34.5954 61.0737 34.1261 61.4764 33.7909C61.6778 33.6568 61.8791 33.5227 62.0805 33.3886C64.2952 32.5841 64.2952 32.5841 64.9664 30.5728Z" fill="#0B6936"/>
<path d="M65.3021 28.2261C65.6377 28.6954 66.1746 29.0977 65.839 29.7681C65.7048 29.9692 65.5034 29.9022 65.3021 29.7681C64.4967 29.2988 65.4363 28.7624 65.3021 28.2261Z" fill="#0B6936"/>
<path d="M69.2621 48.205H72.0809V53.5685C71.3426 54.1049 70.5372 54.5071 69.5977 54.8424C68.6581 55.1776 67.7185 55.2446 66.7789 55.2446C65.4366 55.2446 64.1614 54.9764 63.0876 54.373C62.0138 53.7696 61.1413 52.9651 60.5372 51.9594C59.9332 50.9538 59.5977 49.747 59.5977 48.4731C59.5977 47.1993 59.9332 45.9925 60.5372 44.9868C61.1413 43.9812 62.0138 43.1766 63.1547 42.5732C64.2285 41.9698 65.5037 41.7017 66.9131 41.7017C68.054 41.7017 69.1279 41.9028 70.0675 42.3051C71.0071 42.7073 71.8124 43.2437 72.4164 43.9812L70.4701 45.7914C69.5305 44.7857 68.3896 44.3164 67.0473 44.3164C66.1748 44.3164 65.4366 44.5175 64.8326 44.8527C64.1614 45.188 63.6916 45.7243 63.2889 46.3277C62.9534 46.9982 62.752 47.6686 62.752 48.5402C62.752 49.3447 62.9534 50.0822 63.2889 50.7526C63.6245 51.4231 64.1614 51.8924 64.8326 52.2276C65.5037 52.5628 66.242 52.764 67.0473 52.764C67.9198 52.764 68.7252 52.5628 69.3963 52.2276V48.205H69.2621Z" fill="#076633"/>
<path d="M83.2889 54.9762L80.7386 51.2887H80.6044H77.9198V54.9762H74.8997V41.8354H80.6044C81.7453 41.8354 82.752 42.0366 83.6245 42.4388C84.497 42.8411 85.1681 43.3775 85.6379 44.115C86.1077 44.8524 86.3091 45.657 86.3091 46.6626C86.3091 47.6683 86.0406 48.4728 85.5708 49.2103C85.101 49.9478 84.4299 50.4842 83.5574 50.8194L86.5104 55.0432H83.2889V54.9762ZM82.4836 44.9195C82.0138 44.5172 81.3426 44.3161 80.403 44.3161H77.9198V48.9422H80.403C81.3426 48.9422 82.0138 48.741 82.4836 48.3388C82.9534 47.9365 83.2218 47.4001 83.2218 46.6626C83.2218 45.8581 82.9534 45.3218 82.4836 44.9195Z" fill="#076633"/>
<path d="M98.9264 52.5626V54.9762H88.7251V41.8354H98.658V44.249H91.7452V47.132H97.8526V49.4785H91.7452V52.4955H98.9264V52.5626Z" fill="#076633"/>
<path d="M111.544 52.5626V54.9762H101.343V41.8354H111.276V44.249H104.363V47.132H110.47V49.4785H104.363V52.4955H111.544V52.5626Z" fill="#076633"/>
<path d="M126.041 41.8354V54.9762H123.558L116.98 46.9979V54.9762H113.96V41.8354H116.511L123.088 49.8137V41.8354H126.041Z" fill="#076633"/>
<path d="M61.9466 69.4583C61.1412 69.056 60.5372 68.4526 60.0674 67.6481C59.5976 66.9106 59.3962 66.039 59.3962 65.0334C59.3962 64.0277 59.5976 63.2232 60.0674 62.4186C60.5372 61.6811 61.1412 61.0777 61.9466 60.6084C62.7519 60.2062 63.6244 59.938 64.6311 59.938C65.5036 59.938 66.2419 60.0721 66.913 60.4073C67.5842 60.7425 68.1882 61.1448 68.658 61.6811L67.1815 63.022C66.5103 62.2845 65.705 61.8823 64.6983 61.8823C64.0942 61.8823 63.5573 62.0164 63.0875 62.2845C62.6177 62.5527 62.215 62.8879 61.9466 63.4243C61.6781 63.8936 61.5439 64.43 61.5439 65.0334C61.5439 65.6368 61.6781 66.1731 61.9466 66.6424C62.215 67.1117 62.5506 67.514 63.0875 67.7822C63.6244 68.0504 64.0942 68.1844 64.6983 68.1844C65.705 68.1844 66.5103 67.7822 67.1815 67.0447L68.658 68.3856C68.1882 68.9219 67.5842 69.3912 66.913 69.6594C66.2419 69.9276 65.4365 70.1287 64.6311 70.1287C63.6244 70.1287 62.7519 69.9276 61.9466 69.4583Z" fill="#076633"/>
<path d="M78.5909 60.2061V69.9275H76.3091V65.9048H71.8795V69.9275H69.5977V60.2061H71.8795V64.0276H76.3091V60.2061H78.5909Z" fill="#076633"/>
<path d="M87.9867 68.1173V69.9275H80.4028V60.2061H87.7854V62.0163H82.6847V64.1617H87.2485V65.9048H82.6847V68.1843H87.9867V68.1173Z" fill="#076633"/>
<path d="M89.262 60.2061H93.6915C94.7653 60.2061 95.7049 60.4072 96.5103 60.8095C97.3157 61.2117 97.9868 61.8151 98.3895 62.4856C98.7922 63.156 99.0606 64.0946 99.0606 65.0333C99.0606 65.9719 98.8593 66.8435 98.3895 67.5809C97.9197 68.3184 97.3157 68.8548 96.5103 69.2571C95.7049 69.6593 94.7653 69.8604 93.6915 69.8604H89.262V60.2061ZM93.6244 68.1173C94.6311 68.1173 95.3693 67.8491 95.9734 67.3128C96.5774 66.7764 96.8459 66.0389 96.8459 65.1003C96.8459 64.1617 96.5774 63.4242 95.9734 62.8878C95.3693 62.3515 94.6311 62.0833 93.6244 62.0833H91.5438V68.1173H93.6244Z" fill="#076633"/>
<path d="M100.269 60.2061H104.698C105.772 60.2061 106.712 60.4072 107.517 60.8095C108.322 61.2117 108.993 61.8151 109.396 62.4856C109.799 63.156 110.067 64.0946 110.067 65.0333C110.067 65.9719 109.866 66.8435 109.396 67.5809C108.926 68.3184 108.322 68.8548 107.517 69.2571C106.712 69.6593 105.772 69.8604 104.698 69.8604H100.269V60.2061ZM104.631 68.1173C105.638 68.1173 106.376 67.8491 106.98 67.3128C107.584 66.7764 107.852 66.0389 107.852 65.1003C107.852 64.1617 107.584 63.4242 106.98 62.8878C106.376 62.3515 105.638 62.0833 104.631 62.0833H102.55V68.1173H104.631Z" fill="#076633"/>
<path d="M117.584 67.8491H113.02L112.148 69.9275H109.866L114.228 60.2061H116.443L120.806 69.9275H118.457L117.584 67.8491ZM116.913 66.173L115.369 62.4185L113.826 66.173H116.913Z" fill="#076633"/>
<path d="M127.584 69.9275L125.705 67.1787H125.571H123.625V69.9275H121.343V60.2061H125.571C126.443 60.2061 127.182 60.3401 127.853 60.6083C128.457 60.8765 128.994 61.2788 129.329 61.8151C129.665 62.3515 129.866 62.9549 129.866 63.6924C129.866 64.4299 129.665 65.0333 129.329 65.5696C128.994 66.106 128.457 66.5082 127.853 66.7764L130.068 69.9275H127.584ZM126.98 62.4856C126.645 62.2174 126.108 62.0163 125.437 62.0163H123.625V65.4355H125.437C126.108 65.4355 126.645 65.3014 126.98 64.9662C127.316 64.631 127.517 64.2287 127.517 63.6924C127.517 63.2231 127.383 62.7537 126.98 62.4856Z" fill="#076633"/>
</g>
<defs>
<clipPath id="clip0_1812_8237">
<rect width="130" height="71" fill="white"/>
</clipPath>
</defs>
</svg>
