<?xml version="1.0"?>
<svg xmlns="http://www.w3.org/2000/svg" viewBox="0 0 64 64" width="512" height="512"><title>inventory-store-Boxes-storage-product</title><g id="Expand"><rect x="32" y="56" width="2" height="2"/><rect x="28" y="56" width="2" height="2"/><path d="M58,32h1a1,1,0,0,0,1-1V25a1,1,0,0,0-1-1H50V16h1a1,1,0,0,0,1-1V9a1,1,0,0,0-1-1H13a1,1,0,0,0-1,1v6a1,1,0,0,0,1,1h1V40H5a1,1,0,0,0-1,1v6a1,1,0,0,0,1,1H6V60H2v2H62V60H58Zm0-2H47V26H58ZM39,32h6v4H39Zm0-2V26h6v4ZM26,30V26H37v4ZM50,14H37V10H50ZM29,16h6v4H29Zm0-2V10h6v4ZM14,10H27v4H14Zm2,6H27v5a1,1,0,0,0,1,1h8a1,1,0,0,0,1-1V16H48v8H25a1,1,0,0,0-1,1v6a1,1,0,0,0,1,1h1v8H16ZM27,46V42H38v4Zm-8,2h6v4H19Zm0-2V42h6v4ZM6,42H17v4H6ZM8,60V48h9v5a1,1,0,0,0,1,1h8a1,1,0,0,0,1-1V48h9V60Zm30,0V48h1a1,1,0,0,0,1-1V41a1,1,0,0,0-1-1H28V32h9v5a1,1,0,0,0,1,1h8a1,1,0,0,0,1-1V32h9V60Z"/><rect x="52" y="56" width="2" height="2"/><rect x="48" y="56" width="2" height="2"/><rect x="60" y="38" width="2" height="15"/><rect x="10" y="19" width="2" height="16"/><rect x="23" y="4" width="22" height="2"/><rect x="47" y="4" width="2" height="2"/></g></svg>
