<svg id="Layer_1" data-name="Layer 1" xmlns="http://www.w3.org/2000/svg" viewBox="0 0 512 512"><defs><style>.cls-1{fill:#fff;}</style></defs><path class="cls-1" d="M427.15,274A172.1,172.1,0,0,1,274,427.15v35.08A207.0246,207.0246,0,0,0,462.23,274ZM274,49.77V84.85A172.1,172.1,0,0,1,427.15,238h35.08A207.0246,207.0246,0,0,0,274,49.77ZM84.85,274H49.77A207.0246,207.0246,0,0,0,238,462.23V427.15A172.1,172.1,0,0,1,84.85,274ZM49.77,238H84.85A172.1,172.1,0,0,1,238,84.85V49.77A207.0246,207.0246,0,0,0,49.77,238Z"/><path class="cls-1" d="M274,9V84.85a174.6585,174.6585,0,0,0-36,0V9Z"/><path class="cls-1" d="M274,427.15V503H238V427.15a174.6585,174.6585,0,0,0,36,0Z"/><path class="cls-1" d="M503,238v36H427.15a174.6585,174.6585,0,0,0,0-36Z"/><path class="cls-1" d="M83.92,256a175.4926,175.4926,0,0,0,.93,18H9V238H84.85A175.4926,175.4926,0,0,0,83.92,256Z"/><circle class="cls-1" cx="256" cy="256" r="124"/></svg>