<?xml version="1.0" encoding="UTF-8"?>
<svg data-name="Layer 1" version="1.1" viewBox="0 0 496 496" xmlns="http://www.w3.org/2000/svg">
 <path transform="translate(-8 -8)" d="M256,8C119,8,8,119,8,256S119,504,256,504,504,393,504,256,393,8,256,8Zm0,465.94C135.6,473.94,38.06,376.4,38.06,256S135.6,38.06,256,38.06,473.94,135.6,473.94,256,376.4,473.94,256,473.94Z" fill="#fff"/>
 <path transform="translate(-8 -8)" d="m383 280.69a10.614 10.614 0 0 1-10.583 10.583h-81.139v81.139a10.614 10.614 0 0 1-10.583 10.583h-49.389a10.614 10.614 0 0 1-10.583-10.583v-81.139h-81.139a10.614 10.614 0 0 1-10.583-10.583v-49.389a10.614 10.614 0 0 1 10.583-10.583h81.139v-81.139a10.614 10.614 0 0 1 10.583-10.583h49.389a10.614 10.614 0 0 1 10.583 10.583v81.139h81.139a10.614 10.614 0 0 1 10.583 10.583z" fill="#fff"/>
</svg>
