<?xml version="1.0" encoding="UTF-8" standalone="no"?> <svg id="Layer_1" data-name="Layer 1" xmlns="http://www.w3.org/2000/svg" viewBox="0 0 128 128"><defs><style>.cls-1{fill:#2d3e50;}.cls-2{fill:#2e79bd;}</style></defs><title>b</title><path class="cls-1" d="M94.43561,53.16732q-.3107-.87185-.66873-1.71959A32.301,32.301,0,0,0,64.24821,31.69749l-.24731-.00179-.23124.00179A32.30977,32.30977,0,0,0,34.23312,51.44773q-.35892.84774-.66784,1.71869a32.333,32.333,0,0,0-.00089,21.668c.20714.58123.43034,1.15532.67051,1.7178A32.29728,32.29728,0,0,0,63.75358,96.30251l.24731.00179.23124-.00179A32.3073,32.3073,0,0,0,93.76688,76.55227q.35892-.8464.66784-1.7178a32.33046,32.33046,0,0,0,.00089-21.66715ZM81.55389,56.35114h8.1792a26.91668,26.91668,0,0,1,0,15.29861H81.553a59.6618,59.6618,0,0,0,.00089-15.29861ZM66.73116,71.64975V56.35114H76.03a53.04325,53.04325,0,0,1,0,15.29861Zm0-20.76V37.85264c3.35435,1.72137,6.373,6.52032,8.16134,13.03707Zm9.58-10.74251A26.79407,26.79407,0,0,1,87.41977,50.88972h-6.8721a39.95634,39.95634,0,0,0-3.29453-9.056Q76.80047,40.95924,76.3112,40.14721ZM87.41977,77.11028A26.80566,26.80566,0,0,1,76.313,87.85279q.48614-.80756.94015-1.68387a39.98838,39.98838,0,0,0,3.29453-9.05863Zm-12.52727,0c-1.78833,6.51764-4.807,11.31659-8.16134,13.03707V77.11028ZM61.26973,37.85354V50.88972H53.1075C54.89583,44.37386,57.91449,39.57491,61.26973,37.85354Zm0,18.49761V71.64975H51.97a53.04325,53.04325,0,0,1,0-15.29861Zm0,20.75914V90.14736C57.91449,88.426,54.89583,83.627,53.1075,77.11028ZM40.582,50.88972A26.7845,26.7845,0,0,1,51.6888,40.14721q-.48882.8089-.94193,1.68655a40.05119,40.05119,0,0,0-3.29453,9.056Zm6.87031,26.22057A40.14539,40.14539,0,0,0,50.746,86.168q.45266.87452.94015,1.68477A26.78867,26.78867,0,0,1,40.582,77.11028ZM46.447,71.64975h-8.1792a26.89593,26.89593,0,0,1,0-15.29861H46.447a59.71548,59.71548,0,0,0,0,15.29861Z"/><path class="cls-2" d="M20.48552,31.50761l.02759.02007c.04767-.06774.09785-.133.148-.19819.09031-.12544.18314-.24839.27848-.37132A49.59006,49.59006,0,0,1,52.03913,11.96128a50.13455,50.13455,0,0,1,8.47735-.75516A49.36343,49.36343,0,0,1,82.529,16.18364q1.61068.78653,3.1511,1.68594a47.75641,47.75641,0,0,1,11.2875,9.152l-.37908.37908-3.29912,3.29912L91.52126,32.4679a.76309.76309,0,0,0,.53959,1.30268h19.01577a.76151.76151,0,0,0,.62721-.3297l.13589-.00147-.00423-.39c.00078-.01418.00423-.02758.00423-.042V13.99172a.76309.76309,0,0,0-1.30268-.53959l-1.5047,1.5047-3.5475,3.54748-.05519.0552-.58271.58269c-.11731-.1135-.23255-.22906-.35058-.34184A58.73077,58.73077,0,0,0,47.10426,5.25516a57.0914,57.0914,0,0,0-12.13274,5.29616,55.76153,55.76153,0,0,0-15.01286,12.7825,53.28653,53.28653,0,0,0-3.45216,4.69906c-.11541.17812-.23081.35625-.34622.53689l2.94537,2.002Z"/><path class="cls-2" d="M107.51448,96.49239l-.02759-.02007c-.04767.06774-.09785.133-.148.19819-.09031.12544-.18314.24839-.27848.37132a49.59006,49.59006,0,0,1-31.09952,18.99689,50.13455,50.13455,0,0,1-8.47735.75516A49.36343,49.36343,0,0,1,45.471,111.81636q-1.61068-.78653-3.1511-1.68594a47.75641,47.75641,0,0,1-11.2875-9.152l.37908-.37908,3.29912-3.29912,1.76813-1.76813a.76309.76309,0,0,0-.53959-1.30268H16.92338a.76151.76151,0,0,0-.62721.3297l-.13588.00147.00423.39c-.00078.01418-.00423.02758-.00423.042v19.01577a.76309.76309,0,0,0,1.30268.53959l1.5047-1.5047,3.5475-3.54748.05519-.0552.58271-.58269c.11731.1135.23255.22906.35058.34184a58.73077,58.73077,0,0,0,57.39209,13.54521,57.0914,57.0914,0,0,0,12.13274-5.29616,55.76153,55.76153,0,0,0,15.01286-12.7825,53.28653,53.28653,0,0,0,3.45216-4.69906c.11541-.17812.23081-.35625.34622-.53689l-2.94537-2.002Z"/></svg>